ISO-10303-21;
HEADER;
FILE_DESCRIPTION(('FreeCAD Model'),'2;1');
FILE_NAME('Open CASCADE Shape Model','2026-02-06T13:07:59',(''),(''),
  'Open CASCADE STEP processor 7.8','FreeCAD','Unknown');
FILE_SCHEMA(('AUTOMOTIVE_DESIGN { 1 0 10303 214 1 1 1 1 }'));
ENDSEC;
DATA;
#1 = APPLICATION_PROTOCOL_DEFINITION('international standard',
  'automotive_design',2000,#2);
#2 = APPLICATION_CONTEXT(
  'core data for automotive mechanical design processes');
#3 = SHAPE_DEFINITION_REPRESENTATION(#4,#10);
#4 = PRODUCT_DEFINITION_SHAPE('','',#5);
#5 = PRODUCT_DEFINITION('design','',#6,#9);
#6 = PRODUCT_DEFINITION_FORMATION('','',#7);
#7 = PRODUCT('Assembly','Assembly','',(#8));
#8 = PRODUCT_CONTEXT('',#2,'mechanical');
#9 = PRODUCT_DEFINITION_CONTEXT('part definition',#2,'design');
#10 = SHAPE_REPRESENTATION('',(#11,#15,#19,#23,#27,#31,#35,#39,#43,#47,
    #51),#55);
#11 = AXIS2_PLACEMENT_3D('',#12,#13,#14);
#12 = CARTESIAN_POINT('',(0.,0.,0.));
#13 = DIRECTION('',(0.,0.,1.));
#14 = DIRECTION('',(1.,0.,-0.));
#15 = AXIS2_PLACEMENT_3D('',#16,#17,#18);
#16 = CARTESIAN_POINT('',(0.,0.,0.));
#17 = DIRECTION('',(0.,0.,1.));
#18 = DIRECTION('',(1.,0.,0.));
#19 = AXIS2_PLACEMENT_3D('',#20,#21,#22);
#20 = CARTESIAN_POINT('',(0.,0.,0.));
#21 = DIRECTION('',(0.,0.,1.));
#22 = DIRECTION('',(1.,0.,0.));
#23 = AXIS2_PLACEMENT_3D('',#24,#25,#26);
#24 = CARTESIAN_POINT('',(-9.271,6.604,-2.5));
#25 = DIRECTION('',(8.659560562355E-17,8.659560562355E-17,-1.));
#26 = DIRECTION('',(-1.,2.22044604925E-16,-8.659560562355E-17));
#27 = AXIS2_PLACEMENT_3D('',#28,#29,#30);
#28 = CARTESIAN_POINT('',(9.271,6.604,-2.5));
#29 = DIRECTION('',(8.659560562355E-17,8.659560562355E-17,-1.));
#30 = DIRECTION('',(-1.,2.22044604925E-16,-8.659560562355E-17));
#31 = AXIS2_PLACEMENT_3D('',#32,#33,#34);
#32 = CARTESIAN_POINT('',(9.271,-4.064,-2.5));
#33 = DIRECTION('',(8.659560562355E-17,8.659560562355E-17,-1.));
#34 = DIRECTION('',(-1.,2.22044604925E-16,-8.659560562355E-17));
#35 = AXIS2_PLACEMENT_3D('',#36,#37,#38);
#36 = CARTESIAN_POINT('',(-9.271,-4.064,-2.5));
#37 = DIRECTION('',(8.659560562355E-17,8.659560562355E-17,-1.));
#38 = DIRECTION('',(-1.,2.22044604925E-16,-8.659560562355E-17));
#39 = AXIS2_PLACEMENT_3D('',#40,#41,#42);
#40 = CARTESIAN_POINT('',(-9.271,6.604,-2.5));
#41 = DIRECTION('',(-2.865956056235E-16,-2.090602855383E-16,1.));
#42 = DIRECTION('',(-1.,4.22044604925E-16,-2.865956056235E-16));
#43 = AXIS2_PLACEMENT_3D('',#44,#45,#46);
#44 = CARTESIAN_POINT('',(9.271,6.604,-2.5));
#45 = DIRECTION('',(-2.865956056235E-16,-2.090602855383E-16,1.));
#46 = DIRECTION('',(-1.,4.22044604925E-16,-2.865956056235E-16));
#47 = AXIS2_PLACEMENT_3D('',#48,#49,#50);
#48 = CARTESIAN_POINT('',(9.271,-4.064,-2.5));
#49 = DIRECTION('',(-2.865956056235E-16,-2.090602855383E-16,1.));
#50 = DIRECTION('',(-1.,4.22044604925E-16,-2.865956056235E-16));
#51 = AXIS2_PLACEMENT_3D('',#52,#53,#54);
#52 = CARTESIAN_POINT('',(-9.271,-4.064,-2.5));
#53 = DIRECTION('',(-2.865956056235E-16,-2.090602855383E-16,1.));
#54 = DIRECTION('',(-1.,4.22044604925E-16,-2.865956056235E-16));
#55 = ( GEOMETRIC_REPRESENTATION_CONTEXT(3) 
GLOBAL_UNCERTAINTY_ASSIGNED_CONTEXT((#59)) GLOBAL_UNIT_ASSIGNED_CONTEXT(
(#56,#57,#58)) REPRESENTATION_CONTEXT('Context #1',
  '3D Context with UNIT and UNCERTAINTY') );
#56 = ( LENGTH_UNIT() NAMED_UNIT(*) SI_UNIT(.MILLI.,.METRE.) );
#57 = ( NAMED_UNIT(*) PLANE_ANGLE_UNIT() SI_UNIT($,.RADIAN.) );
#58 = ( NAMED_UNIT(*) SI_UNIT($,.STERADIAN.) SOLID_ANGLE_UNIT() );
#59 = UNCERTAINTY_MEASURE_WITH_UNIT(LENGTH_MEASURE(5.E-06),#56,
  'distance_accuracy_value','confusion accuracy');
#60 = PRODUCT_RELATED_PRODUCT_CATEGORY('part',$,(#7));
#61 = SHAPE_DEFINITION_REPRESENTATION(#62,#68);
#62 = PRODUCT_DEFINITION_SHAPE('','',#63);
#63 = PRODUCT_DEFINITION('design','',#64,#67);
#64 = PRODUCT_DEFINITION_FORMATION('','',#65);
#65 = PRODUCT('LCS_Origin','LCS_Origin','',(#66));
#66 = PRODUCT_CONTEXT('',#2,'mechanical');
#67 = PRODUCT_DEFINITION_CONTEXT('part definition',#2,'design');
#68 = MANIFOLD_SURFACE_SHAPE_REPRESENTATION('',(#11),#69);
#69 = ( GEOMETRIC_REPRESENTATION_CONTEXT(3) 
GLOBAL_UNCERTAINTY_ASSIGNED_CONTEXT((#73)) GLOBAL_UNIT_ASSIGNED_CONTEXT(
(#70,#71,#72)) REPRESENTATION_CONTEXT('Context #1',
  '3D Context with UNIT and UNCERTAINTY') );
#70 = ( LENGTH_UNIT() NAMED_UNIT(*) SI_UNIT(.MILLI.,.METRE.) );
#71 = ( NAMED_UNIT(*) PLANE_ANGLE_UNIT() SI_UNIT($,.RADIAN.) );
#72 = ( NAMED_UNIT(*) SI_UNIT($,.STERADIAN.) SOLID_ANGLE_UNIT() );
#73 = UNCERTAINTY_MEASURE_WITH_UNIT(LENGTH_MEASURE(1.E-07),#70,
  'distance_accuracy_value','confusion accuracy');
#74 = CONTEXT_DEPENDENT_SHAPE_REPRESENTATION(#75,#77);
#75 = ( REPRESENTATION_RELATIONSHIP('','',#68,#10) 
REPRESENTATION_RELATIONSHIP_WITH_TRANSFORMATION(#76) 
SHAPE_REPRESENTATION_RELATIONSHIP() );
#76 = ITEM_DEFINED_TRANSFORMATION('','',#11,#15);
#77 = PRODUCT_DEFINITION_SHAPE('Placement','Placement of an item',#78);
#78 = NEXT_ASSEMBLY_USAGE_OCCURRENCE('1','LCS_Origin','',#5,#63,$);
#79 = PRODUCT_RELATED_PRODUCT_CATEGORY('part',$,(#65));
#80 = SHAPE_DEFINITION_REPRESENTATION(#81,#87);
#81 = PRODUCT_DEFINITION_SHAPE('','',#82);
#82 = PRODUCT_DEFINITION('design','',#83,#86);
#83 = PRODUCT_DEFINITION_FORMATION('','',#84);
#84 = PRODUCT('MP1584 EN','MP1584 EN','',(#85));
#85 = PRODUCT_CONTEXT('',#2,'mechanical');
#86 = PRODUCT_DEFINITION_CONTEXT('part definition',#2,'design');
#87 = ADVANCED_BREP_SHAPE_REPRESENTATION('',(#11,#88),#550);
#88 = MANIFOLD_SOLID_BREP('',#89);
#89 = CLOSED_SHELL('',(#90,#130,#161,#192,#214,#247,#280,#313,#346,#379,
    #412,#445,#478,#514));
#90 = ADVANCED_FACE('',(#91),#125,.F.);
#91 = FACE_BOUND('',#92,.F.);
#92 = EDGE_LOOP('',(#93,#103,#111,#119));
#93 = ORIENTED_EDGE('',*,*,#94,.T.);
#94 = EDGE_CURVE('',#95,#97,#99,.T.);
#95 = VERTEX_POINT('',#96);
#96 = CARTESIAN_POINT('',(-11.049,-8.367,0.));
#97 = VERTEX_POINT('',#98);
#98 = CARTESIAN_POINT('',(-11.049,-8.367,1.6));
#99 = LINE('',#100,#101);
#100 = CARTESIAN_POINT('',(-11.049,-8.367,0.));
#101 = VECTOR('',#102,1.);
#102 = DIRECTION('',(0.,0.,1.));
#103 = ORIENTED_EDGE('',*,*,#104,.T.);
#104 = EDGE_CURVE('',#97,#105,#107,.T.);
#105 = VERTEX_POINT('',#106);
#106 = CARTESIAN_POINT('',(11.049,-8.367,1.6));
#107 = LINE('',#108,#109);
#108 = CARTESIAN_POINT('',(-11.049,-8.367,1.6));
#109 = VECTOR('',#110,1.);
#110 = DIRECTION('',(1.,0.,0.));
#111 = ORIENTED_EDGE('',*,*,#112,.F.);
#112 = EDGE_CURVE('',#113,#105,#115,.T.);
#113 = VERTEX_POINT('',#114);
#114 = CARTESIAN_POINT('',(11.049,-8.367,0.));
#115 = LINE('',#116,#117);
#116 = CARTESIAN_POINT('',(11.049,-8.367,0.));
#117 = VECTOR('',#118,1.);
#118 = DIRECTION('',(0.,0.,1.));
#119 = ORIENTED_EDGE('',*,*,#120,.F.);
#120 = EDGE_CURVE('',#95,#113,#121,.T.);
#121 = LINE('',#122,#123);
#122 = CARTESIAN_POINT('',(-11.049,-8.367,0.));
#123 = VECTOR('',#124,1.);
#124 = DIRECTION('',(1.,0.,0.));
#125 = PLANE('',#126);
#126 = AXIS2_PLACEMENT_3D('',#127,#128,#129);
#127 = CARTESIAN_POINT('',(-11.049,-8.367,0.));
#128 = DIRECTION('',(0.,1.,0.));
#129 = DIRECTION('',(1.,0.,0.));
#130 = ADVANCED_FACE('',(#131),#156,.F.);
#131 = FACE_BOUND('',#132,.F.);
#132 = EDGE_LOOP('',(#133,#134,#142,#150));
#133 = ORIENTED_EDGE('',*,*,#112,.T.);
#134 = ORIENTED_EDGE('',*,*,#135,.T.);
#135 = EDGE_CURVE('',#105,#136,#138,.T.);
#136 = VERTEX_POINT('',#137);
#137 = CARTESIAN_POINT('',(11.049,8.367,1.6));
#138 = LINE('',#139,#140);
#139 = CARTESIAN_POINT('',(11.049,-8.367,1.6));
#140 = VECTOR('',#141,1.);
#141 = DIRECTION('',(0.,1.,0.));
#142 = ORIENTED_EDGE('',*,*,#143,.F.);
#143 = EDGE_CURVE('',#144,#136,#146,.T.);
#144 = VERTEX_POINT('',#145);
#145 = CARTESIAN_POINT('',(11.049,8.367,0.));
#146 = LINE('',#147,#148);
#147 = CARTESIAN_POINT('',(11.049,8.367,0.));
#148 = VECTOR('',#149,1.);
#149 = DIRECTION('',(0.,0.,1.));
#150 = ORIENTED_EDGE('',*,*,#151,.F.);
#151 = EDGE_CURVE('',#113,#144,#152,.T.);
#152 = LINE('',#153,#154);
#153 = CARTESIAN_POINT('',(11.049,-8.367,0.));
#154 = VECTOR('',#155,1.);
#155 = DIRECTION('',(0.,1.,0.));
#156 = PLANE('',#157);
#157 = AXIS2_PLACEMENT_3D('',#158,#159,#160);
#158 = CARTESIAN_POINT('',(11.049,-8.367,0.));
#159 = DIRECTION('',(-1.,0.,0.));
#160 = DIRECTION('',(0.,1.,0.));
#161 = ADVANCED_FACE('',(#162),#187,.F.);
#162 = FACE_BOUND('',#163,.F.);
#163 = EDGE_LOOP('',(#164,#165,#173,#181));
#164 = ORIENTED_EDGE('',*,*,#143,.T.);
#165 = ORIENTED_EDGE('',*,*,#166,.T.);
#166 = EDGE_CURVE('',#136,#167,#169,.T.);
#167 = VERTEX_POINT('',#168);
#168 = CARTESIAN_POINT('',(-11.049,8.367,1.6));
#169 = LINE('',#170,#171);
#170 = CARTESIAN_POINT('',(11.049,8.367,1.6));
#171 = VECTOR('',#172,1.);
#172 = DIRECTION('',(-1.,0.,0.));
#173 = ORIENTED_EDGE('',*,*,#174,.F.);
#174 = EDGE_CURVE('',#175,#167,#177,.T.);
#175 = VERTEX_POINT('',#176);
#176 = CARTESIAN_POINT('',(-11.049,8.367,0.));
#177 = LINE('',#178,#179);
#178 = CARTESIAN_POINT('',(-11.049,8.367,0.));
#179 = VECTOR('',#180,1.);
#180 = DIRECTION('',(0.,0.,1.));
#181 = ORIENTED_EDGE('',*,*,#182,.F.);
#182 = EDGE_CURVE('',#144,#175,#183,.T.);
#183 = LINE('',#184,#185);
#184 = CARTESIAN_POINT('',(11.049,8.367,0.));
#185 = VECTOR('',#186,1.);
#186 = DIRECTION('',(-1.,0.,0.));
#187 = PLANE('',#188);
#188 = AXIS2_PLACEMENT_3D('',#189,#190,#191);
#189 = CARTESIAN_POINT('',(11.049,8.367,0.));
#190 = DIRECTION('',(0.,-1.,0.));
#191 = DIRECTION('',(-1.,0.,0.));
#192 = ADVANCED_FACE('',(#193),#209,.F.);
#193 = FACE_BOUND('',#194,.F.);
#194 = EDGE_LOOP('',(#195,#196,#202,#203));
#195 = ORIENTED_EDGE('',*,*,#174,.T.);
#196 = ORIENTED_EDGE('',*,*,#197,.T.);
#197 = EDGE_CURVE('',#167,#97,#198,.T.);
#198 = LINE('',#199,#200);
#199 = CARTESIAN_POINT('',(-11.049,8.367,1.6));
#200 = VECTOR('',#201,1.);
#201 = DIRECTION('',(0.,-1.,0.));
#202 = ORIENTED_EDGE('',*,*,#94,.F.);
#203 = ORIENTED_EDGE('',*,*,#204,.F.);
#204 = EDGE_CURVE('',#175,#95,#205,.T.);
#205 = LINE('',#206,#207);
#206 = CARTESIAN_POINT('',(-11.049,8.367,0.));
#207 = VECTOR('',#208,1.);
#208 = DIRECTION('',(0.,-1.,0.));
#209 = PLANE('',#210);
#210 = AXIS2_PLACEMENT_3D('',#211,#212,#213);
#211 = CARTESIAN_POINT('',(-11.049,8.367,0.));
#212 = DIRECTION('',(1.,0.,0.));
#213 = DIRECTION('',(0.,-1.,0.));
#214 = ADVANCED_FACE('',(#215),#242,.F.);
#215 = FACE_BOUND('',#216,.T.);
#216 = EDGE_LOOP('',(#217,#227,#234,#235));
#217 = ORIENTED_EDGE('',*,*,#218,.T.);
#218 = EDGE_CURVE('',#219,#221,#223,.T.);
#219 = VERTEX_POINT('',#220);
#220 = CARTESIAN_POINT('',(9.771,-6.604,0.));
#221 = VERTEX_POINT('',#222);
#222 = CARTESIAN_POINT('',(9.771,-6.604,1.6));
#223 = LINE('',#224,#225);
#224 = CARTESIAN_POINT('',(9.771,-6.604,0.));
#225 = VECTOR('',#226,1.);
#226 = DIRECTION('',(0.,0.,1.));
#227 = ORIENTED_EDGE('',*,*,#228,.T.);
#228 = EDGE_CURVE('',#221,#221,#229,.T.);
#229 = CIRCLE('',#230,0.5);
#230 = AXIS2_PLACEMENT_3D('',#231,#232,#233);
#231 = CARTESIAN_POINT('',(9.271,-6.604,1.6));
#232 = DIRECTION('',(0.,0.,1.));
#233 = DIRECTION('',(1.,0.,0.));
#234 = ORIENTED_EDGE('',*,*,#218,.F.);
#235 = ORIENTED_EDGE('',*,*,#236,.F.);
#236 = EDGE_CURVE('',#219,#219,#237,.T.);
#237 = CIRCLE('',#238,0.5);
#238 = AXIS2_PLACEMENT_3D('',#239,#240,#241);
#239 = CARTESIAN_POINT('',(9.271,-6.604,0.));
#240 = DIRECTION('',(0.,0.,1.));
#241 = DIRECTION('',(1.,0.,0.));
#242 = CYLINDRICAL_SURFACE('',#243,0.5);
#243 = AXIS2_PLACEMENT_3D('',#244,#245,#246);
#244 = CARTESIAN_POINT('',(9.271,-6.604,0.));
#245 = DIRECTION('',(-0.,-0.,-1.));
#246 = DIRECTION('',(1.,0.,0.));
#247 = ADVANCED_FACE('',(#248),#275,.F.);
#248 = FACE_BOUND('',#249,.T.);
#249 = EDGE_LOOP('',(#250,#260,#267,#268));
#250 = ORIENTED_EDGE('',*,*,#251,.T.);
#251 = EDGE_CURVE('',#252,#254,#256,.T.);
#252 = VERTEX_POINT('',#253);
#253 = CARTESIAN_POINT('',(-8.771,-6.604,0.));
#254 = VERTEX_POINT('',#255);
#255 = CARTESIAN_POINT('',(-8.771,-6.604,1.6));
#256 = LINE('',#257,#258);
#257 = CARTESIAN_POINT('',(-8.771,-6.604,0.));
#258 = VECTOR('',#259,1.);
#259 = DIRECTION('',(0.,0.,1.));
#260 = ORIENTED_EDGE('',*,*,#261,.T.);
#261 = EDGE_CURVE('',#254,#254,#262,.T.);
#262 = CIRCLE('',#263,0.5);
#263 = AXIS2_PLACEMENT_3D('',#264,#265,#266);
#264 = CARTESIAN_POINT('',(-9.271,-6.604,1.6));
#265 = DIRECTION('',(0.,0.,1.));
#266 = DIRECTION('',(1.,0.,0.));
#267 = ORIENTED_EDGE('',*,*,#251,.F.);
#268 = ORIENTED_EDGE('',*,*,#269,.F.);
#269 = EDGE_CURVE('',#252,#252,#270,.T.);
#270 = CIRCLE('',#271,0.5);
#271 = AXIS2_PLACEMENT_3D('',#272,#273,#274);
#272 = CARTESIAN_POINT('',(-9.271,-6.604,0.));
#273 = DIRECTION('',(0.,0.,1.));
#274 = DIRECTION('',(1.,0.,0.));
#275 = CYLINDRICAL_SURFACE('',#276,0.5);
#276 = AXIS2_PLACEMENT_3D('',#277,#278,#279);
#277 = CARTESIAN_POINT('',(-9.271,-6.604,0.));
#278 = DIRECTION('',(-0.,-0.,-1.));
#279 = DIRECTION('',(1.,0.,0.));
#280 = ADVANCED_FACE('',(#281),#308,.F.);
#281 = FACE_BOUND('',#282,.T.);
#282 = EDGE_LOOP('',(#283,#293,#300,#301));
#283 = ORIENTED_EDGE('',*,*,#284,.T.);
#284 = EDGE_CURVE('',#285,#287,#289,.T.);
#285 = VERTEX_POINT('',#286);
#286 = CARTESIAN_POINT('',(9.771,4.064,0.));
#287 = VERTEX_POINT('',#288);
#288 = CARTESIAN_POINT('',(9.771,4.064,1.6));
#289 = LINE('',#290,#291);
#290 = CARTESIAN_POINT('',(9.771,4.064,0.));
#291 = VECTOR('',#292,1.);
#292 = DIRECTION('',(0.,0.,1.));
#293 = ORIENTED_EDGE('',*,*,#294,.T.);
#294 = EDGE_CURVE('',#287,#287,#295,.T.);
#295 = CIRCLE('',#296,0.5);
#296 = AXIS2_PLACEMENT_3D('',#297,#298,#299);
#297 = CARTESIAN_POINT('',(9.271,4.064,1.6));
#298 = DIRECTION('',(0.,0.,1.));
#299 = DIRECTION('',(1.,0.,0.));
#300 = ORIENTED_EDGE('',*,*,#284,.F.);
#301 = ORIENTED_EDGE('',*,*,#302,.F.);
#302 = EDGE_CURVE('',#285,#285,#303,.T.);
#303 = CIRCLE('',#304,0.5);
#304 = AXIS2_PLACEMENT_3D('',#305,#306,#307);
#305 = CARTESIAN_POINT('',(9.271,4.064,0.));
#306 = DIRECTION('',(0.,0.,1.));
#307 = DIRECTION('',(1.,0.,0.));
#308 = CYLINDRICAL_SURFACE('',#309,0.5);
#309 = AXIS2_PLACEMENT_3D('',#310,#311,#312);
#310 = CARTESIAN_POINT('',(9.271,4.064,0.));
#311 = DIRECTION('',(-0.,-0.,-1.));
#312 = DIRECTION('',(1.,0.,0.));
#313 = ADVANCED_FACE('',(#314),#341,.F.);
#314 = FACE_BOUND('',#315,.T.);
#315 = EDGE_LOOP('',(#316,#326,#333,#334));
#316 = ORIENTED_EDGE('',*,*,#317,.T.);
#317 = EDGE_CURVE('',#318,#320,#322,.T.);
#318 = VERTEX_POINT('',#319);
#319 = CARTESIAN_POINT('',(9.771,6.604,0.));
#320 = VERTEX_POINT('',#321);
#321 = CARTESIAN_POINT('',(9.771,6.604,1.6));
#322 = LINE('',#323,#324);
#323 = CARTESIAN_POINT('',(9.771,6.604,0.));
#324 = VECTOR('',#325,1.);
#325 = DIRECTION('',(0.,0.,1.));
#326 = ORIENTED_EDGE('',*,*,#327,.T.);
#327 = EDGE_CURVE('',#320,#320,#328,.T.);
#328 = CIRCLE('',#329,0.5);
#329 = AXIS2_PLACEMENT_3D('',#330,#331,#332);
#330 = CARTESIAN_POINT('',(9.271,6.604,1.6));
#331 = DIRECTION('',(0.,0.,1.));
#332 = DIRECTION('',(1.,0.,0.));
#333 = ORIENTED_EDGE('',*,*,#317,.F.);
#334 = ORIENTED_EDGE('',*,*,#335,.F.);
#335 = EDGE_CURVE('',#318,#318,#336,.T.);
#336 = CIRCLE('',#337,0.5);
#337 = AXIS2_PLACEMENT_3D('',#338,#339,#340);
#338 = CARTESIAN_POINT('',(9.271,6.604,0.));
#339 = DIRECTION('',(0.,0.,1.));
#340 = DIRECTION('',(1.,0.,0.));
#341 = CYLINDRICAL_SURFACE('',#342,0.5);
#342 = AXIS2_PLACEMENT_3D('',#343,#344,#345);
#343 = CARTESIAN_POINT('',(9.271,6.604,0.));
#344 = DIRECTION('',(-0.,-0.,-1.));
#345 = DIRECTION('',(1.,0.,0.));
#346 = ADVANCED_FACE('',(#347),#374,.F.);
#347 = FACE_BOUND('',#348,.T.);
#348 = EDGE_LOOP('',(#349,#359,#366,#367));
#349 = ORIENTED_EDGE('',*,*,#350,.T.);
#350 = EDGE_CURVE('',#351,#353,#355,.T.);
#351 = VERTEX_POINT('',#352);
#352 = CARTESIAN_POINT('',(-8.771,4.064,0.));
#353 = VERTEX_POINT('',#354);
#354 = CARTESIAN_POINT('',(-8.771,4.064,1.6));
#355 = LINE('',#356,#357);
#356 = CARTESIAN_POINT('',(-8.771,4.064,0.));
#357 = VECTOR('',#358,1.);
#358 = DIRECTION('',(0.,0.,1.));
#359 = ORIENTED_EDGE('',*,*,#360,.T.);
#360 = EDGE_CURVE('',#353,#353,#361,.T.);
#361 = CIRCLE('',#362,0.5);
#362 = AXIS2_PLACEMENT_3D('',#363,#364,#365);
#363 = CARTESIAN_POINT('',(-9.271,4.064,1.6));
#364 = DIRECTION('',(0.,0.,1.));
#365 = DIRECTION('',(1.,0.,0.));
#366 = ORIENTED_EDGE('',*,*,#350,.F.);
#367 = ORIENTED_EDGE('',*,*,#368,.F.);
#368 = EDGE_CURVE('',#351,#351,#369,.T.);
#369 = CIRCLE('',#370,0.5);
#370 = AXIS2_PLACEMENT_3D('',#371,#372,#373);
#371 = CARTESIAN_POINT('',(-9.271,4.064,0.));
#372 = DIRECTION('',(0.,0.,1.));
#373 = DIRECTION('',(1.,0.,0.));
#374 = CYLINDRICAL_SURFACE('',#375,0.5);
#375 = AXIS2_PLACEMENT_3D('',#376,#377,#378);
#376 = CARTESIAN_POINT('',(-9.271,4.064,0.));
#377 = DIRECTION('',(-0.,-0.,-1.));
#378 = DIRECTION('',(1.,0.,0.));
#379 = ADVANCED_FACE('',(#380),#407,.F.);
#380 = FACE_BOUND('',#381,.T.);
#381 = EDGE_LOOP('',(#382,#392,#399,#400));
#382 = ORIENTED_EDGE('',*,*,#383,.T.);
#383 = EDGE_CURVE('',#384,#386,#388,.T.);
#384 = VERTEX_POINT('',#385);
#385 = CARTESIAN_POINT('',(-8.771,6.604,0.));
#386 = VERTEX_POINT('',#387);
#387 = CARTESIAN_POINT('',(-8.771,6.604,1.6));
#388 = LINE('',#389,#390);
#389 = CARTESIAN_POINT('',(-8.771,6.604,0.));
#390 = VECTOR('',#391,1.);
#391 = DIRECTION('',(0.,0.,1.));
#392 = ORIENTED_EDGE('',*,*,#393,.T.);
#393 = EDGE_CURVE('',#386,#386,#394,.T.);
#394 = CIRCLE('',#395,0.5);
#395 = AXIS2_PLACEMENT_3D('',#396,#397,#398);
#396 = CARTESIAN_POINT('',(-9.271,6.604,1.6));
#397 = DIRECTION('',(0.,0.,1.));
#398 = DIRECTION('',(1.,0.,0.));
#399 = ORIENTED_EDGE('',*,*,#383,.F.);
#400 = ORIENTED_EDGE('',*,*,#401,.F.);
#401 = EDGE_CURVE('',#384,#384,#402,.T.);
#402 = CIRCLE('',#403,0.5);
#403 = AXIS2_PLACEMENT_3D('',#404,#405,#406);
#404 = CARTESIAN_POINT('',(-9.271,6.604,0.));
#405 = DIRECTION('',(0.,0.,1.));
#406 = DIRECTION('',(1.,0.,0.));
#407 = CYLINDRICAL_SURFACE('',#408,0.5);
#408 = AXIS2_PLACEMENT_3D('',#409,#410,#411);
#409 = CARTESIAN_POINT('',(-9.271,6.604,0.));
#410 = DIRECTION('',(-0.,-0.,-1.));
#411 = DIRECTION('',(1.,0.,0.));
#412 = ADVANCED_FACE('',(#413),#440,.F.);
#413 = FACE_BOUND('',#414,.T.);
#414 = EDGE_LOOP('',(#415,#425,#432,#433));
#415 = ORIENTED_EDGE('',*,*,#416,.T.);
#416 = EDGE_CURVE('',#417,#419,#421,.T.);
#417 = VERTEX_POINT('',#418);
#418 = CARTESIAN_POINT('',(9.771,-4.064,0.));
#419 = VERTEX_POINT('',#420);
#420 = CARTESIAN_POINT('',(9.771,-4.064,1.6));
#421 = LINE('',#422,#423);
#422 = CARTESIAN_POINT('',(9.771,-4.064,0.));
#423 = VECTOR('',#424,1.);
#424 = DIRECTION('',(0.,0.,1.));
#425 = ORIENTED_EDGE('',*,*,#426,.T.);
#426 = EDGE_CURVE('',#419,#419,#427,.T.);
#427 = CIRCLE('',#428,0.5);
#428 = AXIS2_PLACEMENT_3D('',#429,#430,#431);
#429 = CARTESIAN_POINT('',(9.271,-4.064,1.6));
#430 = DIRECTION('',(0.,0.,1.));
#431 = DIRECTION('',(1.,0.,0.));
#432 = ORIENTED_EDGE('',*,*,#416,.F.);
#433 = ORIENTED_EDGE('',*,*,#434,.F.);
#434 = EDGE_CURVE('',#417,#417,#435,.T.);
#435 = CIRCLE('',#436,0.5);
#436 = AXIS2_PLACEMENT_3D('',#437,#438,#439);
#437 = CARTESIAN_POINT('',(9.271,-4.064,0.));
#438 = DIRECTION('',(0.,0.,1.));
#439 = DIRECTION('',(1.,0.,0.));
#440 = CYLINDRICAL_SURFACE('',#441,0.5);
#441 = AXIS2_PLACEMENT_3D('',#442,#443,#444);
#442 = CARTESIAN_POINT('',(9.271,-4.064,0.));
#443 = DIRECTION('',(-0.,-0.,-1.));
#444 = DIRECTION('',(1.,0.,0.));
#445 = ADVANCED_FACE('',(#446),#473,.F.);
#446 = FACE_BOUND('',#447,.T.);
#447 = EDGE_LOOP('',(#448,#458,#465,#466));
#448 = ORIENTED_EDGE('',*,*,#449,.T.);
#449 = EDGE_CURVE('',#450,#452,#454,.T.);
#450 = VERTEX_POINT('',#451);
#451 = CARTESIAN_POINT('',(-8.771,-4.064,0.));
#452 = VERTEX_POINT('',#453);
#453 = CARTESIAN_POINT('',(-8.771,-4.064,1.6));
#454 = LINE('',#455,#456);
#455 = CARTESIAN_POINT('',(-8.771,-4.064,0.));
#456 = VECTOR('',#457,1.);
#457 = DIRECTION('',(0.,0.,1.));
#458 = ORIENTED_EDGE('',*,*,#459,.T.);
#459 = EDGE_CURVE('',#452,#452,#460,.T.);
#460 = CIRCLE('',#461,0.5);
#461 = AXIS2_PLACEMENT_3D('',#462,#463,#464);
#462 = CARTESIAN_POINT('',(-9.271,-4.064,1.6));
#463 = DIRECTION('',(0.,0.,1.));
#464 = DIRECTION('',(1.,0.,0.));
#465 = ORIENTED_EDGE('',*,*,#449,.F.);
#466 = ORIENTED_EDGE('',*,*,#467,.F.);
#467 = EDGE_CURVE('',#450,#450,#468,.T.);
#468 = CIRCLE('',#469,0.5);
#469 = AXIS2_PLACEMENT_3D('',#470,#471,#472);
#470 = CARTESIAN_POINT('',(-9.271,-4.064,0.));
#471 = DIRECTION('',(0.,0.,1.));
#472 = DIRECTION('',(1.,0.,0.));
#473 = CYLINDRICAL_SURFACE('',#474,0.5);
#474 = AXIS2_PLACEMENT_3D('',#475,#476,#477);
#475 = CARTESIAN_POINT('',(-9.271,-4.064,0.));
#476 = DIRECTION('',(-0.,-0.,-1.));
#477 = DIRECTION('',(1.,0.,0.));
#478 = ADVANCED_FACE('',(#479,#485,#488,#491,#494,#497,#500,#503,#506),
  #509,.F.);
#479 = FACE_BOUND('',#480,.F.);
#480 = EDGE_LOOP('',(#481,#482,#483,#484));
#481 = ORIENTED_EDGE('',*,*,#120,.T.);
#482 = ORIENTED_EDGE('',*,*,#151,.T.);
#483 = ORIENTED_EDGE('',*,*,#182,.T.);
#484 = ORIENTED_EDGE('',*,*,#204,.T.);
#485 = FACE_BOUND('',#486,.T.);
#486 = EDGE_LOOP('',(#487));
#487 = ORIENTED_EDGE('',*,*,#236,.T.);
#488 = FACE_BOUND('',#489,.T.);
#489 = EDGE_LOOP('',(#490));
#490 = ORIENTED_EDGE('',*,*,#269,.T.);
#491 = FACE_BOUND('',#492,.T.);
#492 = EDGE_LOOP('',(#493));
#493 = ORIENTED_EDGE('',*,*,#302,.T.);
#494 = FACE_BOUND('',#495,.T.);
#495 = EDGE_LOOP('',(#496));
#496 = ORIENTED_EDGE('',*,*,#335,.T.);
#497 = FACE_BOUND('',#498,.T.);
#498 = EDGE_LOOP('',(#499));
#499 = ORIENTED_EDGE('',*,*,#368,.T.);
#500 = FACE_BOUND('',#501,.T.);
#501 = EDGE_LOOP('',(#502));
#502 = ORIENTED_EDGE('',*,*,#401,.T.);
#503 = FACE_BOUND('',#504,.T.);
#504 = EDGE_LOOP('',(#505));
#505 = ORIENTED_EDGE('',*,*,#434,.T.);
#506 = FACE_BOUND('',#507,.T.);
#507 = EDGE_LOOP('',(#508));
#508 = ORIENTED_EDGE('',*,*,#467,.T.);
#509 = PLANE('',#510);
#510 = AXIS2_PLACEMENT_3D('',#511,#512,#513);
#511 = CARTESIAN_POINT('',(4.51087335052E-16,-2.751632743817E-16,0.));
#512 = DIRECTION('',(0.,0.,1.));
#513 = DIRECTION('',(1.,0.,0.));
#514 = ADVANCED_FACE('',(#515,#521,#524,#527,#530,#533,#536,#539,#542),
  #545,.T.);
#515 = FACE_BOUND('',#516,.T.);
#516 = EDGE_LOOP('',(#517,#518,#519,#520));
#517 = ORIENTED_EDGE('',*,*,#104,.T.);
#518 = ORIENTED_EDGE('',*,*,#135,.T.);
#519 = ORIENTED_EDGE('',*,*,#166,.T.);
#520 = ORIENTED_EDGE('',*,*,#197,.T.);
#521 = FACE_BOUND('',#522,.F.);
#522 = EDGE_LOOP('',(#523));
#523 = ORIENTED_EDGE('',*,*,#228,.T.);
#524 = FACE_BOUND('',#525,.F.);
#525 = EDGE_LOOP('',(#526));
#526 = ORIENTED_EDGE('',*,*,#261,.T.);
#527 = FACE_BOUND('',#528,.F.);
#528 = EDGE_LOOP('',(#529));
#529 = ORIENTED_EDGE('',*,*,#294,.T.);
#530 = FACE_BOUND('',#531,.F.);
#531 = EDGE_LOOP('',(#532));
#532 = ORIENTED_EDGE('',*,*,#327,.T.);
#533 = FACE_BOUND('',#534,.F.);
#534 = EDGE_LOOP('',(#535));
#535 = ORIENTED_EDGE('',*,*,#360,.T.);
#536 = FACE_BOUND('',#537,.F.);
#537 = EDGE_LOOP('',(#538));
#538 = ORIENTED_EDGE('',*,*,#393,.T.);
#539 = FACE_BOUND('',#540,.F.);
#540 = EDGE_LOOP('',(#541));
#541 = ORIENTED_EDGE('',*,*,#426,.T.);
#542 = FACE_BOUND('',#543,.F.);
#543 = EDGE_LOOP('',(#544));
#544 = ORIENTED_EDGE('',*,*,#459,.T.);
#545 = PLANE('',#546);
#546 = AXIS2_PLACEMENT_3D('',#547,#548,#549);
#547 = CARTESIAN_POINT('',(4.51087335052E-16,-2.751632743817E-16,1.6));
#548 = DIRECTION('',(0.,0.,1.));
#549 = DIRECTION('',(1.,0.,0.));
#550 = ( GEOMETRIC_REPRESENTATION_CONTEXT(3) 
GLOBAL_UNCERTAINTY_ASSIGNED_CONTEXT((#554)) GLOBAL_UNIT_ASSIGNED_CONTEXT
((#551,#552,#553)) REPRESENTATION_CONTEXT('Context #1',
  '3D Context with UNIT and UNCERTAINTY') );
#551 = ( LENGTH_UNIT() NAMED_UNIT(*) SI_UNIT(.MILLI.,.METRE.) );
#552 = ( NAMED_UNIT(*) PLANE_ANGLE_UNIT() SI_UNIT($,.RADIAN.) );
#553 = ( NAMED_UNIT(*) SI_UNIT($,.STERADIAN.) SOLID_ANGLE_UNIT() );
#554 = UNCERTAINTY_MEASURE_WITH_UNIT(LENGTH_MEASURE(1.E-07),#551,
  'distance_accuracy_value','confusion accuracy');
#555 = CONTEXT_DEPENDENT_SHAPE_REPRESENTATION(#556,#558);
#556 = ( REPRESENTATION_RELATIONSHIP('','',#87,#10) 
REPRESENTATION_RELATIONSHIP_WITH_TRANSFORMATION(#557) 
SHAPE_REPRESENTATION_RELATIONSHIP() );
#557 = ITEM_DEFINED_TRANSFORMATION('','',#11,#19);
#558 = PRODUCT_DEFINITION_SHAPE('Placement','Placement of an item',#559
  );
#559 = NEXT_ASSEMBLY_USAGE_OCCURRENCE('2','MP1584 EN001','',#5,#82,$);
#560 = PRODUCT_RELATED_PRODUCT_CATEGORY('part',$,(#84));
#561 = SHAPE_DEFINITION_REPRESENTATION(#562,#568);
#562 = PRODUCT_DEFINITION_SHAPE('','',#563);
#563 = PRODUCT_DEFINITION('design','',#564,#567);
#564 = PRODUCT_DEFINITION_FORMATION('','',#565);
#565 = PRODUCT('Assembly','Assembly','',(#566));
#566 = PRODUCT_CONTEXT('',#2,'mechanical');
#567 = PRODUCT_DEFINITION_CONTEXT('part definition',#2,'design');
#568 = SHAPE_REPRESENTATION('',(#11,#569,#573,#577,#581,#585,#589,#593),
  #597);
#569 = AXIS2_PLACEMENT_3D('',#570,#571,#572);
#570 = CARTESIAN_POINT('',(0.,0.,0.));
#571 = DIRECTION('',(0.,0.,1.));
#572 = DIRECTION('',(1.,0.,0.));
#573 = AXIS2_PLACEMENT_3D('',#574,#575,#576);
#574 = CARTESIAN_POINT('',(0.,1.3E-15,-2.5));
#575 = DIRECTION('',(0.,0.,1.));
#576 = DIRECTION('',(1.,0.,0.));
#577 = AXIS2_PLACEMENT_3D('',#578,#579,#580);
#578 = CARTESIAN_POINT('',(0.,0.,0.));
#579 = DIRECTION('',(0.,0.,1.));
#580 = DIRECTION('',(1.,0.,0.));
#581 = AXIS2_PLACEMENT_3D('',#582,#583,#584);
#582 = CARTESIAN_POINT('',(0.,0.,0.));
#583 = DIRECTION('',(0.,0.,1.));
#584 = DIRECTION('',(1.,0.,0.));
#585 = AXIS2_PLACEMENT_3D('',#586,#587,#588);
#586 = CARTESIAN_POINT('',(0.,-2.54,0.));
#587 = DIRECTION('',(0.,0.,1.));
#588 = DIRECTION('',(1.,0.,0.));
#589 = AXIS2_PLACEMENT_3D('',#590,#591,#592);
#590 = CARTESIAN_POINT('',(4.E-16,2.E-16,-5.5));
#591 = DIRECTION('',(1.224646799147E-16,1.224646799147E-32,-1.));
#592 = DIRECTION('',(-1.,-2.E-16,-1.224646799147E-16));
#593 = AXIS2_PLACEMENT_3D('',#594,#595,#596);
#594 = CARTESIAN_POINT('',(4.E-16,-2.54,-5.5));
#595 = DIRECTION('',(1.224646799147E-16,1.224646799147E-32,-1.));
#596 = DIRECTION('',(-1.,-2.E-16,-1.224646799147E-16));
#597 = ( GEOMETRIC_REPRESENTATION_CONTEXT(3) 
GLOBAL_UNCERTAINTY_ASSIGNED_CONTEXT((#601)) GLOBAL_UNIT_ASSIGNED_CONTEXT
((#598,#599,#600)) REPRESENTATION_CONTEXT('Context #1',
  '3D Context with UNIT and UNCERTAINTY') );
#598 = ( LENGTH_UNIT() NAMED_UNIT(*) SI_UNIT(.MILLI.,.METRE.) );
#599 = ( NAMED_UNIT(*) PLANE_ANGLE_UNIT() SI_UNIT($,.RADIAN.) );
#600 = ( NAMED_UNIT(*) SI_UNIT($,.STERADIAN.) SOLID_ANGLE_UNIT() );
#601 = UNCERTAINTY_MEASURE_WITH_UNIT(LENGTH_MEASURE(5.E-06),#598,
  'distance_accuracy_value','confusion accuracy');
#602 = CONTEXT_DEPENDENT_SHAPE_REPRESENTATION(#603,#605);
#603 = ( REPRESENTATION_RELATIONSHIP('','',#568,#10) 
REPRESENTATION_RELATIONSHIP_WITH_TRANSFORMATION(#604) 
SHAPE_REPRESENTATION_RELATIONSHIP() );
#604 = ITEM_DEFINED_TRANSFORMATION('','',#11,#23);
#605 = PRODUCT_DEFINITION_SHAPE('Placement','Placement of an item',#606
  );
#606 = NEXT_ASSEMBLY_USAGE_OCCURRENCE('10','Pin_Header_1x02','',#5,#563,
  $);
#607 = PRODUCT_RELATED_PRODUCT_CATEGORY('part',$,(#565));
#608 = SHAPE_DEFINITION_REPRESENTATION(#609,#615);
#609 = PRODUCT_DEFINITION_SHAPE('','',#610);
#610 = PRODUCT_DEFINITION('design','',#611,#614);
#611 = PRODUCT_DEFINITION_FORMATION('','',#612);
#612 = PRODUCT('LCS_Origin','LCS_Origin','',(#613));
#613 = PRODUCT_CONTEXT('',#2,'mechanical');
#614 = PRODUCT_DEFINITION_CONTEXT('part definition',#2,'design');
#615 = MANIFOLD_SURFACE_SHAPE_REPRESENTATION('',(#11),#616);
#616 = ( GEOMETRIC_REPRESENTATION_CONTEXT(3) 
GLOBAL_UNCERTAINTY_ASSIGNED_CONTEXT((#620)) GLOBAL_UNIT_ASSIGNED_CONTEXT
((#617,#618,#619)) REPRESENTATION_CONTEXT('Context #1',
  '3D Context with UNIT and UNCERTAINTY') );
#617 = ( LENGTH_UNIT() NAMED_UNIT(*) SI_UNIT(.MILLI.,.METRE.) );
#618 = ( NAMED_UNIT(*) PLANE_ANGLE_UNIT() SI_UNIT($,.RADIAN.) );
#619 = ( NAMED_UNIT(*) SI_UNIT($,.STERADIAN.) SOLID_ANGLE_UNIT() );
#620 = UNCERTAINTY_MEASURE_WITH_UNIT(LENGTH_MEASURE(1.E-07),#617,
  'distance_accuracy_value','confusion accuracy');
#621 = CONTEXT_DEPENDENT_SHAPE_REPRESENTATION(#622,#624);
#622 = ( REPRESENTATION_RELATIONSHIP('','',#615,#568) 
REPRESENTATION_RELATIONSHIP_WITH_TRANSFORMATION(#623) 
SHAPE_REPRESENTATION_RELATIONSHIP() );
#623 = ITEM_DEFINED_TRANSFORMATION('','',#11,#569);
#624 = PRODUCT_DEFINITION_SHAPE('Placement','Placement of an item',#625
  );
#625 = NEXT_ASSEMBLY_USAGE_OCCURRENCE('3','LCS_Origin','',#563,#610,$);
#626 = PRODUCT_RELATED_PRODUCT_CATEGORY('part',$,(#612));
#627 = SHAPE_DEFINITION_REPRESENTATION(#628,#634);
#628 = PRODUCT_DEFINITION_SHAPE('','',#629);
#629 = PRODUCT_DEFINITION('design','',#630,#633);
#630 = PRODUCT_DEFINITION_FORMATION('','',#631);
#631 = PRODUCT('Parte plastica','Parte plastica','',(#632));
#632 = PRODUCT_CONTEXT('',#2,'mechanical');
#633 = PRODUCT_DEFINITION_CONTEXT('part definition',#2,'design');
#634 = ADVANCED_BREP_SHAPE_REPRESENTATION('',(#11,#635),#1115);
#635 = MANIFOLD_SOLID_BREP('',#636);
#636 = CLOSED_SHELL('',(#637,#757,#788,#812,#836,#860,#884,#908,#932,
    #956,#980,#1004,#1028,#1052,#1076,#1093));
#637 = ADVANCED_FACE('',(#638),#752,.F.);
#638 = FACE_BOUND('',#639,.F.);
#639 = EDGE_LOOP('',(#640,#650,#658,#666,#674,#682,#690,#698,#706,#714,
    #722,#730,#738,#746));
#640 = ORIENTED_EDGE('',*,*,#641,.F.);
#641 = EDGE_CURVE('',#642,#644,#646,.T.);
#642 = VERTEX_POINT('',#643);
#643 = CARTESIAN_POINT('',(-0.75,1.27,0.));
#644 = VERTEX_POINT('',#645);
#645 = CARTESIAN_POINT('',(0.75,1.27,0.));
#646 = LINE('',#647,#648);
#647 = CARTESIAN_POINT('',(-11.974247,1.27,0.));
#648 = VECTOR('',#649,1.);
#649 = DIRECTION('',(1.,0.,0.));
#650 = ORIENTED_EDGE('',*,*,#651,.T.);
#651 = EDGE_CURVE('',#642,#652,#654,.T.);
#652 = VERTEX_POINT('',#653);
#653 = CARTESIAN_POINT('',(-1.25,0.77,0.));
#654 = LINE('',#655,#656);
#655 = CARTESIAN_POINT('',(-0.75,1.27,0.));
#656 = VECTOR('',#657,1.);
#657 = DIRECTION('',(-0.707106781187,-0.707106781187,0.));
#658 = ORIENTED_EDGE('',*,*,#659,.T.);
#659 = EDGE_CURVE('',#652,#660,#662,.T.);
#660 = VERTEX_POINT('',#661);
#661 = CARTESIAN_POINT('',(-1.25,-0.77,0.));
#662 = LINE('',#663,#664);
#663 = CARTESIAN_POINT('',(-1.25,0.77,0.));
#664 = VECTOR('',#665,1.);
#665 = DIRECTION('',(0.,-1.,0.));
#666 = ORIENTED_EDGE('',*,*,#667,.T.);
#667 = EDGE_CURVE('',#660,#668,#670,.T.);
#668 = VERTEX_POINT('',#669);
#669 = CARTESIAN_POINT('',(-0.75,-1.27,0.));
#670 = LINE('',#671,#672);
#671 = CARTESIAN_POINT('',(-1.25,-0.77,0.));
#672 = VECTOR('',#673,1.);
#673 = DIRECTION('',(0.707106781187,-0.707106781187,0.));
#674 = ORIENTED_EDGE('',*,*,#675,.T.);
#675 = EDGE_CURVE('',#668,#676,#678,.T.);
#676 = VERTEX_POINT('',#677);
#677 = CARTESIAN_POINT('',(-1.25,-1.77,0.));
#678 = LINE('',#679,#680);
#679 = CARTESIAN_POINT('',(-0.75,-1.27,0.));
#680 = VECTOR('',#681,1.);
#681 = DIRECTION('',(-0.707106781187,-0.707106781187,0.));
#682 = ORIENTED_EDGE('',*,*,#683,.T.);
#683 = EDGE_CURVE('',#676,#684,#686,.T.);
#684 = VERTEX_POINT('',#685);
#685 = CARTESIAN_POINT('',(-1.25,-3.31,0.));
#686 = LINE('',#687,#688);
#687 = CARTESIAN_POINT('',(-1.25,-1.77,0.));
#688 = VECTOR('',#689,1.);
#689 = DIRECTION('',(0.,-1.,0.));
#690 = ORIENTED_EDGE('',*,*,#691,.T.);
#691 = EDGE_CURVE('',#684,#692,#694,.T.);
#692 = VERTEX_POINT('',#693);
#693 = CARTESIAN_POINT('',(-0.75,-3.81,0.));
#694 = LINE('',#695,#696);
#695 = CARTESIAN_POINT('',(-1.25,-3.31,0.));
#696 = VECTOR('',#697,1.);
#697 = DIRECTION('',(0.707106781187,-0.707106781187,0.));
#698 = ORIENTED_EDGE('',*,*,#699,.F.);
#699 = EDGE_CURVE('',#700,#692,#702,.T.);
#700 = VERTEX_POINT('',#701);
#701 = CARTESIAN_POINT('',(0.75,-3.81,0.));
#702 = LINE('',#703,#704);
#703 = CARTESIAN_POINT('',(11.005415,-3.81,0.));
#704 = VECTOR('',#705,1.);
#705 = DIRECTION('',(-1.,0.,0.));
#706 = ORIENTED_EDGE('',*,*,#707,.T.);
#707 = EDGE_CURVE('',#700,#708,#710,.T.);
#708 = VERTEX_POINT('',#709);
#709 = CARTESIAN_POINT('',(1.25,-3.31,0.));
#710 = LINE('',#711,#712);
#711 = CARTESIAN_POINT('',(0.75,-3.81,0.));
#712 = VECTOR('',#713,1.);
#713 = DIRECTION('',(0.707106781187,0.707106781187,0.));
#714 = ORIENTED_EDGE('',*,*,#715,.T.);
#715 = EDGE_CURVE('',#708,#716,#718,.T.);
#716 = VERTEX_POINT('',#717);
#717 = CARTESIAN_POINT('',(1.25,-1.77,0.));
#718 = LINE('',#719,#720);
#719 = CARTESIAN_POINT('',(1.25,-3.31,0.));
#720 = VECTOR('',#721,1.);
#721 = DIRECTION('',(0.,1.,0.));
#722 = ORIENTED_EDGE('',*,*,#723,.T.);
#723 = EDGE_CURVE('',#716,#724,#726,.T.);
#724 = VERTEX_POINT('',#725);
#725 = CARTESIAN_POINT('',(0.75,-1.27,0.));
#726 = LINE('',#727,#728);
#727 = CARTESIAN_POINT('',(1.25,-1.77,0.));
#728 = VECTOR('',#729,1.);
#729 = DIRECTION('',(-0.707106781187,0.707106781187,0.));
#730 = ORIENTED_EDGE('',*,*,#731,.T.);
#731 = EDGE_CURVE('',#724,#732,#734,.T.);
#732 = VERTEX_POINT('',#733);
#733 = CARTESIAN_POINT('',(1.25,-0.77,0.));
#734 = LINE('',#735,#736);
#735 = CARTESIAN_POINT('',(0.75,-1.27,0.));
#736 = VECTOR('',#737,1.);
#737 = DIRECTION('',(0.707106781187,0.707106781187,0.));
#738 = ORIENTED_EDGE('',*,*,#739,.T.);
#739 = EDGE_CURVE('',#732,#740,#742,.T.);
#740 = VERTEX_POINT('',#741);
#741 = CARTESIAN_POINT('',(1.25,0.77,0.));
#742 = LINE('',#743,#744);
#743 = CARTESIAN_POINT('',(1.25,-0.77,0.));
#744 = VECTOR('',#745,1.);
#745 = DIRECTION('',(0.,1.,0.));
#746 = ORIENTED_EDGE('',*,*,#747,.T.);
#747 = EDGE_CURVE('',#740,#644,#748,.T.);
#748 = LINE('',#749,#750);
#749 = CARTESIAN_POINT('',(1.25,0.77,0.));
#750 = VECTOR('',#751,1.);
#751 = DIRECTION('',(-0.707106781187,0.707106781187,0.));
#752 = PLANE('',#753);
#753 = AXIS2_PLACEMENT_3D('',#754,#755,#756);
#754 = CARTESIAN_POINT('',(5.E-17,1.17E-15,0.));
#755 = DIRECTION('',(0.,0.,1.));
#756 = DIRECTION('',(1.,0.,0.));
#757 = ADVANCED_FACE('',(#758),#783,.F.);
#758 = FACE_BOUND('',#759,.F.);
#759 = EDGE_LOOP('',(#760,#770,#776,#777));
#760 = ORIENTED_EDGE('',*,*,#761,.F.);
#761 = EDGE_CURVE('',#762,#764,#766,.T.);
#762 = VERTEX_POINT('',#763);
#763 = CARTESIAN_POINT('',(-0.75,1.27,2.5));
#764 = VERTEX_POINT('',#765);
#765 = CARTESIAN_POINT('',(0.75,1.27,2.5));
#766 = LINE('',#767,#768);
#767 = CARTESIAN_POINT('',(-23.948494,1.27,2.5));
#768 = VECTOR('',#769,1.);
#769 = DIRECTION('',(1.,0.,0.));
#770 = ORIENTED_EDGE('',*,*,#771,.F.);
#771 = EDGE_CURVE('',#642,#762,#772,.T.);
#772 = LINE('',#773,#774);
#773 = CARTESIAN_POINT('',(-0.75,1.27,0.));
#774 = VECTOR('',#775,1.);
#775 = DIRECTION('',(0.,0.,1.));
#776 = ORIENTED_EDGE('',*,*,#641,.T.);
#777 = ORIENTED_EDGE('',*,*,#778,.T.);
#778 = EDGE_CURVE('',#644,#764,#779,.T.);
#779 = LINE('',#780,#781);
#780 = CARTESIAN_POINT('',(0.75,1.27,0.));
#781 = VECTOR('',#782,1.);
#782 = DIRECTION('',(0.,0.,1.));
#783 = PLANE('',#784);
#784 = AXIS2_PLACEMENT_3D('',#785,#786,#787);
#785 = CARTESIAN_POINT('',(-23.948494,1.27,2.5));
#786 = DIRECTION('',(0.,-1.,0.));
#787 = DIRECTION('',(1.,0.,0.));
#788 = ADVANCED_FACE('',(#789),#807,.F.);
#789 = FACE_BOUND('',#790,.F.);
#790 = EDGE_LOOP('',(#791,#799,#805,#806));
#791 = ORIENTED_EDGE('',*,*,#792,.T.);
#792 = EDGE_CURVE('',#740,#793,#795,.T.);
#793 = VERTEX_POINT('',#794);
#794 = CARTESIAN_POINT('',(1.25,0.77,2.5));
#795 = LINE('',#796,#797);
#796 = CARTESIAN_POINT('',(1.25,0.77,0.));
#797 = VECTOR('',#798,1.);
#798 = DIRECTION('',(0.,0.,1.));
#799 = ORIENTED_EDGE('',*,*,#800,.T.);
#800 = EDGE_CURVE('',#793,#764,#801,.T.);
#801 = LINE('',#802,#803);
#802 = CARTESIAN_POINT('',(1.25,0.77,2.5));
#803 = VECTOR('',#804,1.);
#804 = DIRECTION('',(-0.707106781187,0.707106781187,0.));
#805 = ORIENTED_EDGE('',*,*,#778,.F.);
#806 = ORIENTED_EDGE('',*,*,#747,.F.);
#807 = PLANE('',#808);
#808 = AXIS2_PLACEMENT_3D('',#809,#810,#811);
#809 = CARTESIAN_POINT('',(1.25,0.77,0.));
#810 = DIRECTION('',(-0.707106781187,-0.707106781187,0.));
#811 = DIRECTION('',(-0.707106781187,0.707106781187,0.));
#812 = ADVANCED_FACE('',(#813),#831,.F.);
#813 = FACE_BOUND('',#814,.F.);
#814 = EDGE_LOOP('',(#815,#823,#829,#830));
#815 = ORIENTED_EDGE('',*,*,#816,.T.);
#816 = EDGE_CURVE('',#732,#817,#819,.T.);
#817 = VERTEX_POINT('',#818);
#818 = CARTESIAN_POINT('',(1.25,-0.77,2.5));
#819 = LINE('',#820,#821);
#820 = CARTESIAN_POINT('',(1.25,-0.77,0.));
#821 = VECTOR('',#822,1.);
#822 = DIRECTION('',(0.,0.,1.));
#823 = ORIENTED_EDGE('',*,*,#824,.T.);
#824 = EDGE_CURVE('',#817,#793,#825,.T.);
#825 = LINE('',#826,#827);
#826 = CARTESIAN_POINT('',(1.25,-0.77,2.5));
#827 = VECTOR('',#828,1.);
#828 = DIRECTION('',(0.,1.,0.));
#829 = ORIENTED_EDGE('',*,*,#792,.F.);
#830 = ORIENTED_EDGE('',*,*,#739,.F.);
#831 = PLANE('',#832);
#832 = AXIS2_PLACEMENT_3D('',#833,#834,#835);
#833 = CARTESIAN_POINT('',(1.25,-0.77,0.));
#834 = DIRECTION('',(-1.,0.,0.));
#835 = DIRECTION('',(0.,1.,0.));
#836 = ADVANCED_FACE('',(#837),#855,.F.);
#837 = FACE_BOUND('',#838,.F.);
#838 = EDGE_LOOP('',(#839,#847,#853,#854));
#839 = ORIENTED_EDGE('',*,*,#840,.T.);
#840 = EDGE_CURVE('',#724,#841,#843,.T.);
#841 = VERTEX_POINT('',#842);
#842 = CARTESIAN_POINT('',(0.75,-1.27,2.5));
#843 = LINE('',#844,#845);
#844 = CARTESIAN_POINT('',(0.75,-1.27,0.));
#845 = VECTOR('',#846,1.);
#846 = DIRECTION('',(0.,0.,1.));
#847 = ORIENTED_EDGE('',*,*,#848,.T.);
#848 = EDGE_CURVE('',#841,#817,#849,.T.);
#849 = LINE('',#850,#851);
#850 = CARTESIAN_POINT('',(0.75,-1.27,2.5));
#851 = VECTOR('',#852,1.);
#852 = DIRECTION('',(0.707106781187,0.707106781187,0.));
#853 = ORIENTED_EDGE('',*,*,#816,.F.);
#854 = ORIENTED_EDGE('',*,*,#731,.F.);
#855 = PLANE('',#856);
#856 = AXIS2_PLACEMENT_3D('',#857,#858,#859);
#857 = CARTESIAN_POINT('',(0.75,-1.27,0.));
#858 = DIRECTION('',(-0.707106781187,0.707106781187,0.));
#859 = DIRECTION('',(0.707106781187,0.707106781187,0.));
#860 = ADVANCED_FACE('',(#861),#879,.F.);
#861 = FACE_BOUND('',#862,.F.);
#862 = EDGE_LOOP('',(#863,#871,#877,#878));
#863 = ORIENTED_EDGE('',*,*,#864,.T.);
#864 = EDGE_CURVE('',#716,#865,#867,.T.);
#865 = VERTEX_POINT('',#866);
#866 = CARTESIAN_POINT('',(1.25,-1.77,2.5));
#867 = LINE('',#868,#869);
#868 = CARTESIAN_POINT('',(1.25,-1.77,0.));
#869 = VECTOR('',#870,1.);
#870 = DIRECTION('',(0.,0.,1.));
#871 = ORIENTED_EDGE('',*,*,#872,.T.);
#872 = EDGE_CURVE('',#865,#841,#873,.T.);
#873 = LINE('',#874,#875);
#874 = CARTESIAN_POINT('',(1.25,-1.77,2.5));
#875 = VECTOR('',#876,1.);
#876 = DIRECTION('',(-0.707106781187,0.707106781187,0.));
#877 = ORIENTED_EDGE('',*,*,#840,.F.);
#878 = ORIENTED_EDGE('',*,*,#723,.F.);
#879 = PLANE('',#880);
#880 = AXIS2_PLACEMENT_3D('',#881,#882,#883);
#881 = CARTESIAN_POINT('',(1.25,-1.77,0.));
#882 = DIRECTION('',(-0.707106781187,-0.707106781187,0.));
#883 = DIRECTION('',(-0.707106781187,0.707106781187,0.));
#884 = ADVANCED_FACE('',(#885),#903,.F.);
#885 = FACE_BOUND('',#886,.F.);
#886 = EDGE_LOOP('',(#887,#895,#901,#902));
#887 = ORIENTED_EDGE('',*,*,#888,.T.);
#888 = EDGE_CURVE('',#708,#889,#891,.T.);
#889 = VERTEX_POINT('',#890);
#890 = CARTESIAN_POINT('',(1.25,-3.31,2.5));
#891 = LINE('',#892,#893);
#892 = CARTESIAN_POINT('',(1.25,-3.31,0.));
#893 = VECTOR('',#894,1.);
#894 = DIRECTION('',(0.,0.,1.));
#895 = ORIENTED_EDGE('',*,*,#896,.T.);
#896 = EDGE_CURVE('',#889,#865,#897,.T.);
#897 = LINE('',#898,#899);
#898 = CARTESIAN_POINT('',(1.25,-3.31,2.5));
#899 = VECTOR('',#900,1.);
#900 = DIRECTION('',(0.,1.,0.));
#901 = ORIENTED_EDGE('',*,*,#864,.F.);
#902 = ORIENTED_EDGE('',*,*,#715,.F.);
#903 = PLANE('',#904);
#904 = AXIS2_PLACEMENT_3D('',#905,#906,#907);
#905 = CARTESIAN_POINT('',(1.25,-3.31,0.));
#906 = DIRECTION('',(-1.,0.,0.));
#907 = DIRECTION('',(0.,1.,0.));
#908 = ADVANCED_FACE('',(#909),#927,.F.);
#909 = FACE_BOUND('',#910,.F.);
#910 = EDGE_LOOP('',(#911,#919,#925,#926));
#911 = ORIENTED_EDGE('',*,*,#912,.T.);
#912 = EDGE_CURVE('',#700,#913,#915,.T.);
#913 = VERTEX_POINT('',#914);
#914 = CARTESIAN_POINT('',(0.75,-3.81,2.5));
#915 = LINE('',#916,#917);
#916 = CARTESIAN_POINT('',(0.75,-3.81,0.));
#917 = VECTOR('',#918,1.);
#918 = DIRECTION('',(0.,0.,1.));
#919 = ORIENTED_EDGE('',*,*,#920,.T.);
#920 = EDGE_CURVE('',#913,#889,#921,.T.);
#921 = LINE('',#922,#923);
#922 = CARTESIAN_POINT('',(0.75,-3.81,2.5));
#923 = VECTOR('',#924,1.);
#924 = DIRECTION('',(0.707106781187,0.707106781187,0.));
#925 = ORIENTED_EDGE('',*,*,#888,.F.);
#926 = ORIENTED_EDGE('',*,*,#707,.F.);
#927 = PLANE('',#928);
#928 = AXIS2_PLACEMENT_3D('',#929,#930,#931);
#929 = CARTESIAN_POINT('',(0.75,-3.81,0.));
#930 = DIRECTION('',(-0.707106781187,0.707106781187,0.));
#931 = DIRECTION('',(0.707106781187,0.707106781187,0.));
#932 = ADVANCED_FACE('',(#933),#951,.F.);
#933 = FACE_BOUND('',#934,.F.);
#934 = EDGE_LOOP('',(#935,#943,#944,#945));
#935 = ORIENTED_EDGE('',*,*,#936,.F.);
#936 = EDGE_CURVE('',#913,#937,#939,.T.);
#937 = VERTEX_POINT('',#938);
#938 = CARTESIAN_POINT('',(-0.75,-3.81,2.5));
#939 = LINE('',#940,#941);
#940 = CARTESIAN_POINT('',(22.01083,-3.81,2.5));
#941 = VECTOR('',#942,1.);
#942 = DIRECTION('',(-1.,0.,0.));
#943 = ORIENTED_EDGE('',*,*,#912,.F.);
#944 = ORIENTED_EDGE('',*,*,#699,.T.);
#945 = ORIENTED_EDGE('',*,*,#946,.T.);
#946 = EDGE_CURVE('',#692,#937,#947,.T.);
#947 = LINE('',#948,#949);
#948 = CARTESIAN_POINT('',(-0.75,-3.81,0.));
#949 = VECTOR('',#950,1.);
#950 = DIRECTION('',(0.,0.,1.));
#951 = PLANE('',#952);
#952 = AXIS2_PLACEMENT_3D('',#953,#954,#955);
#953 = CARTESIAN_POINT('',(22.01083,-3.81,2.5));
#954 = DIRECTION('',(0.,1.,0.));
#955 = DIRECTION('',(-1.,0.,0.));
#956 = ADVANCED_FACE('',(#957),#975,.F.);
#957 = FACE_BOUND('',#958,.F.);
#958 = EDGE_LOOP('',(#959,#967,#973,#974));
#959 = ORIENTED_EDGE('',*,*,#960,.T.);
#960 = EDGE_CURVE('',#684,#961,#963,.T.);
#961 = VERTEX_POINT('',#962);
#962 = CARTESIAN_POINT('',(-1.25,-3.31,2.5));
#963 = LINE('',#964,#965);
#964 = CARTESIAN_POINT('',(-1.25,-3.31,0.));
#965 = VECTOR('',#966,1.);
#966 = DIRECTION('',(0.,0.,1.));
#967 = ORIENTED_EDGE('',*,*,#968,.T.);
#968 = EDGE_CURVE('',#961,#937,#969,.T.);
#969 = LINE('',#970,#971);
#970 = CARTESIAN_POINT('',(-1.25,-3.31,2.5));
#971 = VECTOR('',#972,1.);
#972 = DIRECTION('',(0.707106781187,-0.707106781187,0.));
#973 = ORIENTED_EDGE('',*,*,#946,.F.);
#974 = ORIENTED_EDGE('',*,*,#691,.F.);
#975 = PLANE('',#976);
#976 = AXIS2_PLACEMENT_3D('',#977,#978,#979);
#977 = CARTESIAN_POINT('',(-1.25,-3.31,0.));
#978 = DIRECTION('',(0.707106781187,0.707106781187,0.));
#979 = DIRECTION('',(0.707106781187,-0.707106781187,0.));
#980 = ADVANCED_FACE('',(#981),#999,.F.);
#981 = FACE_BOUND('',#982,.F.);
#982 = EDGE_LOOP('',(#983,#991,#997,#998));
#983 = ORIENTED_EDGE('',*,*,#984,.T.);
#984 = EDGE_CURVE('',#676,#985,#987,.T.);
#985 = VERTEX_POINT('',#986);
#986 = CARTESIAN_POINT('',(-1.25,-1.77,2.5));
#987 = LINE('',#988,#989);
#988 = CARTESIAN_POINT('',(-1.25,-1.77,0.));
#989 = VECTOR('',#990,1.);
#990 = DIRECTION('',(0.,0.,1.));
#991 = ORIENTED_EDGE('',*,*,#992,.T.);
#992 = EDGE_CURVE('',#985,#961,#993,.T.);
#993 = LINE('',#994,#995);
#994 = CARTESIAN_POINT('',(-1.25,-1.77,2.5));
#995 = VECTOR('',#996,1.);
#996 = DIRECTION('',(0.,-1.,0.));
#997 = ORIENTED_EDGE('',*,*,#960,.F.);
#998 = ORIENTED_EDGE('',*,*,#683,.F.);
#999 = PLANE('',#1000);
#1000 = AXIS2_PLACEMENT_3D('',#1001,#1002,#1003);
#1001 = CARTESIAN_POINT('',(-1.25,-1.77,0.));
#1002 = DIRECTION('',(1.,0.,0.));
#1003 = DIRECTION('',(0.,-1.,0.));
#1004 = ADVANCED_FACE('',(#1005),#1023,.F.);
#1005 = FACE_BOUND('',#1006,.F.);
#1006 = EDGE_LOOP('',(#1007,#1015,#1021,#1022));
#1007 = ORIENTED_EDGE('',*,*,#1008,.T.);
#1008 = EDGE_CURVE('',#668,#1009,#1011,.T.);
#1009 = VERTEX_POINT('',#1010);
#1010 = CARTESIAN_POINT('',(-0.75,-1.27,2.5));
#1011 = LINE('',#1012,#1013);
#1012 = CARTESIAN_POINT('',(-0.75,-1.27,0.));
#1013 = VECTOR('',#1014,1.);
#1014 = DIRECTION('',(0.,0.,1.));
#1015 = ORIENTED_EDGE('',*,*,#1016,.T.);
#1016 = EDGE_CURVE('',#1009,#985,#1017,.T.);
#1017 = LINE('',#1018,#1019);
#1018 = CARTESIAN_POINT('',(-0.75,-1.27,2.5));
#1019 = VECTOR('',#1020,1.);
#1020 = DIRECTION('',(-0.707106781187,-0.707106781187,0.));
#1021 = ORIENTED_EDGE('',*,*,#984,.F.);
#1022 = ORIENTED_EDGE('',*,*,#675,.F.);
#1023 = PLANE('',#1024);
#1024 = AXIS2_PLACEMENT_3D('',#1025,#1026,#1027);
#1025 = CARTESIAN_POINT('',(-0.75,-1.27,0.));
#1026 = DIRECTION('',(0.707106781187,-0.707106781187,0.));
#1027 = DIRECTION('',(-0.707106781187,-0.707106781187,0.));
#1028 = ADVANCED_FACE('',(#1029),#1047,.F.);
#1029 = FACE_BOUND('',#1030,.F.);
#1030 = EDGE_LOOP('',(#1031,#1039,#1045,#1046));
#1031 = ORIENTED_EDGE('',*,*,#1032,.T.);
#1032 = EDGE_CURVE('',#660,#1033,#1035,.T.);
#1033 = VERTEX_POINT('',#1034);
#1034 = CARTESIAN_POINT('',(-1.25,-0.77,2.5));
#1035 = LINE('',#1036,#1037);
#1036 = CARTESIAN_POINT('',(-1.25,-0.77,0.));
#1037 = VECTOR('',#1038,1.);
#1038 = DIRECTION('',(0.,0.,1.));
#1039 = ORIENTED_EDGE('',*,*,#1040,.T.);
#1040 = EDGE_CURVE('',#1033,#1009,#1041,.T.);
#1041 = LINE('',#1042,#1043);
#1042 = CARTESIAN_POINT('',(-1.25,-0.77,2.5));
#1043 = VECTOR('',#1044,1.);
#1044 = DIRECTION('',(0.707106781187,-0.707106781187,0.));
#1045 = ORIENTED_EDGE('',*,*,#1008,.F.);
#1046 = ORIENTED_EDGE('',*,*,#667,.F.);
#1047 = PLANE('',#1048);
#1048 = AXIS2_PLACEMENT_3D('',#1049,#1050,#1051);
#1049 = CARTESIAN_POINT('',(-1.25,-0.77,0.));
#1050 = DIRECTION('',(0.707106781187,0.707106781187,0.));
#1051 = DIRECTION('',(0.707106781187,-0.707106781187,0.));
#1052 = ADVANCED_FACE('',(#1053),#1071,.F.);
#1053 = FACE_BOUND('',#1054,.F.);
#1054 = EDGE_LOOP('',(#1055,#1063,#1069,#1070));
#1055 = ORIENTED_EDGE('',*,*,#1056,.T.);
#1056 = EDGE_CURVE('',#652,#1057,#1059,.T.);
#1057 = VERTEX_POINT('',#1058);
#1058 = CARTESIAN_POINT('',(-1.25,0.77,2.5));
#1059 = LINE('',#1060,#1061);
#1060 = CARTESIAN_POINT('',(-1.25,0.77,0.));
#1061 = VECTOR('',#1062,1.);
#1062 = DIRECTION('',(0.,0.,1.));
#1063 = ORIENTED_EDGE('',*,*,#1064,.T.);
#1064 = EDGE_CURVE('',#1057,#1033,#1065,.T.);
#1065 = LINE('',#1066,#1067);
#1066 = CARTESIAN_POINT('',(-1.25,0.77,2.5));
#1067 = VECTOR('',#1068,1.);
#1068 = DIRECTION('',(0.,-1.,0.));
#1069 = ORIENTED_EDGE('',*,*,#1032,.F.);
#1070 = ORIENTED_EDGE('',*,*,#659,.F.);
#1071 = PLANE('',#1072);
#1072 = AXIS2_PLACEMENT_3D('',#1073,#1074,#1075);
#1073 = CARTESIAN_POINT('',(-1.25,0.77,0.));
#1074 = DIRECTION('',(1.,0.,0.));
#1075 = DIRECTION('',(0.,-1.,0.));
#1076 = ADVANCED_FACE('',(#1077),#1088,.F.);
#1077 = FACE_BOUND('',#1078,.F.);
#1078 = EDGE_LOOP('',(#1079,#1080,#1086,#1087));
#1079 = ORIENTED_EDGE('',*,*,#771,.T.);
#1080 = ORIENTED_EDGE('',*,*,#1081,.T.);
#1081 = EDGE_CURVE('',#762,#1057,#1082,.T.);
#1082 = LINE('',#1083,#1084);
#1083 = CARTESIAN_POINT('',(-0.75,1.27,2.5));
#1084 = VECTOR('',#1085,1.);
#1085 = DIRECTION('',(-0.707106781187,-0.707106781187,0.));
#1086 = ORIENTED_EDGE('',*,*,#1056,.F.);
#1087 = ORIENTED_EDGE('',*,*,#651,.F.);
#1088 = PLANE('',#1089);
#1089 = AXIS2_PLACEMENT_3D('',#1090,#1091,#1092);
#1090 = CARTESIAN_POINT('',(-0.75,1.27,0.));
#1091 = DIRECTION('',(0.707106781187,-0.707106781187,0.));
#1092 = DIRECTION('',(-0.707106781187,-0.707106781187,0.));
#1093 = ADVANCED_FACE('',(#1094),#1110,.T.);
#1094 = FACE_BOUND('',#1095,.T.);
#1095 = EDGE_LOOP('',(#1096,#1097,#1098,#1099,#1100,#1101,#1102,#1103,
    #1104,#1105,#1106,#1107,#1108,#1109));
#1096 = ORIENTED_EDGE('',*,*,#761,.F.);
#1097 = ORIENTED_EDGE('',*,*,#1081,.T.);
#1098 = ORIENTED_EDGE('',*,*,#1064,.T.);
#1099 = ORIENTED_EDGE('',*,*,#1040,.T.);
#1100 = ORIENTED_EDGE('',*,*,#1016,.T.);
#1101 = ORIENTED_EDGE('',*,*,#992,.T.);
#1102 = ORIENTED_EDGE('',*,*,#968,.T.);
#1103 = ORIENTED_EDGE('',*,*,#936,.F.);
#1104 = ORIENTED_EDGE('',*,*,#920,.T.);
#1105 = ORIENTED_EDGE('',*,*,#896,.T.);
#1106 = ORIENTED_EDGE('',*,*,#872,.T.);
#1107 = ORIENTED_EDGE('',*,*,#848,.T.);
#1108 = ORIENTED_EDGE('',*,*,#824,.T.);
#1109 = ORIENTED_EDGE('',*,*,#800,.T.);
#1110 = PLANE('',#1111);
#1111 = AXIS2_PLACEMENT_3D('',#1112,#1113,#1114);
#1112 = CARTESIAN_POINT('',(5.E-17,1.17E-15,2.5));
#1113 = DIRECTION('',(0.,0.,1.));
#1114 = DIRECTION('',(1.,0.,0.));
#1115 = ( GEOMETRIC_REPRESENTATION_CONTEXT(3) 
GLOBAL_UNCERTAINTY_ASSIGNED_CONTEXT((#1119)) 
GLOBAL_UNIT_ASSIGNED_CONTEXT((#1116,#1117,#1118)) REPRESENTATION_CONTEXT
('Context #1','3D Context with UNIT and UNCERTAINTY') );
#1116 = ( LENGTH_UNIT() NAMED_UNIT(*) SI_UNIT(.MILLI.,.METRE.) );
#1117 = ( NAMED_UNIT(*) PLANE_ANGLE_UNIT() SI_UNIT($,.RADIAN.) );
#1118 = ( NAMED_UNIT(*) SI_UNIT($,.STERADIAN.) SOLID_ANGLE_UNIT() );
#1119 = UNCERTAINTY_MEASURE_WITH_UNIT(LENGTH_MEASURE(5.E-06),#1116,
  'distance_accuracy_value','confusion accuracy');
#1120 = CONTEXT_DEPENDENT_SHAPE_REPRESENTATION(#1121,#1123);
#1121 = ( REPRESENTATION_RELATIONSHIP('','',#634,#568) 
REPRESENTATION_RELATIONSHIP_WITH_TRANSFORMATION(#1122) 
SHAPE_REPRESENTATION_RELATIONSHIP() );
#1122 = ITEM_DEFINED_TRANSFORMATION('','',#11,#573);
#1123 = PRODUCT_DEFINITION_SHAPE('Placement','Placement of an item',
  #1124);
#1124 = NEXT_ASSEMBLY_USAGE_OCCURRENCE('4','Parte plastica001','',#563,
  #629,$);
#1125 = PRODUCT_RELATED_PRODUCT_CATEGORY('part',$,(#631));
#1126 = SHAPE_DEFINITION_REPRESENTATION(#1127,#1133);
#1127 = PRODUCT_DEFINITION_SHAPE('','',#1128);
#1128 = PRODUCT_DEFINITION('design','',#1129,#1132);
#1129 = PRODUCT_DEFINITION_FORMATION('','',#1130);
#1130 = PRODUCT('LCS_PH1','LCS_PH1','',(#1131));
#1131 = PRODUCT_CONTEXT('',#2,'mechanical');
#1132 = PRODUCT_DEFINITION_CONTEXT('part definition',#2,'design');
#1133 = MANIFOLD_SURFACE_SHAPE_REPRESENTATION('',(#11),#1134);
#1134 = ( GEOMETRIC_REPRESENTATION_CONTEXT(3) 
GLOBAL_UNCERTAINTY_ASSIGNED_CONTEXT((#1138)) 
GLOBAL_UNIT_ASSIGNED_CONTEXT((#1135,#1136,#1137)) REPRESENTATION_CONTEXT
('Context #1','3D Context with UNIT and UNCERTAINTY') );
#1135 = ( LENGTH_UNIT() NAMED_UNIT(*) SI_UNIT(.MILLI.,.METRE.) );
#1136 = ( NAMED_UNIT(*) PLANE_ANGLE_UNIT() SI_UNIT($,.RADIAN.) );
#1137 = ( NAMED_UNIT(*) SI_UNIT($,.STERADIAN.) SOLID_ANGLE_UNIT() );
#1138 = UNCERTAINTY_MEASURE_WITH_UNIT(LENGTH_MEASURE(1.E-07),#1135,
  'distance_accuracy_value','confusion accuracy');
#1139 = CONTEXT_DEPENDENT_SHAPE_REPRESENTATION(#1140,#1142);
#1140 = ( REPRESENTATION_RELATIONSHIP('','',#1133,#568) 
REPRESENTATION_RELATIONSHIP_WITH_TRANSFORMATION(#1141) 
SHAPE_REPRESENTATION_RELATIONSHIP() );
#1141 = ITEM_DEFINED_TRANSFORMATION('','',#11,#577);
#1142 = PRODUCT_DEFINITION_SHAPE('Placement','Placement of an item',
  #1143);
#1143 = NEXT_ASSEMBLY_USAGE_OCCURRENCE('5','LCS_PH1','',#563,#1128,$);
#1144 = PRODUCT_RELATED_PRODUCT_CATEGORY('part',$,(#1130));
#1145 = SHAPE_DEFINITION_REPRESENTATION(#1146,#1152);
#1146 = PRODUCT_DEFINITION_SHAPE('','',#1147);
#1147 = PRODUCT_DEFINITION('design','',#1148,#1151);
#1148 = PRODUCT_DEFINITION_FORMATION('','',#1149);
#1149 = PRODUCT('Metal superior','Metal superior','',(#1150));
#1150 = PRODUCT_CONTEXT('',#2,'mechanical');
#1151 = PRODUCT_DEFINITION_CONTEXT('part definition',#2,'design');
#1152 = ADVANCED_BREP_SHAPE_REPRESENTATION('',(#11,#1153),#1206);
#1153 = MANIFOLD_SOLID_BREP('',#1154);
#1154 = CLOSED_SHELL('',(#1155,#1188,#1197));
#1155 = ADVANCED_FACE('',(#1156),#1183,.T.);
#1156 = FACE_BOUND('',#1157,.F.);
#1157 = EDGE_LOOP('',(#1158,#1168,#1175,#1176));
#1158 = ORIENTED_EDGE('',*,*,#1159,.T.);
#1159 = EDGE_CURVE('',#1160,#1162,#1164,.T.);
#1160 = VERTEX_POINT('',#1161);
#1161 = CARTESIAN_POINT('',(0.32,0.,0.));
#1162 = VERTEX_POINT('',#1163);
#1163 = CARTESIAN_POINT('',(0.32,0.,6.));
#1164 = LINE('',#1165,#1166);
#1165 = CARTESIAN_POINT('',(0.32,0.,0.));
#1166 = VECTOR('',#1167,1.);
#1167 = DIRECTION('',(0.,0.,1.));
#1168 = ORIENTED_EDGE('',*,*,#1169,.T.);
#1169 = EDGE_CURVE('',#1162,#1162,#1170,.T.);
#1170 = CIRCLE('',#1171,0.32);
#1171 = AXIS2_PLACEMENT_3D('',#1172,#1173,#1174);
#1172 = CARTESIAN_POINT('',(0.,0.,6.));
#1173 = DIRECTION('',(0.,0.,1.));
#1174 = DIRECTION('',(1.,0.,0.));
#1175 = ORIENTED_EDGE('',*,*,#1159,.F.);
#1176 = ORIENTED_EDGE('',*,*,#1177,.F.);
#1177 = EDGE_CURVE('',#1160,#1160,#1178,.T.);
#1178 = CIRCLE('',#1179,0.32);
#1179 = AXIS2_PLACEMENT_3D('',#1180,#1181,#1182);
#1180 = CARTESIAN_POINT('',(0.,0.,0.));
#1181 = DIRECTION('',(0.,0.,1.));
#1182 = DIRECTION('',(1.,0.,0.));
#1183 = CYLINDRICAL_SURFACE('',#1184,0.32);
#1184 = AXIS2_PLACEMENT_3D('',#1185,#1186,#1187);
#1185 = CARTESIAN_POINT('',(0.,0.,0.));
#1186 = DIRECTION('',(-0.,-0.,-1.));
#1187 = DIRECTION('',(1.,0.,0.));
#1188 = ADVANCED_FACE('',(#1189),#1192,.F.);
#1189 = FACE_BOUND('',#1190,.F.);
#1190 = EDGE_LOOP('',(#1191));
#1191 = ORIENTED_EDGE('',*,*,#1177,.T.);
#1192 = PLANE('',#1193);
#1193 = AXIS2_PLACEMENT_3D('',#1194,#1195,#1196);
#1194 = CARTESIAN_POINT('',(-3.E-17,2.E-17,0.));
#1195 = DIRECTION('',(0.,0.,1.));
#1196 = DIRECTION('',(1.,0.,0.));
#1197 = ADVANCED_FACE('',(#1198),#1201,.T.);
#1198 = FACE_BOUND('',#1199,.T.);
#1199 = EDGE_LOOP('',(#1200));
#1200 = ORIENTED_EDGE('',*,*,#1169,.T.);
#1201 = PLANE('',#1202);
#1202 = AXIS2_PLACEMENT_3D('',#1203,#1204,#1205);
#1203 = CARTESIAN_POINT('',(-3.E-17,2.E-17,6.));
#1204 = DIRECTION('',(0.,0.,1.));
#1205 = DIRECTION('',(1.,0.,0.));
#1206 = ( GEOMETRIC_REPRESENTATION_CONTEXT(3) 
GLOBAL_UNCERTAINTY_ASSIGNED_CONTEXT((#1210)) 
GLOBAL_UNIT_ASSIGNED_CONTEXT((#1207,#1208,#1209)) REPRESENTATION_CONTEXT
('Context #1','3D Context with UNIT and UNCERTAINTY') );
#1207 = ( LENGTH_UNIT() NAMED_UNIT(*) SI_UNIT(.MILLI.,.METRE.) );
#1208 = ( NAMED_UNIT(*) PLANE_ANGLE_UNIT() SI_UNIT($,.RADIAN.) );
#1209 = ( NAMED_UNIT(*) SI_UNIT($,.STERADIAN.) SOLID_ANGLE_UNIT() );
#1210 = UNCERTAINTY_MEASURE_WITH_UNIT(LENGTH_MEASURE(1.E-07),#1207,
  'distance_accuracy_value','confusion accuracy');
#1211 = CONTEXT_DEPENDENT_SHAPE_REPRESENTATION(#1212,#1214);
#1212 = ( REPRESENTATION_RELATIONSHIP('','',#1152,#568) 
REPRESENTATION_RELATIONSHIP_WITH_TRANSFORMATION(#1213) 
SHAPE_REPRESENTATION_RELATIONSHIP() );
#1213 = ITEM_DEFINED_TRANSFORMATION('','',#11,#581);
#1214 = PRODUCT_DEFINITION_SHAPE('Placement','Placement of an item',
  #1215);
#1215 = NEXT_ASSEMBLY_USAGE_OCCURRENCE('6','Metal superior001','',#563,
  #1147,$);
#1216 = PRODUCT_RELATED_PRODUCT_CATEGORY('part',$,(#1149));
#1217 = CONTEXT_DEPENDENT_SHAPE_REPRESENTATION(#1218,#1220);
#1218 = ( REPRESENTATION_RELATIONSHIP('','',#1152,#568) 
REPRESENTATION_RELATIONSHIP_WITH_TRANSFORMATION(#1219) 
SHAPE_REPRESENTATION_RELATIONSHIP() );
#1219 = ITEM_DEFINED_TRANSFORMATION('','',#11,#585);
#1220 = PRODUCT_DEFINITION_SHAPE('Placement','Placement of an item',
  #1221);
#1221 = NEXT_ASSEMBLY_USAGE_OCCURRENCE('7','Metal superior002','',#563,
  #1147,$);
#1222 = SHAPE_DEFINITION_REPRESENTATION(#1223,#1229);
#1223 = PRODUCT_DEFINITION_SHAPE('','',#1224);
#1224 = PRODUCT_DEFINITION('design','',#1225,#1228);
#1225 = PRODUCT_DEFINITION_FORMATION('','',#1226);
#1226 = PRODUCT('Metal inferior','Metal inferior','',(#1227));
#1227 = PRODUCT_CONTEXT('',#2,'mechanical');
#1228 = PRODUCT_DEFINITION_CONTEXT('part definition',#2,'design');
#1229 = ADVANCED_BREP_SHAPE_REPRESENTATION('',(#11,#1230),#1283);
#1230 = MANIFOLD_SOLID_BREP('',#1231);
#1231 = CLOSED_SHELL('',(#1232,#1265,#1274));
#1232 = ADVANCED_FACE('',(#1233),#1260,.T.);
#1233 = FACE_BOUND('',#1234,.T.);
#1234 = EDGE_LOOP('',(#1235,#1245,#1252,#1253));
#1235 = ORIENTED_EDGE('',*,*,#1236,.T.);
#1236 = EDGE_CURVE('',#1237,#1239,#1241,.T.);
#1237 = VERTEX_POINT('',#1238);
#1238 = CARTESIAN_POINT('',(0.32,0.,0.));
#1239 = VERTEX_POINT('',#1240);
#1240 = CARTESIAN_POINT('',(0.32,0.,-3.));
#1241 = LINE('',#1242,#1243);
#1242 = CARTESIAN_POINT('',(0.32,0.,0.));
#1243 = VECTOR('',#1244,1.);
#1244 = DIRECTION('',(-0.,-0.,-1.));
#1245 = ORIENTED_EDGE('',*,*,#1246,.T.);
#1246 = EDGE_CURVE('',#1239,#1239,#1247,.T.);
#1247 = CIRCLE('',#1248,0.32);
#1248 = AXIS2_PLACEMENT_3D('',#1249,#1250,#1251);
#1249 = CARTESIAN_POINT('',(0.,0.,-3.));
#1250 = DIRECTION('',(0.,0.,1.));
#1251 = DIRECTION('',(1.,0.,0.));
#1252 = ORIENTED_EDGE('',*,*,#1236,.F.);
#1253 = ORIENTED_EDGE('',*,*,#1254,.F.);
#1254 = EDGE_CURVE('',#1237,#1237,#1255,.T.);
#1255 = CIRCLE('',#1256,0.32);
#1256 = AXIS2_PLACEMENT_3D('',#1257,#1258,#1259);
#1257 = CARTESIAN_POINT('',(0.,0.,0.));
#1258 = DIRECTION('',(0.,0.,1.));
#1259 = DIRECTION('',(1.,0.,0.));
#1260 = CYLINDRICAL_SURFACE('',#1261,0.32);
#1261 = AXIS2_PLACEMENT_3D('',#1262,#1263,#1264);
#1262 = CARTESIAN_POINT('',(0.,0.,0.));
#1263 = DIRECTION('',(0.,0.,1.));
#1264 = DIRECTION('',(1.,0.,-0.));
#1265 = ADVANCED_FACE('',(#1266),#1269,.T.);
#1266 = FACE_BOUND('',#1267,.T.);
#1267 = EDGE_LOOP('',(#1268));
#1268 = ORIENTED_EDGE('',*,*,#1254,.T.);
#1269 = PLANE('',#1270);
#1270 = AXIS2_PLACEMENT_3D('',#1271,#1272,#1273);
#1271 = CARTESIAN_POINT('',(-3.E-17,2.E-17,0.));
#1272 = DIRECTION('',(0.,0.,1.));
#1273 = DIRECTION('',(1.,0.,0.));
#1274 = ADVANCED_FACE('',(#1275),#1278,.F.);
#1275 = FACE_BOUND('',#1276,.F.);
#1276 = EDGE_LOOP('',(#1277));
#1277 = ORIENTED_EDGE('',*,*,#1246,.T.);
#1278 = PLANE('',#1279);
#1279 = AXIS2_PLACEMENT_3D('',#1280,#1281,#1282);
#1280 = CARTESIAN_POINT('',(-3.E-17,2.E-17,-3.));
#1281 = DIRECTION('',(0.,0.,1.));
#1282 = DIRECTION('',(1.,0.,0.));
#1283 = ( GEOMETRIC_REPRESENTATION_CONTEXT(3) 
GLOBAL_UNCERTAINTY_ASSIGNED_CONTEXT((#1287)) 
GLOBAL_UNIT_ASSIGNED_CONTEXT((#1284,#1285,#1286)) REPRESENTATION_CONTEXT
('Context #1','3D Context with UNIT and UNCERTAINTY') );
#1284 = ( LENGTH_UNIT() NAMED_UNIT(*) SI_UNIT(.MILLI.,.METRE.) );
#1285 = ( NAMED_UNIT(*) PLANE_ANGLE_UNIT() SI_UNIT($,.RADIAN.) );
#1286 = ( NAMED_UNIT(*) SI_UNIT($,.STERADIAN.) SOLID_ANGLE_UNIT() );
#1287 = UNCERTAINTY_MEASURE_WITH_UNIT(LENGTH_MEASURE(1.E-07),#1284,
  'distance_accuracy_value','confusion accuracy');
#1288 = CONTEXT_DEPENDENT_SHAPE_REPRESENTATION(#1289,#1291);
#1289 = ( REPRESENTATION_RELATIONSHIP('','',#1229,#568) 
REPRESENTATION_RELATIONSHIP_WITH_TRANSFORMATION(#1290) 
SHAPE_REPRESENTATION_RELATIONSHIP() );
#1290 = ITEM_DEFINED_TRANSFORMATION('','',#11,#589);
#1291 = PRODUCT_DEFINITION_SHAPE('Placement','Placement of an item',
  #1292);
#1292 = NEXT_ASSEMBLY_USAGE_OCCURRENCE('8','Metal inferior001','',#563,
  #1224,$);
#1293 = PRODUCT_RELATED_PRODUCT_CATEGORY('part',$,(#1226));
#1294 = CONTEXT_DEPENDENT_SHAPE_REPRESENTATION(#1295,#1297);
#1295 = ( REPRESENTATION_RELATIONSHIP('','',#1229,#568) 
REPRESENTATION_RELATIONSHIP_WITH_TRANSFORMATION(#1296) 
SHAPE_REPRESENTATION_RELATIONSHIP() );
#1296 = ITEM_DEFINED_TRANSFORMATION('','',#11,#593);
#1297 = PRODUCT_DEFINITION_SHAPE('Placement','Placement of an item',
  #1298);
#1298 = NEXT_ASSEMBLY_USAGE_OCCURRENCE('9','Metal inferior002','',#563,
  #1224,$);
#1299 = CONTEXT_DEPENDENT_SHAPE_REPRESENTATION(#1300,#1302);
#1300 = ( REPRESENTATION_RELATIONSHIP('','',#568,#10) 
REPRESENTATION_RELATIONSHIP_WITH_TRANSFORMATION(#1301) 
SHAPE_REPRESENTATION_RELATIONSHIP() );
#1301 = ITEM_DEFINED_TRANSFORMATION('','',#11,#27);
#1302 = PRODUCT_DEFINITION_SHAPE('Placement','Placement of an item',
  #1303);
#1303 = NEXT_ASSEMBLY_USAGE_OCCURRENCE('11','Pin_Header_1x003','',#5,
  #563,$);
#1304 = CONTEXT_DEPENDENT_SHAPE_REPRESENTATION(#1305,#1307);
#1305 = ( REPRESENTATION_RELATIONSHIP('','',#568,#10) 
REPRESENTATION_RELATIONSHIP_WITH_TRANSFORMATION(#1306) 
SHAPE_REPRESENTATION_RELATIONSHIP() );
#1306 = ITEM_DEFINED_TRANSFORMATION('','',#11,#31);
#1307 = PRODUCT_DEFINITION_SHAPE('Placement','Placement of an item',
  #1308);
#1308 = NEXT_ASSEMBLY_USAGE_OCCURRENCE('12','Pin_Header_1x004','',#5,
  #563,$);
#1309 = CONTEXT_DEPENDENT_SHAPE_REPRESENTATION(#1310,#1312);
#1310 = ( REPRESENTATION_RELATIONSHIP('','',#568,#10) 
REPRESENTATION_RELATIONSHIP_WITH_TRANSFORMATION(#1311) 
SHAPE_REPRESENTATION_RELATIONSHIP() );
#1311 = ITEM_DEFINED_TRANSFORMATION('','',#11,#35);
#1312 = PRODUCT_DEFINITION_SHAPE('Placement','Placement of an item',
  #1313);
#1313 = NEXT_ASSEMBLY_USAGE_OCCURRENCE('13','Pin_Header_1x005','',#5,
  #563,$);
#1314 = SHAPE_DEFINITION_REPRESENTATION(#1315,#1321);
#1315 = PRODUCT_DEFINITION_SHAPE('','',#1316);
#1316 = PRODUCT_DEFINITION('design','',#1317,#1320);
#1317 = PRODUCT_DEFINITION_FORMATION('','',#1318);
#1318 = PRODUCT('Assembly','Assembly','',(#1319));
#1319 = PRODUCT_CONTEXT('',#2,'mechanical');
#1320 = PRODUCT_DEFINITION_CONTEXT('part definition',#2,'design');
#1321 = SHAPE_REPRESENTATION('',(#11,#1322,#1326,#1330,#1334),#1338);
#1322 = AXIS2_PLACEMENT_3D('',#1323,#1324,#1325);
#1323 = CARTESIAN_POINT('',(0.,0.,0.));
#1324 = DIRECTION('',(0.,0.,1.));
#1325 = DIRECTION('',(1.,0.,0.));
#1326 = AXIS2_PLACEMENT_3D('',#1327,#1328,#1329);
#1327 = CARTESIAN_POINT('',(-1.25,-3.2E-15,-4.25));
#1328 = DIRECTION('',(0.,0.,1.));
#1329 = DIRECTION('',(1.,0.,0.));
#1330 = AXIS2_PLACEMENT_3D('',#1331,#1332,#1333);
#1331 = CARTESIAN_POINT('',(-1.1E-15,-1.9E-15,-11.5));
#1332 = DIRECTION('',(0.,0.,1.));
#1333 = DIRECTION('',(1.,0.,0.));
#1334 = AXIS2_PLACEMENT_3D('',#1335,#1336,#1337);
#1335 = CARTESIAN_POINT('',(-1.1E-15,2.54,-11.5));
#1336 = DIRECTION('',(0.,0.,1.));
#1337 = DIRECTION('',(1.,0.,0.));
#1338 = ( GEOMETRIC_REPRESENTATION_CONTEXT(3) 
GLOBAL_UNCERTAINTY_ASSIGNED_CONTEXT((#1342)) 
GLOBAL_UNIT_ASSIGNED_CONTEXT((#1339,#1340,#1341)) REPRESENTATION_CONTEXT
('Context #1','3D Context with UNIT and UNCERTAINTY') );
#1339 = ( LENGTH_UNIT() NAMED_UNIT(*) SI_UNIT(.MILLI.,.METRE.) );
#1340 = ( NAMED_UNIT(*) PLANE_ANGLE_UNIT() SI_UNIT($,.RADIAN.) );
#1341 = ( NAMED_UNIT(*) SI_UNIT($,.STERADIAN.) SOLID_ANGLE_UNIT() );
#1342 = UNCERTAINTY_MEASURE_WITH_UNIT(LENGTH_MEASURE(5.E-06),#1339,
  'distance_accuracy_value','confusion accuracy');
#1343 = CONTEXT_DEPENDENT_SHAPE_REPRESENTATION(#1344,#1346);
#1344 = ( REPRESENTATION_RELATIONSHIP('','',#1321,#10) 
REPRESENTATION_RELATIONSHIP_WITH_TRANSFORMATION(#1345) 
SHAPE_REPRESENTATION_RELATIONSHIP() );
#1345 = ITEM_DEFINED_TRANSFORMATION('','',#11,#39);
#1346 = PRODUCT_DEFINITION_SHAPE('Placement','Placement of an item',
  #1347);
#1347 = NEXT_ASSEMBLY_USAGE_OCCURRENCE('18','Pin_socket_1x02','',#5,
  #1316,$);
#1348 = PRODUCT_RELATED_PRODUCT_CATEGORY('part',$,(#1318));
#1349 = SHAPE_DEFINITION_REPRESENTATION(#1350,#1356);
#1350 = PRODUCT_DEFINITION_SHAPE('','',#1351);
#1351 = PRODUCT_DEFINITION('design','',#1352,#1355);
#1352 = PRODUCT_DEFINITION_FORMATION('','',#1353);
#1353 = PRODUCT('LCS_Origin','LCS_Origin','',(#1354));
#1354 = PRODUCT_CONTEXT('',#2,'mechanical');
#1355 = PRODUCT_DEFINITION_CONTEXT('part definition',#2,'design');
#1356 = MANIFOLD_SURFACE_SHAPE_REPRESENTATION('',(#11),#1357);
#1357 = ( GEOMETRIC_REPRESENTATION_CONTEXT(3) 
GLOBAL_UNCERTAINTY_ASSIGNED_CONTEXT((#1361)) 
GLOBAL_UNIT_ASSIGNED_CONTEXT((#1358,#1359,#1360)) REPRESENTATION_CONTEXT
('Context #1','3D Context with UNIT and UNCERTAINTY') );
#1358 = ( LENGTH_UNIT() NAMED_UNIT(*) SI_UNIT(.MILLI.,.METRE.) );
#1359 = ( NAMED_UNIT(*) PLANE_ANGLE_UNIT() SI_UNIT($,.RADIAN.) );
#1360 = ( NAMED_UNIT(*) SI_UNIT($,.STERADIAN.) SOLID_ANGLE_UNIT() );
#1361 = UNCERTAINTY_MEASURE_WITH_UNIT(LENGTH_MEASURE(1.E-07),#1358,
  'distance_accuracy_value','confusion accuracy');
#1362 = CONTEXT_DEPENDENT_SHAPE_REPRESENTATION(#1363,#1365);
#1363 = ( REPRESENTATION_RELATIONSHIP('','',#1356,#1321) 
REPRESENTATION_RELATIONSHIP_WITH_TRANSFORMATION(#1364) 
SHAPE_REPRESENTATION_RELATIONSHIP() );
#1364 = ITEM_DEFINED_TRANSFORMATION('','',#11,#1322);
#1365 = PRODUCT_DEFINITION_SHAPE('Placement','Placement of an item',
  #1366);
#1366 = NEXT_ASSEMBLY_USAGE_OCCURRENCE('14','LCS_Origin','',#1316,#1351,
  $);
#1367 = PRODUCT_RELATED_PRODUCT_CATEGORY('part',$,(#1353));
#1368 = SHAPE_DEFINITION_REPRESENTATION(#1369,#1375);
#1369 = PRODUCT_DEFINITION_SHAPE('','',#1370);
#1370 = PRODUCT_DEFINITION('design','',#1371,#1374);
#1371 = PRODUCT_DEFINITION_FORMATION('','',#1372);
#1372 = PRODUCT('Parte plastica','Parte plastica','',(#1373));
#1373 = PRODUCT_CONTEXT('',#2,'mechanical');
#1374 = PRODUCT_DEFINITION_CONTEXT('part definition',#2,'design');
#1375 = ADVANCED_BREP_SHAPE_REPRESENTATION('',(#11,#1376),#1616);
#1376 = MANIFOLD_SOLID_BREP('',#1377);
#1377 = CLOSED_SHELL('',(#1378,#1418,#1449,#1473,#1497,#1514,#1548,#1573
    ,#1598,#1607));
#1378 = ADVANCED_FACE('',(#1379),#1413,.F.);
#1379 = FACE_BOUND('',#1380,.F.);
#1380 = EDGE_LOOP('',(#1381,#1391,#1399,#1407));
#1381 = ORIENTED_EDGE('',*,*,#1382,.F.);
#1382 = EDGE_CURVE('',#1383,#1385,#1387,.T.);
#1383 = VERTEX_POINT('',#1384);
#1384 = CARTESIAN_POINT('',(-1.E-15,-1.27,-4.25));
#1385 = VERTEX_POINT('',#1386);
#1386 = CARTESIAN_POINT('',(4.E-15,3.81,-4.25));
#1387 = LINE('',#1388,#1389);
#1388 = CARTESIAN_POINT('',(6.77E-15,-24.13,-4.25));
#1389 = VECTOR('',#1390,1.);
#1390 = DIRECTION('',(-2.2E-16,1.,-3.3E-16));
#1391 = ORIENTED_EDGE('',*,*,#1392,.F.);
#1392 = EDGE_CURVE('',#1393,#1383,#1395,.T.);
#1393 = VERTEX_POINT('',#1394);
#1394 = CARTESIAN_POINT('',(2.5,-1.27,-4.25));
#1395 = LINE('',#1396,#1397);
#1396 = CARTESIAN_POINT('',(1.25,-1.27,-4.25));
#1397 = VECTOR('',#1398,1.);
#1398 = DIRECTION('',(-1.,-0.,-3.3E-16));
#1399 = ORIENTED_EDGE('',*,*,#1400,.T.);
#1400 = EDGE_CURVE('',#1393,#1401,#1403,.T.);
#1401 = VERTEX_POINT('',#1402);
#1402 = CARTESIAN_POINT('',(2.5,3.81,-4.25));
#1403 = LINE('',#1404,#1405);
#1404 = CARTESIAN_POINT('',(2.5,-24.13,-4.25));
#1405 = VECTOR('',#1406,1.);
#1406 = DIRECTION('',(-2.2E-16,1.,-3.3E-16));
#1407 = ORIENTED_EDGE('',*,*,#1408,.F.);
#1408 = EDGE_CURVE('',#1385,#1401,#1409,.T.);
#1409 = LINE('',#1410,#1411);
#1410 = CARTESIAN_POINT('',(4.13E-15,3.81,-4.25));
#1411 = VECTOR('',#1412,1.);
#1412 = DIRECTION('',(1.,0.,3.3E-16));
#1413 = PLANE('',#1414);
#1414 = AXIS2_PLACEMENT_3D('',#1415,#1416,#1417);
#1415 = CARTESIAN_POINT('',(7.71E-15,-24.13,-4.25));
#1416 = DIRECTION('',(-3.3E-16,1.1E-16,1.));
#1417 = DIRECTION('',(-2.2E-16,1.,-1.1E-16));
#1418 = ADVANCED_FACE('',(#1419),#1444,.F.);
#1419 = FACE_BOUND('',#1420,.F.);
#1420 = EDGE_LOOP('',(#1421,#1429,#1430,#1438));
#1421 = ORIENTED_EDGE('',*,*,#1422,.T.);
#1422 = EDGE_CURVE('',#1423,#1383,#1425,.T.);
#1423 = VERTEX_POINT('',#1424);
#1424 = CARTESIAN_POINT('',(-7.E-15,-1.27,4.25));
#1425 = LINE('',#1426,#1427);
#1426 = CARTESIAN_POINT('',(-6.46E-15,-1.27,4.25));
#1427 = VECTOR('',#1428,1.);
#1428 = DIRECTION('',(3.3E-16,-1.1E-16,-1.));
#1429 = ORIENTED_EDGE('',*,*,#1382,.T.);
#1430 = ORIENTED_EDGE('',*,*,#1431,.F.);
#1431 = EDGE_CURVE('',#1432,#1385,#1434,.T.);
#1432 = VERTEX_POINT('',#1433);
#1433 = CARTESIAN_POINT('',(3.E-15,3.81,4.25));
#1434 = LINE('',#1435,#1436);
#1435 = CARTESIAN_POINT('',(3.07E-15,3.81,4.25));
#1436 = VECTOR('',#1437,1.);
#1437 = DIRECTION('',(3.3E-16,-1.1E-16,-1.));
#1438 = ORIENTED_EDGE('',*,*,#1439,.T.);
#1439 = EDGE_CURVE('',#1432,#1423,#1440,.T.);
#1440 = LINE('',#1441,#1442);
#1441 = CARTESIAN_POINT('',(-6.77E-15,24.13,4.25));
#1442 = VECTOR('',#1443,1.);
#1443 = DIRECTION('',(2.2E-16,-1.,3.3E-16));
#1444 = PLANE('',#1445);
#1445 = AXIS2_PLACEMENT_3D('',#1446,#1447,#1448);
#1446 = CARTESIAN_POINT('',(0.,2.5E-16,0.));
#1447 = DIRECTION('',(1.,-2.2E-16,-1.1E-16));
#1448 = DIRECTION('',(1.1E-16,-1.1E-16,1.));
#1449 = ADVANCED_FACE('',(#1450),#1468,.F.);
#1450 = FACE_BOUND('',#1451,.F.);
#1451 = EDGE_LOOP('',(#1452,#1460,#1461,#1462));
#1452 = ORIENTED_EDGE('',*,*,#1453,.F.);
#1453 = EDGE_CURVE('',#1432,#1454,#1456,.T.);
#1454 = VERTEX_POINT('',#1455);
#1455 = CARTESIAN_POINT('',(2.5,3.81,4.25));
#1456 = LINE('',#1457,#1458);
#1457 = CARTESIAN_POINT('',(2.29E-15,3.81,4.25));
#1458 = VECTOR('',#1459,1.);
#1459 = DIRECTION('',(1.,0.,1.1E-16));
#1460 = ORIENTED_EDGE('',*,*,#1431,.T.);
#1461 = ORIENTED_EDGE('',*,*,#1408,.T.);
#1462 = ORIENTED_EDGE('',*,*,#1463,.F.);
#1463 = EDGE_CURVE('',#1454,#1401,#1464,.T.);
#1464 = LINE('',#1465,#1466);
#1465 = CARTESIAN_POINT('',(2.5,3.81,4.25));
#1466 = VECTOR('',#1467,1.);
#1467 = DIRECTION('',(3.3E-16,-1.1E-16,-1.));
#1468 = PLANE('',#1469);
#1469 = AXIS2_PLACEMENT_3D('',#1470,#1471,#1472);
#1470 = CARTESIAN_POINT('',(3.07E-15,3.81,4.25));
#1471 = DIRECTION('',(0.,-1.,1.1E-16));
#1472 = DIRECTION('',(1.,1.21E-32,1.1E-16));
#1473 = ADVANCED_FACE('',(#1474),#1492,.T.);
#1474 = FACE_BOUND('',#1475,.T.);
#1475 = EDGE_LOOP('',(#1476,#1484,#1485,#1486));
#1476 = ORIENTED_EDGE('',*,*,#1477,.T.);
#1477 = EDGE_CURVE('',#1478,#1393,#1480,.T.);
#1478 = VERTEX_POINT('',#1479);
#1479 = CARTESIAN_POINT('',(2.5,-1.27,4.25));
#1480 = LINE('',#1481,#1482);
#1481 = CARTESIAN_POINT('',(2.5,-1.27,4.25));
#1482 = VECTOR('',#1483,1.);
#1483 = DIRECTION('',(3.3E-16,-1.1E-16,-1.));
#1484 = ORIENTED_EDGE('',*,*,#1400,.T.);
#1485 = ORIENTED_EDGE('',*,*,#1463,.F.);
#1486 = ORIENTED_EDGE('',*,*,#1487,.T.);
#1487 = EDGE_CURVE('',#1454,#1478,#1488,.T.);
#1488 = LINE('',#1489,#1490);
#1489 = CARTESIAN_POINT('',(2.5,24.13,4.25));
#1490 = VECTOR('',#1491,1.);
#1491 = DIRECTION('',(2.2E-16,-1.,3.3E-16));
#1492 = PLANE('',#1493);
#1493 = AXIS2_PLACEMENT_3D('',#1494,#1495,#1496);
#1494 = CARTESIAN_POINT('',(2.5,-7.5E-16,-1.33226762955E-15));
#1495 = DIRECTION('',(1.,-2.2E-16,-1.1E-16));
#1496 = DIRECTION('',(1.1E-16,-1.1E-16,1.));
#1497 = ADVANCED_FACE('',(#1498),#1509,.F.);
#1498 = FACE_BOUND('',#1499,.F.);
#1499 = EDGE_LOOP('',(#1500,#1506,#1507,#1508));
#1500 = ORIENTED_EDGE('',*,*,#1501,.F.);
#1501 = EDGE_CURVE('',#1478,#1423,#1502,.T.);
#1502 = LINE('',#1503,#1504);
#1503 = CARTESIAN_POINT('',(2.5,-1.27,4.25));
#1504 = VECTOR('',#1505,1.);
#1505 = DIRECTION('',(-1.,0.,-1.1E-16));
#1506 = ORIENTED_EDGE('',*,*,#1477,.T.);
#1507 = ORIENTED_EDGE('',*,*,#1392,.T.);
#1508 = ORIENTED_EDGE('',*,*,#1422,.F.);
#1509 = PLANE('',#1510);
#1510 = AXIS2_PLACEMENT_3D('',#1511,#1512,#1513);
#1511 = CARTESIAN_POINT('',(2.5,-1.27,4.25));
#1512 = DIRECTION('',(-0.,1.,-1.1E-16));
#1513 = DIRECTION('',(-1.,-1.21E-32,-1.1E-16));
#1514 = ADVANCED_FACE('',(#1515,#1521,#1532),#1543,.F.);
#1515 = FACE_BOUND('',#1516,.F.);
#1516 = EDGE_LOOP('',(#1517,#1518,#1519,#1520));
#1517 = ORIENTED_EDGE('',*,*,#1439,.F.);
#1518 = ORIENTED_EDGE('',*,*,#1453,.T.);
#1519 = ORIENTED_EDGE('',*,*,#1487,.T.);
#1520 = ORIENTED_EDGE('',*,*,#1501,.T.);
#1521 = FACE_BOUND('',#1522,.F.);
#1522 = EDGE_LOOP('',(#1523));
#1523 = ORIENTED_EDGE('',*,*,#1524,.T.);
#1524 = EDGE_CURVE('',#1525,#1525,#1527,.T.);
#1525 = VERTEX_POINT('',#1526);
#1526 = CARTESIAN_POINT('',(1.25,2.22,4.25));
#1527 = CIRCLE('',#1528,0.32);
#1528 = AXIS2_PLACEMENT_3D('',#1529,#1530,#1531);
#1529 = CARTESIAN_POINT('',(1.25,2.54,4.25));
#1530 = DIRECTION('',(1.1E-16,3.3E-16,1.));
#1531 = DIRECTION('',(2.2E-16,-1.,3.3E-16));
#1532 = FACE_BOUND('',#1533,.F.);
#1533 = EDGE_LOOP('',(#1534));
#1534 = ORIENTED_EDGE('',*,*,#1535,.T.);
#1535 = EDGE_CURVE('',#1536,#1536,#1538,.T.);
#1536 = VERTEX_POINT('',#1537);
#1537 = CARTESIAN_POINT('',(1.25,-0.32,4.25));
#1538 = CIRCLE('',#1539,0.32);
#1539 = AXIS2_PLACEMENT_3D('',#1540,#1541,#1542);
#1540 = CARTESIAN_POINT('',(1.25,-8.881784197001E-16,4.25));
#1541 = DIRECTION('',(1.1E-16,3.3E-16,1.));
#1542 = DIRECTION('',(2.2E-16,-1.,3.3E-16));
#1543 = PLANE('',#1544);
#1544 = AXIS2_PLACEMENT_3D('',#1545,#1546,#1547);
#1545 = CARTESIAN_POINT('',(-7.71E-15,24.13,4.25));
#1546 = DIRECTION('',(3.3E-16,-1.1E-16,-1.));
#1547 = DIRECTION('',(2.2E-16,-1.,1.1E-16));
#1548 = ADVANCED_FACE('',(#1549),#1568,.F.);
#1549 = FACE_BOUND('',#1550,.F.);
#1550 = EDGE_LOOP('',(#1551,#1559,#1566,#1567));
#1551 = ORIENTED_EDGE('',*,*,#1552,.T.);
#1552 = EDGE_CURVE('',#1525,#1553,#1555,.T.);
#1553 = VERTEX_POINT('',#1554);
#1554 = CARTESIAN_POINT('',(1.25,2.22,-1.75));
#1555 = LINE('',#1556,#1557);
#1556 = CARTESIAN_POINT('',(1.25,2.22,4.25));
#1557 = VECTOR('',#1558,1.);
#1558 = DIRECTION('',(5.5E-16,1.1E-16,-1.));
#1559 = ORIENTED_EDGE('',*,*,#1560,.T.);
#1560 = EDGE_CURVE('',#1553,#1553,#1561,.T.);
#1561 = CIRCLE('',#1562,0.32);
#1562 = AXIS2_PLACEMENT_3D('',#1563,#1564,#1565);
#1563 = CARTESIAN_POINT('',(1.25,2.54,-1.75));
#1564 = DIRECTION('',(1.1E-16,3.3E-16,1.));
#1565 = DIRECTION('',(2.2E-16,-1.,3.3E-16));
#1566 = ORIENTED_EDGE('',*,*,#1552,.F.);
#1567 = ORIENTED_EDGE('',*,*,#1524,.F.);
#1568 = CYLINDRICAL_SURFACE('',#1569,0.32);
#1569 = AXIS2_PLACEMENT_3D('',#1570,#1571,#1572);
#1570 = CARTESIAN_POINT('',(1.25,2.54,4.25));
#1571 = DIRECTION('',(-3.3E-16,1.1E-16,1.));
#1572 = DIRECTION('',(4.4E-16,-1.,1.1E-16));
#1573 = ADVANCED_FACE('',(#1574),#1593,.F.);
#1574 = FACE_BOUND('',#1575,.F.);
#1575 = EDGE_LOOP('',(#1576,#1584,#1591,#1592));
#1576 = ORIENTED_EDGE('',*,*,#1577,.T.);
#1577 = EDGE_CURVE('',#1536,#1578,#1580,.T.);
#1578 = VERTEX_POINT('',#1579);
#1579 = CARTESIAN_POINT('',(1.25,-0.32,-1.75));
#1580 = LINE('',#1581,#1582);
#1581 = CARTESIAN_POINT('',(1.25,-0.32,4.25));
#1582 = VECTOR('',#1583,1.);
#1583 = DIRECTION('',(5.5E-16,1.1E-16,-1.));
#1584 = ORIENTED_EDGE('',*,*,#1585,.T.);
#1585 = EDGE_CURVE('',#1578,#1578,#1586,.T.);
#1586 = CIRCLE('',#1587,0.32);
#1587 = AXIS2_PLACEMENT_3D('',#1588,#1589,#1590);
#1588 = CARTESIAN_POINT('',(1.25,2.22044604925E-15,-1.75));
#1589 = DIRECTION('',(1.1E-16,3.3E-16,1.));
#1590 = DIRECTION('',(2.2E-16,-1.,3.3E-16));
#1591 = ORIENTED_EDGE('',*,*,#1577,.F.);
#1592 = ORIENTED_EDGE('',*,*,#1535,.F.);
#1593 = CYLINDRICAL_SURFACE('',#1594,0.32);
#1594 = AXIS2_PLACEMENT_3D('',#1595,#1596,#1597);
#1595 = CARTESIAN_POINT('',(1.25,6.7E-16,4.25));
#1596 = DIRECTION('',(-3.3E-16,1.1E-16,1.));
#1597 = DIRECTION('',(4.4E-16,-1.,1.1E-16));
#1598 = ADVANCED_FACE('',(#1599),#1602,.T.);
#1599 = FACE_BOUND('',#1600,.T.);
#1600 = EDGE_LOOP('',(#1601));
#1601 = ORIENTED_EDGE('',*,*,#1560,.T.);
#1602 = PLANE('',#1603);
#1603 = AXIS2_PLACEMENT_3D('',#1604,#1605,#1606);
#1604 = CARTESIAN_POINT('',(1.25,5.329070518201E-15,-1.75));
#1605 = DIRECTION('',(-3.3E-16,-1.1E-16,1.));
#1606 = DIRECTION('',(1.,-2.2E-16,3.3E-16));
#1607 = ADVANCED_FACE('',(#1608),#1611,.T.);
#1608 = FACE_BOUND('',#1609,.T.);
#1609 = EDGE_LOOP('',(#1610));
#1610 = ORIENTED_EDGE('',*,*,#1585,.T.);
#1611 = PLANE('',#1612);
#1612 = AXIS2_PLACEMENT_3D('',#1613,#1614,#1615);
#1613 = CARTESIAN_POINT('',(1.25,5.329070518201E-15,-1.75));
#1614 = DIRECTION('',(-3.3E-16,-1.1E-16,1.));
#1615 = DIRECTION('',(1.,-2.2E-16,3.3E-16));
#1616 = ( GEOMETRIC_REPRESENTATION_CONTEXT(3) 
GLOBAL_UNCERTAINTY_ASSIGNED_CONTEXT((#1620)) 
GLOBAL_UNIT_ASSIGNED_CONTEXT((#1617,#1618,#1619)) REPRESENTATION_CONTEXT
('Context #1','3D Context with UNIT and UNCERTAINTY') );
#1617 = ( LENGTH_UNIT() NAMED_UNIT(*) SI_UNIT(.MILLI.,.METRE.) );
#1618 = ( NAMED_UNIT(*) PLANE_ANGLE_UNIT() SI_UNIT($,.RADIAN.) );
#1619 = ( NAMED_UNIT(*) SI_UNIT($,.STERADIAN.) SOLID_ANGLE_UNIT() );
#1620 = UNCERTAINTY_MEASURE_WITH_UNIT(LENGTH_MEASURE(5.E-06),#1617,
  'distance_accuracy_value','confusion accuracy');
#1621 = CONTEXT_DEPENDENT_SHAPE_REPRESENTATION(#1622,#1624);
#1622 = ( REPRESENTATION_RELATIONSHIP('','',#1375,#1321) 
REPRESENTATION_RELATIONSHIP_WITH_TRANSFORMATION(#1623) 
SHAPE_REPRESENTATION_RELATIONSHIP() );
#1623 = ITEM_DEFINED_TRANSFORMATION('','',#11,#1326);
#1624 = PRODUCT_DEFINITION_SHAPE('Placement','Placement of an item',
  #1625);
#1625 = NEXT_ASSEMBLY_USAGE_OCCURRENCE('15','Parte plastica001','',#1316
  ,#1370,$);
#1626 = PRODUCT_RELATED_PRODUCT_CATEGORY('part',$,(#1372));
#1627 = SHAPE_DEFINITION_REPRESENTATION(#1628,#1634);
#1628 = PRODUCT_DEFINITION_SHAPE('','',#1629);
#1629 = PRODUCT_DEFINITION('design','',#1630,#1633);
#1630 = PRODUCT_DEFINITION_FORMATION('','',#1631);
#1631 = PRODUCT('Parte metalica','Parte metalica','',(#1632));
#1632 = PRODUCT_CONTEXT('',#2,'mechanical');
#1633 = PRODUCT_DEFINITION_CONTEXT('part definition',#2,'design');
#1634 = ADVANCED_BREP_SHAPE_REPRESENTATION('',(#11,#1635),#1688);
#1635 = MANIFOLD_SOLID_BREP('',#1636);
#1636 = CLOSED_SHELL('',(#1637,#1670,#1679));
#1637 = ADVANCED_FACE('',(#1638),#1665,.T.);
#1638 = FACE_BOUND('',#1639,.F.);
#1639 = EDGE_LOOP('',(#1640,#1650,#1657,#1658));
#1640 = ORIENTED_EDGE('',*,*,#1641,.T.);
#1641 = EDGE_CURVE('',#1642,#1644,#1646,.T.);
#1642 = VERTEX_POINT('',#1643);
#1643 = CARTESIAN_POINT('',(0.325,0.,0.));
#1644 = VERTEX_POINT('',#1645);
#1645 = CARTESIAN_POINT('',(0.325,0.,3.));
#1646 = LINE('',#1647,#1648);
#1647 = CARTESIAN_POINT('',(0.325,0.,0.));
#1648 = VECTOR('',#1649,1.);
#1649 = DIRECTION('',(0.,0.,1.));
#1650 = ORIENTED_EDGE('',*,*,#1651,.T.);
#1651 = EDGE_CURVE('',#1644,#1644,#1652,.T.);
#1652 = CIRCLE('',#1653,0.325);
#1653 = AXIS2_PLACEMENT_3D('',#1654,#1655,#1656);
#1654 = CARTESIAN_POINT('',(0.,0.,3.));
#1655 = DIRECTION('',(0.,0.,1.));
#1656 = DIRECTION('',(1.,0.,0.));
#1657 = ORIENTED_EDGE('',*,*,#1641,.F.);
#1658 = ORIENTED_EDGE('',*,*,#1659,.F.);
#1659 = EDGE_CURVE('',#1642,#1642,#1660,.T.);
#1660 = CIRCLE('',#1661,0.325);
#1661 = AXIS2_PLACEMENT_3D('',#1662,#1663,#1664);
#1662 = CARTESIAN_POINT('',(0.,0.,0.));
#1663 = DIRECTION('',(0.,0.,1.));
#1664 = DIRECTION('',(1.,0.,0.));
#1665 = CYLINDRICAL_SURFACE('',#1666,0.325);
#1666 = AXIS2_PLACEMENT_3D('',#1667,#1668,#1669);
#1667 = CARTESIAN_POINT('',(0.,0.,0.));
#1668 = DIRECTION('',(-0.,-0.,-1.));
#1669 = DIRECTION('',(1.,0.,0.));
#1670 = ADVANCED_FACE('',(#1671),#1674,.F.);
#1671 = FACE_BOUND('',#1672,.F.);
#1672 = EDGE_LOOP('',(#1673));
#1673 = ORIENTED_EDGE('',*,*,#1659,.T.);
#1674 = PLANE('',#1675);
#1675 = AXIS2_PLACEMENT_3D('',#1676,#1677,#1678);
#1676 = CARTESIAN_POINT('',(-2.E-17,2.E-17,0.));
#1677 = DIRECTION('',(0.,0.,1.));
#1678 = DIRECTION('',(1.,0.,0.));
#1679 = ADVANCED_FACE('',(#1680),#1683,.T.);
#1680 = FACE_BOUND('',#1681,.T.);
#1681 = EDGE_LOOP('',(#1682));
#1682 = ORIENTED_EDGE('',*,*,#1651,.T.);
#1683 = PLANE('',#1684);
#1684 = AXIS2_PLACEMENT_3D('',#1685,#1686,#1687);
#1685 = CARTESIAN_POINT('',(-2.E-17,2.E-17,3.));
#1686 = DIRECTION('',(0.,0.,1.));
#1687 = DIRECTION('',(1.,0.,0.));
#1688 = ( GEOMETRIC_REPRESENTATION_CONTEXT(3) 
GLOBAL_UNCERTAINTY_ASSIGNED_CONTEXT((#1692)) 
GLOBAL_UNIT_ASSIGNED_CONTEXT((#1689,#1690,#1691)) REPRESENTATION_CONTEXT
('Context #1','3D Context with UNIT and UNCERTAINTY') );
#1689 = ( LENGTH_UNIT() NAMED_UNIT(*) SI_UNIT(.MILLI.,.METRE.) );
#1690 = ( NAMED_UNIT(*) PLANE_ANGLE_UNIT() SI_UNIT($,.RADIAN.) );
#1691 = ( NAMED_UNIT(*) SI_UNIT($,.STERADIAN.) SOLID_ANGLE_UNIT() );
#1692 = UNCERTAINTY_MEASURE_WITH_UNIT(LENGTH_MEASURE(1.E-07),#1689,
  'distance_accuracy_value','confusion accuracy');
#1693 = CONTEXT_DEPENDENT_SHAPE_REPRESENTATION(#1694,#1696);
#1694 = ( REPRESENTATION_RELATIONSHIP('','',#1634,#1321) 
REPRESENTATION_RELATIONSHIP_WITH_TRANSFORMATION(#1695) 
SHAPE_REPRESENTATION_RELATIONSHIP() );
#1695 = ITEM_DEFINED_TRANSFORMATION('','',#11,#1330);
#1696 = PRODUCT_DEFINITION_SHAPE('Placement','Placement of an item',
  #1697);
#1697 = NEXT_ASSEMBLY_USAGE_OCCURRENCE('16','Parte metalica001','',#1316
  ,#1629,$);
#1698 = PRODUCT_RELATED_PRODUCT_CATEGORY('part',$,(#1631));
#1699 = CONTEXT_DEPENDENT_SHAPE_REPRESENTATION(#1700,#1702);
#1700 = ( REPRESENTATION_RELATIONSHIP('','',#1634,#1321) 
REPRESENTATION_RELATIONSHIP_WITH_TRANSFORMATION(#1701) 
SHAPE_REPRESENTATION_RELATIONSHIP() );
#1701 = ITEM_DEFINED_TRANSFORMATION('','',#11,#1334);
#1702 = PRODUCT_DEFINITION_SHAPE('Placement','Placement of an item',
  #1703);
#1703 = NEXT_ASSEMBLY_USAGE_OCCURRENCE('17','Parte metalica002','',#1316
  ,#1629,$);
#1704 = CONTEXT_DEPENDENT_SHAPE_REPRESENTATION(#1705,#1707);
#1705 = ( REPRESENTATION_RELATIONSHIP('','',#1321,#10) 
REPRESENTATION_RELATIONSHIP_WITH_TRANSFORMATION(#1706) 
SHAPE_REPRESENTATION_RELATIONSHIP() );
#1706 = ITEM_DEFINED_TRANSFORMATION('','',#11,#43);
#1707 = PRODUCT_DEFINITION_SHAPE('Placement','Placement of an item',
  #1708);
#1708 = NEXT_ASSEMBLY_USAGE_OCCURRENCE('19','Pin_socket_1x003','',#5,
  #1316,$);
#1709 = CONTEXT_DEPENDENT_SHAPE_REPRESENTATION(#1710,#1712);
#1710 = ( REPRESENTATION_RELATIONSHIP('','',#1321,#10) 
REPRESENTATION_RELATIONSHIP_WITH_TRANSFORMATION(#1711) 
SHAPE_REPRESENTATION_RELATIONSHIP() );
#1711 = ITEM_DEFINED_TRANSFORMATION('','',#11,#47);
#1712 = PRODUCT_DEFINITION_SHAPE('Placement','Placement of an item',
  #1713);
#1713 = NEXT_ASSEMBLY_USAGE_OCCURRENCE('20','Pin_socket_1x004','',#5,
  #1316,$);
#1714 = CONTEXT_DEPENDENT_SHAPE_REPRESENTATION(#1715,#1717);
#1715 = ( REPRESENTATION_RELATIONSHIP('','',#1321,#10) 
REPRESENTATION_RELATIONSHIP_WITH_TRANSFORMATION(#1716) 
SHAPE_REPRESENTATION_RELATIONSHIP() );
#1716 = ITEM_DEFINED_TRANSFORMATION('','',#11,#51);
#1717 = PRODUCT_DEFINITION_SHAPE('Placement','Placement of an item',
  #1718);
#1718 = NEXT_ASSEMBLY_USAGE_OCCURRENCE('21','Pin_socket_1x005','',#5,
  #1316,$);
#1719 = MECHANICAL_DESIGN_GEOMETRIC_PRESENTATION_REPRESENTATION('',(
    #1720),#1616);
#1720 = STYLED_ITEM('color',(#1721),#1376);
#1721 = PRESENTATION_STYLE_ASSIGNMENT((#1722,#1728));
#1722 = SURFACE_STYLE_USAGE(.BOTH.,#1723);
#1723 = SURFACE_SIDE_STYLE('',(#1724));
#1724 = SURFACE_STYLE_FILL_AREA(#1725);
#1725 = FILL_AREA_STYLE('',(#1726));
#1726 = FILL_AREA_STYLE_COLOUR('',#1727);
#1727 = DRAUGHTING_PRE_DEFINED_COLOUR('black');
#1728 = CURVE_STYLE('',#1729,POSITIVE_LENGTH_MEASURE(0.1),#1730);
#1729 = DRAUGHTING_PRE_DEFINED_CURVE_FONT('continuous');
#1730 = COLOUR_RGB('',9.803921802644E-02,9.803921802644E-02,
  9.803921802644E-02);
#1731 = MECHANICAL_DESIGN_GEOMETRIC_PRESENTATION_REPRESENTATION('',(
    #1732),#1115);
#1732 = STYLED_ITEM('color',(#1733),#635);
#1733 = PRESENTATION_STYLE_ASSIGNMENT((#1734,#1739));
#1734 = SURFACE_STYLE_USAGE(.BOTH.,#1735);
#1735 = SURFACE_SIDE_STYLE('',(#1736));
#1736 = SURFACE_STYLE_FILL_AREA(#1737);
#1737 = FILL_AREA_STYLE('',(#1738));
#1738 = FILL_AREA_STYLE_COLOUR('',#1727);
#1739 = CURVE_STYLE('',#1740,POSITIVE_LENGTH_MEASURE(0.1),#1730);
#1740 = DRAUGHTING_PRE_DEFINED_CURVE_FONT('continuous');
#1741 = MECHANICAL_DESIGN_GEOMETRIC_PRESENTATION_REPRESENTATION('',(
    #1742),#550);
#1742 = STYLED_ITEM('color',(#1743),#88);
#1743 = PRESENTATION_STYLE_ASSIGNMENT((#1744,#1750));
#1744 = SURFACE_STYLE_USAGE(.BOTH.,#1745);
#1745 = SURFACE_SIDE_STYLE('',(#1746));
#1746 = SURFACE_STYLE_FILL_AREA(#1747);
#1747 = FILL_AREA_STYLE('',(#1748));
#1748 = FILL_AREA_STYLE_COLOUR('',#1749);
#1749 = COLOUR_RGB('',0.447058818107,0.474509808674,0.501960817233);
#1750 = CURVE_STYLE('',#1751,POSITIVE_LENGTH_MEASURE(0.1),#1730);
#1751 = DRAUGHTING_PRE_DEFINED_CURVE_FONT('continuous');
#1752 = MECHANICAL_DESIGN_GEOMETRIC_PRESENTATION_REPRESENTATION('',(
    #1753),#1283);
#1753 = STYLED_ITEM('color',(#1754),#1230);
#1754 = PRESENTATION_STYLE_ASSIGNMENT((#1755,#1761));
#1755 = SURFACE_STYLE_USAGE(.BOTH.,#1756);
#1756 = SURFACE_SIDE_STYLE('',(#1757));
#1757 = SURFACE_STYLE_FILL_AREA(#1758);
#1758 = FILL_AREA_STYLE('',(#1759));
#1759 = FILL_AREA_STYLE_COLOUR('',#1760);
#1760 = COLOUR_RGB('',0.780392170416,0.568627474046,0.113725493293);
#1761 = CURVE_STYLE('',#1762,POSITIVE_LENGTH_MEASURE(0.1),#1730);
#1762 = DRAUGHTING_PRE_DEFINED_CURVE_FONT('continuous');
#1763 = MECHANICAL_DESIGN_GEOMETRIC_PRESENTATION_REPRESENTATION('',(
    #1764),#1206);
#1764 = STYLED_ITEM('color',(#1765),#1153);
#1765 = PRESENTATION_STYLE_ASSIGNMENT((#1766,#1771));
#1766 = SURFACE_STYLE_USAGE(.BOTH.,#1767);
#1767 = SURFACE_SIDE_STYLE('',(#1768));
#1768 = SURFACE_STYLE_FILL_AREA(#1769);
#1769 = FILL_AREA_STYLE('',(#1770));
#1770 = FILL_AREA_STYLE_COLOUR('',#1760);
#1771 = CURVE_STYLE('',#1772,POSITIVE_LENGTH_MEASURE(0.1),#1730);
#1772 = DRAUGHTING_PRE_DEFINED_CURVE_FONT('continuous');
#1773 = MECHANICAL_DESIGN_GEOMETRIC_PRESENTATION_REPRESENTATION('',(
    #1774),#1688);
#1774 = STYLED_ITEM('color',(#1775),#1635);
#1775 = PRESENTATION_STYLE_ASSIGNMENT((#1776,#1781));
#1776 = SURFACE_STYLE_USAGE(.BOTH.,#1777);
#1777 = SURFACE_SIDE_STYLE('',(#1778));
#1778 = SURFACE_STYLE_FILL_AREA(#1779);
#1779 = FILL_AREA_STYLE('',(#1780));
#1780 = FILL_AREA_STYLE_COLOUR('',#1760);
#1781 = CURVE_STYLE('',#1782,POSITIVE_LENGTH_MEASURE(0.1),#1730);
#1782 = DRAUGHTING_PRE_DEFINED_CURVE_FONT('continuous');
ENDSEC;
END-ISO-10303-21;
