ISO-10303-21;
HEADER;
FILE_DESCRIPTION(('FreeCAD Model'),'2;1');
FILE_NAME('Open CASCADE Shape Model','2026-02-05T17:57:55',(''),(''),
  'Open CASCADE STEP processor 7.8','FreeCAD','Unknown');
FILE_SCHEMA(('AUTOMOTIVE_DESIGN { 1 0 10303 214 1 1 1 1 }'));
ENDSEC;
DATA;
#1 = APPLICATION_PROTOCOL_DEFINITION('international standard',
  'automotive_design',2000,#2);
#2 = APPLICATION_CONTEXT(
  'core data for automotive mechanical design processes');
#3 = SHAPE_DEFINITION_REPRESENTATION(#4,#10);
#4 = PRODUCT_DEFINITION_SHAPE('','',#5);
#5 = PRODUCT_DEFINITION('design','',#6,#9);
#6 = PRODUCT_DEFINITION_FORMATION('','',#7);
#7 = PRODUCT('Assembly','Assembly','',(#8));
#8 = PRODUCT_CONTEXT('',#2,'mechanical');
#9 = PRODUCT_DEFINITION_CONTEXT('part definition',#2,'design');
#10 = SHAPE_REPRESENTATION('',(#11,#15,#19,#23,#27),#31);
#11 = AXIS2_PLACEMENT_3D('',#12,#13,#14);
#12 = CARTESIAN_POINT('',(0.,0.,0.));
#13 = DIRECTION('',(0.,0.,1.));
#14 = DIRECTION('',(1.,0.,-0.));
#15 = AXIS2_PLACEMENT_3D('',#16,#17,#18);
#16 = CARTESIAN_POINT('',(0.,0.,0.));
#17 = DIRECTION('',(0.,0.,1.));
#18 = DIRECTION('',(1.,0.,0.));
#19 = AXIS2_PLACEMENT_3D('',#20,#21,#22);
#20 = CARTESIAN_POINT('',(0.,0.,0.));
#21 = DIRECTION('',(0.,0.,1.));
#22 = DIRECTION('',(1.,0.,0.));
#23 = AXIS2_PLACEMENT_3D('',#24,#25,#26);
#24 = CARTESIAN_POINT('',(-14.96,1.27,-2.5));
#25 = DIRECTION('',(1.224646799147E-16,-2.465190328816E-32,-1.));
#26 = DIRECTION('',(-1.,-1.509493722737E-48,-1.224646799147E-16));
#27 = AXIS2_PLACEMENT_3D('',#28,#29,#30);
#28 = CARTESIAN_POINT('',(-14.96,1.27,-2.5));
#29 = DIRECTION('',(-2.449293598295E-16,2.465190328816E-32,1.));
#30 = DIRECTION('',(1.,4.52848116821E-48,2.449293598295E-16));
#31 = ( GEOMETRIC_REPRESENTATION_CONTEXT(3) 
GLOBAL_UNCERTAINTY_ASSIGNED_CONTEXT((#35)) GLOBAL_UNIT_ASSIGNED_CONTEXT(
(#32,#33,#34)) REPRESENTATION_CONTEXT('Context #1',
  '3D Context with UNIT and UNCERTAINTY') );
#32 = ( LENGTH_UNIT() NAMED_UNIT(*) SI_UNIT(.MILLI.,.METRE.) );
#33 = ( NAMED_UNIT(*) PLANE_ANGLE_UNIT() SI_UNIT($,.RADIAN.) );
#34 = ( NAMED_UNIT(*) SI_UNIT($,.STERADIAN.) SOLID_ANGLE_UNIT() );
#35 = UNCERTAINTY_MEASURE_WITH_UNIT(LENGTH_MEASURE(2.E-06),#32,
  'distance_accuracy_value','confusion accuracy');
#36 = PRODUCT_RELATED_PRODUCT_CATEGORY('part',$,(#7));
#37 = SHAPE_DEFINITION_REPRESENTATION(#38,#44);
#38 = PRODUCT_DEFINITION_SHAPE('','',#39);
#39 = PRODUCT_DEFINITION('design','',#40,#43);
#40 = PRODUCT_DEFINITION_FORMATION('','',#41);
#41 = PRODUCT('LCS_Origin','LCS_Origin','',(#42));
#42 = PRODUCT_CONTEXT('',#2,'mechanical');
#43 = PRODUCT_DEFINITION_CONTEXT('part definition',#2,'design');
#44 = MANIFOLD_SURFACE_SHAPE_REPRESENTATION('',(#11),#45);
#45 = ( GEOMETRIC_REPRESENTATION_CONTEXT(3) 
GLOBAL_UNCERTAINTY_ASSIGNED_CONTEXT((#49)) GLOBAL_UNIT_ASSIGNED_CONTEXT(
(#46,#47,#48)) REPRESENTATION_CONTEXT('Context #1',
  '3D Context with UNIT and UNCERTAINTY') );
#46 = ( LENGTH_UNIT() NAMED_UNIT(*) SI_UNIT(.MILLI.,.METRE.) );
#47 = ( NAMED_UNIT(*) PLANE_ANGLE_UNIT() SI_UNIT($,.RADIAN.) );
#48 = ( NAMED_UNIT(*) SI_UNIT($,.STERADIAN.) SOLID_ANGLE_UNIT() );
#49 = UNCERTAINTY_MEASURE_WITH_UNIT(LENGTH_MEASURE(1.E-07),#46,
  'distance_accuracy_value','confusion accuracy');
#50 = CONTEXT_DEPENDENT_SHAPE_REPRESENTATION(#51,#53);
#51 = ( REPRESENTATION_RELATIONSHIP('','',#44,#10) 
REPRESENTATION_RELATIONSHIP_WITH_TRANSFORMATION(#52) 
SHAPE_REPRESENTATION_RELATIONSHIP() );
#52 = ITEM_DEFINED_TRANSFORMATION('','',#11,#15);
#53 = PRODUCT_DEFINITION_SHAPE('Placement','Placement of an item',#54);
#54 = NEXT_ASSEMBLY_USAGE_OCCURRENCE('1','LCS_Origin','',#5,#39,$);
#55 = PRODUCT_RELATED_PRODUCT_CATEGORY('part',$,(#41));
#56 = SHAPE_DEFINITION_REPRESENTATION(#57,#63);
#57 = PRODUCT_DEFINITION_SHAPE('','',#58);
#58 = PRODUCT_DEFINITION('design','',#59,#62);
#59 = PRODUCT_DEFINITION_FORMATION('','',#60);
#60 = PRODUCT('NEO6M','NEO6M','',(#61));
#61 = PRODUCT_CONTEXT('',#2,'mechanical');
#62 = PRODUCT_DEFINITION_CONTEXT('part definition',#2,'design');
#63 = ADVANCED_BREP_SHAPE_REPRESENTATION('',(#11,#64),#370);
#64 = MANIFOLD_SOLID_BREP('',#65);
#65 = CLOSED_SHELL('',(#66,#106,#137,#168,#190,#223,#256,#289,#322,#346)
  );
#66 = ADVANCED_FACE('',(#67),#101,.F.);
#67 = FACE_BOUND('',#68,.F.);
#68 = EDGE_LOOP('',(#69,#79,#87,#95));
#69 = ORIENTED_EDGE('',*,*,#70,.T.);
#70 = EDGE_CURVE('',#71,#73,#75,.T.);
#71 = VERTEX_POINT('',#72);
#72 = CARTESIAN_POINT('',(-17.5,-12.5,0.));
#73 = VERTEX_POINT('',#74);
#74 = CARTESIAN_POINT('',(-17.5,-12.5,1.6));
#75 = LINE('',#76,#77);
#76 = CARTESIAN_POINT('',(-17.5,-12.5,0.));
#77 = VECTOR('',#78,1.);
#78 = DIRECTION('',(0.,0.,1.));
#79 = ORIENTED_EDGE('',*,*,#80,.T.);
#80 = EDGE_CURVE('',#73,#81,#83,.T.);
#81 = VERTEX_POINT('',#82);
#82 = CARTESIAN_POINT('',(17.5,-12.5,1.6));
#83 = LINE('',#84,#85);
#84 = CARTESIAN_POINT('',(-17.5,-12.5,1.6));
#85 = VECTOR('',#86,1.);
#86 = DIRECTION('',(1.,0.,0.));
#87 = ORIENTED_EDGE('',*,*,#88,.F.);
#88 = EDGE_CURVE('',#89,#81,#91,.T.);
#89 = VERTEX_POINT('',#90);
#90 = CARTESIAN_POINT('',(17.5,-12.5,0.));
#91 = LINE('',#92,#93);
#92 = CARTESIAN_POINT('',(17.5,-12.5,0.));
#93 = VECTOR('',#94,1.);
#94 = DIRECTION('',(0.,0.,1.));
#95 = ORIENTED_EDGE('',*,*,#96,.F.);
#96 = EDGE_CURVE('',#71,#89,#97,.T.);
#97 = LINE('',#98,#99);
#98 = CARTESIAN_POINT('',(-17.5,-12.5,0.));
#99 = VECTOR('',#100,1.);
#100 = DIRECTION('',(1.,0.,0.));
#101 = PLANE('',#102);
#102 = AXIS2_PLACEMENT_3D('',#103,#104,#105);
#103 = CARTESIAN_POINT('',(-17.5,-12.5,0.));
#104 = DIRECTION('',(0.,1.,0.));
#105 = DIRECTION('',(1.,0.,0.));
#106 = ADVANCED_FACE('',(#107),#132,.F.);
#107 = FACE_BOUND('',#108,.F.);
#108 = EDGE_LOOP('',(#109,#110,#118,#126));
#109 = ORIENTED_EDGE('',*,*,#88,.T.);
#110 = ORIENTED_EDGE('',*,*,#111,.T.);
#111 = EDGE_CURVE('',#81,#112,#114,.T.);
#112 = VERTEX_POINT('',#113);
#113 = CARTESIAN_POINT('',(17.5,12.5,1.6));
#114 = LINE('',#115,#116);
#115 = CARTESIAN_POINT('',(17.5,-12.5,1.6));
#116 = VECTOR('',#117,1.);
#117 = DIRECTION('',(0.,1.,0.));
#118 = ORIENTED_EDGE('',*,*,#119,.F.);
#119 = EDGE_CURVE('',#120,#112,#122,.T.);
#120 = VERTEX_POINT('',#121);
#121 = CARTESIAN_POINT('',(17.5,12.5,0.));
#122 = LINE('',#123,#124);
#123 = CARTESIAN_POINT('',(17.5,12.5,0.));
#124 = VECTOR('',#125,1.);
#125 = DIRECTION('',(0.,0.,1.));
#126 = ORIENTED_EDGE('',*,*,#127,.F.);
#127 = EDGE_CURVE('',#89,#120,#128,.T.);
#128 = LINE('',#129,#130);
#129 = CARTESIAN_POINT('',(17.5,-12.5,0.));
#130 = VECTOR('',#131,1.);
#131 = DIRECTION('',(0.,1.,0.));
#132 = PLANE('',#133);
#133 = AXIS2_PLACEMENT_3D('',#134,#135,#136);
#134 = CARTESIAN_POINT('',(17.5,-12.5,0.));
#135 = DIRECTION('',(-1.,0.,0.));
#136 = DIRECTION('',(0.,1.,0.));
#137 = ADVANCED_FACE('',(#138),#163,.F.);
#138 = FACE_BOUND('',#139,.F.);
#139 = EDGE_LOOP('',(#140,#141,#149,#157));
#140 = ORIENTED_EDGE('',*,*,#119,.T.);
#141 = ORIENTED_EDGE('',*,*,#142,.T.);
#142 = EDGE_CURVE('',#112,#143,#145,.T.);
#143 = VERTEX_POINT('',#144);
#144 = CARTESIAN_POINT('',(-17.5,12.5,1.6));
#145 = LINE('',#146,#147);
#146 = CARTESIAN_POINT('',(17.5,12.5,1.6));
#147 = VECTOR('',#148,1.);
#148 = DIRECTION('',(-1.,0.,0.));
#149 = ORIENTED_EDGE('',*,*,#150,.F.);
#150 = EDGE_CURVE('',#151,#143,#153,.T.);
#151 = VERTEX_POINT('',#152);
#152 = CARTESIAN_POINT('',(-17.5,12.5,0.));
#153 = LINE('',#154,#155);
#154 = CARTESIAN_POINT('',(-17.5,12.5,0.));
#155 = VECTOR('',#156,1.);
#156 = DIRECTION('',(0.,0.,1.));
#157 = ORIENTED_EDGE('',*,*,#158,.F.);
#158 = EDGE_CURVE('',#120,#151,#159,.T.);
#159 = LINE('',#160,#161);
#160 = CARTESIAN_POINT('',(17.5,12.5,0.));
#161 = VECTOR('',#162,1.);
#162 = DIRECTION('',(-1.,0.,0.));
#163 = PLANE('',#164);
#164 = AXIS2_PLACEMENT_3D('',#165,#166,#167);
#165 = CARTESIAN_POINT('',(17.5,12.5,0.));
#166 = DIRECTION('',(0.,-1.,0.));
#167 = DIRECTION('',(-1.,0.,0.));
#168 = ADVANCED_FACE('',(#169),#185,.F.);
#169 = FACE_BOUND('',#170,.F.);
#170 = EDGE_LOOP('',(#171,#172,#178,#179));
#171 = ORIENTED_EDGE('',*,*,#150,.T.);
#172 = ORIENTED_EDGE('',*,*,#173,.T.);
#173 = EDGE_CURVE('',#143,#73,#174,.T.);
#174 = LINE('',#175,#176);
#175 = CARTESIAN_POINT('',(-17.5,12.5,1.6));
#176 = VECTOR('',#177,1.);
#177 = DIRECTION('',(0.,-1.,0.));
#178 = ORIENTED_EDGE('',*,*,#70,.F.);
#179 = ORIENTED_EDGE('',*,*,#180,.F.);
#180 = EDGE_CURVE('',#151,#71,#181,.T.);
#181 = LINE('',#182,#183);
#182 = CARTESIAN_POINT('',(-17.5,12.5,0.));
#183 = VECTOR('',#184,1.);
#184 = DIRECTION('',(0.,-1.,0.));
#185 = PLANE('',#186);
#186 = AXIS2_PLACEMENT_3D('',#187,#188,#189);
#187 = CARTESIAN_POINT('',(-17.5,12.5,0.));
#188 = DIRECTION('',(1.,0.,0.));
#189 = DIRECTION('',(0.,-1.,0.));
#190 = ADVANCED_FACE('',(#191),#218,.F.);
#191 = FACE_BOUND('',#192,.T.);
#192 = EDGE_LOOP('',(#193,#203,#210,#211));
#193 = ORIENTED_EDGE('',*,*,#194,.T.);
#194 = EDGE_CURVE('',#195,#197,#199,.T.);
#195 = VERTEX_POINT('',#196);
#196 = CARTESIAN_POINT('',(-14.46,3.81,0.));
#197 = VERTEX_POINT('',#198);
#198 = CARTESIAN_POINT('',(-14.46,3.81,1.6));
#199 = LINE('',#200,#201);
#200 = CARTESIAN_POINT('',(-14.46,3.81,0.));
#201 = VECTOR('',#202,1.);
#202 = DIRECTION('',(0.,0.,1.));
#203 = ORIENTED_EDGE('',*,*,#204,.T.);
#204 = EDGE_CURVE('',#197,#197,#205,.T.);
#205 = CIRCLE('',#206,0.5);
#206 = AXIS2_PLACEMENT_3D('',#207,#208,#209);
#207 = CARTESIAN_POINT('',(-14.96,3.81,1.6));
#208 = DIRECTION('',(0.,0.,1.));
#209 = DIRECTION('',(1.,0.,0.));
#210 = ORIENTED_EDGE('',*,*,#194,.F.);
#211 = ORIENTED_EDGE('',*,*,#212,.F.);
#212 = EDGE_CURVE('',#195,#195,#213,.T.);
#213 = CIRCLE('',#214,0.5);
#214 = AXIS2_PLACEMENT_3D('',#215,#216,#217);
#215 = CARTESIAN_POINT('',(-14.96,3.81,0.));
#216 = DIRECTION('',(0.,0.,1.));
#217 = DIRECTION('',(1.,0.,0.));
#218 = CYLINDRICAL_SURFACE('',#219,0.5);
#219 = AXIS2_PLACEMENT_3D('',#220,#221,#222);
#220 = CARTESIAN_POINT('',(-14.96,3.81,0.));
#221 = DIRECTION('',(-0.,-0.,-1.));
#222 = DIRECTION('',(1.,0.,0.));
#223 = ADVANCED_FACE('',(#224),#251,.F.);
#224 = FACE_BOUND('',#225,.T.);
#225 = EDGE_LOOP('',(#226,#236,#243,#244));
#226 = ORIENTED_EDGE('',*,*,#227,.T.);
#227 = EDGE_CURVE('',#228,#230,#232,.T.);
#228 = VERTEX_POINT('',#229);
#229 = CARTESIAN_POINT('',(-14.46,-3.81,0.));
#230 = VERTEX_POINT('',#231);
#231 = CARTESIAN_POINT('',(-14.46,-3.81,1.6));
#232 = LINE('',#233,#234);
#233 = CARTESIAN_POINT('',(-14.46,-3.81,0.));
#234 = VECTOR('',#235,1.);
#235 = DIRECTION('',(0.,0.,1.));
#236 = ORIENTED_EDGE('',*,*,#237,.T.);
#237 = EDGE_CURVE('',#230,#230,#238,.T.);
#238 = CIRCLE('',#239,0.5);
#239 = AXIS2_PLACEMENT_3D('',#240,#241,#242);
#240 = CARTESIAN_POINT('',(-14.96,-3.81,1.6));
#241 = DIRECTION('',(0.,0.,1.));
#242 = DIRECTION('',(1.,0.,0.));
#243 = ORIENTED_EDGE('',*,*,#227,.F.);
#244 = ORIENTED_EDGE('',*,*,#245,.F.);
#245 = EDGE_CURVE('',#228,#228,#246,.T.);
#246 = CIRCLE('',#247,0.5);
#247 = AXIS2_PLACEMENT_3D('',#248,#249,#250);
#248 = CARTESIAN_POINT('',(-14.96,-3.81,0.));
#249 = DIRECTION('',(0.,0.,1.));
#250 = DIRECTION('',(1.,0.,0.));
#251 = CYLINDRICAL_SURFACE('',#252,0.5);
#252 = AXIS2_PLACEMENT_3D('',#253,#254,#255);
#253 = CARTESIAN_POINT('',(-14.96,-3.81,0.));
#254 = DIRECTION('',(-0.,-0.,-1.));
#255 = DIRECTION('',(1.,0.,0.));
#256 = ADVANCED_FACE('',(#257),#284,.F.);
#257 = FACE_BOUND('',#258,.T.);
#258 = EDGE_LOOP('',(#259,#269,#276,#277));
#259 = ORIENTED_EDGE('',*,*,#260,.T.);
#260 = EDGE_CURVE('',#261,#263,#265,.T.);
#261 = VERTEX_POINT('',#262);
#262 = CARTESIAN_POINT('',(-14.46,-1.27,0.));
#263 = VERTEX_POINT('',#264);
#264 = CARTESIAN_POINT('',(-14.46,-1.27,1.6));
#265 = LINE('',#266,#267);
#266 = CARTESIAN_POINT('',(-14.46,-1.27,0.));
#267 = VECTOR('',#268,1.);
#268 = DIRECTION('',(0.,0.,1.));
#269 = ORIENTED_EDGE('',*,*,#270,.T.);
#270 = EDGE_CURVE('',#263,#263,#271,.T.);
#271 = CIRCLE('',#272,0.5);
#272 = AXIS2_PLACEMENT_3D('',#273,#274,#275);
#273 = CARTESIAN_POINT('',(-14.96,-1.27,1.6));
#274 = DIRECTION('',(0.,0.,1.));
#275 = DIRECTION('',(1.,0.,0.));
#276 = ORIENTED_EDGE('',*,*,#260,.F.);
#277 = ORIENTED_EDGE('',*,*,#278,.F.);
#278 = EDGE_CURVE('',#261,#261,#279,.T.);
#279 = CIRCLE('',#280,0.5);
#280 = AXIS2_PLACEMENT_3D('',#281,#282,#283);
#281 = CARTESIAN_POINT('',(-14.96,-1.27,0.));
#282 = DIRECTION('',(0.,0.,1.));
#283 = DIRECTION('',(1.,0.,0.));
#284 = CYLINDRICAL_SURFACE('',#285,0.5);
#285 = AXIS2_PLACEMENT_3D('',#286,#287,#288);
#286 = CARTESIAN_POINT('',(-14.96,-1.27,0.));
#287 = DIRECTION('',(-0.,-0.,-1.));
#288 = DIRECTION('',(1.,0.,0.));
#289 = ADVANCED_FACE('',(#290),#317,.F.);
#290 = FACE_BOUND('',#291,.T.);
#291 = EDGE_LOOP('',(#292,#302,#309,#310));
#292 = ORIENTED_EDGE('',*,*,#293,.T.);
#293 = EDGE_CURVE('',#294,#296,#298,.T.);
#294 = VERTEX_POINT('',#295);
#295 = CARTESIAN_POINT('',(-14.46,1.27,0.));
#296 = VERTEX_POINT('',#297);
#297 = CARTESIAN_POINT('',(-14.46,1.27,1.6));
#298 = LINE('',#299,#300);
#299 = CARTESIAN_POINT('',(-14.46,1.27,0.));
#300 = VECTOR('',#301,1.);
#301 = DIRECTION('',(0.,0.,1.));
#302 = ORIENTED_EDGE('',*,*,#303,.T.);
#303 = EDGE_CURVE('',#296,#296,#304,.T.);
#304 = CIRCLE('',#305,0.5);
#305 = AXIS2_PLACEMENT_3D('',#306,#307,#308);
#306 = CARTESIAN_POINT('',(-14.96,1.27,1.6));
#307 = DIRECTION('',(0.,0.,1.));
#308 = DIRECTION('',(1.,0.,0.));
#309 = ORIENTED_EDGE('',*,*,#293,.F.);
#310 = ORIENTED_EDGE('',*,*,#311,.F.);
#311 = EDGE_CURVE('',#294,#294,#312,.T.);
#312 = CIRCLE('',#313,0.5);
#313 = AXIS2_PLACEMENT_3D('',#314,#315,#316);
#314 = CARTESIAN_POINT('',(-14.96,1.27,0.));
#315 = DIRECTION('',(0.,0.,1.));
#316 = DIRECTION('',(1.,0.,0.));
#317 = CYLINDRICAL_SURFACE('',#318,0.5);
#318 = AXIS2_PLACEMENT_3D('',#319,#320,#321);
#319 = CARTESIAN_POINT('',(-14.96,1.27,0.));
#320 = DIRECTION('',(-0.,-0.,-1.));
#321 = DIRECTION('',(1.,0.,0.));
#322 = ADVANCED_FACE('',(#323,#329,#332,#335,#338),#341,.F.);
#323 = FACE_BOUND('',#324,.F.);
#324 = EDGE_LOOP('',(#325,#326,#327,#328));
#325 = ORIENTED_EDGE('',*,*,#96,.T.);
#326 = ORIENTED_EDGE('',*,*,#127,.T.);
#327 = ORIENTED_EDGE('',*,*,#158,.T.);
#328 = ORIENTED_EDGE('',*,*,#180,.T.);
#329 = FACE_BOUND('',#330,.T.);
#330 = EDGE_LOOP('',(#331));
#331 = ORIENTED_EDGE('',*,*,#212,.T.);
#332 = FACE_BOUND('',#333,.T.);
#333 = EDGE_LOOP('',(#334));
#334 = ORIENTED_EDGE('',*,*,#245,.T.);
#335 = FACE_BOUND('',#336,.T.);
#336 = EDGE_LOOP('',(#337));
#337 = ORIENTED_EDGE('',*,*,#278,.T.);
#338 = FACE_BOUND('',#339,.T.);
#339 = EDGE_LOOP('',(#340));
#340 = ORIENTED_EDGE('',*,*,#311,.T.);
#341 = PLANE('',#342);
#342 = AXIS2_PLACEMENT_3D('',#343,#344,#345);
#343 = CARTESIAN_POINT('',(-1.192316376888,1.743766058226E-15,0.));
#344 = DIRECTION('',(0.,0.,1.));
#345 = DIRECTION('',(1.,0.,0.));
#346 = ADVANCED_FACE('',(#347,#353,#356,#359,#362),#365,.T.);
#347 = FACE_BOUND('',#348,.T.);
#348 = EDGE_LOOP('',(#349,#350,#351,#352));
#349 = ORIENTED_EDGE('',*,*,#80,.T.);
#350 = ORIENTED_EDGE('',*,*,#111,.T.);
#351 = ORIENTED_EDGE('',*,*,#142,.T.);
#352 = ORIENTED_EDGE('',*,*,#173,.T.);
#353 = FACE_BOUND('',#354,.F.);
#354 = EDGE_LOOP('',(#355));
#355 = ORIENTED_EDGE('',*,*,#204,.T.);
#356 = FACE_BOUND('',#357,.F.);
#357 = EDGE_LOOP('',(#358));
#358 = ORIENTED_EDGE('',*,*,#237,.T.);
#359 = FACE_BOUND('',#360,.F.);
#360 = EDGE_LOOP('',(#361));
#361 = ORIENTED_EDGE('',*,*,#270,.T.);
#362 = FACE_BOUND('',#363,.F.);
#363 = EDGE_LOOP('',(#364));
#364 = ORIENTED_EDGE('',*,*,#303,.T.);
#365 = PLANE('',#366);
#366 = AXIS2_PLACEMENT_3D('',#367,#368,#369);
#367 = CARTESIAN_POINT('',(-1.192316376888,1.743766058226E-15,1.6));
#368 = DIRECTION('',(0.,0.,1.));
#369 = DIRECTION('',(1.,0.,0.));
#370 = ( GEOMETRIC_REPRESENTATION_CONTEXT(3) 
GLOBAL_UNCERTAINTY_ASSIGNED_CONTEXT((#374)) GLOBAL_UNIT_ASSIGNED_CONTEXT
((#371,#372,#373)) REPRESENTATION_CONTEXT('Context #1',
  '3D Context with UNIT and UNCERTAINTY') );
#371 = ( LENGTH_UNIT() NAMED_UNIT(*) SI_UNIT(.MILLI.,.METRE.) );
#372 = ( NAMED_UNIT(*) PLANE_ANGLE_UNIT() SI_UNIT($,.RADIAN.) );
#373 = ( NAMED_UNIT(*) SI_UNIT($,.STERADIAN.) SOLID_ANGLE_UNIT() );
#374 = UNCERTAINTY_MEASURE_WITH_UNIT(LENGTH_MEASURE(1.E-07),#371,
  'distance_accuracy_value','confusion accuracy');
#375 = CONTEXT_DEPENDENT_SHAPE_REPRESENTATION(#376,#378);
#376 = ( REPRESENTATION_RELATIONSHIP('','',#63,#10) 
REPRESENTATION_RELATIONSHIP_WITH_TRANSFORMATION(#377) 
SHAPE_REPRESENTATION_RELATIONSHIP() );
#377 = ITEM_DEFINED_TRANSFORMATION('','',#11,#19);
#378 = PRODUCT_DEFINITION_SHAPE('Placement','Placement of an item',#379
  );
#379 = NEXT_ASSEMBLY_USAGE_OCCURRENCE('2','Cuerpo001','',#5,#58,$);
#380 = PRODUCT_RELATED_PRODUCT_CATEGORY('part',$,(#60));
#381 = SHAPE_DEFINITION_REPRESENTATION(#382,#388);
#382 = PRODUCT_DEFINITION_SHAPE('','',#383);
#383 = PRODUCT_DEFINITION('design','',#384,#387);
#384 = PRODUCT_DEFINITION_FORMATION('','',#385);
#385 = PRODUCT('Assembly','Assembly','',(#386));
#386 = PRODUCT_CONTEXT('',#2,'mechanical');
#387 = PRODUCT_DEFINITION_CONTEXT('part definition',#2,'design');
#388 = SHAPE_REPRESENTATION('',(#11,#389,#393,#397,#401,#405,#409,#413,
    #417,#421,#425,#429),#433);
#389 = AXIS2_PLACEMENT_3D('',#390,#391,#392);
#390 = CARTESIAN_POINT('',(0.,0.,0.));
#391 = DIRECTION('',(0.,0.,1.));
#392 = DIRECTION('',(1.,0.,0.));
#393 = AXIS2_PLACEMENT_3D('',#394,#395,#396);
#394 = CARTESIAN_POINT('',(0.,1.3E-15,-2.5));
#395 = DIRECTION('',(0.,0.,1.));
#396 = DIRECTION('',(1.,0.,0.));
#397 = AXIS2_PLACEMENT_3D('',#398,#399,#400);
#398 = CARTESIAN_POINT('',(0.,0.,0.));
#399 = DIRECTION('',(0.,0.,1.));
#400 = DIRECTION('',(1.,0.,0.));
#401 = AXIS2_PLACEMENT_3D('',#402,#403,#404);
#402 = CARTESIAN_POINT('',(0.,2.54,0.));
#403 = DIRECTION('',(0.,0.,1.));
#404 = DIRECTION('',(1.,0.,0.));
#405 = AXIS2_PLACEMENT_3D('',#406,#407,#408);
#406 = CARTESIAN_POINT('',(0.,0.,0.));
#407 = DIRECTION('',(0.,0.,1.));
#408 = DIRECTION('',(1.,0.,0.));
#409 = AXIS2_PLACEMENT_3D('',#410,#411,#412);
#410 = CARTESIAN_POINT('',(0.,-2.54,0.));
#411 = DIRECTION('',(0.,0.,1.));
#412 = DIRECTION('',(1.,0.,0.));
#413 = AXIS2_PLACEMENT_3D('',#414,#415,#416);
#414 = CARTESIAN_POINT('',(0.,-5.08,0.));
#415 = DIRECTION('',(0.,0.,1.));
#416 = DIRECTION('',(1.,0.,0.));
#417 = AXIS2_PLACEMENT_3D('',#418,#419,#420);
#418 = CARTESIAN_POINT('',(4.E-16,2.54,-5.5));
#419 = DIRECTION('',(1.224646799147E-16,1.224646799147E-32,-1.));
#420 = DIRECTION('',(-1.,-2.E-16,-1.224646799147E-16));
#421 = AXIS2_PLACEMENT_3D('',#422,#423,#424);
#422 = CARTESIAN_POINT('',(4.E-16,0.,-5.5));
#423 = DIRECTION('',(1.224646799147E-16,1.224646799147E-32,-1.));
#424 = DIRECTION('',(-1.,-2.E-16,-1.224646799147E-16));
#425 = AXIS2_PLACEMENT_3D('',#426,#427,#428);
#426 = CARTESIAN_POINT('',(4.E-16,-2.54,-5.5));
#427 = DIRECTION('',(2.E-16,-1.224646799147E-16,-1.));
#428 = DIRECTION('',(1.,1.224646799147E-32,2.E-16));
#429 = AXIS2_PLACEMENT_3D('',#430,#431,#432);
#430 = CARTESIAN_POINT('',(4.E-16,-5.08,-5.5));
#431 = DIRECTION('',(1.224646799147E-16,-1.224646799147E-32,-1.));
#432 = DIRECTION('',(-1.,2.E-16,-1.224646799147E-16));
#433 = ( GEOMETRIC_REPRESENTATION_CONTEXT(3) 
GLOBAL_UNCERTAINTY_ASSIGNED_CONTEXT((#437)) GLOBAL_UNIT_ASSIGNED_CONTEXT
((#434,#435,#436)) REPRESENTATION_CONTEXT('Context #1',
  '3D Context with UNIT and UNCERTAINTY') );
#434 = ( LENGTH_UNIT() NAMED_UNIT(*) SI_UNIT(.MILLI.,.METRE.) );
#435 = ( NAMED_UNIT(*) PLANE_ANGLE_UNIT() SI_UNIT($,.RADIAN.) );
#436 = ( NAMED_UNIT(*) SI_UNIT($,.STERADIAN.) SOLID_ANGLE_UNIT() );
#437 = UNCERTAINTY_MEASURE_WITH_UNIT(LENGTH_MEASURE(2.E-06),#434,
  'distance_accuracy_value','confusion accuracy');
#438 = CONTEXT_DEPENDENT_SHAPE_REPRESENTATION(#439,#441);
#439 = ( REPRESENTATION_RELATIONSHIP('','',#388,#10) 
REPRESENTATION_RELATIONSHIP_WITH_TRANSFORMATION(#440) 
SHAPE_REPRESENTATION_RELATIONSHIP() );
#440 = ITEM_DEFINED_TRANSFORMATION('','',#11,#23);
#441 = PRODUCT_DEFINITION_SHAPE('Placement','Placement of an item',#442
  );
#442 = NEXT_ASSEMBLY_USAGE_OCCURRENCE('14','Pin_Header___copia','',#5,
  #383,$);
#443 = PRODUCT_RELATED_PRODUCT_CATEGORY('part',$,(#385));
#444 = SHAPE_DEFINITION_REPRESENTATION(#445,#451);
#445 = PRODUCT_DEFINITION_SHAPE('','',#446);
#446 = PRODUCT_DEFINITION('design','',#447,#450);
#447 = PRODUCT_DEFINITION_FORMATION('','',#448);
#448 = PRODUCT('LCS_Origin','LCS_Origin','',(#449));
#449 = PRODUCT_CONTEXT('',#2,'mechanical');
#450 = PRODUCT_DEFINITION_CONTEXT('part definition',#2,'design');
#451 = MANIFOLD_SURFACE_SHAPE_REPRESENTATION('',(#11),#452);
#452 = ( GEOMETRIC_REPRESENTATION_CONTEXT(3) 
GLOBAL_UNCERTAINTY_ASSIGNED_CONTEXT((#456)) GLOBAL_UNIT_ASSIGNED_CONTEXT
((#453,#454,#455)) REPRESENTATION_CONTEXT('Context #1',
  '3D Context with UNIT and UNCERTAINTY') );
#453 = ( LENGTH_UNIT() NAMED_UNIT(*) SI_UNIT(.MILLI.,.METRE.) );
#454 = ( NAMED_UNIT(*) PLANE_ANGLE_UNIT() SI_UNIT($,.RADIAN.) );
#455 = ( NAMED_UNIT(*) SI_UNIT($,.STERADIAN.) SOLID_ANGLE_UNIT() );
#456 = UNCERTAINTY_MEASURE_WITH_UNIT(LENGTH_MEASURE(1.E-07),#453,
  'distance_accuracy_value','confusion accuracy');
#457 = CONTEXT_DEPENDENT_SHAPE_REPRESENTATION(#458,#460);
#458 = ( REPRESENTATION_RELATIONSHIP('','',#451,#388) 
REPRESENTATION_RELATIONSHIP_WITH_TRANSFORMATION(#459) 
SHAPE_REPRESENTATION_RELATIONSHIP() );
#459 = ITEM_DEFINED_TRANSFORMATION('','',#11,#389);
#460 = PRODUCT_DEFINITION_SHAPE('Placement','Placement of an item',#461
  );
#461 = NEXT_ASSEMBLY_USAGE_OCCURRENCE('3','LCS_Origin','',#383,#446,$);
#462 = PRODUCT_RELATED_PRODUCT_CATEGORY('part',$,(#448));
#463 = SHAPE_DEFINITION_REPRESENTATION(#464,#470);
#464 = PRODUCT_DEFINITION_SHAPE('','',#465);
#465 = PRODUCT_DEFINITION('design','',#466,#469);
#466 = PRODUCT_DEFINITION_FORMATION('','',#467);
#467 = PRODUCT('Parte plastica','Parte plastica','',(#468));
#468 = PRODUCT_CONTEXT('',#2,'mechanical');
#469 = PRODUCT_DEFINITION_CONTEXT('part definition',#2,'design');
#470 = ADVANCED_BREP_SHAPE_REPRESENTATION('',(#11,#471),#1347);
#471 = MANIFOLD_SOLID_BREP('',#472);
#472 = CLOSED_SHELL('',(#473,#689,#720,#744,#768,#792,#816,#840,#864,
    #888,#912,#936,#960,#984,#1008,#1032,#1056,#1080,#1104,#1128,#1152,
    #1176,#1200,#1224,#1248,#1272,#1296,#1313));
#473 = ADVANCED_FACE('',(#474),#684,.F.);
#474 = FACE_BOUND('',#475,.F.);
#475 = EDGE_LOOP('',(#476,#486,#494,#502,#510,#518,#526,#534,#542,#550,
    #558,#566,#574,#582,#590,#598,#606,#614,#622,#630,#638,#646,#654,
    #662,#670,#678));
#476 = ORIENTED_EDGE('',*,*,#477,.F.);
#477 = EDGE_CURVE('',#478,#480,#482,.T.);
#478 = VERTEX_POINT('',#479);
#479 = CARTESIAN_POINT('',(-0.75,3.81,0.));
#480 = VERTEX_POINT('',#481);
#481 = CARTESIAN_POINT('',(0.75,3.81,0.));
#482 = LINE('',#483,#484);
#483 = CARTESIAN_POINT('',(-12.3843515,3.81,0.));
#484 = VECTOR('',#485,1.);
#485 = DIRECTION('',(1.,0.,0.));
#486 = ORIENTED_EDGE('',*,*,#487,.T.);
#487 = EDGE_CURVE('',#478,#488,#490,.T.);
#488 = VERTEX_POINT('',#489);
#489 = CARTESIAN_POINT('',(-1.25,3.31,0.));
#490 = LINE('',#491,#492);
#491 = CARTESIAN_POINT('',(-0.75,3.81,0.));
#492 = VECTOR('',#493,1.);
#493 = DIRECTION('',(-0.707106781187,-0.707106781187,0.));
#494 = ORIENTED_EDGE('',*,*,#495,.T.);
#495 = EDGE_CURVE('',#488,#496,#498,.T.);
#496 = VERTEX_POINT('',#497);
#497 = CARTESIAN_POINT('',(-1.25,1.77,0.));
#498 = LINE('',#499,#500);
#499 = CARTESIAN_POINT('',(-1.25,3.31,0.));
#500 = VECTOR('',#501,1.);
#501 = DIRECTION('',(0.,-1.,0.));
#502 = ORIENTED_EDGE('',*,*,#503,.T.);
#503 = EDGE_CURVE('',#496,#504,#506,.T.);
#504 = VERTEX_POINT('',#505);
#505 = CARTESIAN_POINT('',(-0.75,1.27,0.));
#506 = LINE('',#507,#508);
#507 = CARTESIAN_POINT('',(-1.25,1.77,0.));
#508 = VECTOR('',#509,1.);
#509 = DIRECTION('',(0.707106781187,-0.707106781187,0.));
#510 = ORIENTED_EDGE('',*,*,#511,.T.);
#511 = EDGE_CURVE('',#504,#512,#514,.T.);
#512 = VERTEX_POINT('',#513);
#513 = CARTESIAN_POINT('',(-1.25,0.77,0.));
#514 = LINE('',#515,#516);
#515 = CARTESIAN_POINT('',(-0.75,1.27,0.));
#516 = VECTOR('',#517,1.);
#517 = DIRECTION('',(-0.707106781187,-0.707106781187,0.));
#518 = ORIENTED_EDGE('',*,*,#519,.T.);
#519 = EDGE_CURVE('',#512,#520,#522,.T.);
#520 = VERTEX_POINT('',#521);
#521 = CARTESIAN_POINT('',(-1.25,-0.77,0.));
#522 = LINE('',#523,#524);
#523 = CARTESIAN_POINT('',(-1.25,0.77,0.));
#524 = VECTOR('',#525,1.);
#525 = DIRECTION('',(0.,-1.,0.));
#526 = ORIENTED_EDGE('',*,*,#527,.T.);
#527 = EDGE_CURVE('',#520,#528,#530,.T.);
#528 = VERTEX_POINT('',#529);
#529 = CARTESIAN_POINT('',(-0.75,-1.27,0.));
#530 = LINE('',#531,#532);
#531 = CARTESIAN_POINT('',(-1.25,-0.77,0.));
#532 = VECTOR('',#533,1.);
#533 = DIRECTION('',(0.707106781187,-0.707106781187,0.));
#534 = ORIENTED_EDGE('',*,*,#535,.T.);
#535 = EDGE_CURVE('',#528,#536,#538,.T.);
#536 = VERTEX_POINT('',#537);
#537 = CARTESIAN_POINT('',(-1.25,-1.77,0.));
#538 = LINE('',#539,#540);
#539 = CARTESIAN_POINT('',(-0.75,-1.27,0.));
#540 = VECTOR('',#541,1.);
#541 = DIRECTION('',(-0.707106781187,-0.707106781187,0.));
#542 = ORIENTED_EDGE('',*,*,#543,.T.);
#543 = EDGE_CURVE('',#536,#544,#546,.T.);
#544 = VERTEX_POINT('',#545);
#545 = CARTESIAN_POINT('',(-1.25,-3.31,0.));
#546 = LINE('',#547,#548);
#547 = CARTESIAN_POINT('',(-1.25,-1.77,0.));
#548 = VECTOR('',#549,1.);
#549 = DIRECTION('',(0.,-1.,0.));
#550 = ORIENTED_EDGE('',*,*,#551,.T.);
#551 = EDGE_CURVE('',#544,#552,#554,.T.);
#552 = VERTEX_POINT('',#553);
#553 = CARTESIAN_POINT('',(-0.75,-3.81,0.));
#554 = LINE('',#555,#556);
#555 = CARTESIAN_POINT('',(-1.25,-3.31,0.));
#556 = VECTOR('',#557,1.);
#557 = DIRECTION('',(0.707106781187,-0.707106781187,0.));
#558 = ORIENTED_EDGE('',*,*,#559,.T.);
#559 = EDGE_CURVE('',#552,#560,#562,.T.);
#560 = VERTEX_POINT('',#561);
#561 = CARTESIAN_POINT('',(-1.25,-4.31,0.));
#562 = LINE('',#563,#564);
#563 = CARTESIAN_POINT('',(-0.75,-3.81,0.));
#564 = VECTOR('',#565,1.);
#565 = DIRECTION('',(-0.707106781187,-0.707106781187,0.));
#566 = ORIENTED_EDGE('',*,*,#567,.T.);
#567 = EDGE_CURVE('',#560,#568,#570,.T.);
#568 = VERTEX_POINT('',#569);
#569 = CARTESIAN_POINT('',(-1.25,-5.85,0.));
#570 = LINE('',#571,#572);
#571 = CARTESIAN_POINT('',(-1.25,-4.31,0.));
#572 = VECTOR('',#573,1.);
#573 = DIRECTION('',(0.,-1.,0.));
#574 = ORIENTED_EDGE('',*,*,#575,.T.);
#575 = EDGE_CURVE('',#568,#576,#578,.T.);
#576 = VERTEX_POINT('',#577);
#577 = CARTESIAN_POINT('',(-0.75,-6.35,0.));
#578 = LINE('',#579,#580);
#579 = CARTESIAN_POINT('',(-1.25,-5.85,0.));
#580 = VECTOR('',#581,1.);
#581 = DIRECTION('',(0.707106781187,-0.707106781187,0.));
#582 = ORIENTED_EDGE('',*,*,#583,.F.);
#583 = EDGE_CURVE('',#584,#576,#586,.T.);
#584 = VERTEX_POINT('',#585);
#585 = CARTESIAN_POINT('',(0.75,-6.35,0.));
#586 = LINE('',#587,#588);
#587 = CARTESIAN_POINT('',(10.7914885,-6.35,0.));
#588 = VECTOR('',#589,1.);
#589 = DIRECTION('',(-1.,0.,0.));
#590 = ORIENTED_EDGE('',*,*,#591,.T.);
#591 = EDGE_CURVE('',#584,#592,#594,.T.);
#592 = VERTEX_POINT('',#593);
#593 = CARTESIAN_POINT('',(1.25,-5.85,0.));
#594 = LINE('',#595,#596);
#595 = CARTESIAN_POINT('',(0.75,-6.35,0.));
#596 = VECTOR('',#597,1.);
#597 = DIRECTION('',(0.707106781187,0.707106781187,0.));
#598 = ORIENTED_EDGE('',*,*,#599,.T.);
#599 = EDGE_CURVE('',#592,#600,#602,.T.);
#600 = VERTEX_POINT('',#601);
#601 = CARTESIAN_POINT('',(1.25,-4.31,0.));
#602 = LINE('',#603,#604);
#603 = CARTESIAN_POINT('',(1.25,-5.85,0.));
#604 = VECTOR('',#605,1.);
#605 = DIRECTION('',(0.,1.,0.));
#606 = ORIENTED_EDGE('',*,*,#607,.T.);
#607 = EDGE_CURVE('',#600,#608,#610,.T.);
#608 = VERTEX_POINT('',#609);
#609 = CARTESIAN_POINT('',(0.75,-3.81,0.));
#610 = LINE('',#611,#612);
#611 = CARTESIAN_POINT('',(1.25,-4.31,0.));
#612 = VECTOR('',#613,1.);
#613 = DIRECTION('',(-0.707106781187,0.707106781187,0.));
#614 = ORIENTED_EDGE('',*,*,#615,.T.);
#615 = EDGE_CURVE('',#608,#616,#618,.T.);
#616 = VERTEX_POINT('',#617);
#617 = CARTESIAN_POINT('',(1.25,-3.31,0.));
#618 = LINE('',#619,#620);
#619 = CARTESIAN_POINT('',(0.75,-3.81,0.));
#620 = VECTOR('',#621,1.);
#621 = DIRECTION('',(0.707106781187,0.707106781187,0.));
#622 = ORIENTED_EDGE('',*,*,#623,.T.);
#623 = EDGE_CURVE('',#616,#624,#626,.T.);
#624 = VERTEX_POINT('',#625);
#625 = CARTESIAN_POINT('',(1.25,-1.77,0.));
#626 = LINE('',#627,#628);
#627 = CARTESIAN_POINT('',(1.25,-3.31,0.));
#628 = VECTOR('',#629,1.);
#629 = DIRECTION('',(0.,1.,0.));
#630 = ORIENTED_EDGE('',*,*,#631,.T.);
#631 = EDGE_CURVE('',#624,#632,#634,.T.);
#632 = VERTEX_POINT('',#633);
#633 = CARTESIAN_POINT('',(0.75,-1.27,0.));
#634 = LINE('',#635,#636);
#635 = CARTESIAN_POINT('',(1.25,-1.77,0.));
#636 = VECTOR('',#637,1.);
#637 = DIRECTION('',(-0.707106781187,0.707106781187,0.));
#638 = ORIENTED_EDGE('',*,*,#639,.T.);
#639 = EDGE_CURVE('',#632,#640,#642,.T.);
#640 = VERTEX_POINT('',#641);
#641 = CARTESIAN_POINT('',(1.25,-0.77,0.));
#642 = LINE('',#643,#644);
#643 = CARTESIAN_POINT('',(0.75,-1.27,0.));
#644 = VECTOR('',#645,1.);
#645 = DIRECTION('',(0.707106781187,0.707106781187,0.));
#646 = ORIENTED_EDGE('',*,*,#647,.T.);
#647 = EDGE_CURVE('',#640,#648,#650,.T.);
#648 = VERTEX_POINT('',#649);
#649 = CARTESIAN_POINT('',(1.25,0.77,0.));
#650 = LINE('',#651,#652);
#651 = CARTESIAN_POINT('',(1.25,-0.77,0.));
#652 = VECTOR('',#653,1.);
#653 = DIRECTION('',(0.,1.,0.));
#654 = ORIENTED_EDGE('',*,*,#655,.T.);
#655 = EDGE_CURVE('',#648,#656,#658,.T.);
#656 = VERTEX_POINT('',#657);
#657 = CARTESIAN_POINT('',(0.75,1.27,0.));
#658 = LINE('',#659,#660);
#659 = CARTESIAN_POINT('',(1.25,0.77,0.));
#660 = VECTOR('',#661,1.);
#661 = DIRECTION('',(-0.707106781187,0.707106781187,0.));
#662 = ORIENTED_EDGE('',*,*,#663,.T.);
#663 = EDGE_CURVE('',#656,#664,#666,.T.);
#664 = VERTEX_POINT('',#665);
#665 = CARTESIAN_POINT('',(1.25,1.77,0.));
#666 = LINE('',#667,#668);
#667 = CARTESIAN_POINT('',(0.75,1.27,0.));
#668 = VECTOR('',#669,1.);
#669 = DIRECTION('',(0.707106781187,0.707106781187,0.));
#670 = ORIENTED_EDGE('',*,*,#671,.T.);
#671 = EDGE_CURVE('',#664,#672,#674,.T.);
#672 = VERTEX_POINT('',#673);
#673 = CARTESIAN_POINT('',(1.25,3.31,0.));
#674 = LINE('',#675,#676);
#675 = CARTESIAN_POINT('',(1.25,1.77,0.));
#676 = VECTOR('',#677,1.);
#677 = DIRECTION('',(0.,1.,0.));
#678 = ORIENTED_EDGE('',*,*,#679,.T.);
#679 = EDGE_CURVE('',#672,#480,#680,.T.);
#680 = LINE('',#681,#682);
#681 = CARTESIAN_POINT('',(1.25,3.31,0.));
#682 = VECTOR('',#683,1.);
#683 = DIRECTION('',(-0.707106781187,0.707106781187,0.));
#684 = PLANE('',#685);
#685 = AXIS2_PLACEMENT_3D('',#686,#687,#688);
#686 = CARTESIAN_POINT('',(5.E-17,1.17E-15,0.));
#687 = DIRECTION('',(0.,0.,1.));
#688 = DIRECTION('',(1.,0.,0.));
#689 = ADVANCED_FACE('',(#690),#715,.F.);
#690 = FACE_BOUND('',#691,.F.);
#691 = EDGE_LOOP('',(#692,#702,#708,#709));
#692 = ORIENTED_EDGE('',*,*,#693,.F.);
#693 = EDGE_CURVE('',#694,#696,#698,.T.);
#694 = VERTEX_POINT('',#695);
#695 = CARTESIAN_POINT('',(-0.75,3.81,2.5));
#696 = VERTEX_POINT('',#697);
#697 = CARTESIAN_POINT('',(0.75,3.81,2.5));
#698 = LINE('',#699,#700);
#699 = CARTESIAN_POINT('',(-24.768703,3.81,2.5));
#700 = VECTOR('',#701,1.);
#701 = DIRECTION('',(1.,0.,0.));
#702 = ORIENTED_EDGE('',*,*,#703,.F.);
#703 = EDGE_CURVE('',#478,#694,#704,.T.);
#704 = LINE('',#705,#706);
#705 = CARTESIAN_POINT('',(-0.75,3.81,0.));
#706 = VECTOR('',#707,1.);
#707 = DIRECTION('',(0.,0.,1.));
#708 = ORIENTED_EDGE('',*,*,#477,.T.);
#709 = ORIENTED_EDGE('',*,*,#710,.T.);
#710 = EDGE_CURVE('',#480,#696,#711,.T.);
#711 = LINE('',#712,#713);
#712 = CARTESIAN_POINT('',(0.75,3.81,0.));
#713 = VECTOR('',#714,1.);
#714 = DIRECTION('',(0.,0.,1.));
#715 = PLANE('',#716);
#716 = AXIS2_PLACEMENT_3D('',#717,#718,#719);
#717 = CARTESIAN_POINT('',(-24.768703,3.81,2.5));
#718 = DIRECTION('',(0.,-1.,0.));
#719 = DIRECTION('',(1.,0.,0.));
#720 = ADVANCED_FACE('',(#721),#739,.F.);
#721 = FACE_BOUND('',#722,.F.);
#722 = EDGE_LOOP('',(#723,#731,#737,#738));
#723 = ORIENTED_EDGE('',*,*,#724,.T.);
#724 = EDGE_CURVE('',#672,#725,#727,.T.);
#725 = VERTEX_POINT('',#726);
#726 = CARTESIAN_POINT('',(1.25,3.31,2.5));
#727 = LINE('',#728,#729);
#728 = CARTESIAN_POINT('',(1.25,3.31,0.));
#729 = VECTOR('',#730,1.);
#730 = DIRECTION('',(0.,0.,1.));
#731 = ORIENTED_EDGE('',*,*,#732,.T.);
#732 = EDGE_CURVE('',#725,#696,#733,.T.);
#733 = LINE('',#734,#735);
#734 = CARTESIAN_POINT('',(1.25,3.31,2.5));
#735 = VECTOR('',#736,1.);
#736 = DIRECTION('',(-0.707106781187,0.707106781187,0.));
#737 = ORIENTED_EDGE('',*,*,#710,.F.);
#738 = ORIENTED_EDGE('',*,*,#679,.F.);
#739 = PLANE('',#740);
#740 = AXIS2_PLACEMENT_3D('',#741,#742,#743);
#741 = CARTESIAN_POINT('',(1.25,3.31,0.));
#742 = DIRECTION('',(-0.707106781187,-0.707106781187,0.));
#743 = DIRECTION('',(-0.707106781187,0.707106781187,0.));
#744 = ADVANCED_FACE('',(#745),#763,.F.);
#745 = FACE_BOUND('',#746,.F.);
#746 = EDGE_LOOP('',(#747,#755,#761,#762));
#747 = ORIENTED_EDGE('',*,*,#748,.T.);
#748 = EDGE_CURVE('',#664,#749,#751,.T.);
#749 = VERTEX_POINT('',#750);
#750 = CARTESIAN_POINT('',(1.25,1.77,2.5));
#751 = LINE('',#752,#753);
#752 = CARTESIAN_POINT('',(1.25,1.77,0.));
#753 = VECTOR('',#754,1.);
#754 = DIRECTION('',(0.,0.,1.));
#755 = ORIENTED_EDGE('',*,*,#756,.T.);
#756 = EDGE_CURVE('',#749,#725,#757,.T.);
#757 = LINE('',#758,#759);
#758 = CARTESIAN_POINT('',(1.25,1.77,2.5));
#759 = VECTOR('',#760,1.);
#760 = DIRECTION('',(0.,1.,0.));
#761 = ORIENTED_EDGE('',*,*,#724,.F.);
#762 = ORIENTED_EDGE('',*,*,#671,.F.);
#763 = PLANE('',#764);
#764 = AXIS2_PLACEMENT_3D('',#765,#766,#767);
#765 = CARTESIAN_POINT('',(1.25,1.77,0.));
#766 = DIRECTION('',(-1.,0.,0.));
#767 = DIRECTION('',(0.,1.,0.));
#768 = ADVANCED_FACE('',(#769),#787,.F.);
#769 = FACE_BOUND('',#770,.F.);
#770 = EDGE_LOOP('',(#771,#779,#785,#786));
#771 = ORIENTED_EDGE('',*,*,#772,.T.);
#772 = EDGE_CURVE('',#656,#773,#775,.T.);
#773 = VERTEX_POINT('',#774);
#774 = CARTESIAN_POINT('',(0.75,1.27,2.5));
#775 = LINE('',#776,#777);
#776 = CARTESIAN_POINT('',(0.75,1.27,0.));
#777 = VECTOR('',#778,1.);
#778 = DIRECTION('',(0.,0.,1.));
#779 = ORIENTED_EDGE('',*,*,#780,.T.);
#780 = EDGE_CURVE('',#773,#749,#781,.T.);
#781 = LINE('',#782,#783);
#782 = CARTESIAN_POINT('',(0.75,1.27,2.5));
#783 = VECTOR('',#784,1.);
#784 = DIRECTION('',(0.707106781187,0.707106781187,0.));
#785 = ORIENTED_EDGE('',*,*,#748,.F.);
#786 = ORIENTED_EDGE('',*,*,#663,.F.);
#787 = PLANE('',#788);
#788 = AXIS2_PLACEMENT_3D('',#789,#790,#791);
#789 = CARTESIAN_POINT('',(0.75,1.27,0.));
#790 = DIRECTION('',(-0.707106781187,0.707106781187,0.));
#791 = DIRECTION('',(0.707106781187,0.707106781187,0.));
#792 = ADVANCED_FACE('',(#793),#811,.F.);
#793 = FACE_BOUND('',#794,.F.);
#794 = EDGE_LOOP('',(#795,#803,#809,#810));
#795 = ORIENTED_EDGE('',*,*,#796,.T.);
#796 = EDGE_CURVE('',#648,#797,#799,.T.);
#797 = VERTEX_POINT('',#798);
#798 = CARTESIAN_POINT('',(1.25,0.77,2.5));
#799 = LINE('',#800,#801);
#800 = CARTESIAN_POINT('',(1.25,0.77,0.));
#801 = VECTOR('',#802,1.);
#802 = DIRECTION('',(0.,0.,1.));
#803 = ORIENTED_EDGE('',*,*,#804,.T.);
#804 = EDGE_CURVE('',#797,#773,#805,.T.);
#805 = LINE('',#806,#807);
#806 = CARTESIAN_POINT('',(1.25,0.77,2.5));
#807 = VECTOR('',#808,1.);
#808 = DIRECTION('',(-0.707106781187,0.707106781187,0.));
#809 = ORIENTED_EDGE('',*,*,#772,.F.);
#810 = ORIENTED_EDGE('',*,*,#655,.F.);
#811 = PLANE('',#812);
#812 = AXIS2_PLACEMENT_3D('',#813,#814,#815);
#813 = CARTESIAN_POINT('',(1.25,0.77,0.));
#814 = DIRECTION('',(-0.707106781187,-0.707106781187,0.));
#815 = DIRECTION('',(-0.707106781187,0.707106781187,0.));
#816 = ADVANCED_FACE('',(#817),#835,.F.);
#817 = FACE_BOUND('',#818,.F.);
#818 = EDGE_LOOP('',(#819,#827,#833,#834));
#819 = ORIENTED_EDGE('',*,*,#820,.T.);
#820 = EDGE_CURVE('',#640,#821,#823,.T.);
#821 = VERTEX_POINT('',#822);
#822 = CARTESIAN_POINT('',(1.25,-0.77,2.5));
#823 = LINE('',#824,#825);
#824 = CARTESIAN_POINT('',(1.25,-0.77,0.));
#825 = VECTOR('',#826,1.);
#826 = DIRECTION('',(0.,0.,1.));
#827 = ORIENTED_EDGE('',*,*,#828,.T.);
#828 = EDGE_CURVE('',#821,#797,#829,.T.);
#829 = LINE('',#830,#831);
#830 = CARTESIAN_POINT('',(1.25,-0.77,2.5));
#831 = VECTOR('',#832,1.);
#832 = DIRECTION('',(0.,1.,0.));
#833 = ORIENTED_EDGE('',*,*,#796,.F.);
#834 = ORIENTED_EDGE('',*,*,#647,.F.);
#835 = PLANE('',#836);
#836 = AXIS2_PLACEMENT_3D('',#837,#838,#839);
#837 = CARTESIAN_POINT('',(1.25,-0.77,0.));
#838 = DIRECTION('',(-1.,0.,0.));
#839 = DIRECTION('',(0.,1.,0.));
#840 = ADVANCED_FACE('',(#841),#859,.F.);
#841 = FACE_BOUND('',#842,.F.);
#842 = EDGE_LOOP('',(#843,#851,#857,#858));
#843 = ORIENTED_EDGE('',*,*,#844,.T.);
#844 = EDGE_CURVE('',#632,#845,#847,.T.);
#845 = VERTEX_POINT('',#846);
#846 = CARTESIAN_POINT('',(0.75,-1.27,2.5));
#847 = LINE('',#848,#849);
#848 = CARTESIAN_POINT('',(0.75,-1.27,0.));
#849 = VECTOR('',#850,1.);
#850 = DIRECTION('',(0.,0.,1.));
#851 = ORIENTED_EDGE('',*,*,#852,.T.);
#852 = EDGE_CURVE('',#845,#821,#853,.T.);
#853 = LINE('',#854,#855);
#854 = CARTESIAN_POINT('',(0.75,-1.27,2.5));
#855 = VECTOR('',#856,1.);
#856 = DIRECTION('',(0.707106781187,0.707106781187,0.));
#857 = ORIENTED_EDGE('',*,*,#820,.F.);
#858 = ORIENTED_EDGE('',*,*,#639,.F.);
#859 = PLANE('',#860);
#860 = AXIS2_PLACEMENT_3D('',#861,#862,#863);
#861 = CARTESIAN_POINT('',(0.75,-1.27,0.));
#862 = DIRECTION('',(-0.707106781187,0.707106781187,0.));
#863 = DIRECTION('',(0.707106781187,0.707106781187,0.));
#864 = ADVANCED_FACE('',(#865),#883,.F.);
#865 = FACE_BOUND('',#866,.F.);
#866 = EDGE_LOOP('',(#867,#875,#881,#882));
#867 = ORIENTED_EDGE('',*,*,#868,.T.);
#868 = EDGE_CURVE('',#624,#869,#871,.T.);
#869 = VERTEX_POINT('',#870);
#870 = CARTESIAN_POINT('',(1.25,-1.77,2.5));
#871 = LINE('',#872,#873);
#872 = CARTESIAN_POINT('',(1.25,-1.77,0.));
#873 = VECTOR('',#874,1.);
#874 = DIRECTION('',(0.,0.,1.));
#875 = ORIENTED_EDGE('',*,*,#876,.T.);
#876 = EDGE_CURVE('',#869,#845,#877,.T.);
#877 = LINE('',#878,#879);
#878 = CARTESIAN_POINT('',(1.25,-1.77,2.5));
#879 = VECTOR('',#880,1.);
#880 = DIRECTION('',(-0.707106781187,0.707106781187,0.));
#881 = ORIENTED_EDGE('',*,*,#844,.F.);
#882 = ORIENTED_EDGE('',*,*,#631,.F.);
#883 = PLANE('',#884);
#884 = AXIS2_PLACEMENT_3D('',#885,#886,#887);
#885 = CARTESIAN_POINT('',(1.25,-1.77,0.));
#886 = DIRECTION('',(-0.707106781187,-0.707106781187,0.));
#887 = DIRECTION('',(-0.707106781187,0.707106781187,0.));
#888 = ADVANCED_FACE('',(#889),#907,.F.);
#889 = FACE_BOUND('',#890,.F.);
#890 = EDGE_LOOP('',(#891,#899,#905,#906));
#891 = ORIENTED_EDGE('',*,*,#892,.T.);
#892 = EDGE_CURVE('',#616,#893,#895,.T.);
#893 = VERTEX_POINT('',#894);
#894 = CARTESIAN_POINT('',(1.25,-3.31,2.5));
#895 = LINE('',#896,#897);
#896 = CARTESIAN_POINT('',(1.25,-3.31,0.));
#897 = VECTOR('',#898,1.);
#898 = DIRECTION('',(0.,0.,1.));
#899 = ORIENTED_EDGE('',*,*,#900,.T.);
#900 = EDGE_CURVE('',#893,#869,#901,.T.);
#901 = LINE('',#902,#903);
#902 = CARTESIAN_POINT('',(1.25,-3.31,2.5));
#903 = VECTOR('',#904,1.);
#904 = DIRECTION('',(0.,1.,0.));
#905 = ORIENTED_EDGE('',*,*,#868,.F.);
#906 = ORIENTED_EDGE('',*,*,#623,.F.);
#907 = PLANE('',#908);
#908 = AXIS2_PLACEMENT_3D('',#909,#910,#911);
#909 = CARTESIAN_POINT('',(1.25,-3.31,0.));
#910 = DIRECTION('',(-1.,0.,0.));
#911 = DIRECTION('',(0.,1.,0.));
#912 = ADVANCED_FACE('',(#913),#931,.F.);
#913 = FACE_BOUND('',#914,.F.);
#914 = EDGE_LOOP('',(#915,#923,#929,#930));
#915 = ORIENTED_EDGE('',*,*,#916,.T.);
#916 = EDGE_CURVE('',#608,#917,#919,.T.);
#917 = VERTEX_POINT('',#918);
#918 = CARTESIAN_POINT('',(0.75,-3.81,2.5));
#919 = LINE('',#920,#921);
#920 = CARTESIAN_POINT('',(0.75,-3.81,0.));
#921 = VECTOR('',#922,1.);
#922 = DIRECTION('',(0.,0.,1.));
#923 = ORIENTED_EDGE('',*,*,#924,.T.);
#924 = EDGE_CURVE('',#917,#893,#925,.T.);
#925 = LINE('',#926,#927);
#926 = CARTESIAN_POINT('',(0.75,-3.81,2.5));
#927 = VECTOR('',#928,1.);
#928 = DIRECTION('',(0.707106781187,0.707106781187,0.));
#929 = ORIENTED_EDGE('',*,*,#892,.F.);
#930 = ORIENTED_EDGE('',*,*,#615,.F.);
#931 = PLANE('',#932);
#932 = AXIS2_PLACEMENT_3D('',#933,#934,#935);
#933 = CARTESIAN_POINT('',(0.75,-3.81,0.));
#934 = DIRECTION('',(-0.707106781187,0.707106781187,0.));
#935 = DIRECTION('',(0.707106781187,0.707106781187,0.));
#936 = ADVANCED_FACE('',(#937),#955,.F.);
#937 = FACE_BOUND('',#938,.F.);
#938 = EDGE_LOOP('',(#939,#947,#953,#954));
#939 = ORIENTED_EDGE('',*,*,#940,.T.);
#940 = EDGE_CURVE('',#600,#941,#943,.T.);
#941 = VERTEX_POINT('',#942);
#942 = CARTESIAN_POINT('',(1.25,-4.31,2.5));
#943 = LINE('',#944,#945);
#944 = CARTESIAN_POINT('',(1.25,-4.31,0.));
#945 = VECTOR('',#946,1.);
#946 = DIRECTION('',(0.,0.,1.));
#947 = ORIENTED_EDGE('',*,*,#948,.T.);
#948 = EDGE_CURVE('',#941,#917,#949,.T.);
#949 = LINE('',#950,#951);
#950 = CARTESIAN_POINT('',(1.25,-4.31,2.5));
#951 = VECTOR('',#952,1.);
#952 = DIRECTION('',(-0.707106781187,0.707106781187,0.));
#953 = ORIENTED_EDGE('',*,*,#916,.F.);
#954 = ORIENTED_EDGE('',*,*,#607,.F.);
#955 = PLANE('',#956);
#956 = AXIS2_PLACEMENT_3D('',#957,#958,#959);
#957 = CARTESIAN_POINT('',(1.25,-4.31,0.));
#958 = DIRECTION('',(-0.707106781187,-0.707106781187,0.));
#959 = DIRECTION('',(-0.707106781187,0.707106781187,0.));
#960 = ADVANCED_FACE('',(#961),#979,.F.);
#961 = FACE_BOUND('',#962,.F.);
#962 = EDGE_LOOP('',(#963,#971,#977,#978));
#963 = ORIENTED_EDGE('',*,*,#964,.T.);
#964 = EDGE_CURVE('',#592,#965,#967,.T.);
#965 = VERTEX_POINT('',#966);
#966 = CARTESIAN_POINT('',(1.25,-5.85,2.5));
#967 = LINE('',#968,#969);
#968 = CARTESIAN_POINT('',(1.25,-5.85,0.));
#969 = VECTOR('',#970,1.);
#970 = DIRECTION('',(0.,0.,1.));
#971 = ORIENTED_EDGE('',*,*,#972,.T.);
#972 = EDGE_CURVE('',#965,#941,#973,.T.);
#973 = LINE('',#974,#975);
#974 = CARTESIAN_POINT('',(1.25,-5.85,2.5));
#975 = VECTOR('',#976,1.);
#976 = DIRECTION('',(0.,1.,0.));
#977 = ORIENTED_EDGE('',*,*,#940,.F.);
#978 = ORIENTED_EDGE('',*,*,#599,.F.);
#979 = PLANE('',#980);
#980 = AXIS2_PLACEMENT_3D('',#981,#982,#983);
#981 = CARTESIAN_POINT('',(1.25,-5.85,0.));
#982 = DIRECTION('',(-1.,0.,0.));
#983 = DIRECTION('',(0.,1.,0.));
#984 = ADVANCED_FACE('',(#985),#1003,.F.);
#985 = FACE_BOUND('',#986,.F.);
#986 = EDGE_LOOP('',(#987,#995,#1001,#1002));
#987 = ORIENTED_EDGE('',*,*,#988,.T.);
#988 = EDGE_CURVE('',#584,#989,#991,.T.);
#989 = VERTEX_POINT('',#990);
#990 = CARTESIAN_POINT('',(0.75,-6.35,2.5));
#991 = LINE('',#992,#993);
#992 = CARTESIAN_POINT('',(0.75,-6.35,0.));
#993 = VECTOR('',#994,1.);
#994 = DIRECTION('',(0.,0.,1.));
#995 = ORIENTED_EDGE('',*,*,#996,.T.);
#996 = EDGE_CURVE('',#989,#965,#997,.T.);
#997 = LINE('',#998,#999);
#998 = CARTESIAN_POINT('',(0.75,-6.35,2.5));
#999 = VECTOR('',#1000,1.);
#1000 = DIRECTION('',(0.707106781187,0.707106781187,0.));
#1001 = ORIENTED_EDGE('',*,*,#964,.F.);
#1002 = ORIENTED_EDGE('',*,*,#591,.F.);
#1003 = PLANE('',#1004);
#1004 = AXIS2_PLACEMENT_3D('',#1005,#1006,#1007);
#1005 = CARTESIAN_POINT('',(0.75,-6.35,0.));
#1006 = DIRECTION('',(-0.707106781187,0.707106781187,0.));
#1007 = DIRECTION('',(0.707106781187,0.707106781187,0.));
#1008 = ADVANCED_FACE('',(#1009),#1027,.F.);
#1009 = FACE_BOUND('',#1010,.F.);
#1010 = EDGE_LOOP('',(#1011,#1019,#1020,#1021));
#1011 = ORIENTED_EDGE('',*,*,#1012,.F.);
#1012 = EDGE_CURVE('',#989,#1013,#1015,.T.);
#1013 = VERTEX_POINT('',#1014);
#1014 = CARTESIAN_POINT('',(-0.75,-6.35,2.5));
#1015 = LINE('',#1016,#1017);
#1016 = CARTESIAN_POINT('',(21.582977,-6.35,2.5));
#1017 = VECTOR('',#1018,1.);
#1018 = DIRECTION('',(-1.,0.,0.));
#1019 = ORIENTED_EDGE('',*,*,#988,.F.);
#1020 = ORIENTED_EDGE('',*,*,#583,.T.);
#1021 = ORIENTED_EDGE('',*,*,#1022,.T.);
#1022 = EDGE_CURVE('',#576,#1013,#1023,.T.);
#1023 = LINE('',#1024,#1025);
#1024 = CARTESIAN_POINT('',(-0.75,-6.35,0.));
#1025 = VECTOR('',#1026,1.);
#1026 = DIRECTION('',(0.,0.,1.));
#1027 = PLANE('',#1028);
#1028 = AXIS2_PLACEMENT_3D('',#1029,#1030,#1031);
#1029 = CARTESIAN_POINT('',(21.582977,-6.35,2.5));
#1030 = DIRECTION('',(0.,1.,0.));
#1031 = DIRECTION('',(-1.,0.,0.));
#1032 = ADVANCED_FACE('',(#1033),#1051,.F.);
#1033 = FACE_BOUND('',#1034,.F.);
#1034 = EDGE_LOOP('',(#1035,#1043,#1049,#1050));
#1035 = ORIENTED_EDGE('',*,*,#1036,.T.);
#1036 = EDGE_CURVE('',#568,#1037,#1039,.T.);
#1037 = VERTEX_POINT('',#1038);
#1038 = CARTESIAN_POINT('',(-1.25,-5.85,2.5));
#1039 = LINE('',#1040,#1041);
#1040 = CARTESIAN_POINT('',(-1.25,-5.85,0.));
#1041 = VECTOR('',#1042,1.);
#1042 = DIRECTION('',(0.,0.,1.));
#1043 = ORIENTED_EDGE('',*,*,#1044,.T.);
#1044 = EDGE_CURVE('',#1037,#1013,#1045,.T.);
#1045 = LINE('',#1046,#1047);
#1046 = CARTESIAN_POINT('',(-1.25,-5.85,2.5));
#1047 = VECTOR('',#1048,1.);
#1048 = DIRECTION('',(0.707106781187,-0.707106781187,0.));
#1049 = ORIENTED_EDGE('',*,*,#1022,.F.);
#1050 = ORIENTED_EDGE('',*,*,#575,.F.);
#1051 = PLANE('',#1052);
#1052 = AXIS2_PLACEMENT_3D('',#1053,#1054,#1055);
#1053 = CARTESIAN_POINT('',(-1.25,-5.85,0.));
#1054 = DIRECTION('',(0.707106781187,0.707106781187,0.));
#1055 = DIRECTION('',(0.707106781187,-0.707106781187,0.));
#1056 = ADVANCED_FACE('',(#1057),#1075,.F.);
#1057 = FACE_BOUND('',#1058,.F.);
#1058 = EDGE_LOOP('',(#1059,#1067,#1073,#1074));
#1059 = ORIENTED_EDGE('',*,*,#1060,.T.);
#1060 = EDGE_CURVE('',#560,#1061,#1063,.T.);
#1061 = VERTEX_POINT('',#1062);
#1062 = CARTESIAN_POINT('',(-1.25,-4.31,2.5));
#1063 = LINE('',#1064,#1065);
#1064 = CARTESIAN_POINT('',(-1.25,-4.31,0.));
#1065 = VECTOR('',#1066,1.);
#1066 = DIRECTION('',(0.,0.,1.));
#1067 = ORIENTED_EDGE('',*,*,#1068,.T.);
#1068 = EDGE_CURVE('',#1061,#1037,#1069,.T.);
#1069 = LINE('',#1070,#1071);
#1070 = CARTESIAN_POINT('',(-1.25,-4.31,2.5));
#1071 = VECTOR('',#1072,1.);
#1072 = DIRECTION('',(0.,-1.,0.));
#1073 = ORIENTED_EDGE('',*,*,#1036,.F.);
#1074 = ORIENTED_EDGE('',*,*,#567,.F.);
#1075 = PLANE('',#1076);
#1076 = AXIS2_PLACEMENT_3D('',#1077,#1078,#1079);
#1077 = CARTESIAN_POINT('',(-1.25,-4.31,0.));
#1078 = DIRECTION('',(1.,0.,0.));
#1079 = DIRECTION('',(0.,-1.,0.));
#1080 = ADVANCED_FACE('',(#1081),#1099,.F.);
#1081 = FACE_BOUND('',#1082,.F.);
#1082 = EDGE_LOOP('',(#1083,#1091,#1097,#1098));
#1083 = ORIENTED_EDGE('',*,*,#1084,.T.);
#1084 = EDGE_CURVE('',#552,#1085,#1087,.T.);
#1085 = VERTEX_POINT('',#1086);
#1086 = CARTESIAN_POINT('',(-0.75,-3.81,2.5));
#1087 = LINE('',#1088,#1089);
#1088 = CARTESIAN_POINT('',(-0.75,-3.81,0.));
#1089 = VECTOR('',#1090,1.);
#1090 = DIRECTION('',(0.,0.,1.));
#1091 = ORIENTED_EDGE('',*,*,#1092,.T.);
#1092 = EDGE_CURVE('',#1085,#1061,#1093,.T.);
#1093 = LINE('',#1094,#1095);
#1094 = CARTESIAN_POINT('',(-0.75,-3.81,2.5));
#1095 = VECTOR('',#1096,1.);
#1096 = DIRECTION('',(-0.707106781187,-0.707106781187,0.));
#1097 = ORIENTED_EDGE('',*,*,#1060,.F.);
#1098 = ORIENTED_EDGE('',*,*,#559,.F.);
#1099 = PLANE('',#1100);
#1100 = AXIS2_PLACEMENT_3D('',#1101,#1102,#1103);
#1101 = CARTESIAN_POINT('',(-0.75,-3.81,0.));
#1102 = DIRECTION('',(0.707106781187,-0.707106781187,0.));
#1103 = DIRECTION('',(-0.707106781187,-0.707106781187,0.));
#1104 = ADVANCED_FACE('',(#1105),#1123,.F.);
#1105 = FACE_BOUND('',#1106,.F.);
#1106 = EDGE_LOOP('',(#1107,#1115,#1121,#1122));
#1107 = ORIENTED_EDGE('',*,*,#1108,.T.);
#1108 = EDGE_CURVE('',#544,#1109,#1111,.T.);
#1109 = VERTEX_POINT('',#1110);
#1110 = CARTESIAN_POINT('',(-1.25,-3.31,2.5));
#1111 = LINE('',#1112,#1113);
#1112 = CARTESIAN_POINT('',(-1.25,-3.31,0.));
#1113 = VECTOR('',#1114,1.);
#1114 = DIRECTION('',(0.,0.,1.));
#1115 = ORIENTED_EDGE('',*,*,#1116,.T.);
#1116 = EDGE_CURVE('',#1109,#1085,#1117,.T.);
#1117 = LINE('',#1118,#1119);
#1118 = CARTESIAN_POINT('',(-1.25,-3.31,2.5));
#1119 = VECTOR('',#1120,1.);
#1120 = DIRECTION('',(0.707106781187,-0.707106781187,0.));
#1121 = ORIENTED_EDGE('',*,*,#1084,.F.);
#1122 = ORIENTED_EDGE('',*,*,#551,.F.);
#1123 = PLANE('',#1124);
#1124 = AXIS2_PLACEMENT_3D('',#1125,#1126,#1127);
#1125 = CARTESIAN_POINT('',(-1.25,-3.31,0.));
#1126 = DIRECTION('',(0.707106781187,0.707106781187,0.));
#1127 = DIRECTION('',(0.707106781187,-0.707106781187,0.));
#1128 = ADVANCED_FACE('',(#1129),#1147,.F.);
#1129 = FACE_BOUND('',#1130,.F.);
#1130 = EDGE_LOOP('',(#1131,#1139,#1145,#1146));
#1131 = ORIENTED_EDGE('',*,*,#1132,.T.);
#1132 = EDGE_CURVE('',#536,#1133,#1135,.T.);
#1133 = VERTEX_POINT('',#1134);
#1134 = CARTESIAN_POINT('',(-1.25,-1.77,2.5));
#1135 = LINE('',#1136,#1137);
#1136 = CARTESIAN_POINT('',(-1.25,-1.77,0.));
#1137 = VECTOR('',#1138,1.);
#1138 = DIRECTION('',(0.,0.,1.));
#1139 = ORIENTED_EDGE('',*,*,#1140,.T.);
#1140 = EDGE_CURVE('',#1133,#1109,#1141,.T.);
#1141 = LINE('',#1142,#1143);
#1142 = CARTESIAN_POINT('',(-1.25,-1.77,2.5));
#1143 = VECTOR('',#1144,1.);
#1144 = DIRECTION('',(0.,-1.,0.));
#1145 = ORIENTED_EDGE('',*,*,#1108,.F.);
#1146 = ORIENTED_EDGE('',*,*,#543,.F.);
#1147 = PLANE('',#1148);
#1148 = AXIS2_PLACEMENT_3D('',#1149,#1150,#1151);
#1149 = CARTESIAN_POINT('',(-1.25,-1.77,0.));
#1150 = DIRECTION('',(1.,0.,0.));
#1151 = DIRECTION('',(0.,-1.,0.));
#1152 = ADVANCED_FACE('',(#1153),#1171,.F.);
#1153 = FACE_BOUND('',#1154,.F.);
#1154 = EDGE_LOOP('',(#1155,#1163,#1169,#1170));
#1155 = ORIENTED_EDGE('',*,*,#1156,.T.);
#1156 = EDGE_CURVE('',#528,#1157,#1159,.T.);
#1157 = VERTEX_POINT('',#1158);
#1158 = CARTESIAN_POINT('',(-0.75,-1.27,2.5));
#1159 = LINE('',#1160,#1161);
#1160 = CARTESIAN_POINT('',(-0.75,-1.27,0.));
#1161 = VECTOR('',#1162,1.);
#1162 = DIRECTION('',(0.,0.,1.));
#1163 = ORIENTED_EDGE('',*,*,#1164,.T.);
#1164 = EDGE_CURVE('',#1157,#1133,#1165,.T.);
#1165 = LINE('',#1166,#1167);
#1166 = CARTESIAN_POINT('',(-0.75,-1.27,2.5));
#1167 = VECTOR('',#1168,1.);
#1168 = DIRECTION('',(-0.707106781187,-0.707106781187,0.));
#1169 = ORIENTED_EDGE('',*,*,#1132,.F.);
#1170 = ORIENTED_EDGE('',*,*,#535,.F.);
#1171 = PLANE('',#1172);
#1172 = AXIS2_PLACEMENT_3D('',#1173,#1174,#1175);
#1173 = CARTESIAN_POINT('',(-0.75,-1.27,0.));
#1174 = DIRECTION('',(0.707106781187,-0.707106781187,0.));
#1175 = DIRECTION('',(-0.707106781187,-0.707106781187,0.));
#1176 = ADVANCED_FACE('',(#1177),#1195,.F.);
#1177 = FACE_BOUND('',#1178,.F.);
#1178 = EDGE_LOOP('',(#1179,#1187,#1193,#1194));
#1179 = ORIENTED_EDGE('',*,*,#1180,.T.);
#1180 = EDGE_CURVE('',#520,#1181,#1183,.T.);
#1181 = VERTEX_POINT('',#1182);
#1182 = CARTESIAN_POINT('',(-1.25,-0.77,2.5));
#1183 = LINE('',#1184,#1185);
#1184 = CARTESIAN_POINT('',(-1.25,-0.77,0.));
#1185 = VECTOR('',#1186,1.);
#1186 = DIRECTION('',(0.,0.,1.));
#1187 = ORIENTED_EDGE('',*,*,#1188,.T.);
#1188 = EDGE_CURVE('',#1181,#1157,#1189,.T.);
#1189 = LINE('',#1190,#1191);
#1190 = CARTESIAN_POINT('',(-1.25,-0.77,2.5));
#1191 = VECTOR('',#1192,1.);
#1192 = DIRECTION('',(0.707106781187,-0.707106781187,0.));
#1193 = ORIENTED_EDGE('',*,*,#1156,.F.);
#1194 = ORIENTED_EDGE('',*,*,#527,.F.);
#1195 = PLANE('',#1196);
#1196 = AXIS2_PLACEMENT_3D('',#1197,#1198,#1199);
#1197 = CARTESIAN_POINT('',(-1.25,-0.77,0.));
#1198 = DIRECTION('',(0.707106781187,0.707106781187,0.));
#1199 = DIRECTION('',(0.707106781187,-0.707106781187,0.));
#1200 = ADVANCED_FACE('',(#1201),#1219,.F.);
#1201 = FACE_BOUND('',#1202,.F.);
#1202 = EDGE_LOOP('',(#1203,#1211,#1217,#1218));
#1203 = ORIENTED_EDGE('',*,*,#1204,.T.);
#1204 = EDGE_CURVE('',#512,#1205,#1207,.T.);
#1205 = VERTEX_POINT('',#1206);
#1206 = CARTESIAN_POINT('',(-1.25,0.77,2.5));
#1207 = LINE('',#1208,#1209);
#1208 = CARTESIAN_POINT('',(-1.25,0.77,0.));
#1209 = VECTOR('',#1210,1.);
#1210 = DIRECTION('',(0.,0.,1.));
#1211 = ORIENTED_EDGE('',*,*,#1212,.T.);
#1212 = EDGE_CURVE('',#1205,#1181,#1213,.T.);
#1213 = LINE('',#1214,#1215);
#1214 = CARTESIAN_POINT('',(-1.25,0.77,2.5));
#1215 = VECTOR('',#1216,1.);
#1216 = DIRECTION('',(0.,-1.,0.));
#1217 = ORIENTED_EDGE('',*,*,#1180,.F.);
#1218 = ORIENTED_EDGE('',*,*,#519,.F.);
#1219 = PLANE('',#1220);
#1220 = AXIS2_PLACEMENT_3D('',#1221,#1222,#1223);
#1221 = CARTESIAN_POINT('',(-1.25,0.77,0.));
#1222 = DIRECTION('',(1.,0.,0.));
#1223 = DIRECTION('',(0.,-1.,0.));
#1224 = ADVANCED_FACE('',(#1225),#1243,.F.);
#1225 = FACE_BOUND('',#1226,.F.);
#1226 = EDGE_LOOP('',(#1227,#1235,#1241,#1242));
#1227 = ORIENTED_EDGE('',*,*,#1228,.T.);
#1228 = EDGE_CURVE('',#504,#1229,#1231,.T.);
#1229 = VERTEX_POINT('',#1230);
#1230 = CARTESIAN_POINT('',(-0.75,1.27,2.5));
#1231 = LINE('',#1232,#1233);
#1232 = CARTESIAN_POINT('',(-0.75,1.27,0.));
#1233 = VECTOR('',#1234,1.);
#1234 = DIRECTION('',(0.,0.,1.));
#1235 = ORIENTED_EDGE('',*,*,#1236,.T.);
#1236 = EDGE_CURVE('',#1229,#1205,#1237,.T.);
#1237 = LINE('',#1238,#1239);
#1238 = CARTESIAN_POINT('',(-0.75,1.27,2.5));
#1239 = VECTOR('',#1240,1.);
#1240 = DIRECTION('',(-0.707106781187,-0.707106781187,0.));
#1241 = ORIENTED_EDGE('',*,*,#1204,.F.);
#1242 = ORIENTED_EDGE('',*,*,#511,.F.);
#1243 = PLANE('',#1244);
#1244 = AXIS2_PLACEMENT_3D('',#1245,#1246,#1247);
#1245 = CARTESIAN_POINT('',(-0.75,1.27,0.));
#1246 = DIRECTION('',(0.707106781187,-0.707106781187,0.));
#1247 = DIRECTION('',(-0.707106781187,-0.707106781187,0.));
#1248 = ADVANCED_FACE('',(#1249),#1267,.F.);
#1249 = FACE_BOUND('',#1250,.F.);
#1250 = EDGE_LOOP('',(#1251,#1259,#1265,#1266));
#1251 = ORIENTED_EDGE('',*,*,#1252,.T.);
#1252 = EDGE_CURVE('',#496,#1253,#1255,.T.);
#1253 = VERTEX_POINT('',#1254);
#1254 = CARTESIAN_POINT('',(-1.25,1.77,2.5));
#1255 = LINE('',#1256,#1257);
#1256 = CARTESIAN_POINT('',(-1.25,1.77,0.));
#1257 = VECTOR('',#1258,1.);
#1258 = DIRECTION('',(0.,0.,1.));
#1259 = ORIENTED_EDGE('',*,*,#1260,.T.);
#1260 = EDGE_CURVE('',#1253,#1229,#1261,.T.);
#1261 = LINE('',#1262,#1263);
#1262 = CARTESIAN_POINT('',(-1.25,1.77,2.5));
#1263 = VECTOR('',#1264,1.);
#1264 = DIRECTION('',(0.707106781187,-0.707106781187,0.));
#1265 = ORIENTED_EDGE('',*,*,#1228,.F.);
#1266 = ORIENTED_EDGE('',*,*,#503,.F.);
#1267 = PLANE('',#1268);
#1268 = AXIS2_PLACEMENT_3D('',#1269,#1270,#1271);
#1269 = CARTESIAN_POINT('',(-1.25,1.77,0.));
#1270 = DIRECTION('',(0.707106781187,0.707106781187,0.));
#1271 = DIRECTION('',(0.707106781187,-0.707106781187,0.));
#1272 = ADVANCED_FACE('',(#1273),#1291,.F.);
#1273 = FACE_BOUND('',#1274,.F.);
#1274 = EDGE_LOOP('',(#1275,#1283,#1289,#1290));
#1275 = ORIENTED_EDGE('',*,*,#1276,.T.);
#1276 = EDGE_CURVE('',#488,#1277,#1279,.T.);
#1277 = VERTEX_POINT('',#1278);
#1278 = CARTESIAN_POINT('',(-1.25,3.31,2.5));
#1279 = LINE('',#1280,#1281);
#1280 = CARTESIAN_POINT('',(-1.25,3.31,0.));
#1281 = VECTOR('',#1282,1.);
#1282 = DIRECTION('',(0.,0.,1.));
#1283 = ORIENTED_EDGE('',*,*,#1284,.T.);
#1284 = EDGE_CURVE('',#1277,#1253,#1285,.T.);
#1285 = LINE('',#1286,#1287);
#1286 = CARTESIAN_POINT('',(-1.25,3.31,2.5));
#1287 = VECTOR('',#1288,1.);
#1288 = DIRECTION('',(0.,-1.,0.));
#1289 = ORIENTED_EDGE('',*,*,#1252,.F.);
#1290 = ORIENTED_EDGE('',*,*,#495,.F.);
#1291 = PLANE('',#1292);
#1292 = AXIS2_PLACEMENT_3D('',#1293,#1294,#1295);
#1293 = CARTESIAN_POINT('',(-1.25,3.31,0.));
#1294 = DIRECTION('',(1.,0.,0.));
#1295 = DIRECTION('',(0.,-1.,0.));
#1296 = ADVANCED_FACE('',(#1297),#1308,.F.);
#1297 = FACE_BOUND('',#1298,.F.);
#1298 = EDGE_LOOP('',(#1299,#1300,#1306,#1307));
#1299 = ORIENTED_EDGE('',*,*,#703,.T.);
#1300 = ORIENTED_EDGE('',*,*,#1301,.T.);
#1301 = EDGE_CURVE('',#694,#1277,#1302,.T.);
#1302 = LINE('',#1303,#1304);
#1303 = CARTESIAN_POINT('',(-0.75,3.81,2.5));
#1304 = VECTOR('',#1305,1.);
#1305 = DIRECTION('',(-0.707106781187,-0.707106781187,0.));
#1306 = ORIENTED_EDGE('',*,*,#1276,.F.);
#1307 = ORIENTED_EDGE('',*,*,#487,.F.);
#1308 = PLANE('',#1309);
#1309 = AXIS2_PLACEMENT_3D('',#1310,#1311,#1312);
#1310 = CARTESIAN_POINT('',(-0.75,3.81,0.));
#1311 = DIRECTION('',(0.707106781187,-0.707106781187,0.));
#1312 = DIRECTION('',(-0.707106781187,-0.707106781187,0.));
#1313 = ADVANCED_FACE('',(#1314),#1342,.T.);
#1314 = FACE_BOUND('',#1315,.T.);
#1315 = EDGE_LOOP('',(#1316,#1317,#1318,#1319,#1320,#1321,#1322,#1323,
    #1324,#1325,#1326,#1327,#1328,#1329,#1330,#1331,#1332,#1333,#1334,
    #1335,#1336,#1337,#1338,#1339,#1340,#1341));
#1316 = ORIENTED_EDGE('',*,*,#693,.F.);
#1317 = ORIENTED_EDGE('',*,*,#1301,.T.);
#1318 = ORIENTED_EDGE('',*,*,#1284,.T.);
#1319 = ORIENTED_EDGE('',*,*,#1260,.T.);
#1320 = ORIENTED_EDGE('',*,*,#1236,.T.);
#1321 = ORIENTED_EDGE('',*,*,#1212,.T.);
#1322 = ORIENTED_EDGE('',*,*,#1188,.T.);
#1323 = ORIENTED_EDGE('',*,*,#1164,.T.);
#1324 = ORIENTED_EDGE('',*,*,#1140,.T.);
#1325 = ORIENTED_EDGE('',*,*,#1116,.T.);
#1326 = ORIENTED_EDGE('',*,*,#1092,.T.);
#1327 = ORIENTED_EDGE('',*,*,#1068,.T.);
#1328 = ORIENTED_EDGE('',*,*,#1044,.T.);
#1329 = ORIENTED_EDGE('',*,*,#1012,.F.);
#1330 = ORIENTED_EDGE('',*,*,#996,.T.);
#1331 = ORIENTED_EDGE('',*,*,#972,.T.);
#1332 = ORIENTED_EDGE('',*,*,#948,.T.);
#1333 = ORIENTED_EDGE('',*,*,#924,.T.);
#1334 = ORIENTED_EDGE('',*,*,#900,.T.);
#1335 = ORIENTED_EDGE('',*,*,#876,.T.);
#1336 = ORIENTED_EDGE('',*,*,#852,.T.);
#1337 = ORIENTED_EDGE('',*,*,#828,.T.);
#1338 = ORIENTED_EDGE('',*,*,#804,.T.);
#1339 = ORIENTED_EDGE('',*,*,#780,.T.);
#1340 = ORIENTED_EDGE('',*,*,#756,.T.);
#1341 = ORIENTED_EDGE('',*,*,#732,.T.);
#1342 = PLANE('',#1343);
#1343 = AXIS2_PLACEMENT_3D('',#1344,#1345,#1346);
#1344 = CARTESIAN_POINT('',(5.E-17,1.17E-15,2.5));
#1345 = DIRECTION('',(0.,0.,1.));
#1346 = DIRECTION('',(1.,0.,0.));
#1347 = ( GEOMETRIC_REPRESENTATION_CONTEXT(3) 
GLOBAL_UNCERTAINTY_ASSIGNED_CONTEXT((#1351)) 
GLOBAL_UNIT_ASSIGNED_CONTEXT((#1348,#1349,#1350)) REPRESENTATION_CONTEXT
('Context #1','3D Context with UNIT and UNCERTAINTY') );
#1348 = ( LENGTH_UNIT() NAMED_UNIT(*) SI_UNIT(.MILLI.,.METRE.) );
#1349 = ( NAMED_UNIT(*) PLANE_ANGLE_UNIT() SI_UNIT($,.RADIAN.) );
#1350 = ( NAMED_UNIT(*) SI_UNIT($,.STERADIAN.) SOLID_ANGLE_UNIT() );
#1351 = UNCERTAINTY_MEASURE_WITH_UNIT(LENGTH_MEASURE(2.E-06),#1348,
  'distance_accuracy_value','confusion accuracy');
#1352 = CONTEXT_DEPENDENT_SHAPE_REPRESENTATION(#1353,#1355);
#1353 = ( REPRESENTATION_RELATIONSHIP('','',#470,#388) 
REPRESENTATION_RELATIONSHIP_WITH_TRANSFORMATION(#1354) 
SHAPE_REPRESENTATION_RELATIONSHIP() );
#1354 = ITEM_DEFINED_TRANSFORMATION('','',#11,#393);
#1355 = PRODUCT_DEFINITION_SHAPE('Placement','Placement of an item',
  #1356);
#1356 = NEXT_ASSEMBLY_USAGE_OCCURRENCE('4','Parte plastica001','',#383,
  #465,$);
#1357 = PRODUCT_RELATED_PRODUCT_CATEGORY('part',$,(#467));
#1358 = SHAPE_DEFINITION_REPRESENTATION(#1359,#1365);
#1359 = PRODUCT_DEFINITION_SHAPE('','',#1360);
#1360 = PRODUCT_DEFINITION('design','',#1361,#1364);
#1361 = PRODUCT_DEFINITION_FORMATION('','',#1362);
#1362 = PRODUCT('LCS_PH1','LCS_PH1','',(#1363));
#1363 = PRODUCT_CONTEXT('',#2,'mechanical');
#1364 = PRODUCT_DEFINITION_CONTEXT('part definition',#2,'design');
#1365 = MANIFOLD_SURFACE_SHAPE_REPRESENTATION('',(#11),#1366);
#1366 = ( GEOMETRIC_REPRESENTATION_CONTEXT(3) 
GLOBAL_UNCERTAINTY_ASSIGNED_CONTEXT((#1370)) 
GLOBAL_UNIT_ASSIGNED_CONTEXT((#1367,#1368,#1369)) REPRESENTATION_CONTEXT
('Context #1','3D Context with UNIT and UNCERTAINTY') );
#1367 = ( LENGTH_UNIT() NAMED_UNIT(*) SI_UNIT(.MILLI.,.METRE.) );
#1368 = ( NAMED_UNIT(*) PLANE_ANGLE_UNIT() SI_UNIT($,.RADIAN.) );
#1369 = ( NAMED_UNIT(*) SI_UNIT($,.STERADIAN.) SOLID_ANGLE_UNIT() );
#1370 = UNCERTAINTY_MEASURE_WITH_UNIT(LENGTH_MEASURE(1.E-07),#1367,
  'distance_accuracy_value','confusion accuracy');
#1371 = CONTEXT_DEPENDENT_SHAPE_REPRESENTATION(#1372,#1374);
#1372 = ( REPRESENTATION_RELATIONSHIP('','',#1365,#388) 
REPRESENTATION_RELATIONSHIP_WITH_TRANSFORMATION(#1373) 
SHAPE_REPRESENTATION_RELATIONSHIP() );
#1373 = ITEM_DEFINED_TRANSFORMATION('','',#11,#397);
#1374 = PRODUCT_DEFINITION_SHAPE('Placement','Placement of an item',
  #1375);
#1375 = NEXT_ASSEMBLY_USAGE_OCCURRENCE('5','LCS_PH1','',#383,#1360,$);
#1376 = PRODUCT_RELATED_PRODUCT_CATEGORY('part',$,(#1362));
#1377 = SHAPE_DEFINITION_REPRESENTATION(#1378,#1384);
#1378 = PRODUCT_DEFINITION_SHAPE('','',#1379);
#1379 = PRODUCT_DEFINITION('design','',#1380,#1383);
#1380 = PRODUCT_DEFINITION_FORMATION('','',#1381);
#1381 = PRODUCT('Metal superior','Metal superior','',(#1382));
#1382 = PRODUCT_CONTEXT('',#2,'mechanical');
#1383 = PRODUCT_DEFINITION_CONTEXT('part definition',#2,'design');
#1384 = ADVANCED_BREP_SHAPE_REPRESENTATION('',(#11,#1385),#1438);
#1385 = MANIFOLD_SOLID_BREP('',#1386);
#1386 = CLOSED_SHELL('',(#1387,#1420,#1429));
#1387 = ADVANCED_FACE('',(#1388),#1415,.T.);
#1388 = FACE_BOUND('',#1389,.F.);
#1389 = EDGE_LOOP('',(#1390,#1400,#1407,#1408));
#1390 = ORIENTED_EDGE('',*,*,#1391,.T.);
#1391 = EDGE_CURVE('',#1392,#1394,#1396,.T.);
#1392 = VERTEX_POINT('',#1393);
#1393 = CARTESIAN_POINT('',(0.32,0.,0.));
#1394 = VERTEX_POINT('',#1395);
#1395 = CARTESIAN_POINT('',(0.32,0.,6.));
#1396 = LINE('',#1397,#1398);
#1397 = CARTESIAN_POINT('',(0.32,0.,0.));
#1398 = VECTOR('',#1399,1.);
#1399 = DIRECTION('',(0.,0.,1.));
#1400 = ORIENTED_EDGE('',*,*,#1401,.T.);
#1401 = EDGE_CURVE('',#1394,#1394,#1402,.T.);
#1402 = CIRCLE('',#1403,0.32);
#1403 = AXIS2_PLACEMENT_3D('',#1404,#1405,#1406);
#1404 = CARTESIAN_POINT('',(0.,0.,6.));
#1405 = DIRECTION('',(0.,0.,1.));
#1406 = DIRECTION('',(1.,0.,0.));
#1407 = ORIENTED_EDGE('',*,*,#1391,.F.);
#1408 = ORIENTED_EDGE('',*,*,#1409,.F.);
#1409 = EDGE_CURVE('',#1392,#1392,#1410,.T.);
#1410 = CIRCLE('',#1411,0.32);
#1411 = AXIS2_PLACEMENT_3D('',#1412,#1413,#1414);
#1412 = CARTESIAN_POINT('',(0.,0.,0.));
#1413 = DIRECTION('',(0.,0.,1.));
#1414 = DIRECTION('',(1.,0.,0.));
#1415 = CYLINDRICAL_SURFACE('',#1416,0.32);
#1416 = AXIS2_PLACEMENT_3D('',#1417,#1418,#1419);
#1417 = CARTESIAN_POINT('',(0.,0.,0.));
#1418 = DIRECTION('',(-0.,-0.,-1.));
#1419 = DIRECTION('',(1.,0.,0.));
#1420 = ADVANCED_FACE('',(#1421),#1424,.F.);
#1421 = FACE_BOUND('',#1422,.F.);
#1422 = EDGE_LOOP('',(#1423));
#1423 = ORIENTED_EDGE('',*,*,#1409,.T.);
#1424 = PLANE('',#1425);
#1425 = AXIS2_PLACEMENT_3D('',#1426,#1427,#1428);
#1426 = CARTESIAN_POINT('',(-3.E-17,2.E-17,0.));
#1427 = DIRECTION('',(0.,0.,1.));
#1428 = DIRECTION('',(1.,0.,0.));
#1429 = ADVANCED_FACE('',(#1430),#1433,.T.);
#1430 = FACE_BOUND('',#1431,.T.);
#1431 = EDGE_LOOP('',(#1432));
#1432 = ORIENTED_EDGE('',*,*,#1401,.T.);
#1433 = PLANE('',#1434);
#1434 = AXIS2_PLACEMENT_3D('',#1435,#1436,#1437);
#1435 = CARTESIAN_POINT('',(-3.E-17,2.E-17,6.));
#1436 = DIRECTION('',(0.,0.,1.));
#1437 = DIRECTION('',(1.,0.,0.));
#1438 = ( GEOMETRIC_REPRESENTATION_CONTEXT(3) 
GLOBAL_UNCERTAINTY_ASSIGNED_CONTEXT((#1442)) 
GLOBAL_UNIT_ASSIGNED_CONTEXT((#1439,#1440,#1441)) REPRESENTATION_CONTEXT
('Context #1','3D Context with UNIT and UNCERTAINTY') );
#1439 = ( LENGTH_UNIT() NAMED_UNIT(*) SI_UNIT(.MILLI.,.METRE.) );
#1440 = ( NAMED_UNIT(*) PLANE_ANGLE_UNIT() SI_UNIT($,.RADIAN.) );
#1441 = ( NAMED_UNIT(*) SI_UNIT($,.STERADIAN.) SOLID_ANGLE_UNIT() );
#1442 = UNCERTAINTY_MEASURE_WITH_UNIT(LENGTH_MEASURE(1.E-07),#1439,
  'distance_accuracy_value','confusion accuracy');
#1443 = CONTEXT_DEPENDENT_SHAPE_REPRESENTATION(#1444,#1446);
#1444 = ( REPRESENTATION_RELATIONSHIP('','',#1384,#388) 
REPRESENTATION_RELATIONSHIP_WITH_TRANSFORMATION(#1445) 
SHAPE_REPRESENTATION_RELATIONSHIP() );
#1445 = ITEM_DEFINED_TRANSFORMATION('','',#11,#401);
#1446 = PRODUCT_DEFINITION_SHAPE('Placement','Placement of an item',
  #1447);
#1447 = NEXT_ASSEMBLY_USAGE_OCCURRENCE('6','Metal superior001','',#383,
  #1379,$);
#1448 = PRODUCT_RELATED_PRODUCT_CATEGORY('part',$,(#1381));
#1449 = CONTEXT_DEPENDENT_SHAPE_REPRESENTATION(#1450,#1452);
#1450 = ( REPRESENTATION_RELATIONSHIP('','',#1384,#388) 
REPRESENTATION_RELATIONSHIP_WITH_TRANSFORMATION(#1451) 
SHAPE_REPRESENTATION_RELATIONSHIP() );
#1451 = ITEM_DEFINED_TRANSFORMATION('','',#11,#405);
#1452 = PRODUCT_DEFINITION_SHAPE('Placement','Placement of an item',
  #1453);
#1453 = NEXT_ASSEMBLY_USAGE_OCCURRENCE('7','Metal superior002','',#383,
  #1379,$);
#1454 = CONTEXT_DEPENDENT_SHAPE_REPRESENTATION(#1455,#1457);
#1455 = ( REPRESENTATION_RELATIONSHIP('','',#1384,#388) 
REPRESENTATION_RELATIONSHIP_WITH_TRANSFORMATION(#1456) 
SHAPE_REPRESENTATION_RELATIONSHIP() );
#1456 = ITEM_DEFINED_TRANSFORMATION('','',#11,#409);
#1457 = PRODUCT_DEFINITION_SHAPE('Placement','Placement of an item',
  #1458);
#1458 = NEXT_ASSEMBLY_USAGE_OCCURRENCE('8','Metal superior003','',#383,
  #1379,$);
#1459 = CONTEXT_DEPENDENT_SHAPE_REPRESENTATION(#1460,#1462);
#1460 = ( REPRESENTATION_RELATIONSHIP('','',#1384,#388) 
REPRESENTATION_RELATIONSHIP_WITH_TRANSFORMATION(#1461) 
SHAPE_REPRESENTATION_RELATIONSHIP() );
#1461 = ITEM_DEFINED_TRANSFORMATION('','',#11,#413);
#1462 = PRODUCT_DEFINITION_SHAPE('Placement','Placement of an item',
  #1463);
#1463 = NEXT_ASSEMBLY_USAGE_OCCURRENCE('9','Metal superior004','',#383,
  #1379,$);
#1464 = SHAPE_DEFINITION_REPRESENTATION(#1465,#1471);
#1465 = PRODUCT_DEFINITION_SHAPE('','',#1466);
#1466 = PRODUCT_DEFINITION('design','',#1467,#1470);
#1467 = PRODUCT_DEFINITION_FORMATION('','',#1468);
#1468 = PRODUCT('Metal inferior','Metal inferior','',(#1469));
#1469 = PRODUCT_CONTEXT('',#2,'mechanical');
#1470 = PRODUCT_DEFINITION_CONTEXT('part definition',#2,'design');
#1471 = ADVANCED_BREP_SHAPE_REPRESENTATION('',(#11,#1472),#1525);
#1472 = MANIFOLD_SOLID_BREP('',#1473);
#1473 = CLOSED_SHELL('',(#1474,#1507,#1516));
#1474 = ADVANCED_FACE('',(#1475),#1502,.T.);
#1475 = FACE_BOUND('',#1476,.T.);
#1476 = EDGE_LOOP('',(#1477,#1487,#1494,#1495));
#1477 = ORIENTED_EDGE('',*,*,#1478,.T.);
#1478 = EDGE_CURVE('',#1479,#1481,#1483,.T.);
#1479 = VERTEX_POINT('',#1480);
#1480 = CARTESIAN_POINT('',(0.32,0.,0.));
#1481 = VERTEX_POINT('',#1482);
#1482 = CARTESIAN_POINT('',(0.32,0.,-3.));
#1483 = LINE('',#1484,#1485);
#1484 = CARTESIAN_POINT('',(0.32,0.,0.));
#1485 = VECTOR('',#1486,1.);
#1486 = DIRECTION('',(-0.,-0.,-1.));
#1487 = ORIENTED_EDGE('',*,*,#1488,.T.);
#1488 = EDGE_CURVE('',#1481,#1481,#1489,.T.);
#1489 = CIRCLE('',#1490,0.32);
#1490 = AXIS2_PLACEMENT_3D('',#1491,#1492,#1493);
#1491 = CARTESIAN_POINT('',(0.,0.,-3.));
#1492 = DIRECTION('',(0.,0.,1.));
#1493 = DIRECTION('',(1.,0.,0.));
#1494 = ORIENTED_EDGE('',*,*,#1478,.F.);
#1495 = ORIENTED_EDGE('',*,*,#1496,.F.);
#1496 = EDGE_CURVE('',#1479,#1479,#1497,.T.);
#1497 = CIRCLE('',#1498,0.32);
#1498 = AXIS2_PLACEMENT_3D('',#1499,#1500,#1501);
#1499 = CARTESIAN_POINT('',(0.,0.,0.));
#1500 = DIRECTION('',(0.,0.,1.));
#1501 = DIRECTION('',(1.,0.,0.));
#1502 = CYLINDRICAL_SURFACE('',#1503,0.32);
#1503 = AXIS2_PLACEMENT_3D('',#1504,#1505,#1506);
#1504 = CARTESIAN_POINT('',(0.,0.,0.));
#1505 = DIRECTION('',(0.,0.,1.));
#1506 = DIRECTION('',(1.,0.,-0.));
#1507 = ADVANCED_FACE('',(#1508),#1511,.T.);
#1508 = FACE_BOUND('',#1509,.T.);
#1509 = EDGE_LOOP('',(#1510));
#1510 = ORIENTED_EDGE('',*,*,#1496,.T.);
#1511 = PLANE('',#1512);
#1512 = AXIS2_PLACEMENT_3D('',#1513,#1514,#1515);
#1513 = CARTESIAN_POINT('',(-3.E-17,2.E-17,0.));
#1514 = DIRECTION('',(0.,0.,1.));
#1515 = DIRECTION('',(1.,0.,0.));
#1516 = ADVANCED_FACE('',(#1517),#1520,.F.);
#1517 = FACE_BOUND('',#1518,.F.);
#1518 = EDGE_LOOP('',(#1519));
#1519 = ORIENTED_EDGE('',*,*,#1488,.T.);
#1520 = PLANE('',#1521);
#1521 = AXIS2_PLACEMENT_3D('',#1522,#1523,#1524);
#1522 = CARTESIAN_POINT('',(-3.E-17,2.E-17,-3.));
#1523 = DIRECTION('',(0.,0.,1.));
#1524 = DIRECTION('',(1.,0.,0.));
#1525 = ( GEOMETRIC_REPRESENTATION_CONTEXT(3) 
GLOBAL_UNCERTAINTY_ASSIGNED_CONTEXT((#1529)) 
GLOBAL_UNIT_ASSIGNED_CONTEXT((#1526,#1527,#1528)) REPRESENTATION_CONTEXT
('Context #1','3D Context with UNIT and UNCERTAINTY') );
#1526 = ( LENGTH_UNIT() NAMED_UNIT(*) SI_UNIT(.MILLI.,.METRE.) );
#1527 = ( NAMED_UNIT(*) PLANE_ANGLE_UNIT() SI_UNIT($,.RADIAN.) );
#1528 = ( NAMED_UNIT(*) SI_UNIT($,.STERADIAN.) SOLID_ANGLE_UNIT() );
#1529 = UNCERTAINTY_MEASURE_WITH_UNIT(LENGTH_MEASURE(1.E-07),#1526,
  'distance_accuracy_value','confusion accuracy');
#1530 = CONTEXT_DEPENDENT_SHAPE_REPRESENTATION(#1531,#1533);
#1531 = ( REPRESENTATION_RELATIONSHIP('','',#1471,#388) 
REPRESENTATION_RELATIONSHIP_WITH_TRANSFORMATION(#1532) 
SHAPE_REPRESENTATION_RELATIONSHIP() );
#1532 = ITEM_DEFINED_TRANSFORMATION('','',#11,#417);
#1533 = PRODUCT_DEFINITION_SHAPE('Placement','Placement of an item',
  #1534);
#1534 = NEXT_ASSEMBLY_USAGE_OCCURRENCE('10','Metal inferior001','',#383,
  #1466,$);
#1535 = PRODUCT_RELATED_PRODUCT_CATEGORY('part',$,(#1468));
#1536 = CONTEXT_DEPENDENT_SHAPE_REPRESENTATION(#1537,#1539);
#1537 = ( REPRESENTATION_RELATIONSHIP('','',#1471,#388) 
REPRESENTATION_RELATIONSHIP_WITH_TRANSFORMATION(#1538) 
SHAPE_REPRESENTATION_RELATIONSHIP() );
#1538 = ITEM_DEFINED_TRANSFORMATION('','',#11,#421);
#1539 = PRODUCT_DEFINITION_SHAPE('Placement','Placement of an item',
  #1540);
#1540 = NEXT_ASSEMBLY_USAGE_OCCURRENCE('11','Metal inferior002','',#383,
  #1466,$);
#1541 = CONTEXT_DEPENDENT_SHAPE_REPRESENTATION(#1542,#1544);
#1542 = ( REPRESENTATION_RELATIONSHIP('','',#1471,#388) 
REPRESENTATION_RELATIONSHIP_WITH_TRANSFORMATION(#1543) 
SHAPE_REPRESENTATION_RELATIONSHIP() );
#1543 = ITEM_DEFINED_TRANSFORMATION('','',#11,#425);
#1544 = PRODUCT_DEFINITION_SHAPE('Placement','Placement of an item',
  #1545);
#1545 = NEXT_ASSEMBLY_USAGE_OCCURRENCE('12','Metal inferior003','',#383,
  #1466,$);
#1546 = CONTEXT_DEPENDENT_SHAPE_REPRESENTATION(#1547,#1549);
#1547 = ( REPRESENTATION_RELATIONSHIP('','',#1471,#388) 
REPRESENTATION_RELATIONSHIP_WITH_TRANSFORMATION(#1548) 
SHAPE_REPRESENTATION_RELATIONSHIP() );
#1548 = ITEM_DEFINED_TRANSFORMATION('','',#11,#429);
#1549 = PRODUCT_DEFINITION_SHAPE('Placement','Placement of an item',
  #1550);
#1550 = NEXT_ASSEMBLY_USAGE_OCCURRENCE('13','Metal inferior004','',#383,
  #1466,$);
#1551 = SHAPE_DEFINITION_REPRESENTATION(#1552,#1558);
#1552 = PRODUCT_DEFINITION_SHAPE('','',#1553);
#1553 = PRODUCT_DEFINITION('design','',#1554,#1557);
#1554 = PRODUCT_DEFINITION_FORMATION('','',#1555);
#1555 = PRODUCT('Assembly','Assembly','',(#1556));
#1556 = PRODUCT_CONTEXT('',#2,'mechanical');
#1557 = PRODUCT_DEFINITION_CONTEXT('part definition',#2,'design');
#1558 = SHAPE_REPRESENTATION('',(#11,#1559,#1563,#1567,#1571,#1575,#1579
    ),#1583);
#1559 = AXIS2_PLACEMENT_3D('',#1560,#1561,#1562);
#1560 = CARTESIAN_POINT('',(0.,0.,0.));
#1561 = DIRECTION('',(0.,0.,1.));
#1562 = DIRECTION('',(1.,0.,0.));
#1563 = AXIS2_PLACEMENT_3D('',#1564,#1565,#1566);
#1564 = CARTESIAN_POINT('',(-1.25,-3.2E-15,-4.25));
#1565 = DIRECTION('',(0.,0.,1.));
#1566 = DIRECTION('',(1.,0.,0.));
#1567 = AXIS2_PLACEMENT_3D('',#1568,#1569,#1570);
#1568 = CARTESIAN_POINT('',(2.E-16,-5.08,-11.5));
#1569 = DIRECTION('',(0.,0.,1.));
#1570 = DIRECTION('',(1.,0.,0.));
#1571 = AXIS2_PLACEMENT_3D('',#1572,#1573,#1574);
#1572 = CARTESIAN_POINT('',(2.E-16,-2.54,-11.5));
#1573 = DIRECTION('',(0.,0.,1.));
#1574 = DIRECTION('',(1.,0.,0.));
#1575 = AXIS2_PLACEMENT_3D('',#1576,#1577,#1578);
#1576 = CARTESIAN_POINT('',(1.4E-15,-2.7E-15,-11.5));
#1577 = DIRECTION('',(0.,0.,1.));
#1578 = DIRECTION('',(1.,0.,0.));
#1579 = AXIS2_PLACEMENT_3D('',#1580,#1581,#1582);
#1580 = CARTESIAN_POINT('',(3.6E-15,2.54,-11.5));
#1581 = DIRECTION('',(0.,0.,1.));
#1582 = DIRECTION('',(1.,0.,0.));
#1583 = ( GEOMETRIC_REPRESENTATION_CONTEXT(3) 
GLOBAL_UNCERTAINTY_ASSIGNED_CONTEXT((#1587)) 
GLOBAL_UNIT_ASSIGNED_CONTEXT((#1584,#1585,#1586)) REPRESENTATION_CONTEXT
('Context #1','3D Context with UNIT and UNCERTAINTY') );
#1584 = ( LENGTH_UNIT() NAMED_UNIT(*) SI_UNIT(.MILLI.,.METRE.) );
#1585 = ( NAMED_UNIT(*) PLANE_ANGLE_UNIT() SI_UNIT($,.RADIAN.) );
#1586 = ( NAMED_UNIT(*) SI_UNIT($,.STERADIAN.) SOLID_ANGLE_UNIT() );
#1587 = UNCERTAINTY_MEASURE_WITH_UNIT(LENGTH_MEASURE(2.E-06),#1584,
  'distance_accuracy_value','confusion accuracy');
#1588 = CONTEXT_DEPENDENT_SHAPE_REPRESENTATION(#1589,#1591);
#1589 = ( REPRESENTATION_RELATIONSHIP('','',#1558,#10) 
REPRESENTATION_RELATIONSHIP_WITH_TRANSFORMATION(#1590) 
SHAPE_REPRESENTATION_RELATIONSHIP() );
#1590 = ITEM_DEFINED_TRANSFORMATION('','',#11,#27);
#1591 = PRODUCT_DEFINITION_SHAPE('Placement','Placement of an item',
  #1592);
#1592 = NEXT_ASSEMBLY_USAGE_OCCURRENCE('21','Pin_socket___copia','',#5,
  #1553,$);
#1593 = PRODUCT_RELATED_PRODUCT_CATEGORY('part',$,(#1555));
#1594 = SHAPE_DEFINITION_REPRESENTATION(#1595,#1601);
#1595 = PRODUCT_DEFINITION_SHAPE('','',#1596);
#1596 = PRODUCT_DEFINITION('design','',#1597,#1600);
#1597 = PRODUCT_DEFINITION_FORMATION('','',#1598);
#1598 = PRODUCT('LCS_Origin','LCS_Origin','',(#1599));
#1599 = PRODUCT_CONTEXT('',#2,'mechanical');
#1600 = PRODUCT_DEFINITION_CONTEXT('part definition',#2,'design');
#1601 = MANIFOLD_SURFACE_SHAPE_REPRESENTATION('',(#11),#1602);
#1602 = ( GEOMETRIC_REPRESENTATION_CONTEXT(3) 
GLOBAL_UNCERTAINTY_ASSIGNED_CONTEXT((#1606)) 
GLOBAL_UNIT_ASSIGNED_CONTEXT((#1603,#1604,#1605)) REPRESENTATION_CONTEXT
('Context #1','3D Context with UNIT and UNCERTAINTY') );
#1603 = ( LENGTH_UNIT() NAMED_UNIT(*) SI_UNIT(.MILLI.,.METRE.) );
#1604 = ( NAMED_UNIT(*) PLANE_ANGLE_UNIT() SI_UNIT($,.RADIAN.) );
#1605 = ( NAMED_UNIT(*) SI_UNIT($,.STERADIAN.) SOLID_ANGLE_UNIT() );
#1606 = UNCERTAINTY_MEASURE_WITH_UNIT(LENGTH_MEASURE(1.E-07),#1603,
  'distance_accuracy_value','confusion accuracy');
#1607 = CONTEXT_DEPENDENT_SHAPE_REPRESENTATION(#1608,#1610);
#1608 = ( REPRESENTATION_RELATIONSHIP('','',#1601,#1558) 
REPRESENTATION_RELATIONSHIP_WITH_TRANSFORMATION(#1609) 
SHAPE_REPRESENTATION_RELATIONSHIP() );
#1609 = ITEM_DEFINED_TRANSFORMATION('','',#11,#1559);
#1610 = PRODUCT_DEFINITION_SHAPE('Placement','Placement of an item',
  #1611);
#1611 = NEXT_ASSEMBLY_USAGE_OCCURRENCE('15','LCS_Origin','',#1553,#1596,
  $);
#1612 = PRODUCT_RELATED_PRODUCT_CATEGORY('part',$,(#1598));
#1613 = SHAPE_DEFINITION_REPRESENTATION(#1614,#1620);
#1614 = PRODUCT_DEFINITION_SHAPE('','',#1615);
#1615 = PRODUCT_DEFINITION('design','',#1616,#1619);
#1616 = PRODUCT_DEFINITION_FORMATION('','',#1617);
#1617 = PRODUCT('Parte plastica','Parte plastica','',(#1618));
#1618 = PRODUCT_CONTEXT('',#2,'mechanical');
#1619 = PRODUCT_DEFINITION_CONTEXT('part definition',#2,'design');
#1620 = ADVANCED_BREP_SHAPE_REPRESENTATION('',(#11,#1621),#1951);
#1621 = MANIFOLD_SOLID_BREP('',#1622);
#1622 = CLOSED_SHELL('',(#1623,#1663,#1694,#1718,#1742,#1759,#1815,#1840
    ,#1865,#1890,#1915,#1924,#1933,#1942));
#1623 = ADVANCED_FACE('',(#1624),#1658,.F.);
#1624 = FACE_BOUND('',#1625,.F.);
#1625 = EDGE_LOOP('',(#1626,#1636,#1644,#1652));
#1626 = ORIENTED_EDGE('',*,*,#1627,.F.);
#1627 = EDGE_CURVE('',#1628,#1630,#1632,.T.);
#1628 = VERTEX_POINT('',#1629);
#1629 = CARTESIAN_POINT('',(-1.E-15,-6.35,-4.25));
#1630 = VERTEX_POINT('',#1631);
#1631 = CARTESIAN_POINT('',(4.E-15,3.81,-4.25));
#1632 = LINE('',#1633,#1634);
#1633 = CARTESIAN_POINT('',(6.77E-15,-24.13,-4.25));
#1634 = VECTOR('',#1635,1.);
#1635 = DIRECTION('',(-2.2E-16,1.,-3.3E-16));
#1636 = ORIENTED_EDGE('',*,*,#1637,.F.);
#1637 = EDGE_CURVE('',#1638,#1628,#1640,.T.);
#1638 = VERTEX_POINT('',#1639);
#1639 = CARTESIAN_POINT('',(2.5,-6.35,-4.25));
#1640 = LINE('',#1641,#1642);
#1641 = CARTESIAN_POINT('',(1.25,-6.35,-4.25));
#1642 = VECTOR('',#1643,1.);
#1643 = DIRECTION('',(-1.,-0.,-3.3E-16));
#1644 = ORIENTED_EDGE('',*,*,#1645,.T.);
#1645 = EDGE_CURVE('',#1638,#1646,#1648,.T.);
#1646 = VERTEX_POINT('',#1647);
#1647 = CARTESIAN_POINT('',(2.5,3.81,-4.25));
#1648 = LINE('',#1649,#1650);
#1649 = CARTESIAN_POINT('',(2.5,-24.13,-4.25));
#1650 = VECTOR('',#1651,1.);
#1651 = DIRECTION('',(-2.2E-16,1.,-3.3E-16));
#1652 = ORIENTED_EDGE('',*,*,#1653,.F.);
#1653 = EDGE_CURVE('',#1630,#1646,#1654,.T.);
#1654 = LINE('',#1655,#1656);
#1655 = CARTESIAN_POINT('',(4.13E-15,3.81,-4.25));
#1656 = VECTOR('',#1657,1.);
#1657 = DIRECTION('',(1.,0.,3.3E-16));
#1658 = PLANE('',#1659);
#1659 = AXIS2_PLACEMENT_3D('',#1660,#1661,#1662);
#1660 = CARTESIAN_POINT('',(7.71E-15,-24.13,-4.25));
#1661 = DIRECTION('',(-3.3E-16,1.1E-16,1.));
#1662 = DIRECTION('',(-2.2E-16,1.,-1.1E-16));
#1663 = ADVANCED_FACE('',(#1664),#1689,.F.);
#1664 = FACE_BOUND('',#1665,.F.);
#1665 = EDGE_LOOP('',(#1666,#1674,#1675,#1683));
#1666 = ORIENTED_EDGE('',*,*,#1667,.T.);
#1667 = EDGE_CURVE('',#1668,#1628,#1670,.T.);
#1668 = VERTEX_POINT('',#1669);
#1669 = CARTESIAN_POINT('',(-6.E-15,-6.35,4.25));
#1670 = LINE('',#1671,#1672);
#1671 = CARTESIAN_POINT('',(-5.33E-15,-6.35,4.25));
#1672 = VECTOR('',#1673,1.);
#1673 = DIRECTION('',(3.3E-16,-1.1E-16,-1.));
#1674 = ORIENTED_EDGE('',*,*,#1627,.T.);
#1675 = ORIENTED_EDGE('',*,*,#1676,.F.);
#1676 = EDGE_CURVE('',#1677,#1630,#1679,.T.);
#1677 = VERTEX_POINT('',#1678);
#1678 = CARTESIAN_POINT('',(3.E-15,3.81,4.25));
#1679 = LINE('',#1680,#1681);
#1680 = CARTESIAN_POINT('',(3.07E-15,3.81,4.25));
#1681 = VECTOR('',#1682,1.);
#1682 = DIRECTION('',(3.3E-16,-1.1E-16,-1.));
#1683 = ORIENTED_EDGE('',*,*,#1684,.T.);
#1684 = EDGE_CURVE('',#1677,#1668,#1685,.T.);
#1685 = LINE('',#1686,#1687);
#1686 = CARTESIAN_POINT('',(-6.77E-15,24.13,4.25));
#1687 = VECTOR('',#1688,1.);
#1688 = DIRECTION('',(2.2E-16,-1.,3.3E-16));
#1689 = PLANE('',#1690);
#1690 = AXIS2_PLACEMENT_3D('',#1691,#1692,#1693);
#1691 = CARTESIAN_POINT('',(0.,2.5E-16,0.));
#1692 = DIRECTION('',(1.,-2.2E-16,-1.1E-16));
#1693 = DIRECTION('',(1.1E-16,-1.1E-16,1.));
#1694 = ADVANCED_FACE('',(#1695),#1713,.F.);
#1695 = FACE_BOUND('',#1696,.F.);
#1696 = EDGE_LOOP('',(#1697,#1705,#1706,#1707));
#1697 = ORIENTED_EDGE('',*,*,#1698,.F.);
#1698 = EDGE_CURVE('',#1677,#1699,#1701,.T.);
#1699 = VERTEX_POINT('',#1700);
#1700 = CARTESIAN_POINT('',(2.5,3.81,4.25));
#1701 = LINE('',#1702,#1703);
#1702 = CARTESIAN_POINT('',(2.29E-15,3.81,4.25));
#1703 = VECTOR('',#1704,1.);
#1704 = DIRECTION('',(1.,0.,1.1E-16));
#1705 = ORIENTED_EDGE('',*,*,#1676,.T.);
#1706 = ORIENTED_EDGE('',*,*,#1653,.T.);
#1707 = ORIENTED_EDGE('',*,*,#1708,.F.);
#1708 = EDGE_CURVE('',#1699,#1646,#1709,.T.);
#1709 = LINE('',#1710,#1711);
#1710 = CARTESIAN_POINT('',(2.5,3.81,4.25));
#1711 = VECTOR('',#1712,1.);
#1712 = DIRECTION('',(3.3E-16,-1.1E-16,-1.));
#1713 = PLANE('',#1714);
#1714 = AXIS2_PLACEMENT_3D('',#1715,#1716,#1717);
#1715 = CARTESIAN_POINT('',(3.07E-15,3.81,4.25));
#1716 = DIRECTION('',(0.,-1.,1.1E-16));
#1717 = DIRECTION('',(1.,1.21E-32,1.1E-16));
#1718 = ADVANCED_FACE('',(#1719),#1737,.T.);
#1719 = FACE_BOUND('',#1720,.T.);
#1720 = EDGE_LOOP('',(#1721,#1729,#1730,#1731));
#1721 = ORIENTED_EDGE('',*,*,#1722,.T.);
#1722 = EDGE_CURVE('',#1723,#1638,#1725,.T.);
#1723 = VERTEX_POINT('',#1724);
#1724 = CARTESIAN_POINT('',(2.5,-6.35,4.25));
#1725 = LINE('',#1726,#1727);
#1726 = CARTESIAN_POINT('',(2.5,-6.35,4.25));
#1727 = VECTOR('',#1728,1.);
#1728 = DIRECTION('',(3.3E-16,-1.1E-16,-1.));
#1729 = ORIENTED_EDGE('',*,*,#1645,.T.);
#1730 = ORIENTED_EDGE('',*,*,#1708,.F.);
#1731 = ORIENTED_EDGE('',*,*,#1732,.T.);
#1732 = EDGE_CURVE('',#1699,#1723,#1733,.T.);
#1733 = LINE('',#1734,#1735);
#1734 = CARTESIAN_POINT('',(2.5,24.13,4.25));
#1735 = VECTOR('',#1736,1.);
#1736 = DIRECTION('',(2.2E-16,-1.,3.3E-16));
#1737 = PLANE('',#1738);
#1738 = AXIS2_PLACEMENT_3D('',#1739,#1740,#1741);
#1739 = CARTESIAN_POINT('',(2.5,-7.5E-16,-1.33226762955E-15));
#1740 = DIRECTION('',(1.,-2.2E-16,-1.1E-16));
#1741 = DIRECTION('',(1.1E-16,-1.1E-16,1.));
#1742 = ADVANCED_FACE('',(#1743),#1754,.F.);
#1743 = FACE_BOUND('',#1744,.F.);
#1744 = EDGE_LOOP('',(#1745,#1751,#1752,#1753));
#1745 = ORIENTED_EDGE('',*,*,#1746,.F.);
#1746 = EDGE_CURVE('',#1723,#1668,#1747,.T.);
#1747 = LINE('',#1748,#1749);
#1748 = CARTESIAN_POINT('',(2.5,-6.35,4.25));
#1749 = VECTOR('',#1750,1.);
#1750 = DIRECTION('',(-1.,0.,-1.1E-16));
#1751 = ORIENTED_EDGE('',*,*,#1722,.T.);
#1752 = ORIENTED_EDGE('',*,*,#1637,.T.);
#1753 = ORIENTED_EDGE('',*,*,#1667,.F.);
#1754 = PLANE('',#1755);
#1755 = AXIS2_PLACEMENT_3D('',#1756,#1757,#1758);
#1756 = CARTESIAN_POINT('',(2.5,-6.35,4.25));
#1757 = DIRECTION('',(-0.,1.,-1.1E-16));
#1758 = DIRECTION('',(-1.,-1.21E-32,-1.1E-16));
#1759 = ADVANCED_FACE('',(#1760,#1766,#1777,#1788,#1799),#1810,.F.);
#1760 = FACE_BOUND('',#1761,.F.);
#1761 = EDGE_LOOP('',(#1762,#1763,#1764,#1765));
#1762 = ORIENTED_EDGE('',*,*,#1684,.F.);
#1763 = ORIENTED_EDGE('',*,*,#1698,.T.);
#1764 = ORIENTED_EDGE('',*,*,#1732,.T.);
#1765 = ORIENTED_EDGE('',*,*,#1746,.T.);
#1766 = FACE_BOUND('',#1767,.F.);
#1767 = EDGE_LOOP('',(#1768));
#1768 = ORIENTED_EDGE('',*,*,#1769,.T.);
#1769 = EDGE_CURVE('',#1770,#1770,#1772,.T.);
#1770 = VERTEX_POINT('',#1771);
#1771 = CARTESIAN_POINT('',(1.25,2.22,4.25));
#1772 = CIRCLE('',#1773,0.32);
#1773 = AXIS2_PLACEMENT_3D('',#1774,#1775,#1776);
#1774 = CARTESIAN_POINT('',(1.25,2.54,4.25));
#1775 = DIRECTION('',(1.1E-16,3.3E-16,1.));
#1776 = DIRECTION('',(2.2E-16,-1.,3.3E-16));
#1777 = FACE_BOUND('',#1778,.F.);
#1778 = EDGE_LOOP('',(#1779));
#1779 = ORIENTED_EDGE('',*,*,#1780,.T.);
#1780 = EDGE_CURVE('',#1781,#1781,#1783,.T.);
#1781 = VERTEX_POINT('',#1782);
#1782 = CARTESIAN_POINT('',(1.25,-0.32,4.25));
#1783 = CIRCLE('',#1784,0.32);
#1784 = AXIS2_PLACEMENT_3D('',#1785,#1786,#1787);
#1785 = CARTESIAN_POINT('',(1.25,-8.881784197001E-16,4.25));
#1786 = DIRECTION('',(1.1E-16,3.3E-16,1.));
#1787 = DIRECTION('',(2.2E-16,-1.,3.3E-16));
#1788 = FACE_BOUND('',#1789,.F.);
#1789 = EDGE_LOOP('',(#1790));
#1790 = ORIENTED_EDGE('',*,*,#1791,.T.);
#1791 = EDGE_CURVE('',#1792,#1792,#1794,.T.);
#1792 = VERTEX_POINT('',#1793);
#1793 = CARTESIAN_POINT('',(1.25,-2.86,4.25));
#1794 = CIRCLE('',#1795,0.32);
#1795 = AXIS2_PLACEMENT_3D('',#1796,#1797,#1798);
#1796 = CARTESIAN_POINT('',(1.25,-2.54,4.25));
#1797 = DIRECTION('',(1.1E-16,3.3E-16,1.));
#1798 = DIRECTION('',(2.2E-16,-1.,3.3E-16));
#1799 = FACE_BOUND('',#1800,.F.);
#1800 = EDGE_LOOP('',(#1801));
#1801 = ORIENTED_EDGE('',*,*,#1802,.T.);
#1802 = EDGE_CURVE('',#1803,#1803,#1805,.T.);
#1803 = VERTEX_POINT('',#1804);
#1804 = CARTESIAN_POINT('',(1.25,-5.4,4.25));
#1805 = CIRCLE('',#1806,0.32);
#1806 = AXIS2_PLACEMENT_3D('',#1807,#1808,#1809);
#1807 = CARTESIAN_POINT('',(1.25,-5.08,4.25));
#1808 = DIRECTION('',(1.1E-16,3.3E-16,1.));
#1809 = DIRECTION('',(2.2E-16,-1.,3.3E-16));
#1810 = PLANE('',#1811);
#1811 = AXIS2_PLACEMENT_3D('',#1812,#1813,#1814);
#1812 = CARTESIAN_POINT('',(-7.71E-15,24.13,4.25));
#1813 = DIRECTION('',(3.3E-16,-1.1E-16,-1.));
#1814 = DIRECTION('',(2.2E-16,-1.,1.1E-16));
#1815 = ADVANCED_FACE('',(#1816),#1835,.F.);
#1816 = FACE_BOUND('',#1817,.F.);
#1817 = EDGE_LOOP('',(#1818,#1826,#1833,#1834));
#1818 = ORIENTED_EDGE('',*,*,#1819,.T.);
#1819 = EDGE_CURVE('',#1770,#1820,#1822,.T.);
#1820 = VERTEX_POINT('',#1821);
#1821 = CARTESIAN_POINT('',(1.25,2.22,-1.75));
#1822 = LINE('',#1823,#1824);
#1823 = CARTESIAN_POINT('',(1.25,2.22,4.25));
#1824 = VECTOR('',#1825,1.);
#1825 = DIRECTION('',(5.5E-16,1.1E-16,-1.));
#1826 = ORIENTED_EDGE('',*,*,#1827,.T.);
#1827 = EDGE_CURVE('',#1820,#1820,#1828,.T.);
#1828 = CIRCLE('',#1829,0.32);
#1829 = AXIS2_PLACEMENT_3D('',#1830,#1831,#1832);
#1830 = CARTESIAN_POINT('',(1.25,2.54,-1.75));
#1831 = DIRECTION('',(1.1E-16,3.3E-16,1.));
#1832 = DIRECTION('',(2.2E-16,-1.,3.3E-16));
#1833 = ORIENTED_EDGE('',*,*,#1819,.F.);
#1834 = ORIENTED_EDGE('',*,*,#1769,.F.);
#1835 = CYLINDRICAL_SURFACE('',#1836,0.32);
#1836 = AXIS2_PLACEMENT_3D('',#1837,#1838,#1839);
#1837 = CARTESIAN_POINT('',(1.25,2.54,4.25));
#1838 = DIRECTION('',(-3.3E-16,1.1E-16,1.));
#1839 = DIRECTION('',(4.4E-16,-1.,1.1E-16));
#1840 = ADVANCED_FACE('',(#1841),#1860,.F.);
#1841 = FACE_BOUND('',#1842,.F.);
#1842 = EDGE_LOOP('',(#1843,#1851,#1858,#1859));
#1843 = ORIENTED_EDGE('',*,*,#1844,.T.);
#1844 = EDGE_CURVE('',#1781,#1845,#1847,.T.);
#1845 = VERTEX_POINT('',#1846);
#1846 = CARTESIAN_POINT('',(1.25,-0.32,-1.75));
#1847 = LINE('',#1848,#1849);
#1848 = CARTESIAN_POINT('',(1.25,-0.32,4.25));
#1849 = VECTOR('',#1850,1.);
#1850 = DIRECTION('',(5.5E-16,1.1E-16,-1.));
#1851 = ORIENTED_EDGE('',*,*,#1852,.T.);
#1852 = EDGE_CURVE('',#1845,#1845,#1853,.T.);
#1853 = CIRCLE('',#1854,0.32);
#1854 = AXIS2_PLACEMENT_3D('',#1855,#1856,#1857);
#1855 = CARTESIAN_POINT('',(1.25,2.22044604925E-15,-1.75));
#1856 = DIRECTION('',(1.1E-16,3.3E-16,1.));
#1857 = DIRECTION('',(2.2E-16,-1.,3.3E-16));
#1858 = ORIENTED_EDGE('',*,*,#1844,.F.);
#1859 = ORIENTED_EDGE('',*,*,#1780,.F.);
#1860 = CYLINDRICAL_SURFACE('',#1861,0.32);
#1861 = AXIS2_PLACEMENT_3D('',#1862,#1863,#1864);
#1862 = CARTESIAN_POINT('',(1.25,6.7E-16,4.25));
#1863 = DIRECTION('',(-3.3E-16,1.1E-16,1.));
#1864 = DIRECTION('',(4.4E-16,-1.,1.1E-16));
#1865 = ADVANCED_FACE('',(#1866),#1885,.F.);
#1866 = FACE_BOUND('',#1867,.F.);
#1867 = EDGE_LOOP('',(#1868,#1876,#1883,#1884));
#1868 = ORIENTED_EDGE('',*,*,#1869,.T.);
#1869 = EDGE_CURVE('',#1792,#1870,#1872,.T.);
#1870 = VERTEX_POINT('',#1871);
#1871 = CARTESIAN_POINT('',(1.25,-2.86,-1.75));
#1872 = LINE('',#1873,#1874);
#1873 = CARTESIAN_POINT('',(1.25,-2.86,4.25));
#1874 = VECTOR('',#1875,1.);
#1875 = DIRECTION('',(5.5E-16,1.1E-16,-1.));
#1876 = ORIENTED_EDGE('',*,*,#1877,.T.);
#1877 = EDGE_CURVE('',#1870,#1870,#1878,.T.);
#1878 = CIRCLE('',#1879,0.32);
#1879 = AXIS2_PLACEMENT_3D('',#1880,#1881,#1882);
#1880 = CARTESIAN_POINT('',(1.25,-2.54,-1.75));
#1881 = DIRECTION('',(1.1E-16,3.3E-16,1.));
#1882 = DIRECTION('',(2.2E-16,-1.,3.3E-16));
#1883 = ORIENTED_EDGE('',*,*,#1869,.F.);
#1884 = ORIENTED_EDGE('',*,*,#1791,.F.);
#1885 = CYLINDRICAL_SURFACE('',#1886,0.32);
#1886 = AXIS2_PLACEMENT_3D('',#1887,#1888,#1889);
#1887 = CARTESIAN_POINT('',(1.25,-2.54,4.25));
#1888 = DIRECTION('',(-3.3E-16,1.1E-16,1.));
#1889 = DIRECTION('',(4.4E-16,-1.,1.1E-16));
#1890 = ADVANCED_FACE('',(#1891),#1910,.F.);
#1891 = FACE_BOUND('',#1892,.F.);
#1892 = EDGE_LOOP('',(#1893,#1901,#1908,#1909));
#1893 = ORIENTED_EDGE('',*,*,#1894,.T.);
#1894 = EDGE_CURVE('',#1803,#1895,#1897,.T.);
#1895 = VERTEX_POINT('',#1896);
#1896 = CARTESIAN_POINT('',(1.25,-5.4,-1.75));
#1897 = LINE('',#1898,#1899);
#1898 = CARTESIAN_POINT('',(1.25,-5.4,4.25));
#1899 = VECTOR('',#1900,1.);
#1900 = DIRECTION('',(5.5E-16,1.1E-16,-1.));
#1901 = ORIENTED_EDGE('',*,*,#1902,.T.);
#1902 = EDGE_CURVE('',#1895,#1895,#1903,.T.);
#1903 = CIRCLE('',#1904,0.32);
#1904 = AXIS2_PLACEMENT_3D('',#1905,#1906,#1907);
#1905 = CARTESIAN_POINT('',(1.25,-5.08,-1.75));
#1906 = DIRECTION('',(1.1E-16,3.3E-16,1.));
#1907 = DIRECTION('',(2.2E-16,-1.,3.3E-16));
#1908 = ORIENTED_EDGE('',*,*,#1894,.F.);
#1909 = ORIENTED_EDGE('',*,*,#1802,.F.);
#1910 = CYLINDRICAL_SURFACE('',#1911,0.32);
#1911 = AXIS2_PLACEMENT_3D('',#1912,#1913,#1914);
#1912 = CARTESIAN_POINT('',(1.25,-5.08,4.25));
#1913 = DIRECTION('',(-3.3E-16,1.1E-16,1.));
#1914 = DIRECTION('',(4.4E-16,-1.,1.1E-16));
#1915 = ADVANCED_FACE('',(#1916),#1919,.T.);
#1916 = FACE_BOUND('',#1917,.T.);
#1917 = EDGE_LOOP('',(#1918));
#1918 = ORIENTED_EDGE('',*,*,#1827,.T.);
#1919 = PLANE('',#1920);
#1920 = AXIS2_PLACEMENT_3D('',#1921,#1922,#1923);
#1921 = CARTESIAN_POINT('',(1.25,5.329070518201E-15,-1.75));
#1922 = DIRECTION('',(-3.3E-16,-1.1E-16,1.));
#1923 = DIRECTION('',(1.,-2.2E-16,3.3E-16));
#1924 = ADVANCED_FACE('',(#1925),#1928,.T.);
#1925 = FACE_BOUND('',#1926,.T.);
#1926 = EDGE_LOOP('',(#1927));
#1927 = ORIENTED_EDGE('',*,*,#1852,.T.);
#1928 = PLANE('',#1929);
#1929 = AXIS2_PLACEMENT_3D('',#1930,#1931,#1932);
#1930 = CARTESIAN_POINT('',(1.25,5.329070518201E-15,-1.75));
#1931 = DIRECTION('',(-3.3E-16,-1.1E-16,1.));
#1932 = DIRECTION('',(1.,-2.2E-16,3.3E-16));
#1933 = ADVANCED_FACE('',(#1934),#1937,.T.);
#1934 = FACE_BOUND('',#1935,.T.);
#1935 = EDGE_LOOP('',(#1936));
#1936 = ORIENTED_EDGE('',*,*,#1877,.T.);
#1937 = PLANE('',#1938);
#1938 = AXIS2_PLACEMENT_3D('',#1939,#1940,#1941);
#1939 = CARTESIAN_POINT('',(1.25,5.329070518201E-15,-1.75));
#1940 = DIRECTION('',(-3.3E-16,-1.1E-16,1.));
#1941 = DIRECTION('',(1.,-2.2E-16,3.3E-16));
#1942 = ADVANCED_FACE('',(#1943),#1946,.T.);
#1943 = FACE_BOUND('',#1944,.T.);
#1944 = EDGE_LOOP('',(#1945));
#1945 = ORIENTED_EDGE('',*,*,#1902,.T.);
#1946 = PLANE('',#1947);
#1947 = AXIS2_PLACEMENT_3D('',#1948,#1949,#1950);
#1948 = CARTESIAN_POINT('',(1.25,5.329070518201E-15,-1.75));
#1949 = DIRECTION('',(-3.3E-16,-1.1E-16,1.));
#1950 = DIRECTION('',(1.,-2.2E-16,3.3E-16));
#1951 = ( GEOMETRIC_REPRESENTATION_CONTEXT(3) 
GLOBAL_UNCERTAINTY_ASSIGNED_CONTEXT((#1955)) 
GLOBAL_UNIT_ASSIGNED_CONTEXT((#1952,#1953,#1954)) REPRESENTATION_CONTEXT
('Context #1','3D Context with UNIT and UNCERTAINTY') );
#1952 = ( LENGTH_UNIT() NAMED_UNIT(*) SI_UNIT(.MILLI.,.METRE.) );
#1953 = ( NAMED_UNIT(*) PLANE_ANGLE_UNIT() SI_UNIT($,.RADIAN.) );
#1954 = ( NAMED_UNIT(*) SI_UNIT($,.STERADIAN.) SOLID_ANGLE_UNIT() );
#1955 = UNCERTAINTY_MEASURE_WITH_UNIT(LENGTH_MEASURE(5.E-06),#1952,
  'distance_accuracy_value','confusion accuracy');
#1956 = CONTEXT_DEPENDENT_SHAPE_REPRESENTATION(#1957,#1959);
#1957 = ( REPRESENTATION_RELATIONSHIP('','',#1620,#1558) 
REPRESENTATION_RELATIONSHIP_WITH_TRANSFORMATION(#1958) 
SHAPE_REPRESENTATION_RELATIONSHIP() );
#1958 = ITEM_DEFINED_TRANSFORMATION('','',#11,#1563);
#1959 = PRODUCT_DEFINITION_SHAPE('Placement','Placement of an item',
  #1960);
#1960 = NEXT_ASSEMBLY_USAGE_OCCURRENCE('16','Parte plastica001','',#1553
  ,#1615,$);
#1961 = PRODUCT_RELATED_PRODUCT_CATEGORY('part',$,(#1617));
#1962 = SHAPE_DEFINITION_REPRESENTATION(#1963,#1969);
#1963 = PRODUCT_DEFINITION_SHAPE('','',#1964);
#1964 = PRODUCT_DEFINITION('design','',#1965,#1968);
#1965 = PRODUCT_DEFINITION_FORMATION('','',#1966);
#1966 = PRODUCT('Parte metalica','Parte metalica','',(#1967));
#1967 = PRODUCT_CONTEXT('',#2,'mechanical');
#1968 = PRODUCT_DEFINITION_CONTEXT('part definition',#2,'design');
#1969 = ADVANCED_BREP_SHAPE_REPRESENTATION('',(#11,#1970),#2023);
#1970 = MANIFOLD_SOLID_BREP('',#1971);
#1971 = CLOSED_SHELL('',(#1972,#2005,#2014));
#1972 = ADVANCED_FACE('',(#1973),#2000,.T.);
#1973 = FACE_BOUND('',#1974,.F.);
#1974 = EDGE_LOOP('',(#1975,#1985,#1992,#1993));
#1975 = ORIENTED_EDGE('',*,*,#1976,.T.);
#1976 = EDGE_CURVE('',#1977,#1979,#1981,.T.);
#1977 = VERTEX_POINT('',#1978);
#1978 = CARTESIAN_POINT('',(0.325,0.,0.));
#1979 = VERTEX_POINT('',#1980);
#1980 = CARTESIAN_POINT('',(0.325,0.,3.));
#1981 = LINE('',#1982,#1983);
#1982 = CARTESIAN_POINT('',(0.325,0.,0.));
#1983 = VECTOR('',#1984,1.);
#1984 = DIRECTION('',(0.,0.,1.));
#1985 = ORIENTED_EDGE('',*,*,#1986,.T.);
#1986 = EDGE_CURVE('',#1979,#1979,#1987,.T.);
#1987 = CIRCLE('',#1988,0.325);
#1988 = AXIS2_PLACEMENT_3D('',#1989,#1990,#1991);
#1989 = CARTESIAN_POINT('',(0.,0.,3.));
#1990 = DIRECTION('',(0.,0.,1.));
#1991 = DIRECTION('',(1.,0.,0.));
#1992 = ORIENTED_EDGE('',*,*,#1976,.F.);
#1993 = ORIENTED_EDGE('',*,*,#1994,.F.);
#1994 = EDGE_CURVE('',#1977,#1977,#1995,.T.);
#1995 = CIRCLE('',#1996,0.325);
#1996 = AXIS2_PLACEMENT_3D('',#1997,#1998,#1999);
#1997 = CARTESIAN_POINT('',(0.,0.,0.));
#1998 = DIRECTION('',(0.,0.,1.));
#1999 = DIRECTION('',(1.,0.,0.));
#2000 = CYLINDRICAL_SURFACE('',#2001,0.325);
#2001 = AXIS2_PLACEMENT_3D('',#2002,#2003,#2004);
#2002 = CARTESIAN_POINT('',(0.,0.,0.));
#2003 = DIRECTION('',(-0.,-0.,-1.));
#2004 = DIRECTION('',(1.,0.,0.));
#2005 = ADVANCED_FACE('',(#2006),#2009,.F.);
#2006 = FACE_BOUND('',#2007,.F.);
#2007 = EDGE_LOOP('',(#2008));
#2008 = ORIENTED_EDGE('',*,*,#1994,.T.);
#2009 = PLANE('',#2010);
#2010 = AXIS2_PLACEMENT_3D('',#2011,#2012,#2013);
#2011 = CARTESIAN_POINT('',(-2.E-17,2.E-17,0.));
#2012 = DIRECTION('',(0.,0.,1.));
#2013 = DIRECTION('',(1.,0.,0.));
#2014 = ADVANCED_FACE('',(#2015),#2018,.T.);
#2015 = FACE_BOUND('',#2016,.T.);
#2016 = EDGE_LOOP('',(#2017));
#2017 = ORIENTED_EDGE('',*,*,#1986,.T.);
#2018 = PLANE('',#2019);
#2019 = AXIS2_PLACEMENT_3D('',#2020,#2021,#2022);
#2020 = CARTESIAN_POINT('',(-2.E-17,2.E-17,3.));
#2021 = DIRECTION('',(0.,0.,1.));
#2022 = DIRECTION('',(1.,0.,0.));
#2023 = ( GEOMETRIC_REPRESENTATION_CONTEXT(3) 
GLOBAL_UNCERTAINTY_ASSIGNED_CONTEXT((#2027)) 
GLOBAL_UNIT_ASSIGNED_CONTEXT((#2024,#2025,#2026)) REPRESENTATION_CONTEXT
('Context #1','3D Context with UNIT and UNCERTAINTY') );
#2024 = ( LENGTH_UNIT() NAMED_UNIT(*) SI_UNIT(.MILLI.,.METRE.) );
#2025 = ( NAMED_UNIT(*) PLANE_ANGLE_UNIT() SI_UNIT($,.RADIAN.) );
#2026 = ( NAMED_UNIT(*) SI_UNIT($,.STERADIAN.) SOLID_ANGLE_UNIT() );
#2027 = UNCERTAINTY_MEASURE_WITH_UNIT(LENGTH_MEASURE(1.E-07),#2024,
  'distance_accuracy_value','confusion accuracy');
#2028 = CONTEXT_DEPENDENT_SHAPE_REPRESENTATION(#2029,#2031);
#2029 = ( REPRESENTATION_RELATIONSHIP('','',#1969,#1558) 
REPRESENTATION_RELATIONSHIP_WITH_TRANSFORMATION(#2030) 
SHAPE_REPRESENTATION_RELATIONSHIP() );
#2030 = ITEM_DEFINED_TRANSFORMATION('','',#11,#1567);
#2031 = PRODUCT_DEFINITION_SHAPE('Placement','Placement of an item',
  #2032);
#2032 = NEXT_ASSEMBLY_USAGE_OCCURRENCE('17','Parte metalica001','',#1553
  ,#1964,$);
#2033 = PRODUCT_RELATED_PRODUCT_CATEGORY('part',$,(#1966));
#2034 = CONTEXT_DEPENDENT_SHAPE_REPRESENTATION(#2035,#2037);
#2035 = ( REPRESENTATION_RELATIONSHIP('','',#1969,#1558) 
REPRESENTATION_RELATIONSHIP_WITH_TRANSFORMATION(#2036) 
SHAPE_REPRESENTATION_RELATIONSHIP() );
#2036 = ITEM_DEFINED_TRANSFORMATION('','',#11,#1571);
#2037 = PRODUCT_DEFINITION_SHAPE('Placement','Placement of an item',
  #2038);
#2038 = NEXT_ASSEMBLY_USAGE_OCCURRENCE('18','Parte metalica002','',#1553
  ,#1964,$);
#2039 = CONTEXT_DEPENDENT_SHAPE_REPRESENTATION(#2040,#2042);
#2040 = ( REPRESENTATION_RELATIONSHIP('','',#1969,#1558) 
REPRESENTATION_RELATIONSHIP_WITH_TRANSFORMATION(#2041) 
SHAPE_REPRESENTATION_RELATIONSHIP() );
#2041 = ITEM_DEFINED_TRANSFORMATION('','',#11,#1575);
#2042 = PRODUCT_DEFINITION_SHAPE('Placement','Placement of an item',
  #2043);
#2043 = NEXT_ASSEMBLY_USAGE_OCCURRENCE('19','Parte metalica003','',#1553
  ,#1964,$);
#2044 = CONTEXT_DEPENDENT_SHAPE_REPRESENTATION(#2045,#2047);
#2045 = ( REPRESENTATION_RELATIONSHIP('','',#1969,#1558) 
REPRESENTATION_RELATIONSHIP_WITH_TRANSFORMATION(#2046) 
SHAPE_REPRESENTATION_RELATIONSHIP() );
#2046 = ITEM_DEFINED_TRANSFORMATION('','',#11,#1579);
#2047 = PRODUCT_DEFINITION_SHAPE('Placement','Placement of an item',
  #2048);
#2048 = NEXT_ASSEMBLY_USAGE_OCCURRENCE('20','Parte metalica004','',#1553
  ,#1964,$);
#2049 = MECHANICAL_DESIGN_GEOMETRIC_PRESENTATION_REPRESENTATION('',(
    #2050),#1525);
#2050 = STYLED_ITEM('color',(#2051),#1472);
#2051 = PRESENTATION_STYLE_ASSIGNMENT((#2052,#2058));
#2052 = SURFACE_STYLE_USAGE(.BOTH.,#2053);
#2053 = SURFACE_SIDE_STYLE('',(#2054));
#2054 = SURFACE_STYLE_FILL_AREA(#2055);
#2055 = FILL_AREA_STYLE('',(#2056));
#2056 = FILL_AREA_STYLE_COLOUR('',#2057);
#2057 = COLOUR_RGB('',0.780392170416,0.568627474046,0.113725493293);
#2058 = CURVE_STYLE('',#2059,POSITIVE_LENGTH_MEASURE(0.1),#2060);
#2059 = DRAUGHTING_PRE_DEFINED_CURVE_FONT('continuous');
#2060 = COLOUR_RGB('',9.803921802644E-02,9.803921802644E-02,
  9.803921802644E-02);
#2061 = MECHANICAL_DESIGN_GEOMETRIC_PRESENTATION_REPRESENTATION('',(
    #2062),#1347);
#2062 = STYLED_ITEM('color',(#2063),#471);
#2063 = PRESENTATION_STYLE_ASSIGNMENT((#2064,#2070));
#2064 = SURFACE_STYLE_USAGE(.BOTH.,#2065);
#2065 = SURFACE_SIDE_STYLE('',(#2066));
#2066 = SURFACE_STYLE_FILL_AREA(#2067);
#2067 = FILL_AREA_STYLE('',(#2068));
#2068 = FILL_AREA_STYLE_COLOUR('',#2069);
#2069 = DRAUGHTING_PRE_DEFINED_COLOUR('black');
#2070 = CURVE_STYLE('',#2071,POSITIVE_LENGTH_MEASURE(0.1),#2060);
#2071 = DRAUGHTING_PRE_DEFINED_CURVE_FONT('continuous');
#2072 = MECHANICAL_DESIGN_GEOMETRIC_PRESENTATION_REPRESENTATION('',(
    #2073),#370);
#2073 = STYLED_ITEM('color',(#2074),#64);
#2074 = PRESENTATION_STYLE_ASSIGNMENT((#2075,#2081));
#2075 = SURFACE_STYLE_USAGE(.BOTH.,#2076);
#2076 = SURFACE_SIDE_STYLE('',(#2077));
#2077 = SURFACE_STYLE_FILL_AREA(#2078);
#2078 = FILL_AREA_STYLE('',(#2079));
#2079 = FILL_AREA_STYLE_COLOUR('',#2080);
#2080 = COLOUR_RGB('',0.,0.333333345507,0.);
#2081 = CURVE_STYLE('',#2082,POSITIVE_LENGTH_MEASURE(0.1),#2060);
#2082 = DRAUGHTING_PRE_DEFINED_CURVE_FONT('continuous');
#2083 = MECHANICAL_DESIGN_GEOMETRIC_PRESENTATION_REPRESENTATION('',(
    #2084),#1438);
#2084 = STYLED_ITEM('color',(#2085),#1385);
#2085 = PRESENTATION_STYLE_ASSIGNMENT((#2086,#2091));
#2086 = SURFACE_STYLE_USAGE(.BOTH.,#2087);
#2087 = SURFACE_SIDE_STYLE('',(#2088));
#2088 = SURFACE_STYLE_FILL_AREA(#2089);
#2089 = FILL_AREA_STYLE('',(#2090));
#2090 = FILL_AREA_STYLE_COLOUR('',#2057);
#2091 = CURVE_STYLE('',#2092,POSITIVE_LENGTH_MEASURE(0.1),#2060);
#2092 = DRAUGHTING_PRE_DEFINED_CURVE_FONT('continuous');
#2093 = MECHANICAL_DESIGN_GEOMETRIC_PRESENTATION_REPRESENTATION('',(
    #2094),#1951);
#2094 = STYLED_ITEM('color',(#2095),#1621);
#2095 = PRESENTATION_STYLE_ASSIGNMENT((#2096,#2101));
#2096 = SURFACE_STYLE_USAGE(.BOTH.,#2097);
#2097 = SURFACE_SIDE_STYLE('',(#2098));
#2098 = SURFACE_STYLE_FILL_AREA(#2099);
#2099 = FILL_AREA_STYLE('',(#2100));
#2100 = FILL_AREA_STYLE_COLOUR('',#2069);
#2101 = CURVE_STYLE('',#2102,POSITIVE_LENGTH_MEASURE(0.1),#2060);
#2102 = DRAUGHTING_PRE_DEFINED_CURVE_FONT('continuous');
#2103 = MECHANICAL_DESIGN_GEOMETRIC_PRESENTATION_REPRESENTATION('',(
    #2104),#2023);
#2104 = STYLED_ITEM('color',(#2105),#1970);
#2105 = PRESENTATION_STYLE_ASSIGNMENT((#2106,#2111));
#2106 = SURFACE_STYLE_USAGE(.BOTH.,#2107);
#2107 = SURFACE_SIDE_STYLE('',(#2108));
#2108 = SURFACE_STYLE_FILL_AREA(#2109);
#2109 = FILL_AREA_STYLE('',(#2110));
#2110 = FILL_AREA_STYLE_COLOUR('',#2057);
#2111 = CURVE_STYLE('',#2112,POSITIVE_LENGTH_MEASURE(0.1),#2060);
#2112 = DRAUGHTING_PRE_DEFINED_CURVE_FONT('continuous');
ENDSEC;
END-ISO-10303-21;
