M48
; DRILL file {KiCad 9.0.4} date 2026-01-27T15:26:07-0500
; FORMAT={-:-/ absolute / metric / decimal}
; #@! TF.CreationDate,2026-01-27T15:26:07-05:00
; #@! TF.GenerationSoftware,Kicad,Pcbnew,9.0.4
; #@! TF.FileFunction,Plated,1,2,PTH
FMAT,2
METRIC
; #@! TA.AperFunction,Plated,PTH,ComponentDrill
T1C0.600
; #@! TA.AperFunction,Plated,PTH,ComponentDrill
T2C0.750
; #@! TA.AperFunction,Plated,PTH,ComponentDrill
T3C0.800
; #@! TA.AperFunction,Plated,PTH,ComponentDrill
T4C1.000
; #@! TA.AperFunction,Plated,PTH,ComponentDrill
T5C4.500
%
G90
G05
T1
X203.0Y-82.6
X205.0Y-82.6
T2
X222.8Y-67.0
X224.8Y-67.0
T3
X149.6Y-72.195
X149.6Y-74.695
X155.2Y-73.9
X155.2Y-78.9
X170.5Y-129.2
X173.0Y-129.2
X179.3Y-128.2
X181.8Y-128.2
X185.9Y-126.0
X190.9Y-126.0
X194.2Y-82.0
X199.2Y-82.0
X205.8Y-87.6
X210.8Y-87.6
X215.9Y-86.4
X218.4Y-86.4
X222.4Y-127.0
X222.4Y-130.5
X226.0Y-106.905
X226.0Y-109.405
X229.8Y-118.7
X229.8Y-123.7
X230.0Y-111.1
X230.0Y-116.1
T4
X140.8Y-108.46
X140.8Y-111.0
X140.8Y-113.54
X147.995Y-97.255
X147.995Y-122.655
X150.535Y-97.255
X150.535Y-122.655
X153.075Y-97.255
X153.075Y-122.655
X155.615Y-97.255
X155.615Y-122.655
X158.155Y-97.255
X158.155Y-122.655
X158.985Y-73.155
X158.985Y-75.695
X158.985Y-78.235
X158.985Y-80.775
X160.695Y-97.255
X160.695Y-122.655
X163.235Y-97.255
X163.235Y-122.655
X165.775Y-97.255
X165.775Y-122.655
X168.315Y-97.255
X168.315Y-122.655
X170.855Y-97.255
X170.855Y-122.655
X173.395Y-97.255
X173.395Y-122.655
X175.935Y-97.255
X175.935Y-122.655
X178.475Y-97.255
X178.475Y-122.655
X181.015Y-97.255
X181.015Y-122.655
X183.555Y-97.255
X183.555Y-122.655
X186.095Y-97.255
X186.095Y-122.655
X188.635Y-97.255
X188.635Y-122.655
X191.175Y-97.255
X191.175Y-122.655
X193.715Y-97.255
X193.715Y-122.655
X194.74Y-77.2
X197.28Y-77.2
X199.82Y-77.2
X202.36Y-77.2
X202.895Y-120.255
X202.895Y-122.795
X202.945Y-108.105
X202.945Y-110.645
X204.24Y-92.93
X204.24Y-95.47
X204.24Y-98.01
X204.24Y-100.55
X204.9Y-77.2
X207.44Y-77.2
X209.98Y-77.2
X211.84Y-92.93
X211.84Y-95.47
X211.84Y-98.01
X211.84Y-100.55
X212.52Y-77.2
X215.06Y-77.2
X217.6Y-77.2
X219.545Y-108.105
X219.545Y-110.645
X219.545Y-120.305
X219.545Y-122.845
X234.0Y-110.9
X234.0Y-113.44
X234.0Y-115.98
X234.0Y-118.52
X234.0Y-121.06
X234.0Y-123.6
T5
X141.8Y-79.4
X141.8Y-86.6
X230.8Y-77.2
X230.8Y-84.4
M30
