M48
; DRILL file {KiCad 9.0.4} date 2026-02-07T12:31:01-0500
; FORMAT={-:-/ absolute / metric / decimal}
; #@! TF.CreationDate,2026-02-07T12:31:01-05:00
; #@! TF.GenerationSoftware,Kicad,Pcbnew,9.0.4
; #@! TF.FileFunction,Plated,1,2,PTH
FMAT,2
METRIC
; #@! TA.AperFunction,Plated,PTH,ComponentDrill
T1C0.600
; #@! TA.AperFunction,Plated,PTH,ComponentDrill
T2C0.750
; #@! TA.AperFunction,Plated,PTH,ComponentDrill
T3C0.800
; #@! TA.AperFunction,Plated,PTH,ComponentDrill
T4C1.000
; #@! TA.AperFunction,Plated,PTH,ComponentDrill
T5C4.500
%
G90
G05
T1
X103.06Y-96.81
X105.06Y-96.81
T2
X128.975Y-148.6
X130.975Y-148.6
T3
X93.72Y-95.77
X98.72Y-95.77
X122.565Y-138.33
X124.12Y-80.61
X125.065Y-138.33
X129.12Y-80.61
X130.06Y-131.43
X131.82Y-138.92
X133.98Y-79.53
X134.32Y-138.92
X135.06Y-131.43
X136.48Y-79.53
X160.34Y-119.763
X160.34Y-123.263
X165.86Y-100.35
X165.86Y-102.85
X169.9Y-115.98
X169.9Y-118.48
X172.59Y-96.81
X172.59Y-101.81
X173.67Y-130.77
X173.67Y-135.77
X173.89Y-122.68
X173.89Y-127.68
T4
X86.12Y-100.38
X86.12Y-102.92
X86.12Y-105.46
X93.31Y-102.12
X93.31Y-127.52
X95.405Y-90.65
X95.85Y-102.12
X95.85Y-127.52
X97.945Y-90.65
X98.39Y-102.12
X98.39Y-127.52
X100.485Y-90.65
X100.93Y-102.12
X100.93Y-127.52
X103.025Y-90.65
X103.47Y-102.12
X103.47Y-127.52
X105.565Y-90.65
X106.01Y-102.12
X106.01Y-127.52
X108.105Y-90.65
X108.55Y-102.12
X108.55Y-127.52
X110.645Y-90.65
X111.09Y-102.12
X111.09Y-127.52
X113.185Y-90.65
X113.63Y-102.12
X113.63Y-127.52
X115.725Y-90.65
X116.17Y-102.12
X116.17Y-127.52
X118.265Y-90.65
X118.71Y-102.12
X118.71Y-127.52
X121.25Y-102.12
X121.25Y-127.52
X123.79Y-102.12
X123.79Y-127.52
X125.355Y-86.41
X125.355Y-88.95
X125.355Y-91.49
X125.355Y-94.03
X126.33Y-102.12
X126.33Y-127.52
X127.895Y-86.41
X127.895Y-88.95
X127.895Y-91.49
X127.895Y-94.03
X128.87Y-102.12
X128.87Y-127.52
X131.41Y-102.12
X131.41Y-127.52
X133.95Y-102.12
X133.95Y-127.52
X136.49Y-102.12
X136.49Y-127.52
X139.03Y-102.12
X139.03Y-127.52
X153.846Y-128.899
X153.846Y-147.441
X156.386Y-128.899
X156.386Y-147.441
X164.514Y-128.899
X164.514Y-147.441
X167.054Y-128.899
X167.054Y-147.441
X178.75Y-120.13
X178.75Y-122.67
X178.75Y-125.21
X178.75Y-127.75
X178.75Y-130.29
X178.75Y-132.83
X179.08Y-95.4
X179.08Y-97.94
X179.08Y-100.48
X179.08Y-103.02
T5
X97.61Y-137.89
X97.61Y-145.09
X144.13Y-137.53
X144.13Y-144.73
M30
