%TF.GenerationSoftware,KiCad,Pcbnew,9.0.4*%
%TF.CreationDate,2026-03-07T23:47:25-03:00*%
%TF.ProjectId,XDF-001,5844462d-3030-4312-9e6b-696361645f70,rev?*%
%TF.SameCoordinates,Original*%
%TF.FileFunction,Soldermask,Bot*%
%TF.FilePolarity,Negative*%
%FSLAX46Y46*%
G04 Gerber Fmt 4.6, Leading zero omitted, Abs format (unit mm)*
G04 Created by KiCad (PCBNEW 9.0.4) date 2026-03-07 23:47:25*
%MOMM*%
%LPD*%
G01*
G04 APERTURE LIST*
G04 Aperture macros list*
%AMRoundRect*
0 Rectangle with rounded corners*
0 $1 Rounding radius*
0 $2 $3 $4 $5 $6 $7 $8 $9 X,Y pos of 4 corners*
0 Add a 4 corners polygon primitive as box body*
4,1,4,$2,$3,$4,$5,$6,$7,$8,$9,$2,$3,0*
0 Add four circle primitives for the rounded corners*
1,1,$1+$1,$2,$3*
1,1,$1+$1,$4,$5*
1,1,$1+$1,$6,$7*
1,1,$1+$1,$8,$9*
0 Add four rect primitives between the rounded corners*
20,1,$1+$1,$2,$3,$4,$5,0*
20,1,$1+$1,$4,$5,$6,$7,0*
20,1,$1+$1,$6,$7,$8,$9,0*
20,1,$1+$1,$8,$9,$2,$3,0*%
G04 Aperture macros list end*
%ADD10C,1.600000*%
%ADD11RoundRect,0.250000X-0.550000X-0.550000X0.550000X-0.550000X0.550000X0.550000X-0.550000X0.550000X0*%
%ADD12RoundRect,0.250000X0.550000X-0.550000X0.550000X0.550000X-0.550000X0.550000X-0.550000X-0.550000X0*%
%ADD13RoundRect,0.250000X0.550000X0.550000X-0.550000X0.550000X-0.550000X-0.550000X0.550000X-0.550000X0*%
%ADD14RoundRect,0.250000X-0.550000X0.550000X-0.550000X-0.550000X0.550000X-0.550000X0.550000X0.550000X0*%
%ADD15C,1.500000*%
%ADD16C,3.200000*%
%ADD17RoundRect,0.250000X0.350000X0.625000X-0.350000X0.625000X-0.350000X-0.625000X0.350000X-0.625000X0*%
%ADD18O,1.200000X1.750000*%
%ADD19RoundRect,1.500000X1.500000X-1.500000X1.500000X1.500000X-1.500000X1.500000X-1.500000X-1.500000X0*%
%ADD20C,6.000000*%
%ADD21R,1.700000X1.700000*%
%ADD22C,1.700000*%
G04 APERTURE END LIST*
D10*
%TO.C,C7*%
X132710000Y-131340000D03*
X135210000Y-131340000D03*
%TD*%
D11*
%TO.C,C13*%
X150637621Y-115200000D03*
D10*
X153137621Y-115200000D03*
%TD*%
D12*
%TO.C,C12*%
X160340000Y-123090000D03*
D10*
X160340000Y-119590000D03*
%TD*%
%TO.C,C11*%
X173590000Y-135970000D03*
X173590000Y-133470000D03*
%TD*%
D11*
%TO.C,C10*%
X170080000Y-121800000D03*
D10*
X172080000Y-121800000D03*
%TD*%
%TO.C,C9*%
X173590000Y-127740000D03*
X173590000Y-130240000D03*
%TD*%
D13*
%TO.C,C8*%
X134300000Y-138520000D03*
D10*
X131800000Y-138520000D03*
%TD*%
%TO.C,C6*%
X103150000Y-96920000D03*
X105650000Y-96920000D03*
%TD*%
%TO.C,C5*%
X93840000Y-95870000D03*
X96340000Y-95870000D03*
%TD*%
D14*
%TO.C,C4*%
X165960000Y-100460000D03*
D10*
X165960000Y-102460000D03*
%TD*%
%TO.C,C3*%
X172590000Y-96810000D03*
X172590000Y-99310000D03*
%TD*%
D11*
%TO.C,C2*%
X134230000Y-80230000D03*
D10*
X136730000Y-80230000D03*
%TD*%
%TO.C,C1*%
X124190000Y-80650000D03*
X126690000Y-80650000D03*
%TD*%
D15*
%TO.C,U8*%
X178750000Y-120130000D03*
X178750000Y-122670000D03*
X178750000Y-125210000D03*
X178750000Y-127750000D03*
X178750000Y-130290000D03*
X178750000Y-132830000D03*
%TD*%
%TO.C,MP1548EN2*%
X153846000Y-147441000D03*
X156386000Y-147441000D03*
X164514000Y-147441000D03*
X167054000Y-147441000D03*
X153846000Y-128899000D03*
X156386000Y-128899000D03*
X164514000Y-128899000D03*
X167054000Y-128899000D03*
%TD*%
D16*
%TO.C,REF\u002A\u002A2*%
X178400000Y-80800000D03*
%TD*%
D17*
%TO.C,J4*%
X130975000Y-148600000D03*
D18*
X128975000Y-148600000D03*
%TD*%
D15*
%TO.C,U6*%
X93310000Y-127520000D03*
X93310000Y-102120000D03*
X95850000Y-127520000D03*
X95850000Y-102120000D03*
X98390000Y-127520000D03*
X98390000Y-102120000D03*
X100930000Y-127520000D03*
X100930000Y-102120000D03*
X103470000Y-127520000D03*
X103470000Y-102120000D03*
X106010000Y-127520000D03*
X106010000Y-102120000D03*
X108550000Y-127520000D03*
X108550000Y-102120000D03*
X111090000Y-127520000D03*
X111090000Y-102120000D03*
X113630000Y-127520000D03*
X113630000Y-102120000D03*
X116170000Y-127520000D03*
X116170000Y-102120000D03*
X118710000Y-127520000D03*
X118710000Y-102120000D03*
X121250000Y-127520000D03*
X121250000Y-102120000D03*
X123790000Y-127520000D03*
X123790000Y-102120000D03*
X126330000Y-127520000D03*
X126330000Y-102120000D03*
X128870000Y-127520000D03*
X128870000Y-102120000D03*
X131410000Y-127520000D03*
X131410000Y-102120000D03*
X133950000Y-127520000D03*
X133950000Y-102120000D03*
X136490000Y-127520000D03*
X136490000Y-102120000D03*
X139030000Y-127520000D03*
X139030000Y-102120000D03*
%TD*%
%TO.C,U10*%
X95405000Y-90650000D03*
X97945000Y-90650000D03*
X100485000Y-90650000D03*
X103025000Y-90650000D03*
X105565000Y-90650000D03*
X108105000Y-90650000D03*
X110645000Y-90650000D03*
X113185000Y-90650000D03*
X115725000Y-90650000D03*
X118265000Y-90650000D03*
%TD*%
D19*
%TO.C,J1*%
X144130000Y-144730000D03*
D20*
X144130000Y-137530000D03*
%TD*%
D16*
%TO.C,REF\u002A\u002A3*%
X88400000Y-145800000D03*
%TD*%
%TO.C,REF\u002A\u002A*%
X178400000Y-145800000D03*
%TD*%
D15*
%TO.C,U7*%
X125240000Y-87680000D03*
X127780000Y-87680000D03*
X125240000Y-90220000D03*
X127780000Y-90220000D03*
X125240000Y-92760000D03*
X127780000Y-92760000D03*
X125240000Y-95300000D03*
X127780000Y-95300000D03*
%TD*%
D16*
%TO.C,REF\u002A\u002A1*%
X88400000Y-80800000D03*
%TD*%
D21*
%TO.C,J2*%
X86120000Y-100380000D03*
D22*
X86120000Y-102920000D03*
X86120000Y-105460000D03*
%TD*%
D15*
%TO.C,U9*%
X179080000Y-95400000D03*
X179080000Y-97940000D03*
X179080000Y-100480000D03*
X179080000Y-103020000D03*
%TD*%
D19*
%TO.C,J3*%
X97610000Y-145090000D03*
D20*
X97610000Y-137890000D03*
%TD*%
M02*
