%TF.GenerationSoftware,KiCad,Pcbnew,9.0.4*%
%TF.CreationDate,2026-02-07T12:31:06-05:00*%
%TF.ProjectId,XDF-001,5844462d-3030-4312-9e6b-696361645f70,rev?*%
%TF.SameCoordinates,Original*%
%TF.FileFunction,Copper,L2,Bot*%
%TF.FilePolarity,Positive*%
%FSLAX46Y46*%
G04 Gerber Fmt 4.6, Leading zero omitted, Abs format (unit mm)*
G04 Created by KiCad (PCBNEW 9.0.4) date 2026-02-07 12:31:06*
%MOMM*%
%LPD*%
G01*
G04 APERTURE LIST*
G04 Aperture macros list*
%AMRoundRect*
0 Rectangle with rounded corners*
0 $1 Rounding radius*
0 $2 $3 $4 $5 $6 $7 $8 $9 X,Y pos of 4 corners*
0 Add a 4 corners polygon primitive as box body*
4,1,4,$2,$3,$4,$5,$6,$7,$8,$9,$2,$3,0*
0 Add four circle primitives for the rounded corners*
1,1,$1+$1,$2,$3*
1,1,$1+$1,$4,$5*
1,1,$1+$1,$6,$7*
1,1,$1+$1,$8,$9*
0 Add four rect primitives between the rounded corners*
20,1,$1+$1,$2,$3,$4,$5,0*
20,1,$1+$1,$4,$5,$6,$7,0*
20,1,$1+$1,$6,$7,$8,$9,0*
20,1,$1+$1,$8,$9,$2,$3,0*%
G04 Aperture macros list end*
%TA.AperFunction,ComponentPad*%
%ADD10C,1.500000*%
%TD*%
%TA.AperFunction,ComponentPad*%
%ADD11RoundRect,0.250000X0.350000X0.625000X-0.350000X0.625000X-0.350000X-0.625000X0.350000X-0.625000X0*%
%TD*%
%TA.AperFunction,ComponentPad*%
%ADD12O,1.200000X1.750000*%
%TD*%
%TA.AperFunction,ComponentPad*%
%ADD13RoundRect,1.500000X1.500000X-1.500000X1.500000X1.500000X-1.500000X1.500000X-1.500000X-1.500000X0*%
%TD*%
%TA.AperFunction,ComponentPad*%
%ADD14C,6.000000*%
%TD*%
%TA.AperFunction,ComponentPad*%
%ADD15R,1.700000X1.700000*%
%TD*%
%TA.AperFunction,ComponentPad*%
%ADD16C,1.700000*%
%TD*%
%TA.AperFunction,ComponentPad*%
%ADD17RoundRect,0.250000X0.550000X0.550000X-0.550000X0.550000X-0.550000X-0.550000X0.550000X-0.550000X0*%
%TD*%
%TA.AperFunction,ComponentPad*%
%ADD18C,1.600000*%
%TD*%
%TA.AperFunction,ComponentPad*%
%ADD19RoundRect,0.250000X0.550000X-0.550000X0.550000X0.550000X-0.550000X0.550000X-0.550000X-0.550000X0*%
%TD*%
%TA.AperFunction,ComponentPad*%
%ADD20RoundRect,0.250000X-0.550000X-0.550000X0.550000X-0.550000X0.550000X0.550000X-0.550000X0.550000X0*%
%TD*%
%TA.AperFunction,ComponentPad*%
%ADD21RoundRect,0.250000X-0.350000X-0.350000X0.350000X-0.350000X0.350000X0.350000X-0.350000X0.350000X0*%
%TD*%
%TA.AperFunction,ComponentPad*%
%ADD22C,1.200000*%
%TD*%
%TA.AperFunction,ComponentPad*%
%ADD23RoundRect,0.250000X-0.550000X0.550000X-0.550000X-0.550000X0.550000X-0.550000X0.550000X0.550000X0*%
%TD*%
%TA.AperFunction,Conductor*%
%ADD24C,0.250000*%
%TD*%
%TA.AperFunction,Conductor*%
%ADD25C,1.000000*%
%TD*%
G04 APERTURE END LIST*
D10*
%TO.P,MP1548EN2,1,IN-*%
%TO.N,GND*%
X153846000Y-147441000D03*
%TO.P,MP1548EN2,2,IN-*%
X156386000Y-147441000D03*
%TO.P,MP1548EN2,3,IN+*%
%TO.N,+5V*%
X164514000Y-147441000D03*
%TO.P,MP1548EN2,4,IN+*%
X167054000Y-147441000D03*
%TO.P,MP1548EN2,5,OUT-*%
%TO.N,unconnected-(MP1548EN2-OUT--Pad5)*%
X153846000Y-128899000D03*
%TO.P,MP1548EN2,6,OUT-*%
%TO.N,GND*%
X156386000Y-128899000D03*
%TO.P,MP1548EN2,7,OUT+*%
%TO.N,unconnected-(MP1548EN2-OUT+-Pad7)*%
X164514000Y-128899000D03*
%TO.P,MP1548EN2,8,OUT+*%
%TO.N,+3.3V*%
X167054000Y-128899000D03*
%TD*%
%TO.P,U6,1,3V3*%
%TO.N,unconnected-(U6-3V3-Pad1)*%
X93310000Y-127520000D03*
%TO.P,U6,2,GND3*%
%TO.N,unconnected-(U6-GND3-Pad2)*%
X93310000Y-102120000D03*
%TO.P,U6,3,EN*%
%TO.N,unconnected-(U6-EN-Pad3)*%
X95850000Y-127520000D03*
%TO.P,U6,4,IO23*%
%TO.N,/MOSI*%
X95850000Y-102120000D03*
%TO.P,U6,5,SENSOR_VP*%
%TO.N,unconnected-(U6-SENSOR_VP-Pad5)*%
X98390000Y-127520000D03*
%TO.P,U6,6,IO22*%
%TO.N,/SCL_MPU*%
X98390000Y-102120000D03*
%TO.P,U6,7,SENSOR_VN*%
%TO.N,unconnected-(U6-SENSOR_VN-Pad7)*%
X100930000Y-127520000D03*
%TO.P,U6,8,TXD0*%
%TO.N,unconnected-(U6-TXD0-Pad8)*%
X100930000Y-102120000D03*
%TO.P,U6,9,IO34*%
%TO.N,unconnected-(U6-IO34-Pad9)*%
X103470000Y-127520000D03*
%TO.P,U6,10,RXD0*%
%TO.N,unconnected-(U6-RXD0-Pad10)*%
X103470000Y-102120000D03*
%TO.P,U6,11,IO35*%
%TO.N,unconnected-(U6-IO35-Pad11)*%
X106010000Y-127520000D03*
%TO.P,U6,12,IO21*%
%TO.N,/SDA_MPU*%
X106010000Y-102120000D03*
%TO.P,U6,13,IO32*%
%TO.N,/SDA_PCA*%
X108550000Y-127520000D03*
%TO.P,U6,14,GND2*%
%TO.N,unconnected-(U6-GND2-Pad14)*%
X108550000Y-102120000D03*
%TO.P,U6,15,IO33*%
%TO.N,unconnected-(U6-IO33-Pad15)*%
X111090000Y-127520000D03*
%TO.P,U6,16,IO19*%
%TO.N,/MISO*%
X111090000Y-102120000D03*
%TO.P,U6,17,IO25*%
%TO.N,unconnected-(U6-IO25-Pad17)*%
X113630000Y-127520000D03*
%TO.P,U6,18,IO18*%
%TO.N,/SCK*%
X113630000Y-102120000D03*
%TO.P,U6,19,IO26*%
%TO.N,/IRQ*%
X116170000Y-127520000D03*
%TO.P,U6,20,IO5*%
%TO.N,/CE*%
X116170000Y-102120000D03*
%TO.P,U6,21,IO27*%
%TO.N,/SCL_PCA*%
X118710000Y-127520000D03*
%TO.P,U6,22,IO17*%
%TO.N,/RX*%
X118710000Y-102120000D03*
%TO.P,U6,23,IO14*%
%TO.N,/MOTOR_SIGNAL*%
X121250000Y-127520000D03*
%TO.P,U6,24,IO16*%
%TO.N,/TX*%
X121250000Y-102120000D03*
%TO.P,U6,25,IO12*%
%TO.N,unconnected-(U6-IO12-Pad25)*%
X123790000Y-127520000D03*
%TO.P,U6,26,IO4*%
%TO.N,/CSN*%
X123790000Y-102120000D03*
%TO.P,U6,27,GND1*%
%TO.N,GND*%
X126330000Y-127520000D03*
%TO.P,U6,28,IO0*%
%TO.N,unconnected-(U6-IO0-Pad28)*%
X126330000Y-102120000D03*
%TO.P,U6,29,IO13*%
%TO.N,unconnected-(U6-IO13-Pad29)*%
X128870000Y-127520000D03*
%TO.P,U6,30,IO2*%
%TO.N,unconnected-(U6-IO2-Pad30)*%
X128870000Y-102120000D03*
%TO.P,U6,31,SD2*%
%TO.N,unconnected-(U6-SD2-Pad31)*%
X131410000Y-127520000D03*
%TO.P,U6,32,IO15*%
%TO.N,unconnected-(U6-IO15-Pad32)*%
X131410000Y-102120000D03*
%TO.P,U6,33,SD3*%
%TO.N,unconnected-(U6-SD3-Pad33)*%
X133950000Y-127520000D03*
%TO.P,U6,34,SD1*%
%TO.N,unconnected-(U6-SD1-Pad34)*%
X133950000Y-102120000D03*
%TO.P,U6,35,CMD*%
%TO.N,unconnected-(U6-CMD-Pad35)*%
X136490000Y-127520000D03*
%TO.P,U6,36,SD0*%
%TO.N,unconnected-(U6-SD0-Pad36)*%
X136490000Y-102120000D03*
%TO.P,U6,37,EXT_5V*%
%TO.N,+5V*%
X139030000Y-127520000D03*
%TO.P,U6,38,CLK*%
%TO.N,unconnected-(U6-CLK-Pad38)*%
X139030000Y-102120000D03*
%TD*%
%TO.P,U9,1,VCC*%
%TO.N,+3.3V*%
X179080000Y-95400000D03*
%TO.P,U9,2,RXD1*%
%TO.N,/RX*%
X179080000Y-97940000D03*
%TO.P,U9,3,TXD1*%
%TO.N,/TX*%
X179080000Y-100480000D03*
%TO.P,U9,4,GND*%
%TO.N,GND*%
X179080000Y-103020000D03*
%TD*%
%TO.P,U8,1,GND*%
%TO.N,GND*%
X178750000Y-120130000D03*
%TO.P,U8,2,~{OE}*%
X178750000Y-122670000D03*
%TO.P,U8,3,SCL*%
%TO.N,/SCL_PCA*%
X178750000Y-125210000D03*
%TO.P,U8,4,SDA*%
%TO.N,/SDA_PCA*%
X178750000Y-127750000D03*
%TO.P,U8,5,VCC*%
%TO.N,+3.3V*%
X178750000Y-130290000D03*
%TO.P,U8,6,V+*%
%TO.N,+5V*%
X178750000Y-132830000D03*
%TD*%
%TO.P,U10,1,VDD*%
%TO.N,+3.3V*%
X95405000Y-90650000D03*
%TO.P,U10,2,GND*%
%TO.N,GND*%
X97945000Y-90650000D03*
%TO.P,U10,3,SCL/SCLK*%
%TO.N,/SCL_MPU*%
X100485000Y-90650000D03*
%TO.P,U10,4,SDA/SDI*%
%TO.N,/SDA_MPU*%
X103025000Y-90650000D03*
%TO.P,U10,5,AUX_CL*%
%TO.N,unconnected-(U10-AUX_CL-Pad5)*%
X105565000Y-90650000D03*
%TO.P,U10,6,AUX_DA*%
%TO.N,unconnected-(U10-AUX_DA-Pad6)*%
X108105000Y-90650000D03*
%TO.P,U10,7,AD0/SDO*%
%TO.N,unconnected-(U10-AD0{slash}SDO-Pad7)*%
X110645000Y-90650000D03*
%TO.P,U10,8,INT*%
%TO.N,unconnected-(U10-INT-Pad8)*%
X113185000Y-90650000D03*
%TO.P,U10,9,NC*%
%TO.N,unconnected-(U10-NC-Pad9)*%
X115725000Y-90650000D03*
%TO.P,U10,10,FSYNC*%
%TO.N,unconnected-(U10-FSYNC-Pad10)*%
X118265000Y-90650000D03*
%TD*%
%TO.P,U7,1,VCC*%
%TO.N,+3.3V*%
X125355000Y-86410000D03*
%TO.P,U7,2,GND*%
%TO.N,GND*%
X127895000Y-86410000D03*
%TO.P,U7,3,CSN*%
%TO.N,/CSN*%
X125355000Y-88950000D03*
%TO.P,U7,4,CE*%
%TO.N,/CE*%
X127895000Y-88950000D03*
%TO.P,U7,5,MOSI*%
%TO.N,/MOSI*%
X125355000Y-91490000D03*
%TO.P,U7,6,SCK*%
%TO.N,/SCK*%
X127895000Y-91490000D03*
%TO.P,U7,7,~{IRQ}*%
%TO.N,/IRQ*%
X125355000Y-94030000D03*
%TO.P,U7,8,MISO*%
%TO.N,/MISO*%
X127895000Y-94030000D03*
%TD*%
D11*
%TO.P,J4,1,Pin_1*%
%TO.N,+8V*%
X130975000Y-148600000D03*
D12*
%TO.P,J4,2,Pin_2*%
%TO.N,GND2*%
X128975000Y-148600000D03*
%TD*%
D13*
%TO.P,J3,1,Pin_1*%
%TO.N,+8V*%
X97610000Y-145090000D03*
D14*
%TO.P,J3,2,Pin_2*%
%TO.N,GND2*%
X97610000Y-137890000D03*
%TD*%
D15*
%TO.P,J2,1,Pin_1*%
%TO.N,+5V*%
X86120000Y-100380000D03*
D16*
%TO.P,J2,2,Pin_2*%
%TO.N,/MOTOR_SIGNAL*%
X86120000Y-102920000D03*
%TO.P,J2,3,Pin_3*%
%TO.N,GND*%
X86120000Y-105460000D03*
%TD*%
D13*
%TO.P,J1,1,Pin_1*%
%TO.N,+8V*%
X144130000Y-144730000D03*
D14*
%TO.P,J1,2,Pin_2*%
%TO.N,GND2*%
X144130000Y-137530000D03*
%TD*%
D17*
%TO.P,C13,1*%
%TO.N,+5V*%
X134320000Y-138920000D03*
D18*
%TO.P,C13,2*%
%TO.N,GND*%
X131820000Y-138920000D03*
%TD*%
D19*
%TO.P,C12,1*%
%TO.N,+5V*%
X160340000Y-123262651D03*
D18*
%TO.P,C12,2*%
%TO.N,GND*%
X160340000Y-119762651D03*
%TD*%
%TO.P,C11,1*%
%TO.N,+5V*%
X173670000Y-135770000D03*
%TO.P,C11,2*%
%TO.N,GND*%
X173670000Y-130770000D03*
%TD*%
D19*
%TO.P,C10,1*%
%TO.N,+3.3V*%
X169900000Y-118480000D03*
D18*
%TO.P,C10,2*%
%TO.N,GND*%
X169900000Y-115980000D03*
%TD*%
%TO.P,C9,1*%
%TO.N,+3.3V*%
X173890000Y-127680000D03*
%TO.P,C9,2*%
%TO.N,GND*%
X173890000Y-122680000D03*
%TD*%
D20*
%TO.P,C8,1*%
%TO.N,+5V*%
X122564888Y-138330000D03*
D18*
%TO.P,C8,2*%
%TO.N,GND*%
X125064888Y-138330000D03*
%TD*%
%TO.P,C7,1*%
%TO.N,GND*%
X130060000Y-131430000D03*
%TO.P,C7,2*%
%TO.N,+5V*%
X135060000Y-131430000D03*
%TD*%
D21*
%TO.P,C6,1*%
%TO.N,+3.3V*%
X103060000Y-96810000D03*
D22*
%TO.P,C6,2*%
%TO.N,GND*%
X105060000Y-96810000D03*
%TD*%
D18*
%TO.P,C5,1*%
%TO.N,+3.3V*%
X93720000Y-95770000D03*
%TO.P,C5,2*%
%TO.N,GND*%
X98720000Y-95770000D03*
%TD*%
D23*
%TO.P,C4,1*%
%TO.N,+3.3V*%
X165860000Y-100350000D03*
D18*
%TO.P,C4,2*%
%TO.N,GND*%
X165860000Y-102850000D03*
%TD*%
%TO.P,C3,1*%
%TO.N,+3.3V*%
X172590000Y-96810000D03*
%TO.P,C3,2*%
%TO.N,GND*%
X172590000Y-101810000D03*
%TD*%
D20*
%TO.P,C2,1*%
%TO.N,+3.3V*%
X133980000Y-79530000D03*
D18*
%TO.P,C2,2*%
%TO.N,GND*%
X136480000Y-79530000D03*
%TD*%
%TO.P,C1,1*%
%TO.N,+3.3V*%
X124120000Y-80610000D03*
%TO.P,C1,2*%
%TO.N,GND*%
X129120000Y-80610000D03*
%TD*%
D24*
%TO.N,/MOTOR_SIGNAL*%
X109644000Y-126444000D02*
X120174000Y-126444000D01*
X120174000Y-126444000D02*
X121250000Y-127520000D01*
X86120000Y-102920000D02*
X109644000Y-126444000D01*
%TO.N,/SDA_PCA*%
X142315325Y-134641000D02*
X115671000Y-134641000D01*
X115671000Y-134641000D02*
X108550000Y-127520000D01*
X174520000Y-131980000D02*
X144976325Y-131980000D01*
X144976325Y-131980000D02*
X142315325Y-134641000D01*
X178750000Y-127750000D02*
X174520000Y-131980000D01*
%TO.N,/SCL_PCA*%
X133892405Y-134190000D02*
X125380000Y-134190000D01*
X142872405Y-125210000D02*
X133892405Y-134190000D01*
X125380000Y-134190000D02*
X118710000Y-127520000D01*
X178750000Y-125210000D02*
X142872405Y-125210000D01*
%TO.N,/TX*%
X123110000Y-103980000D02*
X121250000Y-102120000D01*
X175580000Y-103980000D02*
X123110000Y-103980000D01*
X179080000Y-100480000D02*
X175580000Y-103980000D01*
%TO.N,/RX*%
X122890000Y-97940000D02*
X118710000Y-102120000D01*
X179080000Y-97940000D02*
X122890000Y-97940000D01*
%TO.N,/SDA_MPU*%
X106010000Y-93635000D02*
X106010000Y-102120000D01*
X103025000Y-90650000D02*
X106010000Y-93635000D01*
%TO.N,/SCL_MPU*%
X100485000Y-100025000D02*
X98390000Y-102120000D01*
X100485000Y-90650000D02*
X100485000Y-100025000D01*
D25*
%TO.N,GND2*%
X139690000Y-144890000D02*
X139690000Y-141970000D01*
X139690000Y-141970000D02*
X144130000Y-137530000D01*
X128975000Y-148245000D02*
X131200000Y-146020000D01*
X131200000Y-146020000D02*
X138560000Y-146020000D01*
X138560000Y-146020000D02*
X139690000Y-144890000D01*
X128975000Y-148600000D02*
X128975000Y-148245000D01*
X108320000Y-148600000D02*
X128975000Y-148600000D01*
X97610000Y-137890000D02*
X108320000Y-148600000D01*
%TD*%
%TA.AperFunction,Conductor*%
%TO.N,GND*%
G36*
X177600816Y-125837041D02*
G01*
X177606177Y-125835955D01*
X177633979Y-125846779D01*
X177662606Y-125855185D01*
X177667540Y-125859845D01*
X177671287Y-125861304D01*
X177695885Y-125886614D01*
X177719749Y-125919459D01*
X177796172Y-126024646D01*
X177935354Y-126163828D01*
X178094595Y-126279524D01*
X178217992Y-126342397D01*
X178271213Y-126369515D01*
X178322009Y-126417489D01*
X178338804Y-126485310D01*
X178316267Y-126551445D01*
X178271213Y-126590485D01*
X178094594Y-126680476D01*
X178003741Y-126746485D01*
X177935354Y-126796172D01*
X177935352Y-126796174D01*
X177935351Y-126796174D01*
X177796174Y-126935351D01*
X177796174Y-126935352D01*
X177796172Y-126935354D01*
X177750376Y-126998386D01*
X177680476Y-127094594D01*
X177591117Y-127269970D01*
X177530290Y-127457173D01*
X177499500Y-127651577D01*
X177499500Y-127848422D01*
X177526189Y-128016931D01*
X177517234Y-128086225D01*
X177491397Y-128124010D01*
X175133022Y-130482385D01*
X175071699Y-130515870D01*
X175002007Y-130510886D01*
X174946074Y-130469014D01*
X174927410Y-130433022D01*
X174874755Y-130270970D01*
X174781859Y-130088650D01*
X174749474Y-130044077D01*
X174749474Y-130044076D01*
X174070000Y-130723551D01*
X174070000Y-130717339D01*
X174042741Y-130615606D01*
X173990080Y-130524394D01*
X173915606Y-130449920D01*
X173824394Y-130397259D01*
X173722661Y-130370000D01*
X173716446Y-130370000D01*
X174395922Y-129690524D01*
X174395921Y-129690523D01*
X174351359Y-129658147D01*
X174351350Y-129658141D01*
X174169031Y-129565244D01*
X173974417Y-129502009D01*
X173772317Y-129470000D01*
X173567683Y-129470000D01*
X173365582Y-129502009D01*
X173170968Y-129565244D01*
X172988644Y-129658143D01*
X172944077Y-129690523D01*
X172944077Y-129690524D01*
X173623554Y-130370000D01*
X173617339Y-130370000D01*
X173515606Y-130397259D01*
X173424394Y-130449920D01*
X173349920Y-130524394D01*
X173297259Y-130615606D01*
X173270000Y-130717339D01*
X173270000Y-130723553D01*
X172590524Y-130044077D01*
X172590523Y-130044077D01*
X172558143Y-130088644D01*
X172465244Y-130270968D01*
X172402009Y-130465582D01*
X172370000Y-130667682D01*
X172370000Y-130872317D01*
X172402009Y-131074417D01*
X172440274Y-131192181D01*
X172442269Y-131262023D01*
X172406189Y-131321856D01*
X172343488Y-131352684D01*
X172322343Y-131354500D01*
X144914714Y-131354500D01*
X144854296Y-131366518D01*
X144811068Y-131375116D01*
X144793871Y-131378537D01*
X144680041Y-131425687D01*
X144680032Y-131425692D01*
X144577593Y-131494140D01*
X144539417Y-131532317D01*
X144490467Y-131581267D01*
X144490464Y-131581270D01*
X142092554Y-133979181D01*
X142031231Y-134012666D01*
X142004873Y-134015500D01*
X135250857Y-134015500D01*
X135183818Y-133995815D01*
X135138063Y-133943011D01*
X135128119Y-133873853D01*
X135157144Y-133810297D01*
X135163176Y-133803819D01*
X140166418Y-128800577D01*
X152595500Y-128800577D01*
X152595500Y-128997422D01*
X152626290Y-129191826D01*
X152687117Y-129379029D01*
X152749779Y-129502009D01*
X152776476Y-129554405D01*
X152892172Y-129713646D01*
X153031354Y-129852828D01*
X153190595Y-129968524D01*
X153246822Y-129997173D01*
X153365970Y-130057882D01*
X153365972Y-130057882D01*
X153365975Y-130057884D01*
X153466317Y-130090487D01*
X153553173Y-130118709D01*
X153747578Y-130149500D01*
X153747583Y-130149500D01*
X153944422Y-130149500D01*
X154138826Y-130118709D01*
X154165786Y-130109949D01*
X154326025Y-130057884D01*
X154501405Y-129968524D01*
X154660646Y-129852828D01*
X154799828Y-129713646D01*
X154915524Y-129554405D01*
X155004884Y-129379025D01*
X155004884Y-129379022D01*
X155005795Y-129377236D01*
X155053769Y-129326440D01*
X155121590Y-129309644D01*
X155187725Y-129332181D01*
X155226765Y-129377235D01*
X155316905Y-129554145D01*
X155342319Y-129589125D01*
X155342320Y-129589125D01*
X155903037Y-129028408D01*
X155920075Y-129091993D01*
X155985901Y-129206007D01*
X156078993Y-129299099D01*
X156193007Y-129364925D01*
X156256590Y-129381962D01*
X155695873Y-129942677D01*
X155695873Y-129942678D01*
X155730858Y-129968096D01*
X155906164Y-130057418D01*
X156093294Y-130118221D01*
X156287618Y-130149000D01*
X156484382Y-130149000D01*
X156678705Y-130118221D01*
X156865835Y-130057418D01*
X157041143Y-129968095D01*
X157076125Y-129942678D01*
X157076126Y-129942678D01*
X156515410Y-129381962D01*
X156578993Y-129364925D01*
X156693007Y-129299099D01*
X156786099Y-129206007D01*
X156851925Y-129091993D01*
X156868962Y-129028410D01*
X157429678Y-129589126D01*
X157429678Y-129589125D01*
X157455095Y-129554143D01*
X157544418Y-129378835D01*
X157605221Y-129191705D01*
X157636000Y-128997382D01*
X157636000Y-128800617D01*
X157635994Y-128800577D01*
X163263500Y-128800577D01*
X163263500Y-128997422D01*
X163294290Y-129191826D01*
X163355117Y-129379029D01*
X163417779Y-129502009D01*
X163444476Y-129554405D01*
X163560172Y-129713646D01*
X163699354Y-129852828D01*
X163858595Y-129968524D01*
X163914822Y-129997173D01*
X164033970Y-130057882D01*
X164033972Y-130057882D01*
X164033975Y-130057884D01*
X164134317Y-130090487D01*
X164221173Y-130118709D01*
X164415578Y-130149500D01*
X164415583Y-130149500D01*
X164612422Y-130149500D01*
X164806826Y-130118709D01*
X164833786Y-130109949D01*
X164994025Y-130057884D01*
X165169405Y-129968524D01*
X165328646Y-129852828D01*
X165467828Y-129713646D01*
X165583524Y-129554405D01*
X165672884Y-129379025D01*
X165673515Y-129377787D01*
X165721489Y-129326990D01*
X165789310Y-129310195D01*
X165855445Y-129332732D01*
X165894485Y-129377787D01*
X165984474Y-129554403D01*
X165992351Y-129565244D01*
X166100172Y-129713646D01*
X166239354Y-129852828D01*
X166398595Y-129968524D01*
X166454822Y-129997173D01*
X166573970Y-130057882D01*
X166573972Y-130057882D01*
X166573975Y-130057884D01*
X166674317Y-130090487D01*
X166761173Y-130118709D01*
X166955578Y-130149500D01*
X166955583Y-130149500D01*
X167152422Y-130149500D01*
X167346826Y-130118709D01*
X167373786Y-130109949D01*
X167534025Y-130057884D01*
X167709405Y-129968524D01*
X167868646Y-129852828D01*
X168007828Y-129713646D01*
X168123524Y-129554405D01*
X168212884Y-129379025D01*
X168273709Y-129191826D01*
X168280610Y-129148256D01*
X168304500Y-128997422D01*
X168304500Y-128800577D01*
X168273709Y-128606173D01*
X168212882Y-128418970D01*
X168165743Y-128326455D01*
X168123524Y-128243595D01*
X168007828Y-128084354D01*
X167868646Y-127945172D01*
X167709405Y-127829476D01*
X167704559Y-127827007D01*
X167534029Y-127740117D01*
X167381961Y-127690707D01*
X167346826Y-127679290D01*
X167152422Y-127648500D01*
X167152417Y-127648500D01*
X166955583Y-127648500D01*
X166955578Y-127648500D01*
X166761173Y-127679290D01*
X166573970Y-127740117D01*
X166398594Y-127829476D01*
X166307741Y-127895485D01*
X166239354Y-127945172D01*
X166239352Y-127945174D01*
X166239351Y-127945174D01*
X166100174Y-128084351D01*
X166100174Y-128084352D01*
X166100172Y-128084354D01*
X166098813Y-128086225D01*
X165984476Y-128243594D01*
X165894485Y-128420213D01*
X165846511Y-128471009D01*
X165778690Y-128487804D01*
X165712555Y-128465267D01*
X165673515Y-128420213D01*
X165643655Y-128361610D01*
X165583524Y-128243595D01*
X165467828Y-128084354D01*
X165328646Y-127945172D01*
X165169405Y-127829476D01*
X165164559Y-127827007D01*
X164994029Y-127740117D01*
X164806826Y-127679290D01*
X164612422Y-127648500D01*
X164612417Y-127648500D01*
X164415583Y-127648500D01*
X164415578Y-127648500D01*
X164221173Y-127679290D01*
X164033970Y-127740117D01*
X163858594Y-127829476D01*
X163767741Y-127895485D01*
X163699354Y-127945172D01*
X163699352Y-127945174D01*
X163699351Y-127945174D01*
X163560174Y-128084351D01*
X163560174Y-128084352D01*
X163560172Y-128084354D01*
X163558813Y-128086225D01*
X163444476Y-128243594D01*
X163355117Y-128418970D01*
X163294290Y-128606173D01*
X163263500Y-128800577D01*
X157635994Y-128800577D01*
X157605221Y-128606294D01*
X157544418Y-128419164D01*
X157455096Y-128243858D01*
X157429678Y-128208873D01*
X157429677Y-128208873D01*
X156868962Y-128769589D01*
X156851925Y-128706007D01*
X156786099Y-128591993D01*
X156693007Y-128498901D01*
X156578993Y-128433075D01*
X156515409Y-128416037D01*
X157076125Y-127855320D01*
X157076125Y-127855319D01*
X157041145Y-127829905D01*
X156865835Y-127740581D01*
X156678705Y-127679778D01*
X156484382Y-127649000D01*
X156287618Y-127649000D01*
X156093294Y-127679778D01*
X155906161Y-127740582D01*
X155730863Y-127829899D01*
X155730859Y-127829902D01*
X155695873Y-127855320D01*
X155695872Y-127855320D01*
X156256590Y-128416037D01*
X156193007Y-128433075D01*
X156078993Y-128498901D01*
X155985901Y-128591993D01*
X155920075Y-128706007D01*
X155903037Y-128769590D01*
X155342320Y-128208872D01*
X155342320Y-128208873D01*
X155316902Y-128243859D01*
X155226765Y-128420764D01*
X155178790Y-128471560D01*
X155110969Y-128488355D01*
X155044835Y-128465818D01*
X155005795Y-128420763D01*
X154915525Y-128243596D01*
X154890296Y-128208872D01*
X154799828Y-128084354D01*
X154660646Y-127945172D01*
X154501405Y-127829476D01*
X154496559Y-127827007D01*
X154326029Y-127740117D01*
X154138826Y-127679290D01*
X153944422Y-127648500D01*
X153944417Y-127648500D01*
X153747583Y-127648500D01*
X153747578Y-127648500D01*
X153553173Y-127679290D01*
X153365970Y-127740117D01*
X153190594Y-127829476D01*
X153099741Y-127895485D01*
X153031354Y-127945172D01*
X153031352Y-127945174D01*
X153031351Y-127945174D01*
X152892174Y-128084351D01*
X152892174Y-128084352D01*
X152892172Y-128084354D01*
X152890813Y-128086225D01*
X152776476Y-128243594D01*
X152687117Y-128418970D01*
X152626290Y-128606173D01*
X152595500Y-128800577D01*
X140166418Y-128800577D01*
X141389347Y-127577648D01*
X172589500Y-127577648D01*
X172589500Y-127782351D01*
X172621522Y-127984534D01*
X172684781Y-128179223D01*
X172777715Y-128361613D01*
X172898028Y-128527213D01*
X173042786Y-128671971D01*
X173178572Y-128770623D01*
X173208390Y-128792287D01*
X173323568Y-128850973D01*
X173390776Y-128885218D01*
X173390778Y-128885218D01*
X173390781Y-128885220D01*
X173495137Y-128919127D01*
X173585465Y-128948477D01*
X173654032Y-128959337D01*
X173787648Y-128980500D01*
X173787649Y-128980500D01*
X173992351Y-128980500D01*
X173992352Y-128980500D01*
X174194534Y-128948477D01*
X174389219Y-128885220D01*
X174571610Y-128792287D01*
X174689387Y-128706718D01*
X174737213Y-128671971D01*
X174737215Y-128671968D01*
X174737219Y-128671966D01*
X174881966Y-128527219D01*
X174881968Y-128527215D01*
X174881971Y-128527213D01*
X174959310Y-128420763D01*
X175002287Y-128361610D01*
X175095220Y-128179219D01*
X175158477Y-127984534D01*
X175190500Y-127782352D01*
X175190500Y-127577648D01*
X175158477Y-127375465D01*
X175110294Y-127227174D01*
X175095220Y-127180781D01*
X175095218Y-127180778D01*
X175095218Y-127180776D01*
X175047343Y-127086818D01*
X175002287Y-126998390D01*
X174994556Y-126987749D01*
X174881971Y-126832786D01*
X174737213Y-126688028D01*
X174571613Y-126567715D01*
X174571612Y-126567714D01*
X174571610Y-126567713D01*
X174514653Y-126538691D01*
X174389223Y-126474781D01*
X174194534Y-126411522D01*
X174019995Y-126383878D01*
X173992352Y-126379500D01*
X173787648Y-126379500D01*
X173763329Y-126383351D01*
X173585465Y-126411522D01*
X173390776Y-126474781D01*
X173208386Y-126567715D01*
X173042786Y-126688028D01*
X172898028Y-126832786D01*
X172777715Y-126998386D01*
X172684781Y-127180776D01*
X172621522Y-127375465D01*
X172589500Y-127577648D01*
X141389347Y-127577648D01*
X143095176Y-125871819D01*
X143156499Y-125838334D01*
X143182857Y-125835500D01*
X177595567Y-125835500D01*
X177600816Y-125837041D01*
G37*
%TD.AperFunction*%
%TA.AperFunction,Conductor*%
G36*
X125864075Y-127712993D02*
G01*
X125929901Y-127827007D01*
X126022993Y-127920099D01*
X126137007Y-127985925D01*
X126200590Y-128002962D01*
X125639873Y-128563677D01*
X125639873Y-128563678D01*
X125674858Y-128589096D01*
X125850164Y-128678418D01*
X126037294Y-128739221D01*
X126231618Y-128770000D01*
X126428382Y-128770000D01*
X126622705Y-128739221D01*
X126809835Y-128678418D01*
X126985143Y-128589095D01*
X127020125Y-128563678D01*
X127020126Y-128563678D01*
X126459410Y-128002962D01*
X126522993Y-127985925D01*
X126637007Y-127920099D01*
X126730099Y-127827007D01*
X126795925Y-127712993D01*
X126812962Y-127649410D01*
X127373678Y-128210126D01*
X127373678Y-128210125D01*
X127399097Y-128175141D01*
X127489234Y-127998236D01*
X127537208Y-127947439D01*
X127605029Y-127930644D01*
X127671164Y-127953181D01*
X127710204Y-127998235D01*
X127711115Y-128000024D01*
X127711116Y-128000025D01*
X127800476Y-128175405D01*
X127916172Y-128334646D01*
X128055354Y-128473828D01*
X128214595Y-128589524D01*
X128297455Y-128631743D01*
X128389970Y-128678882D01*
X128389972Y-128678882D01*
X128389975Y-128678884D01*
X128473451Y-128706007D01*
X128577173Y-128739709D01*
X128771578Y-128770500D01*
X128771583Y-128770500D01*
X128968422Y-128770500D01*
X129162826Y-128739709D01*
X129164328Y-128739221D01*
X129350025Y-128678884D01*
X129525405Y-128589524D01*
X129684646Y-128473828D01*
X129823828Y-128334646D01*
X129939524Y-128175405D01*
X130028884Y-128000025D01*
X130029515Y-127998787D01*
X130077489Y-127947990D01*
X130145310Y-127931195D01*
X130211445Y-127953732D01*
X130250485Y-127998787D01*
X130340474Y-128175403D01*
X130364791Y-128208872D01*
X130456172Y-128334646D01*
X130595354Y-128473828D01*
X130754595Y-128589524D01*
X130837455Y-128631743D01*
X130929970Y-128678882D01*
X130929972Y-128678882D01*
X130929975Y-128678884D01*
X131013451Y-128706007D01*
X131117173Y-128739709D01*
X131311578Y-128770500D01*
X131311583Y-128770500D01*
X131508422Y-128770500D01*
X131702826Y-128739709D01*
X131704328Y-128739221D01*
X131890025Y-128678884D01*
X132065405Y-128589524D01*
X132224646Y-128473828D01*
X132363828Y-128334646D01*
X132479524Y-128175405D01*
X132568884Y-128000025D01*
X132569515Y-127998787D01*
X132617489Y-127947990D01*
X132685310Y-127931195D01*
X132751445Y-127953732D01*
X132790485Y-127998787D01*
X132880474Y-128175403D01*
X132904791Y-128208872D01*
X132996172Y-128334646D01*
X133135354Y-128473828D01*
X133294595Y-128589524D01*
X133377455Y-128631743D01*
X133469970Y-128678882D01*
X133469972Y-128678882D01*
X133469975Y-128678884D01*
X133553451Y-128706007D01*
X133657173Y-128739709D01*
X133851578Y-128770500D01*
X133851583Y-128770500D01*
X134048422Y-128770500D01*
X134242826Y-128739709D01*
X134244328Y-128739221D01*
X134430025Y-128678884D01*
X134605405Y-128589524D01*
X134764646Y-128473828D01*
X134903828Y-128334646D01*
X135019524Y-128175405D01*
X135108884Y-128000025D01*
X135109515Y-127998787D01*
X135157489Y-127947990D01*
X135225310Y-127931195D01*
X135291445Y-127953732D01*
X135330485Y-127998787D01*
X135420474Y-128175403D01*
X135444791Y-128208872D01*
X135536172Y-128334646D01*
X135675354Y-128473828D01*
X135834595Y-128589524D01*
X135917455Y-128631743D01*
X136009970Y-128678882D01*
X136009972Y-128678882D01*
X136009975Y-128678884D01*
X136093451Y-128706007D01*
X136197173Y-128739709D01*
X136391578Y-128770500D01*
X136391583Y-128770500D01*
X136588422Y-128770500D01*
X136782826Y-128739709D01*
X136784328Y-128739221D01*
X136970025Y-128678884D01*
X137145405Y-128589524D01*
X137304646Y-128473828D01*
X137443828Y-128334646D01*
X137559524Y-128175405D01*
X137648884Y-128000025D01*
X137649515Y-127998787D01*
X137697489Y-127947990D01*
X137765310Y-127931195D01*
X137831445Y-127953732D01*
X137870485Y-127998787D01*
X137960474Y-128175403D01*
X137984791Y-128208872D01*
X138076172Y-128334646D01*
X138215354Y-128473828D01*
X138374595Y-128589524D01*
X138377339Y-128590922D01*
X138378195Y-128591731D01*
X138378747Y-128592069D01*
X138378676Y-128592184D01*
X138428135Y-128638897D01*
X138444930Y-128706718D01*
X138422393Y-128772853D01*
X138408725Y-128789088D01*
X136386514Y-130811299D01*
X136325191Y-130844784D01*
X136255499Y-130839800D01*
X136199566Y-130797928D01*
X136188351Y-130779917D01*
X136172287Y-130748390D01*
X136172285Y-130748387D01*
X136172284Y-130748385D01*
X136051971Y-130582786D01*
X135907213Y-130438028D01*
X135741613Y-130317715D01*
X135741612Y-130317714D01*
X135741610Y-130317713D01*
X135649868Y-130270968D01*
X135559223Y-130224781D01*
X135364534Y-130161522D01*
X135189995Y-130133878D01*
X135162352Y-130129500D01*
X134957648Y-130129500D01*
X134933329Y-130133351D01*
X134755465Y-130161522D01*
X134560776Y-130224781D01*
X134378386Y-130317715D01*
X134212786Y-130438028D01*
X134068028Y-130582786D01*
X133947715Y-130748386D01*
X133854781Y-130930776D01*
X133791522Y-131125465D01*
X133759500Y-131327648D01*
X133759500Y-131532351D01*
X133791522Y-131734534D01*
X133854781Y-131929223D01*
X133898667Y-132015352D01*
X133947585Y-132111359D01*
X133947715Y-132111613D01*
X134068028Y-132277213D01*
X134212786Y-132421971D01*
X134378385Y-132542284D01*
X134378387Y-132542285D01*
X134378390Y-132542287D01*
X134409912Y-132558348D01*
X134460708Y-132606321D01*
X134477504Y-132674142D01*
X134454968Y-132740277D01*
X134441299Y-132756514D01*
X133669634Y-133528181D01*
X133608311Y-133561666D01*
X133581953Y-133564500D01*
X125690453Y-133564500D01*
X125623414Y-133544815D01*
X125602772Y-133528181D01*
X123402273Y-131327682D01*
X128760000Y-131327682D01*
X128760000Y-131532317D01*
X128792009Y-131734417D01*
X128855244Y-131929031D01*
X128948141Y-132111350D01*
X128948147Y-132111359D01*
X128980523Y-132155921D01*
X128980524Y-132155922D01*
X129660000Y-131476446D01*
X129660000Y-131482661D01*
X129687259Y-131584394D01*
X129739920Y-131675606D01*
X129814394Y-131750080D01*
X129905606Y-131802741D01*
X130007339Y-131830000D01*
X130013553Y-131830000D01*
X129334076Y-132509474D01*
X129378650Y-132541859D01*
X129560968Y-132634755D01*
X129755582Y-132697990D01*
X129957683Y-132730000D01*
X130162317Y-132730000D01*
X130364417Y-132697990D01*
X130559031Y-132634755D01*
X130741349Y-132541859D01*
X130785921Y-132509474D01*
X130106447Y-131830000D01*
X130112661Y-131830000D01*
X130214394Y-131802741D01*
X130305606Y-131750080D01*
X130380080Y-131675606D01*
X130432741Y-131584394D01*
X130460000Y-131482661D01*
X130460000Y-131476447D01*
X131139474Y-132155921D01*
X131171859Y-132111349D01*
X131264755Y-131929031D01*
X131327990Y-131734417D01*
X131360000Y-131532317D01*
X131360000Y-131327682D01*
X131327990Y-131125582D01*
X131264755Y-130930968D01*
X131171859Y-130748650D01*
X131139474Y-130704077D01*
X131139474Y-130704076D01*
X130460000Y-131383551D01*
X130460000Y-131377339D01*
X130432741Y-131275606D01*
X130380080Y-131184394D01*
X130305606Y-131109920D01*
X130214394Y-131057259D01*
X130112661Y-131030000D01*
X130106446Y-131030000D01*
X130785922Y-130350524D01*
X130785921Y-130350523D01*
X130741359Y-130318147D01*
X130741350Y-130318141D01*
X130559031Y-130225244D01*
X130364417Y-130162009D01*
X130162317Y-130130000D01*
X129957683Y-130130000D01*
X129755582Y-130162009D01*
X129560968Y-130225244D01*
X129378644Y-130318143D01*
X129334077Y-130350523D01*
X129334077Y-130350524D01*
X130013554Y-131030000D01*
X130007339Y-131030000D01*
X129905606Y-131057259D01*
X129814394Y-131109920D01*
X129739920Y-131184394D01*
X129687259Y-131275606D01*
X129660000Y-131377339D01*
X129660000Y-131383553D01*
X128980524Y-130704077D01*
X128980523Y-130704077D01*
X128948143Y-130748644D01*
X128855244Y-130930968D01*
X128792009Y-131125582D01*
X128760000Y-131327682D01*
X123402273Y-131327682D01*
X122560055Y-130485464D01*
X121056578Y-128981988D01*
X121023093Y-128920665D01*
X121028077Y-128850973D01*
X121069949Y-128795040D01*
X121135413Y-128770623D01*
X121146711Y-128770663D01*
X121146711Y-128770500D01*
X121348422Y-128770500D01*
X121542826Y-128739709D01*
X121544328Y-128739221D01*
X121730025Y-128678884D01*
X121905405Y-128589524D01*
X122064646Y-128473828D01*
X122203828Y-128334646D01*
X122319524Y-128175405D01*
X122408884Y-128000025D01*
X122409515Y-127998787D01*
X122457489Y-127947990D01*
X122525310Y-127931195D01*
X122591445Y-127953732D01*
X122630485Y-127998787D01*
X122720474Y-128175403D01*
X122744791Y-128208872D01*
X122836172Y-128334646D01*
X122975354Y-128473828D01*
X123134595Y-128589524D01*
X123217455Y-128631743D01*
X123309970Y-128678882D01*
X123309972Y-128678882D01*
X123309975Y-128678884D01*
X123393451Y-128706007D01*
X123497173Y-128739709D01*
X123691578Y-128770500D01*
X123691583Y-128770500D01*
X123888422Y-128770500D01*
X124082826Y-128739709D01*
X124084328Y-128739221D01*
X124270025Y-128678884D01*
X124445405Y-128589524D01*
X124604646Y-128473828D01*
X124743828Y-128334646D01*
X124859524Y-128175405D01*
X124948884Y-128000025D01*
X124948884Y-128000022D01*
X124949795Y-127998236D01*
X124997769Y-127947440D01*
X125065590Y-127930644D01*
X125131725Y-127953181D01*
X125170765Y-127998235D01*
X125260905Y-128175145D01*
X125286319Y-128210125D01*
X125286320Y-128210125D01*
X125847037Y-127649408D01*
X125864075Y-127712993D01*
G37*
%TD.AperFunction*%
%TA.AperFunction,Conductor*%
G36*
X177992606Y-98585185D02*
G01*
X178025886Y-98616614D01*
X178126172Y-98754646D01*
X178265354Y-98893828D01*
X178424595Y-99009524D01*
X178547992Y-99072397D01*
X178601213Y-99099515D01*
X178652009Y-99147489D01*
X178668804Y-99215310D01*
X178646267Y-99281445D01*
X178601213Y-99320485D01*
X178424594Y-99410476D01*
X178333741Y-99476485D01*
X178265354Y-99526172D01*
X178265352Y-99526174D01*
X178265351Y-99526174D01*
X178126174Y-99665351D01*
X178126174Y-99665352D01*
X178126172Y-99665354D01*
X178090432Y-99714546D01*
X178010476Y-99824594D01*
X177921117Y-99999970D01*
X177860290Y-100187173D01*
X177829500Y-100381577D01*
X177829500Y-100578422D01*
X177856189Y-100746931D01*
X177847234Y-100816225D01*
X177821397Y-100854010D01*
X175357229Y-103318181D01*
X175295906Y-103351666D01*
X175269548Y-103354500D01*
X172724172Y-103354500D01*
X172657133Y-103334815D01*
X172611378Y-103282011D01*
X172601434Y-103212853D01*
X172630459Y-103149297D01*
X172689237Y-103111523D01*
X172704774Y-103108027D01*
X172894417Y-103077990D01*
X173089031Y-103014755D01*
X173271349Y-102921859D01*
X173315921Y-102889474D01*
X172636447Y-102210000D01*
X172642661Y-102210000D01*
X172744394Y-102182741D01*
X172835606Y-102130080D01*
X172910080Y-102055606D01*
X172962741Y-101964394D01*
X172990000Y-101862661D01*
X172990000Y-101856448D01*
X173669474Y-102535922D01*
X173669474Y-102535921D01*
X173701859Y-102491349D01*
X173794755Y-102309031D01*
X173857990Y-102114417D01*
X173890000Y-101912317D01*
X173890000Y-101707682D01*
X173857990Y-101505582D01*
X173794755Y-101310968D01*
X173701859Y-101128650D01*
X173669474Y-101084077D01*
X173669474Y-101084076D01*
X172990000Y-101763551D01*
X172990000Y-101757339D01*
X172962741Y-101655606D01*
X172910080Y-101564394D01*
X172835606Y-101489920D01*
X172744394Y-101437259D01*
X172642661Y-101410000D01*
X172636446Y-101410000D01*
X173315922Y-100730524D01*
X173315921Y-100730523D01*
X173271359Y-100698147D01*
X173271350Y-100698141D01*
X173089031Y-100605244D01*
X172894417Y-100542009D01*
X172692317Y-100510000D01*
X172487683Y-100510000D01*
X172285582Y-100542009D01*
X172090968Y-100605244D01*
X171908644Y-100698143D01*
X171864077Y-100730523D01*
X171864077Y-100730524D01*
X172543554Y-101410000D01*
X172537339Y-101410000D01*
X172435606Y-101437259D01*
X172344394Y-101489920D01*
X172269920Y-101564394D01*
X172217259Y-101655606D01*
X172190000Y-101757339D01*
X172190000Y-101763553D01*
X171510524Y-101084077D01*
X171510523Y-101084077D01*
X171478143Y-101128644D01*
X171385244Y-101310968D01*
X171322009Y-101505582D01*
X171290000Y-101707682D01*
X171290000Y-101912317D01*
X171322009Y-102114417D01*
X171385244Y-102309031D01*
X171478141Y-102491350D01*
X171478147Y-102491359D01*
X171510523Y-102535921D01*
X171510524Y-102535922D01*
X172190000Y-101856446D01*
X172190000Y-101862661D01*
X172217259Y-101964394D01*
X172269920Y-102055606D01*
X172344394Y-102130080D01*
X172435606Y-102182741D01*
X172537339Y-102210000D01*
X172543553Y-102210000D01*
X171864076Y-102889474D01*
X171908650Y-102921859D01*
X172090968Y-103014755D01*
X172285582Y-103077990D01*
X172475226Y-103108027D01*
X172538361Y-103137956D01*
X172575292Y-103197268D01*
X172574294Y-103267130D01*
X172535684Y-103325363D01*
X172471720Y-103353477D01*
X172455828Y-103354500D01*
X167233651Y-103354500D01*
X167166612Y-103334815D01*
X167120857Y-103282011D01*
X167110913Y-103212853D01*
X167115720Y-103192182D01*
X167127989Y-103154421D01*
X167127989Y-103154418D01*
X167160000Y-102952317D01*
X167160000Y-102747682D01*
X167127990Y-102545582D01*
X167064755Y-102350968D01*
X166971859Y-102168650D01*
X166939474Y-102124077D01*
X166939474Y-102124076D01*
X166260000Y-102803551D01*
X166260000Y-102797339D01*
X166232741Y-102695606D01*
X166180080Y-102604394D01*
X166105606Y-102529920D01*
X166014394Y-102477259D01*
X165912661Y-102450000D01*
X165906446Y-102450000D01*
X166585921Y-101770525D01*
X166582946Y-101732719D01*
X166588921Y-101704274D01*
X166592066Y-101675385D01*
X166596017Y-101670495D01*
X166597310Y-101664341D01*
X166617714Y-101643642D01*
X166635979Y-101621039D01*
X166643886Y-101617093D01*
X166646361Y-101614584D01*
X166667555Y-101605285D01*
X166729334Y-101584814D01*
X166878656Y-101492712D01*
X167002712Y-101368656D01*
X167094814Y-101219334D01*
X167149999Y-101052797D01*
X167160500Y-100950009D01*
X167160499Y-100321288D01*
X167160499Y-99749998D01*
X167160498Y-99749981D01*
X167149999Y-99647203D01*
X167149998Y-99647200D01*
X167094814Y-99480666D01*
X167002712Y-99331344D01*
X166878656Y-99207288D01*
X166781706Y-99147489D01*
X166729336Y-99115187D01*
X166729331Y-99115185D01*
X166682042Y-99099515D01*
X166562797Y-99060001D01*
X166562795Y-99060000D01*
X166460010Y-99049500D01*
X165259998Y-99049500D01*
X165259981Y-99049501D01*
X165157203Y-99060000D01*
X165157200Y-99060001D01*
X164990668Y-99115185D01*
X164990663Y-99115187D01*
X164841342Y-99207289D01*
X164717289Y-99331342D01*
X164625187Y-99480663D01*
X164625185Y-99480668D01*
X164624701Y-99482129D01*
X164570001Y-99647203D01*
X164570001Y-99647204D01*
X164570000Y-99647204D01*
X164559500Y-99749983D01*
X164559500Y-100950001D01*
X164559501Y-100950018D01*
X164570000Y-101052796D01*
X164570001Y-101052799D01*
X164607570Y-101166172D01*
X164625186Y-101219334D01*
X164717288Y-101368656D01*
X164841344Y-101492712D01*
X164990666Y-101584814D01*
X165052440Y-101605284D01*
X165109884Y-101645055D01*
X165136707Y-101709571D01*
X165137053Y-101732719D01*
X165134077Y-101770524D01*
X165813554Y-102450000D01*
X165807339Y-102450000D01*
X165705606Y-102477259D01*
X165614394Y-102529920D01*
X165539920Y-102604394D01*
X165487259Y-102695606D01*
X165460000Y-102797339D01*
X165460000Y-102803553D01*
X164780524Y-102124077D01*
X164780523Y-102124077D01*
X164748143Y-102168644D01*
X164655244Y-102350968D01*
X164592009Y-102545582D01*
X164560000Y-102747682D01*
X164560000Y-102952317D01*
X164592010Y-103154418D01*
X164592010Y-103154421D01*
X164604280Y-103192182D01*
X164606275Y-103262023D01*
X164570195Y-103321856D01*
X164507494Y-103352684D01*
X164486349Y-103354500D01*
X139839967Y-103354500D01*
X139772928Y-103334815D01*
X139727173Y-103282011D01*
X139717229Y-103212853D01*
X139746254Y-103149297D01*
X139767077Y-103130184D01*
X139844646Y-103073828D01*
X139983828Y-102934646D01*
X140099524Y-102775405D01*
X140188884Y-102600025D01*
X140249709Y-102412826D01*
X140259506Y-102350968D01*
X140280500Y-102218422D01*
X140280500Y-102021577D01*
X140249709Y-101827173D01*
X140219019Y-101732719D01*
X140188884Y-101639975D01*
X140188882Y-101639972D01*
X140188882Y-101639970D01*
X140113849Y-101492710D01*
X140099524Y-101464595D01*
X139983828Y-101305354D01*
X139844646Y-101166172D01*
X139685405Y-101050476D01*
X139650335Y-101032607D01*
X139510029Y-100961117D01*
X139322826Y-100900290D01*
X139128422Y-100869500D01*
X139128417Y-100869500D01*
X138931583Y-100869500D01*
X138931578Y-100869500D01*
X138737173Y-100900290D01*
X138549970Y-100961117D01*
X138374594Y-101050476D01*
X138328347Y-101084077D01*
X138215354Y-101166172D01*
X138215352Y-101166174D01*
X138215351Y-101166174D01*
X138076174Y-101305351D01*
X138076174Y-101305352D01*
X138076172Y-101305354D01*
X138052830Y-101337482D01*
X137960476Y-101464594D01*
X137870485Y-101641213D01*
X137822511Y-101692009D01*
X137754690Y-101708804D01*
X137688555Y-101686267D01*
X137649515Y-101641213D01*
X137602797Y-101549524D01*
X137559524Y-101464595D01*
X137443828Y-101305354D01*
X137304646Y-101166172D01*
X137145405Y-101050476D01*
X137110335Y-101032607D01*
X136970029Y-100961117D01*
X136782826Y-100900290D01*
X136588422Y-100869500D01*
X136588417Y-100869500D01*
X136391583Y-100869500D01*
X136391578Y-100869500D01*
X136197173Y-100900290D01*
X136009970Y-100961117D01*
X135834594Y-101050476D01*
X135788347Y-101084077D01*
X135675354Y-101166172D01*
X135675352Y-101166174D01*
X135675351Y-101166174D01*
X135536174Y-101305351D01*
X135536174Y-101305352D01*
X135536172Y-101305354D01*
X135512830Y-101337482D01*
X135420476Y-101464594D01*
X135330485Y-101641213D01*
X135282511Y-101692009D01*
X135214690Y-101708804D01*
X135148555Y-101686267D01*
X135109515Y-101641213D01*
X135062797Y-101549524D01*
X135019524Y-101464595D01*
X134903828Y-101305354D01*
X134764646Y-101166172D01*
X134605405Y-101050476D01*
X134570335Y-101032607D01*
X134430029Y-100961117D01*
X134242826Y-100900290D01*
X134048422Y-100869500D01*
X134048417Y-100869500D01*
X133851583Y-100869500D01*
X133851578Y-100869500D01*
X133657173Y-100900290D01*
X133469970Y-100961117D01*
X133294594Y-101050476D01*
X133248347Y-101084077D01*
X133135354Y-101166172D01*
X133135352Y-101166174D01*
X133135351Y-101166174D01*
X132996174Y-101305351D01*
X132996174Y-101305352D01*
X132996172Y-101305354D01*
X132972830Y-101337482D01*
X132880476Y-101464594D01*
X132790485Y-101641213D01*
X132742511Y-101692009D01*
X132674690Y-101708804D01*
X132608555Y-101686267D01*
X132569515Y-101641213D01*
X132522797Y-101549524D01*
X132479524Y-101464595D01*
X132363828Y-101305354D01*
X132224646Y-101166172D01*
X132065405Y-101050476D01*
X132030335Y-101032607D01*
X131890029Y-100961117D01*
X131702826Y-100900290D01*
X131508422Y-100869500D01*
X131508417Y-100869500D01*
X131311583Y-100869500D01*
X131311578Y-100869500D01*
X131117173Y-100900290D01*
X130929970Y-100961117D01*
X130754594Y-101050476D01*
X130708347Y-101084077D01*
X130595354Y-101166172D01*
X130595352Y-101166174D01*
X130595351Y-101166174D01*
X130456174Y-101305351D01*
X130456174Y-101305352D01*
X130456172Y-101305354D01*
X130432830Y-101337482D01*
X130340476Y-101464594D01*
X130250485Y-101641213D01*
X130202511Y-101692009D01*
X130134690Y-101708804D01*
X130068555Y-101686267D01*
X130029515Y-101641213D01*
X129982797Y-101549524D01*
X129939524Y-101464595D01*
X129823828Y-101305354D01*
X129684646Y-101166172D01*
X129525405Y-101050476D01*
X129490335Y-101032607D01*
X129350029Y-100961117D01*
X129162826Y-100900290D01*
X128968422Y-100869500D01*
X128968417Y-100869500D01*
X128771583Y-100869500D01*
X128771578Y-100869500D01*
X128577173Y-100900290D01*
X128389970Y-100961117D01*
X128214594Y-101050476D01*
X128168347Y-101084077D01*
X128055354Y-101166172D01*
X128055352Y-101166174D01*
X128055351Y-101166174D01*
X127916174Y-101305351D01*
X127916174Y-101305352D01*
X127916172Y-101305354D01*
X127892830Y-101337482D01*
X127800476Y-101464594D01*
X127710485Y-101641213D01*
X127662511Y-101692009D01*
X127594690Y-101708804D01*
X127528555Y-101686267D01*
X127489515Y-101641213D01*
X127442797Y-101549524D01*
X127399524Y-101464595D01*
X127283828Y-101305354D01*
X127144646Y-101166172D01*
X126985405Y-101050476D01*
X126950335Y-101032607D01*
X126810029Y-100961117D01*
X126622826Y-100900290D01*
X126428422Y-100869500D01*
X126428417Y-100869500D01*
X126231583Y-100869500D01*
X126231578Y-100869500D01*
X126037173Y-100900290D01*
X125849970Y-100961117D01*
X125674594Y-101050476D01*
X125628347Y-101084077D01*
X125515354Y-101166172D01*
X125515352Y-101166174D01*
X125515351Y-101166174D01*
X125376174Y-101305351D01*
X125376174Y-101305352D01*
X125376172Y-101305354D01*
X125352830Y-101337482D01*
X125260476Y-101464594D01*
X125170485Y-101641213D01*
X125122511Y-101692009D01*
X125054690Y-101708804D01*
X124988555Y-101686267D01*
X124949515Y-101641213D01*
X124902797Y-101549524D01*
X124859524Y-101464595D01*
X124743828Y-101305354D01*
X124604646Y-101166172D01*
X124445405Y-101050476D01*
X124410335Y-101032607D01*
X124270029Y-100961117D01*
X124082826Y-100900290D01*
X123888422Y-100869500D01*
X123888417Y-100869500D01*
X123691583Y-100869500D01*
X123691578Y-100869500D01*
X123497173Y-100900290D01*
X123309970Y-100961117D01*
X123134594Y-101050476D01*
X123088347Y-101084077D01*
X122975354Y-101166172D01*
X122975352Y-101166174D01*
X122975351Y-101166174D01*
X122836174Y-101305351D01*
X122836174Y-101305352D01*
X122836172Y-101305354D01*
X122812830Y-101337482D01*
X122720476Y-101464594D01*
X122630485Y-101641213D01*
X122582511Y-101692009D01*
X122514690Y-101708804D01*
X122448555Y-101686267D01*
X122409515Y-101641213D01*
X122362797Y-101549524D01*
X122319524Y-101464595D01*
X122203828Y-101305354D01*
X122064646Y-101166172D01*
X121905405Y-101050476D01*
X121870335Y-101032607D01*
X121730029Y-100961117D01*
X121542826Y-100900290D01*
X121348422Y-100869500D01*
X121348417Y-100869500D01*
X121151583Y-100869500D01*
X121146711Y-100869500D01*
X121146711Y-100867792D01*
X121085567Y-100854922D01*
X121035830Y-100805851D01*
X121020518Y-100737680D01*
X121044493Y-100672053D01*
X121056571Y-100658019D01*
X123112772Y-98601819D01*
X123174095Y-98568334D01*
X123200453Y-98565500D01*
X177925567Y-98565500D01*
X177992606Y-98585185D01*
G37*
%TD.AperFunction*%
%TA.AperFunction,Conductor*%
G36*
X101826445Y-91083732D02*
G01*
X101865485Y-91128787D01*
X101955474Y-91305403D01*
X101980702Y-91340125D01*
X102071172Y-91464646D01*
X102210354Y-91603828D01*
X102369595Y-91719524D01*
X102447943Y-91759444D01*
X102544970Y-91808882D01*
X102544972Y-91808882D01*
X102544975Y-91808884D01*
X102645317Y-91841487D01*
X102732173Y-91869709D01*
X102926578Y-91900500D01*
X102926583Y-91900500D01*
X103123422Y-91900500D01*
X103263805Y-91878264D01*
X103291932Y-91873810D01*
X103361225Y-91882764D01*
X103399011Y-91908602D01*
X105348181Y-93857771D01*
X105381666Y-93919094D01*
X105384500Y-93945452D01*
X105384500Y-95602499D01*
X105364815Y-95669538D01*
X105312011Y-95715293D01*
X105242853Y-95725237D01*
X105241102Y-95724972D01*
X105146571Y-95710000D01*
X104973429Y-95710000D01*
X104802415Y-95737085D01*
X104637740Y-95790592D01*
X104483480Y-95869193D01*
X104483463Y-95869203D01*
X104477261Y-95873708D01*
X104477261Y-95873709D01*
X105118697Y-96515145D01*
X105099496Y-96510000D01*
X105020504Y-96510000D01*
X104944204Y-96530444D01*
X104875795Y-96569940D01*
X104819940Y-96625795D01*
X104780444Y-96694204D01*
X104760000Y-96770504D01*
X104760000Y-96849496D01*
X104780444Y-96925796D01*
X104819940Y-96994205D01*
X104875795Y-97050060D01*
X104944204Y-97089556D01*
X105020504Y-97110000D01*
X105099496Y-97110000D01*
X105118696Y-97104855D01*
X104477261Y-97746289D01*
X104477262Y-97746290D01*
X104483471Y-97750801D01*
X104637742Y-97829408D01*
X104802415Y-97882914D01*
X104973429Y-97910000D01*
X105146570Y-97910000D01*
X105241101Y-97895027D01*
X105310395Y-97903981D01*
X105363847Y-97948977D01*
X105384487Y-98015728D01*
X105384500Y-98017500D01*
X105384500Y-100965568D01*
X105364815Y-101032607D01*
X105333388Y-101065883D01*
X105195354Y-101166172D01*
X105195352Y-101166174D01*
X105195351Y-101166174D01*
X105056174Y-101305351D01*
X105056174Y-101305352D01*
X105056172Y-101305354D01*
X105032830Y-101337482D01*
X104940476Y-101464594D01*
X104850485Y-101641213D01*
X104802511Y-101692009D01*
X104734690Y-101708804D01*
X104668555Y-101686267D01*
X104629515Y-101641213D01*
X104582797Y-101549524D01*
X104539524Y-101464595D01*
X104423828Y-101305354D01*
X104284646Y-101166172D01*
X104125405Y-101050476D01*
X104090335Y-101032607D01*
X103950029Y-100961117D01*
X103762826Y-100900290D01*
X103568422Y-100869500D01*
X103568417Y-100869500D01*
X103371583Y-100869500D01*
X103371578Y-100869500D01*
X103177173Y-100900290D01*
X102989970Y-100961117D01*
X102814594Y-101050476D01*
X102768347Y-101084077D01*
X102655354Y-101166172D01*
X102655352Y-101166174D01*
X102655351Y-101166174D01*
X102516174Y-101305351D01*
X102516174Y-101305352D01*
X102516172Y-101305354D01*
X102492830Y-101337482D01*
X102400476Y-101464594D01*
X102310485Y-101641213D01*
X102262511Y-101692009D01*
X102194690Y-101708804D01*
X102128555Y-101686267D01*
X102089515Y-101641213D01*
X102042797Y-101549524D01*
X101999524Y-101464595D01*
X101883828Y-101305354D01*
X101744646Y-101166172D01*
X101585405Y-101050476D01*
X101550335Y-101032607D01*
X101410029Y-100961117D01*
X101222826Y-100900290D01*
X101028422Y-100869500D01*
X101028417Y-100869500D01*
X100831583Y-100869500D01*
X100826711Y-100869500D01*
X100826711Y-100867792D01*
X100765567Y-100854922D01*
X100715830Y-100805851D01*
X100700518Y-100737680D01*
X100724493Y-100672053D01*
X100736564Y-100658025D01*
X100970857Y-100423734D01*
X100999105Y-100381459D01*
X101039311Y-100321286D01*
X101086463Y-100207452D01*
X101110500Y-100086606D01*
X101110500Y-96409983D01*
X101959500Y-96409983D01*
X101959500Y-97210001D01*
X101959501Y-97210019D01*
X101970000Y-97312796D01*
X101970001Y-97312799D01*
X102005833Y-97420932D01*
X102025186Y-97479334D01*
X102117288Y-97628656D01*
X102241344Y-97752712D01*
X102390666Y-97844814D01*
X102557203Y-97899999D01*
X102659991Y-97910500D01*
X103460008Y-97910499D01*
X103460016Y-97910498D01*
X103460019Y-97910498D01*
X103523815Y-97903981D01*
X103562797Y-97899999D01*
X103729334Y-97844814D01*
X103878656Y-97752712D01*
X104002712Y-97628656D01*
X104094814Y-97479334D01*
X104114167Y-97420930D01*
X104144191Y-97372254D01*
X104706446Y-96810000D01*
X104706446Y-96809999D01*
X104144190Y-96247743D01*
X104114166Y-96199066D01*
X104094814Y-96140666D01*
X104002712Y-95991344D01*
X103878656Y-95867288D01*
X103729334Y-95775186D01*
X103562797Y-95720001D01*
X103562795Y-95720000D01*
X103460010Y-95709500D01*
X102659998Y-95709500D01*
X102659980Y-95709501D01*
X102557203Y-95720000D01*
X102557200Y-95720001D01*
X102390668Y-95775185D01*
X102390663Y-95775187D01*
X102241342Y-95867289D01*
X102117289Y-95991342D01*
X102025187Y-96140663D01*
X102025185Y-96140668D01*
X102005834Y-96199065D01*
X101970001Y-96307203D01*
X101970001Y-96307204D01*
X101970000Y-96307204D01*
X101959500Y-96409983D01*
X101110500Y-96409983D01*
X101110500Y-91804432D01*
X101130185Y-91737393D01*
X101161611Y-91704116D01*
X101299646Y-91603828D01*
X101438828Y-91464646D01*
X101554524Y-91305405D01*
X101643884Y-91130025D01*
X101644515Y-91128787D01*
X101692489Y-91077990D01*
X101760310Y-91061195D01*
X101826445Y-91083732D01*
G37*
%TD.AperFunction*%
%TA.AperFunction,Conductor*%
G36*
X127429075Y-86602993D02*
G01*
X127494901Y-86717007D01*
X127587993Y-86810099D01*
X127702007Y-86875925D01*
X127765590Y-86892962D01*
X127204873Y-87453677D01*
X127204873Y-87453678D01*
X127239858Y-87479096D01*
X127416764Y-87569234D01*
X127467560Y-87617209D01*
X127484355Y-87685030D01*
X127461818Y-87751164D01*
X127416764Y-87790204D01*
X127239594Y-87880476D01*
X127148741Y-87946485D01*
X127080354Y-87996172D01*
X127080352Y-87996174D01*
X127080351Y-87996174D01*
X126941174Y-88135351D01*
X126941174Y-88135352D01*
X126941172Y-88135354D01*
X126891485Y-88203741D01*
X126825476Y-88294594D01*
X126735485Y-88471213D01*
X126687511Y-88522009D01*
X126619690Y-88538804D01*
X126553555Y-88516267D01*
X126514515Y-88471213D01*
X126424523Y-88294594D01*
X126308828Y-88135354D01*
X126169646Y-87996172D01*
X126090025Y-87938324D01*
X126010403Y-87880474D01*
X125833787Y-87790485D01*
X125782990Y-87742511D01*
X125766195Y-87674690D01*
X125788732Y-87608555D01*
X125833787Y-87569515D01*
X126010403Y-87479525D01*
X126010402Y-87479525D01*
X126010405Y-87479524D01*
X126169646Y-87363828D01*
X126308828Y-87224646D01*
X126424524Y-87065405D01*
X126513884Y-86890025D01*
X126513884Y-86890022D01*
X126514795Y-86888236D01*
X126562769Y-86837440D01*
X126630590Y-86820644D01*
X126696725Y-86843181D01*
X126735765Y-86888235D01*
X126825905Y-87065145D01*
X126851319Y-87100125D01*
X126851320Y-87100125D01*
X127412037Y-86539408D01*
X127429075Y-86602993D01*
G37*
%TD.AperFunction*%
%TA.AperFunction,Conductor*%
G36*
X182842539Y-76320185D02*
G01*
X182888294Y-76372989D01*
X182899500Y-76424500D01*
X182899500Y-150175500D01*
X182879815Y-150242539D01*
X182827011Y-150288294D01*
X182775500Y-150299500D01*
X84024500Y-150299500D01*
X83957461Y-150279815D01*
X83911706Y-150227011D01*
X83900500Y-150175500D01*
X83900500Y-145678711D01*
X86549500Y-145678711D01*
X86549500Y-145921288D01*
X86581161Y-146161785D01*
X86643947Y-146396104D01*
X86644451Y-146397320D01*
X86736776Y-146620212D01*
X86858064Y-146830289D01*
X86858066Y-146830292D01*
X86858067Y-146830293D01*
X87005733Y-147022736D01*
X87005739Y-147022743D01*
X87177256Y-147194260D01*
X87177263Y-147194266D01*
X87247300Y-147248007D01*
X87369711Y-147341936D01*
X87579788Y-147463224D01*
X87803900Y-147556054D01*
X88038211Y-147618838D01*
X88218586Y-147642584D01*
X88278711Y-147650500D01*
X88278712Y-147650500D01*
X88521289Y-147650500D01*
X88569388Y-147644167D01*
X88761789Y-147618838D01*
X88996100Y-147556054D01*
X89220212Y-147463224D01*
X89430289Y-147341936D01*
X89622738Y-147194265D01*
X89794265Y-147022738D01*
X89941936Y-146830289D01*
X90063224Y-146620212D01*
X90156054Y-146396100D01*
X90218838Y-146161789D01*
X90250500Y-145921288D01*
X90250500Y-145678712D01*
X90218838Y-145438211D01*
X90156054Y-145203900D01*
X90063224Y-144979788D01*
X89941936Y-144769711D01*
X89794265Y-144577262D01*
X89794260Y-144577256D01*
X89622743Y-144405739D01*
X89622736Y-144405733D01*
X89430293Y-144258067D01*
X89430292Y-144258066D01*
X89430289Y-144258064D01*
X89220212Y-144136776D01*
X89220205Y-144136773D01*
X88996104Y-144043947D01*
X88761785Y-143981161D01*
X88521289Y-143949500D01*
X88521288Y-143949500D01*
X88278712Y-143949500D01*
X88278711Y-143949500D01*
X88038214Y-143981161D01*
X87803895Y-144043947D01*
X87579794Y-144136773D01*
X87579785Y-144136777D01*
X87369706Y-144258067D01*
X87177263Y-144405733D01*
X87177256Y-144405739D01*
X87005739Y-144577256D01*
X87005733Y-144577263D01*
X86858067Y-144769706D01*
X86736777Y-144979785D01*
X86736773Y-144979794D01*
X86643947Y-145203895D01*
X86581161Y-145438214D01*
X86549500Y-145678711D01*
X83900500Y-145678711D01*
X83900500Y-99482135D01*
X84769500Y-99482135D01*
X84769500Y-101277870D01*
X84769501Y-101277876D01*
X84775908Y-101337483D01*
X84826202Y-101472328D01*
X84826206Y-101472335D01*
X84912452Y-101587544D01*
X84912455Y-101587547D01*
X85027664Y-101673793D01*
X85027671Y-101673797D01*
X85159082Y-101722810D01*
X85215016Y-101764681D01*
X85239433Y-101830145D01*
X85224582Y-101898418D01*
X85203431Y-101926673D01*
X85089889Y-102040215D01*
X84964951Y-102212179D01*
X84868444Y-102401585D01*
X84802753Y-102603760D01*
X84769500Y-102813713D01*
X84769500Y-103026286D01*
X84799071Y-103212993D01*
X84802754Y-103236243D01*
X84849009Y-103378602D01*
X84868444Y-103438414D01*
X84964951Y-103627820D01*
X85089890Y-103799786D01*
X85240213Y-103950109D01*
X85412179Y-104075048D01*
X85412181Y-104075049D01*
X85412184Y-104075051D01*
X85421493Y-104079794D01*
X85472290Y-104127766D01*
X85489087Y-104195587D01*
X85466552Y-104261722D01*
X85421505Y-104300760D01*
X85412446Y-104305376D01*
X85412440Y-104305380D01*
X85358282Y-104344727D01*
X85358282Y-104344728D01*
X85990591Y-104977037D01*
X85927007Y-104994075D01*
X85812993Y-105059901D01*
X85719901Y-105152993D01*
X85654075Y-105267007D01*
X85637037Y-105330591D01*
X85004728Y-104698282D01*
X85004727Y-104698282D01*
X84965380Y-104752439D01*
X84868904Y-104941782D01*
X84803242Y-105143869D01*
X84803242Y-105143872D01*
X84770000Y-105353753D01*
X84770000Y-105566246D01*
X84803242Y-105776127D01*
X84803242Y-105776130D01*
X84868904Y-105978217D01*
X84965375Y-106167550D01*
X85004728Y-106221716D01*
X85637037Y-105589408D01*
X85654075Y-105652993D01*
X85719901Y-105767007D01*
X85812993Y-105860099D01*
X85927007Y-105925925D01*
X85990590Y-105942962D01*
X85358282Y-106575269D01*
X85358282Y-106575270D01*
X85412449Y-106614624D01*
X85601782Y-106711095D01*
X85803870Y-106776757D01*
X86013754Y-106810000D01*
X86226246Y-106810000D01*
X86436127Y-106776757D01*
X86436130Y-106776757D01*
X86638217Y-106711095D01*
X86827554Y-106614622D01*
X86881716Y-106575270D01*
X86881717Y-106575270D01*
X86249408Y-105942962D01*
X86312993Y-105925925D01*
X86427007Y-105860099D01*
X86520099Y-105767007D01*
X86585925Y-105652993D01*
X86602962Y-105589408D01*
X87235270Y-106221717D01*
X87235270Y-106221716D01*
X87274622Y-106167554D01*
X87371095Y-105978217D01*
X87436757Y-105776130D01*
X87436757Y-105776127D01*
X87470000Y-105566246D01*
X87470000Y-105453952D01*
X87489685Y-105386913D01*
X87542489Y-105341158D01*
X87611647Y-105331214D01*
X87675203Y-105360239D01*
X87681681Y-105366271D01*
X108394596Y-126079186D01*
X108428081Y-126140509D01*
X108423097Y-126210201D01*
X108381225Y-126266134D01*
X108326313Y-126289340D01*
X108257173Y-126300290D01*
X108069970Y-126361117D01*
X107894594Y-126450476D01*
X107803741Y-126516485D01*
X107735354Y-126566172D01*
X107735352Y-126566174D01*
X107735351Y-126566174D01*
X107596174Y-126705351D01*
X107596174Y-126705352D01*
X107596172Y-126705354D01*
X107546485Y-126773741D01*
X107480476Y-126864594D01*
X107390485Y-127041213D01*
X107342511Y-127092009D01*
X107274690Y-127108804D01*
X107208555Y-127086267D01*
X107169515Y-127041213D01*
X107080922Y-126867339D01*
X107079524Y-126864595D01*
X106963828Y-126705354D01*
X106824646Y-126566172D01*
X106665405Y-126450476D01*
X106490029Y-126361117D01*
X106302826Y-126300290D01*
X106108422Y-126269500D01*
X106108417Y-126269500D01*
X105911583Y-126269500D01*
X105911578Y-126269500D01*
X105717173Y-126300290D01*
X105529970Y-126361117D01*
X105354594Y-126450476D01*
X105263741Y-126516485D01*
X105195354Y-126566172D01*
X105195352Y-126566174D01*
X105195351Y-126566174D01*
X105056174Y-126705351D01*
X105056174Y-126705352D01*
X105056172Y-126705354D01*
X105006485Y-126773741D01*
X104940476Y-126864594D01*
X104850485Y-127041213D01*
X104802511Y-127092009D01*
X104734690Y-127108804D01*
X104668555Y-127086267D01*
X104629515Y-127041213D01*
X104540922Y-126867339D01*
X104539524Y-126864595D01*
X104423828Y-126705354D01*
X104284646Y-126566172D01*
X104125405Y-126450476D01*
X103950029Y-126361117D01*
X103762826Y-126300290D01*
X103568422Y-126269500D01*
X103568417Y-126269500D01*
X103371583Y-126269500D01*
X103371578Y-126269500D01*
X103177173Y-126300290D01*
X102989970Y-126361117D01*
X102814594Y-126450476D01*
X102723741Y-126516485D01*
X102655354Y-126566172D01*
X102655352Y-126566174D01*
X102655351Y-126566174D01*
X102516174Y-126705351D01*
X102516174Y-126705352D01*
X102516172Y-126705354D01*
X102466485Y-126773741D01*
X102400476Y-126864594D01*
X102310485Y-127041213D01*
X102262511Y-127092009D01*
X102194690Y-127108804D01*
X102128555Y-127086267D01*
X102089515Y-127041213D01*
X102000922Y-126867339D01*
X101999524Y-126864595D01*
X101883828Y-126705354D01*
X101744646Y-126566172D01*
X101585405Y-126450476D01*
X101410029Y-126361117D01*
X101222826Y-126300290D01*
X101028422Y-126269500D01*
X101028417Y-126269500D01*
X100831583Y-126269500D01*
X100831578Y-126269500D01*
X100637173Y-126300290D01*
X100449970Y-126361117D01*
X100274594Y-126450476D01*
X100183741Y-126516485D01*
X100115354Y-126566172D01*
X100115352Y-126566174D01*
X100115351Y-126566174D01*
X99976174Y-126705351D01*
X99976174Y-126705352D01*
X99976172Y-126705354D01*
X99926485Y-126773741D01*
X99860476Y-126864594D01*
X99770485Y-127041213D01*
X99722511Y-127092009D01*
X99654690Y-127108804D01*
X99588555Y-127086267D01*
X99549515Y-127041213D01*
X99460922Y-126867339D01*
X99459524Y-126864595D01*
X99343828Y-126705354D01*
X99204646Y-126566172D01*
X99045405Y-126450476D01*
X98870029Y-126361117D01*
X98682826Y-126300290D01*
X98488422Y-126269500D01*
X98488417Y-126269500D01*
X98291583Y-126269500D01*
X98291578Y-126269500D01*
X98097173Y-126300290D01*
X97909970Y-126361117D01*
X97734594Y-126450476D01*
X97643741Y-126516485D01*
X97575354Y-126566172D01*
X97575352Y-126566174D01*
X97575351Y-126566174D01*
X97436174Y-126705351D01*
X97436174Y-126705352D01*
X97436172Y-126705354D01*
X97386485Y-126773741D01*
X97320476Y-126864594D01*
X97230485Y-127041213D01*
X97182511Y-127092009D01*
X97114690Y-127108804D01*
X97048555Y-127086267D01*
X97009515Y-127041213D01*
X96920922Y-126867339D01*
X96919524Y-126864595D01*
X96803828Y-126705354D01*
X96664646Y-126566172D01*
X96505405Y-126450476D01*
X96330029Y-126361117D01*
X96142826Y-126300290D01*
X95948422Y-126269500D01*
X95948417Y-126269500D01*
X95751583Y-126269500D01*
X95751578Y-126269500D01*
X95557173Y-126300290D01*
X95369970Y-126361117D01*
X95194594Y-126450476D01*
X95103741Y-126516485D01*
X95035354Y-126566172D01*
X95035352Y-126566174D01*
X95035351Y-126566174D01*
X94896174Y-126705351D01*
X94896174Y-126705352D01*
X94896172Y-126705354D01*
X94846485Y-126773741D01*
X94780476Y-126864594D01*
X94690485Y-127041213D01*
X94642511Y-127092009D01*
X94574690Y-127108804D01*
X94508555Y-127086267D01*
X94469515Y-127041213D01*
X94380922Y-126867339D01*
X94379524Y-126864595D01*
X94263828Y-126705354D01*
X94124646Y-126566172D01*
X93965405Y-126450476D01*
X93790029Y-126361117D01*
X93602826Y-126300290D01*
X93408422Y-126269500D01*
X93408417Y-126269500D01*
X93211583Y-126269500D01*
X93211578Y-126269500D01*
X93017173Y-126300290D01*
X92829970Y-126361117D01*
X92654594Y-126450476D01*
X92563741Y-126516485D01*
X92495354Y-126566172D01*
X92495352Y-126566174D01*
X92495351Y-126566174D01*
X92356174Y-126705351D01*
X92356174Y-126705352D01*
X92356172Y-126705354D01*
X92306485Y-126773741D01*
X92240476Y-126864594D01*
X92151117Y-127039970D01*
X92090290Y-127227173D01*
X92059500Y-127421577D01*
X92059500Y-127618422D01*
X92090290Y-127812826D01*
X92151117Y-128000029D01*
X92214289Y-128124010D01*
X92240476Y-128175405D01*
X92356172Y-128334646D01*
X92495354Y-128473828D01*
X92654595Y-128589524D01*
X92737455Y-128631743D01*
X92829970Y-128678882D01*
X92829972Y-128678882D01*
X92829975Y-128678884D01*
X92913451Y-128706007D01*
X93017173Y-128739709D01*
X93211578Y-128770500D01*
X93211583Y-128770500D01*
X93408422Y-128770500D01*
X93602826Y-128739709D01*
X93604328Y-128739221D01*
X93790025Y-128678884D01*
X93965405Y-128589524D01*
X94124646Y-128473828D01*
X94263828Y-128334646D01*
X94379524Y-128175405D01*
X94468884Y-128000025D01*
X94469515Y-127998787D01*
X94517489Y-127947990D01*
X94585310Y-127931195D01*
X94651445Y-127953732D01*
X94690485Y-127998787D01*
X94780474Y-128175403D01*
X94804791Y-128208872D01*
X94896172Y-128334646D01*
X95035354Y-128473828D01*
X95194595Y-128589524D01*
X95277455Y-128631743D01*
X95369970Y-128678882D01*
X95369972Y-128678882D01*
X95369975Y-128678884D01*
X95453451Y-128706007D01*
X95557173Y-128739709D01*
X95751578Y-128770500D01*
X95751583Y-128770500D01*
X95948422Y-128770500D01*
X96142826Y-128739709D01*
X96144328Y-128739221D01*
X96330025Y-128678884D01*
X96505405Y-128589524D01*
X96664646Y-128473828D01*
X96803828Y-128334646D01*
X96919524Y-128175405D01*
X97008884Y-128000025D01*
X97009515Y-127998787D01*
X97057489Y-127947990D01*
X97125310Y-127931195D01*
X97191445Y-127953732D01*
X97230485Y-127998787D01*
X97320474Y-128175403D01*
X97344791Y-128208872D01*
X97436172Y-128334646D01*
X97575354Y-128473828D01*
X97734595Y-128589524D01*
X97817455Y-128631743D01*
X97909970Y-128678882D01*
X97909972Y-128678882D01*
X97909975Y-128678884D01*
X97993451Y-128706007D01*
X98097173Y-128739709D01*
X98291578Y-128770500D01*
X98291583Y-128770500D01*
X98488422Y-128770500D01*
X98682826Y-128739709D01*
X98684328Y-128739221D01*
X98870025Y-128678884D01*
X99045405Y-128589524D01*
X99204646Y-128473828D01*
X99343828Y-128334646D01*
X99459524Y-128175405D01*
X99548884Y-128000025D01*
X99549515Y-127998787D01*
X99597489Y-127947990D01*
X99665310Y-127931195D01*
X99731445Y-127953732D01*
X99770485Y-127998787D01*
X99860474Y-128175403D01*
X99884791Y-128208872D01*
X99976172Y-128334646D01*
X100115354Y-128473828D01*
X100274595Y-128589524D01*
X100357455Y-128631743D01*
X100449970Y-128678882D01*
X100449972Y-128678882D01*
X100449975Y-128678884D01*
X100533451Y-128706007D01*
X100637173Y-128739709D01*
X100831578Y-128770500D01*
X100831583Y-128770500D01*
X101028422Y-128770500D01*
X101222826Y-128739709D01*
X101224328Y-128739221D01*
X101410025Y-128678884D01*
X101585405Y-128589524D01*
X101744646Y-128473828D01*
X101883828Y-128334646D01*
X101999524Y-128175405D01*
X102088884Y-128000025D01*
X102089515Y-127998787D01*
X102137489Y-127947990D01*
X102205310Y-127931195D01*
X102271445Y-127953732D01*
X102310485Y-127998787D01*
X102400474Y-128175403D01*
X102424791Y-128208872D01*
X102516172Y-128334646D01*
X102655354Y-128473828D01*
X102814595Y-128589524D01*
X102897455Y-128631743D01*
X102989970Y-128678882D01*
X102989972Y-128678882D01*
X102989975Y-128678884D01*
X103073451Y-128706007D01*
X103177173Y-128739709D01*
X103371578Y-128770500D01*
X103371583Y-128770500D01*
X103568422Y-128770500D01*
X103762826Y-128739709D01*
X103764328Y-128739221D01*
X103950025Y-128678884D01*
X104125405Y-128589524D01*
X104284646Y-128473828D01*
X104423828Y-128334646D01*
X104539524Y-128175405D01*
X104628884Y-128000025D01*
X104629515Y-127998787D01*
X104677489Y-127947990D01*
X104745310Y-127931195D01*
X104811445Y-127953732D01*
X104850485Y-127998787D01*
X104940474Y-128175403D01*
X104964791Y-128208872D01*
X105056172Y-128334646D01*
X105195354Y-128473828D01*
X105354595Y-128589524D01*
X105437455Y-128631743D01*
X105529970Y-128678882D01*
X105529972Y-128678882D01*
X105529975Y-128678884D01*
X105613451Y-128706007D01*
X105717173Y-128739709D01*
X105911578Y-128770500D01*
X105911583Y-128770500D01*
X106108422Y-128770500D01*
X106302826Y-128739709D01*
X106304328Y-128739221D01*
X106490025Y-128678884D01*
X106665405Y-128589524D01*
X106824646Y-128473828D01*
X106963828Y-128334646D01*
X107079524Y-128175405D01*
X107168884Y-128000025D01*
X107169515Y-127998787D01*
X107217489Y-127947990D01*
X107285310Y-127931195D01*
X107351445Y-127953732D01*
X107390485Y-127998787D01*
X107480474Y-128175403D01*
X107504791Y-128208872D01*
X107596172Y-128334646D01*
X107735354Y-128473828D01*
X107894595Y-128589524D01*
X107977455Y-128631743D01*
X108069970Y-128678882D01*
X108069972Y-128678882D01*
X108069975Y-128678884D01*
X108153451Y-128706007D01*
X108257173Y-128739709D01*
X108451578Y-128770500D01*
X108451583Y-128770500D01*
X108648422Y-128770500D01*
X108816933Y-128743810D01*
X108886226Y-128752764D01*
X108924012Y-128778602D01*
X115185139Y-135039729D01*
X115185142Y-135039733D01*
X115272267Y-135126858D01*
X115342953Y-135174089D01*
X115374715Y-135195312D01*
X115441396Y-135222931D01*
X115441398Y-135222933D01*
X115481640Y-135239601D01*
X115488548Y-135242463D01*
X115548971Y-135254481D01*
X115609393Y-135266500D01*
X115609394Y-135266500D01*
X141200419Y-135266500D01*
X141267458Y-135286185D01*
X141313213Y-135338989D01*
X141323157Y-135408147D01*
X141303521Y-135459391D01*
X141123904Y-135728206D01*
X141123893Y-135728224D01*
X140961772Y-136031530D01*
X140961770Y-136031535D01*
X140830150Y-136349293D01*
X140730308Y-136678427D01*
X140663210Y-137015750D01*
X140643277Y-137218143D01*
X140629500Y-137358031D01*
X140629500Y-137701969D01*
X140632259Y-137729983D01*
X140663210Y-138044249D01*
X140730308Y-138381572D01*
X140830150Y-138710706D01*
X140895030Y-138867339D01*
X140961769Y-139028462D01*
X141007188Y-139113436D01*
X141021429Y-139181837D01*
X140996429Y-139247081D01*
X140985510Y-139259568D01*
X140001452Y-140243627D01*
X139052221Y-141192858D01*
X139052218Y-141192861D01*
X139016073Y-141229006D01*
X138912859Y-141332219D01*
X138803369Y-141496082D01*
X138803368Y-141496085D01*
X138764675Y-141589500D01*
X138733142Y-141665628D01*
X138733141Y-141665632D01*
X138727948Y-141678167D01*
X138727947Y-141678171D01*
X138689500Y-141871454D01*
X138689500Y-144424217D01*
X138669815Y-144491256D01*
X138653181Y-144511898D01*
X138181899Y-144983181D01*
X138120576Y-145016666D01*
X138094218Y-145019500D01*
X131101455Y-145019500D01*
X131004812Y-145038724D01*
X130908167Y-145057947D01*
X130908161Y-145057949D01*
X130854834Y-145080037D01*
X130854834Y-145080038D01*
X130809315Y-145098892D01*
X130726089Y-145133366D01*
X130726079Y-145133371D01*
X130562219Y-145242859D01*
X130492540Y-145312538D01*
X130422861Y-145382218D01*
X130422858Y-145382221D01*
X128459195Y-147345883D01*
X128427811Y-147368686D01*
X128398211Y-147383768D01*
X128343992Y-147423161D01*
X128258072Y-147485586D01*
X128258070Y-147485588D01*
X128258069Y-147485588D01*
X128180477Y-147563181D01*
X128119154Y-147596666D01*
X128092796Y-147599500D01*
X108785783Y-147599500D01*
X108718744Y-147579815D01*
X108698102Y-147563181D01*
X101174816Y-140039896D01*
X100754488Y-139619568D01*
X100721003Y-139558245D01*
X100725987Y-139488553D01*
X100732804Y-139473448D01*
X100778231Y-139388462D01*
X100909850Y-139070705D01*
X101009690Y-138741578D01*
X101076789Y-138404250D01*
X101110500Y-138061969D01*
X101110500Y-137729983D01*
X121264388Y-137729983D01*
X121264388Y-138930001D01*
X121264389Y-138930018D01*
X121274888Y-139032796D01*
X121274889Y-139032799D01*
X121324276Y-139181837D01*
X121330074Y-139199334D01*
X121422176Y-139348656D01*
X121546232Y-139472712D01*
X121695554Y-139564814D01*
X121862091Y-139619999D01*
X121964879Y-139630500D01*
X123164896Y-139630499D01*
X123267685Y-139619999D01*
X123434222Y-139564814D01*
X123583544Y-139472712D01*
X123707600Y-139348656D01*
X123799702Y-139199334D01*
X123822990Y-139129054D01*
X123826998Y-139121050D01*
X123844948Y-139101772D01*
X123859943Y-139080116D01*
X123868383Y-139076606D01*
X123874613Y-139069917D01*
X123900137Y-139063404D01*
X123924459Y-139053292D01*
X123940722Y-139053048D01*
X123942313Y-139052643D01*
X123943411Y-139053008D01*
X123947607Y-139052946D01*
X123985413Y-139055921D01*
X124664888Y-138376446D01*
X124664888Y-138382661D01*
X124692147Y-138484394D01*
X124744808Y-138575606D01*
X124819282Y-138650080D01*
X124910494Y-138702741D01*
X125012227Y-138730000D01*
X125018441Y-138730000D01*
X124338964Y-139409474D01*
X124383538Y-139441859D01*
X124565856Y-139534755D01*
X124760470Y-139597990D01*
X124962571Y-139630000D01*
X125167205Y-139630000D01*
X125369305Y-139597990D01*
X125563919Y-139534755D01*
X125746237Y-139441859D01*
X125790809Y-139409474D01*
X125111335Y-138730000D01*
X125117549Y-138730000D01*
X125219282Y-138702741D01*
X125310494Y-138650080D01*
X125384968Y-138575606D01*
X125437629Y-138484394D01*
X125464888Y-138382661D01*
X125464888Y-138376447D01*
X126144362Y-139055921D01*
X126176747Y-139011349D01*
X126269642Y-138829032D01*
X126273330Y-138817682D01*
X130520000Y-138817682D01*
X130520000Y-139022317D01*
X130552009Y-139224417D01*
X130615244Y-139419031D01*
X130708141Y-139601350D01*
X130708147Y-139601359D01*
X130740523Y-139645921D01*
X130740524Y-139645922D01*
X131420000Y-138966446D01*
X131420000Y-138972661D01*
X131447259Y-139074394D01*
X131499920Y-139165606D01*
X131574394Y-139240080D01*
X131665606Y-139292741D01*
X131767339Y-139320000D01*
X131773553Y-139320000D01*
X131094076Y-139999474D01*
X131138650Y-140031859D01*
X131320968Y-140124755D01*
X131515582Y-140187990D01*
X131717683Y-140220000D01*
X131922317Y-140220000D01*
X132124417Y-140187990D01*
X132319031Y-140124755D01*
X132501349Y-140031859D01*
X132545921Y-139999474D01*
X131866447Y-139320000D01*
X131872661Y-139320000D01*
X131974394Y-139292741D01*
X132065606Y-139240080D01*
X132140080Y-139165606D01*
X132192741Y-139074394D01*
X132220000Y-138972661D01*
X132220000Y-138966447D01*
X132899473Y-139645921D01*
X132937280Y-139642946D01*
X133005658Y-139657310D01*
X133055415Y-139706361D01*
X133064714Y-139727556D01*
X133085186Y-139789334D01*
X133177288Y-139938656D01*
X133301344Y-140062712D01*
X133450666Y-140154814D01*
X133617203Y-140209999D01*
X133719991Y-140220500D01*
X134920008Y-140220499D01*
X135022797Y-140209999D01*
X135189334Y-140154814D01*
X135338656Y-140062712D01*
X135462712Y-139938656D01*
X135554814Y-139789334D01*
X135609999Y-139622797D01*
X135620500Y-139520009D01*
X135620499Y-138319992D01*
X135609999Y-138217203D01*
X135554814Y-138050666D01*
X135462712Y-137901344D01*
X135338656Y-137777288D01*
X135189334Y-137685186D01*
X135022797Y-137630001D01*
X135022795Y-137630000D01*
X134920010Y-137619500D01*
X133719998Y-137619500D01*
X133719981Y-137619501D01*
X133617203Y-137630000D01*
X133617200Y-137630001D01*
X133450668Y-137685185D01*
X133450663Y-137685187D01*
X133301342Y-137777289D01*
X133177289Y-137901342D01*
X133085187Y-138050663D01*
X133085185Y-138050668D01*
X133064717Y-138112438D01*
X133024944Y-138169883D01*
X132960428Y-138196706D01*
X132937283Y-138197052D01*
X132899474Y-138194076D01*
X132220000Y-138873551D01*
X132220000Y-138867339D01*
X132192741Y-138765606D01*
X132140080Y-138674394D01*
X132065606Y-138599920D01*
X131974394Y-138547259D01*
X131872661Y-138520000D01*
X131866446Y-138520000D01*
X132545922Y-137840524D01*
X132545921Y-137840523D01*
X132501359Y-137808147D01*
X132501350Y-137808141D01*
X132319031Y-137715244D01*
X132124417Y-137652009D01*
X131922317Y-137620000D01*
X131717683Y-137620000D01*
X131515582Y-137652009D01*
X131320968Y-137715244D01*
X131138644Y-137808143D01*
X131094077Y-137840523D01*
X131094077Y-137840524D01*
X131773554Y-138520000D01*
X131767339Y-138520000D01*
X131665606Y-138547259D01*
X131574394Y-138599920D01*
X131499920Y-138674394D01*
X131447259Y-138765606D01*
X131420000Y-138867339D01*
X131420000Y-138873553D01*
X130740524Y-138194077D01*
X130740523Y-138194077D01*
X130708143Y-138238644D01*
X130615244Y-138420968D01*
X130552009Y-138615582D01*
X130520000Y-138817682D01*
X126273330Y-138817682D01*
X126287363Y-138774496D01*
X126287363Y-138774495D01*
X126332878Y-138634417D01*
X126364888Y-138432317D01*
X126364888Y-138227682D01*
X126332878Y-138025582D01*
X126300554Y-137926102D01*
X126300553Y-137926100D01*
X126269643Y-137830970D01*
X126176747Y-137648650D01*
X126144362Y-137604077D01*
X126144362Y-137604076D01*
X125464888Y-138283551D01*
X125464888Y-138277339D01*
X125437629Y-138175606D01*
X125384968Y-138084394D01*
X125310494Y-138009920D01*
X125219282Y-137957259D01*
X125117549Y-137930000D01*
X125111334Y-137930000D01*
X125790810Y-137250524D01*
X125790809Y-137250523D01*
X125746247Y-137218147D01*
X125746238Y-137218141D01*
X125563919Y-137125244D01*
X125369305Y-137062009D01*
X125167205Y-137030000D01*
X124962571Y-137030000D01*
X124760470Y-137062009D01*
X124565856Y-137125244D01*
X124383532Y-137218143D01*
X124338965Y-137250523D01*
X124338965Y-137250524D01*
X125018442Y-137930000D01*
X125012227Y-137930000D01*
X124910494Y-137957259D01*
X124819282Y-138009920D01*
X124744808Y-138084394D01*
X124692147Y-138175606D01*
X124664888Y-138277339D01*
X124664888Y-138283553D01*
X123985412Y-137604077D01*
X123947607Y-137607053D01*
X123879229Y-137592689D01*
X123829472Y-137543638D01*
X123826998Y-137538949D01*
X123822989Y-137530942D01*
X123799702Y-137460666D01*
X123707600Y-137311344D01*
X123583544Y-137187288D01*
X123434222Y-137095186D01*
X123267685Y-137040001D01*
X123267683Y-137040000D01*
X123164898Y-137029500D01*
X121964886Y-137029500D01*
X121964869Y-137029501D01*
X121862091Y-137040000D01*
X121862088Y-137040001D01*
X121695556Y-137095185D01*
X121695551Y-137095187D01*
X121546230Y-137187289D01*
X121422177Y-137311342D01*
X121330075Y-137460663D01*
X121330074Y-137460666D01*
X121274889Y-137627203D01*
X121274889Y-137627204D01*
X121274888Y-137627204D01*
X121264388Y-137729983D01*
X101110500Y-137729983D01*
X101110500Y-137718031D01*
X101076789Y-137375750D01*
X101009690Y-137038422D01*
X100909850Y-136709295D01*
X100778231Y-136391538D01*
X100616100Y-136088213D01*
X100425019Y-135802240D01*
X100206828Y-135536373D01*
X100206827Y-135536372D01*
X100206823Y-135536367D01*
X99963632Y-135293176D01*
X99697765Y-135074985D01*
X99697764Y-135074984D01*
X99697760Y-135074981D01*
X99411787Y-134883900D01*
X99411782Y-134883897D01*
X99411775Y-134883893D01*
X99108469Y-134721772D01*
X99108464Y-134721770D01*
X99092059Y-134714975D01*
X98953817Y-134657713D01*
X98790706Y-134590150D01*
X98461572Y-134490308D01*
X98124248Y-134423210D01*
X98124249Y-134423210D01*
X97866456Y-134397821D01*
X97781969Y-134389500D01*
X97438031Y-134389500D01*
X97359966Y-134397188D01*
X97095750Y-134423210D01*
X96758427Y-134490308D01*
X96429293Y-134590150D01*
X96111535Y-134721770D01*
X96111530Y-134721772D01*
X95808224Y-134883893D01*
X95808206Y-134883904D01*
X95522248Y-135074975D01*
X95522234Y-135074985D01*
X95256367Y-135293176D01*
X95013176Y-135536367D01*
X94794985Y-135802234D01*
X94794975Y-135802248D01*
X94603904Y-136088206D01*
X94603893Y-136088224D01*
X94441772Y-136391530D01*
X94441770Y-136391535D01*
X94310150Y-136709293D01*
X94210308Y-137038427D01*
X94143210Y-137375750D01*
X94121845Y-137592689D01*
X94109775Y-137715244D01*
X94109500Y-137718034D01*
X94109500Y-138061965D01*
X94143210Y-138404249D01*
X94210308Y-138741572D01*
X94310150Y-139070706D01*
X94373819Y-139224417D01*
X94425280Y-139348655D01*
X94441770Y-139388464D01*
X94441772Y-139388469D01*
X94603893Y-139691775D01*
X94603904Y-139691793D01*
X94794975Y-139977751D01*
X94794985Y-139977765D01*
X95013176Y-140243632D01*
X95256367Y-140486823D01*
X95256372Y-140486827D01*
X95256373Y-140486828D01*
X95522240Y-140705019D01*
X95808213Y-140896100D01*
X95808222Y-140896105D01*
X95808224Y-140896106D01*
X96111530Y-141058227D01*
X96111532Y-141058227D01*
X96111538Y-141058231D01*
X96429295Y-141189850D01*
X96758422Y-141289690D01*
X96758426Y-141289690D01*
X96758427Y-141289691D01*
X97030866Y-141343883D01*
X97092777Y-141376268D01*
X97127351Y-141436984D01*
X97123612Y-141506753D01*
X97082745Y-141563425D01*
X97017727Y-141589006D01*
X97006675Y-141589500D01*
X96038549Y-141589500D01*
X95824566Y-141604804D01*
X95544962Y-141665628D01*
X95276833Y-141765635D01*
X95025690Y-141902770D01*
X95025682Y-141902775D01*
X94796612Y-142074254D01*
X94796594Y-142074270D01*
X94594270Y-142276594D01*
X94594254Y-142276612D01*
X94422775Y-142505682D01*
X94422770Y-142505690D01*
X94285635Y-142756833D01*
X94185628Y-143024962D01*
X94124804Y-143304566D01*
X94109500Y-143518549D01*
X94109500Y-146661450D01*
X94124804Y-146875433D01*
X94185628Y-147155037D01*
X94185630Y-147155043D01*
X94185631Y-147155046D01*
X94270940Y-147383768D01*
X94285635Y-147423166D01*
X94422770Y-147674309D01*
X94422775Y-147674317D01*
X94594254Y-147903387D01*
X94594270Y-147903405D01*
X94796594Y-148105729D01*
X94796612Y-148105745D01*
X95025682Y-148277224D01*
X95025690Y-148277229D01*
X95276833Y-148414364D01*
X95276832Y-148414364D01*
X95276836Y-148414365D01*
X95276839Y-148414367D01*
X95544954Y-148514369D01*
X95544960Y-148514370D01*
X95544962Y-148514371D01*
X95824566Y-148575195D01*
X95824568Y-148575195D01*
X95824572Y-148575196D01*
X96038552Y-148590500D01*
X99181448Y-148590500D01*
X99395428Y-148575196D01*
X99675046Y-148514369D01*
X99943161Y-148414367D01*
X100194315Y-148277226D01*
X100423395Y-148105739D01*
X100625739Y-147903395D01*
X100797226Y-147674315D01*
X100934367Y-147423161D01*
X101034369Y-147155046D01*
X101049074Y-147087446D01*
X101095195Y-146875433D01*
X101095195Y-146875432D01*
X101095196Y-146875428D01*
X101110500Y-146661448D01*
X101110500Y-143518552D01*
X101095196Y-143304572D01*
X101041937Y-143059743D01*
X101046921Y-142990053D01*
X101088792Y-142934119D01*
X101154257Y-142909702D01*
X101222530Y-142924554D01*
X101250784Y-142945705D01*
X107542860Y-149237781D01*
X107542861Y-149237782D01*
X107682218Y-149377139D01*
X107682219Y-149377140D01*
X107846079Y-149486628D01*
X107846092Y-149486635D01*
X107974833Y-149539961D01*
X108017744Y-149557735D01*
X108028164Y-149562051D01*
X108124812Y-149581275D01*
X108173135Y-149590887D01*
X108221458Y-149600500D01*
X108221459Y-149600500D01*
X108221460Y-149600500D01*
X108418540Y-149600500D01*
X128092796Y-149600500D01*
X128159835Y-149620185D01*
X128180477Y-149636819D01*
X128258072Y-149714414D01*
X128398212Y-149816232D01*
X128552555Y-149894873D01*
X128717299Y-149948402D01*
X128888389Y-149975500D01*
X128888390Y-149975500D01*
X129061610Y-149975500D01*
X129061611Y-149975500D01*
X129232701Y-149948402D01*
X129397445Y-149894873D01*
X129551788Y-149816232D01*
X129691928Y-149714414D01*
X129799472Y-149606869D01*
X129860791Y-149573387D01*
X129930483Y-149578371D01*
X129986417Y-149620242D01*
X129992688Y-149629456D01*
X130032285Y-149693652D01*
X130032288Y-149693656D01*
X130156344Y-149817712D01*
X130305666Y-149909814D01*
X130472203Y-149964999D01*
X130574991Y-149975500D01*
X131375008Y-149975499D01*
X131375016Y-149975498D01*
X131375019Y-149975498D01*
X131431302Y-149969748D01*
X131477797Y-149964999D01*
X131644334Y-149909814D01*
X131793656Y-149817712D01*
X131917712Y-149693656D01*
X132009814Y-149544334D01*
X132064999Y-149377797D01*
X132075500Y-149275009D01*
X132075499Y-147924992D01*
X132074705Y-147917224D01*
X132064999Y-147822203D01*
X132064998Y-147822200D01*
X132039658Y-147745729D01*
X132009814Y-147655666D01*
X131917712Y-147506344D01*
X131793656Y-147382288D01*
X131644334Y-147290186D01*
X131631961Y-147286086D01*
X131610129Y-147278851D01*
X131608171Y-147277495D01*
X131605798Y-147277326D01*
X131579604Y-147257716D01*
X131552685Y-147239078D01*
X131551770Y-147236878D01*
X131549866Y-147235453D01*
X131538432Y-147204796D01*
X131525863Y-147174562D01*
X131526282Y-147172218D01*
X131525451Y-147169988D01*
X131532408Y-147138009D01*
X131538179Y-147105786D01*
X131539956Y-147103317D01*
X131540305Y-147101716D01*
X131561450Y-147073468D01*
X131578104Y-147056815D01*
X131639428Y-147023333D01*
X131665782Y-147020500D01*
X138658542Y-147020500D01*
X138696199Y-147013009D01*
X138755188Y-147001275D01*
X138851836Y-146982051D01*
X138905165Y-146959961D01*
X139033914Y-146906632D01*
X139197782Y-146797139D01*
X139337139Y-146657782D01*
X139337139Y-146657780D01*
X139347347Y-146647573D01*
X139347348Y-146647570D01*
X140417819Y-145577102D01*
X140479142Y-145543617D01*
X140548834Y-145548601D01*
X140604767Y-145590473D01*
X140629184Y-145655937D01*
X140629500Y-145664783D01*
X140629500Y-146301450D01*
X140644804Y-146515433D01*
X140705628Y-146795037D01*
X140705630Y-146795043D01*
X140705631Y-146795046D01*
X140805633Y-147063161D01*
X140805635Y-147063166D01*
X140942770Y-147314309D01*
X140942775Y-147314317D01*
X141114254Y-147543387D01*
X141114270Y-147543405D01*
X141316594Y-147745729D01*
X141316612Y-147745745D01*
X141545682Y-147917224D01*
X141545690Y-147917229D01*
X141796833Y-148054364D01*
X141796832Y-148054364D01*
X141796836Y-148054365D01*
X141796839Y-148054367D01*
X142064954Y-148154369D01*
X142064960Y-148154370D01*
X142064962Y-148154371D01*
X142344566Y-148215195D01*
X142344568Y-148215195D01*
X142344572Y-148215196D01*
X142558552Y-148230500D01*
X145701448Y-148230500D01*
X145915428Y-148215196D01*
X146195046Y-148154369D01*
X146463161Y-148054367D01*
X146714315Y-147917226D01*
X146943395Y-147745739D01*
X147145739Y-147543395D01*
X147296039Y-147342617D01*
X152596000Y-147342617D01*
X152596000Y-147539382D01*
X152626778Y-147733705D01*
X152687581Y-147920835D01*
X152776905Y-148096145D01*
X152802319Y-148131125D01*
X152802320Y-148131125D01*
X153363037Y-147570408D01*
X153380075Y-147633993D01*
X153445901Y-147748007D01*
X153538993Y-147841099D01*
X153653007Y-147906925D01*
X153716590Y-147923962D01*
X153155873Y-148484677D01*
X153155873Y-148484678D01*
X153190858Y-148510096D01*
X153366164Y-148599418D01*
X153553294Y-148660221D01*
X153747618Y-148691000D01*
X153944382Y-148691000D01*
X154138705Y-148660221D01*
X154325835Y-148599418D01*
X154501143Y-148510095D01*
X154536125Y-148484678D01*
X154536126Y-148484678D01*
X153975410Y-147923962D01*
X154038993Y-147906925D01*
X154153007Y-147841099D01*
X154246099Y-147748007D01*
X154311925Y-147633993D01*
X154328962Y-147570410D01*
X154889678Y-148131126D01*
X154889678Y-148131125D01*
X154915097Y-148096141D01*
X155005515Y-147918685D01*
X155053489Y-147867888D01*
X155121310Y-147851093D01*
X155187445Y-147873630D01*
X155226485Y-147918684D01*
X155316905Y-148096145D01*
X155342319Y-148131125D01*
X155342320Y-148131125D01*
X155903037Y-147570408D01*
X155920075Y-147633993D01*
X155985901Y-147748007D01*
X156078993Y-147841099D01*
X156193007Y-147906925D01*
X156256590Y-147923962D01*
X155695873Y-148484677D01*
X155695873Y-148484678D01*
X155730858Y-148510096D01*
X155906164Y-148599418D01*
X156093294Y-148660221D01*
X156287618Y-148691000D01*
X156484382Y-148691000D01*
X156678705Y-148660221D01*
X156865835Y-148599418D01*
X157041143Y-148510095D01*
X157076125Y-148484678D01*
X157076126Y-148484678D01*
X156515410Y-147923962D01*
X156578993Y-147906925D01*
X156693007Y-147841099D01*
X156786099Y-147748007D01*
X156851925Y-147633993D01*
X156868962Y-147570410D01*
X157429678Y-148131126D01*
X157429678Y-148131125D01*
X157455095Y-148096143D01*
X157544418Y-147920835D01*
X157605221Y-147733705D01*
X157636000Y-147539382D01*
X157636000Y-147342617D01*
X157635994Y-147342577D01*
X163263500Y-147342577D01*
X163263500Y-147539422D01*
X163294290Y-147733826D01*
X163355117Y-147921029D01*
X163444341Y-148096141D01*
X163444476Y-148096405D01*
X163560172Y-148255646D01*
X163699354Y-148394828D01*
X163858595Y-148510524D01*
X163941455Y-148552743D01*
X164033970Y-148599882D01*
X164033972Y-148599882D01*
X164033975Y-148599884D01*
X164134317Y-148632487D01*
X164221173Y-148660709D01*
X164415578Y-148691500D01*
X164415583Y-148691500D01*
X164612422Y-148691500D01*
X164806826Y-148660709D01*
X164808328Y-148660221D01*
X164994025Y-148599884D01*
X165169405Y-148510524D01*
X165328646Y-148394828D01*
X165467828Y-148255646D01*
X165583524Y-148096405D01*
X165670863Y-147924992D01*
X165673515Y-147919787D01*
X165721489Y-147868990D01*
X165789310Y-147852195D01*
X165855445Y-147874732D01*
X165894485Y-147919787D01*
X165984474Y-148096403D01*
X165991262Y-148105745D01*
X166100172Y-148255646D01*
X166239354Y-148394828D01*
X166398595Y-148510524D01*
X166481455Y-148552743D01*
X166573970Y-148599882D01*
X166573972Y-148599882D01*
X166573975Y-148599884D01*
X166674317Y-148632487D01*
X166761173Y-148660709D01*
X166955578Y-148691500D01*
X166955583Y-148691500D01*
X167152422Y-148691500D01*
X167346826Y-148660709D01*
X167348328Y-148660221D01*
X167534025Y-148599884D01*
X167709405Y-148510524D01*
X167868646Y-148394828D01*
X168007828Y-148255646D01*
X168123524Y-148096405D01*
X168212884Y-147921025D01*
X168273709Y-147733826D01*
X168283135Y-147674315D01*
X168304500Y-147539422D01*
X168304500Y-147342577D01*
X168273709Y-147148173D01*
X168212882Y-146960970D01*
X168165743Y-146868455D01*
X168123524Y-146785595D01*
X168007828Y-146626354D01*
X167868646Y-146487172D01*
X167709405Y-146371476D01*
X167534029Y-146282117D01*
X167346826Y-146221290D01*
X167152422Y-146190500D01*
X167152417Y-146190500D01*
X166955583Y-146190500D01*
X166955578Y-146190500D01*
X166761173Y-146221290D01*
X166573970Y-146282117D01*
X166398594Y-146371476D01*
X166310153Y-146435733D01*
X166239354Y-146487172D01*
X166239352Y-146487174D01*
X166239351Y-146487174D01*
X166100174Y-146626351D01*
X166100174Y-146626352D01*
X166100172Y-146626354D01*
X166077338Y-146657782D01*
X165984476Y-146785594D01*
X165894485Y-146962213D01*
X165846511Y-147013009D01*
X165778690Y-147029804D01*
X165712555Y-147007267D01*
X165673515Y-146962213D01*
X165629296Y-146875428D01*
X165583524Y-146785595D01*
X165467828Y-146626354D01*
X165328646Y-146487172D01*
X165169405Y-146371476D01*
X164994029Y-146282117D01*
X164806826Y-146221290D01*
X164612422Y-146190500D01*
X164612417Y-146190500D01*
X164415583Y-146190500D01*
X164415578Y-146190500D01*
X164221173Y-146221290D01*
X164033970Y-146282117D01*
X163858594Y-146371476D01*
X163770153Y-146435733D01*
X163699354Y-146487172D01*
X163699352Y-146487174D01*
X163699351Y-146487174D01*
X163560174Y-146626351D01*
X163560174Y-146626352D01*
X163560172Y-146626354D01*
X163537338Y-146657782D01*
X163444476Y-146785594D01*
X163355117Y-146960970D01*
X163294290Y-147148173D01*
X163263500Y-147342577D01*
X157635994Y-147342577D01*
X157605221Y-147148294D01*
X157544418Y-146961164D01*
X157455096Y-146785858D01*
X157429678Y-146750873D01*
X157429677Y-146750873D01*
X156868962Y-147311589D01*
X156851925Y-147248007D01*
X156786099Y-147133993D01*
X156693007Y-147040901D01*
X156578993Y-146975075D01*
X156515409Y-146958037D01*
X157076125Y-146397320D01*
X157076125Y-146397319D01*
X157041145Y-146371905D01*
X156865835Y-146282581D01*
X156678705Y-146221778D01*
X156484382Y-146191000D01*
X156287618Y-146191000D01*
X156093294Y-146221778D01*
X155906161Y-146282582D01*
X155730863Y-146371899D01*
X155730859Y-146371902D01*
X155695873Y-146397320D01*
X155695872Y-146397320D01*
X156256590Y-146958037D01*
X156193007Y-146975075D01*
X156078993Y-147040901D01*
X155985901Y-147133993D01*
X155920075Y-147248007D01*
X155903037Y-147311590D01*
X155342320Y-146750872D01*
X155342320Y-146750873D01*
X155316902Y-146785859D01*
X155226484Y-146963315D01*
X155178509Y-147014111D01*
X155110688Y-147030906D01*
X155044553Y-147008369D01*
X155005514Y-146963314D01*
X154915097Y-146785860D01*
X154889678Y-146750873D01*
X154889677Y-146750873D01*
X154328962Y-147311589D01*
X154311925Y-147248007D01*
X154246099Y-147133993D01*
X154153007Y-147040901D01*
X154038993Y-146975075D01*
X153975409Y-146958037D01*
X154536125Y-146397320D01*
X154536125Y-146397319D01*
X154501145Y-146371905D01*
X154325835Y-146282581D01*
X154138705Y-146221778D01*
X153944382Y-146191000D01*
X153747618Y-146191000D01*
X153553294Y-146221778D01*
X153366161Y-146282582D01*
X153190863Y-146371899D01*
X153190859Y-146371902D01*
X153155873Y-146397320D01*
X153155872Y-146397320D01*
X153716590Y-146958037D01*
X153653007Y-146975075D01*
X153538993Y-147040901D01*
X153445901Y-147133993D01*
X153380075Y-147248007D01*
X153363037Y-147311590D01*
X152802320Y-146750872D01*
X152802320Y-146750873D01*
X152776902Y-146785859D01*
X152776899Y-146785863D01*
X152687582Y-146961161D01*
X152626778Y-147148294D01*
X152596000Y-147342617D01*
X147296039Y-147342617D01*
X147317226Y-147314315D01*
X147330401Y-147290187D01*
X147336879Y-147278324D01*
X147454364Y-147063166D01*
X147454367Y-147063161D01*
X147554369Y-146795046D01*
X147615196Y-146515428D01*
X147630500Y-146301448D01*
X147630500Y-145678711D01*
X176549500Y-145678711D01*
X176549500Y-145921288D01*
X176581161Y-146161785D01*
X176643947Y-146396104D01*
X176644451Y-146397320D01*
X176736776Y-146620212D01*
X176858064Y-146830289D01*
X176858066Y-146830292D01*
X176858067Y-146830293D01*
X177005733Y-147022736D01*
X177005739Y-147022743D01*
X177177256Y-147194260D01*
X177177263Y-147194266D01*
X177247300Y-147248007D01*
X177369711Y-147341936D01*
X177579788Y-147463224D01*
X177803900Y-147556054D01*
X178038211Y-147618838D01*
X178218586Y-147642584D01*
X178278711Y-147650500D01*
X178278712Y-147650500D01*
X178521289Y-147650500D01*
X178569388Y-147644167D01*
X178761789Y-147618838D01*
X178996100Y-147556054D01*
X179220212Y-147463224D01*
X179430289Y-147341936D01*
X179622738Y-147194265D01*
X179794265Y-147022738D01*
X179941936Y-146830289D01*
X180063224Y-146620212D01*
X180156054Y-146396100D01*
X180218838Y-146161789D01*
X180250500Y-145921288D01*
X180250500Y-145678712D01*
X180218838Y-145438211D01*
X180156054Y-145203900D01*
X180063224Y-144979788D01*
X179941936Y-144769711D01*
X179794265Y-144577262D01*
X179794260Y-144577256D01*
X179622743Y-144405739D01*
X179622736Y-144405733D01*
X179430293Y-144258067D01*
X179430292Y-144258066D01*
X179430289Y-144258064D01*
X179220212Y-144136776D01*
X179220205Y-144136773D01*
X178996104Y-144043947D01*
X178761785Y-143981161D01*
X178521289Y-143949500D01*
X178521288Y-143949500D01*
X178278712Y-143949500D01*
X178278711Y-143949500D01*
X178038214Y-143981161D01*
X177803895Y-144043947D01*
X177579794Y-144136773D01*
X177579785Y-144136777D01*
X177369706Y-144258067D01*
X177177263Y-144405733D01*
X177177256Y-144405739D01*
X177005739Y-144577256D01*
X177005733Y-144577263D01*
X176858067Y-144769706D01*
X176736777Y-144979785D01*
X176736773Y-144979794D01*
X176643947Y-145203895D01*
X176581161Y-145438214D01*
X176549500Y-145678711D01*
X147630500Y-145678711D01*
X147630500Y-143158552D01*
X147615196Y-142944572D01*
X147610841Y-142924554D01*
X147554371Y-142664962D01*
X147554370Y-142664960D01*
X147554369Y-142664954D01*
X147454367Y-142396839D01*
X147317226Y-142145685D01*
X147317224Y-142145682D01*
X147145745Y-141916612D01*
X147145729Y-141916594D01*
X146943405Y-141714270D01*
X146943387Y-141714254D01*
X146714317Y-141542775D01*
X146714309Y-141542770D01*
X146463166Y-141405635D01*
X146463167Y-141405635D01*
X146355915Y-141365632D01*
X146195046Y-141305631D01*
X146195043Y-141305630D01*
X146195037Y-141305628D01*
X145915433Y-141244804D01*
X145701450Y-141229500D01*
X145701448Y-141229500D01*
X144733325Y-141229500D01*
X144666286Y-141209815D01*
X144620531Y-141157011D01*
X144610587Y-141087853D01*
X144639612Y-141024297D01*
X144698390Y-140986523D01*
X144709134Y-140983883D01*
X144871550Y-140951575D01*
X144981578Y-140929690D01*
X145310705Y-140829850D01*
X145628462Y-140698231D01*
X145931787Y-140536100D01*
X146217760Y-140345019D01*
X146483627Y-140126828D01*
X146726828Y-139883627D01*
X146945019Y-139617760D01*
X147136100Y-139331787D01*
X147298231Y-139028462D01*
X147429850Y-138710705D01*
X147529690Y-138381578D01*
X147596789Y-138044250D01*
X147630500Y-137701969D01*
X147630500Y-137358031D01*
X147596789Y-137015750D01*
X147529690Y-136678422D01*
X147429850Y-136349295D01*
X147298231Y-136031538D01*
X147136100Y-135728213D01*
X147095632Y-135667648D01*
X172369500Y-135667648D01*
X172369500Y-135872351D01*
X172401522Y-136074534D01*
X172464781Y-136269223D01*
X172557715Y-136451613D01*
X172678028Y-136617213D01*
X172822786Y-136761971D01*
X172977749Y-136874556D01*
X172988390Y-136882287D01*
X173104607Y-136941503D01*
X173170776Y-136975218D01*
X173170778Y-136975218D01*
X173170781Y-136975220D01*
X173275137Y-137009127D01*
X173365465Y-137038477D01*
X173466557Y-137054488D01*
X173567648Y-137070500D01*
X173567649Y-137070500D01*
X173772351Y-137070500D01*
X173772352Y-137070500D01*
X173974534Y-137038477D01*
X174169219Y-136975220D01*
X174351610Y-136882287D01*
X174444590Y-136814732D01*
X174517213Y-136761971D01*
X174517215Y-136761968D01*
X174517219Y-136761966D01*
X174661966Y-136617219D01*
X174661968Y-136617215D01*
X174661971Y-136617213D01*
X174714732Y-136544590D01*
X174782287Y-136451610D01*
X174875220Y-136269219D01*
X174938477Y-136074534D01*
X174970500Y-135872352D01*
X174970500Y-135667648D01*
X174938477Y-135465466D01*
X174930930Y-135442240D01*
X174897382Y-135338989D01*
X174875220Y-135270781D01*
X174875218Y-135270778D01*
X174875218Y-135270776D01*
X174841503Y-135204607D01*
X174782287Y-135088390D01*
X174742098Y-135033074D01*
X174661971Y-134922786D01*
X174517213Y-134778028D01*
X174351613Y-134657715D01*
X174351612Y-134657714D01*
X174351610Y-134657713D01*
X174294653Y-134628691D01*
X174169223Y-134564781D01*
X173974534Y-134501522D01*
X173799995Y-134473878D01*
X173772352Y-134469500D01*
X173567648Y-134469500D01*
X173543329Y-134473351D01*
X173365465Y-134501522D01*
X173170776Y-134564781D01*
X172988386Y-134657715D01*
X172822786Y-134778028D01*
X172678028Y-134922786D01*
X172557715Y-135088386D01*
X172464781Y-135270776D01*
X172401522Y-135465465D01*
X172369500Y-135667648D01*
X147095632Y-135667648D01*
X146945019Y-135442240D01*
X146726828Y-135176373D01*
X146726827Y-135176372D01*
X146726823Y-135176367D01*
X146483632Y-134933176D01*
X146217765Y-134714985D01*
X146217764Y-134714984D01*
X146217760Y-134714981D01*
X145931787Y-134523900D01*
X145931782Y-134523897D01*
X145931775Y-134523893D01*
X145628469Y-134361772D01*
X145628464Y-134361770D01*
X145310706Y-134230150D01*
X144981572Y-134130308D01*
X144644248Y-134063210D01*
X144644249Y-134063210D01*
X144386456Y-134037821D01*
X144301969Y-134029500D01*
X144110776Y-134029500D01*
X144043737Y-134009815D01*
X143997982Y-133957011D01*
X143988038Y-133887853D01*
X144017063Y-133824297D01*
X144023095Y-133817819D01*
X144530886Y-133310029D01*
X145199096Y-132641819D01*
X145260419Y-132608334D01*
X145286777Y-132605500D01*
X174581607Y-132605500D01*
X174642029Y-132593481D01*
X174702452Y-132581463D01*
X174735792Y-132567652D01*
X174816286Y-132534312D01*
X174867509Y-132500084D01*
X174918733Y-132465858D01*
X175005858Y-132378733D01*
X175005858Y-132378731D01*
X175016066Y-132368524D01*
X175016067Y-132368521D01*
X177288012Y-130096576D01*
X177349334Y-130063093D01*
X177419026Y-130068077D01*
X177474959Y-130109949D01*
X177499376Y-130175413D01*
X177499338Y-130186711D01*
X177499500Y-130186711D01*
X177499500Y-130388422D01*
X177530290Y-130582826D01*
X177591117Y-130770029D01*
X177643236Y-130872317D01*
X177680476Y-130945405D01*
X177796172Y-131104646D01*
X177935354Y-131243828D01*
X178094595Y-131359524D01*
X178217992Y-131422397D01*
X178271213Y-131449515D01*
X178322009Y-131497489D01*
X178338804Y-131565310D01*
X178316267Y-131631445D01*
X178271213Y-131670485D01*
X178094594Y-131760476D01*
X178003741Y-131826485D01*
X177935354Y-131876172D01*
X177935352Y-131876174D01*
X177935351Y-131876174D01*
X177796174Y-132015351D01*
X177796174Y-132015352D01*
X177796172Y-132015354D01*
X177746485Y-132083741D01*
X177680476Y-132174594D01*
X177591117Y-132349970D01*
X177530290Y-132537173D01*
X177499500Y-132731577D01*
X177499500Y-132928422D01*
X177530290Y-133122826D01*
X177591117Y-133310029D01*
X177680476Y-133485405D01*
X177796172Y-133644646D01*
X177935354Y-133783828D01*
X178094595Y-133899524D01*
X178163895Y-133934834D01*
X178269970Y-133988882D01*
X178269972Y-133988882D01*
X178269975Y-133988884D01*
X178334394Y-134009815D01*
X178457173Y-134049709D01*
X178651578Y-134080500D01*
X178651583Y-134080500D01*
X178848422Y-134080500D01*
X179042826Y-134049709D01*
X179230025Y-133988884D01*
X179405405Y-133899524D01*
X179564646Y-133783828D01*
X179703828Y-133644646D01*
X179819524Y-133485405D01*
X179908884Y-133310025D01*
X179969709Y-133122826D01*
X180000500Y-132928422D01*
X180000500Y-132731577D01*
X179969709Y-132537173D01*
X179908882Y-132349970D01*
X179819523Y-132174594D01*
X179805956Y-132155921D01*
X179703828Y-132015354D01*
X179564646Y-131876172D01*
X179485025Y-131818324D01*
X179405403Y-131760474D01*
X179228787Y-131670485D01*
X179177990Y-131622511D01*
X179161195Y-131554690D01*
X179183732Y-131488555D01*
X179228787Y-131449515D01*
X179405403Y-131359525D01*
X179405402Y-131359525D01*
X179405405Y-131359524D01*
X179564646Y-131243828D01*
X179703828Y-131104646D01*
X179819524Y-130945405D01*
X179908884Y-130770025D01*
X179969709Y-130582826D01*
X179981103Y-130510886D01*
X180000500Y-130388422D01*
X180000500Y-130191577D01*
X179969709Y-129997173D01*
X179908882Y-129809970D01*
X179848021Y-129690524D01*
X179819524Y-129634595D01*
X179703828Y-129475354D01*
X179564646Y-129336172D01*
X179449555Y-129252553D01*
X179405403Y-129220474D01*
X179228787Y-129130485D01*
X179177990Y-129082511D01*
X179161195Y-129014690D01*
X179183732Y-128948555D01*
X179228787Y-128909515D01*
X179405403Y-128819525D01*
X179405402Y-128819525D01*
X179405405Y-128819524D01*
X179564646Y-128703828D01*
X179703828Y-128564646D01*
X179819524Y-128405405D01*
X179908884Y-128230025D01*
X179969709Y-128042826D01*
X179976771Y-127998236D01*
X180000500Y-127848422D01*
X180000500Y-127651577D01*
X179969709Y-127457173D01*
X179908882Y-127269970D01*
X179832418Y-127119901D01*
X179819524Y-127094595D01*
X179703828Y-126935354D01*
X179564646Y-126796172D01*
X179485025Y-126738324D01*
X179405403Y-126680474D01*
X179228787Y-126590485D01*
X179177990Y-126542511D01*
X179161195Y-126474690D01*
X179183732Y-126408555D01*
X179228787Y-126369515D01*
X179405403Y-126279525D01*
X179405402Y-126279525D01*
X179405405Y-126279524D01*
X179564646Y-126163828D01*
X179703828Y-126024646D01*
X179819524Y-125865405D01*
X179908884Y-125690025D01*
X179969709Y-125502826D01*
X180000500Y-125308422D01*
X180000500Y-125111577D01*
X179969709Y-124917173D01*
X179941487Y-124830317D01*
X179908884Y-124729975D01*
X179908882Y-124729972D01*
X179908882Y-124729970D01*
X179856960Y-124628067D01*
X179819524Y-124554595D01*
X179703828Y-124395354D01*
X179564646Y-124256172D01*
X179405405Y-124140476D01*
X179230025Y-124051116D01*
X179230024Y-124051115D01*
X179228235Y-124050204D01*
X179177439Y-124002230D01*
X179160644Y-123934409D01*
X179183181Y-123868274D01*
X179228236Y-123829234D01*
X179405141Y-123739097D01*
X179440125Y-123713678D01*
X179440126Y-123713678D01*
X178879410Y-123152962D01*
X178942993Y-123135925D01*
X179057007Y-123070099D01*
X179150099Y-122977007D01*
X179215925Y-122862993D01*
X179232962Y-122799409D01*
X179793678Y-123360126D01*
X179793678Y-123360125D01*
X179819095Y-123325143D01*
X179908418Y-123149835D01*
X179969221Y-122962705D01*
X180000000Y-122768382D01*
X180000000Y-122571617D01*
X179969221Y-122377294D01*
X179908418Y-122190164D01*
X179819096Y-122014858D01*
X179793678Y-121979873D01*
X179793677Y-121979873D01*
X179232962Y-122540589D01*
X179215925Y-122477007D01*
X179150099Y-122362993D01*
X179057007Y-122269901D01*
X178942993Y-122204075D01*
X178879409Y-122187037D01*
X179440125Y-121626320D01*
X179440125Y-121626319D01*
X179405145Y-121600905D01*
X179227684Y-121510485D01*
X179176888Y-121462511D01*
X179160093Y-121394690D01*
X179182630Y-121328555D01*
X179227685Y-121289515D01*
X179405141Y-121199097D01*
X179440125Y-121173678D01*
X179440126Y-121173678D01*
X178879410Y-120612962D01*
X178942993Y-120595925D01*
X179057007Y-120530099D01*
X179150099Y-120437007D01*
X179215925Y-120322993D01*
X179232962Y-120259409D01*
X179793678Y-120820126D01*
X179793678Y-120820125D01*
X179819095Y-120785143D01*
X179908418Y-120609835D01*
X179969221Y-120422705D01*
X180000000Y-120228382D01*
X180000000Y-120031617D01*
X179969221Y-119837294D01*
X179908418Y-119650164D01*
X179819096Y-119474858D01*
X179793678Y-119439873D01*
X179793677Y-119439873D01*
X179232962Y-120000589D01*
X179215925Y-119937007D01*
X179150099Y-119822993D01*
X179057007Y-119729901D01*
X178942993Y-119664075D01*
X178879409Y-119647037D01*
X179440125Y-119086320D01*
X179440125Y-119086319D01*
X179405145Y-119060905D01*
X179229835Y-118971581D01*
X179042705Y-118910778D01*
X178848382Y-118880000D01*
X178651618Y-118880000D01*
X178457294Y-118910778D01*
X178270161Y-118971582D01*
X178094863Y-119060899D01*
X178094859Y-119060902D01*
X178059873Y-119086320D01*
X178059872Y-119086320D01*
X178620590Y-119647037D01*
X178557007Y-119664075D01*
X178442993Y-119729901D01*
X178349901Y-119822993D01*
X178284075Y-119937007D01*
X178267037Y-120000590D01*
X177706320Y-119439872D01*
X177706320Y-119439873D01*
X177680902Y-119474859D01*
X177680899Y-119474863D01*
X177591582Y-119650161D01*
X177530778Y-119837294D01*
X177500000Y-120031617D01*
X177500000Y-120228382D01*
X177530778Y-120422705D01*
X177591581Y-120609835D01*
X177680905Y-120785145D01*
X177706319Y-120820125D01*
X177706320Y-120820125D01*
X178267037Y-120259408D01*
X178284075Y-120322993D01*
X178349901Y-120437007D01*
X178442993Y-120530099D01*
X178557007Y-120595925D01*
X178620590Y-120612962D01*
X178059873Y-121173677D01*
X178059873Y-121173678D01*
X178094860Y-121199097D01*
X178272314Y-121289514D01*
X178323111Y-121337488D01*
X178339906Y-121405309D01*
X178317369Y-121471444D01*
X178272315Y-121510484D01*
X178094859Y-121600902D01*
X178059873Y-121626320D01*
X178059872Y-121626320D01*
X178620590Y-122187037D01*
X178557007Y-122204075D01*
X178442993Y-122269901D01*
X178349901Y-122362993D01*
X178284075Y-122477007D01*
X178267037Y-122540590D01*
X177706320Y-121979872D01*
X177706320Y-121979873D01*
X177680902Y-122014859D01*
X177680899Y-122014863D01*
X177591582Y-122190161D01*
X177530778Y-122377294D01*
X177500000Y-122571617D01*
X177500000Y-122768382D01*
X177530778Y-122962705D01*
X177591581Y-123149835D01*
X177680905Y-123325145D01*
X177706319Y-123360125D01*
X177706320Y-123360125D01*
X178267037Y-122799408D01*
X178284075Y-122862993D01*
X178349901Y-122977007D01*
X178442993Y-123070099D01*
X178557007Y-123135925D01*
X178620590Y-123152962D01*
X178059873Y-123713677D01*
X178059873Y-123713678D01*
X178094858Y-123739096D01*
X178271764Y-123829234D01*
X178322560Y-123877209D01*
X178339355Y-123945030D01*
X178316818Y-124011164D01*
X178271764Y-124050204D01*
X178094594Y-124140476D01*
X178003741Y-124206485D01*
X177935354Y-124256172D01*
X177935352Y-124256174D01*
X177935351Y-124256174D01*
X177796173Y-124395352D01*
X177695885Y-124533386D01*
X177640554Y-124576051D01*
X177595567Y-124584500D01*
X161478881Y-124584500D01*
X161411842Y-124564815D01*
X161366087Y-124512011D01*
X161356143Y-124442853D01*
X161385168Y-124379297D01*
X161391200Y-124372819D01*
X161482712Y-124281307D01*
X161574814Y-124131985D01*
X161629999Y-123965448D01*
X161640500Y-123862660D01*
X161640499Y-122662643D01*
X161631820Y-122577682D01*
X172590000Y-122577682D01*
X172590000Y-122782317D01*
X172622009Y-122984417D01*
X172685244Y-123179031D01*
X172778141Y-123361350D01*
X172778147Y-123361359D01*
X172810523Y-123405921D01*
X172810524Y-123405922D01*
X173490000Y-122726446D01*
X173490000Y-122732661D01*
X173517259Y-122834394D01*
X173569920Y-122925606D01*
X173644394Y-123000080D01*
X173735606Y-123052741D01*
X173837339Y-123080000D01*
X173843553Y-123080000D01*
X173164076Y-123759474D01*
X173208650Y-123791859D01*
X173390968Y-123884755D01*
X173585582Y-123947990D01*
X173787683Y-123980000D01*
X173992317Y-123980000D01*
X174194417Y-123947990D01*
X174389031Y-123884755D01*
X174571349Y-123791859D01*
X174615921Y-123759474D01*
X173936447Y-123080000D01*
X173942661Y-123080000D01*
X174044394Y-123052741D01*
X174135606Y-123000080D01*
X174210080Y-122925606D01*
X174262741Y-122834394D01*
X174290000Y-122732661D01*
X174290000Y-122726447D01*
X174969474Y-123405921D01*
X175001859Y-123361349D01*
X175094755Y-123179031D01*
X175157990Y-122984417D01*
X175190000Y-122782317D01*
X175190000Y-122577682D01*
X175157990Y-122375582D01*
X175094755Y-122180968D01*
X175001859Y-121998650D01*
X174969474Y-121954077D01*
X174969474Y-121954076D01*
X174290000Y-122633551D01*
X174290000Y-122627339D01*
X174262741Y-122525606D01*
X174210080Y-122434394D01*
X174135606Y-122359920D01*
X174044394Y-122307259D01*
X173942661Y-122280000D01*
X173936446Y-122280000D01*
X174615922Y-121600524D01*
X174615921Y-121600523D01*
X174571359Y-121568147D01*
X174571350Y-121568141D01*
X174389031Y-121475244D01*
X174194417Y-121412009D01*
X173992317Y-121380000D01*
X173787683Y-121380000D01*
X173585582Y-121412009D01*
X173390968Y-121475244D01*
X173208644Y-121568143D01*
X173164077Y-121600523D01*
X173164077Y-121600524D01*
X173843554Y-122280000D01*
X173837339Y-122280000D01*
X173735606Y-122307259D01*
X173644394Y-122359920D01*
X173569920Y-122434394D01*
X173517259Y-122525606D01*
X173490000Y-122627339D01*
X173490000Y-122633553D01*
X172810524Y-121954077D01*
X172810523Y-121954077D01*
X172778143Y-121998644D01*
X172685244Y-122180968D01*
X172622009Y-122375582D01*
X172590000Y-122577682D01*
X161631820Y-122577682D01*
X161629999Y-122559854D01*
X161574814Y-122393317D01*
X161482712Y-122243995D01*
X161358656Y-122119939D01*
X161209334Y-122027837D01*
X161042797Y-121972652D01*
X161042795Y-121972651D01*
X160940010Y-121962151D01*
X159739998Y-121962151D01*
X159739981Y-121962152D01*
X159637203Y-121972651D01*
X159637200Y-121972652D01*
X159470668Y-122027836D01*
X159470663Y-122027838D01*
X159321342Y-122119940D01*
X159197289Y-122243993D01*
X159105187Y-122393314D01*
X159105186Y-122393317D01*
X159050001Y-122559854D01*
X159050001Y-122559855D01*
X159050000Y-122559855D01*
X159039500Y-122662634D01*
X159039500Y-123862652D01*
X159039501Y-123862669D01*
X159050000Y-123965447D01*
X159050001Y-123965450D01*
X159105185Y-124131982D01*
X159105187Y-124131987D01*
X159197289Y-124281308D01*
X159288800Y-124372819D01*
X159322285Y-124434142D01*
X159317301Y-124503834D01*
X159275429Y-124559767D01*
X159209965Y-124584184D01*
X159201119Y-124584500D01*
X142810794Y-124584500D01*
X142759940Y-124594615D01*
X142759935Y-124594616D01*
X142750376Y-124596518D01*
X142689953Y-124608537D01*
X142642802Y-124628067D01*
X142576120Y-124655688D01*
X142576119Y-124655689D01*
X142553752Y-124670633D01*
X142553749Y-124670635D01*
X142473673Y-124724140D01*
X142430110Y-124767703D01*
X142386547Y-124811267D01*
X142386544Y-124811270D01*
X140299088Y-126898725D01*
X140237765Y-126932210D01*
X140168073Y-126927226D01*
X140112140Y-126885354D01*
X140100922Y-126867339D01*
X140099524Y-126864595D01*
X139983828Y-126705354D01*
X139844646Y-126566172D01*
X139685405Y-126450476D01*
X139510029Y-126361117D01*
X139322826Y-126300290D01*
X139128422Y-126269500D01*
X139128417Y-126269500D01*
X138931583Y-126269500D01*
X138931578Y-126269500D01*
X138737173Y-126300290D01*
X138549970Y-126361117D01*
X138374594Y-126450476D01*
X138283741Y-126516485D01*
X138215354Y-126566172D01*
X138215352Y-126566174D01*
X138215351Y-126566174D01*
X138076174Y-126705351D01*
X138076174Y-126705352D01*
X138076172Y-126705354D01*
X138026485Y-126773741D01*
X137960476Y-126864594D01*
X137870485Y-127041213D01*
X137822511Y-127092009D01*
X137754690Y-127108804D01*
X137688555Y-127086267D01*
X137649515Y-127041213D01*
X137560922Y-126867339D01*
X137559524Y-126864595D01*
X137443828Y-126705354D01*
X137304646Y-126566172D01*
X137145405Y-126450476D01*
X136970029Y-126361117D01*
X136782826Y-126300290D01*
X136588422Y-126269500D01*
X136588417Y-126269500D01*
X136391583Y-126269500D01*
X136391578Y-126269500D01*
X136197173Y-126300290D01*
X136009970Y-126361117D01*
X135834594Y-126450476D01*
X135743741Y-126516485D01*
X135675354Y-126566172D01*
X135675352Y-126566174D01*
X135675351Y-126566174D01*
X135536174Y-126705351D01*
X135536174Y-126705352D01*
X135536172Y-126705354D01*
X135486485Y-126773741D01*
X135420476Y-126864594D01*
X135330485Y-127041213D01*
X135282511Y-127092009D01*
X135214690Y-127108804D01*
X135148555Y-127086267D01*
X135109515Y-127041213D01*
X135020922Y-126867339D01*
X135019524Y-126864595D01*
X134903828Y-126705354D01*
X134764646Y-126566172D01*
X134605405Y-126450476D01*
X134430029Y-126361117D01*
X134242826Y-126300290D01*
X134048422Y-126269500D01*
X134048417Y-126269500D01*
X133851583Y-126269500D01*
X133851578Y-126269500D01*
X133657173Y-126300290D01*
X133469970Y-126361117D01*
X133294594Y-126450476D01*
X133203741Y-126516485D01*
X133135354Y-126566172D01*
X133135352Y-126566174D01*
X133135351Y-126566174D01*
X132996174Y-126705351D01*
X132996174Y-126705352D01*
X132996172Y-126705354D01*
X132946485Y-126773741D01*
X132880476Y-126864594D01*
X132790485Y-127041213D01*
X132742511Y-127092009D01*
X132674690Y-127108804D01*
X132608555Y-127086267D01*
X132569515Y-127041213D01*
X132480922Y-126867339D01*
X132479524Y-126864595D01*
X132363828Y-126705354D01*
X132224646Y-126566172D01*
X132065405Y-126450476D01*
X131890029Y-126361117D01*
X131702826Y-126300290D01*
X131508422Y-126269500D01*
X131508417Y-126269500D01*
X131311583Y-126269500D01*
X131311578Y-126269500D01*
X131117173Y-126300290D01*
X130929970Y-126361117D01*
X130754594Y-126450476D01*
X130663741Y-126516485D01*
X130595354Y-126566172D01*
X130595352Y-126566174D01*
X130595351Y-126566174D01*
X130456174Y-126705351D01*
X130456174Y-126705352D01*
X130456172Y-126705354D01*
X130406485Y-126773741D01*
X130340476Y-126864594D01*
X130250485Y-127041213D01*
X130202511Y-127092009D01*
X130134690Y-127108804D01*
X130068555Y-127086267D01*
X130029515Y-127041213D01*
X129940922Y-126867339D01*
X129939524Y-126864595D01*
X129823828Y-126705354D01*
X129684646Y-126566172D01*
X129525405Y-126450476D01*
X129350029Y-126361117D01*
X129162826Y-126300290D01*
X128968422Y-126269500D01*
X128968417Y-126269500D01*
X128771583Y-126269500D01*
X128771578Y-126269500D01*
X128577173Y-126300290D01*
X128389970Y-126361117D01*
X128214594Y-126450476D01*
X128123741Y-126516485D01*
X128055354Y-126566172D01*
X128055352Y-126566174D01*
X128055351Y-126566174D01*
X127916174Y-126705351D01*
X127916174Y-126705352D01*
X127916172Y-126705354D01*
X127866485Y-126773741D01*
X127800476Y-126864594D01*
X127710204Y-127041764D01*
X127662229Y-127092560D01*
X127594408Y-127109355D01*
X127528274Y-127086818D01*
X127489234Y-127041764D01*
X127399096Y-126864858D01*
X127373678Y-126829873D01*
X127373677Y-126829873D01*
X126812962Y-127390589D01*
X126795925Y-127327007D01*
X126730099Y-127212993D01*
X126637007Y-127119901D01*
X126522993Y-127054075D01*
X126459409Y-127037037D01*
X127020125Y-126476320D01*
X127020125Y-126476319D01*
X126985145Y-126450905D01*
X126809835Y-126361581D01*
X126622705Y-126300778D01*
X126428382Y-126270000D01*
X126231618Y-126270000D01*
X126037294Y-126300778D01*
X125850161Y-126361582D01*
X125674863Y-126450899D01*
X125674859Y-126450902D01*
X125639873Y-126476320D01*
X125639872Y-126476320D01*
X126200590Y-127037037D01*
X126137007Y-127054075D01*
X126022993Y-127119901D01*
X125929901Y-127212993D01*
X125864075Y-127327007D01*
X125847037Y-127390590D01*
X125286320Y-126829872D01*
X125286320Y-126829873D01*
X125260902Y-126864859D01*
X125170765Y-127041764D01*
X125122790Y-127092560D01*
X125054969Y-127109355D01*
X124988835Y-127086818D01*
X124949795Y-127041763D01*
X124859525Y-126864596D01*
X124834296Y-126829872D01*
X124743828Y-126705354D01*
X124604646Y-126566172D01*
X124445405Y-126450476D01*
X124270029Y-126361117D01*
X124082826Y-126300290D01*
X123888422Y-126269500D01*
X123888417Y-126269500D01*
X123691583Y-126269500D01*
X123691578Y-126269500D01*
X123497173Y-126300290D01*
X123309970Y-126361117D01*
X123134594Y-126450476D01*
X123043741Y-126516485D01*
X122975354Y-126566172D01*
X122975352Y-126566174D01*
X122975351Y-126566174D01*
X122836174Y-126705351D01*
X122836174Y-126705352D01*
X122836172Y-126705354D01*
X122786485Y-126773741D01*
X122720476Y-126864594D01*
X122630485Y-127041213D01*
X122582511Y-127092009D01*
X122514690Y-127108804D01*
X122448555Y-127086267D01*
X122409515Y-127041213D01*
X122320922Y-126867339D01*
X122319524Y-126864595D01*
X122203828Y-126705354D01*
X122064646Y-126566172D01*
X121905405Y-126450476D01*
X121730029Y-126361117D01*
X121542826Y-126300290D01*
X121348422Y-126269500D01*
X121348417Y-126269500D01*
X121151583Y-126269500D01*
X121151576Y-126269500D01*
X120983065Y-126296189D01*
X120913772Y-126287234D01*
X120875987Y-126261397D01*
X120667150Y-126052560D01*
X120659860Y-126045270D01*
X120659858Y-126045267D01*
X120572733Y-125958142D01*
X120521509Y-125923915D01*
X120470286Y-125889688D01*
X120369114Y-125847782D01*
X120356452Y-125842537D01*
X120296029Y-125830518D01*
X120292922Y-125829900D01*
X120292918Y-125829899D01*
X120235610Y-125818500D01*
X120235607Y-125818500D01*
X120235606Y-125818500D01*
X109954452Y-125818500D01*
X109887413Y-125798815D01*
X109866771Y-125782181D01*
X103744923Y-119660333D01*
X159040000Y-119660333D01*
X159040000Y-119864968D01*
X159072009Y-120067068D01*
X159135244Y-120261682D01*
X159228141Y-120444001D01*
X159228147Y-120444010D01*
X159260523Y-120488572D01*
X159260524Y-120488573D01*
X159940000Y-119809097D01*
X159940000Y-119815312D01*
X159967259Y-119917045D01*
X160019920Y-120008257D01*
X160094394Y-120082731D01*
X160185606Y-120135392D01*
X160287339Y-120162651D01*
X160293553Y-120162651D01*
X159614076Y-120842125D01*
X159658650Y-120874510D01*
X159840968Y-120967406D01*
X160035582Y-121030641D01*
X160237683Y-121062651D01*
X160442317Y-121062651D01*
X160644417Y-121030641D01*
X160839031Y-120967406D01*
X161021349Y-120874510D01*
X161065921Y-120842125D01*
X160386447Y-120162651D01*
X160392661Y-120162651D01*
X160494394Y-120135392D01*
X160585606Y-120082731D01*
X160660080Y-120008257D01*
X160712741Y-119917045D01*
X160740000Y-119815312D01*
X160740000Y-119809098D01*
X161419474Y-120488572D01*
X161451859Y-120444000D01*
X161544755Y-120261682D01*
X161607989Y-120067068D01*
X161617448Y-120007353D01*
X161640000Y-119864968D01*
X161640000Y-119660333D01*
X161607990Y-119458233D01*
X161544755Y-119263619D01*
X161451859Y-119081301D01*
X161419474Y-119036728D01*
X161419474Y-119036727D01*
X160740000Y-119716202D01*
X160740000Y-119709990D01*
X160712741Y-119608257D01*
X160660080Y-119517045D01*
X160585606Y-119442571D01*
X160494394Y-119389910D01*
X160392661Y-119362651D01*
X160386446Y-119362651D01*
X161065922Y-118683175D01*
X161065921Y-118683174D01*
X161021359Y-118650798D01*
X161021350Y-118650792D01*
X160839031Y-118557895D01*
X160644417Y-118494660D01*
X160442317Y-118462651D01*
X160237683Y-118462651D01*
X160035582Y-118494660D01*
X159840968Y-118557895D01*
X159658644Y-118650794D01*
X159614077Y-118683174D01*
X159614077Y-118683175D01*
X160293554Y-119362651D01*
X160287339Y-119362651D01*
X160185606Y-119389910D01*
X160094394Y-119442571D01*
X160019920Y-119517045D01*
X159967259Y-119608257D01*
X159940000Y-119709990D01*
X159940000Y-119716204D01*
X159260524Y-119036728D01*
X159260523Y-119036728D01*
X159228143Y-119081295D01*
X159135244Y-119263619D01*
X159072009Y-119458233D01*
X159040000Y-119660333D01*
X103744923Y-119660333D01*
X101964573Y-117879983D01*
X168599500Y-117879983D01*
X168599500Y-119080001D01*
X168599501Y-119080018D01*
X168610000Y-119182796D01*
X168610001Y-119182799D01*
X168665185Y-119349331D01*
X168665186Y-119349334D01*
X168757288Y-119498656D01*
X168881344Y-119622712D01*
X169030666Y-119714814D01*
X169197203Y-119769999D01*
X169299991Y-119780500D01*
X170500008Y-119780499D01*
X170602797Y-119769999D01*
X170769334Y-119714814D01*
X170918656Y-119622712D01*
X171042712Y-119498656D01*
X171134814Y-119349334D01*
X171189999Y-119182797D01*
X171200500Y-119080009D01*
X171200499Y-117879992D01*
X171189999Y-117777203D01*
X171134814Y-117610666D01*
X171042712Y-117461344D01*
X170918656Y-117337288D01*
X170769334Y-117245186D01*
X170707558Y-117224715D01*
X170650115Y-117184943D01*
X170623292Y-117120427D01*
X170622946Y-117097280D01*
X170625921Y-117059473D01*
X169946447Y-116380000D01*
X169952661Y-116380000D01*
X170054394Y-116352741D01*
X170145606Y-116300080D01*
X170220080Y-116225606D01*
X170272741Y-116134394D01*
X170300000Y-116032661D01*
X170300000Y-116026447D01*
X170979474Y-116705921D01*
X171011859Y-116661349D01*
X171104755Y-116479031D01*
X171167990Y-116284417D01*
X171200000Y-116082317D01*
X171200000Y-115877682D01*
X171167990Y-115675582D01*
X171104755Y-115480968D01*
X171011859Y-115298650D01*
X170979474Y-115254077D01*
X170979474Y-115254076D01*
X170300000Y-115933551D01*
X170300000Y-115927339D01*
X170272741Y-115825606D01*
X170220080Y-115734394D01*
X170145606Y-115659920D01*
X170054394Y-115607259D01*
X169952661Y-115580000D01*
X169946446Y-115580000D01*
X170625922Y-114900524D01*
X170625921Y-114900523D01*
X170581359Y-114868147D01*
X170581350Y-114868141D01*
X170399031Y-114775244D01*
X170204417Y-114712009D01*
X170002317Y-114680000D01*
X169797683Y-114680000D01*
X169595582Y-114712009D01*
X169400968Y-114775244D01*
X169218644Y-114868143D01*
X169174077Y-114900523D01*
X169174077Y-114900524D01*
X169853554Y-115580000D01*
X169847339Y-115580000D01*
X169745606Y-115607259D01*
X169654394Y-115659920D01*
X169579920Y-115734394D01*
X169527259Y-115825606D01*
X169500000Y-115927339D01*
X169500000Y-115933553D01*
X168820524Y-115254077D01*
X168820523Y-115254077D01*
X168788143Y-115298644D01*
X168695244Y-115480968D01*
X168632009Y-115675582D01*
X168600000Y-115877682D01*
X168600000Y-116082317D01*
X168632009Y-116284417D01*
X168695244Y-116479031D01*
X168788141Y-116661350D01*
X168788147Y-116661359D01*
X168820523Y-116705921D01*
X168820524Y-116705922D01*
X169500000Y-116026446D01*
X169500000Y-116032661D01*
X169527259Y-116134394D01*
X169579920Y-116225606D01*
X169654394Y-116300080D01*
X169745606Y-116352741D01*
X169847339Y-116380000D01*
X169853553Y-116380000D01*
X169174076Y-117059474D01*
X169177052Y-117097282D01*
X169162687Y-117165659D01*
X169113636Y-117215415D01*
X169092440Y-117224715D01*
X169030672Y-117245184D01*
X169030663Y-117245187D01*
X168881342Y-117337289D01*
X168757289Y-117461342D01*
X168665187Y-117610663D01*
X168665186Y-117610666D01*
X168610001Y-117777203D01*
X168610001Y-117777204D01*
X168610000Y-117777204D01*
X168599500Y-117879983D01*
X101964573Y-117879983D01*
X87462428Y-103377838D01*
X87428943Y-103316515D01*
X87432177Y-103251841D01*
X87437246Y-103236243D01*
X87470500Y-103026287D01*
X87470500Y-102813713D01*
X87437246Y-102603757D01*
X87371557Y-102401588D01*
X87275051Y-102212184D01*
X87150104Y-102040208D01*
X87131473Y-102021577D01*
X92059500Y-102021577D01*
X92059500Y-102218422D01*
X92090290Y-102412826D01*
X92151117Y-102600029D01*
X92240475Y-102775403D01*
X92240476Y-102775405D01*
X92356172Y-102934646D01*
X92495354Y-103073828D01*
X92654595Y-103189524D01*
X92737455Y-103231743D01*
X92829970Y-103278882D01*
X92829972Y-103278882D01*
X92829975Y-103278884D01*
X92930317Y-103311487D01*
X93017173Y-103339709D01*
X93211578Y-103370500D01*
X93211583Y-103370500D01*
X93408422Y-103370500D01*
X93602826Y-103339709D01*
X93617888Y-103334815D01*
X93790025Y-103278884D01*
X93965405Y-103189524D01*
X94124646Y-103073828D01*
X94263828Y-102934646D01*
X94379524Y-102775405D01*
X94386957Y-102760816D01*
X94469515Y-102598787D01*
X94517489Y-102547990D01*
X94585310Y-102531195D01*
X94651445Y-102553732D01*
X94690485Y-102598787D01*
X94780474Y-102775403D01*
X94815234Y-102823246D01*
X94896172Y-102934646D01*
X95035354Y-103073828D01*
X95194595Y-103189524D01*
X95277455Y-103231743D01*
X95369970Y-103278882D01*
X95369972Y-103278882D01*
X95369975Y-103278884D01*
X95470317Y-103311487D01*
X95557173Y-103339709D01*
X95751578Y-103370500D01*
X95751583Y-103370500D01*
X95948422Y-103370500D01*
X96142826Y-103339709D01*
X96157888Y-103334815D01*
X96330025Y-103278884D01*
X96505405Y-103189524D01*
X96664646Y-103073828D01*
X96803828Y-102934646D01*
X96919524Y-102775405D01*
X96926957Y-102760816D01*
X97009515Y-102598787D01*
X97057489Y-102547990D01*
X97125310Y-102531195D01*
X97191445Y-102553732D01*
X97230485Y-102598787D01*
X97320474Y-102775403D01*
X97355234Y-102823246D01*
X97436172Y-102934646D01*
X97575354Y-103073828D01*
X97734595Y-103189524D01*
X97817455Y-103231743D01*
X97909970Y-103278882D01*
X97909972Y-103278882D01*
X97909975Y-103278884D01*
X98010317Y-103311487D01*
X98097173Y-103339709D01*
X98291578Y-103370500D01*
X98291583Y-103370500D01*
X98488422Y-103370500D01*
X98682826Y-103339709D01*
X98697888Y-103334815D01*
X98870025Y-103278884D01*
X99045405Y-103189524D01*
X99204646Y-103073828D01*
X99343828Y-102934646D01*
X99459524Y-102775405D01*
X99466957Y-102760816D01*
X99549515Y-102598787D01*
X99597489Y-102547990D01*
X99665310Y-102531195D01*
X99731445Y-102553732D01*
X99770485Y-102598787D01*
X99860474Y-102775403D01*
X99895234Y-102823246D01*
X99976172Y-102934646D01*
X100115354Y-103073828D01*
X100274595Y-103189524D01*
X100357455Y-103231743D01*
X100449970Y-103278882D01*
X100449972Y-103278882D01*
X100449975Y-103278884D01*
X100550317Y-103311487D01*
X100637173Y-103339709D01*
X100831578Y-103370500D01*
X100831583Y-103370500D01*
X101028422Y-103370500D01*
X101222826Y-103339709D01*
X101237888Y-103334815D01*
X101410025Y-103278884D01*
X101585405Y-103189524D01*
X101744646Y-103073828D01*
X101883828Y-102934646D01*
X101999524Y-102775405D01*
X102006957Y-102760816D01*
X102089515Y-102598787D01*
X102137489Y-102547990D01*
X102205310Y-102531195D01*
X102271445Y-102553732D01*
X102310485Y-102598787D01*
X102400474Y-102775403D01*
X102435234Y-102823246D01*
X102516172Y-102934646D01*
X102655354Y-103073828D01*
X102814595Y-103189524D01*
X102897455Y-103231743D01*
X102989970Y-103278882D01*
X102989972Y-103278882D01*
X102989975Y-103278884D01*
X103090317Y-103311487D01*
X103177173Y-103339709D01*
X103371578Y-103370500D01*
X103371583Y-103370500D01*
X103568422Y-103370500D01*
X103762826Y-103339709D01*
X103777888Y-103334815D01*
X103950025Y-103278884D01*
X104125405Y-103189524D01*
X104284646Y-103073828D01*
X104423828Y-102934646D01*
X104539524Y-102775405D01*
X104546957Y-102760816D01*
X104629515Y-102598787D01*
X104677489Y-102547990D01*
X104745310Y-102531195D01*
X104811445Y-102553732D01*
X104850485Y-102598787D01*
X104940474Y-102775403D01*
X104975234Y-102823246D01*
X105056172Y-102934646D01*
X105195354Y-103073828D01*
X105354595Y-103189524D01*
X105437455Y-103231743D01*
X105529970Y-103278882D01*
X105529972Y-103278882D01*
X105529975Y-103278884D01*
X105630317Y-103311487D01*
X105717173Y-103339709D01*
X105911578Y-103370500D01*
X105911583Y-103370500D01*
X106108422Y-103370500D01*
X106302826Y-103339709D01*
X106317888Y-103334815D01*
X106490025Y-103278884D01*
X106665405Y-103189524D01*
X106824646Y-103073828D01*
X106963828Y-102934646D01*
X107079524Y-102775405D01*
X107086957Y-102760816D01*
X107169515Y-102598787D01*
X107217489Y-102547990D01*
X107285310Y-102531195D01*
X107351445Y-102553732D01*
X107390485Y-102598787D01*
X107480474Y-102775403D01*
X107515234Y-102823246D01*
X107596172Y-102934646D01*
X107735354Y-103073828D01*
X107894595Y-103189524D01*
X107977455Y-103231743D01*
X108069970Y-103278882D01*
X108069972Y-103278882D01*
X108069975Y-103278884D01*
X108170317Y-103311487D01*
X108257173Y-103339709D01*
X108451578Y-103370500D01*
X108451583Y-103370500D01*
X108648422Y-103370500D01*
X108842826Y-103339709D01*
X108857888Y-103334815D01*
X109030025Y-103278884D01*
X109205405Y-103189524D01*
X109364646Y-103073828D01*
X109503828Y-102934646D01*
X109619524Y-102775405D01*
X109626957Y-102760816D01*
X109709515Y-102598787D01*
X109757489Y-102547990D01*
X109825310Y-102531195D01*
X109891445Y-102553732D01*
X109930485Y-102598787D01*
X110020474Y-102775403D01*
X110055234Y-102823246D01*
X110136172Y-102934646D01*
X110275354Y-103073828D01*
X110434595Y-103189524D01*
X110517455Y-103231743D01*
X110609970Y-103278882D01*
X110609972Y-103278882D01*
X110609975Y-103278884D01*
X110710317Y-103311487D01*
X110797173Y-103339709D01*
X110991578Y-103370500D01*
X110991583Y-103370500D01*
X111188422Y-103370500D01*
X111382826Y-103339709D01*
X111397888Y-103334815D01*
X111570025Y-103278884D01*
X111745405Y-103189524D01*
X111904646Y-103073828D01*
X112043828Y-102934646D01*
X112159524Y-102775405D01*
X112166957Y-102760816D01*
X112249515Y-102598787D01*
X112297489Y-102547990D01*
X112365310Y-102531195D01*
X112431445Y-102553732D01*
X112470485Y-102598787D01*
X112560474Y-102775403D01*
X112595234Y-102823246D01*
X112676172Y-102934646D01*
X112815354Y-103073828D01*
X112974595Y-103189524D01*
X113057455Y-103231743D01*
X113149970Y-103278882D01*
X113149972Y-103278882D01*
X113149975Y-103278884D01*
X113250317Y-103311487D01*
X113337173Y-103339709D01*
X113531578Y-103370500D01*
X113531583Y-103370500D01*
X113728422Y-103370500D01*
X113922826Y-103339709D01*
X113937888Y-103334815D01*
X114110025Y-103278884D01*
X114285405Y-103189524D01*
X114444646Y-103073828D01*
X114583828Y-102934646D01*
X114699524Y-102775405D01*
X114706957Y-102760816D01*
X114789515Y-102598787D01*
X114837489Y-102547990D01*
X114905310Y-102531195D01*
X114971445Y-102553732D01*
X115010485Y-102598787D01*
X115100474Y-102775403D01*
X115135234Y-102823246D01*
X115216172Y-102934646D01*
X115355354Y-103073828D01*
X115514595Y-103189524D01*
X115597455Y-103231743D01*
X115689970Y-103278882D01*
X115689972Y-103278882D01*
X115689975Y-103278884D01*
X115790317Y-103311487D01*
X115877173Y-103339709D01*
X116071578Y-103370500D01*
X116071583Y-103370500D01*
X116268422Y-103370500D01*
X116462826Y-103339709D01*
X116477888Y-103334815D01*
X116650025Y-103278884D01*
X116825405Y-103189524D01*
X116984646Y-103073828D01*
X117123828Y-102934646D01*
X117239524Y-102775405D01*
X117246957Y-102760816D01*
X117329515Y-102598787D01*
X117377489Y-102547990D01*
X117445310Y-102531195D01*
X117511445Y-102553732D01*
X117550485Y-102598787D01*
X117640474Y-102775403D01*
X117675234Y-102823246D01*
X117756172Y-102934646D01*
X117895354Y-103073828D01*
X118054595Y-103189524D01*
X118137455Y-103231743D01*
X118229970Y-103278882D01*
X118229972Y-103278882D01*
X118229975Y-103278884D01*
X118330317Y-103311487D01*
X118417173Y-103339709D01*
X118611578Y-103370500D01*
X118611583Y-103370500D01*
X118808422Y-103370500D01*
X119002826Y-103339709D01*
X119017888Y-103334815D01*
X119190025Y-103278884D01*
X119365405Y-103189524D01*
X119524646Y-103073828D01*
X119663828Y-102934646D01*
X119779524Y-102775405D01*
X119786957Y-102760816D01*
X119869515Y-102598787D01*
X119917489Y-102547990D01*
X119985310Y-102531195D01*
X120051445Y-102553732D01*
X120090485Y-102598787D01*
X120180474Y-102775403D01*
X120215234Y-102823246D01*
X120296172Y-102934646D01*
X120435354Y-103073828D01*
X120594595Y-103189524D01*
X120677455Y-103231743D01*
X120769970Y-103278882D01*
X120769972Y-103278882D01*
X120769975Y-103278884D01*
X120870317Y-103311487D01*
X120957173Y-103339709D01*
X121151578Y-103370500D01*
X121151583Y-103370500D01*
X121348422Y-103370500D01*
X121516933Y-103343810D01*
X121586226Y-103352764D01*
X121624012Y-103378602D01*
X122621016Y-104375606D01*
X122621045Y-104375637D01*
X122711263Y-104465855D01*
X122711267Y-104465858D01*
X122813707Y-104534307D01*
X122813711Y-104534309D01*
X122813714Y-104534311D01*
X122927548Y-104581463D01*
X122987971Y-104593481D01*
X123048393Y-104605500D01*
X175641607Y-104605500D01*
X175702029Y-104593481D01*
X175762452Y-104581463D01*
X175795792Y-104567652D01*
X175876286Y-104534312D01*
X175927509Y-104500084D01*
X175978733Y-104465858D01*
X176065858Y-104378733D01*
X176065858Y-104378731D01*
X176076066Y-104368524D01*
X176076067Y-104368521D01*
X177618561Y-102826028D01*
X177679881Y-102792545D01*
X177749573Y-102797529D01*
X177805506Y-102839401D01*
X177829923Y-102904865D01*
X177829881Y-102916751D01*
X177830000Y-102916751D01*
X177830000Y-103118382D01*
X177860778Y-103312705D01*
X177921581Y-103499835D01*
X178010905Y-103675145D01*
X178036319Y-103710125D01*
X178036320Y-103710125D01*
X178597037Y-103149408D01*
X178614075Y-103212993D01*
X178679901Y-103327007D01*
X178772993Y-103420099D01*
X178887007Y-103485925D01*
X178950590Y-103502962D01*
X178389873Y-104063677D01*
X178389873Y-104063678D01*
X178424858Y-104089096D01*
X178600164Y-104178418D01*
X178787294Y-104239221D01*
X178981618Y-104270000D01*
X179178382Y-104270000D01*
X179372705Y-104239221D01*
X179559835Y-104178418D01*
X179735143Y-104089095D01*
X179770125Y-104063678D01*
X179770126Y-104063678D01*
X179209410Y-103502962D01*
X179272993Y-103485925D01*
X179387007Y-103420099D01*
X179480099Y-103327007D01*
X179545925Y-103212993D01*
X179562962Y-103149410D01*
X180123678Y-103710126D01*
X180123678Y-103710125D01*
X180149095Y-103675143D01*
X180238418Y-103499835D01*
X180299221Y-103312705D01*
X180330000Y-103118382D01*
X180330000Y-102921617D01*
X180299221Y-102727294D01*
X180238418Y-102540164D01*
X180149096Y-102364858D01*
X180123678Y-102329873D01*
X180123677Y-102329873D01*
X179562962Y-102890589D01*
X179545925Y-102827007D01*
X179480099Y-102712993D01*
X179387007Y-102619901D01*
X179272993Y-102554075D01*
X179209408Y-102537037D01*
X179770125Y-101976320D01*
X179770125Y-101976319D01*
X179735145Y-101950905D01*
X179558235Y-101860765D01*
X179507439Y-101812790D01*
X179490644Y-101744969D01*
X179513182Y-101678834D01*
X179558236Y-101639795D01*
X179560022Y-101638884D01*
X179560025Y-101638884D01*
X179735405Y-101549524D01*
X179894646Y-101433828D01*
X180033828Y-101294646D01*
X180149524Y-101135405D01*
X180238884Y-100960025D01*
X180299709Y-100772826D01*
X180311537Y-100698147D01*
X180330500Y-100578422D01*
X180330500Y-100381577D01*
X180299709Y-100187173D01*
X180238882Y-99999970D01*
X180149523Y-99824594D01*
X180033828Y-99665354D01*
X179894646Y-99526172D01*
X179815025Y-99468324D01*
X179735403Y-99410474D01*
X179558787Y-99320485D01*
X179507990Y-99272511D01*
X179491195Y-99204690D01*
X179513732Y-99138555D01*
X179558787Y-99099515D01*
X179735403Y-99009525D01*
X179735402Y-99009525D01*
X179735405Y-99009524D01*
X179894646Y-98893828D01*
X180033828Y-98754646D01*
X180149524Y-98595405D01*
X180238884Y-98420025D01*
X180299709Y-98232826D01*
X180330500Y-98038422D01*
X180330500Y-97841577D01*
X180299709Y-97647173D01*
X180245173Y-97479331D01*
X180238884Y-97459975D01*
X180238882Y-97459972D01*
X180238882Y-97459970D01*
X180186960Y-97358067D01*
X180149524Y-97284595D01*
X180033828Y-97125354D01*
X179894646Y-96986172D01*
X179793041Y-96912351D01*
X179735403Y-96870474D01*
X179558787Y-96780485D01*
X179507990Y-96732511D01*
X179491195Y-96664690D01*
X179513732Y-96598555D01*
X179558787Y-96559515D01*
X179735403Y-96469525D01*
X179735402Y-96469525D01*
X179735405Y-96469524D01*
X179894646Y-96353828D01*
X180033828Y-96214646D01*
X180149524Y-96055405D01*
X180238884Y-95880025D01*
X180299709Y-95692826D01*
X180330500Y-95498422D01*
X180330500Y-95301577D01*
X180299709Y-95107173D01*
X180239797Y-94922786D01*
X180238884Y-94919975D01*
X180238882Y-94919972D01*
X180238882Y-94919970D01*
X180149523Y-94744594D01*
X180033828Y-94585354D01*
X179894646Y-94446172D01*
X179735405Y-94330476D01*
X179720391Y-94322826D01*
X179560029Y-94241117D01*
X179372826Y-94180290D01*
X179178422Y-94149500D01*
X179178417Y-94149500D01*
X178981583Y-94149500D01*
X178981578Y-94149500D01*
X178787173Y-94180290D01*
X178599970Y-94241117D01*
X178424594Y-94330476D01*
X178333741Y-94396485D01*
X178265354Y-94446172D01*
X178265352Y-94446174D01*
X178265351Y-94446174D01*
X178126174Y-94585351D01*
X178126174Y-94585352D01*
X178126172Y-94585354D01*
X178076485Y-94653741D01*
X178010476Y-94744594D01*
X177921117Y-94919970D01*
X177860290Y-95107173D01*
X177829500Y-95301577D01*
X177829500Y-95498422D01*
X177860290Y-95692826D01*
X177921117Y-95880029D01*
X178010476Y-96055405D01*
X178126172Y-96214646D01*
X178265354Y-96353828D01*
X178424595Y-96469524D01*
X178495134Y-96505465D01*
X178601213Y-96559515D01*
X178652009Y-96607489D01*
X178668804Y-96675310D01*
X178646267Y-96741445D01*
X178601213Y-96780485D01*
X178424594Y-96870476D01*
X178366959Y-96912351D01*
X178265354Y-96986172D01*
X178265352Y-96986174D01*
X178265351Y-96986174D01*
X178126173Y-97125352D01*
X178025885Y-97263386D01*
X177970554Y-97306051D01*
X177925567Y-97314500D01*
X173964176Y-97314500D01*
X173897137Y-97294815D01*
X173851382Y-97242011D01*
X173841438Y-97172853D01*
X173846245Y-97152182D01*
X173858476Y-97114538D01*
X173858476Y-97114537D01*
X173858477Y-97114534D01*
X173890500Y-96912352D01*
X173890500Y-96707648D01*
X173883696Y-96664690D01*
X173858477Y-96505465D01*
X173795218Y-96310776D01*
X173761503Y-96244607D01*
X173702287Y-96128390D01*
X173694556Y-96117749D01*
X173581971Y-95962786D01*
X173437213Y-95818028D01*
X173271613Y-95697715D01*
X173271612Y-95697714D01*
X173271610Y-95697713D01*
X173212604Y-95667648D01*
X173089223Y-95604781D01*
X172894534Y-95541522D01*
X172719995Y-95513878D01*
X172692352Y-95509500D01*
X172487648Y-95509500D01*
X172463329Y-95513351D01*
X172285465Y-95541522D01*
X172090776Y-95604781D01*
X171908386Y-95697715D01*
X171742786Y-95818028D01*
X171598028Y-95962786D01*
X171477715Y-96128386D01*
X171384781Y-96310776D01*
X171321522Y-96505465D01*
X171292374Y-96689500D01*
X171289500Y-96707648D01*
X171289500Y-96912352D01*
X171301192Y-96986172D01*
X171321523Y-97114535D01*
X171321523Y-97114538D01*
X171333755Y-97152182D01*
X171335750Y-97222023D01*
X171299670Y-97281856D01*
X171236969Y-97312684D01*
X171215824Y-97314500D01*
X122957741Y-97314500D01*
X122957721Y-97314499D01*
X122951607Y-97314499D01*
X122828394Y-97314499D01*
X122727597Y-97334548D01*
X122727592Y-97334548D01*
X122707549Y-97338536D01*
X122707547Y-97338536D01*
X122660397Y-97358067D01*
X122593719Y-97385685D01*
X122593717Y-97385686D01*
X122491266Y-97454141D01*
X119084010Y-100861397D01*
X119022687Y-100894882D01*
X118976931Y-100896189D01*
X118808422Y-100869500D01*
X118808417Y-100869500D01*
X118611583Y-100869500D01*
X118611578Y-100869500D01*
X118417173Y-100900290D01*
X118229970Y-100961117D01*
X118054594Y-101050476D01*
X118008347Y-101084077D01*
X117895354Y-101166172D01*
X117895352Y-101166174D01*
X117895351Y-101166174D01*
X117756174Y-101305351D01*
X117756174Y-101305352D01*
X117756172Y-101305354D01*
X117732830Y-101337482D01*
X117640476Y-101464594D01*
X117550485Y-101641213D01*
X117502511Y-101692009D01*
X117434690Y-101708804D01*
X117368555Y-101686267D01*
X117329515Y-101641213D01*
X117282797Y-101549524D01*
X117239524Y-101464595D01*
X117123828Y-101305354D01*
X116984646Y-101166172D01*
X116825405Y-101050476D01*
X116790335Y-101032607D01*
X116650029Y-100961117D01*
X116462826Y-100900290D01*
X116268422Y-100869500D01*
X116268417Y-100869500D01*
X116071583Y-100869500D01*
X116071578Y-100869500D01*
X115877173Y-100900290D01*
X115689970Y-100961117D01*
X115514594Y-101050476D01*
X115468347Y-101084077D01*
X115355354Y-101166172D01*
X115355352Y-101166174D01*
X115355351Y-101166174D01*
X115216174Y-101305351D01*
X115216174Y-101305352D01*
X115216172Y-101305354D01*
X115192830Y-101337482D01*
X115100476Y-101464594D01*
X115010485Y-101641213D01*
X114962511Y-101692009D01*
X114894690Y-101708804D01*
X114828555Y-101686267D01*
X114789515Y-101641213D01*
X114742797Y-101549524D01*
X114699524Y-101464595D01*
X114583828Y-101305354D01*
X114444646Y-101166172D01*
X114285405Y-101050476D01*
X114250335Y-101032607D01*
X114110029Y-100961117D01*
X113922826Y-100900290D01*
X113728422Y-100869500D01*
X113728417Y-100869500D01*
X113531583Y-100869500D01*
X113531578Y-100869500D01*
X113337173Y-100900290D01*
X113149970Y-100961117D01*
X112974594Y-101050476D01*
X112928347Y-101084077D01*
X112815354Y-101166172D01*
X112815352Y-101166174D01*
X112815351Y-101166174D01*
X112676174Y-101305351D01*
X112676174Y-101305352D01*
X112676172Y-101305354D01*
X112652830Y-101337482D01*
X112560476Y-101464594D01*
X112470485Y-101641213D01*
X112422511Y-101692009D01*
X112354690Y-101708804D01*
X112288555Y-101686267D01*
X112249515Y-101641213D01*
X112202797Y-101549524D01*
X112159524Y-101464595D01*
X112043828Y-101305354D01*
X111904646Y-101166172D01*
X111745405Y-101050476D01*
X111710335Y-101032607D01*
X111570029Y-100961117D01*
X111382826Y-100900290D01*
X111188422Y-100869500D01*
X111188417Y-100869500D01*
X110991583Y-100869500D01*
X110991578Y-100869500D01*
X110797173Y-100900290D01*
X110609970Y-100961117D01*
X110434594Y-101050476D01*
X110388347Y-101084077D01*
X110275354Y-101166172D01*
X110275352Y-101166174D01*
X110275351Y-101166174D01*
X110136174Y-101305351D01*
X110136174Y-101305352D01*
X110136172Y-101305354D01*
X110112830Y-101337482D01*
X110020476Y-101464594D01*
X109930485Y-101641213D01*
X109882511Y-101692009D01*
X109814690Y-101708804D01*
X109748555Y-101686267D01*
X109709515Y-101641213D01*
X109662797Y-101549524D01*
X109619524Y-101464595D01*
X109503828Y-101305354D01*
X109364646Y-101166172D01*
X109205405Y-101050476D01*
X109170335Y-101032607D01*
X109030029Y-100961117D01*
X108842826Y-100900290D01*
X108648422Y-100869500D01*
X108648417Y-100869500D01*
X108451583Y-100869500D01*
X108451578Y-100869500D01*
X108257173Y-100900290D01*
X108069970Y-100961117D01*
X107894594Y-101050476D01*
X107848347Y-101084077D01*
X107735354Y-101166172D01*
X107735352Y-101166174D01*
X107735351Y-101166174D01*
X107596174Y-101305351D01*
X107596174Y-101305352D01*
X107596172Y-101305354D01*
X107572830Y-101337482D01*
X107480476Y-101464594D01*
X107390485Y-101641213D01*
X107342511Y-101692009D01*
X107274690Y-101708804D01*
X107208555Y-101686267D01*
X107169515Y-101641213D01*
X107122797Y-101549524D01*
X107079524Y-101464595D01*
X106963828Y-101305354D01*
X106824646Y-101166172D01*
X106686612Y-101065884D01*
X106643949Y-101010556D01*
X106635500Y-100965568D01*
X106635500Y-94128420D01*
X124104499Y-94128420D01*
X124135290Y-94322826D01*
X124196117Y-94510029D01*
X124271366Y-94657713D01*
X124285476Y-94685405D01*
X124401172Y-94844646D01*
X124540354Y-94983828D01*
X124699595Y-95099524D01*
X124782455Y-95141743D01*
X124874970Y-95188882D01*
X124874972Y-95188882D01*
X124874975Y-95188884D01*
X124975317Y-95221487D01*
X125062173Y-95249709D01*
X125256578Y-95280500D01*
X125256583Y-95280500D01*
X125453422Y-95280500D01*
X125647826Y-95249709D01*
X125835025Y-95188884D01*
X126010405Y-95099524D01*
X126169646Y-94983828D01*
X126308828Y-94844646D01*
X126424524Y-94685405D01*
X126513884Y-94510025D01*
X126514515Y-94508787D01*
X126562489Y-94457990D01*
X126630310Y-94441195D01*
X126696445Y-94463732D01*
X126735485Y-94508787D01*
X126825474Y-94685403D01*
X126829194Y-94690523D01*
X126941172Y-94844646D01*
X127080354Y-94983828D01*
X127239595Y-95099524D01*
X127322455Y-95141743D01*
X127414970Y-95188882D01*
X127414972Y-95188882D01*
X127414975Y-95188884D01*
X127515317Y-95221487D01*
X127602173Y-95249709D01*
X127796578Y-95280500D01*
X127796583Y-95280500D01*
X127993422Y-95280500D01*
X128187826Y-95249709D01*
X128375025Y-95188884D01*
X128550405Y-95099524D01*
X128709646Y-94983828D01*
X128848828Y-94844646D01*
X128964524Y-94685405D01*
X129053884Y-94510025D01*
X129114709Y-94322826D01*
X129127650Y-94241117D01*
X129145500Y-94128420D01*
X129145500Y-93931577D01*
X129114709Y-93737173D01*
X129055870Y-93556088D01*
X129053884Y-93549975D01*
X129053882Y-93549972D01*
X129053882Y-93549970D01*
X128964523Y-93374594D01*
X128938456Y-93338716D01*
X128848828Y-93215354D01*
X128709646Y-93076172D01*
X128630025Y-93018324D01*
X128550403Y-92960474D01*
X128373787Y-92870485D01*
X128322990Y-92822511D01*
X128306195Y-92754690D01*
X128328732Y-92688555D01*
X128373787Y-92649515D01*
X128550403Y-92559525D01*
X128550402Y-92559525D01*
X128550405Y-92559524D01*
X128709646Y-92443828D01*
X128848828Y-92304646D01*
X128964524Y-92145405D01*
X129053884Y-91970025D01*
X129114709Y-91782826D01*
X129127176Y-91704114D01*
X129145500Y-91588422D01*
X129145500Y-91391577D01*
X129114709Y-91197173D01*
X129076248Y-91078804D01*
X129053884Y-91009975D01*
X129053882Y-91009972D01*
X129053882Y-91009970D01*
X128964523Y-90834594D01*
X128848828Y-90675354D01*
X128709646Y-90536172D01*
X128630025Y-90478324D01*
X128550403Y-90420474D01*
X128373787Y-90330485D01*
X128322990Y-90282511D01*
X128306195Y-90214690D01*
X128328732Y-90148555D01*
X128373787Y-90109515D01*
X128550403Y-90019525D01*
X128550402Y-90019525D01*
X128550405Y-90019524D01*
X128709646Y-89903828D01*
X128848828Y-89764646D01*
X128964524Y-89605405D01*
X129053500Y-89430778D01*
X129053882Y-89430029D01*
X129053882Y-89430028D01*
X129053884Y-89430025D01*
X129114709Y-89242826D01*
X129145500Y-89048422D01*
X129145500Y-88851577D01*
X129114709Y-88657173D01*
X129053882Y-88469970D01*
X128964523Y-88294594D01*
X128848828Y-88135354D01*
X128709646Y-87996172D01*
X128550405Y-87880476D01*
X128375025Y-87791116D01*
X128375024Y-87791115D01*
X128373235Y-87790204D01*
X128322439Y-87742230D01*
X128305644Y-87674409D01*
X128328181Y-87608274D01*
X128373236Y-87569234D01*
X128550141Y-87479097D01*
X128585125Y-87453678D01*
X128585126Y-87453678D01*
X128024410Y-86892962D01*
X128087993Y-86875925D01*
X128202007Y-86810099D01*
X128295099Y-86717007D01*
X128360925Y-86602993D01*
X128377962Y-86539410D01*
X128938678Y-87100126D01*
X128938678Y-87100125D01*
X128964095Y-87065143D01*
X129053418Y-86889835D01*
X129114221Y-86702705D01*
X129145000Y-86508382D01*
X129145000Y-86311617D01*
X129114221Y-86117294D01*
X129053418Y-85930164D01*
X128964096Y-85754858D01*
X128938678Y-85719873D01*
X128938677Y-85719873D01*
X128377962Y-86280589D01*
X128360925Y-86217007D01*
X128295099Y-86102993D01*
X128202007Y-86009901D01*
X128087993Y-85944075D01*
X128024409Y-85927037D01*
X128585125Y-85366320D01*
X128585125Y-85366319D01*
X128550145Y-85340905D01*
X128374835Y-85251581D01*
X128187705Y-85190778D01*
X127993382Y-85160000D01*
X127796618Y-85160000D01*
X127602294Y-85190778D01*
X127415161Y-85251582D01*
X127239863Y-85340899D01*
X127239859Y-85340902D01*
X127204873Y-85366320D01*
X127204872Y-85366320D01*
X127765590Y-85927037D01*
X127702007Y-85944075D01*
X127587993Y-86009901D01*
X127494901Y-86102993D01*
X127429075Y-86217007D01*
X127412037Y-86280590D01*
X126851320Y-85719872D01*
X126851320Y-85719873D01*
X126825902Y-85754859D01*
X126735765Y-85931764D01*
X126687790Y-85982560D01*
X126619969Y-85999355D01*
X126553835Y-85976818D01*
X126514795Y-85931763D01*
X126424525Y-85754596D01*
X126399296Y-85719872D01*
X126308828Y-85595354D01*
X126169646Y-85456172D01*
X126010405Y-85340476D01*
X125835029Y-85251117D01*
X125647826Y-85190290D01*
X125453422Y-85159500D01*
X125453417Y-85159500D01*
X125256583Y-85159500D01*
X125256578Y-85159500D01*
X125062173Y-85190290D01*
X124874970Y-85251117D01*
X124699594Y-85340476D01*
X124608741Y-85406485D01*
X124540354Y-85456172D01*
X124540352Y-85456174D01*
X124540351Y-85456174D01*
X124401174Y-85595351D01*
X124401174Y-85595352D01*
X124401172Y-85595354D01*
X124351485Y-85663741D01*
X124285476Y-85754594D01*
X124196117Y-85929970D01*
X124135290Y-86117173D01*
X124104500Y-86311577D01*
X124104500Y-86508422D01*
X124135290Y-86702826D01*
X124196117Y-86890029D01*
X124285343Y-87065143D01*
X124285476Y-87065405D01*
X124401172Y-87224646D01*
X124540354Y-87363828D01*
X124699595Y-87479524D01*
X124822992Y-87542397D01*
X124876213Y-87569515D01*
X124927009Y-87617489D01*
X124943804Y-87685310D01*
X124921267Y-87751445D01*
X124876213Y-87790485D01*
X124699594Y-87880476D01*
X124608741Y-87946485D01*
X124540354Y-87996172D01*
X124540352Y-87996174D01*
X124540351Y-87996174D01*
X124401174Y-88135351D01*
X124401174Y-88135352D01*
X124401172Y-88135354D01*
X124351485Y-88203741D01*
X124285476Y-88294594D01*
X124196117Y-88469970D01*
X124135290Y-88657173D01*
X124104500Y-88851577D01*
X124104500Y-89048422D01*
X124135290Y-89242826D01*
X124196117Y-89430029D01*
X124272774Y-89580476D01*
X124285476Y-89605405D01*
X124401172Y-89764646D01*
X124540354Y-89903828D01*
X124699595Y-90019524D01*
X124822992Y-90082397D01*
X124876213Y-90109515D01*
X124927009Y-90157489D01*
X124943804Y-90225310D01*
X124921267Y-90291445D01*
X124876213Y-90330485D01*
X124699594Y-90420476D01*
X124608741Y-90486485D01*
X124540354Y-90536172D01*
X124540352Y-90536174D01*
X124540351Y-90536174D01*
X124401174Y-90675351D01*
X124401174Y-90675352D01*
X124401172Y-90675354D01*
X124371767Y-90715826D01*
X124285476Y-90834594D01*
X124196117Y-91009970D01*
X124135290Y-91197173D01*
X124104500Y-91391577D01*
X124104500Y-91588422D01*
X124135290Y-91782826D01*
X124196117Y-91970029D01*
X124268449Y-92111988D01*
X124285476Y-92145405D01*
X124401172Y-92304646D01*
X124540354Y-92443828D01*
X124699595Y-92559524D01*
X124822992Y-92622397D01*
X124876213Y-92649515D01*
X124927009Y-92697489D01*
X124943804Y-92765310D01*
X124921267Y-92831445D01*
X124876213Y-92870485D01*
X124699594Y-92960476D01*
X124608741Y-93026485D01*
X124540354Y-93076172D01*
X124540352Y-93076174D01*
X124540351Y-93076174D01*
X124401174Y-93215351D01*
X124401174Y-93215352D01*
X124401172Y-93215354D01*
X124385978Y-93236267D01*
X124285476Y-93374594D01*
X124196117Y-93549970D01*
X124135290Y-93737173D01*
X124104500Y-93931577D01*
X124104500Y-94128419D01*
X124104499Y-94128420D01*
X106635500Y-94128420D01*
X106635500Y-93573394D01*
X106632057Y-93556088D01*
X106632056Y-93556083D01*
X106611463Y-93452548D01*
X106564311Y-93338714D01*
X106564310Y-93338713D01*
X106564307Y-93338707D01*
X106495859Y-93236268D01*
X106474942Y-93215351D01*
X106408733Y-93149142D01*
X106408732Y-93149141D01*
X105371579Y-92111988D01*
X105338094Y-92050665D01*
X105343078Y-91980973D01*
X105384950Y-91925040D01*
X105450414Y-91900623D01*
X105461711Y-91900663D01*
X105461711Y-91900500D01*
X105663422Y-91900500D01*
X105857826Y-91869709D01*
X105859328Y-91869221D01*
X106045025Y-91808884D01*
X106220405Y-91719524D01*
X106379646Y-91603828D01*
X106518828Y-91464646D01*
X106634524Y-91305405D01*
X106723884Y-91130025D01*
X106724515Y-91128787D01*
X106772489Y-91077990D01*
X106840310Y-91061195D01*
X106906445Y-91083732D01*
X106945485Y-91128787D01*
X107035474Y-91305403D01*
X107060702Y-91340125D01*
X107151172Y-91464646D01*
X107290354Y-91603828D01*
X107449595Y-91719524D01*
X107527943Y-91759444D01*
X107624970Y-91808882D01*
X107624972Y-91808882D01*
X107624975Y-91808884D01*
X107725317Y-91841487D01*
X107812173Y-91869709D01*
X108006578Y-91900500D01*
X108006583Y-91900500D01*
X108203422Y-91900500D01*
X108397826Y-91869709D01*
X108399328Y-91869221D01*
X108585025Y-91808884D01*
X108760405Y-91719524D01*
X108919646Y-91603828D01*
X109058828Y-91464646D01*
X109174524Y-91305405D01*
X109263884Y-91130025D01*
X109264515Y-91128787D01*
X109312489Y-91077990D01*
X109380310Y-91061195D01*
X109446445Y-91083732D01*
X109485485Y-91128787D01*
X109575474Y-91305403D01*
X109600702Y-91340125D01*
X109691172Y-91464646D01*
X109830354Y-91603828D01*
X109989595Y-91719524D01*
X110067943Y-91759444D01*
X110164970Y-91808882D01*
X110164972Y-91808882D01*
X110164975Y-91808884D01*
X110265317Y-91841487D01*
X110352173Y-91869709D01*
X110546578Y-91900500D01*
X110546583Y-91900500D01*
X110743422Y-91900500D01*
X110937826Y-91869709D01*
X110939328Y-91869221D01*
X111125025Y-91808884D01*
X111300405Y-91719524D01*
X111459646Y-91603828D01*
X111598828Y-91464646D01*
X111714524Y-91305405D01*
X111803884Y-91130025D01*
X111804515Y-91128787D01*
X111852489Y-91077990D01*
X111920310Y-91061195D01*
X111986445Y-91083732D01*
X112025485Y-91128787D01*
X112115474Y-91305403D01*
X112140702Y-91340125D01*
X112231172Y-91464646D01*
X112370354Y-91603828D01*
X112529595Y-91719524D01*
X112607943Y-91759444D01*
X112704970Y-91808882D01*
X112704972Y-91808882D01*
X112704975Y-91808884D01*
X112805317Y-91841487D01*
X112892173Y-91869709D01*
X113086578Y-91900500D01*
X113086583Y-91900500D01*
X113283422Y-91900500D01*
X113477826Y-91869709D01*
X113479328Y-91869221D01*
X113665025Y-91808884D01*
X113840405Y-91719524D01*
X113999646Y-91603828D01*
X114138828Y-91464646D01*
X114254524Y-91305405D01*
X114343884Y-91130025D01*
X114344515Y-91128787D01*
X114392489Y-91077990D01*
X114460310Y-91061195D01*
X114526445Y-91083732D01*
X114565485Y-91128787D01*
X114655474Y-91305403D01*
X114680702Y-91340125D01*
X114771172Y-91464646D01*
X114910354Y-91603828D01*
X115069595Y-91719524D01*
X115147943Y-91759444D01*
X115244970Y-91808882D01*
X115244972Y-91808882D01*
X115244975Y-91808884D01*
X115345317Y-91841487D01*
X115432173Y-91869709D01*
X115626578Y-91900500D01*
X115626583Y-91900500D01*
X115823422Y-91900500D01*
X116017826Y-91869709D01*
X116019328Y-91869221D01*
X116205025Y-91808884D01*
X116380405Y-91719524D01*
X116539646Y-91603828D01*
X116678828Y-91464646D01*
X116794524Y-91305405D01*
X116883884Y-91130025D01*
X116884515Y-91128787D01*
X116932489Y-91077990D01*
X117000310Y-91061195D01*
X117066445Y-91083732D01*
X117105485Y-91128787D01*
X117195474Y-91305403D01*
X117220702Y-91340125D01*
X117311172Y-91464646D01*
X117450354Y-91603828D01*
X117609595Y-91719524D01*
X117687943Y-91759444D01*
X117784970Y-91808882D01*
X117784972Y-91808882D01*
X117784975Y-91808884D01*
X117885317Y-91841487D01*
X117972173Y-91869709D01*
X118166578Y-91900500D01*
X118166583Y-91900500D01*
X118363422Y-91900500D01*
X118557826Y-91869709D01*
X118559328Y-91869221D01*
X118745025Y-91808884D01*
X118920405Y-91719524D01*
X119079646Y-91603828D01*
X119218828Y-91464646D01*
X119334524Y-91305405D01*
X119423884Y-91130025D01*
X119484709Y-90942826D01*
X119501851Y-90834595D01*
X119515500Y-90748422D01*
X119515500Y-90551577D01*
X119484709Y-90357173D01*
X119446248Y-90238804D01*
X119423884Y-90169975D01*
X119423882Y-90169972D01*
X119423882Y-90169970D01*
X119347225Y-90019523D01*
X119334524Y-89994595D01*
X119218828Y-89835354D01*
X119079646Y-89696172D01*
X118920405Y-89580476D01*
X118745029Y-89491117D01*
X118557826Y-89430290D01*
X118363422Y-89399500D01*
X118363417Y-89399500D01*
X118166583Y-89399500D01*
X118166578Y-89399500D01*
X117972173Y-89430290D01*
X117784970Y-89491117D01*
X117609594Y-89580476D01*
X117518741Y-89646485D01*
X117450354Y-89696172D01*
X117450352Y-89696174D01*
X117450351Y-89696174D01*
X117311174Y-89835351D01*
X117311174Y-89835352D01*
X117311172Y-89835354D01*
X117261485Y-89903741D01*
X117195476Y-89994594D01*
X117105485Y-90171213D01*
X117057511Y-90222009D01*
X116989690Y-90238804D01*
X116923555Y-90216267D01*
X116884515Y-90171213D01*
X116807226Y-90019525D01*
X116794524Y-89994595D01*
X116678828Y-89835354D01*
X116539646Y-89696172D01*
X116380405Y-89580476D01*
X116205029Y-89491117D01*
X116017826Y-89430290D01*
X115823422Y-89399500D01*
X115823417Y-89399500D01*
X115626583Y-89399500D01*
X115626578Y-89399500D01*
X115432173Y-89430290D01*
X115244970Y-89491117D01*
X115069594Y-89580476D01*
X114978741Y-89646485D01*
X114910354Y-89696172D01*
X114910352Y-89696174D01*
X114910351Y-89696174D01*
X114771174Y-89835351D01*
X114771174Y-89835352D01*
X114771172Y-89835354D01*
X114721485Y-89903741D01*
X114655476Y-89994594D01*
X114565485Y-90171213D01*
X114517511Y-90222009D01*
X114449690Y-90238804D01*
X114383555Y-90216267D01*
X114344515Y-90171213D01*
X114267226Y-90019525D01*
X114254524Y-89994595D01*
X114138828Y-89835354D01*
X113999646Y-89696172D01*
X113840405Y-89580476D01*
X113665029Y-89491117D01*
X113477826Y-89430290D01*
X113283422Y-89399500D01*
X113283417Y-89399500D01*
X113086583Y-89399500D01*
X113086578Y-89399500D01*
X112892173Y-89430290D01*
X112704970Y-89491117D01*
X112529594Y-89580476D01*
X112438741Y-89646485D01*
X112370354Y-89696172D01*
X112370352Y-89696174D01*
X112370351Y-89696174D01*
X112231174Y-89835351D01*
X112231174Y-89835352D01*
X112231172Y-89835354D01*
X112181485Y-89903741D01*
X112115476Y-89994594D01*
X112025485Y-90171213D01*
X111977511Y-90222009D01*
X111909690Y-90238804D01*
X111843555Y-90216267D01*
X111804515Y-90171213D01*
X111727226Y-90019525D01*
X111714524Y-89994595D01*
X111598828Y-89835354D01*
X111459646Y-89696172D01*
X111300405Y-89580476D01*
X111125029Y-89491117D01*
X110937826Y-89430290D01*
X110743422Y-89399500D01*
X110743417Y-89399500D01*
X110546583Y-89399500D01*
X110546578Y-89399500D01*
X110352173Y-89430290D01*
X110164970Y-89491117D01*
X109989594Y-89580476D01*
X109898741Y-89646485D01*
X109830354Y-89696172D01*
X109830352Y-89696174D01*
X109830351Y-89696174D01*
X109691174Y-89835351D01*
X109691174Y-89835352D01*
X109691172Y-89835354D01*
X109641485Y-89903741D01*
X109575476Y-89994594D01*
X109485485Y-90171213D01*
X109437511Y-90222009D01*
X109369690Y-90238804D01*
X109303555Y-90216267D01*
X109264515Y-90171213D01*
X109187226Y-90019525D01*
X109174524Y-89994595D01*
X109058828Y-89835354D01*
X108919646Y-89696172D01*
X108760405Y-89580476D01*
X108585029Y-89491117D01*
X108397826Y-89430290D01*
X108203422Y-89399500D01*
X108203417Y-89399500D01*
X108006583Y-89399500D01*
X108006578Y-89399500D01*
X107812173Y-89430290D01*
X107624970Y-89491117D01*
X107449594Y-89580476D01*
X107358741Y-89646485D01*
X107290354Y-89696172D01*
X107290352Y-89696174D01*
X107290351Y-89696174D01*
X107151174Y-89835351D01*
X107151174Y-89835352D01*
X107151172Y-89835354D01*
X107101485Y-89903741D01*
X107035476Y-89994594D01*
X106945485Y-90171213D01*
X106897511Y-90222009D01*
X106829690Y-90238804D01*
X106763555Y-90216267D01*
X106724515Y-90171213D01*
X106647226Y-90019525D01*
X106634524Y-89994595D01*
X106518828Y-89835354D01*
X106379646Y-89696172D01*
X106220405Y-89580476D01*
X106045029Y-89491117D01*
X105857826Y-89430290D01*
X105663422Y-89399500D01*
X105663417Y-89399500D01*
X105466583Y-89399500D01*
X105466578Y-89399500D01*
X105272173Y-89430290D01*
X105084970Y-89491117D01*
X104909594Y-89580476D01*
X104818741Y-89646485D01*
X104750354Y-89696172D01*
X104750352Y-89696174D01*
X104750351Y-89696174D01*
X104611174Y-89835351D01*
X104611174Y-89835352D01*
X104611172Y-89835354D01*
X104561485Y-89903741D01*
X104495476Y-89994594D01*
X104405485Y-90171213D01*
X104357511Y-90222009D01*
X104289690Y-90238804D01*
X104223555Y-90216267D01*
X104184515Y-90171213D01*
X104107226Y-90019525D01*
X104094524Y-89994595D01*
X103978828Y-89835354D01*
X103839646Y-89696172D01*
X103680405Y-89580476D01*
X103505029Y-89491117D01*
X103317826Y-89430290D01*
X103123422Y-89399500D01*
X103123417Y-89399500D01*
X102926583Y-89399500D01*
X102926578Y-89399500D01*
X102732173Y-89430290D01*
X102544970Y-89491117D01*
X102369594Y-89580476D01*
X102278741Y-89646485D01*
X102210354Y-89696172D01*
X102210352Y-89696174D01*
X102210351Y-89696174D01*
X102071174Y-89835351D01*
X102071174Y-89835352D01*
X102071172Y-89835354D01*
X102021485Y-89903741D01*
X101955476Y-89994594D01*
X101865485Y-90171213D01*
X101817511Y-90222009D01*
X101749690Y-90238804D01*
X101683555Y-90216267D01*
X101644515Y-90171213D01*
X101567226Y-90019525D01*
X101554524Y-89994595D01*
X101438828Y-89835354D01*
X101299646Y-89696172D01*
X101140405Y-89580476D01*
X100965029Y-89491117D01*
X100777826Y-89430290D01*
X100583422Y-89399500D01*
X100583417Y-89399500D01*
X100386583Y-89399500D01*
X100386578Y-89399500D01*
X100192173Y-89430290D01*
X100004970Y-89491117D01*
X99829594Y-89580476D01*
X99738741Y-89646485D01*
X99670354Y-89696172D01*
X99670352Y-89696174D01*
X99670351Y-89696174D01*
X99531174Y-89835351D01*
X99531174Y-89835352D01*
X99531172Y-89835354D01*
X99481485Y-89903741D01*
X99415476Y-89994594D01*
X99325204Y-90171764D01*
X99277229Y-90222560D01*
X99209408Y-90239355D01*
X99143274Y-90216818D01*
X99104234Y-90171764D01*
X99014096Y-89994858D01*
X98988678Y-89959873D01*
X98988677Y-89959873D01*
X98427962Y-90520589D01*
X98410925Y-90457007D01*
X98345099Y-90342993D01*
X98252007Y-90249901D01*
X98137993Y-90184075D01*
X98074409Y-90167037D01*
X98635125Y-89606320D01*
X98635125Y-89606319D01*
X98600145Y-89580905D01*
X98424835Y-89491581D01*
X98237705Y-89430778D01*
X98043382Y-89400000D01*
X97846618Y-89400000D01*
X97652294Y-89430778D01*
X97465161Y-89491582D01*
X97289863Y-89580899D01*
X97289859Y-89580902D01*
X97254873Y-89606320D01*
X97254872Y-89606320D01*
X97815590Y-90167037D01*
X97752007Y-90184075D01*
X97637993Y-90249901D01*
X97544901Y-90342993D01*
X97479075Y-90457007D01*
X97462037Y-90520590D01*
X96901320Y-89959872D01*
X96901320Y-89959873D01*
X96875902Y-89994859D01*
X96785765Y-90171764D01*
X96737790Y-90222560D01*
X96669969Y-90239355D01*
X96603835Y-90216818D01*
X96564795Y-90171763D01*
X96474525Y-89994596D01*
X96449296Y-89959872D01*
X96358828Y-89835354D01*
X96219646Y-89696172D01*
X96060405Y-89580476D01*
X95885029Y-89491117D01*
X95697826Y-89430290D01*
X95503422Y-89399500D01*
X95503417Y-89399500D01*
X95306583Y-89399500D01*
X95306578Y-89399500D01*
X95112173Y-89430290D01*
X94924970Y-89491117D01*
X94749594Y-89580476D01*
X94658741Y-89646485D01*
X94590354Y-89696172D01*
X94590352Y-89696174D01*
X94590351Y-89696174D01*
X94451174Y-89835351D01*
X94451174Y-89835352D01*
X94451172Y-89835354D01*
X94401485Y-89903741D01*
X94335476Y-89994594D01*
X94246117Y-90169970D01*
X94185290Y-90357173D01*
X94154500Y-90551577D01*
X94154500Y-90748422D01*
X94185290Y-90942826D01*
X94246117Y-91130029D01*
X94335341Y-91305141D01*
X94335476Y-91305405D01*
X94451172Y-91464646D01*
X94590354Y-91603828D01*
X94749595Y-91719524D01*
X94827943Y-91759444D01*
X94924970Y-91808882D01*
X94924972Y-91808882D01*
X94924975Y-91808884D01*
X95025317Y-91841487D01*
X95112173Y-91869709D01*
X95306578Y-91900500D01*
X95306583Y-91900500D01*
X95503422Y-91900500D01*
X95697826Y-91869709D01*
X95699328Y-91869221D01*
X95885025Y-91808884D01*
X96060405Y-91719524D01*
X96219646Y-91603828D01*
X96358828Y-91464646D01*
X96474524Y-91305405D01*
X96563884Y-91130025D01*
X96563884Y-91130022D01*
X96564795Y-91128236D01*
X96612769Y-91077440D01*
X96680590Y-91060644D01*
X96746725Y-91083181D01*
X96785765Y-91128235D01*
X96875905Y-91305145D01*
X96901319Y-91340125D01*
X96901320Y-91340125D01*
X97462037Y-90779408D01*
X97479075Y-90842993D01*
X97544901Y-90957007D01*
X97637993Y-91050099D01*
X97752007Y-91115925D01*
X97815590Y-91132962D01*
X97254873Y-91693677D01*
X97254873Y-91693678D01*
X97289858Y-91719096D01*
X97465164Y-91808418D01*
X97652294Y-91869221D01*
X97846618Y-91900000D01*
X98043382Y-91900000D01*
X98237705Y-91869221D01*
X98424835Y-91808418D01*
X98600143Y-91719095D01*
X98635125Y-91693678D01*
X98635126Y-91693678D01*
X98074410Y-91132962D01*
X98137993Y-91115925D01*
X98252007Y-91050099D01*
X98345099Y-90957007D01*
X98410925Y-90842993D01*
X98427962Y-90779410D01*
X98988678Y-91340126D01*
X98988678Y-91340125D01*
X99014097Y-91305141D01*
X99104234Y-91128236D01*
X99152208Y-91077439D01*
X99220029Y-91060644D01*
X99286164Y-91083181D01*
X99325204Y-91128235D01*
X99326115Y-91130024D01*
X99326116Y-91130025D01*
X99415476Y-91305405D01*
X99531172Y-91464646D01*
X99670354Y-91603828D01*
X99808387Y-91704115D01*
X99851051Y-91759444D01*
X99859500Y-91804432D01*
X99859500Y-94932689D01*
X99839815Y-94999728D01*
X99823181Y-95020370D01*
X99120000Y-95723551D01*
X99120000Y-95717339D01*
X99092741Y-95615606D01*
X99040080Y-95524394D01*
X98965606Y-95449920D01*
X98874394Y-95397259D01*
X98772661Y-95370000D01*
X98766446Y-95370000D01*
X99445922Y-94690524D01*
X99445921Y-94690523D01*
X99401359Y-94658147D01*
X99401350Y-94658141D01*
X99219031Y-94565244D01*
X99024417Y-94502009D01*
X98822317Y-94470000D01*
X98617683Y-94470000D01*
X98415582Y-94502009D01*
X98220968Y-94565244D01*
X98038644Y-94658143D01*
X97994077Y-94690523D01*
X97994077Y-94690524D01*
X98673554Y-95370000D01*
X98667339Y-95370000D01*
X98565606Y-95397259D01*
X98474394Y-95449920D01*
X98399920Y-95524394D01*
X98347259Y-95615606D01*
X98320000Y-95717339D01*
X98320000Y-95723553D01*
X97640524Y-95044077D01*
X97640523Y-95044077D01*
X97608143Y-95088644D01*
X97515244Y-95270968D01*
X97452009Y-95465582D01*
X97420000Y-95667682D01*
X97420000Y-95872317D01*
X97452009Y-96074417D01*
X97515244Y-96269031D01*
X97608141Y-96451350D01*
X97608147Y-96451359D01*
X97640523Y-96495921D01*
X97640524Y-96495922D01*
X98320000Y-95816446D01*
X98320000Y-95822661D01*
X98347259Y-95924394D01*
X98399920Y-96015606D01*
X98474394Y-96090080D01*
X98565606Y-96142741D01*
X98667339Y-96170000D01*
X98673553Y-96170000D01*
X97994076Y-96849474D01*
X98038650Y-96881859D01*
X98220968Y-96974755D01*
X98415582Y-97037990D01*
X98617683Y-97070000D01*
X98822317Y-97070000D01*
X99024417Y-97037990D01*
X99219031Y-96974755D01*
X99401349Y-96881859D01*
X99445921Y-96849474D01*
X98766447Y-96170000D01*
X98772661Y-96170000D01*
X98874394Y-96142741D01*
X98965606Y-96090080D01*
X99040080Y-96015606D01*
X99092741Y-95924394D01*
X99120000Y-95822661D01*
X99120000Y-95816447D01*
X99823181Y-96519628D01*
X99856666Y-96580951D01*
X99859500Y-96607309D01*
X99859500Y-99714546D01*
X99839815Y-99781585D01*
X99823181Y-99802227D01*
X98764010Y-100861397D01*
X98702687Y-100894882D01*
X98656931Y-100896189D01*
X98488422Y-100869500D01*
X98488417Y-100869500D01*
X98291583Y-100869500D01*
X98291578Y-100869500D01*
X98097173Y-100900290D01*
X97909970Y-100961117D01*
X97734594Y-101050476D01*
X97688347Y-101084077D01*
X97575354Y-101166172D01*
X97575352Y-101166174D01*
X97575351Y-101166174D01*
X97436174Y-101305351D01*
X97436174Y-101305352D01*
X97436172Y-101305354D01*
X97412830Y-101337482D01*
X97320476Y-101464594D01*
X97230485Y-101641213D01*
X97182511Y-101692009D01*
X97114690Y-101708804D01*
X97048555Y-101686267D01*
X97009515Y-101641213D01*
X96962797Y-101549524D01*
X96919524Y-101464595D01*
X96803828Y-101305354D01*
X96664646Y-101166172D01*
X96505405Y-101050476D01*
X96470335Y-101032607D01*
X96330029Y-100961117D01*
X96142826Y-100900290D01*
X95948422Y-100869500D01*
X95948417Y-100869500D01*
X95751583Y-100869500D01*
X95751578Y-100869500D01*
X95557173Y-100900290D01*
X95369970Y-100961117D01*
X95194594Y-101050476D01*
X95148347Y-101084077D01*
X95035354Y-101166172D01*
X95035352Y-101166174D01*
X95035351Y-101166174D01*
X94896174Y-101305351D01*
X94896174Y-101305352D01*
X94896172Y-101305354D01*
X94872830Y-101337482D01*
X94780476Y-101464594D01*
X94690485Y-101641213D01*
X94642511Y-101692009D01*
X94574690Y-101708804D01*
X94508555Y-101686267D01*
X94469515Y-101641213D01*
X94422797Y-101549524D01*
X94379524Y-101464595D01*
X94263828Y-101305354D01*
X94124646Y-101166172D01*
X93965405Y-101050476D01*
X93930335Y-101032607D01*
X93790029Y-100961117D01*
X93602826Y-100900290D01*
X93408422Y-100869500D01*
X93408417Y-100869500D01*
X93211583Y-100869500D01*
X93211578Y-100869500D01*
X93017173Y-100900290D01*
X92829970Y-100961117D01*
X92654594Y-101050476D01*
X92608347Y-101084077D01*
X92495354Y-101166172D01*
X92495352Y-101166174D01*
X92495351Y-101166174D01*
X92356174Y-101305351D01*
X92356174Y-101305352D01*
X92356172Y-101305354D01*
X92332830Y-101337482D01*
X92240476Y-101464594D01*
X92151117Y-101639970D01*
X92090290Y-101827173D01*
X92059500Y-102021577D01*
X87131473Y-102021577D01*
X87034548Y-101924652D01*
X87032624Y-101922542D01*
X87018509Y-101893599D01*
X87003084Y-101865350D01*
X87003294Y-101862401D01*
X87001998Y-101859742D01*
X87005771Y-101827764D01*
X87008068Y-101795658D01*
X87009840Y-101793290D01*
X87010187Y-101790354D01*
X87030646Y-101765496D01*
X87049940Y-101739725D01*
X87053427Y-101737820D01*
X87054590Y-101736408D01*
X87058051Y-101735295D01*
X87080915Y-101722810D01*
X87212331Y-101673796D01*
X87327546Y-101587546D01*
X87413796Y-101472331D01*
X87464091Y-101337483D01*
X87470500Y-101277873D01*
X87470499Y-99482128D01*
X87464091Y-99422517D01*
X87459599Y-99410474D01*
X87413797Y-99287671D01*
X87413793Y-99287664D01*
X87327547Y-99172455D01*
X87327544Y-99172452D01*
X87212335Y-99086206D01*
X87212328Y-99086202D01*
X87077482Y-99035908D01*
X87077483Y-99035908D01*
X87017883Y-99029501D01*
X87017881Y-99029500D01*
X87017873Y-99029500D01*
X87017864Y-99029500D01*
X85222129Y-99029500D01*
X85222123Y-99029501D01*
X85162516Y-99035908D01*
X85027671Y-99086202D01*
X85027664Y-99086206D01*
X84912455Y-99172452D01*
X84912452Y-99172455D01*
X84826206Y-99287664D01*
X84826202Y-99287671D01*
X84775908Y-99422517D01*
X84769657Y-99480663D01*
X84769501Y-99482123D01*
X84769500Y-99482135D01*
X83900500Y-99482135D01*
X83900500Y-95667648D01*
X92419500Y-95667648D01*
X92419500Y-95872351D01*
X92451522Y-96074534D01*
X92514781Y-96269223D01*
X92578691Y-96394653D01*
X92607585Y-96451359D01*
X92607715Y-96451613D01*
X92728028Y-96617213D01*
X92872786Y-96761971D01*
X93022131Y-96870474D01*
X93038390Y-96882287D01*
X93154607Y-96941503D01*
X93220776Y-96975218D01*
X93220778Y-96975218D01*
X93220781Y-96975220D01*
X93279211Y-96994205D01*
X93415465Y-97038477D01*
X93488597Y-97050060D01*
X93617648Y-97070500D01*
X93617649Y-97070500D01*
X93822351Y-97070500D01*
X93822352Y-97070500D01*
X94024534Y-97038477D01*
X94219219Y-96975220D01*
X94401610Y-96882287D01*
X94501107Y-96809999D01*
X94567213Y-96761971D01*
X94567215Y-96761968D01*
X94567219Y-96761966D01*
X94711966Y-96617219D01*
X94711968Y-96617215D01*
X94711971Y-96617213D01*
X94782869Y-96519628D01*
X94832287Y-96451610D01*
X94925220Y-96269219D01*
X94988477Y-96074534D01*
X95020500Y-95872352D01*
X95020500Y-95667648D01*
X95010181Y-95602499D01*
X94988477Y-95465465D01*
X94928378Y-95280500D01*
X94925220Y-95270781D01*
X94925218Y-95270778D01*
X94925218Y-95270776D01*
X94883490Y-95188882D01*
X94832287Y-95088390D01*
X94782868Y-95020370D01*
X94711971Y-94922786D01*
X94567213Y-94778028D01*
X94401613Y-94657715D01*
X94401612Y-94657714D01*
X94401610Y-94657713D01*
X94344653Y-94628691D01*
X94219223Y-94564781D01*
X94024534Y-94501522D01*
X93849995Y-94473878D01*
X93822352Y-94469500D01*
X93617648Y-94469500D01*
X93593329Y-94473351D01*
X93415465Y-94501522D01*
X93220776Y-94564781D01*
X93038386Y-94657715D01*
X92872786Y-94778028D01*
X92728028Y-94922786D01*
X92607715Y-95088386D01*
X92514781Y-95270776D01*
X92451522Y-95465465D01*
X92419500Y-95667648D01*
X83900500Y-95667648D01*
X83900500Y-80678711D01*
X86549500Y-80678711D01*
X86549500Y-80921288D01*
X86581161Y-81161785D01*
X86643947Y-81396104D01*
X86669261Y-81457217D01*
X86736776Y-81620212D01*
X86858064Y-81830289D01*
X86858066Y-81830292D01*
X86858067Y-81830293D01*
X87005733Y-82022736D01*
X87005739Y-82022743D01*
X87177256Y-82194260D01*
X87177262Y-82194265D01*
X87369711Y-82341936D01*
X87579788Y-82463224D01*
X87803900Y-82556054D01*
X88038211Y-82618838D01*
X88218586Y-82642584D01*
X88278711Y-82650500D01*
X88278712Y-82650500D01*
X88521289Y-82650500D01*
X88569388Y-82644167D01*
X88761789Y-82618838D01*
X88996100Y-82556054D01*
X89220212Y-82463224D01*
X89430289Y-82341936D01*
X89622738Y-82194265D01*
X89794265Y-82022738D01*
X89941936Y-81830289D01*
X90063224Y-81620212D01*
X90156054Y-81396100D01*
X90218838Y-81161789D01*
X90250500Y-80921288D01*
X90250500Y-80678712D01*
X90227979Y-80507648D01*
X122819500Y-80507648D01*
X122819500Y-80712351D01*
X122851522Y-80914534D01*
X122914781Y-81109223D01*
X122978691Y-81234653D01*
X123007585Y-81291359D01*
X123007715Y-81291613D01*
X123128028Y-81457213D01*
X123272786Y-81601971D01*
X123393226Y-81689474D01*
X123438390Y-81722287D01*
X123554607Y-81781503D01*
X123620776Y-81815218D01*
X123620778Y-81815218D01*
X123620781Y-81815220D01*
X123725137Y-81849127D01*
X123815465Y-81878477D01*
X123916557Y-81894488D01*
X124017648Y-81910500D01*
X124017649Y-81910500D01*
X124222351Y-81910500D01*
X124222352Y-81910500D01*
X124424534Y-81878477D01*
X124619219Y-81815220D01*
X124801610Y-81722287D01*
X124942103Y-81620214D01*
X124967213Y-81601971D01*
X124967215Y-81601968D01*
X124967219Y-81601966D01*
X125111966Y-81457219D01*
X125111968Y-81457215D01*
X125111971Y-81457213D01*
X125164732Y-81384590D01*
X125232287Y-81291610D01*
X125325220Y-81109219D01*
X125388477Y-80914534D01*
X125420500Y-80712352D01*
X125420500Y-80507682D01*
X127820000Y-80507682D01*
X127820000Y-80712317D01*
X127852009Y-80914417D01*
X127915244Y-81109031D01*
X128008141Y-81291350D01*
X128008147Y-81291359D01*
X128040523Y-81335921D01*
X128040524Y-81335922D01*
X128720000Y-80656446D01*
X128720000Y-80662661D01*
X128747259Y-80764394D01*
X128799920Y-80855606D01*
X128874394Y-80930080D01*
X128965606Y-80982741D01*
X129067339Y-81010000D01*
X129073553Y-81010000D01*
X128394076Y-81689474D01*
X128438650Y-81721859D01*
X128620968Y-81814755D01*
X128815582Y-81877990D01*
X129017683Y-81910000D01*
X129222317Y-81910000D01*
X129424417Y-81877990D01*
X129619031Y-81814755D01*
X129801349Y-81721859D01*
X129845921Y-81689474D01*
X129166447Y-81010000D01*
X129172661Y-81010000D01*
X129274394Y-80982741D01*
X129365606Y-80930080D01*
X129440080Y-80855606D01*
X129492741Y-80764394D01*
X129520000Y-80662661D01*
X129520000Y-80656447D01*
X130199474Y-81335921D01*
X130231859Y-81291349D01*
X130324755Y-81109031D01*
X130387990Y-80914417D01*
X130420000Y-80712317D01*
X130420000Y-80507682D01*
X130387990Y-80305582D01*
X130324755Y-80110968D01*
X130231859Y-79928650D01*
X130199474Y-79884077D01*
X130199474Y-79884076D01*
X129520000Y-80563551D01*
X129520000Y-80557339D01*
X129492741Y-80455606D01*
X129440080Y-80364394D01*
X129365606Y-80289920D01*
X129274394Y-80237259D01*
X129172661Y-80210000D01*
X129166446Y-80210000D01*
X129845922Y-79530524D01*
X129845921Y-79530523D01*
X129801359Y-79498147D01*
X129801350Y-79498141D01*
X129619031Y-79405244D01*
X129424417Y-79342009D01*
X129222317Y-79310000D01*
X129017683Y-79310000D01*
X128815582Y-79342009D01*
X128620968Y-79405244D01*
X128438644Y-79498143D01*
X128394077Y-79530523D01*
X128394077Y-79530524D01*
X129073554Y-80210000D01*
X129067339Y-80210000D01*
X128965606Y-80237259D01*
X128874394Y-80289920D01*
X128799920Y-80364394D01*
X128747259Y-80455606D01*
X128720000Y-80557339D01*
X128720000Y-80563553D01*
X128040524Y-79884077D01*
X128040523Y-79884077D01*
X128008143Y-79928644D01*
X127915244Y-80110968D01*
X127852009Y-80305582D01*
X127820000Y-80507682D01*
X125420500Y-80507682D01*
X125420500Y-80507648D01*
X125403345Y-80399336D01*
X125388477Y-80305465D01*
X125331470Y-80130018D01*
X125325220Y-80110781D01*
X125325218Y-80110778D01*
X125325218Y-80110776D01*
X125283566Y-80029031D01*
X125232287Y-79928390D01*
X125200092Y-79884077D01*
X125111971Y-79762786D01*
X124967213Y-79618028D01*
X124801613Y-79497715D01*
X124801612Y-79497714D01*
X124801610Y-79497713D01*
X124744653Y-79468691D01*
X124619223Y-79404781D01*
X124424534Y-79341522D01*
X124249995Y-79313878D01*
X124222352Y-79309500D01*
X124017648Y-79309500D01*
X123993329Y-79313351D01*
X123815465Y-79341522D01*
X123620776Y-79404781D01*
X123438386Y-79497715D01*
X123272786Y-79618028D01*
X123128028Y-79762786D01*
X123007715Y-79928386D01*
X122914781Y-80110776D01*
X122851522Y-80305465D01*
X122819500Y-80507648D01*
X90227979Y-80507648D01*
X90218838Y-80438214D01*
X90218838Y-80438211D01*
X90156054Y-80203900D01*
X90063224Y-79979788D01*
X89941936Y-79769711D01*
X89836510Y-79632317D01*
X89794266Y-79577263D01*
X89794260Y-79577256D01*
X89622743Y-79405739D01*
X89622736Y-79405733D01*
X89430293Y-79258067D01*
X89430292Y-79258066D01*
X89430289Y-79258064D01*
X89220212Y-79136776D01*
X88996105Y-79043948D01*
X88996103Y-79043947D01*
X88996101Y-79043946D01*
X88996100Y-79043946D01*
X88761789Y-78981162D01*
X88761788Y-78981161D01*
X88761785Y-78981161D01*
X88521289Y-78949500D01*
X88521288Y-78949500D01*
X88278712Y-78949500D01*
X88278711Y-78949500D01*
X88038214Y-78981161D01*
X87803895Y-79043947D01*
X87579794Y-79136773D01*
X87579785Y-79136777D01*
X87369706Y-79258067D01*
X87177263Y-79405733D01*
X87177256Y-79405739D01*
X87005739Y-79577256D01*
X87005733Y-79577263D01*
X86858067Y-79769706D01*
X86736777Y-79979785D01*
X86736773Y-79979794D01*
X86643947Y-80203895D01*
X86581161Y-80438214D01*
X86549500Y-80678711D01*
X83900500Y-80678711D01*
X83900500Y-78929983D01*
X132679500Y-78929983D01*
X132679500Y-80130001D01*
X132679501Y-80130018D01*
X132690000Y-80232796D01*
X132690001Y-80232799D01*
X132719245Y-80321050D01*
X132745186Y-80399334D01*
X132837288Y-80548656D01*
X132961344Y-80672712D01*
X133110666Y-80764814D01*
X133277203Y-80819999D01*
X133379991Y-80830500D01*
X134580008Y-80830499D01*
X134682797Y-80819999D01*
X134849334Y-80764814D01*
X134998656Y-80672712D01*
X135122712Y-80548656D01*
X135214814Y-80399334D01*
X135238102Y-80329054D01*
X135242110Y-80321050D01*
X135260060Y-80301772D01*
X135275055Y-80280116D01*
X135283495Y-80276606D01*
X135289725Y-80269917D01*
X135315249Y-80263404D01*
X135339571Y-80253292D01*
X135355834Y-80253048D01*
X135357425Y-80252643D01*
X135358523Y-80253008D01*
X135362719Y-80252946D01*
X135400525Y-80255921D01*
X136080000Y-79576446D01*
X136080000Y-79582661D01*
X136107259Y-79684394D01*
X136159920Y-79775606D01*
X136234394Y-79850080D01*
X136325606Y-79902741D01*
X136427339Y-79930000D01*
X136433553Y-79930000D01*
X135754076Y-80609474D01*
X135798650Y-80641859D01*
X135980968Y-80734755D01*
X136175582Y-80797990D01*
X136377683Y-80830000D01*
X136582317Y-80830000D01*
X136784417Y-80797990D01*
X136979031Y-80734755D01*
X137089023Y-80678711D01*
X176549500Y-80678711D01*
X176549500Y-80921288D01*
X176581161Y-81161785D01*
X176643947Y-81396104D01*
X176669261Y-81457217D01*
X176736776Y-81620212D01*
X176858064Y-81830289D01*
X176858066Y-81830292D01*
X176858067Y-81830293D01*
X177005733Y-82022736D01*
X177005739Y-82022743D01*
X177177256Y-82194260D01*
X177177262Y-82194265D01*
X177369711Y-82341936D01*
X177579788Y-82463224D01*
X177803900Y-82556054D01*
X178038211Y-82618838D01*
X178218586Y-82642584D01*
X178278711Y-82650500D01*
X178278712Y-82650500D01*
X178521289Y-82650500D01*
X178569388Y-82644167D01*
X178761789Y-82618838D01*
X178996100Y-82556054D01*
X179220212Y-82463224D01*
X179430289Y-82341936D01*
X179622738Y-82194265D01*
X179794265Y-82022738D01*
X179941936Y-81830289D01*
X180063224Y-81620212D01*
X180156054Y-81396100D01*
X180218838Y-81161789D01*
X180250500Y-80921288D01*
X180250500Y-80678712D01*
X180218838Y-80438211D01*
X180156054Y-80203900D01*
X180063224Y-79979788D01*
X179941936Y-79769711D01*
X179836510Y-79632317D01*
X179794266Y-79577263D01*
X179794260Y-79577256D01*
X179622743Y-79405739D01*
X179622736Y-79405733D01*
X179430293Y-79258067D01*
X179430292Y-79258066D01*
X179430289Y-79258064D01*
X179220212Y-79136776D01*
X179220205Y-79136773D01*
X178996104Y-79043947D01*
X178761785Y-78981161D01*
X178521289Y-78949500D01*
X178521288Y-78949500D01*
X178278712Y-78949500D01*
X178278711Y-78949500D01*
X178038214Y-78981161D01*
X177803895Y-79043947D01*
X177579794Y-79136773D01*
X177579785Y-79136777D01*
X177369706Y-79258067D01*
X177177263Y-79405733D01*
X177177256Y-79405739D01*
X177005739Y-79577256D01*
X177005733Y-79577263D01*
X176858067Y-79769706D01*
X176736777Y-79979785D01*
X176736773Y-79979794D01*
X176643947Y-80203895D01*
X176581161Y-80438214D01*
X176549500Y-80678711D01*
X137089023Y-80678711D01*
X137161349Y-80641859D01*
X137205921Y-80609474D01*
X136526447Y-79930000D01*
X136532661Y-79930000D01*
X136634394Y-79902741D01*
X136725606Y-79850080D01*
X136800080Y-79775606D01*
X136852741Y-79684394D01*
X136880000Y-79582661D01*
X136880000Y-79576447D01*
X137559474Y-80255921D01*
X137591859Y-80211349D01*
X137684755Y-80029031D01*
X137747990Y-79834417D01*
X137780000Y-79632317D01*
X137780000Y-79427682D01*
X137747990Y-79225582D01*
X137684755Y-79030968D01*
X137591859Y-78848650D01*
X137559474Y-78804077D01*
X137559474Y-78804076D01*
X136880000Y-79483551D01*
X136880000Y-79477339D01*
X136852741Y-79375606D01*
X136800080Y-79284394D01*
X136725606Y-79209920D01*
X136634394Y-79157259D01*
X136532661Y-79130000D01*
X136526446Y-79130000D01*
X137205922Y-78450524D01*
X137205921Y-78450523D01*
X137161359Y-78418147D01*
X137161350Y-78418141D01*
X136979031Y-78325244D01*
X136784417Y-78262009D01*
X136582317Y-78230000D01*
X136377683Y-78230000D01*
X136175582Y-78262009D01*
X135980968Y-78325244D01*
X135798644Y-78418143D01*
X135754077Y-78450523D01*
X135754077Y-78450524D01*
X136433554Y-79130000D01*
X136427339Y-79130000D01*
X136325606Y-79157259D01*
X136234394Y-79209920D01*
X136159920Y-79284394D01*
X136107259Y-79375606D01*
X136080000Y-79477339D01*
X136080000Y-79483553D01*
X135400524Y-78804077D01*
X135362719Y-78807053D01*
X135294341Y-78792689D01*
X135244584Y-78743638D01*
X135242110Y-78738949D01*
X135238101Y-78730942D01*
X135214814Y-78660666D01*
X135122712Y-78511344D01*
X134998656Y-78387288D01*
X134849334Y-78295186D01*
X134682797Y-78240001D01*
X134682795Y-78240000D01*
X134580010Y-78229500D01*
X133379998Y-78229500D01*
X133379981Y-78229501D01*
X133277203Y-78240000D01*
X133277200Y-78240001D01*
X133110668Y-78295185D01*
X133110663Y-78295187D01*
X132961342Y-78387289D01*
X132837289Y-78511342D01*
X132745187Y-78660663D01*
X132745186Y-78660666D01*
X132690001Y-78827203D01*
X132690001Y-78827204D01*
X132690000Y-78827204D01*
X132679500Y-78929983D01*
X83900500Y-78929983D01*
X83900500Y-76424500D01*
X83920185Y-76357461D01*
X83972989Y-76311706D01*
X84024500Y-76300500D01*
X182775500Y-76300500D01*
X182842539Y-76320185D01*
G37*
%TD.AperFunction*%
%TD*%
M02*
