%TF.GenerationSoftware,KiCad,Pcbnew,9.0.4*%
%TF.CreationDate,2026-01-27T15:26:10-05:00*%
%TF.ProjectId,XDF-001,5844462d-3030-4312-9e6b-696361645f70,rev?*%
%TF.SameCoordinates,Original*%
%TF.FileFunction,Copper,L1,Top*%
%TF.FilePolarity,Positive*%
%FSLAX46Y46*%
G04 Gerber Fmt 4.6, Leading zero omitted, Abs format (unit mm)*
G04 Created by KiCad (PCBNEW 9.0.4) date 2026-01-27 15:26:10*
%MOMM*%
%LPD*%
G01*
G04 APERTURE LIST*
G04 Aperture macros list*
%AMRoundRect*
0 Rectangle with rounded corners*
0 $1 Rounding radius*
0 $2 $3 $4 $5 $6 $7 $8 $9 X,Y pos of 4 corners*
0 Add a 4 corners polygon primitive as box body*
4,1,4,$2,$3,$4,$5,$6,$7,$8,$9,$2,$3,0*
0 Add four circle primitives for the rounded corners*
1,1,$1+$1,$2,$3*
1,1,$1+$1,$4,$5*
1,1,$1+$1,$6,$7*
1,1,$1+$1,$8,$9*
0 Add four rect primitives between the rounded corners*
20,1,$1+$1,$2,$3,$4,$5,0*
20,1,$1+$1,$4,$5,$6,$7,0*
20,1,$1+$1,$6,$7,$8,$9,0*
20,1,$1+$1,$8,$9,$2,$3,0*%
G04 Aperture macros list end*
%TA.AperFunction,ComponentPad*%
%ADD10C,1.500000*%
%TD*%
%TA.AperFunction,ComponentPad*%
%ADD11R,1.700000X1.700000*%
%TD*%
%TA.AperFunction,ComponentPad*%
%ADD12C,1.700000*%
%TD*%
%TA.AperFunction,ComponentPad*%
%ADD13RoundRect,0.250000X-0.350000X-0.625000X0.350000X-0.625000X0.350000X0.625000X-0.350000X0.625000X0*%
%TD*%
%TA.AperFunction,ComponentPad*%
%ADD14O,1.200000X1.750000*%
%TD*%
%TA.AperFunction,ComponentPad*%
%ADD15RoundRect,1.500000X-1.500000X1.500000X-1.500000X-1.500000X1.500000X-1.500000X1.500000X1.500000X0*%
%TD*%
%TA.AperFunction,ComponentPad*%
%ADD16C,6.000000*%
%TD*%
%TA.AperFunction,ComponentPad*%
%ADD17RoundRect,0.250000X-0.550000X-0.550000X0.550000X-0.550000X0.550000X0.550000X-0.550000X0.550000X0*%
%TD*%
%TA.AperFunction,ComponentPad*%
%ADD18C,1.600000*%
%TD*%
%TA.AperFunction,ComponentPad*%
%ADD19RoundRect,0.250000X-0.550000X0.550000X-0.550000X-0.550000X0.550000X-0.550000X0.550000X0.550000X0*%
%TD*%
%TA.AperFunction,ComponentPad*%
%ADD20RoundRect,0.250000X0.550000X-0.550000X0.550000X0.550000X-0.550000X0.550000X-0.550000X-0.550000X0*%
%TD*%
%TA.AperFunction,ComponentPad*%
%ADD21RoundRect,0.250000X-0.350000X-0.350000X0.350000X-0.350000X0.350000X0.350000X-0.350000X0.350000X0*%
%TD*%
%TA.AperFunction,ComponentPad*%
%ADD22C,1.200000*%
%TD*%
%TA.AperFunction,Conductor*%
%ADD23C,0.250000*%
%TD*%
%TA.AperFunction,Conductor*%
%ADD24C,1.000000*%
%TD*%
G04 APERTURE END LIST*
D10*
%TO.P,U10,1,VDD*%
%TO.N,+3.3V*%
X194740000Y-77200000D03*
%TO.P,U10,2,GND*%
%TO.N,GND*%
X197280000Y-77200000D03*
%TO.P,U10,3,SCL/SCLK*%
%TO.N,/SCL_MPU*%
X199820000Y-77200000D03*
%TO.P,U10,4,SDA/SDI*%
%TO.N,/SDA_MPU*%
X202360000Y-77200000D03*
%TO.P,U10,5,AUX_CL*%
%TO.N,unconnected-(U10-AUX_CL-Pad5)*%
X204900000Y-77200000D03*
%TO.P,U10,6,AUX_DA*%
%TO.N,unconnected-(U10-AUX_DA-Pad6)*%
X207440000Y-77200000D03*
%TO.P,U10,7,AD0/SDO*%
%TO.N,unconnected-(U10-AD0{slash}SDO-Pad7)*%
X209980000Y-77200000D03*
%TO.P,U10,8,INT*%
%TO.N,unconnected-(U10-INT-Pad8)*%
X212520000Y-77200000D03*
%TO.P,U10,9,NC*%
%TO.N,unconnected-(U10-NC-Pad9)*%
X215060000Y-77200000D03*
%TO.P,U10,10,FSYNC*%
%TO.N,unconnected-(U10-FSYNC-Pad10)*%
X217600000Y-77200000D03*
%TD*%
%TO.P,U9,1,VCC*%
%TO.N,+3.3V*%
X158985000Y-73155000D03*
%TO.P,U9,2,RXD1*%
%TO.N,/RX*%
X158985000Y-75695000D03*
%TO.P,U9,3,TXD1*%
%TO.N,/TX*%
X158985000Y-78235000D03*
%TO.P,U9,4,GND*%
%TO.N,GND*%
X158985000Y-80775000D03*
%TD*%
D11*
%TO.P,U8,1,GND*%
%TO.N,GND*%
X234000000Y-110900000D03*
D12*
%TO.P,U8,2,~{OE}*%
X234000000Y-113440000D03*
%TO.P,U8,3,SCL*%
%TO.N,/SCL_PCA*%
X234000000Y-115980000D03*
%TO.P,U8,4,SDA*%
%TO.N,/SDA_PCA*%
X234000000Y-118520000D03*
%TO.P,U8,5,VCC*%
%TO.N,+3.3V*%
X234000000Y-121060000D03*
%TO.P,U8,6,V+*%
%TO.N,+5V*%
X234000000Y-123600000D03*
%TD*%
D10*
%TO.P,U7,1,VCC*%
%TO.N,+3.3V*%
X204240000Y-92930000D03*
%TO.P,U7,2,GND*%
%TO.N,GND*%
X211840000Y-92930000D03*
%TO.P,U7,3,CSN*%
%TO.N,/CSN*%
X204240000Y-95470000D03*
%TO.P,U7,4,CE*%
%TO.N,/CE*%
X211840000Y-95470000D03*
%TO.P,U7,5,MOSI*%
%TO.N,/MOSI*%
X204240000Y-98010000D03*
%TO.P,U7,6,SCK*%
%TO.N,/SCK*%
X211840000Y-98010000D03*
%TO.P,U7,7,~{IRQ}*%
%TO.N,/IRQ*%
X204240000Y-100550000D03*
%TO.P,U7,8,MISO*%
%TO.N,/MISO*%
X211840000Y-100550000D03*
%TD*%
%TO.P,U6,1,3V3*%
%TO.N,unconnected-(U6-3V3-Pad1)*%
X147995000Y-122655000D03*
%TO.P,U6,2,GND3*%
%TO.N,unconnected-(U6-GND3-Pad2)*%
X147995000Y-97255000D03*
%TO.P,U6,3,EN*%
%TO.N,unconnected-(U6-EN-Pad3)*%
X150535000Y-122655000D03*
%TO.P,U6,4,IO23*%
%TO.N,/MOSI*%
X150535000Y-97255000D03*
%TO.P,U6,5,SENSOR_VP*%
%TO.N,unconnected-(U6-SENSOR_VP-Pad5)*%
X153075000Y-122655000D03*
%TO.P,U6,6,IO22*%
%TO.N,/SCL_MPU*%
X153075000Y-97255000D03*
%TO.P,U6,7,SENSOR_VN*%
%TO.N,unconnected-(U6-SENSOR_VN-Pad7)*%
X155615000Y-122655000D03*
%TO.P,U6,8,TXD0*%
%TO.N,unconnected-(U6-TXD0-Pad8)*%
X155615000Y-97255000D03*
%TO.P,U6,9,IO34*%
%TO.N,unconnected-(U6-IO34-Pad9)*%
X158155000Y-122655000D03*
%TO.P,U6,10,RXD0*%
%TO.N,unconnected-(U6-RXD0-Pad10)*%
X158155000Y-97255000D03*
%TO.P,U6,11,IO35*%
%TO.N,unconnected-(U6-IO35-Pad11)*%
X160695000Y-122655000D03*
%TO.P,U6,12,IO21*%
%TO.N,/SDA_MPU*%
X160695000Y-97255000D03*
%TO.P,U6,13,IO32*%
%TO.N,/SDA_PCA*%
X163235000Y-122655000D03*
%TO.P,U6,14,GND2*%
%TO.N,unconnected-(U6-GND2-Pad14)*%
X163235000Y-97255000D03*
%TO.P,U6,15,IO33*%
%TO.N,unconnected-(U6-IO33-Pad15)*%
X165775000Y-122655000D03*
%TO.P,U6,16,IO19*%
%TO.N,/MISO*%
X165775000Y-97255000D03*
%TO.P,U6,17,IO25*%
%TO.N,unconnected-(U6-IO25-Pad17)*%
X168315000Y-122655000D03*
%TO.P,U6,18,IO18*%
%TO.N,/SCK*%
X168315000Y-97255000D03*
%TO.P,U6,19,IO26*%
%TO.N,/IRQ*%
X170855000Y-122655000D03*
%TO.P,U6,20,IO5*%
%TO.N,/CE*%
X170855000Y-97255000D03*
%TO.P,U6,21,IO27*%
%TO.N,/SCL_PCA*%
X173395000Y-122655000D03*
%TO.P,U6,22,IO17*%
%TO.N,/RX*%
X173395000Y-97255000D03*
%TO.P,U6,23,IO14*%
%TO.N,/MOTOR_SIGNAL*%
X175935000Y-122655000D03*
%TO.P,U6,24,IO16*%
%TO.N,/TX*%
X175935000Y-97255000D03*
%TO.P,U6,25,IO12*%
%TO.N,unconnected-(U6-IO12-Pad25)*%
X178475000Y-122655000D03*
%TO.P,U6,26,IO4*%
%TO.N,/CSN*%
X178475000Y-97255000D03*
%TO.P,U6,27,GND1*%
%TO.N,GND*%
X181015000Y-122655000D03*
%TO.P,U6,28,IO0*%
%TO.N,unconnected-(U6-IO0-Pad28)*%
X181015000Y-97255000D03*
%TO.P,U6,29,IO13*%
%TO.N,unconnected-(U6-IO13-Pad29)*%
X183555000Y-122655000D03*
%TO.P,U6,30,IO2*%
%TO.N,unconnected-(U6-IO2-Pad30)*%
X183555000Y-97255000D03*
%TO.P,U6,31,SD2*%
%TO.N,unconnected-(U6-SD2-Pad31)*%
X186095000Y-122655000D03*
%TO.P,U6,32,IO15*%
%TO.N,unconnected-(U6-IO15-Pad32)*%
X186095000Y-97255000D03*
%TO.P,U6,33,SD3*%
%TO.N,unconnected-(U6-SD3-Pad33)*%
X188635000Y-122655000D03*
%TO.P,U6,34,SD1*%
%TO.N,unconnected-(U6-SD1-Pad34)*%
X188635000Y-97255000D03*
%TO.P,U6,35,CMD*%
%TO.N,unconnected-(U6-CMD-Pad35)*%
X191175000Y-122655000D03*
%TO.P,U6,36,SD0*%
%TO.N,unconnected-(U6-SD0-Pad36)*%
X191175000Y-97255000D03*
%TO.P,U6,37,EXT_5V*%
%TO.N,+5V*%
X193715000Y-122655000D03*
%TO.P,U6,38,CLK*%
%TO.N,unconnected-(U6-CLK-Pad38)*%
X193715000Y-97255000D03*
%TD*%
D11*
%TO.P,MP1548EN2,1,IN-*%
%TO.N,GND*%
X202945000Y-108105000D03*
D12*
%TO.P,MP1548EN2,2,IN-*%
X202945000Y-110645000D03*
D11*
%TO.P,MP1548EN2,3,IN+*%
%TO.N,+5V*%
X202895000Y-120255000D03*
D12*
%TO.P,MP1548EN2,4,IN+*%
X202895000Y-122795000D03*
D11*
%TO.P,MP1548EN2,5,OUT-*%
%TO.N,unconnected-(MP1548EN2-OUT--Pad5)*%
X219545000Y-108105000D03*
D12*
%TO.P,MP1548EN2,6,OUT-*%
%TO.N,GND*%
X219545000Y-110645000D03*
D11*
%TO.P,MP1548EN2,7,OUT+*%
%TO.N,unconnected-(MP1548EN2-OUT+-Pad7)*%
X219545000Y-120305000D03*
D12*
%TO.P,MP1548EN2,8,OUT+*%
%TO.N,+3.3V*%
X219545000Y-122845000D03*
%TD*%
D13*
%TO.P,J4,1,Pin_1*%
%TO.N,+8V*%
X222800000Y-67000000D03*
D14*
%TO.P,J4,2,Pin_2*%
%TO.N,GND2*%
X224800000Y-67000000D03*
%TD*%
D15*
%TO.P,J3,1,Pin_1*%
%TO.N,+8V*%
X230800000Y-77200000D03*
D16*
%TO.P,J3,2,Pin_2*%
%TO.N,GND2*%
X230800000Y-84400000D03*
%TD*%
D11*
%TO.P,J2,1,Pin_1*%
%TO.N,+5V*%
X140800000Y-108460000D03*
D12*
%TO.P,J2,2,Pin_2*%
%TO.N,/MOTOR_SIGNAL*%
X140800000Y-111000000D03*
%TO.P,J2,3,Pin_3*%
%TO.N,GND*%
X140800000Y-113540000D03*
%TD*%
D15*
%TO.P,J1,1,Pin_1*%
%TO.N,+8V*%
X141800000Y-79400000D03*
D16*
%TO.P,J1,2,Pin_2*%
%TO.N,GND2*%
X141800000Y-86600000D03*
%TD*%
D17*
%TO.P,C13,1*%
%TO.N,+5V*%
X170500000Y-129200000D03*
D18*
%TO.P,C13,2*%
%TO.N,GND*%
X173000000Y-129200000D03*
%TD*%
D19*
%TO.P,C12,1*%
%TO.N,+5V*%
X222400000Y-127000000D03*
D18*
%TO.P,C12,2*%
%TO.N,GND*%
X222400000Y-130500000D03*
%TD*%
%TO.P,C11,1*%
%TO.N,+5V*%
X229800000Y-123700000D03*
%TO.P,C11,2*%
%TO.N,GND*%
X229800000Y-118700000D03*
%TD*%
D20*
%TO.P,C10,1*%
%TO.N,+3.3V*%
X226000000Y-109405113D03*
D18*
%TO.P,C10,2*%
%TO.N,GND*%
X226000000Y-106905113D03*
%TD*%
%TO.P,C9,1*%
%TO.N,+3.3V*%
X230000000Y-116100000D03*
%TO.P,C9,2*%
%TO.N,GND*%
X230000000Y-111100000D03*
%TD*%
D17*
%TO.P,C8,1*%
%TO.N,+5V*%
X179300000Y-128200000D03*
D18*
%TO.P,C8,2*%
%TO.N,GND*%
X181800000Y-128200000D03*
%TD*%
%TO.P,C7,1*%
%TO.N,GND*%
X185900000Y-126000000D03*
%TO.P,C7,2*%
%TO.N,+5V*%
X190900000Y-126000000D03*
%TD*%
D21*
%TO.P,C6,1*%
%TO.N,+3.3V*%
X203000000Y-82600000D03*
D22*
%TO.P,C6,2*%
%TO.N,GND*%
X205000000Y-82600000D03*
%TD*%
D18*
%TO.P,C5,1*%
%TO.N,+3.3V*%
X194200000Y-82000000D03*
%TO.P,C5,2*%
%TO.N,GND*%
X199200000Y-82000000D03*
%TD*%
D19*
%TO.P,C4,1*%
%TO.N,+3.3V*%
X149600000Y-72194888D03*
D18*
%TO.P,C4,2*%
%TO.N,GND*%
X149600000Y-74694888D03*
%TD*%
%TO.P,C3,1*%
%TO.N,+3.3V*%
X155200000Y-73900000D03*
%TO.P,C3,2*%
%TO.N,GND*%
X155200000Y-78900000D03*
%TD*%
D17*
%TO.P,C2,1*%
%TO.N,+3.3V*%
X215900000Y-86400000D03*
D18*
%TO.P,C2,2*%
%TO.N,GND*%
X218400000Y-86400000D03*
%TD*%
%TO.P,C1,1*%
%TO.N,+3.3V*%
X205800000Y-87600000D03*
%TO.P,C1,2*%
%TO.N,GND*%
X210800000Y-87600000D03*
%TD*%
D23*
%TO.N,/MOSI*%
X153379000Y-100099000D02*
X150535000Y-97255000D01*
X201701000Y-100099000D02*
X153379000Y-100099000D01*
X203790000Y-98010000D02*
X201701000Y-100099000D01*
X204240000Y-98010000D02*
X203790000Y-98010000D01*
%TO.N,/CSN*%
X180260000Y-95470000D02*
X178475000Y-97255000D01*
X204240000Y-95470000D02*
X180260000Y-95470000D01*
%TO.N,/IRQ*%
X192960000Y-100550000D02*
X170855000Y-122655000D01*
X204240000Y-100550000D02*
X192960000Y-100550000D01*
%TO.N,/RX*%
X157909000Y-76771000D02*
X157909000Y-81769000D01*
X158985000Y-75695000D02*
X157909000Y-76771000D01*
X157909000Y-81769000D02*
X173395000Y-97255000D01*
%TO.N,/TX*%
X175935000Y-95185000D02*
X175935000Y-97255000D01*
X158985000Y-78235000D02*
X175935000Y-95185000D01*
D24*
%TO.N,+3.3V*%
X153494888Y-72194888D02*
X155200000Y-73900000D01*
X149600000Y-72194888D02*
X153494888Y-72194888D01*
X155200000Y-73900000D02*
X158240000Y-73900000D01*
X158240000Y-73900000D02*
X158985000Y-73155000D01*
X166140000Y-80310000D02*
X158985000Y-73155000D01*
X194740000Y-80310000D02*
X166140000Y-80310000D01*
X203000000Y-82600000D02*
X201400000Y-82600000D01*
X199215000Y-84785000D02*
X194740000Y-80310000D01*
X201400000Y-82600000D02*
X199215000Y-84785000D01*
X194200000Y-80850000D02*
X194200000Y-82000000D01*
X194740000Y-80310000D02*
X194200000Y-80850000D01*
X194740000Y-80310000D02*
X194740000Y-77200000D01*
X205800000Y-91370000D02*
X199215000Y-84785000D01*
X215900000Y-90858000D02*
X215279000Y-91479000D01*
X215900000Y-86400000D02*
X215900000Y-90858000D01*
X205800000Y-91370000D02*
X205691000Y-91479000D01*
X205800000Y-87600000D02*
X205800000Y-91370000D01*
X216800000Y-101400000D02*
X224805113Y-109405113D01*
X216800000Y-93000000D02*
X216800000Y-101400000D01*
X215279000Y-91479000D02*
X216800000Y-93000000D01*
X224805113Y-109405113D02*
X226000000Y-109405113D01*
X205691000Y-91479000D02*
X215279000Y-91479000D01*
X204240000Y-92930000D02*
X205691000Y-91479000D01*
X226000000Y-109405113D02*
X226000000Y-112777265D01*
X226000000Y-112777265D02*
X230000000Y-116777265D01*
X230000000Y-116777265D02*
X230000000Y-116100000D01*
X234000000Y-120777265D02*
X230000000Y-116777265D01*
X234000000Y-121060000D02*
X234000000Y-120777265D01*
X220395000Y-121995000D02*
X233065000Y-121995000D01*
X233065000Y-121995000D02*
X234000000Y-121060000D01*
X219545000Y-122845000D02*
X220395000Y-121995000D01*
%TO.N,+5V*%
X229800000Y-126200000D02*
X230600000Y-127000000D01*
X229800000Y-123700000D02*
X229800000Y-126200000D01*
X230600000Y-127000000D02*
X234000000Y-123600000D01*
X222400000Y-127000000D02*
X230600000Y-127000000D01*
X200690000Y-127000000D02*
X222400000Y-127000000D01*
X199690000Y-126000000D02*
X200690000Y-127000000D01*
X202895000Y-122795000D02*
X202895000Y-120255000D01*
X199690000Y-126000000D02*
X202895000Y-122795000D01*
X190900000Y-126000000D02*
X199690000Y-126000000D01*
X191871000Y-125029000D02*
X191871000Y-124499000D01*
X190900000Y-126000000D02*
X191871000Y-125029000D01*
X179300000Y-125399000D02*
X180200000Y-124499000D01*
X180200000Y-124499000D02*
X191871000Y-124499000D01*
X179300000Y-128200000D02*
X179300000Y-125399000D01*
X168200000Y-129200000D02*
X170500000Y-129200000D01*
X167800000Y-128800000D02*
X168200000Y-129200000D01*
X167200000Y-128800000D02*
X167800000Y-128800000D01*
X167200000Y-128800000D02*
X171501000Y-124499000D01*
X191871000Y-124499000D02*
X193715000Y-122655000D01*
X146544000Y-123944000D02*
X151400000Y-128800000D01*
X146544000Y-114204000D02*
X146544000Y-123944000D01*
X151400000Y-128800000D02*
X167200000Y-128800000D01*
X140800000Y-108460000D02*
X146544000Y-114204000D01*
X171501000Y-124499000D02*
X180200000Y-124499000D01*
%TO.N,+8V*%
X222800000Y-69200000D02*
X230800000Y-77200000D01*
X222800000Y-67000000D02*
X222800000Y-69200000D01*
X220800000Y-65000000D02*
X222800000Y-67000000D01*
X147800000Y-65000000D02*
X220800000Y-65000000D01*
X141800000Y-71000000D02*
X147800000Y-65000000D01*
X141800000Y-79400000D02*
X141800000Y-71000000D01*
%TD*%
M02*
