%TF.GenerationSoftware,KiCad,Pcbnew,9.0.4*%
%TF.CreationDate,2026-02-07T12:31:06-05:00*%
%TF.ProjectId,XDF-001,5844462d-3030-4312-9e6b-696361645f70,rev?*%
%TF.SameCoordinates,Original*%
%TF.FileFunction,Soldermask,Top*%
%TF.FilePolarity,Negative*%
%FSLAX46Y46*%
G04 Gerber Fmt 4.6, Leading zero omitted, Abs format (unit mm)*
G04 Created by KiCad (PCBNEW 9.0.4) date 2026-02-07 12:31:06*
%MOMM*%
%LPD*%
G01*
G04 APERTURE LIST*
G04 Aperture macros list*
%AMRoundRect*
0 Rectangle with rounded corners*
0 $1 Rounding radius*
0 $2 $3 $4 $5 $6 $7 $8 $9 X,Y pos of 4 corners*
0 Add a 4 corners polygon primitive as box body*
4,1,4,$2,$3,$4,$5,$6,$7,$8,$9,$2,$3,0*
0 Add four circle primitives for the rounded corners*
1,1,$1+$1,$2,$3*
1,1,$1+$1,$4,$5*
1,1,$1+$1,$6,$7*
1,1,$1+$1,$8,$9*
0 Add four rect primitives between the rounded corners*
20,1,$1+$1,$2,$3,$4,$5,0*
20,1,$1+$1,$4,$5,$6,$7,0*
20,1,$1+$1,$6,$7,$8,$9,0*
20,1,$1+$1,$8,$9,$2,$3,0*%
G04 Aperture macros list end*
%ADD10C,1.500000*%
%ADD11C,3.200000*%
%ADD12RoundRect,0.250000X0.350000X0.625000X-0.350000X0.625000X-0.350000X-0.625000X0.350000X-0.625000X0*%
%ADD13O,1.200000X1.750000*%
%ADD14RoundRect,1.500000X1.500000X-1.500000X1.500000X1.500000X-1.500000X1.500000X-1.500000X-1.500000X0*%
%ADD15C,6.000000*%
%ADD16R,1.700000X1.700000*%
%ADD17C,1.700000*%
%ADD18RoundRect,0.250000X0.550000X0.550000X-0.550000X0.550000X-0.550000X-0.550000X0.550000X-0.550000X0*%
%ADD19C,1.600000*%
%ADD20RoundRect,0.250000X0.550000X-0.550000X0.550000X0.550000X-0.550000X0.550000X-0.550000X-0.550000X0*%
%ADD21RoundRect,0.250000X-0.550000X-0.550000X0.550000X-0.550000X0.550000X0.550000X-0.550000X0.550000X0*%
%ADD22RoundRect,0.250000X-0.350000X-0.350000X0.350000X-0.350000X0.350000X0.350000X-0.350000X0.350000X0*%
%ADD23C,1.200000*%
%ADD24RoundRect,0.250000X-0.550000X0.550000X-0.550000X-0.550000X0.550000X-0.550000X0.550000X0.550000X0*%
G04 APERTURE END LIST*
D10*
%TO.C,MP1548EN2*%
X153846000Y-147441000D03*
X156386000Y-147441000D03*
X164514000Y-147441000D03*
X167054000Y-147441000D03*
X153846000Y-128899000D03*
X156386000Y-128899000D03*
X164514000Y-128899000D03*
X167054000Y-128899000D03*
%TD*%
%TO.C,U6*%
X93310000Y-127520000D03*
X93310000Y-102120000D03*
X95850000Y-127520000D03*
X95850000Y-102120000D03*
X98390000Y-127520000D03*
X98390000Y-102120000D03*
X100930000Y-127520000D03*
X100930000Y-102120000D03*
X103470000Y-127520000D03*
X103470000Y-102120000D03*
X106010000Y-127520000D03*
X106010000Y-102120000D03*
X108550000Y-127520000D03*
X108550000Y-102120000D03*
X111090000Y-127520000D03*
X111090000Y-102120000D03*
X113630000Y-127520000D03*
X113630000Y-102120000D03*
X116170000Y-127520000D03*
X116170000Y-102120000D03*
X118710000Y-127520000D03*
X118710000Y-102120000D03*
X121250000Y-127520000D03*
X121250000Y-102120000D03*
X123790000Y-127520000D03*
X123790000Y-102120000D03*
X126330000Y-127520000D03*
X126330000Y-102120000D03*
X128870000Y-127520000D03*
X128870000Y-102120000D03*
X131410000Y-127520000D03*
X131410000Y-102120000D03*
X133950000Y-127520000D03*
X133950000Y-102120000D03*
X136490000Y-127520000D03*
X136490000Y-102120000D03*
X139030000Y-127520000D03*
X139030000Y-102120000D03*
%TD*%
%TO.C,U9*%
X179080000Y-95400000D03*
X179080000Y-97940000D03*
X179080000Y-100480000D03*
X179080000Y-103020000D03*
%TD*%
D11*
%TO.C,REF\u002A\u002A3*%
X88400000Y-145800000D03*
%TD*%
%TO.C,REF\u002A\u002A2*%
X178400000Y-80800000D03*
%TD*%
%TO.C,REF\u002A\u002A1*%
X88400000Y-80800000D03*
%TD*%
%TO.C,REF\u002A\u002A*%
X178400000Y-145800000D03*
%TD*%
D10*
%TO.C,U8*%
X178750000Y-120130000D03*
X178750000Y-122670000D03*
X178750000Y-125210000D03*
X178750000Y-127750000D03*
X178750000Y-130290000D03*
X178750000Y-132830000D03*
%TD*%
%TO.C,U10*%
X95405000Y-90650000D03*
X97945000Y-90650000D03*
X100485000Y-90650000D03*
X103025000Y-90650000D03*
X105565000Y-90650000D03*
X108105000Y-90650000D03*
X110645000Y-90650000D03*
X113185000Y-90650000D03*
X115725000Y-90650000D03*
X118265000Y-90650000D03*
%TD*%
%TO.C,U7*%
X125355000Y-86410000D03*
X127895000Y-86410000D03*
X125355000Y-88950000D03*
X127895000Y-88950000D03*
X125355000Y-91490000D03*
X127895000Y-91490000D03*
X125355000Y-94030000D03*
X127895000Y-94030000D03*
%TD*%
D12*
%TO.C,J4*%
X130975000Y-148600000D03*
D13*
X128975000Y-148600000D03*
%TD*%
D14*
%TO.C,J3*%
X97610000Y-145090000D03*
D15*
X97610000Y-137890000D03*
%TD*%
D16*
%TO.C,J2*%
X86120000Y-100380000D03*
D17*
X86120000Y-102920000D03*
X86120000Y-105460000D03*
%TD*%
D14*
%TO.C,J1*%
X144130000Y-144730000D03*
D15*
X144130000Y-137530000D03*
%TD*%
D18*
%TO.C,C13*%
X134320000Y-138920000D03*
D19*
X131820000Y-138920000D03*
%TD*%
D20*
%TO.C,C12*%
X160340000Y-123262651D03*
D19*
X160340000Y-119762651D03*
%TD*%
%TO.C,C11*%
X173670000Y-135770000D03*
X173670000Y-130770000D03*
%TD*%
D20*
%TO.C,C10*%
X169900000Y-118480000D03*
D19*
X169900000Y-115980000D03*
%TD*%
%TO.C,C9*%
X173890000Y-127680000D03*
X173890000Y-122680000D03*
%TD*%
D21*
%TO.C,C8*%
X122564888Y-138330000D03*
D19*
X125064888Y-138330000D03*
%TD*%
%TO.C,C7*%
X130060000Y-131430000D03*
X135060000Y-131430000D03*
%TD*%
D22*
%TO.C,C6*%
X103060000Y-96810000D03*
D23*
X105060000Y-96810000D03*
%TD*%
D19*
%TO.C,C5*%
X93720000Y-95770000D03*
X98720000Y-95770000D03*
%TD*%
D24*
%TO.C,C4*%
X165860000Y-100350000D03*
D19*
X165860000Y-102850000D03*
%TD*%
%TO.C,C3*%
X172590000Y-96810000D03*
X172590000Y-101810000D03*
%TD*%
D21*
%TO.C,C2*%
X133980000Y-79530000D03*
D19*
X136480000Y-79530000D03*
%TD*%
%TO.C,C1*%
X124120000Y-80610000D03*
X129120000Y-80610000D03*
%TD*%
M02*
