%TF.GenerationSoftware,KiCad,Pcbnew,9.0.4*%
%TF.CreationDate,2026-02-07T12:31:06-05:00*%
%TF.ProjectId,XDF-001,5844462d-3030-4312-9e6b-696361645f70,rev?*%
%TF.SameCoordinates,Original*%
%TF.FileFunction,Copper,L1,Top*%
%TF.FilePolarity,Positive*%
%FSLAX46Y46*%
G04 Gerber Fmt 4.6, Leading zero omitted, Abs format (unit mm)*
G04 Created by KiCad (PCBNEW 9.0.4) date 2026-02-07 12:31:06*
%MOMM*%
%LPD*%
G01*
G04 APERTURE LIST*
G04 Aperture macros list*
%AMRoundRect*
0 Rectangle with rounded corners*
0 $1 Rounding radius*
0 $2 $3 $4 $5 $6 $7 $8 $9 X,Y pos of 4 corners*
0 Add a 4 corners polygon primitive as box body*
4,1,4,$2,$3,$4,$5,$6,$7,$8,$9,$2,$3,0*
0 Add four circle primitives for the rounded corners*
1,1,$1+$1,$2,$3*
1,1,$1+$1,$4,$5*
1,1,$1+$1,$6,$7*
1,1,$1+$1,$8,$9*
0 Add four rect primitives between the rounded corners*
20,1,$1+$1,$2,$3,$4,$5,0*
20,1,$1+$1,$4,$5,$6,$7,0*
20,1,$1+$1,$6,$7,$8,$9,0*
20,1,$1+$1,$8,$9,$2,$3,0*%
G04 Aperture macros list end*
%TA.AperFunction,ComponentPad*%
%ADD10C,1.500000*%
%TD*%
%TA.AperFunction,ComponentPad*%
%ADD11RoundRect,0.250000X0.350000X0.625000X-0.350000X0.625000X-0.350000X-0.625000X0.350000X-0.625000X0*%
%TD*%
%TA.AperFunction,ComponentPad*%
%ADD12O,1.200000X1.750000*%
%TD*%
%TA.AperFunction,ComponentPad*%
%ADD13RoundRect,1.500000X1.500000X-1.500000X1.500000X1.500000X-1.500000X1.500000X-1.500000X-1.500000X0*%
%TD*%
%TA.AperFunction,ComponentPad*%
%ADD14C,6.000000*%
%TD*%
%TA.AperFunction,ComponentPad*%
%ADD15R,1.700000X1.700000*%
%TD*%
%TA.AperFunction,ComponentPad*%
%ADD16C,1.700000*%
%TD*%
%TA.AperFunction,ComponentPad*%
%ADD17RoundRect,0.250000X0.550000X0.550000X-0.550000X0.550000X-0.550000X-0.550000X0.550000X-0.550000X0*%
%TD*%
%TA.AperFunction,ComponentPad*%
%ADD18C,1.600000*%
%TD*%
%TA.AperFunction,ComponentPad*%
%ADD19RoundRect,0.250000X0.550000X-0.550000X0.550000X0.550000X-0.550000X0.550000X-0.550000X-0.550000X0*%
%TD*%
%TA.AperFunction,ComponentPad*%
%ADD20RoundRect,0.250000X-0.550000X-0.550000X0.550000X-0.550000X0.550000X0.550000X-0.550000X0.550000X0*%
%TD*%
%TA.AperFunction,ComponentPad*%
%ADD21RoundRect,0.250000X-0.350000X-0.350000X0.350000X-0.350000X0.350000X0.350000X-0.350000X0.350000X0*%
%TD*%
%TA.AperFunction,ComponentPad*%
%ADD22C,1.200000*%
%TD*%
%TA.AperFunction,ComponentPad*%
%ADD23RoundRect,0.250000X-0.550000X0.550000X-0.550000X-0.550000X0.550000X-0.550000X0.550000X0.550000X0*%
%TD*%
%TA.AperFunction,Conductor*%
%ADD24C,0.250000*%
%TD*%
%TA.AperFunction,Conductor*%
%ADD25C,1.000000*%
%TD*%
G04 APERTURE END LIST*
D10*
%TO.P,MP1548EN2,1,IN-*%
%TO.N,GND*%
X153846000Y-147441000D03*
%TO.P,MP1548EN2,2,IN-*%
X156386000Y-147441000D03*
%TO.P,MP1548EN2,3,IN+*%
%TO.N,+5V*%
X164514000Y-147441000D03*
%TO.P,MP1548EN2,4,IN+*%
X167054000Y-147441000D03*
%TO.P,MP1548EN2,5,OUT-*%
%TO.N,unconnected-(MP1548EN2-OUT--Pad5)*%
X153846000Y-128899000D03*
%TO.P,MP1548EN2,6,OUT-*%
%TO.N,GND*%
X156386000Y-128899000D03*
%TO.P,MP1548EN2,7,OUT+*%
%TO.N,unconnected-(MP1548EN2-OUT+-Pad7)*%
X164514000Y-128899000D03*
%TO.P,MP1548EN2,8,OUT+*%
%TO.N,+3.3V*%
X167054000Y-128899000D03*
%TD*%
%TO.P,U6,1,3V3*%
%TO.N,unconnected-(U6-3V3-Pad1)*%
X93310000Y-127520000D03*
%TO.P,U6,2,GND3*%
%TO.N,unconnected-(U6-GND3-Pad2)*%
X93310000Y-102120000D03*
%TO.P,U6,3,EN*%
%TO.N,unconnected-(U6-EN-Pad3)*%
X95850000Y-127520000D03*
%TO.P,U6,4,IO23*%
%TO.N,/MOSI*%
X95850000Y-102120000D03*
%TO.P,U6,5,SENSOR_VP*%
%TO.N,unconnected-(U6-SENSOR_VP-Pad5)*%
X98390000Y-127520000D03*
%TO.P,U6,6,IO22*%
%TO.N,/SCL_MPU*%
X98390000Y-102120000D03*
%TO.P,U6,7,SENSOR_VN*%
%TO.N,unconnected-(U6-SENSOR_VN-Pad7)*%
X100930000Y-127520000D03*
%TO.P,U6,8,TXD0*%
%TO.N,unconnected-(U6-TXD0-Pad8)*%
X100930000Y-102120000D03*
%TO.P,U6,9,IO34*%
%TO.N,unconnected-(U6-IO34-Pad9)*%
X103470000Y-127520000D03*
%TO.P,U6,10,RXD0*%
%TO.N,unconnected-(U6-RXD0-Pad10)*%
X103470000Y-102120000D03*
%TO.P,U6,11,IO35*%
%TO.N,unconnected-(U6-IO35-Pad11)*%
X106010000Y-127520000D03*
%TO.P,U6,12,IO21*%
%TO.N,/SDA_MPU*%
X106010000Y-102120000D03*
%TO.P,U6,13,IO32*%
%TO.N,/SDA_PCA*%
X108550000Y-127520000D03*
%TO.P,U6,14,GND2*%
%TO.N,unconnected-(U6-GND2-Pad14)*%
X108550000Y-102120000D03*
%TO.P,U6,15,IO33*%
%TO.N,unconnected-(U6-IO33-Pad15)*%
X111090000Y-127520000D03*
%TO.P,U6,16,IO19*%
%TO.N,/MISO*%
X111090000Y-102120000D03*
%TO.P,U6,17,IO25*%
%TO.N,unconnected-(U6-IO25-Pad17)*%
X113630000Y-127520000D03*
%TO.P,U6,18,IO18*%
%TO.N,/SCK*%
X113630000Y-102120000D03*
%TO.P,U6,19,IO26*%
%TO.N,/IRQ*%
X116170000Y-127520000D03*
%TO.P,U6,20,IO5*%
%TO.N,/CE*%
X116170000Y-102120000D03*
%TO.P,U6,21,IO27*%
%TO.N,/SCL_PCA*%
X118710000Y-127520000D03*
%TO.P,U6,22,IO17*%
%TO.N,/RX*%
X118710000Y-102120000D03*
%TO.P,U6,23,IO14*%
%TO.N,/MOTOR_SIGNAL*%
X121250000Y-127520000D03*
%TO.P,U6,24,IO16*%
%TO.N,/TX*%
X121250000Y-102120000D03*
%TO.P,U6,25,IO12*%
%TO.N,unconnected-(U6-IO12-Pad25)*%
X123790000Y-127520000D03*
%TO.P,U6,26,IO4*%
%TO.N,/CSN*%
X123790000Y-102120000D03*
%TO.P,U6,27,GND1*%
%TO.N,GND*%
X126330000Y-127520000D03*
%TO.P,U6,28,IO0*%
%TO.N,unconnected-(U6-IO0-Pad28)*%
X126330000Y-102120000D03*
%TO.P,U6,29,IO13*%
%TO.N,unconnected-(U6-IO13-Pad29)*%
X128870000Y-127520000D03*
%TO.P,U6,30,IO2*%
%TO.N,unconnected-(U6-IO2-Pad30)*%
X128870000Y-102120000D03*
%TO.P,U6,31,SD2*%
%TO.N,unconnected-(U6-SD2-Pad31)*%
X131410000Y-127520000D03*
%TO.P,U6,32,IO15*%
%TO.N,unconnected-(U6-IO15-Pad32)*%
X131410000Y-102120000D03*
%TO.P,U6,33,SD3*%
%TO.N,unconnected-(U6-SD3-Pad33)*%
X133950000Y-127520000D03*
%TO.P,U6,34,SD1*%
%TO.N,unconnected-(U6-SD1-Pad34)*%
X133950000Y-102120000D03*
%TO.P,U6,35,CMD*%
%TO.N,unconnected-(U6-CMD-Pad35)*%
X136490000Y-127520000D03*
%TO.P,U6,36,SD0*%
%TO.N,unconnected-(U6-SD0-Pad36)*%
X136490000Y-102120000D03*
%TO.P,U6,37,EXT_5V*%
%TO.N,+5V*%
X139030000Y-127520000D03*
%TO.P,U6,38,CLK*%
%TO.N,unconnected-(U6-CLK-Pad38)*%
X139030000Y-102120000D03*
%TD*%
%TO.P,U9,1,VCC*%
%TO.N,+3.3V*%
X179080000Y-95400000D03*
%TO.P,U9,2,RXD1*%
%TO.N,/RX*%
X179080000Y-97940000D03*
%TO.P,U9,3,TXD1*%
%TO.N,/TX*%
X179080000Y-100480000D03*
%TO.P,U9,4,GND*%
%TO.N,GND*%
X179080000Y-103020000D03*
%TD*%
%TO.P,U8,1,GND*%
%TO.N,GND*%
X178750000Y-120130000D03*
%TO.P,U8,2,~{OE}*%
X178750000Y-122670000D03*
%TO.P,U8,3,SCL*%
%TO.N,/SCL_PCA*%
X178750000Y-125210000D03*
%TO.P,U8,4,SDA*%
%TO.N,/SDA_PCA*%
X178750000Y-127750000D03*
%TO.P,U8,5,VCC*%
%TO.N,+3.3V*%
X178750000Y-130290000D03*
%TO.P,U8,6,V+*%
%TO.N,+5V*%
X178750000Y-132830000D03*
%TD*%
%TO.P,U10,1,VDD*%
%TO.N,+3.3V*%
X95405000Y-90650000D03*
%TO.P,U10,2,GND*%
%TO.N,GND*%
X97945000Y-90650000D03*
%TO.P,U10,3,SCL/SCLK*%
%TO.N,/SCL_MPU*%
X100485000Y-90650000D03*
%TO.P,U10,4,SDA/SDI*%
%TO.N,/SDA_MPU*%
X103025000Y-90650000D03*
%TO.P,U10,5,AUX_CL*%
%TO.N,unconnected-(U10-AUX_CL-Pad5)*%
X105565000Y-90650000D03*
%TO.P,U10,6,AUX_DA*%
%TO.N,unconnected-(U10-AUX_DA-Pad6)*%
X108105000Y-90650000D03*
%TO.P,U10,7,AD0/SDO*%
%TO.N,unconnected-(U10-AD0{slash}SDO-Pad7)*%
X110645000Y-90650000D03*
%TO.P,U10,8,INT*%
%TO.N,unconnected-(U10-INT-Pad8)*%
X113185000Y-90650000D03*
%TO.P,U10,9,NC*%
%TO.N,unconnected-(U10-NC-Pad9)*%
X115725000Y-90650000D03*
%TO.P,U10,10,FSYNC*%
%TO.N,unconnected-(U10-FSYNC-Pad10)*%
X118265000Y-90650000D03*
%TD*%
%TO.P,U7,1,VCC*%
%TO.N,+3.3V*%
X125355000Y-86410000D03*
%TO.P,U7,2,GND*%
%TO.N,GND*%
X127895000Y-86410000D03*
%TO.P,U7,3,CSN*%
%TO.N,/CSN*%
X125355000Y-88950000D03*
%TO.P,U7,4,CE*%
%TO.N,/CE*%
X127895000Y-88950000D03*
%TO.P,U7,5,MOSI*%
%TO.N,/MOSI*%
X125355000Y-91490000D03*
%TO.P,U7,6,SCK*%
%TO.N,/SCK*%
X127895000Y-91490000D03*
%TO.P,U7,7,~{IRQ}*%
%TO.N,/IRQ*%
X125355000Y-94030000D03*
%TO.P,U7,8,MISO*%
%TO.N,/MISO*%
X127895000Y-94030000D03*
%TD*%
D11*
%TO.P,J4,1,Pin_1*%
%TO.N,+8V*%
X130975000Y-148600000D03*
D12*
%TO.P,J4,2,Pin_2*%
%TO.N,GND2*%
X128975000Y-148600000D03*
%TD*%
D13*
%TO.P,J3,1,Pin_1*%
%TO.N,+8V*%
X97610000Y-145090000D03*
D14*
%TO.P,J3,2,Pin_2*%
%TO.N,GND2*%
X97610000Y-137890000D03*
%TD*%
D15*
%TO.P,J2,1,Pin_1*%
%TO.N,+5V*%
X86120000Y-100380000D03*
D16*
%TO.P,J2,2,Pin_2*%
%TO.N,/MOTOR_SIGNAL*%
X86120000Y-102920000D03*
%TO.P,J2,3,Pin_3*%
%TO.N,GND*%
X86120000Y-105460000D03*
%TD*%
D13*
%TO.P,J1,1,Pin_1*%
%TO.N,+8V*%
X144130000Y-144730000D03*
D14*
%TO.P,J1,2,Pin_2*%
%TO.N,GND2*%
X144130000Y-137530000D03*
%TD*%
D17*
%TO.P,C13,1*%
%TO.N,+5V*%
X134320000Y-138920000D03*
D18*
%TO.P,C13,2*%
%TO.N,GND*%
X131820000Y-138920000D03*
%TD*%
D19*
%TO.P,C12,1*%
%TO.N,+5V*%
X160340000Y-123262651D03*
D18*
%TO.P,C12,2*%
%TO.N,GND*%
X160340000Y-119762651D03*
%TD*%
%TO.P,C11,1*%
%TO.N,+5V*%
X173670000Y-135770000D03*
%TO.P,C11,2*%
%TO.N,GND*%
X173670000Y-130770000D03*
%TD*%
D19*
%TO.P,C10,1*%
%TO.N,+3.3V*%
X169900000Y-118480000D03*
D18*
%TO.P,C10,2*%
%TO.N,GND*%
X169900000Y-115980000D03*
%TD*%
%TO.P,C9,1*%
%TO.N,+3.3V*%
X173890000Y-127680000D03*
%TO.P,C9,2*%
%TO.N,GND*%
X173890000Y-122680000D03*
%TD*%
D20*
%TO.P,C8,1*%
%TO.N,+5V*%
X122564888Y-138330000D03*
D18*
%TO.P,C8,2*%
%TO.N,GND*%
X125064888Y-138330000D03*
%TD*%
%TO.P,C7,1*%
%TO.N,GND*%
X130060000Y-131430000D03*
%TO.P,C7,2*%
%TO.N,+5V*%
X135060000Y-131430000D03*
%TD*%
D21*
%TO.P,C6,1*%
%TO.N,+3.3V*%
X103060000Y-96810000D03*
D22*
%TO.P,C6,2*%
%TO.N,GND*%
X105060000Y-96810000D03*
%TD*%
D18*
%TO.P,C5,1*%
%TO.N,+3.3V*%
X93720000Y-95770000D03*
%TO.P,C5,2*%
%TO.N,GND*%
X98720000Y-95770000D03*
%TD*%
D23*
%TO.P,C4,1*%
%TO.N,+3.3V*%
X165860000Y-100350000D03*
D18*
%TO.P,C4,2*%
%TO.N,GND*%
X165860000Y-102850000D03*
%TD*%
%TO.P,C3,1*%
%TO.N,+3.3V*%
X172590000Y-96810000D03*
%TO.P,C3,2*%
%TO.N,GND*%
X172590000Y-101810000D03*
%TD*%
D20*
%TO.P,C2,1*%
%TO.N,+3.3V*%
X133980000Y-79530000D03*
D18*
%TO.P,C2,2*%
%TO.N,GND*%
X136480000Y-79530000D03*
%TD*%
%TO.P,C1,1*%
%TO.N,+3.3V*%
X124120000Y-80610000D03*
%TO.P,C1,2*%
%TO.N,GND*%
X129120000Y-80610000D03*
%TD*%
D24*
%TO.N,/IRQ*%
X112554000Y-123904000D02*
X116170000Y-127520000D01*
X112554000Y-101674306D02*
X112554000Y-123904000D01*
X120198306Y-94030000D02*
X112554000Y-101674306D01*
X125355000Y-94030000D02*
X120198306Y-94030000D01*
%TO.N,/CSN*%
X129873000Y-96037000D02*
X123790000Y-102120000D01*
X129873000Y-89406306D02*
X129873000Y-96037000D01*
X128340694Y-87874000D02*
X129873000Y-89406306D01*
X125355000Y-88950000D02*
X126431000Y-87874000D01*
X126431000Y-87874000D02*
X128340694Y-87874000D01*
%TO.N,/CE*%
X120660000Y-96410000D02*
X116170000Y-100900000D01*
X116170000Y-100900000D02*
X116170000Y-102120000D01*
X129422000Y-94668000D02*
X127680000Y-96410000D01*
X129422000Y-90477000D02*
X129422000Y-94668000D01*
X127895000Y-88950000D02*
X129422000Y-90477000D01*
X127680000Y-96410000D02*
X120660000Y-96410000D01*
%TO.N,/SCK*%
X120310000Y-95440000D02*
X113630000Y-102120000D01*
X128971000Y-94475694D02*
X128006694Y-95440000D01*
X128971000Y-92566000D02*
X128971000Y-94475694D01*
X128006694Y-95440000D02*
X120310000Y-95440000D01*
X127895000Y-91490000D02*
X128971000Y-92566000D01*
%TO.N,/MISO*%
X120260000Y-92950000D02*
X126815000Y-92950000D01*
X126815000Y-92950000D02*
X127895000Y-94030000D01*
X111090000Y-102120000D02*
X120260000Y-92950000D01*
%TO.N,/MOSI*%
X114040000Y-97800000D02*
X120350000Y-91490000D01*
X120350000Y-91490000D02*
X125355000Y-91490000D01*
X100170000Y-97800000D02*
X114040000Y-97800000D01*
X95850000Y-102120000D02*
X100170000Y-97800000D01*
D25*
%TO.N,+3.3V*%
X98351000Y-92101000D02*
X103060000Y-96810000D01*
X95405000Y-90650000D02*
X96856000Y-92101000D01*
X96856000Y-92101000D02*
X98351000Y-92101000D01*
X93720000Y-92335000D02*
X95405000Y-90650000D01*
X93720000Y-95770000D02*
X93720000Y-92335000D01*
X99645000Y-86410000D02*
X95405000Y-90650000D01*
X125355000Y-86410000D02*
X99645000Y-86410000D01*
X133980000Y-79870000D02*
X131320000Y-82530000D01*
X131320000Y-82530000D02*
X129235000Y-82530000D01*
X133980000Y-79530000D02*
X133980000Y-79870000D01*
X126040000Y-82530000D02*
X129235000Y-82530000D01*
X124120000Y-80610000D02*
X126040000Y-82530000D01*
X129235000Y-82530000D02*
X125355000Y-86410000D01*
X179080000Y-92390000D02*
X169220000Y-82530000D01*
X169220000Y-82530000D02*
X131320000Y-82530000D01*
X179080000Y-95400000D02*
X179080000Y-92390000D01*
X177670000Y-96810000D02*
X179080000Y-95400000D01*
X172590000Y-96810000D02*
X177670000Y-96810000D01*
X169050000Y-100350000D02*
X172590000Y-96810000D01*
X165860000Y-100350000D02*
X169050000Y-100350000D01*
X180531000Y-107849000D02*
X169900000Y-118480000D01*
X180531000Y-96851000D02*
X180531000Y-107849000D01*
X179080000Y-95400000D02*
X180531000Y-96851000D01*
X167054000Y-126536000D02*
X169900000Y-123690000D01*
X167054000Y-128899000D02*
X167054000Y-126536000D01*
X173890000Y-127680000D02*
X169900000Y-123690000D01*
X169900000Y-123690000D02*
X169900000Y-118480000D01*
X176500000Y-130290000D02*
X173890000Y-127680000D01*
X178750000Y-130290000D02*
X176500000Y-130290000D01*
%TO.N,+5V*%
X160340000Y-123262651D02*
X160340000Y-128900000D01*
X160340000Y-128900000D02*
X171510000Y-140070000D01*
X171510000Y-140070000D02*
X174465000Y-137115000D01*
X173670000Y-136320000D02*
X174465000Y-137115000D01*
X173670000Y-135770000D02*
X173670000Y-136320000D01*
X168036500Y-143543500D02*
X171510000Y-140070000D01*
X174465000Y-137115000D02*
X178750000Y-132830000D01*
X160616500Y-143543500D02*
X164514000Y-147441000D01*
X160616500Y-143543500D02*
X168036500Y-143543500D01*
X164514000Y-147441000D02*
X167054000Y-147441000D01*
X150902000Y-133829000D02*
X160616500Y-143543500D01*
X139411000Y-133829000D02*
X150902000Y-133829000D01*
X134320000Y-138920000D02*
X139411000Y-133829000D01*
X134320000Y-134870000D02*
X133000000Y-133550000D01*
X134320000Y-138920000D02*
X134320000Y-134870000D01*
X122564888Y-137125112D02*
X126140000Y-133550000D01*
X122564888Y-138330000D02*
X122564888Y-137125112D01*
X126140000Y-133550000D02*
X133000000Y-133550000D01*
X84401000Y-125380000D02*
X92571000Y-133550000D01*
X92571000Y-133550000D02*
X126140000Y-133550000D01*
X133000000Y-133550000D02*
X139030000Y-127520000D01*
X84401000Y-102099000D02*
X84401000Y-125380000D01*
X86120000Y-100380000D02*
X84401000Y-102099000D01*
%TO.N,+8V*%
X128310000Y-144730000D02*
X144130000Y-144730000D01*
X127579892Y-145090000D02*
X127950000Y-145090000D01*
X127950000Y-145090000D02*
X128310000Y-144730000D01*
X130975000Y-148485108D02*
X130975000Y-148600000D01*
X127579892Y-145090000D02*
X130975000Y-148485108D01*
X97610000Y-145090000D02*
X127579892Y-145090000D01*
%TD*%
M02*
