%TF.GenerationSoftware,KiCad,Pcbnew,9.0.4*%
%TF.CreationDate,2026-01-27T15:26:10-05:00*%
%TF.ProjectId,XDF-001,5844462d-3030-4312-9e6b-696361645f70,rev?*%
%TF.SameCoordinates,Original*%
%TF.FileFunction,Copper,L2,Bot*%
%TF.FilePolarity,Positive*%
%FSLAX46Y46*%
G04 Gerber Fmt 4.6, Leading zero omitted, Abs format (unit mm)*
G04 Created by KiCad (PCBNEW 9.0.4) date 2026-01-27 15:26:10*
%MOMM*%
%LPD*%
G01*
G04 APERTURE LIST*
G04 Aperture macros list*
%AMRoundRect*
0 Rectangle with rounded corners*
0 $1 Rounding radius*
0 $2 $3 $4 $5 $6 $7 $8 $9 X,Y pos of 4 corners*
0 Add a 4 corners polygon primitive as box body*
4,1,4,$2,$3,$4,$5,$6,$7,$8,$9,$2,$3,0*
0 Add four circle primitives for the rounded corners*
1,1,$1+$1,$2,$3*
1,1,$1+$1,$4,$5*
1,1,$1+$1,$6,$7*
1,1,$1+$1,$8,$9*
0 Add four rect primitives between the rounded corners*
20,1,$1+$1,$2,$3,$4,$5,0*
20,1,$1+$1,$4,$5,$6,$7,0*
20,1,$1+$1,$6,$7,$8,$9,0*
20,1,$1+$1,$8,$9,$2,$3,0*%
G04 Aperture macros list end*
%TA.AperFunction,ComponentPad*%
%ADD10C,1.500000*%
%TD*%
%TA.AperFunction,ComponentPad*%
%ADD11R,1.700000X1.700000*%
%TD*%
%TA.AperFunction,ComponentPad*%
%ADD12C,1.700000*%
%TD*%
%TA.AperFunction,ComponentPad*%
%ADD13RoundRect,0.250000X-0.350000X-0.625000X0.350000X-0.625000X0.350000X0.625000X-0.350000X0.625000X0*%
%TD*%
%TA.AperFunction,ComponentPad*%
%ADD14O,1.200000X1.750000*%
%TD*%
%TA.AperFunction,ComponentPad*%
%ADD15RoundRect,1.500000X-1.500000X1.500000X-1.500000X-1.500000X1.500000X-1.500000X1.500000X1.500000X0*%
%TD*%
%TA.AperFunction,ComponentPad*%
%ADD16C,6.000000*%
%TD*%
%TA.AperFunction,ComponentPad*%
%ADD17RoundRect,0.250000X-0.550000X-0.550000X0.550000X-0.550000X0.550000X0.550000X-0.550000X0.550000X0*%
%TD*%
%TA.AperFunction,ComponentPad*%
%ADD18C,1.600000*%
%TD*%
%TA.AperFunction,ComponentPad*%
%ADD19RoundRect,0.250000X-0.550000X0.550000X-0.550000X-0.550000X0.550000X-0.550000X0.550000X0.550000X0*%
%TD*%
%TA.AperFunction,ComponentPad*%
%ADD20RoundRect,0.250000X0.550000X-0.550000X0.550000X0.550000X-0.550000X0.550000X-0.550000X-0.550000X0*%
%TD*%
%TA.AperFunction,ComponentPad*%
%ADD21RoundRect,0.250000X-0.350000X-0.350000X0.350000X-0.350000X0.350000X0.350000X-0.350000X0.350000X0*%
%TD*%
%TA.AperFunction,ComponentPad*%
%ADD22C,1.200000*%
%TD*%
%TA.AperFunction,Conductor*%
%ADD23C,0.250000*%
%TD*%
%TA.AperFunction,Conductor*%
%ADD24C,1.000000*%
%TD*%
G04 APERTURE END LIST*
D10*
%TO.P,U10,1,VDD*%
%TO.N,+3.3V*%
X194740000Y-77200000D03*
%TO.P,U10,2,GND*%
%TO.N,GND*%
X197280000Y-77200000D03*
%TO.P,U10,3,SCL/SCLK*%
%TO.N,/SCL_MPU*%
X199820000Y-77200000D03*
%TO.P,U10,4,SDA/SDI*%
%TO.N,/SDA_MPU*%
X202360000Y-77200000D03*
%TO.P,U10,5,AUX_CL*%
%TO.N,unconnected-(U10-AUX_CL-Pad5)*%
X204900000Y-77200000D03*
%TO.P,U10,6,AUX_DA*%
%TO.N,unconnected-(U10-AUX_DA-Pad6)*%
X207440000Y-77200000D03*
%TO.P,U10,7,AD0/SDO*%
%TO.N,unconnected-(U10-AD0{slash}SDO-Pad7)*%
X209980000Y-77200000D03*
%TO.P,U10,8,INT*%
%TO.N,unconnected-(U10-INT-Pad8)*%
X212520000Y-77200000D03*
%TO.P,U10,9,NC*%
%TO.N,unconnected-(U10-NC-Pad9)*%
X215060000Y-77200000D03*
%TO.P,U10,10,FSYNC*%
%TO.N,unconnected-(U10-FSYNC-Pad10)*%
X217600000Y-77200000D03*
%TD*%
%TO.P,U9,1,VCC*%
%TO.N,+3.3V*%
X158985000Y-73155000D03*
%TO.P,U9,2,RXD1*%
%TO.N,/RX*%
X158985000Y-75695000D03*
%TO.P,U9,3,TXD1*%
%TO.N,/TX*%
X158985000Y-78235000D03*
%TO.P,U9,4,GND*%
%TO.N,GND*%
X158985000Y-80775000D03*
%TD*%
D11*
%TO.P,U8,1,GND*%
%TO.N,GND*%
X234000000Y-110900000D03*
D12*
%TO.P,U8,2,~{OE}*%
X234000000Y-113440000D03*
%TO.P,U8,3,SCL*%
%TO.N,/SCL_PCA*%
X234000000Y-115980000D03*
%TO.P,U8,4,SDA*%
%TO.N,/SDA_PCA*%
X234000000Y-118520000D03*
%TO.P,U8,5,VCC*%
%TO.N,+3.3V*%
X234000000Y-121060000D03*
%TO.P,U8,6,V+*%
%TO.N,+5V*%
X234000000Y-123600000D03*
%TD*%
D10*
%TO.P,U7,1,VCC*%
%TO.N,+3.3V*%
X204240000Y-92930000D03*
%TO.P,U7,2,GND*%
%TO.N,GND*%
X211840000Y-92930000D03*
%TO.P,U7,3,CSN*%
%TO.N,/CSN*%
X204240000Y-95470000D03*
%TO.P,U7,4,CE*%
%TO.N,/CE*%
X211840000Y-95470000D03*
%TO.P,U7,5,MOSI*%
%TO.N,/MOSI*%
X204240000Y-98010000D03*
%TO.P,U7,6,SCK*%
%TO.N,/SCK*%
X211840000Y-98010000D03*
%TO.P,U7,7,~{IRQ}*%
%TO.N,/IRQ*%
X204240000Y-100550000D03*
%TO.P,U7,8,MISO*%
%TO.N,/MISO*%
X211840000Y-100550000D03*
%TD*%
%TO.P,U6,1,3V3*%
%TO.N,unconnected-(U6-3V3-Pad1)*%
X147995000Y-122655000D03*
%TO.P,U6,2,GND3*%
%TO.N,unconnected-(U6-GND3-Pad2)*%
X147995000Y-97255000D03*
%TO.P,U6,3,EN*%
%TO.N,unconnected-(U6-EN-Pad3)*%
X150535000Y-122655000D03*
%TO.P,U6,4,IO23*%
%TO.N,/MOSI*%
X150535000Y-97255000D03*
%TO.P,U6,5,SENSOR_VP*%
%TO.N,unconnected-(U6-SENSOR_VP-Pad5)*%
X153075000Y-122655000D03*
%TO.P,U6,6,IO22*%
%TO.N,/SCL_MPU*%
X153075000Y-97255000D03*
%TO.P,U6,7,SENSOR_VN*%
%TO.N,unconnected-(U6-SENSOR_VN-Pad7)*%
X155615000Y-122655000D03*
%TO.P,U6,8,TXD0*%
%TO.N,unconnected-(U6-TXD0-Pad8)*%
X155615000Y-97255000D03*
%TO.P,U6,9,IO34*%
%TO.N,unconnected-(U6-IO34-Pad9)*%
X158155000Y-122655000D03*
%TO.P,U6,10,RXD0*%
%TO.N,unconnected-(U6-RXD0-Pad10)*%
X158155000Y-97255000D03*
%TO.P,U6,11,IO35*%
%TO.N,unconnected-(U6-IO35-Pad11)*%
X160695000Y-122655000D03*
%TO.P,U6,12,IO21*%
%TO.N,/SDA_MPU*%
X160695000Y-97255000D03*
%TO.P,U6,13,IO32*%
%TO.N,/SDA_PCA*%
X163235000Y-122655000D03*
%TO.P,U6,14,GND2*%
%TO.N,unconnected-(U6-GND2-Pad14)*%
X163235000Y-97255000D03*
%TO.P,U6,15,IO33*%
%TO.N,unconnected-(U6-IO33-Pad15)*%
X165775000Y-122655000D03*
%TO.P,U6,16,IO19*%
%TO.N,/MISO*%
X165775000Y-97255000D03*
%TO.P,U6,17,IO25*%
%TO.N,unconnected-(U6-IO25-Pad17)*%
X168315000Y-122655000D03*
%TO.P,U6,18,IO18*%
%TO.N,/SCK*%
X168315000Y-97255000D03*
%TO.P,U6,19,IO26*%
%TO.N,/IRQ*%
X170855000Y-122655000D03*
%TO.P,U6,20,IO5*%
%TO.N,/CE*%
X170855000Y-97255000D03*
%TO.P,U6,21,IO27*%
%TO.N,/SCL_PCA*%
X173395000Y-122655000D03*
%TO.P,U6,22,IO17*%
%TO.N,/RX*%
X173395000Y-97255000D03*
%TO.P,U6,23,IO14*%
%TO.N,/MOTOR_SIGNAL*%
X175935000Y-122655000D03*
%TO.P,U6,24,IO16*%
%TO.N,/TX*%
X175935000Y-97255000D03*
%TO.P,U6,25,IO12*%
%TO.N,unconnected-(U6-IO12-Pad25)*%
X178475000Y-122655000D03*
%TO.P,U6,26,IO4*%
%TO.N,/CSN*%
X178475000Y-97255000D03*
%TO.P,U6,27,GND1*%
%TO.N,GND*%
X181015000Y-122655000D03*
%TO.P,U6,28,IO0*%
%TO.N,unconnected-(U6-IO0-Pad28)*%
X181015000Y-97255000D03*
%TO.P,U6,29,IO13*%
%TO.N,unconnected-(U6-IO13-Pad29)*%
X183555000Y-122655000D03*
%TO.P,U6,30,IO2*%
%TO.N,unconnected-(U6-IO2-Pad30)*%
X183555000Y-97255000D03*
%TO.P,U6,31,SD2*%
%TO.N,unconnected-(U6-SD2-Pad31)*%
X186095000Y-122655000D03*
%TO.P,U6,32,IO15*%
%TO.N,unconnected-(U6-IO15-Pad32)*%
X186095000Y-97255000D03*
%TO.P,U6,33,SD3*%
%TO.N,unconnected-(U6-SD3-Pad33)*%
X188635000Y-122655000D03*
%TO.P,U6,34,SD1*%
%TO.N,unconnected-(U6-SD1-Pad34)*%
X188635000Y-97255000D03*
%TO.P,U6,35,CMD*%
%TO.N,unconnected-(U6-CMD-Pad35)*%
X191175000Y-122655000D03*
%TO.P,U6,36,SD0*%
%TO.N,unconnected-(U6-SD0-Pad36)*%
X191175000Y-97255000D03*
%TO.P,U6,37,EXT_5V*%
%TO.N,+5V*%
X193715000Y-122655000D03*
%TO.P,U6,38,CLK*%
%TO.N,unconnected-(U6-CLK-Pad38)*%
X193715000Y-97255000D03*
%TD*%
D11*
%TO.P,MP1548EN2,1,IN-*%
%TO.N,GND*%
X202945000Y-108105000D03*
D12*
%TO.P,MP1548EN2,2,IN-*%
X202945000Y-110645000D03*
D11*
%TO.P,MP1548EN2,3,IN+*%
%TO.N,+5V*%
X202895000Y-120255000D03*
D12*
%TO.P,MP1548EN2,4,IN+*%
X202895000Y-122795000D03*
D11*
%TO.P,MP1548EN2,5,OUT-*%
%TO.N,unconnected-(MP1548EN2-OUT--Pad5)*%
X219545000Y-108105000D03*
D12*
%TO.P,MP1548EN2,6,OUT-*%
%TO.N,GND*%
X219545000Y-110645000D03*
D11*
%TO.P,MP1548EN2,7,OUT+*%
%TO.N,unconnected-(MP1548EN2-OUT+-Pad7)*%
X219545000Y-120305000D03*
D12*
%TO.P,MP1548EN2,8,OUT+*%
%TO.N,+3.3V*%
X219545000Y-122845000D03*
%TD*%
D13*
%TO.P,J4,1,Pin_1*%
%TO.N,+8V*%
X222800000Y-67000000D03*
D14*
%TO.P,J4,2,Pin_2*%
%TO.N,GND2*%
X224800000Y-67000000D03*
%TD*%
D15*
%TO.P,J3,1,Pin_1*%
%TO.N,+8V*%
X230800000Y-77200000D03*
D16*
%TO.P,J3,2,Pin_2*%
%TO.N,GND2*%
X230800000Y-84400000D03*
%TD*%
D11*
%TO.P,J2,1,Pin_1*%
%TO.N,+5V*%
X140800000Y-108460000D03*
D12*
%TO.P,J2,2,Pin_2*%
%TO.N,/MOTOR_SIGNAL*%
X140800000Y-111000000D03*
%TO.P,J2,3,Pin_3*%
%TO.N,GND*%
X140800000Y-113540000D03*
%TD*%
D15*
%TO.P,J1,1,Pin_1*%
%TO.N,+8V*%
X141800000Y-79400000D03*
D16*
%TO.P,J1,2,Pin_2*%
%TO.N,GND2*%
X141800000Y-86600000D03*
%TD*%
D17*
%TO.P,C13,1*%
%TO.N,+5V*%
X170500000Y-129200000D03*
D18*
%TO.P,C13,2*%
%TO.N,GND*%
X173000000Y-129200000D03*
%TD*%
D19*
%TO.P,C12,1*%
%TO.N,+5V*%
X222400000Y-127000000D03*
D18*
%TO.P,C12,2*%
%TO.N,GND*%
X222400000Y-130500000D03*
%TD*%
%TO.P,C11,1*%
%TO.N,+5V*%
X229800000Y-123700000D03*
%TO.P,C11,2*%
%TO.N,GND*%
X229800000Y-118700000D03*
%TD*%
D20*
%TO.P,C10,1*%
%TO.N,+3.3V*%
X226000000Y-109405113D03*
D18*
%TO.P,C10,2*%
%TO.N,GND*%
X226000000Y-106905113D03*
%TD*%
%TO.P,C9,1*%
%TO.N,+3.3V*%
X230000000Y-116100000D03*
%TO.P,C9,2*%
%TO.N,GND*%
X230000000Y-111100000D03*
%TD*%
D17*
%TO.P,C8,1*%
%TO.N,+5V*%
X179300000Y-128200000D03*
D18*
%TO.P,C8,2*%
%TO.N,GND*%
X181800000Y-128200000D03*
%TD*%
%TO.P,C7,1*%
%TO.N,GND*%
X185900000Y-126000000D03*
%TO.P,C7,2*%
%TO.N,+5V*%
X190900000Y-126000000D03*
%TD*%
D21*
%TO.P,C6,1*%
%TO.N,+3.3V*%
X203000000Y-82600000D03*
D22*
%TO.P,C6,2*%
%TO.N,GND*%
X205000000Y-82600000D03*
%TD*%
D18*
%TO.P,C5,1*%
%TO.N,+3.3V*%
X194200000Y-82000000D03*
%TO.P,C5,2*%
%TO.N,GND*%
X199200000Y-82000000D03*
%TD*%
D19*
%TO.P,C4,1*%
%TO.N,+3.3V*%
X149600000Y-72194888D03*
D18*
%TO.P,C4,2*%
%TO.N,GND*%
X149600000Y-74694888D03*
%TD*%
%TO.P,C3,1*%
%TO.N,+3.3V*%
X155200000Y-73900000D03*
%TO.P,C3,2*%
%TO.N,GND*%
X155200000Y-78900000D03*
%TD*%
D17*
%TO.P,C2,1*%
%TO.N,+3.3V*%
X215900000Y-86400000D03*
D18*
%TO.P,C2,2*%
%TO.N,GND*%
X218400000Y-86400000D03*
%TD*%
%TO.P,C1,1*%
%TO.N,+3.3V*%
X205800000Y-87600000D03*
%TO.P,C1,2*%
%TO.N,GND*%
X210800000Y-87600000D03*
%TD*%
D23*
%TO.N,/SDA_PCA*%
X226386810Y-124651000D02*
X165231000Y-124651000D01*
X232517810Y-118520000D02*
X226386810Y-124651000D01*
X234000000Y-118520000D02*
X232517810Y-118520000D01*
X165231000Y-124651000D02*
X163235000Y-122655000D01*
%TO.N,/MOTOR_SIGNAL*%
X164280000Y-111000000D02*
X175935000Y-122655000D01*
X140800000Y-111000000D02*
X164280000Y-111000000D01*
%TO.N,/SCL_PCA*%
X174940000Y-124200000D02*
X173395000Y-122655000D01*
X226200000Y-124200000D02*
X174940000Y-124200000D01*
X234000000Y-116400000D02*
X226200000Y-124200000D01*
X234000000Y-115980000D02*
X234000000Y-116400000D01*
%TO.N,/MISO*%
X210764000Y-101626000D02*
X170146000Y-101626000D01*
X170146000Y-101626000D02*
X165775000Y-97255000D01*
X211840000Y-100550000D02*
X210764000Y-101626000D01*
%TO.N,/SCK*%
X210376000Y-99474000D02*
X170534000Y-99474000D01*
X170534000Y-99474000D02*
X168315000Y-97255000D01*
X211840000Y-98010000D02*
X210376000Y-99474000D01*
%TO.N,/CE*%
X202397306Y-98331000D02*
X171931000Y-98331000D01*
X171931000Y-98331000D02*
X170855000Y-97255000D01*
X203794306Y-96934000D02*
X202397306Y-98331000D01*
X205466000Y-96934000D02*
X203794306Y-96934000D01*
X206930000Y-95470000D02*
X205466000Y-96934000D01*
X211840000Y-95470000D02*
X206930000Y-95470000D01*
%TO.N,/MOSI*%
X204240000Y-98010000D02*
X203919000Y-98331000D01*
%TO.N,/SCL_MPU*%
X170181000Y-80149000D02*
X153075000Y-97255000D01*
X196871000Y-80149000D02*
X170181000Y-80149000D01*
X199820000Y-77200000D02*
X196871000Y-80149000D01*
%TO.N,/SDA_MPU*%
X177350000Y-80600000D02*
X160695000Y-97255000D01*
X198960000Y-80600000D02*
X177350000Y-80600000D01*
X202360000Y-77200000D02*
X198960000Y-80600000D01*
D24*
%TO.N,GND2*%
X224800000Y-78400000D02*
X230800000Y-84400000D01*
X224800000Y-67000000D02*
X224800000Y-78400000D01*
X223600000Y-65000000D02*
X224800000Y-66200000D01*
X148000000Y-65000000D02*
X223600000Y-65000000D01*
X145800000Y-67200000D02*
X148000000Y-65000000D01*
X145800000Y-82600000D02*
X145800000Y-67200000D01*
X224800000Y-66200000D02*
X224800000Y-67000000D01*
X141800000Y-86600000D02*
X145800000Y-82600000D01*
%TD*%
%TA.AperFunction,Conductor*%
%TO.N,GND*%
G36*
X146852257Y-64520185D02*
G01*
X146898012Y-64572989D01*
X146907956Y-64642147D01*
X146878931Y-64705703D01*
X146872900Y-64712179D01*
X145162221Y-66422858D01*
X145162218Y-66422861D01*
X145117780Y-66467299D01*
X145022859Y-66562219D01*
X144913371Y-66726080D01*
X144913364Y-66726093D01*
X144867103Y-66837781D01*
X144840729Y-66901454D01*
X144840727Y-66901460D01*
X144837949Y-66908164D01*
X144837946Y-66908175D01*
X144799500Y-67101454D01*
X144799500Y-76275856D01*
X144779815Y-76342895D01*
X144727011Y-76388650D01*
X144657853Y-76398594D01*
X144601190Y-76375123D01*
X144384317Y-76212775D01*
X144384309Y-76212770D01*
X144133166Y-76075635D01*
X144133167Y-76075635D01*
X144025915Y-76035632D01*
X143865046Y-75975631D01*
X143865043Y-75975630D01*
X143865037Y-75975628D01*
X143585433Y-75914804D01*
X143371450Y-75899500D01*
X143371448Y-75899500D01*
X140228552Y-75899500D01*
X140228549Y-75899500D01*
X140014566Y-75914804D01*
X139734962Y-75975628D01*
X139466833Y-76075635D01*
X139215690Y-76212770D01*
X139215682Y-76212775D01*
X138986612Y-76384254D01*
X138986594Y-76384270D01*
X138784270Y-76586594D01*
X138784254Y-76586612D01*
X138612775Y-76815682D01*
X138612770Y-76815690D01*
X138475635Y-77066833D01*
X138375628Y-77334962D01*
X138314804Y-77614566D01*
X138299500Y-77828549D01*
X138299500Y-80971450D01*
X138314804Y-81185433D01*
X138375628Y-81465037D01*
X138375630Y-81465043D01*
X138375631Y-81465046D01*
X138461617Y-81695582D01*
X138475635Y-81733166D01*
X138612770Y-81984309D01*
X138612775Y-81984317D01*
X138784254Y-82213387D01*
X138784270Y-82213405D01*
X138986594Y-82415729D01*
X138986612Y-82415745D01*
X139215682Y-82587224D01*
X139215690Y-82587229D01*
X139466833Y-82724364D01*
X139466832Y-82724364D01*
X139466836Y-82724365D01*
X139466839Y-82724367D01*
X139734954Y-82824369D01*
X139734960Y-82824370D01*
X139734962Y-82824371D01*
X140014566Y-82885195D01*
X140014568Y-82885195D01*
X140014572Y-82885196D01*
X140228552Y-82900500D01*
X141196675Y-82900500D01*
X141263714Y-82920185D01*
X141309469Y-82972989D01*
X141319413Y-83042147D01*
X141290388Y-83105703D01*
X141231610Y-83143477D01*
X141220866Y-83146117D01*
X140948427Y-83200308D01*
X140619293Y-83300150D01*
X140301535Y-83431770D01*
X140301530Y-83431772D01*
X139998224Y-83593893D01*
X139998206Y-83593904D01*
X139712248Y-83784975D01*
X139712234Y-83784985D01*
X139446367Y-84003176D01*
X139203176Y-84246367D01*
X138984985Y-84512234D01*
X138984975Y-84512248D01*
X138793904Y-84798206D01*
X138793893Y-84798224D01*
X138631772Y-85101530D01*
X138631770Y-85101535D01*
X138500150Y-85419293D01*
X138400308Y-85748427D01*
X138333210Y-86085750D01*
X138299500Y-86428034D01*
X138299500Y-86771965D01*
X138333210Y-87114249D01*
X138400308Y-87451572D01*
X138500150Y-87780706D01*
X138631770Y-88098464D01*
X138631772Y-88098469D01*
X138793893Y-88401775D01*
X138793904Y-88401793D01*
X138984975Y-88687751D01*
X138984985Y-88687765D01*
X139203176Y-88953632D01*
X139446367Y-89196823D01*
X139446372Y-89196827D01*
X139446373Y-89196828D01*
X139712240Y-89415019D01*
X139998213Y-89606100D01*
X139998222Y-89606105D01*
X139998224Y-89606106D01*
X140301530Y-89768227D01*
X140301532Y-89768227D01*
X140301538Y-89768231D01*
X140619295Y-89899850D01*
X140948422Y-89999690D01*
X141285750Y-90066789D01*
X141628031Y-90100500D01*
X141628034Y-90100500D01*
X141971966Y-90100500D01*
X141971969Y-90100500D01*
X142314250Y-90066789D01*
X142651578Y-89999690D01*
X142980705Y-89899850D01*
X143298462Y-89768231D01*
X143601787Y-89606100D01*
X143887760Y-89415019D01*
X144153627Y-89196828D01*
X144396828Y-88953627D01*
X144615019Y-88687760D01*
X144806100Y-88401787D01*
X144968231Y-88098462D01*
X145099850Y-87780705D01*
X145199690Y-87451578D01*
X145266789Y-87114250D01*
X145300500Y-86771969D01*
X145300500Y-86428031D01*
X145266789Y-86085750D01*
X145199690Y-85748422D01*
X145099850Y-85419295D01*
X144968231Y-85101538D01*
X144922809Y-85016561D01*
X144908569Y-84948164D01*
X144933568Y-84882920D01*
X144944480Y-84870439D01*
X146577139Y-83237782D01*
X146587825Y-83221789D01*
X146686632Y-83073914D01*
X146762051Y-82891835D01*
X146783460Y-82784205D01*
X146800500Y-82698543D01*
X146800500Y-78797682D01*
X153900000Y-78797682D01*
X153900000Y-79002317D01*
X153932009Y-79204417D01*
X153995244Y-79399031D01*
X154088141Y-79581350D01*
X154088147Y-79581359D01*
X154120523Y-79625921D01*
X154120524Y-79625922D01*
X154800000Y-78946446D01*
X154800000Y-78952661D01*
X154827259Y-79054394D01*
X154879920Y-79145606D01*
X154954394Y-79220080D01*
X155045606Y-79272741D01*
X155147339Y-79300000D01*
X155153553Y-79300000D01*
X154474076Y-79979474D01*
X154518650Y-80011859D01*
X154700968Y-80104755D01*
X154895582Y-80167990D01*
X155097683Y-80200000D01*
X155302317Y-80200000D01*
X155504417Y-80167990D01*
X155699031Y-80104755D01*
X155881349Y-80011859D01*
X155925921Y-79979474D01*
X155246447Y-79300000D01*
X155252661Y-79300000D01*
X155354394Y-79272741D01*
X155445606Y-79220080D01*
X155520080Y-79145606D01*
X155572741Y-79054394D01*
X155600000Y-78952661D01*
X155600000Y-78946447D01*
X156279474Y-79625921D01*
X156311859Y-79581349D01*
X156404755Y-79399031D01*
X156467990Y-79204417D01*
X156500000Y-79002317D01*
X156500000Y-78797682D01*
X156467990Y-78595582D01*
X156404755Y-78400968D01*
X156311859Y-78218650D01*
X156279474Y-78174077D01*
X156279474Y-78174076D01*
X155600000Y-78853551D01*
X155600000Y-78847339D01*
X155572741Y-78745606D01*
X155520080Y-78654394D01*
X155445606Y-78579920D01*
X155354394Y-78527259D01*
X155252661Y-78500000D01*
X155246446Y-78500000D01*
X155925922Y-77820524D01*
X155925921Y-77820523D01*
X155881359Y-77788147D01*
X155881350Y-77788141D01*
X155699031Y-77695244D01*
X155504417Y-77632009D01*
X155302317Y-77600000D01*
X155097683Y-77600000D01*
X154895582Y-77632009D01*
X154700968Y-77695244D01*
X154518644Y-77788143D01*
X154474077Y-77820523D01*
X154474077Y-77820524D01*
X155153554Y-78500000D01*
X155147339Y-78500000D01*
X155045606Y-78527259D01*
X154954394Y-78579920D01*
X154879920Y-78654394D01*
X154827259Y-78745606D01*
X154800000Y-78847339D01*
X154800000Y-78853553D01*
X154120524Y-78174077D01*
X154120523Y-78174077D01*
X154088143Y-78218644D01*
X153995244Y-78400968D01*
X153932009Y-78595582D01*
X153900000Y-78797682D01*
X146800500Y-78797682D01*
X146800500Y-71594871D01*
X148299500Y-71594871D01*
X148299500Y-72794889D01*
X148299501Y-72794906D01*
X148310000Y-72897684D01*
X148310001Y-72897687D01*
X148313428Y-72908028D01*
X148365186Y-73064222D01*
X148457288Y-73213544D01*
X148581344Y-73337600D01*
X148730666Y-73429702D01*
X148792440Y-73450172D01*
X148849884Y-73489943D01*
X148876707Y-73554459D01*
X148877053Y-73577607D01*
X148874077Y-73615412D01*
X149553554Y-74294888D01*
X149547339Y-74294888D01*
X149445606Y-74322147D01*
X149354394Y-74374808D01*
X149279920Y-74449282D01*
X149227259Y-74540494D01*
X149200000Y-74642227D01*
X149200000Y-74648441D01*
X148520524Y-73968965D01*
X148520523Y-73968965D01*
X148488143Y-74013532D01*
X148395244Y-74195856D01*
X148332009Y-74390470D01*
X148300000Y-74592570D01*
X148300000Y-74797205D01*
X148332009Y-74999305D01*
X148395244Y-75193919D01*
X148488141Y-75376238D01*
X148488147Y-75376247D01*
X148520523Y-75420809D01*
X148520524Y-75420810D01*
X149200000Y-74741334D01*
X149200000Y-74747549D01*
X149227259Y-74849282D01*
X149279920Y-74940494D01*
X149354394Y-75014968D01*
X149445606Y-75067629D01*
X149547339Y-75094888D01*
X149553553Y-75094888D01*
X148874076Y-75774362D01*
X148918650Y-75806747D01*
X149100968Y-75899643D01*
X149295582Y-75962878D01*
X149497683Y-75994888D01*
X149702317Y-75994888D01*
X149904417Y-75962878D01*
X150099031Y-75899643D01*
X150281349Y-75806747D01*
X150325921Y-75774362D01*
X149646447Y-75094888D01*
X149652661Y-75094888D01*
X149754394Y-75067629D01*
X149845606Y-75014968D01*
X149920080Y-74940494D01*
X149972741Y-74849282D01*
X150000000Y-74747549D01*
X150000000Y-74741336D01*
X150679474Y-75420810D01*
X150679474Y-75420809D01*
X150711859Y-75376237D01*
X150804755Y-75193919D01*
X150867990Y-74999305D01*
X150900000Y-74797205D01*
X150900000Y-74592570D01*
X150867990Y-74390470D01*
X150804755Y-74195856D01*
X150711859Y-74013538D01*
X150679474Y-73968965D01*
X150679474Y-73968964D01*
X150000000Y-74648439D01*
X150000000Y-74642227D01*
X149972741Y-74540494D01*
X149920080Y-74449282D01*
X149845606Y-74374808D01*
X149754394Y-74322147D01*
X149652661Y-74294888D01*
X149646446Y-74294888D01*
X150143687Y-73797648D01*
X153899500Y-73797648D01*
X153899500Y-74002351D01*
X153931522Y-74204534D01*
X153994781Y-74399223D01*
X154087715Y-74581613D01*
X154208028Y-74747213D01*
X154352786Y-74891971D01*
X154500522Y-74999305D01*
X154518390Y-75012287D01*
X154627005Y-75067629D01*
X154700776Y-75105218D01*
X154700778Y-75105218D01*
X154700781Y-75105220D01*
X154805137Y-75139127D01*
X154895465Y-75168477D01*
X154996557Y-75184488D01*
X155097648Y-75200500D01*
X155097649Y-75200500D01*
X155302351Y-75200500D01*
X155302352Y-75200500D01*
X155504534Y-75168477D01*
X155699219Y-75105220D01*
X155881610Y-75012287D01*
X155980425Y-74940494D01*
X156047213Y-74891971D01*
X156047215Y-74891968D01*
X156047219Y-74891966D01*
X156191966Y-74747219D01*
X156191968Y-74747215D01*
X156191971Y-74747213D01*
X156244732Y-74674590D01*
X156312287Y-74581610D01*
X156405220Y-74399219D01*
X156468477Y-74204534D01*
X156500500Y-74002352D01*
X156500500Y-73797648D01*
X156468477Y-73595466D01*
X156462674Y-73577607D01*
X156405218Y-73400776D01*
X156371503Y-73334607D01*
X156312287Y-73218390D01*
X156302991Y-73205596D01*
X156244145Y-73124599D01*
X156244142Y-73124596D01*
X156194724Y-73056577D01*
X157734500Y-73056577D01*
X157734500Y-73253422D01*
X157765290Y-73447826D01*
X157826117Y-73635029D01*
X157858967Y-73699500D01*
X157915476Y-73810405D01*
X158031172Y-73969646D01*
X158170354Y-74108828D01*
X158329595Y-74224524D01*
X158452992Y-74287397D01*
X158506213Y-74314515D01*
X158557009Y-74362489D01*
X158573804Y-74430310D01*
X158551267Y-74496445D01*
X158506213Y-74535485D01*
X158329594Y-74625476D01*
X158306539Y-74642227D01*
X158170354Y-74741172D01*
X158170352Y-74741174D01*
X158170351Y-74741174D01*
X158031174Y-74880351D01*
X158031174Y-74880352D01*
X158031172Y-74880354D01*
X157981485Y-74948741D01*
X157915476Y-75039594D01*
X157826117Y-75214970D01*
X157765290Y-75402173D01*
X157734500Y-75596577D01*
X157734500Y-75793422D01*
X157765290Y-75987826D01*
X157826117Y-76175029D01*
X157911649Y-76342895D01*
X157915476Y-76350405D01*
X158031172Y-76509646D01*
X158170354Y-76648828D01*
X158329595Y-76764524D01*
X158378329Y-76789355D01*
X158506213Y-76854515D01*
X158557009Y-76902489D01*
X158573804Y-76970310D01*
X158551267Y-77036445D01*
X158506213Y-77075485D01*
X158329594Y-77165476D01*
X158286170Y-77197026D01*
X158170354Y-77281172D01*
X158170352Y-77281174D01*
X158170351Y-77281174D01*
X158031174Y-77420351D01*
X158031174Y-77420352D01*
X158031172Y-77420354D01*
X157981485Y-77488741D01*
X157915476Y-77579594D01*
X157826117Y-77754970D01*
X157765290Y-77942173D01*
X157734500Y-78136577D01*
X157734500Y-78333422D01*
X157765290Y-78527826D01*
X157826117Y-78715029D01*
X157915476Y-78890405D01*
X158031172Y-79049646D01*
X158170354Y-79188828D01*
X158285850Y-79272741D01*
X158329596Y-79304525D01*
X158506763Y-79394795D01*
X158557560Y-79442769D01*
X158574355Y-79510590D01*
X158551818Y-79576725D01*
X158506764Y-79615765D01*
X158329859Y-79705902D01*
X158294873Y-79731320D01*
X158294872Y-79731320D01*
X158855590Y-80292037D01*
X158792007Y-80309075D01*
X158677993Y-80374901D01*
X158584901Y-80467993D01*
X158519075Y-80582007D01*
X158502037Y-80645590D01*
X157941320Y-80084872D01*
X157941320Y-80084873D01*
X157915902Y-80119859D01*
X157915899Y-80119863D01*
X157826582Y-80295161D01*
X157765778Y-80482294D01*
X157735000Y-80676617D01*
X157735000Y-80873382D01*
X157765778Y-81067705D01*
X157826581Y-81254835D01*
X157915905Y-81430145D01*
X157941319Y-81465125D01*
X157941320Y-81465125D01*
X158502037Y-80904408D01*
X158519075Y-80967993D01*
X158584901Y-81082007D01*
X158677993Y-81175099D01*
X158792007Y-81240925D01*
X158855590Y-81257962D01*
X158294873Y-81818677D01*
X158294873Y-81818678D01*
X158329858Y-81844096D01*
X158505164Y-81933418D01*
X158692294Y-81994221D01*
X158886618Y-82025000D01*
X159083382Y-82025000D01*
X159277705Y-81994221D01*
X159464835Y-81933418D01*
X159640143Y-81844095D01*
X159675125Y-81818678D01*
X159675126Y-81818678D01*
X159114410Y-81257962D01*
X159177993Y-81240925D01*
X159292007Y-81175099D01*
X159385099Y-81082007D01*
X159450925Y-80967993D01*
X159467962Y-80904410D01*
X160028678Y-81465126D01*
X160028678Y-81465125D01*
X160054095Y-81430143D01*
X160143418Y-81254835D01*
X160204221Y-81067705D01*
X160235000Y-80873382D01*
X160235000Y-80676617D01*
X160204221Y-80482294D01*
X160143418Y-80295164D01*
X160054096Y-80119858D01*
X160028678Y-80084873D01*
X160028677Y-80084873D01*
X159467962Y-80645589D01*
X159450925Y-80582007D01*
X159385099Y-80467993D01*
X159292007Y-80374901D01*
X159177993Y-80309075D01*
X159114409Y-80292037D01*
X159675125Y-79731320D01*
X159675125Y-79731319D01*
X159640145Y-79705905D01*
X159463235Y-79615765D01*
X159412439Y-79567790D01*
X159395644Y-79499969D01*
X159418182Y-79433834D01*
X159463236Y-79394795D01*
X159465022Y-79393884D01*
X159465025Y-79393884D01*
X159640405Y-79304524D01*
X159799646Y-79188828D01*
X159938828Y-79049646D01*
X160054524Y-78890405D01*
X160143884Y-78715025D01*
X160204709Y-78527826D01*
X160209347Y-78498544D01*
X160235500Y-78333422D01*
X160235500Y-78136577D01*
X160204709Y-77942173D01*
X160143882Y-77754970D01*
X160078902Y-77627440D01*
X160054524Y-77579595D01*
X159938828Y-77420354D01*
X159799646Y-77281172D01*
X159683832Y-77197027D01*
X159683831Y-77197026D01*
X159640407Y-77165476D01*
X159463787Y-77075485D01*
X159412990Y-77027511D01*
X159396195Y-76959690D01*
X159418732Y-76893555D01*
X159463787Y-76854515D01*
X159640403Y-76764525D01*
X159640402Y-76764525D01*
X159640405Y-76764524D01*
X159799646Y-76648828D01*
X159938828Y-76509646D01*
X160054524Y-76350405D01*
X160143884Y-76175025D01*
X160204709Y-75987826D01*
X160205903Y-75980290D01*
X160235500Y-75793422D01*
X160235500Y-75596577D01*
X160204709Y-75402173D01*
X160143882Y-75214970D01*
X160054523Y-75039594D01*
X160025251Y-74999305D01*
X159938828Y-74880354D01*
X159799646Y-74741172D01*
X159663461Y-74642227D01*
X159640403Y-74625474D01*
X159463787Y-74535485D01*
X159412990Y-74487511D01*
X159396195Y-74419690D01*
X159418732Y-74353555D01*
X159463787Y-74314515D01*
X159640403Y-74224525D01*
X159640402Y-74224525D01*
X159640405Y-74224524D01*
X159799646Y-74108828D01*
X159938828Y-73969646D01*
X160054524Y-73810405D01*
X160143884Y-73635025D01*
X160204709Y-73447826D01*
X160222167Y-73337600D01*
X160235500Y-73253422D01*
X160235500Y-73056577D01*
X160204709Y-72862173D01*
X160143882Y-72674970D01*
X160054523Y-72499594D01*
X159938828Y-72340354D01*
X159799646Y-72201172D01*
X159640405Y-72085476D01*
X159465029Y-71996117D01*
X159277826Y-71935290D01*
X159083422Y-71904500D01*
X159083417Y-71904500D01*
X158886583Y-71904500D01*
X158886578Y-71904500D01*
X158692173Y-71935290D01*
X158504970Y-71996117D01*
X158329594Y-72085476D01*
X158238741Y-72151485D01*
X158170354Y-72201172D01*
X158170352Y-72201174D01*
X158170351Y-72201174D01*
X158031174Y-72340351D01*
X158031174Y-72340352D01*
X158031172Y-72340354D01*
X157981485Y-72408741D01*
X157915476Y-72499594D01*
X157826117Y-72674970D01*
X157765290Y-72862173D01*
X157734500Y-73056577D01*
X156194724Y-73056577D01*
X156191966Y-73052781D01*
X156047219Y-72908034D01*
X156047213Y-72908028D01*
X155881613Y-72787715D01*
X155881612Y-72787714D01*
X155881610Y-72787713D01*
X155824653Y-72758691D01*
X155699223Y-72694781D01*
X155504534Y-72631522D01*
X155329995Y-72603878D01*
X155302352Y-72599500D01*
X155097648Y-72599500D01*
X155073329Y-72603351D01*
X154895465Y-72631522D01*
X154700776Y-72694781D01*
X154518386Y-72787715D01*
X154352786Y-72908028D01*
X154208028Y-73052786D01*
X154087715Y-73218386D01*
X153994781Y-73400776D01*
X153931522Y-73595465D01*
X153899500Y-73797648D01*
X150143687Y-73797648D01*
X150236240Y-73705095D01*
X150325921Y-73615413D01*
X150322946Y-73577607D01*
X150337310Y-73509229D01*
X150386361Y-73459472D01*
X150407555Y-73450173D01*
X150469334Y-73429702D01*
X150618656Y-73337600D01*
X150742712Y-73213544D01*
X150834814Y-73064222D01*
X150889999Y-72897685D01*
X150900500Y-72794897D01*
X150900499Y-71594880D01*
X150889999Y-71492091D01*
X150834814Y-71325554D01*
X150742712Y-71176232D01*
X150618656Y-71052176D01*
X150469334Y-70960074D01*
X150302797Y-70904889D01*
X150302795Y-70904888D01*
X150200010Y-70894388D01*
X148999998Y-70894388D01*
X148999981Y-70894389D01*
X148897203Y-70904888D01*
X148897200Y-70904889D01*
X148730668Y-70960073D01*
X148730663Y-70960075D01*
X148581342Y-71052177D01*
X148457289Y-71176230D01*
X148365187Y-71325551D01*
X148365186Y-71325554D01*
X148310001Y-71492091D01*
X148310001Y-71492092D01*
X148310000Y-71492092D01*
X148299500Y-71594871D01*
X146800500Y-71594871D01*
X146800500Y-67665782D01*
X146820185Y-67598743D01*
X146836819Y-67578101D01*
X148378101Y-66036819D01*
X148439424Y-66003334D01*
X148465782Y-66000500D01*
X221611746Y-66000500D01*
X221678785Y-66020185D01*
X221724540Y-66072989D01*
X221734484Y-66142147D01*
X221729452Y-66163503D01*
X221710001Y-66222200D01*
X221710000Y-66222204D01*
X221699500Y-66324983D01*
X221699500Y-67675001D01*
X221699501Y-67675018D01*
X221710000Y-67777796D01*
X221710001Y-67777799D01*
X221765185Y-67944331D01*
X221765186Y-67944334D01*
X221857288Y-68093656D01*
X221981344Y-68217712D01*
X222130666Y-68309814D01*
X222297203Y-68364999D01*
X222399991Y-68375500D01*
X223200008Y-68375499D01*
X223200016Y-68375498D01*
X223200019Y-68375498D01*
X223256302Y-68369748D01*
X223302797Y-68364999D01*
X223469334Y-68309814D01*
X223610407Y-68222799D01*
X223677795Y-68204361D01*
X223744459Y-68225283D01*
X223789229Y-68278925D01*
X223799500Y-68328340D01*
X223799500Y-78498544D01*
X223837947Y-78691833D01*
X223837949Y-78691837D01*
X223860038Y-78745164D01*
X223913366Y-78873911D01*
X223913371Y-78873920D01*
X224022859Y-79037780D01*
X224022860Y-79037781D01*
X224022861Y-79037782D01*
X224162218Y-79177139D01*
X224162219Y-79177139D01*
X224169286Y-79184206D01*
X224169285Y-79184206D01*
X224169289Y-79184209D01*
X227655510Y-82670431D01*
X227688995Y-82731754D01*
X227684011Y-82801446D01*
X227677188Y-82816564D01*
X227631769Y-82901537D01*
X227631766Y-82901544D01*
X227500150Y-83219293D01*
X227400308Y-83548427D01*
X227333210Y-83885750D01*
X227299500Y-84228034D01*
X227299500Y-84571965D01*
X227333210Y-84914249D01*
X227400308Y-85251572D01*
X227500150Y-85580706D01*
X227631770Y-85898464D01*
X227631772Y-85898469D01*
X227793893Y-86201775D01*
X227793904Y-86201793D01*
X227984975Y-86487751D01*
X227984985Y-86487765D01*
X228203176Y-86753632D01*
X228446367Y-86996823D01*
X228446372Y-86996827D01*
X228446373Y-86996828D01*
X228712240Y-87215019D01*
X228998213Y-87406100D01*
X228998222Y-87406105D01*
X228998224Y-87406106D01*
X229301530Y-87568227D01*
X229301532Y-87568227D01*
X229301538Y-87568231D01*
X229619295Y-87699850D01*
X229948422Y-87799690D01*
X230285750Y-87866789D01*
X230628031Y-87900500D01*
X230628034Y-87900500D01*
X230971966Y-87900500D01*
X230971969Y-87900500D01*
X231314250Y-87866789D01*
X231651578Y-87799690D01*
X231980705Y-87699850D01*
X232298462Y-87568231D01*
X232601787Y-87406100D01*
X232887760Y-87215019D01*
X233153627Y-86996828D01*
X233396828Y-86753627D01*
X233615019Y-86487760D01*
X233806100Y-86201787D01*
X233968231Y-85898462D01*
X234099850Y-85580705D01*
X234199690Y-85251578D01*
X234266789Y-84914250D01*
X234300500Y-84571969D01*
X234300500Y-84228031D01*
X234266789Y-83885750D01*
X234199690Y-83548422D01*
X234099850Y-83219295D01*
X233968231Y-82901538D01*
X233967940Y-82900994D01*
X233806106Y-82598224D01*
X233806105Y-82598222D01*
X233806100Y-82598213D01*
X233615019Y-82312240D01*
X233396828Y-82046373D01*
X233396827Y-82046372D01*
X233396823Y-82046367D01*
X233153632Y-81803176D01*
X232887765Y-81584985D01*
X232887764Y-81584984D01*
X232887760Y-81584981D01*
X232656031Y-81430145D01*
X232601793Y-81393904D01*
X232601792Y-81393903D01*
X232601787Y-81393900D01*
X232601782Y-81393897D01*
X232601775Y-81393893D01*
X232298469Y-81231772D01*
X232298464Y-81231770D01*
X232298454Y-81231766D01*
X232111464Y-81154312D01*
X231980706Y-81100150D01*
X231651572Y-81000308D01*
X231379134Y-80946117D01*
X231317223Y-80913732D01*
X231282649Y-80853016D01*
X231286388Y-80783247D01*
X231327255Y-80726575D01*
X231392273Y-80700994D01*
X231403325Y-80700500D01*
X232371448Y-80700500D01*
X232585428Y-80685196D01*
X232624866Y-80676617D01*
X232865037Y-80624371D01*
X232865037Y-80624370D01*
X232865046Y-80624369D01*
X233133161Y-80524367D01*
X233384315Y-80387226D01*
X233613395Y-80215739D01*
X233815739Y-80013395D01*
X233987226Y-79784315D01*
X234124367Y-79533161D01*
X234224369Y-79265046D01*
X234285196Y-78985428D01*
X234300500Y-78771448D01*
X234300500Y-75628552D01*
X234285196Y-75414572D01*
X234241776Y-75214975D01*
X234224371Y-75134962D01*
X234224370Y-75134960D01*
X234224369Y-75134954D01*
X234124367Y-74866839D01*
X234059229Y-74747549D01*
X233987229Y-74615690D01*
X233987224Y-74615682D01*
X233815745Y-74386612D01*
X233815729Y-74386594D01*
X233613405Y-74184270D01*
X233613387Y-74184254D01*
X233384317Y-74012775D01*
X233384309Y-74012770D01*
X233133166Y-73875635D01*
X233133167Y-73875635D01*
X232958278Y-73810405D01*
X232865046Y-73775631D01*
X232865043Y-73775630D01*
X232865037Y-73775628D01*
X232585433Y-73714804D01*
X232371450Y-73699500D01*
X232371448Y-73699500D01*
X229228552Y-73699500D01*
X229228549Y-73699500D01*
X229014566Y-73714804D01*
X228734962Y-73775628D01*
X228466833Y-73875635D01*
X228215690Y-74012770D01*
X228215682Y-74012775D01*
X227986612Y-74184254D01*
X227986594Y-74184270D01*
X227784270Y-74386594D01*
X227784254Y-74386612D01*
X227612775Y-74615682D01*
X227612770Y-74615690D01*
X227475635Y-74866833D01*
X227375628Y-75134962D01*
X227314804Y-75414566D01*
X227299500Y-75628549D01*
X227299500Y-78771450D01*
X227314804Y-78985433D01*
X227368062Y-79230255D01*
X227363078Y-79299947D01*
X227321206Y-79355880D01*
X227255742Y-79380297D01*
X227187469Y-79365445D01*
X227159215Y-79344294D01*
X225836819Y-78021898D01*
X225803334Y-77960575D01*
X225800500Y-77934217D01*
X225800500Y-68478711D01*
X229549500Y-68478711D01*
X229549500Y-68721288D01*
X229581161Y-68961785D01*
X229643947Y-69196104D01*
X229736773Y-69420205D01*
X229736776Y-69420212D01*
X229858064Y-69630289D01*
X229858066Y-69630292D01*
X229858067Y-69630293D01*
X230005733Y-69822736D01*
X230005739Y-69822743D01*
X230177256Y-69994260D01*
X230177262Y-69994265D01*
X230369711Y-70141936D01*
X230579788Y-70263224D01*
X230803900Y-70356054D01*
X231038211Y-70418838D01*
X231218586Y-70442584D01*
X231278711Y-70450500D01*
X231278712Y-70450500D01*
X231521289Y-70450500D01*
X231569388Y-70444167D01*
X231761789Y-70418838D01*
X231996100Y-70356054D01*
X232220212Y-70263224D01*
X232430289Y-70141936D01*
X232622738Y-69994265D01*
X232794265Y-69822738D01*
X232941936Y-69630289D01*
X233063224Y-69420212D01*
X233156054Y-69196100D01*
X233218838Y-68961789D01*
X233250500Y-68721288D01*
X233250500Y-68478712D01*
X233218838Y-68238211D01*
X233156054Y-68003900D01*
X233063224Y-67779788D01*
X232941936Y-67569711D01*
X232794265Y-67377262D01*
X232794260Y-67377256D01*
X232622743Y-67205739D01*
X232622736Y-67205733D01*
X232430293Y-67058067D01*
X232430292Y-67058066D01*
X232430289Y-67058064D01*
X232220212Y-66936776D01*
X232220205Y-66936773D01*
X231996104Y-66843947D01*
X231761785Y-66781161D01*
X231521289Y-66749500D01*
X231521288Y-66749500D01*
X231278712Y-66749500D01*
X231278711Y-66749500D01*
X231038214Y-66781161D01*
X230803895Y-66843947D01*
X230579794Y-66936773D01*
X230579785Y-66936777D01*
X230369706Y-67058067D01*
X230177263Y-67205733D01*
X230177256Y-67205739D01*
X230005739Y-67377256D01*
X230005733Y-67377263D01*
X229858067Y-67569706D01*
X229736777Y-67779785D01*
X229736773Y-67779794D01*
X229643947Y-68003895D01*
X229581161Y-68238214D01*
X229549500Y-68478711D01*
X225800500Y-68478711D01*
X225800500Y-67765235D01*
X225814016Y-67708939D01*
X225819873Y-67697445D01*
X225873402Y-67532701D01*
X225900500Y-67361611D01*
X225900500Y-66638389D01*
X225873402Y-66467299D01*
X225819873Y-66302555D01*
X225819871Y-66302552D01*
X225819871Y-66302550D01*
X225814016Y-66291059D01*
X225800500Y-66234763D01*
X225800500Y-66101456D01*
X225762052Y-65908170D01*
X225762051Y-65908169D01*
X225762051Y-65908165D01*
X225762049Y-65908160D01*
X225686635Y-65726092D01*
X225686628Y-65726079D01*
X225577140Y-65562219D01*
X225577139Y-65562218D01*
X225437782Y-65422861D01*
X225437781Y-65422860D01*
X224727100Y-64712180D01*
X224693616Y-64650858D01*
X224698600Y-64581167D01*
X224740471Y-64525233D01*
X224805936Y-64500816D01*
X224814782Y-64500500D01*
X235375500Y-64500500D01*
X235442539Y-64520185D01*
X235488294Y-64572989D01*
X235499500Y-64624500D01*
X235499500Y-109710730D01*
X235479815Y-109777769D01*
X235427011Y-109823524D01*
X235357853Y-109833468D01*
X235294297Y-109804443D01*
X235276234Y-109785042D01*
X235207187Y-109692809D01*
X235092093Y-109606649D01*
X235092086Y-109606645D01*
X234957379Y-109556403D01*
X234957372Y-109556401D01*
X234897844Y-109550000D01*
X234250000Y-109550000D01*
X234250000Y-110466988D01*
X234192993Y-110434075D01*
X234065826Y-110400000D01*
X233934174Y-110400000D01*
X233807007Y-110434075D01*
X233750000Y-110466988D01*
X233750000Y-109550000D01*
X233102155Y-109550000D01*
X233042627Y-109556401D01*
X233042620Y-109556403D01*
X232907913Y-109606645D01*
X232907906Y-109606649D01*
X232792812Y-109692809D01*
X232792809Y-109692812D01*
X232706649Y-109807906D01*
X232706645Y-109807913D01*
X232656403Y-109942620D01*
X232656401Y-109942627D01*
X232650000Y-110002155D01*
X232650000Y-110650000D01*
X233566988Y-110650000D01*
X233534075Y-110707007D01*
X233500000Y-110834174D01*
X233500000Y-110965826D01*
X233534075Y-111092993D01*
X233566988Y-111150000D01*
X232650000Y-111150000D01*
X232650000Y-111797844D01*
X232656401Y-111857372D01*
X232656403Y-111857379D01*
X232706645Y-111992086D01*
X232706649Y-111992093D01*
X232792809Y-112107187D01*
X232792812Y-112107190D01*
X232907906Y-112193350D01*
X232907913Y-112193354D01*
X233042620Y-112243596D01*
X233042619Y-112243596D01*
X233125444Y-112252501D01*
X233125116Y-112255550D01*
X233142014Y-112254642D01*
X233201196Y-112287642D01*
X233870591Y-112957037D01*
X233807007Y-112974075D01*
X233692993Y-113039901D01*
X233599901Y-113132993D01*
X233534075Y-113247007D01*
X233517037Y-113310591D01*
X232884728Y-112678282D01*
X232884727Y-112678282D01*
X232845380Y-112732439D01*
X232748904Y-112921782D01*
X232683242Y-113123869D01*
X232683242Y-113123872D01*
X232650000Y-113333753D01*
X232650000Y-113546246D01*
X232683242Y-113756127D01*
X232683242Y-113756130D01*
X232748904Y-113958217D01*
X232845375Y-114147550D01*
X232884728Y-114201716D01*
X233517037Y-113569408D01*
X233534075Y-113632993D01*
X233599901Y-113747007D01*
X233692993Y-113840099D01*
X233807007Y-113905925D01*
X233870590Y-113922962D01*
X233238282Y-114555269D01*
X233238282Y-114555270D01*
X233292452Y-114594626D01*
X233292451Y-114594626D01*
X233301495Y-114599234D01*
X233352292Y-114647208D01*
X233369087Y-114715029D01*
X233346550Y-114781164D01*
X233301499Y-114820202D01*
X233292182Y-114824949D01*
X233120213Y-114949890D01*
X232969890Y-115100213D01*
X232844951Y-115272179D01*
X232748444Y-115461585D01*
X232682753Y-115663760D01*
X232661893Y-115795465D01*
X232649500Y-115873713D01*
X232649500Y-116086287D01*
X232682754Y-116296243D01*
X232748443Y-116498412D01*
X232798190Y-116596047D01*
X232811086Y-116664716D01*
X232784809Y-116729456D01*
X232775386Y-116740022D01*
X231223784Y-118291623D01*
X231162461Y-118325108D01*
X231092769Y-118320124D01*
X231036836Y-118278252D01*
X231018172Y-118242261D01*
X231004755Y-118200968D01*
X230911859Y-118018650D01*
X230879474Y-117974077D01*
X230879474Y-117974076D01*
X230200000Y-118653553D01*
X230200000Y-118647339D01*
X230172741Y-118545606D01*
X230120080Y-118454394D01*
X230045606Y-118379920D01*
X229954394Y-118327259D01*
X229852661Y-118300000D01*
X229846446Y-118300000D01*
X230525922Y-117620524D01*
X230525921Y-117620523D01*
X230481359Y-117588147D01*
X230481345Y-117588138D01*
X230415989Y-117554838D01*
X230365192Y-117506864D01*
X230348397Y-117439043D01*
X230370934Y-117372908D01*
X230425649Y-117329456D01*
X230433957Y-117326424D01*
X230499219Y-117305220D01*
X230681610Y-117212287D01*
X230787921Y-117135048D01*
X230847213Y-117091971D01*
X230847215Y-117091968D01*
X230847219Y-117091966D01*
X230991966Y-116947219D01*
X230991968Y-116947215D01*
X230991971Y-116947213D01*
X231055489Y-116859786D01*
X231112287Y-116781610D01*
X231205220Y-116599219D01*
X231268477Y-116404534D01*
X231300500Y-116202352D01*
X231300500Y-115997648D01*
X231268477Y-115795466D01*
X231205220Y-115600781D01*
X231205218Y-115600778D01*
X231205218Y-115600776D01*
X231143726Y-115480093D01*
X231112287Y-115418390D01*
X231104556Y-115407749D01*
X230991971Y-115252786D01*
X230847213Y-115108028D01*
X230681613Y-114987715D01*
X230681612Y-114987714D01*
X230681610Y-114987713D01*
X230607390Y-114949896D01*
X230499223Y-114894781D01*
X230304534Y-114831522D01*
X230129995Y-114803878D01*
X230102352Y-114799500D01*
X229897648Y-114799500D01*
X229873329Y-114803351D01*
X229695465Y-114831522D01*
X229500776Y-114894781D01*
X229318386Y-114987715D01*
X229152786Y-115108028D01*
X229008028Y-115252786D01*
X228887715Y-115418386D01*
X228794781Y-115600776D01*
X228731522Y-115795465D01*
X228699500Y-115997648D01*
X228699500Y-116202351D01*
X228731522Y-116404534D01*
X228794781Y-116599223D01*
X228887715Y-116781613D01*
X229008028Y-116947213D01*
X229152786Y-117091971D01*
X229318389Y-117212287D01*
X229318391Y-117212288D01*
X229383968Y-117245702D01*
X229434764Y-117293676D01*
X229451559Y-117361497D01*
X229429021Y-117427632D01*
X229374306Y-117471083D01*
X229365992Y-117474117D01*
X229300968Y-117495244D01*
X229118644Y-117588143D01*
X229074077Y-117620523D01*
X229074077Y-117620524D01*
X229753554Y-118300000D01*
X229747339Y-118300000D01*
X229645606Y-118327259D01*
X229554394Y-118379920D01*
X229479920Y-118454394D01*
X229427259Y-118545606D01*
X229400000Y-118647339D01*
X229400000Y-118653553D01*
X228720524Y-117974077D01*
X228720523Y-117974077D01*
X228688143Y-118018644D01*
X228595244Y-118200968D01*
X228532009Y-118395582D01*
X228500000Y-118597682D01*
X228500000Y-118802317D01*
X228532009Y-119004417D01*
X228595244Y-119199031D01*
X228688141Y-119381350D01*
X228688147Y-119381359D01*
X228720523Y-119425921D01*
X228720524Y-119425922D01*
X229400000Y-118746446D01*
X229400000Y-118752661D01*
X229427259Y-118854394D01*
X229479920Y-118945606D01*
X229554394Y-119020080D01*
X229645606Y-119072741D01*
X229747339Y-119100000D01*
X229753553Y-119100000D01*
X229074076Y-119779474D01*
X229118650Y-119811859D01*
X229300968Y-119904755D01*
X229342261Y-119918172D01*
X229399936Y-119957610D01*
X229427134Y-120021969D01*
X229415219Y-120090815D01*
X229391623Y-120123784D01*
X225977229Y-123538181D01*
X225915906Y-123571666D01*
X225889548Y-123574500D01*
X220552977Y-123574500D01*
X220485938Y-123554815D01*
X220440183Y-123502011D01*
X220430239Y-123432853D01*
X220449874Y-123381610D01*
X220449875Y-123381609D01*
X220475941Y-123342598D01*
X220555130Y-123151420D01*
X220595500Y-122948465D01*
X220595500Y-122741535D01*
X220555130Y-122538580D01*
X220475941Y-122347402D01*
X220360977Y-122175345D01*
X220360975Y-122175342D01*
X220214657Y-122029024D01*
X220081101Y-121939786D01*
X220042598Y-121914059D01*
X219851420Y-121834870D01*
X219851412Y-121834868D01*
X219648469Y-121794500D01*
X219648465Y-121794500D01*
X219441535Y-121794500D01*
X219441530Y-121794500D01*
X219238587Y-121834868D01*
X219238579Y-121834870D01*
X219047403Y-121914058D01*
X218875342Y-122029024D01*
X218729024Y-122175342D01*
X218614058Y-122347403D01*
X218534870Y-122538579D01*
X218534868Y-122538587D01*
X218494500Y-122741530D01*
X218494500Y-122948469D01*
X218534868Y-123151412D01*
X218534870Y-123151420D01*
X218614059Y-123342598D01*
X218640125Y-123381609D01*
X218640126Y-123381610D01*
X218661003Y-123448287D01*
X218642518Y-123515667D01*
X218590539Y-123562357D01*
X218537023Y-123574500D01*
X203869568Y-123574500D01*
X203802529Y-123554815D01*
X203756774Y-123502011D01*
X203746830Y-123432853D01*
X203766466Y-123381609D01*
X203768611Y-123378399D01*
X203825941Y-123292598D01*
X203905130Y-123101420D01*
X203945500Y-122898465D01*
X203945500Y-122691535D01*
X203905130Y-122488580D01*
X203825941Y-122297402D01*
X203710977Y-122125345D01*
X203710975Y-122125342D01*
X203564657Y-121979024D01*
X203467427Y-121914058D01*
X203392598Y-121864059D01*
X203335369Y-121840354D01*
X203201420Y-121784870D01*
X203201412Y-121784868D01*
X202998469Y-121744500D01*
X202998465Y-121744500D01*
X202791535Y-121744500D01*
X202791530Y-121744500D01*
X202588587Y-121784868D01*
X202588579Y-121784870D01*
X202397403Y-121864058D01*
X202225342Y-121979024D01*
X202079024Y-122125342D01*
X201964058Y-122297403D01*
X201884870Y-122488579D01*
X201884868Y-122488587D01*
X201844500Y-122691530D01*
X201844500Y-122898469D01*
X201884868Y-123101412D01*
X201884870Y-123101420D01*
X201964058Y-123292597D01*
X201975781Y-123310141D01*
X202020864Y-123377614D01*
X202023534Y-123381609D01*
X202044412Y-123448287D01*
X202025927Y-123515667D01*
X201973948Y-123562357D01*
X201920432Y-123574500D01*
X194836011Y-123574500D01*
X194768972Y-123554815D01*
X194723217Y-123502011D01*
X194713273Y-123432853D01*
X194735692Y-123377615D01*
X194784524Y-123310405D01*
X194873884Y-123135025D01*
X194934709Y-122947826D01*
X194949762Y-122852786D01*
X194965500Y-122753422D01*
X194965500Y-122556577D01*
X194934709Y-122362173D01*
X194888356Y-122219516D01*
X194873884Y-122174975D01*
X194873882Y-122174972D01*
X194873882Y-122174970D01*
X194826743Y-122082455D01*
X194784524Y-121999595D01*
X194668828Y-121840354D01*
X194529646Y-121701172D01*
X194370405Y-121585476D01*
X194320225Y-121559908D01*
X194195029Y-121496117D01*
X194007826Y-121435290D01*
X193813422Y-121404500D01*
X193813417Y-121404500D01*
X193616583Y-121404500D01*
X193616578Y-121404500D01*
X193422173Y-121435290D01*
X193234970Y-121496117D01*
X193059594Y-121585476D01*
X192968741Y-121651485D01*
X192900354Y-121701172D01*
X192900352Y-121701174D01*
X192900351Y-121701174D01*
X192761174Y-121840351D01*
X192761174Y-121840352D01*
X192761172Y-121840354D01*
X192711485Y-121908741D01*
X192645476Y-121999594D01*
X192555485Y-122176213D01*
X192507511Y-122227009D01*
X192439690Y-122243804D01*
X192373555Y-122221267D01*
X192334515Y-122176213D01*
X192290640Y-122090104D01*
X192244524Y-121999595D01*
X192128828Y-121840354D01*
X191989646Y-121701172D01*
X191830405Y-121585476D01*
X191780225Y-121559908D01*
X191655029Y-121496117D01*
X191467826Y-121435290D01*
X191273422Y-121404500D01*
X191273417Y-121404500D01*
X191076583Y-121404500D01*
X191076578Y-121404500D01*
X190882173Y-121435290D01*
X190694970Y-121496117D01*
X190519594Y-121585476D01*
X190428741Y-121651485D01*
X190360354Y-121701172D01*
X190360352Y-121701174D01*
X190360351Y-121701174D01*
X190221174Y-121840351D01*
X190221174Y-121840352D01*
X190221172Y-121840354D01*
X190171485Y-121908741D01*
X190105476Y-121999594D01*
X190015485Y-122176213D01*
X189967511Y-122227009D01*
X189899690Y-122243804D01*
X189833555Y-122221267D01*
X189794515Y-122176213D01*
X189750640Y-122090104D01*
X189704524Y-121999595D01*
X189588828Y-121840354D01*
X189449646Y-121701172D01*
X189290405Y-121585476D01*
X189240225Y-121559908D01*
X189115029Y-121496117D01*
X188927826Y-121435290D01*
X188733422Y-121404500D01*
X188733417Y-121404500D01*
X188536583Y-121404500D01*
X188536578Y-121404500D01*
X188342173Y-121435290D01*
X188154970Y-121496117D01*
X187979594Y-121585476D01*
X187888741Y-121651485D01*
X187820354Y-121701172D01*
X187820352Y-121701174D01*
X187820351Y-121701174D01*
X187681174Y-121840351D01*
X187681174Y-121840352D01*
X187681172Y-121840354D01*
X187631485Y-121908741D01*
X187565476Y-121999594D01*
X187475485Y-122176213D01*
X187427511Y-122227009D01*
X187359690Y-122243804D01*
X187293555Y-122221267D01*
X187254515Y-122176213D01*
X187210640Y-122090104D01*
X187164524Y-121999595D01*
X187048828Y-121840354D01*
X186909646Y-121701172D01*
X186750405Y-121585476D01*
X186700225Y-121559908D01*
X186575029Y-121496117D01*
X186387826Y-121435290D01*
X186193422Y-121404500D01*
X186193417Y-121404500D01*
X185996583Y-121404500D01*
X185996578Y-121404500D01*
X185802173Y-121435290D01*
X185614970Y-121496117D01*
X185439594Y-121585476D01*
X185348741Y-121651485D01*
X185280354Y-121701172D01*
X185280352Y-121701174D01*
X185280351Y-121701174D01*
X185141174Y-121840351D01*
X185141174Y-121840352D01*
X185141172Y-121840354D01*
X185091485Y-121908741D01*
X185025476Y-121999594D01*
X184935485Y-122176213D01*
X184887511Y-122227009D01*
X184819690Y-122243804D01*
X184753555Y-122221267D01*
X184714515Y-122176213D01*
X184670640Y-122090104D01*
X184624524Y-121999595D01*
X184508828Y-121840354D01*
X184369646Y-121701172D01*
X184210405Y-121585476D01*
X184160225Y-121559908D01*
X184035029Y-121496117D01*
X183847826Y-121435290D01*
X183653422Y-121404500D01*
X183653417Y-121404500D01*
X183456583Y-121404500D01*
X183456578Y-121404500D01*
X183262173Y-121435290D01*
X183074970Y-121496117D01*
X182899594Y-121585476D01*
X182808741Y-121651485D01*
X182740354Y-121701172D01*
X182740352Y-121701174D01*
X182740351Y-121701174D01*
X182601174Y-121840351D01*
X182601174Y-121840352D01*
X182601172Y-121840354D01*
X182551485Y-121908741D01*
X182485476Y-121999594D01*
X182395204Y-122176764D01*
X182347229Y-122227560D01*
X182279408Y-122244355D01*
X182213274Y-122221818D01*
X182174234Y-122176764D01*
X182084096Y-121999858D01*
X182058678Y-121964873D01*
X182058677Y-121964873D01*
X181497962Y-122525589D01*
X181480925Y-122462007D01*
X181415099Y-122347993D01*
X181322007Y-122254901D01*
X181207993Y-122189075D01*
X181144409Y-122172037D01*
X181705125Y-121611320D01*
X181705125Y-121611319D01*
X181670145Y-121585905D01*
X181494835Y-121496581D01*
X181307705Y-121435778D01*
X181113382Y-121405000D01*
X180916618Y-121405000D01*
X180722294Y-121435778D01*
X180535161Y-121496582D01*
X180359863Y-121585899D01*
X180359859Y-121585902D01*
X180324873Y-121611320D01*
X180324872Y-121611320D01*
X180885590Y-122172037D01*
X180822007Y-122189075D01*
X180707993Y-122254901D01*
X180614901Y-122347993D01*
X180549075Y-122462007D01*
X180532037Y-122525590D01*
X179971320Y-121964872D01*
X179971320Y-121964873D01*
X179945902Y-121999859D01*
X179855765Y-122176764D01*
X179807790Y-122227560D01*
X179739969Y-122244355D01*
X179673835Y-122221818D01*
X179634795Y-122176763D01*
X179544525Y-121999596D01*
X179501070Y-121939786D01*
X179428828Y-121840354D01*
X179289646Y-121701172D01*
X179130405Y-121585476D01*
X179080225Y-121559908D01*
X178955029Y-121496117D01*
X178767826Y-121435290D01*
X178573422Y-121404500D01*
X178573417Y-121404500D01*
X178376583Y-121404500D01*
X178376578Y-121404500D01*
X178182173Y-121435290D01*
X177994970Y-121496117D01*
X177819594Y-121585476D01*
X177728741Y-121651485D01*
X177660354Y-121701172D01*
X177660352Y-121701174D01*
X177660351Y-121701174D01*
X177521174Y-121840351D01*
X177521174Y-121840352D01*
X177521172Y-121840354D01*
X177471485Y-121908741D01*
X177405476Y-121999594D01*
X177315485Y-122176213D01*
X177267511Y-122227009D01*
X177199690Y-122243804D01*
X177133555Y-122221267D01*
X177094515Y-122176213D01*
X177050640Y-122090104D01*
X177004524Y-121999595D01*
X176888828Y-121840354D01*
X176749646Y-121701172D01*
X176590405Y-121585476D01*
X176540225Y-121559908D01*
X176415029Y-121496117D01*
X176227826Y-121435290D01*
X176033422Y-121404500D01*
X176033417Y-121404500D01*
X175836583Y-121404500D01*
X175836576Y-121404500D01*
X175668065Y-121431189D01*
X175598772Y-121422234D01*
X175560987Y-121396397D01*
X173549837Y-119385247D01*
X201844500Y-119385247D01*
X201844500Y-121124752D01*
X201856131Y-121183229D01*
X201856132Y-121183230D01*
X201900447Y-121249552D01*
X201966769Y-121293867D01*
X201966770Y-121293868D01*
X202025247Y-121305499D01*
X202025250Y-121305500D01*
X202025252Y-121305500D01*
X203764750Y-121305500D01*
X203764751Y-121305499D01*
X203779568Y-121302552D01*
X203823229Y-121293868D01*
X203823229Y-121293867D01*
X203823231Y-121293867D01*
X203889552Y-121249552D01*
X203933867Y-121183231D01*
X203933867Y-121183229D01*
X203933868Y-121183229D01*
X203945499Y-121124752D01*
X203945500Y-121124750D01*
X203945500Y-119435247D01*
X218494500Y-119435247D01*
X218494500Y-121174752D01*
X218506131Y-121233229D01*
X218506132Y-121233230D01*
X218550447Y-121299552D01*
X218616769Y-121343867D01*
X218616770Y-121343868D01*
X218675247Y-121355499D01*
X218675250Y-121355500D01*
X218675252Y-121355500D01*
X220414750Y-121355500D01*
X220414751Y-121355499D01*
X220429568Y-121352552D01*
X220473229Y-121343868D01*
X220473229Y-121343867D01*
X220473231Y-121343867D01*
X220539552Y-121299552D01*
X220583867Y-121233231D01*
X220583867Y-121233229D01*
X220583868Y-121233229D01*
X220595499Y-121174752D01*
X220595500Y-121174750D01*
X220595500Y-119435249D01*
X220595499Y-119435247D01*
X220583868Y-119376770D01*
X220583867Y-119376769D01*
X220539552Y-119310447D01*
X220473230Y-119266132D01*
X220473229Y-119266131D01*
X220414752Y-119254500D01*
X220414748Y-119254500D01*
X218675252Y-119254500D01*
X218675247Y-119254500D01*
X218616770Y-119266131D01*
X218616769Y-119266132D01*
X218550447Y-119310447D01*
X218506132Y-119376769D01*
X218506131Y-119376770D01*
X218494500Y-119435247D01*
X203945500Y-119435247D01*
X203945500Y-119385249D01*
X203945499Y-119385247D01*
X203933868Y-119326770D01*
X203933867Y-119326769D01*
X203889552Y-119260447D01*
X203823230Y-119216132D01*
X203823229Y-119216131D01*
X203764752Y-119204500D01*
X203764748Y-119204500D01*
X202025252Y-119204500D01*
X202025247Y-119204500D01*
X201966770Y-119216131D01*
X201966769Y-119216132D01*
X201900447Y-119260447D01*
X201856132Y-119326769D01*
X201856131Y-119326770D01*
X201844500Y-119385247D01*
X173549837Y-119385247D01*
X164770198Y-110605608D01*
X164770178Y-110605586D01*
X164678733Y-110514141D01*
X164633325Y-110483801D01*
X164633324Y-110483800D01*
X164627509Y-110479915D01*
X164576286Y-110445688D01*
X164495792Y-110412347D01*
X164480457Y-110405995D01*
X164462453Y-110398537D01*
X164452427Y-110396543D01*
X164402029Y-110386518D01*
X164341610Y-110374500D01*
X164341607Y-110374500D01*
X164341606Y-110374500D01*
X142072981Y-110374500D01*
X142005942Y-110354815D01*
X141962497Y-110306797D01*
X141955049Y-110292180D01*
X141830109Y-110120213D01*
X141716569Y-110006673D01*
X141683084Y-109945350D01*
X141688068Y-109875658D01*
X141729940Y-109819725D01*
X141760915Y-109802810D01*
X141892331Y-109753796D01*
X142007546Y-109667546D01*
X142093796Y-109552331D01*
X142144091Y-109417483D01*
X142150500Y-109357873D01*
X142150499Y-107562128D01*
X142144091Y-107502517D01*
X142107400Y-107404144D01*
X142093797Y-107367671D01*
X142093795Y-107367668D01*
X142093792Y-107367664D01*
X142007546Y-107252454D01*
X142007545Y-107252453D01*
X142007544Y-107252452D01*
X141947035Y-107207155D01*
X201595000Y-107207155D01*
X201595000Y-107855000D01*
X202511988Y-107855000D01*
X202479075Y-107912007D01*
X202445000Y-108039174D01*
X202445000Y-108170826D01*
X202479075Y-108297993D01*
X202511988Y-108355000D01*
X201595000Y-108355000D01*
X201595000Y-109002844D01*
X201601401Y-109062372D01*
X201601403Y-109062379D01*
X201651645Y-109197086D01*
X201651649Y-109197093D01*
X201737809Y-109312187D01*
X201737812Y-109312190D01*
X201852906Y-109398350D01*
X201852913Y-109398354D01*
X201987620Y-109448596D01*
X201987619Y-109448596D01*
X202070444Y-109457501D01*
X202070116Y-109460550D01*
X202087014Y-109459642D01*
X202146196Y-109492642D01*
X202815591Y-110162037D01*
X202752007Y-110179075D01*
X202637993Y-110244901D01*
X202544901Y-110337993D01*
X202479075Y-110452007D01*
X202462037Y-110515591D01*
X201829728Y-109883282D01*
X201829727Y-109883282D01*
X201790380Y-109937439D01*
X201693904Y-110126782D01*
X201628242Y-110328869D01*
X201628242Y-110328872D01*
X201595000Y-110538753D01*
X201595000Y-110751246D01*
X201628242Y-110961127D01*
X201628242Y-110961130D01*
X201693904Y-111163217D01*
X201790375Y-111352550D01*
X201829728Y-111406716D01*
X202462037Y-110774408D01*
X202479075Y-110837993D01*
X202544901Y-110952007D01*
X202637993Y-111045099D01*
X202752007Y-111110925D01*
X202815590Y-111127962D01*
X202183282Y-111760269D01*
X202183282Y-111760270D01*
X202237449Y-111799624D01*
X202426782Y-111896095D01*
X202628870Y-111961757D01*
X202838754Y-111995000D01*
X203051246Y-111995000D01*
X203261127Y-111961757D01*
X203261130Y-111961757D01*
X203463217Y-111896095D01*
X203652554Y-111799622D01*
X203706716Y-111760270D01*
X203706717Y-111760270D01*
X203074408Y-111127962D01*
X203137993Y-111110925D01*
X203252007Y-111045099D01*
X203345099Y-110952007D01*
X203410925Y-110837993D01*
X203427962Y-110774409D01*
X204060270Y-111406717D01*
X204060270Y-111406716D01*
X204099622Y-111352554D01*
X204196095Y-111163217D01*
X204261757Y-110961130D01*
X204261757Y-110961127D01*
X204295000Y-110751246D01*
X204295000Y-110538753D01*
X218195000Y-110538753D01*
X218195000Y-110751246D01*
X218228242Y-110961127D01*
X218228242Y-110961130D01*
X218293904Y-111163217D01*
X218390375Y-111352550D01*
X218429728Y-111406716D01*
X219062037Y-110774408D01*
X219079075Y-110837993D01*
X219144901Y-110952007D01*
X219237993Y-111045099D01*
X219352007Y-111110925D01*
X219415590Y-111127962D01*
X218783282Y-111760269D01*
X218783282Y-111760270D01*
X218837449Y-111799624D01*
X219026782Y-111896095D01*
X219228870Y-111961757D01*
X219438754Y-111995000D01*
X219651246Y-111995000D01*
X219861127Y-111961757D01*
X219861130Y-111961757D01*
X220063217Y-111896095D01*
X220252554Y-111799622D01*
X220306716Y-111760270D01*
X220306717Y-111760270D01*
X219674408Y-111127962D01*
X219737993Y-111110925D01*
X219852007Y-111045099D01*
X219945099Y-110952007D01*
X220010925Y-110837993D01*
X220027962Y-110774408D01*
X220660270Y-111406717D01*
X220660270Y-111406716D01*
X220699622Y-111352554D01*
X220796095Y-111163217D01*
X220849880Y-110997682D01*
X228700000Y-110997682D01*
X228700000Y-111202317D01*
X228732009Y-111404417D01*
X228795244Y-111599031D01*
X228888141Y-111781350D01*
X228888147Y-111781359D01*
X228920523Y-111825921D01*
X228920524Y-111825922D01*
X229600000Y-111146446D01*
X229600000Y-111152661D01*
X229627259Y-111254394D01*
X229679920Y-111345606D01*
X229754394Y-111420080D01*
X229845606Y-111472741D01*
X229947339Y-111500000D01*
X229953553Y-111500000D01*
X229274076Y-112179474D01*
X229318650Y-112211859D01*
X229500968Y-112304755D01*
X229695582Y-112367990D01*
X229897683Y-112400000D01*
X230102317Y-112400000D01*
X230304417Y-112367990D01*
X230499031Y-112304755D01*
X230681349Y-112211859D01*
X230725921Y-112179474D01*
X230046447Y-111500000D01*
X230052661Y-111500000D01*
X230154394Y-111472741D01*
X230245606Y-111420080D01*
X230320080Y-111345606D01*
X230372741Y-111254394D01*
X230400000Y-111152661D01*
X230400000Y-111146447D01*
X231079474Y-111825921D01*
X231111859Y-111781349D01*
X231204755Y-111599031D01*
X231267990Y-111404417D01*
X231300000Y-111202317D01*
X231300000Y-110997682D01*
X231267990Y-110795582D01*
X231204755Y-110600968D01*
X231111859Y-110418650D01*
X231079474Y-110374077D01*
X231079474Y-110374076D01*
X230400000Y-111053551D01*
X230400000Y-111047339D01*
X230372741Y-110945606D01*
X230320080Y-110854394D01*
X230245606Y-110779920D01*
X230154394Y-110727259D01*
X230052661Y-110700000D01*
X230046446Y-110700000D01*
X230725922Y-110020524D01*
X230725921Y-110020523D01*
X230681359Y-109988147D01*
X230681350Y-109988141D01*
X230499031Y-109895244D01*
X230304417Y-109832009D01*
X230102317Y-109800000D01*
X229897683Y-109800000D01*
X229695582Y-109832009D01*
X229500968Y-109895244D01*
X229318644Y-109988143D01*
X229274077Y-110020523D01*
X229274077Y-110020524D01*
X229953554Y-110700000D01*
X229947339Y-110700000D01*
X229845606Y-110727259D01*
X229754394Y-110779920D01*
X229679920Y-110854394D01*
X229627259Y-110945606D01*
X229600000Y-111047339D01*
X229600000Y-111053553D01*
X228920524Y-110374077D01*
X228920523Y-110374077D01*
X228888143Y-110418644D01*
X228795244Y-110600968D01*
X228732009Y-110795582D01*
X228700000Y-110997682D01*
X220849880Y-110997682D01*
X220861756Y-110961132D01*
X220861758Y-110961125D01*
X220895000Y-110751246D01*
X220895000Y-110538753D01*
X220861757Y-110328872D01*
X220861757Y-110328869D01*
X220796095Y-110126782D01*
X220699624Y-109937449D01*
X220660270Y-109883282D01*
X220660269Y-109883282D01*
X220027962Y-110515590D01*
X220010925Y-110452007D01*
X219945099Y-110337993D01*
X219852007Y-110244901D01*
X219737993Y-110179075D01*
X219674409Y-110162037D01*
X220306716Y-109529728D01*
X220252550Y-109490375D01*
X220058879Y-109391694D01*
X220059396Y-109390678D01*
X220009192Y-109350221D01*
X219987127Y-109283927D01*
X220004406Y-109216228D01*
X220055542Y-109168617D01*
X220111048Y-109155500D01*
X220414750Y-109155500D01*
X220414751Y-109155499D01*
X220429568Y-109152552D01*
X220473229Y-109143868D01*
X220473229Y-109143867D01*
X220473231Y-109143867D01*
X220539552Y-109099552D01*
X220583867Y-109033231D01*
X220583867Y-109033229D01*
X220583868Y-109033229D01*
X220595499Y-108974752D01*
X220595500Y-108974750D01*
X220595500Y-108805096D01*
X224699500Y-108805096D01*
X224699500Y-110005114D01*
X224699501Y-110005131D01*
X224710000Y-110107909D01*
X224710001Y-110107912D01*
X224765185Y-110274444D01*
X224765187Y-110274449D01*
X224798754Y-110328869D01*
X224857288Y-110423769D01*
X224981344Y-110547825D01*
X225130666Y-110639927D01*
X225297203Y-110695112D01*
X225399991Y-110705613D01*
X226600008Y-110705612D01*
X226702797Y-110695112D01*
X226869334Y-110639927D01*
X227018656Y-110547825D01*
X227142712Y-110423769D01*
X227234814Y-110274447D01*
X227289999Y-110107910D01*
X227300500Y-110005122D01*
X227300499Y-108805105D01*
X227289999Y-108702316D01*
X227234814Y-108535779D01*
X227142712Y-108386457D01*
X227018656Y-108262401D01*
X226925888Y-108205182D01*
X226869336Y-108170300D01*
X226869335Y-108170299D01*
X226869334Y-108170299D01*
X226807558Y-108149828D01*
X226750115Y-108110056D01*
X226723292Y-108045540D01*
X226722946Y-108022393D01*
X226725921Y-107984586D01*
X226046447Y-107305113D01*
X226052661Y-107305113D01*
X226154394Y-107277854D01*
X226245606Y-107225193D01*
X226320080Y-107150719D01*
X226372741Y-107059507D01*
X226400000Y-106957774D01*
X226400000Y-106951560D01*
X227079474Y-107631034D01*
X227111859Y-107586462D01*
X227204755Y-107404144D01*
X227267990Y-107209530D01*
X227300000Y-107007430D01*
X227300000Y-106802795D01*
X227267990Y-106600695D01*
X227204755Y-106406081D01*
X227111859Y-106223763D01*
X227079474Y-106179190D01*
X227079474Y-106179189D01*
X226400000Y-106858664D01*
X226400000Y-106852452D01*
X226372741Y-106750719D01*
X226320080Y-106659507D01*
X226245606Y-106585033D01*
X226154394Y-106532372D01*
X226052661Y-106505113D01*
X226046446Y-106505113D01*
X226725922Y-105825637D01*
X226725921Y-105825636D01*
X226681359Y-105793260D01*
X226681350Y-105793254D01*
X226499031Y-105700357D01*
X226304417Y-105637122D01*
X226102317Y-105605113D01*
X225897683Y-105605113D01*
X225695582Y-105637122D01*
X225500968Y-105700357D01*
X225318644Y-105793256D01*
X225274077Y-105825636D01*
X225274077Y-105825637D01*
X225953554Y-106505113D01*
X225947339Y-106505113D01*
X225845606Y-106532372D01*
X225754394Y-106585033D01*
X225679920Y-106659507D01*
X225627259Y-106750719D01*
X225600000Y-106852452D01*
X225600000Y-106858666D01*
X224920524Y-106179190D01*
X224920523Y-106179190D01*
X224888143Y-106223757D01*
X224795244Y-106406081D01*
X224732009Y-106600695D01*
X224700000Y-106802795D01*
X224700000Y-107007430D01*
X224732009Y-107209530D01*
X224795244Y-107404144D01*
X224888141Y-107586463D01*
X224888147Y-107586472D01*
X224920523Y-107631034D01*
X224920524Y-107631035D01*
X225600000Y-106951559D01*
X225600000Y-106957774D01*
X225627259Y-107059507D01*
X225679920Y-107150719D01*
X225754394Y-107225193D01*
X225845606Y-107277854D01*
X225947339Y-107305113D01*
X225953553Y-107305113D01*
X225274076Y-107984587D01*
X225277052Y-108022395D01*
X225262687Y-108090772D01*
X225213636Y-108140528D01*
X225192440Y-108149828D01*
X225130672Y-108170297D01*
X225130663Y-108170300D01*
X224981342Y-108262402D01*
X224857289Y-108386455D01*
X224765187Y-108535776D01*
X224765186Y-108535779D01*
X224710001Y-108702316D01*
X224710001Y-108702317D01*
X224710000Y-108702317D01*
X224699500Y-108805096D01*
X220595500Y-108805096D01*
X220595500Y-107235249D01*
X220595499Y-107235247D01*
X220583868Y-107176770D01*
X220583867Y-107176769D01*
X220539552Y-107110447D01*
X220473230Y-107066132D01*
X220473229Y-107066131D01*
X220414752Y-107054500D01*
X220414748Y-107054500D01*
X218675252Y-107054500D01*
X218675247Y-107054500D01*
X218616770Y-107066131D01*
X218616769Y-107066132D01*
X218550447Y-107110447D01*
X218506132Y-107176769D01*
X218506131Y-107176770D01*
X218494500Y-107235247D01*
X218494500Y-108974752D01*
X218506131Y-109033229D01*
X218506132Y-109033230D01*
X218550447Y-109099552D01*
X218616769Y-109143867D01*
X218616770Y-109143868D01*
X218675247Y-109155499D01*
X218675250Y-109155500D01*
X218978952Y-109155500D01*
X219045991Y-109175185D01*
X219091746Y-109227989D01*
X219101690Y-109297147D01*
X219072665Y-109360703D01*
X219030735Y-109390938D01*
X219031121Y-109391694D01*
X218837439Y-109490380D01*
X218783282Y-109529727D01*
X218783282Y-109529728D01*
X219415591Y-110162037D01*
X219352007Y-110179075D01*
X219237993Y-110244901D01*
X219144901Y-110337993D01*
X219079075Y-110452007D01*
X219062037Y-110515590D01*
X218429728Y-109883282D01*
X218429727Y-109883282D01*
X218390380Y-109937439D01*
X218293904Y-110126782D01*
X218228242Y-110328869D01*
X218228242Y-110328872D01*
X218195000Y-110538753D01*
X204295000Y-110538753D01*
X204261757Y-110328872D01*
X204261757Y-110328869D01*
X204196095Y-110126782D01*
X204099624Y-109937449D01*
X204060270Y-109883282D01*
X204060269Y-109883282D01*
X203427962Y-110515590D01*
X203410925Y-110452007D01*
X203345099Y-110337993D01*
X203252007Y-110244901D01*
X203137993Y-110179075D01*
X203074409Y-110162037D01*
X203743802Y-109492642D01*
X203805125Y-109459157D01*
X203819833Y-109460078D01*
X203819556Y-109457501D01*
X203902375Y-109448598D01*
X204037086Y-109398354D01*
X204037093Y-109398350D01*
X204152187Y-109312190D01*
X204152190Y-109312187D01*
X204238350Y-109197093D01*
X204238354Y-109197086D01*
X204288596Y-109062379D01*
X204288598Y-109062372D01*
X204294999Y-109002844D01*
X204295000Y-109002827D01*
X204295000Y-108355000D01*
X203378012Y-108355000D01*
X203410925Y-108297993D01*
X203445000Y-108170826D01*
X203445000Y-108039174D01*
X203410925Y-107912007D01*
X203378012Y-107855000D01*
X204295000Y-107855000D01*
X204295000Y-107207172D01*
X204294999Y-107207155D01*
X204288598Y-107147627D01*
X204288596Y-107147620D01*
X204238354Y-107012913D01*
X204238350Y-107012906D01*
X204152190Y-106897813D01*
X204151364Y-106897194D01*
X204151361Y-106897191D01*
X204037093Y-106811649D01*
X204037086Y-106811645D01*
X203902379Y-106761403D01*
X203902372Y-106761401D01*
X203842844Y-106755000D01*
X203195000Y-106755000D01*
X203195000Y-107671988D01*
X203137993Y-107639075D01*
X203010826Y-107605000D01*
X202879174Y-107605000D01*
X202752007Y-107639075D01*
X202695000Y-107671988D01*
X202695000Y-106755000D01*
X202047155Y-106755000D01*
X201987627Y-106761401D01*
X201987620Y-106761403D01*
X201852913Y-106811645D01*
X201852906Y-106811649D01*
X201737812Y-106897809D01*
X201737809Y-106897812D01*
X201651649Y-107012906D01*
X201651645Y-107012913D01*
X201601403Y-107147620D01*
X201601401Y-107147627D01*
X201595000Y-107207155D01*
X141947035Y-107207155D01*
X141892335Y-107166206D01*
X141892328Y-107166202D01*
X141757482Y-107115908D01*
X141757483Y-107115908D01*
X141697883Y-107109501D01*
X141697881Y-107109500D01*
X141697873Y-107109500D01*
X141697864Y-107109500D01*
X139902129Y-107109500D01*
X139902123Y-107109501D01*
X139842516Y-107115908D01*
X139707671Y-107166202D01*
X139707664Y-107166206D01*
X139592455Y-107252452D01*
X139592452Y-107252455D01*
X139506206Y-107367664D01*
X139506202Y-107367671D01*
X139455908Y-107502517D01*
X139449501Y-107562116D01*
X139449501Y-107562123D01*
X139449500Y-107562135D01*
X139449500Y-109357870D01*
X139449501Y-109357876D01*
X139455908Y-109417483D01*
X139506202Y-109552328D01*
X139506206Y-109552335D01*
X139592452Y-109667544D01*
X139592455Y-109667547D01*
X139707664Y-109753793D01*
X139707671Y-109753797D01*
X139839082Y-109802810D01*
X139895016Y-109844681D01*
X139919433Y-109910145D01*
X139904582Y-109978418D01*
X139883431Y-110006673D01*
X139769889Y-110120215D01*
X139644951Y-110292179D01*
X139548444Y-110481585D01*
X139482753Y-110683760D01*
X139450279Y-110888794D01*
X139449500Y-110893713D01*
X139449500Y-111106287D01*
X139482754Y-111316243D01*
X139509968Y-111400000D01*
X139548444Y-111518414D01*
X139644951Y-111707820D01*
X139769890Y-111879786D01*
X139920213Y-112030109D01*
X140092179Y-112155048D01*
X140092181Y-112155049D01*
X140092184Y-112155051D01*
X140101493Y-112159794D01*
X140152290Y-112207766D01*
X140169087Y-112275587D01*
X140146552Y-112341722D01*
X140101505Y-112380760D01*
X140092446Y-112385376D01*
X140092440Y-112385380D01*
X140038282Y-112424727D01*
X140038282Y-112424728D01*
X140670591Y-113057037D01*
X140607007Y-113074075D01*
X140492993Y-113139901D01*
X140399901Y-113232993D01*
X140334075Y-113347007D01*
X140317037Y-113410591D01*
X139684728Y-112778282D01*
X139684727Y-112778282D01*
X139645380Y-112832439D01*
X139548904Y-113021782D01*
X139483242Y-113223869D01*
X139483242Y-113223872D01*
X139450000Y-113433753D01*
X139450000Y-113646246D01*
X139483242Y-113856127D01*
X139483242Y-113856130D01*
X139548904Y-114058217D01*
X139645375Y-114247550D01*
X139684728Y-114301716D01*
X140317037Y-113669408D01*
X140334075Y-113732993D01*
X140399901Y-113847007D01*
X140492993Y-113940099D01*
X140607007Y-114005925D01*
X140670590Y-114022962D01*
X140038282Y-114655269D01*
X140038282Y-114655270D01*
X140092449Y-114694624D01*
X140281782Y-114791095D01*
X140483870Y-114856757D01*
X140693754Y-114890000D01*
X140906246Y-114890000D01*
X141116127Y-114856757D01*
X141116130Y-114856757D01*
X141318217Y-114791095D01*
X141507554Y-114694622D01*
X141561716Y-114655270D01*
X141561717Y-114655270D01*
X140929408Y-114022962D01*
X140992993Y-114005925D01*
X141107007Y-113940099D01*
X141200099Y-113847007D01*
X141265925Y-113732993D01*
X141282962Y-113669409D01*
X141915270Y-114301717D01*
X141915270Y-114301716D01*
X141954622Y-114247554D01*
X142051095Y-114058217D01*
X142116757Y-113856130D01*
X142116757Y-113856127D01*
X142150000Y-113646246D01*
X142150000Y-113433753D01*
X142116757Y-113223872D01*
X142116757Y-113223869D01*
X142051095Y-113021782D01*
X141954624Y-112832449D01*
X141915270Y-112778282D01*
X141915269Y-112778282D01*
X141282962Y-113410590D01*
X141265925Y-113347007D01*
X141200099Y-113232993D01*
X141107007Y-113139901D01*
X140992993Y-113074075D01*
X140929409Y-113057037D01*
X141561716Y-112424728D01*
X141507547Y-112385373D01*
X141507547Y-112385372D01*
X141498500Y-112380763D01*
X141447706Y-112332788D01*
X141430912Y-112264966D01*
X141453451Y-112198832D01*
X141498508Y-112159793D01*
X141507816Y-112155051D01*
X141598358Y-112089269D01*
X141679786Y-112030109D01*
X141679788Y-112030106D01*
X141679792Y-112030104D01*
X141830104Y-111879792D01*
X141830106Y-111879788D01*
X141830109Y-111879786D01*
X141955049Y-111707819D01*
X141962497Y-111693203D01*
X142010473Y-111642408D01*
X142072981Y-111625500D01*
X163969548Y-111625500D01*
X164036587Y-111645185D01*
X164057229Y-111661819D01*
X173588421Y-121193011D01*
X173621906Y-121254334D01*
X173616922Y-121324026D01*
X173575050Y-121379959D01*
X173509586Y-121404376D01*
X173498289Y-121404337D01*
X173498289Y-121404500D01*
X173296578Y-121404500D01*
X173102173Y-121435290D01*
X172914970Y-121496117D01*
X172739594Y-121585476D01*
X172648741Y-121651485D01*
X172580354Y-121701172D01*
X172580352Y-121701174D01*
X172580351Y-121701174D01*
X172441174Y-121840351D01*
X172441174Y-121840352D01*
X172441172Y-121840354D01*
X172391485Y-121908741D01*
X172325476Y-121999594D01*
X172235485Y-122176213D01*
X172187511Y-122227009D01*
X172119690Y-122243804D01*
X172053555Y-122221267D01*
X172014515Y-122176213D01*
X171970640Y-122090104D01*
X171924524Y-121999595D01*
X171808828Y-121840354D01*
X171669646Y-121701172D01*
X171510405Y-121585476D01*
X171460225Y-121559908D01*
X171335029Y-121496117D01*
X171147826Y-121435290D01*
X170953422Y-121404500D01*
X170953417Y-121404500D01*
X170756583Y-121404500D01*
X170756578Y-121404500D01*
X170562173Y-121435290D01*
X170374970Y-121496117D01*
X170199594Y-121585476D01*
X170108741Y-121651485D01*
X170040354Y-121701172D01*
X170040352Y-121701174D01*
X170040351Y-121701174D01*
X169901174Y-121840351D01*
X169901174Y-121840352D01*
X169901172Y-121840354D01*
X169851485Y-121908741D01*
X169785476Y-121999594D01*
X169695485Y-122176213D01*
X169647511Y-122227009D01*
X169579690Y-122243804D01*
X169513555Y-122221267D01*
X169474515Y-122176213D01*
X169430640Y-122090104D01*
X169384524Y-121999595D01*
X169268828Y-121840354D01*
X169129646Y-121701172D01*
X168970405Y-121585476D01*
X168920225Y-121559908D01*
X168795029Y-121496117D01*
X168607826Y-121435290D01*
X168413422Y-121404500D01*
X168413417Y-121404500D01*
X168216583Y-121404500D01*
X168216578Y-121404500D01*
X168022173Y-121435290D01*
X167834970Y-121496117D01*
X167659594Y-121585476D01*
X167568741Y-121651485D01*
X167500354Y-121701172D01*
X167500352Y-121701174D01*
X167500351Y-121701174D01*
X167361174Y-121840351D01*
X167361174Y-121840352D01*
X167361172Y-121840354D01*
X167311485Y-121908741D01*
X167245476Y-121999594D01*
X167155485Y-122176213D01*
X167107511Y-122227009D01*
X167039690Y-122243804D01*
X166973555Y-122221267D01*
X166934515Y-122176213D01*
X166890640Y-122090104D01*
X166844524Y-121999595D01*
X166728828Y-121840354D01*
X166589646Y-121701172D01*
X166430405Y-121585476D01*
X166380225Y-121559908D01*
X166255029Y-121496117D01*
X166067826Y-121435290D01*
X165873422Y-121404500D01*
X165873417Y-121404500D01*
X165676583Y-121404500D01*
X165676578Y-121404500D01*
X165482173Y-121435290D01*
X165294970Y-121496117D01*
X165119594Y-121585476D01*
X165028741Y-121651485D01*
X164960354Y-121701172D01*
X164960352Y-121701174D01*
X164960351Y-121701174D01*
X164821174Y-121840351D01*
X164821174Y-121840352D01*
X164821172Y-121840354D01*
X164771485Y-121908741D01*
X164705476Y-121999594D01*
X164615485Y-122176213D01*
X164567511Y-122227009D01*
X164499690Y-122243804D01*
X164433555Y-122221267D01*
X164394515Y-122176213D01*
X164350640Y-122090104D01*
X164304524Y-121999595D01*
X164188828Y-121840354D01*
X164049646Y-121701172D01*
X163890405Y-121585476D01*
X163840225Y-121559908D01*
X163715029Y-121496117D01*
X163527826Y-121435290D01*
X163333422Y-121404500D01*
X163333417Y-121404500D01*
X163136583Y-121404500D01*
X163136578Y-121404500D01*
X162942173Y-121435290D01*
X162754970Y-121496117D01*
X162579594Y-121585476D01*
X162488741Y-121651485D01*
X162420354Y-121701172D01*
X162420352Y-121701174D01*
X162420351Y-121701174D01*
X162281174Y-121840351D01*
X162281174Y-121840352D01*
X162281172Y-121840354D01*
X162231485Y-121908741D01*
X162165476Y-121999594D01*
X162075485Y-122176213D01*
X162027511Y-122227009D01*
X161959690Y-122243804D01*
X161893555Y-122221267D01*
X161854515Y-122176213D01*
X161810640Y-122090104D01*
X161764524Y-121999595D01*
X161648828Y-121840354D01*
X161509646Y-121701172D01*
X161350405Y-121585476D01*
X161300225Y-121559908D01*
X161175029Y-121496117D01*
X160987826Y-121435290D01*
X160793422Y-121404500D01*
X160793417Y-121404500D01*
X160596583Y-121404500D01*
X160596578Y-121404500D01*
X160402173Y-121435290D01*
X160214970Y-121496117D01*
X160039594Y-121585476D01*
X159948741Y-121651485D01*
X159880354Y-121701172D01*
X159880352Y-121701174D01*
X159880351Y-121701174D01*
X159741174Y-121840351D01*
X159741174Y-121840352D01*
X159741172Y-121840354D01*
X159691485Y-121908741D01*
X159625476Y-121999594D01*
X159535485Y-122176213D01*
X159487511Y-122227009D01*
X159419690Y-122243804D01*
X159353555Y-122221267D01*
X159314515Y-122176213D01*
X159270640Y-122090104D01*
X159224524Y-121999595D01*
X159108828Y-121840354D01*
X158969646Y-121701172D01*
X158810405Y-121585476D01*
X158760225Y-121559908D01*
X158635029Y-121496117D01*
X158447826Y-121435290D01*
X158253422Y-121404500D01*
X158253417Y-121404500D01*
X158056583Y-121404500D01*
X158056578Y-121404500D01*
X157862173Y-121435290D01*
X157674970Y-121496117D01*
X157499594Y-121585476D01*
X157408741Y-121651485D01*
X157340354Y-121701172D01*
X157340352Y-121701174D01*
X157340351Y-121701174D01*
X157201174Y-121840351D01*
X157201174Y-121840352D01*
X157201172Y-121840354D01*
X157151485Y-121908741D01*
X157085476Y-121999594D01*
X156995485Y-122176213D01*
X156947511Y-122227009D01*
X156879690Y-122243804D01*
X156813555Y-122221267D01*
X156774515Y-122176213D01*
X156730640Y-122090104D01*
X156684524Y-121999595D01*
X156568828Y-121840354D01*
X156429646Y-121701172D01*
X156270405Y-121585476D01*
X156220225Y-121559908D01*
X156095029Y-121496117D01*
X155907826Y-121435290D01*
X155713422Y-121404500D01*
X155713417Y-121404500D01*
X155516583Y-121404500D01*
X155516578Y-121404500D01*
X155322173Y-121435290D01*
X155134970Y-121496117D01*
X154959594Y-121585476D01*
X154868741Y-121651485D01*
X154800354Y-121701172D01*
X154800352Y-121701174D01*
X154800351Y-121701174D01*
X154661174Y-121840351D01*
X154661174Y-121840352D01*
X154661172Y-121840354D01*
X154611485Y-121908741D01*
X154545476Y-121999594D01*
X154455485Y-122176213D01*
X154407511Y-122227009D01*
X154339690Y-122243804D01*
X154273555Y-122221267D01*
X154234515Y-122176213D01*
X154190640Y-122090104D01*
X154144524Y-121999595D01*
X154028828Y-121840354D01*
X153889646Y-121701172D01*
X153730405Y-121585476D01*
X153680225Y-121559908D01*
X153555029Y-121496117D01*
X153367826Y-121435290D01*
X153173422Y-121404500D01*
X153173417Y-121404500D01*
X152976583Y-121404500D01*
X152976578Y-121404500D01*
X152782173Y-121435290D01*
X152594970Y-121496117D01*
X152419594Y-121585476D01*
X152328741Y-121651485D01*
X152260354Y-121701172D01*
X152260352Y-121701174D01*
X152260351Y-121701174D01*
X152121174Y-121840351D01*
X152121174Y-121840352D01*
X152121172Y-121840354D01*
X152071485Y-121908741D01*
X152005476Y-121999594D01*
X151915485Y-122176213D01*
X151867511Y-122227009D01*
X151799690Y-122243804D01*
X151733555Y-122221267D01*
X151694515Y-122176213D01*
X151650640Y-122090104D01*
X151604524Y-121999595D01*
X151488828Y-121840354D01*
X151349646Y-121701172D01*
X151190405Y-121585476D01*
X151140225Y-121559908D01*
X151015029Y-121496117D01*
X150827826Y-121435290D01*
X150633422Y-121404500D01*
X150633417Y-121404500D01*
X150436583Y-121404500D01*
X150436578Y-121404500D01*
X150242173Y-121435290D01*
X150054970Y-121496117D01*
X149879594Y-121585476D01*
X149788741Y-121651485D01*
X149720354Y-121701172D01*
X149720352Y-121701174D01*
X149720351Y-121701174D01*
X149581174Y-121840351D01*
X149581174Y-121840352D01*
X149581172Y-121840354D01*
X149531485Y-121908741D01*
X149465476Y-121999594D01*
X149375485Y-122176213D01*
X149327511Y-122227009D01*
X149259690Y-122243804D01*
X149193555Y-122221267D01*
X149154515Y-122176213D01*
X149110640Y-122090104D01*
X149064524Y-121999595D01*
X148948828Y-121840354D01*
X148809646Y-121701172D01*
X148650405Y-121585476D01*
X148600225Y-121559908D01*
X148475029Y-121496117D01*
X148287826Y-121435290D01*
X148093422Y-121404500D01*
X148093417Y-121404500D01*
X147896583Y-121404500D01*
X147896578Y-121404500D01*
X147702173Y-121435290D01*
X147514970Y-121496117D01*
X147339594Y-121585476D01*
X147248741Y-121651485D01*
X147180354Y-121701172D01*
X147180352Y-121701174D01*
X147180351Y-121701174D01*
X147041174Y-121840351D01*
X147041174Y-121840352D01*
X147041172Y-121840354D01*
X146991485Y-121908741D01*
X146925476Y-121999594D01*
X146836117Y-122174970D01*
X146775290Y-122362173D01*
X146744500Y-122556577D01*
X146744500Y-122753422D01*
X146775290Y-122947826D01*
X146836117Y-123135029D01*
X146911898Y-123283757D01*
X146925476Y-123310405D01*
X147041172Y-123469646D01*
X147180354Y-123608828D01*
X147339595Y-123724524D01*
X147422455Y-123766743D01*
X147514970Y-123813882D01*
X147514972Y-123813882D01*
X147514975Y-123813884D01*
X147592240Y-123838989D01*
X147702173Y-123874709D01*
X147896578Y-123905500D01*
X147896583Y-123905500D01*
X148093422Y-123905500D01*
X148287826Y-123874709D01*
X148475025Y-123813884D01*
X148650405Y-123724524D01*
X148809646Y-123608828D01*
X148948828Y-123469646D01*
X149064524Y-123310405D01*
X149120380Y-123200781D01*
X149154515Y-123133787D01*
X149202489Y-123082990D01*
X149270310Y-123066195D01*
X149336445Y-123088732D01*
X149375485Y-123133787D01*
X149465474Y-123310403D01*
X149488864Y-123342596D01*
X149581172Y-123469646D01*
X149720354Y-123608828D01*
X149879595Y-123724524D01*
X149962455Y-123766743D01*
X150054970Y-123813882D01*
X150054972Y-123813882D01*
X150054975Y-123813884D01*
X150132240Y-123838989D01*
X150242173Y-123874709D01*
X150436578Y-123905500D01*
X150436583Y-123905500D01*
X150633422Y-123905500D01*
X150827826Y-123874709D01*
X151015025Y-123813884D01*
X151190405Y-123724524D01*
X151349646Y-123608828D01*
X151488828Y-123469646D01*
X151604524Y-123310405D01*
X151660380Y-123200781D01*
X151694515Y-123133787D01*
X151742489Y-123082990D01*
X151810310Y-123066195D01*
X151876445Y-123088732D01*
X151915485Y-123133787D01*
X152005474Y-123310403D01*
X152028864Y-123342596D01*
X152121172Y-123469646D01*
X152260354Y-123608828D01*
X152419595Y-123724524D01*
X152502455Y-123766743D01*
X152594970Y-123813882D01*
X152594972Y-123813882D01*
X152594975Y-123813884D01*
X152672240Y-123838989D01*
X152782173Y-123874709D01*
X152976578Y-123905500D01*
X152976583Y-123905500D01*
X153173422Y-123905500D01*
X153367826Y-123874709D01*
X153555025Y-123813884D01*
X153730405Y-123724524D01*
X153889646Y-123608828D01*
X154028828Y-123469646D01*
X154144524Y-123310405D01*
X154200380Y-123200781D01*
X154234515Y-123133787D01*
X154282489Y-123082990D01*
X154350310Y-123066195D01*
X154416445Y-123088732D01*
X154455485Y-123133787D01*
X154545474Y-123310403D01*
X154568864Y-123342596D01*
X154661172Y-123469646D01*
X154800354Y-123608828D01*
X154959595Y-123724524D01*
X155042455Y-123766743D01*
X155134970Y-123813882D01*
X155134972Y-123813882D01*
X155134975Y-123813884D01*
X155212240Y-123838989D01*
X155322173Y-123874709D01*
X155516578Y-123905500D01*
X155516583Y-123905500D01*
X155713422Y-123905500D01*
X155907826Y-123874709D01*
X156095025Y-123813884D01*
X156270405Y-123724524D01*
X156429646Y-123608828D01*
X156568828Y-123469646D01*
X156684524Y-123310405D01*
X156740380Y-123200781D01*
X156774515Y-123133787D01*
X156822489Y-123082990D01*
X156890310Y-123066195D01*
X156956445Y-123088732D01*
X156995485Y-123133787D01*
X157085474Y-123310403D01*
X157108864Y-123342596D01*
X157201172Y-123469646D01*
X157340354Y-123608828D01*
X157499595Y-123724524D01*
X157582455Y-123766743D01*
X157674970Y-123813882D01*
X157674972Y-123813882D01*
X157674975Y-123813884D01*
X157752240Y-123838989D01*
X157862173Y-123874709D01*
X158056578Y-123905500D01*
X158056583Y-123905500D01*
X158253422Y-123905500D01*
X158447826Y-123874709D01*
X158635025Y-123813884D01*
X158810405Y-123724524D01*
X158969646Y-123608828D01*
X159108828Y-123469646D01*
X159224524Y-123310405D01*
X159280380Y-123200781D01*
X159314515Y-123133787D01*
X159362489Y-123082990D01*
X159430310Y-123066195D01*
X159496445Y-123088732D01*
X159535485Y-123133787D01*
X159625474Y-123310403D01*
X159648864Y-123342596D01*
X159741172Y-123469646D01*
X159880354Y-123608828D01*
X160039595Y-123724524D01*
X160122455Y-123766743D01*
X160214970Y-123813882D01*
X160214972Y-123813882D01*
X160214975Y-123813884D01*
X160292240Y-123838989D01*
X160402173Y-123874709D01*
X160596578Y-123905500D01*
X160596583Y-123905500D01*
X160793422Y-123905500D01*
X160987826Y-123874709D01*
X161175025Y-123813884D01*
X161350405Y-123724524D01*
X161509646Y-123608828D01*
X161648828Y-123469646D01*
X161764524Y-123310405D01*
X161820380Y-123200781D01*
X161854515Y-123133787D01*
X161902489Y-123082990D01*
X161970310Y-123066195D01*
X162036445Y-123088732D01*
X162075485Y-123133787D01*
X162165474Y-123310403D01*
X162188864Y-123342596D01*
X162281172Y-123469646D01*
X162420354Y-123608828D01*
X162579595Y-123724524D01*
X162662455Y-123766743D01*
X162754970Y-123813882D01*
X162754972Y-123813882D01*
X162754975Y-123813884D01*
X162832240Y-123838989D01*
X162942173Y-123874709D01*
X163136578Y-123905500D01*
X163136583Y-123905500D01*
X163333422Y-123905500D01*
X163501933Y-123878810D01*
X163571226Y-123887764D01*
X163609012Y-123913602D01*
X164742016Y-125046606D01*
X164742045Y-125046637D01*
X164832263Y-125136855D01*
X164832267Y-125136858D01*
X164934707Y-125205307D01*
X164934711Y-125205309D01*
X164934714Y-125205311D01*
X165048548Y-125252463D01*
X165108971Y-125264481D01*
X165169393Y-125276500D01*
X165169394Y-125276500D01*
X184607268Y-125276500D01*
X184674307Y-125296185D01*
X184720062Y-125348989D01*
X184730006Y-125418147D01*
X184717753Y-125456795D01*
X184695244Y-125500969D01*
X184632009Y-125695582D01*
X184600000Y-125897682D01*
X184600000Y-126102317D01*
X184632009Y-126304417D01*
X184695244Y-126499031D01*
X184788141Y-126681350D01*
X184788147Y-126681359D01*
X184820523Y-126725921D01*
X184820524Y-126725922D01*
X185500000Y-126046446D01*
X185500000Y-126052661D01*
X185527259Y-126154394D01*
X185579920Y-126245606D01*
X185654394Y-126320080D01*
X185745606Y-126372741D01*
X185847339Y-126400000D01*
X185853553Y-126400000D01*
X185174076Y-127079474D01*
X185218650Y-127111859D01*
X185400968Y-127204755D01*
X185595582Y-127267990D01*
X185797683Y-127300000D01*
X186002317Y-127300000D01*
X186204417Y-127267990D01*
X186399031Y-127204755D01*
X186581349Y-127111859D01*
X186625921Y-127079474D01*
X185946447Y-126400000D01*
X185952661Y-126400000D01*
X186054394Y-126372741D01*
X186145606Y-126320080D01*
X186220080Y-126245606D01*
X186272741Y-126154394D01*
X186300000Y-126052661D01*
X186300000Y-126046447D01*
X186979474Y-126725921D01*
X187011859Y-126681349D01*
X187104755Y-126499031D01*
X187167990Y-126304417D01*
X187200000Y-126102317D01*
X187200000Y-125897682D01*
X187167990Y-125695582D01*
X187104755Y-125500969D01*
X187082247Y-125456795D01*
X187069351Y-125388126D01*
X187095627Y-125323386D01*
X187152733Y-125283128D01*
X187192732Y-125276500D01*
X189606707Y-125276500D01*
X189673746Y-125296185D01*
X189719501Y-125348989D01*
X189729445Y-125418147D01*
X189717192Y-125456795D01*
X189694781Y-125500776D01*
X189631522Y-125695465D01*
X189599500Y-125897648D01*
X189599500Y-126102351D01*
X189631522Y-126304534D01*
X189694781Y-126499223D01*
X189758691Y-126624653D01*
X189787585Y-126681359D01*
X189787715Y-126681613D01*
X189908028Y-126847213D01*
X190052786Y-126991971D01*
X190185158Y-127088143D01*
X190218390Y-127112287D01*
X190334607Y-127171503D01*
X190400776Y-127205218D01*
X190400778Y-127205218D01*
X190400781Y-127205220D01*
X190471543Y-127228212D01*
X190595465Y-127268477D01*
X190696557Y-127284488D01*
X190797648Y-127300500D01*
X190797649Y-127300500D01*
X191002351Y-127300500D01*
X191002352Y-127300500D01*
X191204534Y-127268477D01*
X191399219Y-127205220D01*
X191581610Y-127112287D01*
X191674590Y-127044732D01*
X191747213Y-126991971D01*
X191747215Y-126991968D01*
X191747219Y-126991966D01*
X191891966Y-126847219D01*
X191891968Y-126847215D01*
X191891971Y-126847213D01*
X191944732Y-126774590D01*
X192012287Y-126681610D01*
X192105220Y-126499219D01*
X192137464Y-126399983D01*
X221099500Y-126399983D01*
X221099500Y-127600001D01*
X221099501Y-127600018D01*
X221110000Y-127702796D01*
X221110001Y-127702799D01*
X221142211Y-127800000D01*
X221165186Y-127869334D01*
X221257288Y-128018656D01*
X221381344Y-128142712D01*
X221530666Y-128234814D01*
X221697203Y-128289999D01*
X221799991Y-128300500D01*
X223000008Y-128300499D01*
X223102797Y-128289999D01*
X223269334Y-128234814D01*
X223418656Y-128142712D01*
X223542712Y-128018656D01*
X223634814Y-127869334D01*
X223689999Y-127702797D01*
X223700500Y-127600009D01*
X223700499Y-126399992D01*
X223689999Y-126297203D01*
X223634814Y-126130666D01*
X223542712Y-125981344D01*
X223418656Y-125857288D01*
X223269334Y-125765186D01*
X223102797Y-125710001D01*
X223102795Y-125710000D01*
X223000010Y-125699500D01*
X221799998Y-125699500D01*
X221799981Y-125699501D01*
X221697203Y-125710000D01*
X221697200Y-125710001D01*
X221530668Y-125765185D01*
X221530663Y-125765187D01*
X221381342Y-125857289D01*
X221257289Y-125981342D01*
X221165187Y-126130663D01*
X221165186Y-126130666D01*
X221110001Y-126297203D01*
X221110001Y-126297204D01*
X221110000Y-126297204D01*
X221099500Y-126399983D01*
X192137464Y-126399983D01*
X192150938Y-126358515D01*
X192150938Y-126358514D01*
X192168476Y-126304538D01*
X192168476Y-126304537D01*
X192168477Y-126304534D01*
X192200500Y-126102352D01*
X192200500Y-125897648D01*
X192179520Y-125765185D01*
X192168477Y-125695465D01*
X192105218Y-125500776D01*
X192082808Y-125456795D01*
X192069912Y-125388126D01*
X192096188Y-125323385D01*
X192153294Y-125283128D01*
X192193293Y-125276500D01*
X226448417Y-125276500D01*
X226508839Y-125264481D01*
X226569262Y-125252463D01*
X226602602Y-125238652D01*
X226683096Y-125205312D01*
X226734319Y-125171084D01*
X226785543Y-125136858D01*
X226872668Y-125049733D01*
X226872668Y-125049731D01*
X226882876Y-125039524D01*
X226882878Y-125039521D01*
X228287819Y-123634580D01*
X228349142Y-123601095D01*
X228418834Y-123606079D01*
X228474767Y-123647951D01*
X228499184Y-123713415D01*
X228499500Y-123722261D01*
X228499500Y-123802351D01*
X228531522Y-124004534D01*
X228594781Y-124199223D01*
X228687715Y-124381613D01*
X228808028Y-124547213D01*
X228952786Y-124691971D01*
X229107749Y-124804556D01*
X229118390Y-124812287D01*
X229195458Y-124851555D01*
X229300776Y-124905218D01*
X229300778Y-124905218D01*
X229300781Y-124905220D01*
X229405137Y-124939127D01*
X229495465Y-124968477D01*
X229596557Y-124984488D01*
X229697648Y-125000500D01*
X229697649Y-125000500D01*
X229902351Y-125000500D01*
X229902352Y-125000500D01*
X230104534Y-124968477D01*
X230299219Y-124905220D01*
X230481610Y-124812287D01*
X230574590Y-124744732D01*
X230647213Y-124691971D01*
X230647215Y-124691968D01*
X230647219Y-124691966D01*
X230791966Y-124547219D01*
X230791968Y-124547215D01*
X230791971Y-124547213D01*
X230844732Y-124474590D01*
X230912287Y-124381610D01*
X231005220Y-124199219D01*
X231068477Y-124004534D01*
X231100500Y-123802352D01*
X231100500Y-123597648D01*
X231081527Y-123477859D01*
X231068477Y-123395465D01*
X231035053Y-123292597D01*
X231005220Y-123200781D01*
X231005218Y-123200778D01*
X231005218Y-123200776D01*
X230953917Y-123100093D01*
X230912287Y-123018390D01*
X230904556Y-123007749D01*
X230791971Y-122852786D01*
X230647213Y-122708028D01*
X230481613Y-122587715D01*
X230481612Y-122587714D01*
X230481610Y-122587713D01*
X230420502Y-122556577D01*
X230299223Y-122494781D01*
X230104534Y-122431522D01*
X229929995Y-122403878D01*
X229902352Y-122399500D01*
X229822261Y-122399500D01*
X229755222Y-122379815D01*
X229709467Y-122327011D01*
X229699523Y-122257853D01*
X229728548Y-122194297D01*
X229734580Y-122187819D01*
X230221227Y-121701172D01*
X232679014Y-119243386D01*
X232740335Y-119209903D01*
X232810027Y-119214887D01*
X232865960Y-119256759D01*
X232867011Y-119258184D01*
X232969890Y-119399785D01*
X232969894Y-119399790D01*
X233120213Y-119550109D01*
X233292182Y-119675050D01*
X233300946Y-119679516D01*
X233351742Y-119727491D01*
X233368536Y-119795312D01*
X233345998Y-119861447D01*
X233300946Y-119900484D01*
X233292182Y-119904949D01*
X233120213Y-120029890D01*
X232969890Y-120180213D01*
X232844951Y-120352179D01*
X232748444Y-120541585D01*
X232682753Y-120743760D01*
X232649500Y-120953713D01*
X232649500Y-121166287D01*
X232650841Y-121174752D01*
X232679468Y-121355500D01*
X232682754Y-121376243D01*
X232734075Y-121534193D01*
X232748444Y-121578414D01*
X232844951Y-121767820D01*
X232969890Y-121939786D01*
X233120213Y-122090109D01*
X233292182Y-122215050D01*
X233300946Y-122219516D01*
X233351742Y-122267491D01*
X233368536Y-122335312D01*
X233345998Y-122401447D01*
X233300946Y-122440484D01*
X233292182Y-122444949D01*
X233120213Y-122569890D01*
X232969890Y-122720213D01*
X232844951Y-122892179D01*
X232748444Y-123081585D01*
X232748443Y-123081587D01*
X232748443Y-123081588D01*
X232748166Y-123082440D01*
X232682753Y-123283760D01*
X232649500Y-123493713D01*
X232649500Y-123706282D01*
X232649499Y-123706284D01*
X232682753Y-123916239D01*
X232682754Y-123916243D01*
X232734075Y-124074193D01*
X232748444Y-124118414D01*
X232844951Y-124307820D01*
X232969890Y-124479786D01*
X233120213Y-124630109D01*
X233292179Y-124755048D01*
X233292181Y-124755049D01*
X233292184Y-124755051D01*
X233481588Y-124851557D01*
X233683757Y-124917246D01*
X233893713Y-124950500D01*
X233893714Y-124950500D01*
X234106286Y-124950500D01*
X234106287Y-124950500D01*
X234316243Y-124917246D01*
X234518412Y-124851557D01*
X234707816Y-124755051D01*
X234794646Y-124691966D01*
X234879786Y-124630109D01*
X234879788Y-124630106D01*
X234879792Y-124630104D01*
X235030104Y-124479792D01*
X235030106Y-124479788D01*
X235030109Y-124479786D01*
X235155048Y-124307820D01*
X235155047Y-124307820D01*
X235155051Y-124307816D01*
X235251557Y-124118412D01*
X235257569Y-124099907D01*
X235297006Y-124042232D01*
X235361365Y-124015034D01*
X235430211Y-124026949D01*
X235481687Y-124074193D01*
X235499500Y-124138226D01*
X235499500Y-133375500D01*
X235479815Y-133442539D01*
X235427011Y-133488294D01*
X235375500Y-133499500D01*
X136624500Y-133499500D01*
X136557461Y-133479815D01*
X136511706Y-133427011D01*
X136500500Y-133375500D01*
X136500500Y-129278711D01*
X138749500Y-129278711D01*
X138749500Y-129521288D01*
X138781161Y-129761785D01*
X138843947Y-129996104D01*
X138926574Y-130195582D01*
X138936776Y-130220212D01*
X139058064Y-130430289D01*
X139058066Y-130430292D01*
X139058067Y-130430293D01*
X139205733Y-130622736D01*
X139205739Y-130622743D01*
X139377256Y-130794260D01*
X139377262Y-130794265D01*
X139569711Y-130941936D01*
X139779788Y-131063224D01*
X140003900Y-131156054D01*
X140238211Y-131218838D01*
X140418586Y-131242584D01*
X140478711Y-131250500D01*
X140478712Y-131250500D01*
X140721289Y-131250500D01*
X140769388Y-131244167D01*
X140961789Y-131218838D01*
X141196100Y-131156054D01*
X141420212Y-131063224D01*
X141630289Y-130941936D01*
X141822738Y-130794265D01*
X141994265Y-130622738D01*
X142141936Y-130430289D01*
X142263224Y-130220212D01*
X142356054Y-129996100D01*
X142418838Y-129761789D01*
X142450500Y-129521288D01*
X142450500Y-129278712D01*
X142418838Y-129038211D01*
X142356054Y-128803900D01*
X142354446Y-128800018D01*
X142289941Y-128644286D01*
X142271590Y-128599983D01*
X169199500Y-128599983D01*
X169199500Y-129800001D01*
X169199501Y-129800018D01*
X169210000Y-129902796D01*
X169210001Y-129902799D01*
X169265185Y-130069331D01*
X169265186Y-130069334D01*
X169357288Y-130218656D01*
X169481344Y-130342712D01*
X169630666Y-130434814D01*
X169797203Y-130489999D01*
X169899991Y-130500500D01*
X171100008Y-130500499D01*
X171202797Y-130489999D01*
X171369334Y-130434814D01*
X171518656Y-130342712D01*
X171642712Y-130218656D01*
X171734814Y-130069334D01*
X171758102Y-129999054D01*
X171762110Y-129991050D01*
X171780060Y-129971772D01*
X171795055Y-129950116D01*
X171803495Y-129946606D01*
X171809725Y-129939917D01*
X171835249Y-129933404D01*
X171859571Y-129923292D01*
X171875834Y-129923048D01*
X171877425Y-129922643D01*
X171878523Y-129923008D01*
X171882719Y-129922946D01*
X171920525Y-129925921D01*
X172600000Y-129246446D01*
X172600000Y-129252661D01*
X172627259Y-129354394D01*
X172679920Y-129445606D01*
X172754394Y-129520080D01*
X172845606Y-129572741D01*
X172947339Y-129600000D01*
X172953553Y-129600000D01*
X172274076Y-130279474D01*
X172318650Y-130311859D01*
X172500968Y-130404755D01*
X172695582Y-130467990D01*
X172897683Y-130500000D01*
X173102317Y-130500000D01*
X173304417Y-130467990D01*
X173499031Y-130404755D01*
X173512912Y-130397682D01*
X221100000Y-130397682D01*
X221100000Y-130602317D01*
X221132009Y-130804417D01*
X221195244Y-130999031D01*
X221288141Y-131181350D01*
X221288147Y-131181359D01*
X221320523Y-131225921D01*
X221320524Y-131225922D01*
X222000000Y-130546446D01*
X222000000Y-130552661D01*
X222027259Y-130654394D01*
X222079920Y-130745606D01*
X222154394Y-130820080D01*
X222245606Y-130872741D01*
X222347339Y-130900000D01*
X222353553Y-130900000D01*
X221674076Y-131579474D01*
X221718650Y-131611859D01*
X221900968Y-131704755D01*
X222095582Y-131767990D01*
X222297683Y-131800000D01*
X222502317Y-131800000D01*
X222704417Y-131767990D01*
X222899031Y-131704755D01*
X223081349Y-131611859D01*
X223125921Y-131579474D01*
X222446447Y-130900000D01*
X222452661Y-130900000D01*
X222554394Y-130872741D01*
X222645606Y-130820080D01*
X222720080Y-130745606D01*
X222772741Y-130654394D01*
X222800000Y-130552661D01*
X222800000Y-130546447D01*
X223479474Y-131225921D01*
X223511859Y-131181349D01*
X223604755Y-130999031D01*
X223667990Y-130804417D01*
X223700000Y-130602317D01*
X223700000Y-130397682D01*
X223667990Y-130195582D01*
X223604755Y-130000968D01*
X223511859Y-129818650D01*
X223479474Y-129774077D01*
X223479474Y-129774076D01*
X222800000Y-130453551D01*
X222800000Y-130447339D01*
X222772741Y-130345606D01*
X222720080Y-130254394D01*
X222645606Y-130179920D01*
X222554394Y-130127259D01*
X222452661Y-130100000D01*
X222446446Y-130100000D01*
X223125922Y-129420524D01*
X223125921Y-129420523D01*
X223081359Y-129388147D01*
X223081350Y-129388141D01*
X223075456Y-129385138D01*
X222899031Y-129295244D01*
X222848149Y-129278711D01*
X229549500Y-129278711D01*
X229549500Y-129521288D01*
X229581161Y-129761785D01*
X229643947Y-129996104D01*
X229726574Y-130195582D01*
X229736776Y-130220212D01*
X229858064Y-130430289D01*
X229858066Y-130430292D01*
X229858067Y-130430293D01*
X230005733Y-130622736D01*
X230005739Y-130622743D01*
X230177256Y-130794260D01*
X230177262Y-130794265D01*
X230369711Y-130941936D01*
X230579788Y-131063224D01*
X230803900Y-131156054D01*
X231038211Y-131218838D01*
X231218586Y-131242584D01*
X231278711Y-131250500D01*
X231278712Y-131250500D01*
X231521289Y-131250500D01*
X231569388Y-131244167D01*
X231761789Y-131218838D01*
X231996100Y-131156054D01*
X232220212Y-131063224D01*
X232430289Y-130941936D01*
X232622738Y-130794265D01*
X232794265Y-130622738D01*
X232941936Y-130430289D01*
X233063224Y-130220212D01*
X233156054Y-129996100D01*
X233218838Y-129761789D01*
X233250500Y-129521288D01*
X233250500Y-129278712D01*
X233218838Y-129038211D01*
X233156054Y-128803900D01*
X233063224Y-128579788D01*
X232941936Y-128369711D01*
X232811713Y-128200001D01*
X232794266Y-128177263D01*
X232794260Y-128177256D01*
X232622743Y-128005739D01*
X232622736Y-128005733D01*
X232430293Y-127858067D01*
X232430292Y-127858066D01*
X232430289Y-127858064D01*
X232220212Y-127736776D01*
X232158937Y-127711395D01*
X231996104Y-127643947D01*
X231832126Y-127600009D01*
X231761789Y-127581162D01*
X231761788Y-127581161D01*
X231761785Y-127581161D01*
X231521289Y-127549500D01*
X231521288Y-127549500D01*
X231278712Y-127549500D01*
X231278711Y-127549500D01*
X231038214Y-127581161D01*
X230803895Y-127643947D01*
X230579794Y-127736773D01*
X230579785Y-127736777D01*
X230369706Y-127858067D01*
X230177263Y-128005733D01*
X230177256Y-128005739D01*
X230005739Y-128177256D01*
X230005733Y-128177263D01*
X229858067Y-128369706D01*
X229736777Y-128579785D01*
X229736773Y-128579794D01*
X229643947Y-128803895D01*
X229581161Y-129038214D01*
X229549500Y-129278711D01*
X222848149Y-129278711D01*
X222704417Y-129232009D01*
X222502317Y-129200000D01*
X222297683Y-129200000D01*
X222095582Y-129232009D01*
X221900968Y-129295244D01*
X221718644Y-129388143D01*
X221674077Y-129420523D01*
X221674077Y-129420524D01*
X222353554Y-130100000D01*
X222347339Y-130100000D01*
X222245606Y-130127259D01*
X222154394Y-130179920D01*
X222079920Y-130254394D01*
X222027259Y-130345606D01*
X222000000Y-130447339D01*
X222000000Y-130453553D01*
X221320524Y-129774077D01*
X221320523Y-129774077D01*
X221288143Y-129818644D01*
X221195244Y-130000968D01*
X221132009Y-130195582D01*
X221100000Y-130397682D01*
X173512912Y-130397682D01*
X173681349Y-130311859D01*
X173707996Y-130292499D01*
X173725921Y-130279474D01*
X173046447Y-129600000D01*
X173052661Y-129600000D01*
X173154394Y-129572741D01*
X173245606Y-129520080D01*
X173320080Y-129445606D01*
X173372741Y-129354394D01*
X173400000Y-129252661D01*
X173400000Y-129246448D01*
X174079474Y-129925922D01*
X174079474Y-129925921D01*
X174111859Y-129881349D01*
X174204755Y-129699031D01*
X174267990Y-129504417D01*
X174300000Y-129302317D01*
X174300000Y-129097682D01*
X174267990Y-128895582D01*
X174204755Y-128700968D01*
X174111859Y-128518650D01*
X174079474Y-128474077D01*
X174079474Y-128474076D01*
X173400000Y-129153551D01*
X173400000Y-129147339D01*
X173372741Y-129045606D01*
X173320080Y-128954394D01*
X173245606Y-128879920D01*
X173154394Y-128827259D01*
X173052661Y-128800000D01*
X173046446Y-128800000D01*
X173725922Y-128120524D01*
X173725921Y-128120523D01*
X173681359Y-128088147D01*
X173681350Y-128088141D01*
X173499031Y-127995244D01*
X173304417Y-127932009D01*
X173102317Y-127900000D01*
X172897683Y-127900000D01*
X172695582Y-127932009D01*
X172500968Y-127995244D01*
X172318644Y-128088143D01*
X172274077Y-128120523D01*
X172274077Y-128120524D01*
X172953554Y-128800000D01*
X172947339Y-128800000D01*
X172845606Y-128827259D01*
X172754394Y-128879920D01*
X172679920Y-128954394D01*
X172627259Y-129045606D01*
X172600000Y-129147339D01*
X172600000Y-129153553D01*
X171920524Y-128474077D01*
X171882719Y-128477053D01*
X171814341Y-128462689D01*
X171764584Y-128413638D01*
X171762110Y-128408949D01*
X171758101Y-128400942D01*
X171734814Y-128330666D01*
X171642712Y-128181344D01*
X171518656Y-128057288D01*
X171369334Y-127965186D01*
X171202797Y-127910001D01*
X171202795Y-127910000D01*
X171100010Y-127899500D01*
X169899998Y-127899500D01*
X169899981Y-127899501D01*
X169797203Y-127910000D01*
X169797200Y-127910001D01*
X169630668Y-127965185D01*
X169630663Y-127965187D01*
X169481342Y-128057289D01*
X169357289Y-128181342D01*
X169265187Y-128330663D01*
X169265186Y-128330666D01*
X169210001Y-128497203D01*
X169210001Y-128497204D01*
X169210000Y-128497204D01*
X169199500Y-128599983D01*
X142271590Y-128599983D01*
X142263227Y-128579794D01*
X142263222Y-128579785D01*
X142248077Y-128553553D01*
X142141936Y-128369711D01*
X142011713Y-128200001D01*
X141994266Y-128177263D01*
X141994260Y-128177256D01*
X141822743Y-128005739D01*
X141822736Y-128005733D01*
X141630293Y-127858067D01*
X141630292Y-127858066D01*
X141630289Y-127858064D01*
X141420212Y-127736776D01*
X141420200Y-127736770D01*
X141358938Y-127711395D01*
X141358937Y-127711395D01*
X141196104Y-127643947D01*
X141032126Y-127600009D01*
X141032029Y-127599983D01*
X177999500Y-127599983D01*
X177999500Y-128800001D01*
X177999501Y-128800018D01*
X178010000Y-128902796D01*
X178010001Y-128902799D01*
X178032857Y-128971772D01*
X178065186Y-129069334D01*
X178157288Y-129218656D01*
X178281344Y-129342712D01*
X178430666Y-129434814D01*
X178597203Y-129489999D01*
X178699991Y-129500500D01*
X179900008Y-129500499D01*
X180002797Y-129489999D01*
X180169334Y-129434814D01*
X180318656Y-129342712D01*
X180442712Y-129218656D01*
X180534814Y-129069334D01*
X180558102Y-128999054D01*
X180562110Y-128991050D01*
X180580060Y-128971772D01*
X180595055Y-128950116D01*
X180603495Y-128946606D01*
X180609725Y-128939917D01*
X180635249Y-128933404D01*
X180659571Y-128923292D01*
X180675834Y-128923048D01*
X180677425Y-128922643D01*
X180678523Y-128923008D01*
X180682719Y-128922946D01*
X180720525Y-128925921D01*
X181400000Y-128246446D01*
X181400000Y-128252661D01*
X181427259Y-128354394D01*
X181479920Y-128445606D01*
X181554394Y-128520080D01*
X181645606Y-128572741D01*
X181747339Y-128600000D01*
X181753553Y-128600000D01*
X181074076Y-129279474D01*
X181118650Y-129311859D01*
X181300968Y-129404755D01*
X181495582Y-129467990D01*
X181697683Y-129500000D01*
X181902317Y-129500000D01*
X182104417Y-129467990D01*
X182299031Y-129404755D01*
X182392171Y-129357298D01*
X182481349Y-129311859D01*
X182525921Y-129279474D01*
X181846447Y-128600000D01*
X181852661Y-128600000D01*
X181954394Y-128572741D01*
X182045606Y-128520080D01*
X182120080Y-128445606D01*
X182172741Y-128354394D01*
X182200000Y-128252661D01*
X182200000Y-128246447D01*
X182879474Y-128925921D01*
X182911859Y-128881349D01*
X183004755Y-128699031D01*
X183067990Y-128504417D01*
X183100000Y-128302317D01*
X183100000Y-128097682D01*
X183067990Y-127895582D01*
X183004755Y-127700968D01*
X182911859Y-127518650D01*
X182879474Y-127474077D01*
X182879474Y-127474076D01*
X182200000Y-128153551D01*
X182200000Y-128147339D01*
X182172741Y-128045606D01*
X182120080Y-127954394D01*
X182045606Y-127879920D01*
X181954394Y-127827259D01*
X181852661Y-127800000D01*
X181846446Y-127800000D01*
X182525922Y-127120524D01*
X182525921Y-127120523D01*
X182481359Y-127088147D01*
X182481350Y-127088141D01*
X182299031Y-126995244D01*
X182104417Y-126932009D01*
X181902317Y-126900000D01*
X181697683Y-126900000D01*
X181495582Y-126932009D01*
X181300968Y-126995244D01*
X181118644Y-127088143D01*
X181074077Y-127120523D01*
X181074077Y-127120524D01*
X181753554Y-127800000D01*
X181747339Y-127800000D01*
X181645606Y-127827259D01*
X181554394Y-127879920D01*
X181479920Y-127954394D01*
X181427259Y-128045606D01*
X181400000Y-128147339D01*
X181400000Y-128153553D01*
X180720524Y-127474077D01*
X180682719Y-127477053D01*
X180614341Y-127462689D01*
X180564584Y-127413638D01*
X180562110Y-127408949D01*
X180558101Y-127400942D01*
X180534814Y-127330666D01*
X180442712Y-127181344D01*
X180318656Y-127057288D01*
X180169334Y-126965186D01*
X180002797Y-126910001D01*
X180002795Y-126910000D01*
X179900010Y-126899500D01*
X178699998Y-126899500D01*
X178699981Y-126899501D01*
X178597203Y-126910000D01*
X178597200Y-126910001D01*
X178430668Y-126965185D01*
X178430663Y-126965187D01*
X178281342Y-127057289D01*
X178157289Y-127181342D01*
X178065187Y-127330663D01*
X178065186Y-127330666D01*
X178010001Y-127497203D01*
X178010001Y-127497204D01*
X178010000Y-127497204D01*
X177999500Y-127599983D01*
X141032029Y-127599983D01*
X140961789Y-127581162D01*
X140961788Y-127581161D01*
X140961785Y-127581161D01*
X140721289Y-127549500D01*
X140721288Y-127549500D01*
X140478712Y-127549500D01*
X140478711Y-127549500D01*
X140238214Y-127581161D01*
X140003895Y-127643947D01*
X139779794Y-127736773D01*
X139779785Y-127736777D01*
X139569706Y-127858067D01*
X139377263Y-128005733D01*
X139377256Y-128005739D01*
X139205739Y-128177256D01*
X139205733Y-128177263D01*
X139058067Y-128369706D01*
X138936777Y-128579785D01*
X138936773Y-128579794D01*
X138843947Y-128803895D01*
X138781161Y-129038214D01*
X138749500Y-129278711D01*
X136500500Y-129278711D01*
X136500500Y-97156577D01*
X146744500Y-97156577D01*
X146744500Y-97353422D01*
X146775290Y-97547826D01*
X146836117Y-97735029D01*
X146853257Y-97768667D01*
X146925476Y-97910405D01*
X147041172Y-98069646D01*
X147180354Y-98208828D01*
X147339595Y-98324524D01*
X147382186Y-98346225D01*
X147514970Y-98413882D01*
X147514972Y-98413882D01*
X147514975Y-98413884D01*
X147615317Y-98446487D01*
X147702173Y-98474709D01*
X147896578Y-98505500D01*
X147896583Y-98505500D01*
X148093422Y-98505500D01*
X148287826Y-98474709D01*
X148475025Y-98413884D01*
X148650405Y-98324524D01*
X148809646Y-98208828D01*
X148948828Y-98069646D01*
X149064524Y-97910405D01*
X149153884Y-97735025D01*
X149154515Y-97733787D01*
X149202489Y-97682990D01*
X149270310Y-97666195D01*
X149336445Y-97688732D01*
X149375485Y-97733787D01*
X149465474Y-97910403D01*
X149500234Y-97958246D01*
X149581172Y-98069646D01*
X149720354Y-98208828D01*
X149879595Y-98324524D01*
X149922186Y-98346225D01*
X150054970Y-98413882D01*
X150054972Y-98413882D01*
X150054975Y-98413884D01*
X150155317Y-98446487D01*
X150242173Y-98474709D01*
X150436578Y-98505500D01*
X150436583Y-98505500D01*
X150633422Y-98505500D01*
X150827826Y-98474709D01*
X151015025Y-98413884D01*
X151190405Y-98324524D01*
X151349646Y-98208828D01*
X151488828Y-98069646D01*
X151604524Y-97910405D01*
X151693884Y-97735025D01*
X151694515Y-97733787D01*
X151742489Y-97682990D01*
X151810310Y-97666195D01*
X151876445Y-97688732D01*
X151915485Y-97733787D01*
X152005474Y-97910403D01*
X152040234Y-97958246D01*
X152121172Y-98069646D01*
X152260354Y-98208828D01*
X152419595Y-98324524D01*
X152462186Y-98346225D01*
X152594970Y-98413882D01*
X152594972Y-98413882D01*
X152594975Y-98413884D01*
X152695317Y-98446487D01*
X152782173Y-98474709D01*
X152976578Y-98505500D01*
X152976583Y-98505500D01*
X153173422Y-98505500D01*
X153367826Y-98474709D01*
X153555025Y-98413884D01*
X153730405Y-98324524D01*
X153889646Y-98208828D01*
X154028828Y-98069646D01*
X154144524Y-97910405D01*
X154233884Y-97735025D01*
X154234515Y-97733787D01*
X154282489Y-97682990D01*
X154350310Y-97666195D01*
X154416445Y-97688732D01*
X154455485Y-97733787D01*
X154545474Y-97910403D01*
X154580234Y-97958246D01*
X154661172Y-98069646D01*
X154800354Y-98208828D01*
X154959595Y-98324524D01*
X155002186Y-98346225D01*
X155134970Y-98413882D01*
X155134972Y-98413882D01*
X155134975Y-98413884D01*
X155235317Y-98446487D01*
X155322173Y-98474709D01*
X155516578Y-98505500D01*
X155516583Y-98505500D01*
X155713422Y-98505500D01*
X155907826Y-98474709D01*
X156095025Y-98413884D01*
X156270405Y-98324524D01*
X156429646Y-98208828D01*
X156568828Y-98069646D01*
X156684524Y-97910405D01*
X156773884Y-97735025D01*
X156774515Y-97733787D01*
X156822489Y-97682990D01*
X156890310Y-97666195D01*
X156956445Y-97688732D01*
X156995485Y-97733787D01*
X157085474Y-97910403D01*
X157120234Y-97958246D01*
X157201172Y-98069646D01*
X157340354Y-98208828D01*
X157499595Y-98324524D01*
X157542186Y-98346225D01*
X157674970Y-98413882D01*
X157674972Y-98413882D01*
X157674975Y-98413884D01*
X157775317Y-98446487D01*
X157862173Y-98474709D01*
X158056578Y-98505500D01*
X158056583Y-98505500D01*
X158253422Y-98505500D01*
X158447826Y-98474709D01*
X158635025Y-98413884D01*
X158810405Y-98324524D01*
X158969646Y-98208828D01*
X159108828Y-98069646D01*
X159224524Y-97910405D01*
X159313884Y-97735025D01*
X159314515Y-97733787D01*
X159362489Y-97682990D01*
X159430310Y-97666195D01*
X159496445Y-97688732D01*
X159535485Y-97733787D01*
X159625474Y-97910403D01*
X159660234Y-97958246D01*
X159741172Y-98069646D01*
X159880354Y-98208828D01*
X160039595Y-98324524D01*
X160082186Y-98346225D01*
X160214970Y-98413882D01*
X160214972Y-98413882D01*
X160214975Y-98413884D01*
X160315317Y-98446487D01*
X160402173Y-98474709D01*
X160596578Y-98505500D01*
X160596583Y-98505500D01*
X160793422Y-98505500D01*
X160987826Y-98474709D01*
X161175025Y-98413884D01*
X161350405Y-98324524D01*
X161509646Y-98208828D01*
X161648828Y-98069646D01*
X161764524Y-97910405D01*
X161853884Y-97735025D01*
X161854515Y-97733787D01*
X161902489Y-97682990D01*
X161970310Y-97666195D01*
X162036445Y-97688732D01*
X162075485Y-97733787D01*
X162165474Y-97910403D01*
X162200234Y-97958246D01*
X162281172Y-98069646D01*
X162420354Y-98208828D01*
X162579595Y-98324524D01*
X162622186Y-98346225D01*
X162754970Y-98413882D01*
X162754972Y-98413882D01*
X162754975Y-98413884D01*
X162855317Y-98446487D01*
X162942173Y-98474709D01*
X163136578Y-98505500D01*
X163136583Y-98505500D01*
X163333422Y-98505500D01*
X163527826Y-98474709D01*
X163715025Y-98413884D01*
X163890405Y-98324524D01*
X164049646Y-98208828D01*
X164188828Y-98069646D01*
X164304524Y-97910405D01*
X164393884Y-97735025D01*
X164394515Y-97733787D01*
X164442489Y-97682990D01*
X164510310Y-97666195D01*
X164576445Y-97688732D01*
X164615485Y-97733787D01*
X164705474Y-97910403D01*
X164740234Y-97958246D01*
X164821172Y-98069646D01*
X164960354Y-98208828D01*
X165119595Y-98324524D01*
X165162186Y-98346225D01*
X165294970Y-98413882D01*
X165294972Y-98413882D01*
X165294975Y-98413884D01*
X165395317Y-98446487D01*
X165482173Y-98474709D01*
X165676578Y-98505500D01*
X165676583Y-98505500D01*
X165873422Y-98505500D01*
X166013805Y-98483264D01*
X166041932Y-98478810D01*
X166111225Y-98487764D01*
X166149011Y-98513602D01*
X169747262Y-102111854D01*
X169747265Y-102111857D01*
X169798490Y-102146084D01*
X169849714Y-102180311D01*
X169963548Y-102227463D01*
X170084388Y-102251499D01*
X170084392Y-102251500D01*
X170084393Y-102251500D01*
X210825607Y-102251500D01*
X210886029Y-102239481D01*
X210946452Y-102227463D01*
X210979792Y-102213652D01*
X211060286Y-102180312D01*
X211111509Y-102146084D01*
X211162733Y-102111858D01*
X211249858Y-102024733D01*
X211249859Y-102024731D01*
X211256925Y-102017665D01*
X211256928Y-102017661D01*
X211465988Y-101808600D01*
X211527309Y-101775117D01*
X211573065Y-101773810D01*
X211741578Y-101800500D01*
X211741583Y-101800500D01*
X211938422Y-101800500D01*
X212132826Y-101769709D01*
X212320025Y-101708884D01*
X212495405Y-101619524D01*
X212654646Y-101503828D01*
X212793828Y-101364646D01*
X212909524Y-101205405D01*
X212998884Y-101030025D01*
X213059709Y-100842826D01*
X213063810Y-100816931D01*
X213090500Y-100648422D01*
X213090500Y-100451577D01*
X213059709Y-100257173D01*
X213000667Y-100075463D01*
X212998884Y-100069975D01*
X212998882Y-100069972D01*
X212998882Y-100069970D01*
X212909523Y-99894594D01*
X212893637Y-99872729D01*
X212793828Y-99735354D01*
X212654646Y-99596172D01*
X212575025Y-99538324D01*
X212495403Y-99480474D01*
X212318787Y-99390485D01*
X212267990Y-99342511D01*
X212251195Y-99274690D01*
X212273732Y-99208555D01*
X212318787Y-99169515D01*
X212495403Y-99079525D01*
X212495402Y-99079525D01*
X212495405Y-99079524D01*
X212654646Y-98963828D01*
X212793828Y-98824646D01*
X212909524Y-98665405D01*
X212998884Y-98490025D01*
X213059709Y-98302826D01*
X213074597Y-98208828D01*
X213090500Y-98108422D01*
X213090500Y-97911577D01*
X213059709Y-97717173D01*
X213026442Y-97614790D01*
X212998884Y-97529975D01*
X212998882Y-97529972D01*
X212998882Y-97529970D01*
X212909523Y-97354594D01*
X212793828Y-97195354D01*
X212654646Y-97056172D01*
X212525270Y-96962174D01*
X212495403Y-96940474D01*
X212318787Y-96850485D01*
X212267990Y-96802511D01*
X212251195Y-96734690D01*
X212273732Y-96668555D01*
X212318787Y-96629515D01*
X212495403Y-96539525D01*
X212495402Y-96539525D01*
X212495405Y-96539524D01*
X212654646Y-96423828D01*
X212793828Y-96284646D01*
X212909524Y-96125405D01*
X212998884Y-95950025D01*
X213059709Y-95762826D01*
X213064293Y-95733882D01*
X213090500Y-95568422D01*
X213090500Y-95371577D01*
X213059709Y-95177173D01*
X212998882Y-94989970D01*
X212946960Y-94888067D01*
X212909524Y-94814595D01*
X212793828Y-94655354D01*
X212654646Y-94516172D01*
X212495405Y-94400476D01*
X212320025Y-94311116D01*
X212320024Y-94311115D01*
X212318235Y-94310204D01*
X212267439Y-94262230D01*
X212250644Y-94194409D01*
X212273181Y-94128274D01*
X212318236Y-94089234D01*
X212495141Y-93999097D01*
X212530125Y-93973678D01*
X212530126Y-93973678D01*
X211969410Y-93412962D01*
X212032993Y-93395925D01*
X212147007Y-93330099D01*
X212240099Y-93237007D01*
X212305925Y-93122993D01*
X212322962Y-93059409D01*
X212883678Y-93620126D01*
X212883678Y-93620125D01*
X212909095Y-93585143D01*
X212998418Y-93409835D01*
X213059221Y-93222705D01*
X213090000Y-93028382D01*
X213090000Y-92831617D01*
X213059221Y-92637294D01*
X212998418Y-92450164D01*
X212909096Y-92274858D01*
X212883678Y-92239873D01*
X212883677Y-92239873D01*
X212322962Y-92800589D01*
X212305925Y-92737007D01*
X212240099Y-92622993D01*
X212147007Y-92529901D01*
X212032993Y-92464075D01*
X211969409Y-92447037D01*
X212530125Y-91886320D01*
X212530125Y-91886319D01*
X212495145Y-91860905D01*
X212319835Y-91771581D01*
X212132705Y-91710778D01*
X211938382Y-91680000D01*
X211741618Y-91680000D01*
X211547294Y-91710778D01*
X211360161Y-91771582D01*
X211184863Y-91860899D01*
X211184859Y-91860902D01*
X211149873Y-91886320D01*
X211149872Y-91886320D01*
X211710590Y-92447037D01*
X211647007Y-92464075D01*
X211532993Y-92529901D01*
X211439901Y-92622993D01*
X211374075Y-92737007D01*
X211357037Y-92800590D01*
X210796320Y-92239872D01*
X210796320Y-92239873D01*
X210770902Y-92274859D01*
X210770899Y-92274863D01*
X210681582Y-92450161D01*
X210620778Y-92637294D01*
X210590000Y-92831617D01*
X210590000Y-93028382D01*
X210620778Y-93222705D01*
X210681581Y-93409835D01*
X210770905Y-93585145D01*
X210796319Y-93620125D01*
X210796320Y-93620125D01*
X211357037Y-93059408D01*
X211374075Y-93122993D01*
X211439901Y-93237007D01*
X211532993Y-93330099D01*
X211647007Y-93395925D01*
X211710590Y-93412962D01*
X211149873Y-93973677D01*
X211149873Y-93973678D01*
X211184858Y-93999096D01*
X211361764Y-94089234D01*
X211412560Y-94137209D01*
X211429355Y-94205030D01*
X211406818Y-94271164D01*
X211361764Y-94310204D01*
X211184594Y-94400476D01*
X211093741Y-94466485D01*
X211025354Y-94516172D01*
X211025352Y-94516174D01*
X211025351Y-94516174D01*
X210886173Y-94655352D01*
X210785885Y-94793386D01*
X210730554Y-94836051D01*
X210685567Y-94844500D01*
X206997741Y-94844500D01*
X206997721Y-94844499D01*
X206991607Y-94844499D01*
X206868394Y-94844499D01*
X206767597Y-94864548D01*
X206767592Y-94864548D01*
X206747549Y-94868536D01*
X206747547Y-94868536D01*
X206700397Y-94888067D01*
X206633719Y-94915685D01*
X206633717Y-94915686D01*
X206531266Y-94984141D01*
X206531263Y-94984144D01*
X205674447Y-95840961D01*
X205613124Y-95874446D01*
X205543432Y-95869462D01*
X205487499Y-95827590D01*
X205463082Y-95762126D01*
X205464293Y-95733882D01*
X205490500Y-95568422D01*
X205490500Y-95371577D01*
X205459709Y-95177173D01*
X205398882Y-94989970D01*
X205346960Y-94888067D01*
X205309524Y-94814595D01*
X205193828Y-94655354D01*
X205054646Y-94516172D01*
X204975025Y-94458324D01*
X204895403Y-94400474D01*
X204718787Y-94310485D01*
X204667990Y-94262511D01*
X204651195Y-94194690D01*
X204673732Y-94128555D01*
X204718787Y-94089515D01*
X204895403Y-93999525D01*
X204895402Y-93999525D01*
X204895405Y-93999524D01*
X205054646Y-93883828D01*
X205193828Y-93744646D01*
X205309524Y-93585405D01*
X205398884Y-93410025D01*
X205459709Y-93222826D01*
X205475521Y-93122993D01*
X205490500Y-93028422D01*
X205490500Y-92831577D01*
X205459709Y-92637173D01*
X205398882Y-92449970D01*
X205351743Y-92357455D01*
X205309524Y-92274595D01*
X205193828Y-92115354D01*
X205054646Y-91976172D01*
X204895405Y-91860476D01*
X204720029Y-91771117D01*
X204532826Y-91710290D01*
X204338422Y-91679500D01*
X204338417Y-91679500D01*
X204141583Y-91679500D01*
X204141578Y-91679500D01*
X203947173Y-91710290D01*
X203759970Y-91771117D01*
X203584594Y-91860476D01*
X203493741Y-91926485D01*
X203425354Y-91976172D01*
X203425352Y-91976174D01*
X203425351Y-91976174D01*
X203286174Y-92115351D01*
X203286174Y-92115352D01*
X203286172Y-92115354D01*
X203236485Y-92183741D01*
X203170476Y-92274594D01*
X203081117Y-92449970D01*
X203020290Y-92637173D01*
X202989500Y-92831577D01*
X202989500Y-93028422D01*
X203020290Y-93222826D01*
X203081117Y-93410029D01*
X203170343Y-93585143D01*
X203170476Y-93585405D01*
X203286172Y-93744646D01*
X203425354Y-93883828D01*
X203584595Y-93999524D01*
X203707992Y-94062397D01*
X203761213Y-94089515D01*
X203812009Y-94137489D01*
X203828804Y-94205310D01*
X203806267Y-94271445D01*
X203761213Y-94310485D01*
X203584594Y-94400476D01*
X203493741Y-94466485D01*
X203425354Y-94516172D01*
X203425352Y-94516174D01*
X203425351Y-94516174D01*
X203286174Y-94655351D01*
X203286174Y-94655352D01*
X203286172Y-94655354D01*
X203236485Y-94723741D01*
X203170476Y-94814594D01*
X203081117Y-94989970D01*
X203020290Y-95177173D01*
X202989500Y-95371577D01*
X202989500Y-95568422D01*
X203020290Y-95762826D01*
X203081117Y-95950029D01*
X203155553Y-96096117D01*
X203170476Y-96125405D01*
X203286172Y-96284646D01*
X203286174Y-96284648D01*
X203334939Y-96333413D01*
X203368424Y-96394736D01*
X203363440Y-96464428D01*
X203334939Y-96508775D01*
X202174535Y-97669181D01*
X202113212Y-97702666D01*
X202086854Y-97705500D01*
X195054148Y-97705500D01*
X194987109Y-97685815D01*
X194941354Y-97633011D01*
X194931410Y-97563853D01*
X194933574Y-97552554D01*
X194934709Y-97547824D01*
X194938855Y-97521652D01*
X194952186Y-97437480D01*
X194965500Y-97353422D01*
X194965500Y-97156577D01*
X194934709Y-96962173D01*
X194873882Y-96774970D01*
X194784523Y-96599594D01*
X194740880Y-96539525D01*
X194668828Y-96440354D01*
X194529646Y-96301172D01*
X194370405Y-96185476D01*
X194294134Y-96146614D01*
X194195029Y-96096117D01*
X194007826Y-96035290D01*
X193813422Y-96004500D01*
X193813417Y-96004500D01*
X193616583Y-96004500D01*
X193616578Y-96004500D01*
X193422173Y-96035290D01*
X193234970Y-96096117D01*
X193059594Y-96185476D01*
X192968741Y-96251485D01*
X192900354Y-96301172D01*
X192900352Y-96301174D01*
X192900351Y-96301174D01*
X192761174Y-96440351D01*
X192761174Y-96440352D01*
X192761172Y-96440354D01*
X192755513Y-96448143D01*
X192645476Y-96599594D01*
X192555485Y-96776213D01*
X192507511Y-96827009D01*
X192439690Y-96843804D01*
X192373555Y-96821267D01*
X192334515Y-96776213D01*
X192284213Y-96677489D01*
X192244524Y-96599595D01*
X192128828Y-96440354D01*
X191989646Y-96301172D01*
X191830405Y-96185476D01*
X191754134Y-96146614D01*
X191655029Y-96096117D01*
X191467826Y-96035290D01*
X191273422Y-96004500D01*
X191273417Y-96004500D01*
X191076583Y-96004500D01*
X191076578Y-96004500D01*
X190882173Y-96035290D01*
X190694970Y-96096117D01*
X190519594Y-96185476D01*
X190428741Y-96251485D01*
X190360354Y-96301172D01*
X190360352Y-96301174D01*
X190360351Y-96301174D01*
X190221174Y-96440351D01*
X190221174Y-96440352D01*
X190221172Y-96440354D01*
X190215513Y-96448143D01*
X190105476Y-96599594D01*
X190015485Y-96776213D01*
X189967511Y-96827009D01*
X189899690Y-96843804D01*
X189833555Y-96821267D01*
X189794515Y-96776213D01*
X189744213Y-96677489D01*
X189704524Y-96599595D01*
X189588828Y-96440354D01*
X189449646Y-96301172D01*
X189290405Y-96185476D01*
X189214134Y-96146614D01*
X189115029Y-96096117D01*
X188927826Y-96035290D01*
X188733422Y-96004500D01*
X188733417Y-96004500D01*
X188536583Y-96004500D01*
X188536578Y-96004500D01*
X188342173Y-96035290D01*
X188154970Y-96096117D01*
X187979594Y-96185476D01*
X187888741Y-96251485D01*
X187820354Y-96301172D01*
X187820352Y-96301174D01*
X187820351Y-96301174D01*
X187681174Y-96440351D01*
X187681174Y-96440352D01*
X187681172Y-96440354D01*
X187675513Y-96448143D01*
X187565476Y-96599594D01*
X187475485Y-96776213D01*
X187427511Y-96827009D01*
X187359690Y-96843804D01*
X187293555Y-96821267D01*
X187254515Y-96776213D01*
X187204213Y-96677489D01*
X187164524Y-96599595D01*
X187048828Y-96440354D01*
X186909646Y-96301172D01*
X186750405Y-96185476D01*
X186674134Y-96146614D01*
X186575029Y-96096117D01*
X186387826Y-96035290D01*
X186193422Y-96004500D01*
X186193417Y-96004500D01*
X185996583Y-96004500D01*
X185996578Y-96004500D01*
X185802173Y-96035290D01*
X185614970Y-96096117D01*
X185439594Y-96185476D01*
X185348741Y-96251485D01*
X185280354Y-96301172D01*
X185280352Y-96301174D01*
X185280351Y-96301174D01*
X185141174Y-96440351D01*
X185141174Y-96440352D01*
X185141172Y-96440354D01*
X185135513Y-96448143D01*
X185025476Y-96599594D01*
X184935485Y-96776213D01*
X184887511Y-96827009D01*
X184819690Y-96843804D01*
X184753555Y-96821267D01*
X184714515Y-96776213D01*
X184664213Y-96677489D01*
X184624524Y-96599595D01*
X184508828Y-96440354D01*
X184369646Y-96301172D01*
X184210405Y-96185476D01*
X184134134Y-96146614D01*
X184035029Y-96096117D01*
X183847826Y-96035290D01*
X183653422Y-96004500D01*
X183653417Y-96004500D01*
X183456583Y-96004500D01*
X183456578Y-96004500D01*
X183262173Y-96035290D01*
X183074970Y-96096117D01*
X182899594Y-96185476D01*
X182808741Y-96251485D01*
X182740354Y-96301172D01*
X182740352Y-96301174D01*
X182740351Y-96301174D01*
X182601174Y-96440351D01*
X182601174Y-96440352D01*
X182601172Y-96440354D01*
X182595513Y-96448143D01*
X182485476Y-96599594D01*
X182395485Y-96776213D01*
X182347511Y-96827009D01*
X182279690Y-96843804D01*
X182213555Y-96821267D01*
X182174515Y-96776213D01*
X182124213Y-96677489D01*
X182084524Y-96599595D01*
X181968828Y-96440354D01*
X181829646Y-96301172D01*
X181670405Y-96185476D01*
X181594134Y-96146614D01*
X181495029Y-96096117D01*
X181307826Y-96035290D01*
X181113422Y-96004500D01*
X181113417Y-96004500D01*
X180916583Y-96004500D01*
X180916578Y-96004500D01*
X180722173Y-96035290D01*
X180534970Y-96096117D01*
X180359594Y-96185476D01*
X180268741Y-96251485D01*
X180200354Y-96301172D01*
X180200352Y-96301174D01*
X180200351Y-96301174D01*
X180061174Y-96440351D01*
X180061174Y-96440352D01*
X180061172Y-96440354D01*
X180055513Y-96448143D01*
X179945476Y-96599594D01*
X179855485Y-96776213D01*
X179807511Y-96827009D01*
X179739690Y-96843804D01*
X179673555Y-96821267D01*
X179634515Y-96776213D01*
X179584213Y-96677489D01*
X179544524Y-96599595D01*
X179428828Y-96440354D01*
X179289646Y-96301172D01*
X179130405Y-96185476D01*
X179054134Y-96146614D01*
X178955029Y-96096117D01*
X178767826Y-96035290D01*
X178573422Y-96004500D01*
X178573417Y-96004500D01*
X178376583Y-96004500D01*
X178376578Y-96004500D01*
X178182173Y-96035290D01*
X177994970Y-96096117D01*
X177819594Y-96185476D01*
X177728741Y-96251485D01*
X177660354Y-96301172D01*
X177660352Y-96301174D01*
X177660351Y-96301174D01*
X177521174Y-96440351D01*
X177521174Y-96440352D01*
X177521172Y-96440354D01*
X177515513Y-96448143D01*
X177405476Y-96599594D01*
X177315485Y-96776213D01*
X177267511Y-96827009D01*
X177199690Y-96843804D01*
X177133555Y-96821267D01*
X177094515Y-96776213D01*
X177044213Y-96677489D01*
X177004524Y-96599595D01*
X176888828Y-96440354D01*
X176749646Y-96301172D01*
X176590405Y-96185476D01*
X176514134Y-96146614D01*
X176415029Y-96096117D01*
X176227826Y-96035290D01*
X176033422Y-96004500D01*
X176033417Y-96004500D01*
X175836583Y-96004500D01*
X175836578Y-96004500D01*
X175642173Y-96035290D01*
X175454970Y-96096117D01*
X175279594Y-96185476D01*
X175188741Y-96251485D01*
X175120354Y-96301172D01*
X175120352Y-96301174D01*
X175120351Y-96301174D01*
X174981174Y-96440351D01*
X174981174Y-96440352D01*
X174981172Y-96440354D01*
X174975513Y-96448143D01*
X174865476Y-96599594D01*
X174775485Y-96776213D01*
X174727511Y-96827009D01*
X174659690Y-96843804D01*
X174593555Y-96821267D01*
X174554515Y-96776213D01*
X174504213Y-96677489D01*
X174464524Y-96599595D01*
X174348828Y-96440354D01*
X174209646Y-96301172D01*
X174050405Y-96185476D01*
X173974134Y-96146614D01*
X173875029Y-96096117D01*
X173687826Y-96035290D01*
X173493422Y-96004500D01*
X173493417Y-96004500D01*
X173296583Y-96004500D01*
X173296578Y-96004500D01*
X173102173Y-96035290D01*
X172914970Y-96096117D01*
X172739594Y-96185476D01*
X172648741Y-96251485D01*
X172580354Y-96301172D01*
X172580352Y-96301174D01*
X172580351Y-96301174D01*
X172441174Y-96440351D01*
X172441174Y-96440352D01*
X172441172Y-96440354D01*
X172435513Y-96448143D01*
X172325476Y-96599594D01*
X172235485Y-96776213D01*
X172187511Y-96827009D01*
X172119690Y-96843804D01*
X172053555Y-96821267D01*
X172014515Y-96776213D01*
X171964213Y-96677489D01*
X171924524Y-96599595D01*
X171808828Y-96440354D01*
X171669646Y-96301172D01*
X171510405Y-96185476D01*
X171434134Y-96146614D01*
X171335029Y-96096117D01*
X171147826Y-96035290D01*
X170953422Y-96004500D01*
X170953417Y-96004500D01*
X170756583Y-96004500D01*
X170756578Y-96004500D01*
X170562173Y-96035290D01*
X170374970Y-96096117D01*
X170199594Y-96185476D01*
X170108741Y-96251485D01*
X170040354Y-96301172D01*
X170040352Y-96301174D01*
X170040351Y-96301174D01*
X169901174Y-96440351D01*
X169901174Y-96440352D01*
X169901172Y-96440354D01*
X169895513Y-96448143D01*
X169785476Y-96599594D01*
X169695485Y-96776213D01*
X169647511Y-96827009D01*
X169579690Y-96843804D01*
X169513555Y-96821267D01*
X169474515Y-96776213D01*
X169424213Y-96677489D01*
X169384524Y-96599595D01*
X169268828Y-96440354D01*
X169129646Y-96301172D01*
X168970405Y-96185476D01*
X168894134Y-96146614D01*
X168795029Y-96096117D01*
X168607826Y-96035290D01*
X168413422Y-96004500D01*
X168413417Y-96004500D01*
X168216583Y-96004500D01*
X168216578Y-96004500D01*
X168022173Y-96035290D01*
X167834970Y-96096117D01*
X167659594Y-96185476D01*
X167568741Y-96251485D01*
X167500354Y-96301172D01*
X167500352Y-96301174D01*
X167500351Y-96301174D01*
X167361174Y-96440351D01*
X167361174Y-96440352D01*
X167361172Y-96440354D01*
X167355513Y-96448143D01*
X167245476Y-96599594D01*
X167155485Y-96776213D01*
X167107511Y-96827009D01*
X167039690Y-96843804D01*
X166973555Y-96821267D01*
X166934515Y-96776213D01*
X166884213Y-96677489D01*
X166844524Y-96599595D01*
X166728828Y-96440354D01*
X166589646Y-96301172D01*
X166430405Y-96185476D01*
X166354134Y-96146614D01*
X166255029Y-96096117D01*
X166067826Y-96035290D01*
X165873422Y-96004500D01*
X165873417Y-96004500D01*
X165676583Y-96004500D01*
X165676578Y-96004500D01*
X165482173Y-96035290D01*
X165294970Y-96096117D01*
X165119594Y-96185476D01*
X165028741Y-96251485D01*
X164960354Y-96301172D01*
X164960352Y-96301174D01*
X164960351Y-96301174D01*
X164821174Y-96440351D01*
X164821174Y-96440352D01*
X164821172Y-96440354D01*
X164815513Y-96448143D01*
X164705476Y-96599594D01*
X164615485Y-96776213D01*
X164567511Y-96827009D01*
X164499690Y-96843804D01*
X164433555Y-96821267D01*
X164394515Y-96776213D01*
X164344213Y-96677489D01*
X164304524Y-96599595D01*
X164188828Y-96440354D01*
X164049646Y-96301172D01*
X163890405Y-96185476D01*
X163814134Y-96146614D01*
X163715029Y-96096117D01*
X163527826Y-96035290D01*
X163333422Y-96004500D01*
X163333417Y-96004500D01*
X163136583Y-96004500D01*
X163131711Y-96004500D01*
X163131711Y-96002793D01*
X163070563Y-95989921D01*
X163020827Y-95940848D01*
X163005517Y-95872676D01*
X163029494Y-95807050D01*
X163041570Y-95793018D01*
X171336941Y-87497648D01*
X204499500Y-87497648D01*
X204499500Y-87702351D01*
X204531522Y-87904534D01*
X204594781Y-88099223D01*
X204658691Y-88224653D01*
X204687585Y-88281359D01*
X204687715Y-88281613D01*
X204808028Y-88447213D01*
X204952786Y-88591971D01*
X205073226Y-88679474D01*
X205118390Y-88712287D01*
X205234607Y-88771503D01*
X205300776Y-88805218D01*
X205300778Y-88805218D01*
X205300781Y-88805220D01*
X205405137Y-88839127D01*
X205495465Y-88868477D01*
X205596557Y-88884488D01*
X205697648Y-88900500D01*
X205697649Y-88900500D01*
X205902351Y-88900500D01*
X205902352Y-88900500D01*
X206104534Y-88868477D01*
X206299219Y-88805220D01*
X206481610Y-88712287D01*
X206574590Y-88644732D01*
X206647213Y-88591971D01*
X206647215Y-88591968D01*
X206647219Y-88591966D01*
X206791966Y-88447219D01*
X206791968Y-88447215D01*
X206791971Y-88447213D01*
X206844732Y-88374590D01*
X206912287Y-88281610D01*
X207005220Y-88099219D01*
X207068477Y-87904534D01*
X207100500Y-87702352D01*
X207100500Y-87497682D01*
X209500000Y-87497682D01*
X209500000Y-87702317D01*
X209532009Y-87904417D01*
X209595244Y-88099031D01*
X209688141Y-88281350D01*
X209688147Y-88281359D01*
X209720523Y-88325921D01*
X209720524Y-88325922D01*
X210400000Y-87646446D01*
X210400000Y-87652661D01*
X210427259Y-87754394D01*
X210479920Y-87845606D01*
X210554394Y-87920080D01*
X210645606Y-87972741D01*
X210747339Y-88000000D01*
X210753553Y-88000000D01*
X210074076Y-88679474D01*
X210118650Y-88711859D01*
X210300968Y-88804755D01*
X210495582Y-88867990D01*
X210697683Y-88900000D01*
X210902317Y-88900000D01*
X211104417Y-88867990D01*
X211299031Y-88804755D01*
X211481349Y-88711859D01*
X211525921Y-88679474D01*
X210846447Y-88000000D01*
X210852661Y-88000000D01*
X210954394Y-87972741D01*
X211045606Y-87920080D01*
X211120080Y-87845606D01*
X211172741Y-87754394D01*
X211200000Y-87652661D01*
X211200000Y-87646448D01*
X211879474Y-88325922D01*
X211879474Y-88325921D01*
X211911859Y-88281349D01*
X212004755Y-88099031D01*
X212067990Y-87904417D01*
X212100000Y-87702317D01*
X212100000Y-87497682D01*
X212067990Y-87295582D01*
X212004755Y-87100968D01*
X211911859Y-86918650D01*
X211879474Y-86874077D01*
X211879474Y-86874076D01*
X211200000Y-87553551D01*
X211200000Y-87547339D01*
X211172741Y-87445606D01*
X211120080Y-87354394D01*
X211045606Y-87279920D01*
X210954394Y-87227259D01*
X210852661Y-87200000D01*
X210846446Y-87200000D01*
X211525922Y-86520524D01*
X211525921Y-86520523D01*
X211481359Y-86488147D01*
X211481350Y-86488141D01*
X211299031Y-86395244D01*
X211104417Y-86332009D01*
X210902317Y-86300000D01*
X210697683Y-86300000D01*
X210495582Y-86332009D01*
X210300968Y-86395244D01*
X210118644Y-86488143D01*
X210074077Y-86520523D01*
X210074077Y-86520524D01*
X210753554Y-87200000D01*
X210747339Y-87200000D01*
X210645606Y-87227259D01*
X210554394Y-87279920D01*
X210479920Y-87354394D01*
X210427259Y-87445606D01*
X210400000Y-87547339D01*
X210400000Y-87553553D01*
X209720524Y-86874077D01*
X209720523Y-86874077D01*
X209688143Y-86918644D01*
X209595244Y-87100968D01*
X209532009Y-87295582D01*
X209500000Y-87497682D01*
X207100500Y-87497682D01*
X207100500Y-87497648D01*
X207080566Y-87371791D01*
X207068477Y-87295465D01*
X207009596Y-87114249D01*
X207005220Y-87100781D01*
X207005218Y-87100778D01*
X207005218Y-87100776D01*
X206971503Y-87034607D01*
X206912287Y-86918390D01*
X206880092Y-86874077D01*
X206791971Y-86752786D01*
X206647213Y-86608028D01*
X206481613Y-86487715D01*
X206481612Y-86487714D01*
X206481610Y-86487713D01*
X206412817Y-86452661D01*
X206299223Y-86394781D01*
X206104534Y-86331522D01*
X205929995Y-86303878D01*
X205902352Y-86299500D01*
X205697648Y-86299500D01*
X205673329Y-86303351D01*
X205495465Y-86331522D01*
X205300776Y-86394781D01*
X205118386Y-86487715D01*
X204952786Y-86608028D01*
X204808028Y-86752786D01*
X204687715Y-86918386D01*
X204594781Y-87100776D01*
X204531522Y-87295465D01*
X204499500Y-87497648D01*
X171336941Y-87497648D01*
X173034606Y-85799983D01*
X214599500Y-85799983D01*
X214599500Y-87000001D01*
X214599501Y-87000018D01*
X214610000Y-87102796D01*
X214610001Y-87102799D01*
X214625681Y-87150116D01*
X214665186Y-87269334D01*
X214757288Y-87418656D01*
X214881344Y-87542712D01*
X215030666Y-87634814D01*
X215197203Y-87689999D01*
X215299991Y-87700500D01*
X216500008Y-87700499D01*
X216602797Y-87689999D01*
X216769334Y-87634814D01*
X216918656Y-87542712D01*
X217042712Y-87418656D01*
X217134814Y-87269334D01*
X217158102Y-87199054D01*
X217162110Y-87191050D01*
X217180060Y-87171772D01*
X217195055Y-87150116D01*
X217203495Y-87146606D01*
X217209725Y-87139917D01*
X217235249Y-87133404D01*
X217259571Y-87123292D01*
X217275834Y-87123048D01*
X217277425Y-87122643D01*
X217278523Y-87123008D01*
X217282719Y-87122946D01*
X217320525Y-87125921D01*
X218000000Y-86446446D01*
X218000000Y-86452661D01*
X218027259Y-86554394D01*
X218079920Y-86645606D01*
X218154394Y-86720080D01*
X218245606Y-86772741D01*
X218347339Y-86800000D01*
X218353553Y-86800000D01*
X217674076Y-87479474D01*
X217718650Y-87511859D01*
X217900968Y-87604755D01*
X218095582Y-87667990D01*
X218297683Y-87700000D01*
X218502317Y-87700000D01*
X218704417Y-87667990D01*
X218899031Y-87604755D01*
X219081349Y-87511859D01*
X219125921Y-87479474D01*
X218446447Y-86800000D01*
X218452661Y-86800000D01*
X218554394Y-86772741D01*
X218645606Y-86720080D01*
X218720080Y-86645606D01*
X218772741Y-86554394D01*
X218800000Y-86452661D01*
X218800000Y-86446447D01*
X219479474Y-87125921D01*
X219511859Y-87081349D01*
X219604755Y-86899031D01*
X219667990Y-86704417D01*
X219700000Y-86502317D01*
X219700000Y-86297682D01*
X219667990Y-86095582D01*
X219604755Y-85900968D01*
X219511859Y-85718650D01*
X219479474Y-85674077D01*
X219479474Y-85674076D01*
X218800000Y-86353551D01*
X218800000Y-86347339D01*
X218772741Y-86245606D01*
X218720080Y-86154394D01*
X218645606Y-86079920D01*
X218554394Y-86027259D01*
X218452661Y-86000000D01*
X218446446Y-86000000D01*
X219125922Y-85320524D01*
X219125921Y-85320523D01*
X219081359Y-85288147D01*
X219081350Y-85288141D01*
X218899031Y-85195244D01*
X218704417Y-85132009D01*
X218502317Y-85100000D01*
X218297683Y-85100000D01*
X218095582Y-85132009D01*
X217900968Y-85195244D01*
X217718644Y-85288143D01*
X217674077Y-85320523D01*
X217674077Y-85320524D01*
X218353554Y-86000000D01*
X218347339Y-86000000D01*
X218245606Y-86027259D01*
X218154394Y-86079920D01*
X218079920Y-86154394D01*
X218027259Y-86245606D01*
X218000000Y-86347339D01*
X218000000Y-86353553D01*
X217320524Y-85674077D01*
X217282719Y-85677053D01*
X217214341Y-85662689D01*
X217164584Y-85613638D01*
X217162110Y-85608949D01*
X217158101Y-85600942D01*
X217134814Y-85530666D01*
X217042712Y-85381344D01*
X216918656Y-85257288D01*
X216769334Y-85165186D01*
X216602797Y-85110001D01*
X216602795Y-85110000D01*
X216500010Y-85099500D01*
X215299998Y-85099500D01*
X215299981Y-85099501D01*
X215197203Y-85110000D01*
X215197200Y-85110001D01*
X215030668Y-85165185D01*
X215030663Y-85165187D01*
X214881342Y-85257289D01*
X214757289Y-85381342D01*
X214665187Y-85530663D01*
X214665186Y-85530666D01*
X214610001Y-85697203D01*
X214610001Y-85697204D01*
X214610000Y-85697204D01*
X214599500Y-85799983D01*
X173034606Y-85799983D01*
X177572771Y-81261819D01*
X177634094Y-81228334D01*
X177660452Y-81225500D01*
X192932693Y-81225500D01*
X192999732Y-81245185D01*
X193045487Y-81297989D01*
X193055431Y-81367147D01*
X193043178Y-81405795D01*
X192994781Y-81500776D01*
X192931522Y-81695465D01*
X192899500Y-81897648D01*
X192899500Y-82102351D01*
X192931522Y-82304534D01*
X192994781Y-82499223D01*
X193046131Y-82600001D01*
X193087585Y-82681359D01*
X193087715Y-82681613D01*
X193208028Y-82847213D01*
X193352786Y-82991971D01*
X193473226Y-83079474D01*
X193518390Y-83112287D01*
X193616456Y-83162254D01*
X193700776Y-83205218D01*
X193700778Y-83205218D01*
X193700781Y-83205220D01*
X193800993Y-83237781D01*
X193895465Y-83268477D01*
X193996557Y-83284488D01*
X194097648Y-83300500D01*
X194097649Y-83300500D01*
X194302351Y-83300500D01*
X194302352Y-83300500D01*
X194504534Y-83268477D01*
X194699219Y-83205220D01*
X194881610Y-83112287D01*
X195005527Y-83022257D01*
X195047213Y-82991971D01*
X195047215Y-82991968D01*
X195047219Y-82991966D01*
X195191966Y-82847219D01*
X195191968Y-82847215D01*
X195191971Y-82847213D01*
X195273163Y-82735460D01*
X195312287Y-82681610D01*
X195405220Y-82499219D01*
X195468477Y-82304534D01*
X195500500Y-82102352D01*
X195500500Y-81897648D01*
X195482079Y-81781342D01*
X195468477Y-81695465D01*
X195437458Y-81600000D01*
X195405220Y-81500781D01*
X195405218Y-81500778D01*
X195405218Y-81500776D01*
X195356822Y-81405795D01*
X195343926Y-81337126D01*
X195370202Y-81272385D01*
X195427308Y-81232128D01*
X195467307Y-81225500D01*
X197933253Y-81225500D01*
X198000292Y-81245185D01*
X198046047Y-81297989D01*
X198055991Y-81367147D01*
X198043738Y-81405794D01*
X197995245Y-81500965D01*
X197932009Y-81695582D01*
X197900000Y-81897682D01*
X197900000Y-82102317D01*
X197932009Y-82304417D01*
X197995244Y-82499031D01*
X198088141Y-82681350D01*
X198088147Y-82681359D01*
X198120523Y-82725921D01*
X198120524Y-82725922D01*
X198800000Y-82046446D01*
X198800000Y-82052661D01*
X198827259Y-82154394D01*
X198879920Y-82245606D01*
X198954394Y-82320080D01*
X199045606Y-82372741D01*
X199147339Y-82400000D01*
X199153553Y-82400000D01*
X198474076Y-83079474D01*
X198518650Y-83111859D01*
X198700968Y-83204755D01*
X198895582Y-83267990D01*
X199097683Y-83300000D01*
X199302317Y-83300000D01*
X199504417Y-83267990D01*
X199699031Y-83204755D01*
X199881349Y-83111859D01*
X199925921Y-83079474D01*
X199246447Y-82400000D01*
X199252661Y-82400000D01*
X199354394Y-82372741D01*
X199445606Y-82320080D01*
X199520080Y-82245606D01*
X199572741Y-82154394D01*
X199600000Y-82052661D01*
X199600000Y-82046447D01*
X200279474Y-82725921D01*
X200311859Y-82681349D01*
X200404755Y-82499031D01*
X200467990Y-82304417D01*
X200484531Y-82199983D01*
X201899500Y-82199983D01*
X201899500Y-83000001D01*
X201899501Y-83000019D01*
X201910000Y-83102796D01*
X201910001Y-83102799D01*
X201965185Y-83269331D01*
X201965187Y-83269336D01*
X201984101Y-83300000D01*
X202057288Y-83418656D01*
X202181344Y-83542712D01*
X202330666Y-83634814D01*
X202497203Y-83689999D01*
X202599991Y-83700500D01*
X203400008Y-83700499D01*
X203400016Y-83700498D01*
X203400019Y-83700498D01*
X203456302Y-83694748D01*
X203502797Y-83689999D01*
X203669334Y-83634814D01*
X203818656Y-83542712D01*
X203825079Y-83536289D01*
X204417261Y-83536289D01*
X204417262Y-83536290D01*
X204423471Y-83540801D01*
X204577742Y-83619408D01*
X204742415Y-83672914D01*
X204913429Y-83700000D01*
X205086571Y-83700000D01*
X205257584Y-83672914D01*
X205422257Y-83619408D01*
X205576525Y-83540803D01*
X205582736Y-83536289D01*
X205582737Y-83536289D01*
X205000001Y-82953553D01*
X205000000Y-82953553D01*
X204417261Y-83536289D01*
X203825079Y-83536289D01*
X203942712Y-83418656D01*
X204034814Y-83269334D01*
X204054167Y-83210930D01*
X204084191Y-83162254D01*
X204646446Y-82600000D01*
X204646446Y-82599999D01*
X204606951Y-82560504D01*
X204700000Y-82560504D01*
X204700000Y-82639496D01*
X204720444Y-82715796D01*
X204759940Y-82784205D01*
X204815795Y-82840060D01*
X204884204Y-82879556D01*
X204960504Y-82900000D01*
X205039496Y-82900000D01*
X205115796Y-82879556D01*
X205184205Y-82840060D01*
X205240060Y-82784205D01*
X205279556Y-82715796D01*
X205300000Y-82639496D01*
X205300000Y-82599999D01*
X205353553Y-82599999D01*
X205353553Y-82600001D01*
X205936289Y-83182737D01*
X205936289Y-83182736D01*
X205940803Y-83176525D01*
X206019408Y-83022257D01*
X206072914Y-82857584D01*
X206100000Y-82686571D01*
X206100000Y-82513428D01*
X206072914Y-82342415D01*
X206019408Y-82177742D01*
X205940801Y-82023471D01*
X205936290Y-82017262D01*
X205936289Y-82017261D01*
X205353553Y-82599999D01*
X205300000Y-82599999D01*
X205300000Y-82560504D01*
X205279556Y-82484204D01*
X205240060Y-82415795D01*
X205184205Y-82359940D01*
X205115796Y-82320444D01*
X205039496Y-82300000D01*
X204960504Y-82300000D01*
X204884204Y-82320444D01*
X204815795Y-82359940D01*
X204759940Y-82415795D01*
X204720444Y-82484204D01*
X204700000Y-82560504D01*
X204606951Y-82560504D01*
X204084190Y-82037743D01*
X204054166Y-81989066D01*
X204034814Y-81930666D01*
X203942712Y-81781344D01*
X203825076Y-81663708D01*
X204417261Y-81663708D01*
X204417261Y-81663709D01*
X205000000Y-82246446D01*
X205000001Y-82246446D01*
X205582737Y-81663709D01*
X205576525Y-81659196D01*
X205422259Y-81580592D01*
X205257584Y-81527085D01*
X205086571Y-81500000D01*
X204913429Y-81500000D01*
X204742415Y-81527085D01*
X204577740Y-81580592D01*
X204423480Y-81659193D01*
X204423463Y-81659203D01*
X204417261Y-81663708D01*
X203825076Y-81663708D01*
X203818656Y-81657288D01*
X203725777Y-81600000D01*
X203669336Y-81565187D01*
X203669331Y-81565185D01*
X203667862Y-81564698D01*
X203502797Y-81510001D01*
X203502795Y-81510000D01*
X203400010Y-81499500D01*
X202599998Y-81499500D01*
X202599980Y-81499501D01*
X202497203Y-81510000D01*
X202497200Y-81510001D01*
X202330668Y-81565185D01*
X202330663Y-81565187D01*
X202181342Y-81657289D01*
X202057289Y-81781342D01*
X201965187Y-81930663D01*
X201965185Y-81930668D01*
X201964274Y-81933418D01*
X201910001Y-82097203D01*
X201910001Y-82097204D01*
X201910000Y-82097204D01*
X201899500Y-82199983D01*
X200484531Y-82199983D01*
X200488102Y-82177436D01*
X200500000Y-82102317D01*
X200500000Y-81897682D01*
X200467990Y-81695582D01*
X200404755Y-81500968D01*
X200311859Y-81318650D01*
X200279474Y-81274077D01*
X200279474Y-81274076D01*
X199600000Y-81953551D01*
X199600000Y-81947339D01*
X199572741Y-81845606D01*
X199520080Y-81754394D01*
X199445606Y-81679920D01*
X199354394Y-81627259D01*
X199252661Y-81600000D01*
X199246446Y-81600000D01*
X199925922Y-80920524D01*
X199925921Y-80920523D01*
X199881359Y-80888147D01*
X199881350Y-80888141D01*
X199818183Y-80855956D01*
X199767387Y-80807981D01*
X199750592Y-80740161D01*
X199773129Y-80674026D01*
X199786786Y-80657802D01*
X201985988Y-78458600D01*
X202047309Y-78425117D01*
X202093065Y-78423810D01*
X202261578Y-78450500D01*
X202261583Y-78450500D01*
X202458422Y-78450500D01*
X202652826Y-78419709D01*
X202654328Y-78419221D01*
X202840025Y-78358884D01*
X203015405Y-78269524D01*
X203174646Y-78153828D01*
X203313828Y-78014646D01*
X203429524Y-77855405D01*
X203447297Y-77820523D01*
X203519515Y-77678787D01*
X203567489Y-77627990D01*
X203635310Y-77611195D01*
X203701445Y-77633732D01*
X203740485Y-77678787D01*
X203830474Y-77855403D01*
X203855702Y-77890125D01*
X203946172Y-78014646D01*
X204085354Y-78153828D01*
X204244595Y-78269524D01*
X204327455Y-78311743D01*
X204419970Y-78358882D01*
X204419972Y-78358882D01*
X204419975Y-78358884D01*
X204520317Y-78391487D01*
X204607173Y-78419709D01*
X204801578Y-78450500D01*
X204801583Y-78450500D01*
X204998422Y-78450500D01*
X205192826Y-78419709D01*
X205194328Y-78419221D01*
X205380025Y-78358884D01*
X205555405Y-78269524D01*
X205714646Y-78153828D01*
X205853828Y-78014646D01*
X205969524Y-77855405D01*
X205987297Y-77820523D01*
X206059515Y-77678787D01*
X206107489Y-77627990D01*
X206175310Y-77611195D01*
X206241445Y-77633732D01*
X206280485Y-77678787D01*
X206370474Y-77855403D01*
X206395702Y-77890125D01*
X206486172Y-78014646D01*
X206625354Y-78153828D01*
X206784595Y-78269524D01*
X206867455Y-78311743D01*
X206959970Y-78358882D01*
X206959972Y-78358882D01*
X206959975Y-78358884D01*
X207060317Y-78391487D01*
X207147173Y-78419709D01*
X207341578Y-78450500D01*
X207341583Y-78450500D01*
X207538422Y-78450500D01*
X207732826Y-78419709D01*
X207734328Y-78419221D01*
X207920025Y-78358884D01*
X208095405Y-78269524D01*
X208254646Y-78153828D01*
X208393828Y-78014646D01*
X208509524Y-77855405D01*
X208527297Y-77820523D01*
X208599515Y-77678787D01*
X208647489Y-77627990D01*
X208715310Y-77611195D01*
X208781445Y-77633732D01*
X208820485Y-77678787D01*
X208910474Y-77855403D01*
X208935702Y-77890125D01*
X209026172Y-78014646D01*
X209165354Y-78153828D01*
X209324595Y-78269524D01*
X209407455Y-78311743D01*
X209499970Y-78358882D01*
X209499972Y-78358882D01*
X209499975Y-78358884D01*
X209600317Y-78391487D01*
X209687173Y-78419709D01*
X209881578Y-78450500D01*
X209881583Y-78450500D01*
X210078422Y-78450500D01*
X210272826Y-78419709D01*
X210274328Y-78419221D01*
X210460025Y-78358884D01*
X210635405Y-78269524D01*
X210794646Y-78153828D01*
X210933828Y-78014646D01*
X211049524Y-77855405D01*
X211067297Y-77820523D01*
X211139515Y-77678787D01*
X211187489Y-77627990D01*
X211255310Y-77611195D01*
X211321445Y-77633732D01*
X211360485Y-77678787D01*
X211450474Y-77855403D01*
X211475702Y-77890125D01*
X211566172Y-78014646D01*
X211705354Y-78153828D01*
X211864595Y-78269524D01*
X211947455Y-78311743D01*
X212039970Y-78358882D01*
X212039972Y-78358882D01*
X212039975Y-78358884D01*
X212140317Y-78391487D01*
X212227173Y-78419709D01*
X212421578Y-78450500D01*
X212421583Y-78450500D01*
X212618422Y-78450500D01*
X212812826Y-78419709D01*
X212814328Y-78419221D01*
X213000025Y-78358884D01*
X213175405Y-78269524D01*
X213334646Y-78153828D01*
X213473828Y-78014646D01*
X213589524Y-77855405D01*
X213607297Y-77820523D01*
X213679515Y-77678787D01*
X213727489Y-77627990D01*
X213795310Y-77611195D01*
X213861445Y-77633732D01*
X213900485Y-77678787D01*
X213990474Y-77855403D01*
X214015702Y-77890125D01*
X214106172Y-78014646D01*
X214245354Y-78153828D01*
X214404595Y-78269524D01*
X214487455Y-78311743D01*
X214579970Y-78358882D01*
X214579972Y-78358882D01*
X214579975Y-78358884D01*
X214680317Y-78391487D01*
X214767173Y-78419709D01*
X214961578Y-78450500D01*
X214961583Y-78450500D01*
X215158422Y-78450500D01*
X215352826Y-78419709D01*
X215354328Y-78419221D01*
X215540025Y-78358884D01*
X215715405Y-78269524D01*
X215874646Y-78153828D01*
X216013828Y-78014646D01*
X216129524Y-77855405D01*
X216147297Y-77820523D01*
X216219515Y-77678787D01*
X216267489Y-77627990D01*
X216335310Y-77611195D01*
X216401445Y-77633732D01*
X216440485Y-77678787D01*
X216530474Y-77855403D01*
X216555702Y-77890125D01*
X216646172Y-78014646D01*
X216785354Y-78153828D01*
X216944595Y-78269524D01*
X217027455Y-78311743D01*
X217119970Y-78358882D01*
X217119972Y-78358882D01*
X217119975Y-78358884D01*
X217220317Y-78391487D01*
X217307173Y-78419709D01*
X217501578Y-78450500D01*
X217501583Y-78450500D01*
X217698422Y-78450500D01*
X217892826Y-78419709D01*
X217894328Y-78419221D01*
X218080025Y-78358884D01*
X218255405Y-78269524D01*
X218414646Y-78153828D01*
X218553828Y-78014646D01*
X218669524Y-77855405D01*
X218758884Y-77680025D01*
X218819709Y-77492826D01*
X218850500Y-77298422D01*
X218850500Y-77101577D01*
X218819709Y-76907173D01*
X218773359Y-76764524D01*
X218758884Y-76719975D01*
X218758882Y-76719972D01*
X218758882Y-76719970D01*
X218711743Y-76627455D01*
X218669524Y-76544595D01*
X218553828Y-76385354D01*
X218414646Y-76246172D01*
X218255405Y-76130476D01*
X218080029Y-76041117D01*
X217892826Y-75980290D01*
X217698422Y-75949500D01*
X217698417Y-75949500D01*
X217501583Y-75949500D01*
X217501578Y-75949500D01*
X217307173Y-75980290D01*
X217119970Y-76041117D01*
X216944594Y-76130476D01*
X216883279Y-76175025D01*
X216785354Y-76246172D01*
X216785352Y-76246174D01*
X216785351Y-76246174D01*
X216646174Y-76385351D01*
X216646174Y-76385352D01*
X216646172Y-76385354D01*
X216636553Y-76398594D01*
X216530476Y-76544594D01*
X216440485Y-76721213D01*
X216392511Y-76772009D01*
X216324690Y-76788804D01*
X216258555Y-76766267D01*
X216219515Y-76721213D01*
X216182631Y-76648825D01*
X216129524Y-76544595D01*
X216013828Y-76385354D01*
X215874646Y-76246172D01*
X215715405Y-76130476D01*
X215540029Y-76041117D01*
X215352826Y-75980290D01*
X215158422Y-75949500D01*
X215158417Y-75949500D01*
X214961583Y-75949500D01*
X214961578Y-75949500D01*
X214767173Y-75980290D01*
X214579970Y-76041117D01*
X214404594Y-76130476D01*
X214343279Y-76175025D01*
X214245354Y-76246172D01*
X214245352Y-76246174D01*
X214245351Y-76246174D01*
X214106174Y-76385351D01*
X214106174Y-76385352D01*
X214106172Y-76385354D01*
X214096553Y-76398594D01*
X213990476Y-76544594D01*
X213900485Y-76721213D01*
X213852511Y-76772009D01*
X213784690Y-76788804D01*
X213718555Y-76766267D01*
X213679515Y-76721213D01*
X213642631Y-76648825D01*
X213589524Y-76544595D01*
X213473828Y-76385354D01*
X213334646Y-76246172D01*
X213175405Y-76130476D01*
X213000029Y-76041117D01*
X212812826Y-75980290D01*
X212618422Y-75949500D01*
X212618417Y-75949500D01*
X212421583Y-75949500D01*
X212421578Y-75949500D01*
X212227173Y-75980290D01*
X212039970Y-76041117D01*
X211864594Y-76130476D01*
X211803279Y-76175025D01*
X211705354Y-76246172D01*
X211705352Y-76246174D01*
X211705351Y-76246174D01*
X211566174Y-76385351D01*
X211566174Y-76385352D01*
X211566172Y-76385354D01*
X211556553Y-76398594D01*
X211450476Y-76544594D01*
X211360485Y-76721213D01*
X211312511Y-76772009D01*
X211244690Y-76788804D01*
X211178555Y-76766267D01*
X211139515Y-76721213D01*
X211102631Y-76648825D01*
X211049524Y-76544595D01*
X210933828Y-76385354D01*
X210794646Y-76246172D01*
X210635405Y-76130476D01*
X210460029Y-76041117D01*
X210272826Y-75980290D01*
X210078422Y-75949500D01*
X210078417Y-75949500D01*
X209881583Y-75949500D01*
X209881578Y-75949500D01*
X209687173Y-75980290D01*
X209499970Y-76041117D01*
X209324594Y-76130476D01*
X209263279Y-76175025D01*
X209165354Y-76246172D01*
X209165352Y-76246174D01*
X209165351Y-76246174D01*
X209026174Y-76385351D01*
X209026174Y-76385352D01*
X209026172Y-76385354D01*
X209016553Y-76398594D01*
X208910476Y-76544594D01*
X208820485Y-76721213D01*
X208772511Y-76772009D01*
X208704690Y-76788804D01*
X208638555Y-76766267D01*
X208599515Y-76721213D01*
X208562631Y-76648825D01*
X208509524Y-76544595D01*
X208393828Y-76385354D01*
X208254646Y-76246172D01*
X208095405Y-76130476D01*
X207920029Y-76041117D01*
X207732826Y-75980290D01*
X207538422Y-75949500D01*
X207538417Y-75949500D01*
X207341583Y-75949500D01*
X207341578Y-75949500D01*
X207147173Y-75980290D01*
X206959970Y-76041117D01*
X206784594Y-76130476D01*
X206723279Y-76175025D01*
X206625354Y-76246172D01*
X206625352Y-76246174D01*
X206625351Y-76246174D01*
X206486174Y-76385351D01*
X206486174Y-76385352D01*
X206486172Y-76385354D01*
X206476553Y-76398594D01*
X206370476Y-76544594D01*
X206280485Y-76721213D01*
X206232511Y-76772009D01*
X206164690Y-76788804D01*
X206098555Y-76766267D01*
X206059515Y-76721213D01*
X206022631Y-76648825D01*
X205969524Y-76544595D01*
X205853828Y-76385354D01*
X205714646Y-76246172D01*
X205555405Y-76130476D01*
X205380029Y-76041117D01*
X205192826Y-75980290D01*
X204998422Y-75949500D01*
X204998417Y-75949500D01*
X204801583Y-75949500D01*
X204801578Y-75949500D01*
X204607173Y-75980290D01*
X204419970Y-76041117D01*
X204244594Y-76130476D01*
X204183279Y-76175025D01*
X204085354Y-76246172D01*
X204085352Y-76246174D01*
X204085351Y-76246174D01*
X203946174Y-76385351D01*
X203946174Y-76385352D01*
X203946172Y-76385354D01*
X203936553Y-76398594D01*
X203830476Y-76544594D01*
X203740485Y-76721213D01*
X203692511Y-76772009D01*
X203624690Y-76788804D01*
X203558555Y-76766267D01*
X203519515Y-76721213D01*
X203482631Y-76648825D01*
X203429524Y-76544595D01*
X203313828Y-76385354D01*
X203174646Y-76246172D01*
X203015405Y-76130476D01*
X202840029Y-76041117D01*
X202652826Y-75980290D01*
X202458422Y-75949500D01*
X202458417Y-75949500D01*
X202261583Y-75949500D01*
X202261578Y-75949500D01*
X202067173Y-75980290D01*
X201879970Y-76041117D01*
X201704594Y-76130476D01*
X201643279Y-76175025D01*
X201545354Y-76246172D01*
X201545352Y-76246174D01*
X201545351Y-76246174D01*
X201406174Y-76385351D01*
X201406174Y-76385352D01*
X201406172Y-76385354D01*
X201396553Y-76398594D01*
X201290476Y-76544594D01*
X201200485Y-76721213D01*
X201152511Y-76772009D01*
X201084690Y-76788804D01*
X201018555Y-76766267D01*
X200979515Y-76721213D01*
X200942631Y-76648825D01*
X200889524Y-76544595D01*
X200773828Y-76385354D01*
X200634646Y-76246172D01*
X200475405Y-76130476D01*
X200300029Y-76041117D01*
X200112826Y-75980290D01*
X199918422Y-75949500D01*
X199918417Y-75949500D01*
X199721583Y-75949500D01*
X199721578Y-75949500D01*
X199527173Y-75980290D01*
X199339970Y-76041117D01*
X199164594Y-76130476D01*
X199103279Y-76175025D01*
X199005354Y-76246172D01*
X199005352Y-76246174D01*
X199005351Y-76246174D01*
X198866174Y-76385351D01*
X198866174Y-76385352D01*
X198866172Y-76385354D01*
X198856553Y-76398594D01*
X198750476Y-76544594D01*
X198660204Y-76721764D01*
X198612229Y-76772560D01*
X198544408Y-76789355D01*
X198478274Y-76766818D01*
X198439234Y-76721764D01*
X198349096Y-76544858D01*
X198323678Y-76509873D01*
X198323677Y-76509873D01*
X197762962Y-77070590D01*
X197745925Y-77007007D01*
X197680099Y-76892993D01*
X197587007Y-76799901D01*
X197472993Y-76734075D01*
X197409409Y-76717037D01*
X197970125Y-76156320D01*
X197970125Y-76156319D01*
X197935145Y-76130905D01*
X197759835Y-76041581D01*
X197572705Y-75980778D01*
X197378382Y-75950000D01*
X197181618Y-75950000D01*
X196987294Y-75980778D01*
X196800161Y-76041582D01*
X196624863Y-76130899D01*
X196624859Y-76130902D01*
X196589873Y-76156320D01*
X196589872Y-76156320D01*
X197150590Y-76717037D01*
X197087007Y-76734075D01*
X196972993Y-76799901D01*
X196879901Y-76892993D01*
X196814075Y-77007007D01*
X196797037Y-77070590D01*
X196236320Y-76509872D01*
X196236320Y-76509873D01*
X196210902Y-76544859D01*
X196120765Y-76721764D01*
X196072790Y-76772560D01*
X196004969Y-76789355D01*
X195938835Y-76766818D01*
X195899795Y-76721763D01*
X195809525Y-76544596D01*
X195784132Y-76509646D01*
X195693828Y-76385354D01*
X195554646Y-76246172D01*
X195395405Y-76130476D01*
X195220029Y-76041117D01*
X195032826Y-75980290D01*
X194838422Y-75949500D01*
X194838417Y-75949500D01*
X194641583Y-75949500D01*
X194641578Y-75949500D01*
X194447173Y-75980290D01*
X194259970Y-76041117D01*
X194084594Y-76130476D01*
X194023279Y-76175025D01*
X193925354Y-76246172D01*
X193925352Y-76246174D01*
X193925351Y-76246174D01*
X193786174Y-76385351D01*
X193786174Y-76385352D01*
X193786172Y-76385354D01*
X193776553Y-76398594D01*
X193670476Y-76544594D01*
X193581117Y-76719970D01*
X193520290Y-76907173D01*
X193489500Y-77101577D01*
X193489500Y-77298422D01*
X193520290Y-77492826D01*
X193581117Y-77680029D01*
X193652703Y-77820523D01*
X193670476Y-77855405D01*
X193786172Y-78014646D01*
X193925354Y-78153828D01*
X194084595Y-78269524D01*
X194167455Y-78311743D01*
X194259970Y-78358882D01*
X194259972Y-78358882D01*
X194259975Y-78358884D01*
X194360317Y-78391487D01*
X194447173Y-78419709D01*
X194641578Y-78450500D01*
X194641583Y-78450500D01*
X194838422Y-78450500D01*
X195032826Y-78419709D01*
X195034328Y-78419221D01*
X195220025Y-78358884D01*
X195395405Y-78269524D01*
X195554646Y-78153828D01*
X195693828Y-78014646D01*
X195809524Y-77855405D01*
X195898884Y-77680025D01*
X195898884Y-77680022D01*
X195899795Y-77678236D01*
X195947769Y-77627440D01*
X196015590Y-77610644D01*
X196081725Y-77633181D01*
X196120765Y-77678235D01*
X196210905Y-77855145D01*
X196236319Y-77890125D01*
X196236320Y-77890125D01*
X196797037Y-77329408D01*
X196814075Y-77392993D01*
X196879901Y-77507007D01*
X196972993Y-77600099D01*
X197087007Y-77665925D01*
X197150590Y-77682962D01*
X196589873Y-78243677D01*
X196589873Y-78243678D01*
X196624858Y-78269096D01*
X196800164Y-78358418D01*
X196987294Y-78419221D01*
X197181618Y-78450000D01*
X197383249Y-78450000D01*
X197383249Y-78451549D01*
X197444931Y-78464506D01*
X197494689Y-78513556D01*
X197510029Y-78581721D01*
X197486082Y-78647359D01*
X197473966Y-78661442D01*
X196648229Y-79487181D01*
X196586906Y-79520666D01*
X196560548Y-79523500D01*
X170242607Y-79523500D01*
X170119393Y-79523500D01*
X170095108Y-79528330D01*
X170070822Y-79533161D01*
X170070821Y-79533160D01*
X169998555Y-79547535D01*
X169998547Y-79547537D01*
X169884716Y-79594687D01*
X169884707Y-79594692D01*
X169782268Y-79663140D01*
X169739507Y-79705902D01*
X169695142Y-79750267D01*
X169695139Y-79750270D01*
X153449011Y-95996397D01*
X153387688Y-96029882D01*
X153341932Y-96031189D01*
X153173422Y-96004500D01*
X153173417Y-96004500D01*
X152976583Y-96004500D01*
X152976578Y-96004500D01*
X152782173Y-96035290D01*
X152594970Y-96096117D01*
X152419594Y-96185476D01*
X152328741Y-96251485D01*
X152260354Y-96301172D01*
X152260352Y-96301174D01*
X152260351Y-96301174D01*
X152121174Y-96440351D01*
X152121174Y-96440352D01*
X152121172Y-96440354D01*
X152115513Y-96448143D01*
X152005476Y-96599594D01*
X151915485Y-96776213D01*
X151867511Y-96827009D01*
X151799690Y-96843804D01*
X151733555Y-96821267D01*
X151694515Y-96776213D01*
X151644213Y-96677489D01*
X151604524Y-96599595D01*
X151488828Y-96440354D01*
X151349646Y-96301172D01*
X151190405Y-96185476D01*
X151114134Y-96146614D01*
X151015029Y-96096117D01*
X150827826Y-96035290D01*
X150633422Y-96004500D01*
X150633417Y-96004500D01*
X150436583Y-96004500D01*
X150436578Y-96004500D01*
X150242173Y-96035290D01*
X150054970Y-96096117D01*
X149879594Y-96185476D01*
X149788741Y-96251485D01*
X149720354Y-96301172D01*
X149720352Y-96301174D01*
X149720351Y-96301174D01*
X149581174Y-96440351D01*
X149581174Y-96440352D01*
X149581172Y-96440354D01*
X149575513Y-96448143D01*
X149465476Y-96599594D01*
X149375485Y-96776213D01*
X149327511Y-96827009D01*
X149259690Y-96843804D01*
X149193555Y-96821267D01*
X149154515Y-96776213D01*
X149104213Y-96677489D01*
X149064524Y-96599595D01*
X148948828Y-96440354D01*
X148809646Y-96301172D01*
X148650405Y-96185476D01*
X148574134Y-96146614D01*
X148475029Y-96096117D01*
X148287826Y-96035290D01*
X148093422Y-96004500D01*
X148093417Y-96004500D01*
X147896583Y-96004500D01*
X147896578Y-96004500D01*
X147702173Y-96035290D01*
X147514970Y-96096117D01*
X147339594Y-96185476D01*
X147248741Y-96251485D01*
X147180354Y-96301172D01*
X147180352Y-96301174D01*
X147180351Y-96301174D01*
X147041174Y-96440351D01*
X147041174Y-96440352D01*
X147041172Y-96440354D01*
X147035513Y-96448143D01*
X146925476Y-96599594D01*
X146836117Y-96774970D01*
X146775290Y-96962173D01*
X146744500Y-97156577D01*
X136500500Y-97156577D01*
X136500500Y-68478711D01*
X138749500Y-68478711D01*
X138749500Y-68721288D01*
X138781161Y-68961785D01*
X138843947Y-69196104D01*
X138936773Y-69420205D01*
X138936776Y-69420212D01*
X139058064Y-69630289D01*
X139058066Y-69630292D01*
X139058067Y-69630293D01*
X139205733Y-69822736D01*
X139205739Y-69822743D01*
X139377256Y-69994260D01*
X139377262Y-69994265D01*
X139569711Y-70141936D01*
X139779788Y-70263224D01*
X140003900Y-70356054D01*
X140238211Y-70418838D01*
X140418586Y-70442584D01*
X140478711Y-70450500D01*
X140478712Y-70450500D01*
X140721289Y-70450500D01*
X140769388Y-70444167D01*
X140961789Y-70418838D01*
X141196100Y-70356054D01*
X141420212Y-70263224D01*
X141630289Y-70141936D01*
X141822738Y-69994265D01*
X141994265Y-69822738D01*
X142141936Y-69630289D01*
X142263224Y-69420212D01*
X142356054Y-69196100D01*
X142418838Y-68961789D01*
X142450500Y-68721288D01*
X142450500Y-68478712D01*
X142418838Y-68238211D01*
X142356054Y-68003900D01*
X142263224Y-67779788D01*
X142141936Y-67569711D01*
X141994265Y-67377262D01*
X141994260Y-67377256D01*
X141822743Y-67205739D01*
X141822736Y-67205733D01*
X141630293Y-67058067D01*
X141630292Y-67058066D01*
X141630289Y-67058064D01*
X141420212Y-66936776D01*
X141420205Y-66936773D01*
X141196104Y-66843947D01*
X140961785Y-66781161D01*
X140721289Y-66749500D01*
X140721288Y-66749500D01*
X140478712Y-66749500D01*
X140478711Y-66749500D01*
X140238214Y-66781161D01*
X140003895Y-66843947D01*
X139779794Y-66936773D01*
X139779785Y-66936777D01*
X139569706Y-67058067D01*
X139377263Y-67205733D01*
X139377256Y-67205739D01*
X139205739Y-67377256D01*
X139205733Y-67377263D01*
X139058067Y-67569706D01*
X138936777Y-67779785D01*
X138936773Y-67779794D01*
X138843947Y-68003895D01*
X138781161Y-68238214D01*
X138749500Y-68478711D01*
X136500500Y-68478711D01*
X136500500Y-64624500D01*
X136520185Y-64557461D01*
X136572989Y-64511706D01*
X136624500Y-64500500D01*
X146785218Y-64500500D01*
X146852257Y-64520185D01*
G37*
%TD.AperFunction*%
%TA.AperFunction,Conductor*%
G36*
X235115270Y-114201717D02*
G01*
X235115270Y-114201716D01*
X235154622Y-114147554D01*
X235251093Y-113958221D01*
X235257568Y-113938294D01*
X235297005Y-113880618D01*
X235361363Y-113853419D01*
X235430210Y-113865333D01*
X235481686Y-113912576D01*
X235499500Y-113976611D01*
X235499500Y-115441773D01*
X235479815Y-115508812D01*
X235427011Y-115554567D01*
X235357853Y-115564511D01*
X235294297Y-115535486D01*
X235257570Y-115480094D01*
X235251557Y-115461588D01*
X235155051Y-115272184D01*
X235155049Y-115272181D01*
X235155048Y-115272179D01*
X235030109Y-115100213D01*
X234879786Y-114949890D01*
X234707817Y-114824949D01*
X234698504Y-114820204D01*
X234647707Y-114772230D01*
X234630912Y-114704409D01*
X234653449Y-114638274D01*
X234698507Y-114599232D01*
X234707555Y-114594622D01*
X234761716Y-114555270D01*
X234761717Y-114555270D01*
X234129408Y-113922962D01*
X234192993Y-113905925D01*
X234307007Y-113840099D01*
X234400099Y-113747007D01*
X234465925Y-113632993D01*
X234482962Y-113569408D01*
X235115270Y-114201717D01*
G37*
%TD.AperFunction*%
%TA.AperFunction,Conductor*%
G36*
X235463182Y-112001589D02*
G01*
X235496666Y-112062912D01*
X235499500Y-112089269D01*
X235499500Y-112903388D01*
X235479815Y-112970427D01*
X235427011Y-113016182D01*
X235357853Y-113026126D01*
X235294297Y-112997101D01*
X235257569Y-112941706D01*
X235251095Y-112921782D01*
X235154624Y-112732449D01*
X235115270Y-112678282D01*
X235115269Y-112678282D01*
X234482962Y-113310590D01*
X234465925Y-113247007D01*
X234400099Y-113132993D01*
X234307007Y-113039901D01*
X234192993Y-112974075D01*
X234129409Y-112957037D01*
X234798802Y-112287642D01*
X234860125Y-112254157D01*
X234874833Y-112255078D01*
X234874556Y-112252501D01*
X234957375Y-112243598D01*
X235092086Y-112193354D01*
X235092093Y-112193350D01*
X235207187Y-112107190D01*
X235207190Y-112107187D01*
X235276234Y-112014958D01*
X235332168Y-111973087D01*
X235401859Y-111968103D01*
X235463182Y-112001589D01*
G37*
%TD.AperFunction*%
%TD*%
M02*
