M48
; DRILL file {KiCad 9.0.4} date 2026-03-28T13:51:59-0300
; FORMAT={-:-/ absolute / metric / decimal}
; #@! TF.CreationDate,2026-03-28T13:51:59-03:00
; #@! TF.GenerationSoftware,Kicad,Pcbnew,9.0.4
; #@! TF.FileFunction,Plated,1,2,PTH
FMAT,2
METRIC
; #@! TA.AperFunction,Plated,PTH,ComponentDrill
T1C0.750
; #@! TA.AperFunction,Plated,PTH,ComponentDrill
T2C0.800
; #@! TA.AperFunction,Plated,PTH,ComponentDrill
T3C1.000
; #@! TA.AperFunction,Plated,PTH,ComponentDrill
T4C4.500
%
G90
G05
T1
X128.975Y-148.6
X130.975Y-148.6
T2
X92.1Y-96.02
X94.6Y-96.02
X102.06Y-96.7
X104.56Y-96.7
X124.19Y-80.65
X126.69Y-80.65
X131.8Y-138.52
X132.71Y-131.34
X134.23Y-80.23
X134.3Y-138.52
X135.21Y-131.34
X136.73Y-80.23
X150.638Y-115.2
X153.138Y-115.2
X160.34Y-119.59
X160.34Y-123.09
X165.96Y-100.46
X165.96Y-102.46
X170.08Y-121.8
X172.08Y-121.8
X172.59Y-96.81
X172.59Y-99.31
X173.59Y-127.74
X173.59Y-130.24
X173.59Y-133.47
X173.59Y-135.97
T3
X86.12Y-100.38
X86.12Y-102.92
X86.12Y-105.46
X86.94Y-114.12
X86.94Y-116.66
X93.31Y-102.12
X93.31Y-127.52
X95.405Y-90.65
X95.85Y-102.12
X95.85Y-127.52
X97.945Y-90.65
X98.39Y-102.12
X98.39Y-127.52
X100.485Y-90.65
X100.93Y-102.12
X100.93Y-127.52
X103.025Y-90.65
X103.47Y-102.12
X103.47Y-127.52
X105.565Y-90.65
X106.01Y-102.12
X106.01Y-127.52
X108.105Y-90.65
X108.55Y-102.12
X108.55Y-127.52
X110.645Y-90.65
X111.09Y-102.12
X111.09Y-127.52
X113.185Y-90.65
X113.63Y-102.12
X113.63Y-127.52
X115.725Y-90.65
X116.17Y-102.12
X116.17Y-127.52
X118.265Y-90.65
X118.71Y-102.12
X118.71Y-127.52
X121.25Y-102.12
X121.25Y-127.52
X123.79Y-102.12
X123.79Y-127.52
X125.24Y-87.68
X125.24Y-90.22
X125.24Y-92.76
X125.24Y-95.3
X126.33Y-102.12
X126.33Y-127.52
X127.78Y-87.68
X127.78Y-90.22
X127.78Y-92.76
X127.78Y-95.3
X128.87Y-102.12
X128.87Y-127.52
X131.41Y-102.12
X131.41Y-127.52
X133.95Y-102.12
X133.95Y-127.52
X136.49Y-102.12
X136.49Y-127.52
X139.03Y-102.12
X139.03Y-127.52
X153.846Y-128.899
X153.846Y-147.441
X156.386Y-128.899
X156.386Y-147.441
X164.514Y-128.899
X164.514Y-147.441
X167.054Y-128.899
X167.054Y-147.441
X178.75Y-120.13
X178.75Y-122.67
X178.75Y-125.21
X178.75Y-127.75
X178.75Y-130.29
X178.75Y-132.83
X179.08Y-95.4
X179.08Y-97.94
X179.08Y-100.48
X179.08Y-103.02
T4
X97.61Y-137.89
X97.61Y-145.09
X144.13Y-137.53
X144.13Y-144.73
M30
