%TF.GenerationSoftware,KiCad,Pcbnew,9.0.4*%
%TF.CreationDate,2026-03-07T23:47:25-03:00*%
%TF.ProjectId,XDF-001,5844462d-3030-4312-9e6b-696361645f70,rev?*%
%TF.SameCoordinates,Original*%
%TF.FileFunction,Copper,L1,Top*%
%TF.FilePolarity,Positive*%
%FSLAX46Y46*%
G04 Gerber Fmt 4.6, Leading zero omitted, Abs format (unit mm)*
G04 Created by KiCad (PCBNEW 9.0.4) date 2026-03-07 23:47:25*
%MOMM*%
%LPD*%
G01*
G04 APERTURE LIST*
G04 Aperture macros list*
%AMRoundRect*
0 Rectangle with rounded corners*
0 $1 Rounding radius*
0 $2 $3 $4 $5 $6 $7 $8 $9 X,Y pos of 4 corners*
0 Add a 4 corners polygon primitive as box body*
4,1,4,$2,$3,$4,$5,$6,$7,$8,$9,$2,$3,0*
0 Add four circle primitives for the rounded corners*
1,1,$1+$1,$2,$3*
1,1,$1+$1,$4,$5*
1,1,$1+$1,$6,$7*
1,1,$1+$1,$8,$9*
0 Add four rect primitives between the rounded corners*
20,1,$1+$1,$2,$3,$4,$5,0*
20,1,$1+$1,$4,$5,$6,$7,0*
20,1,$1+$1,$6,$7,$8,$9,0*
20,1,$1+$1,$8,$9,$2,$3,0*%
G04 Aperture macros list end*
%TA.AperFunction,ComponentPad*%
%ADD10C,1.600000*%
%TD*%
%TA.AperFunction,ComponentPad*%
%ADD11RoundRect,0.250000X-0.550000X-0.550000X0.550000X-0.550000X0.550000X0.550000X-0.550000X0.550000X0*%
%TD*%
%TA.AperFunction,ComponentPad*%
%ADD12RoundRect,0.250000X0.550000X-0.550000X0.550000X0.550000X-0.550000X0.550000X-0.550000X-0.550000X0*%
%TD*%
%TA.AperFunction,ComponentPad*%
%ADD13RoundRect,0.250000X0.550000X0.550000X-0.550000X0.550000X-0.550000X-0.550000X0.550000X-0.550000X0*%
%TD*%
%TA.AperFunction,ComponentPad*%
%ADD14RoundRect,0.250000X-0.550000X0.550000X-0.550000X-0.550000X0.550000X-0.550000X0.550000X0.550000X0*%
%TD*%
%TA.AperFunction,ComponentPad*%
%ADD15C,1.500000*%
%TD*%
%TA.AperFunction,ComponentPad*%
%ADD16RoundRect,0.250000X0.350000X0.625000X-0.350000X0.625000X-0.350000X-0.625000X0.350000X-0.625000X0*%
%TD*%
%TA.AperFunction,ComponentPad*%
%ADD17O,1.200000X1.750000*%
%TD*%
%TA.AperFunction,ComponentPad*%
%ADD18RoundRect,1.500000X1.500000X-1.500000X1.500000X1.500000X-1.500000X1.500000X-1.500000X-1.500000X0*%
%TD*%
%TA.AperFunction,ComponentPad*%
%ADD19C,6.000000*%
%TD*%
%TA.AperFunction,ComponentPad*%
%ADD20R,1.700000X1.700000*%
%TD*%
%TA.AperFunction,ComponentPad*%
%ADD21C,1.700000*%
%TD*%
%TA.AperFunction,Conductor*%
%ADD22C,1.000000*%
%TD*%
%TA.AperFunction,Conductor*%
%ADD23C,0.250000*%
%TD*%
G04 APERTURE END LIST*
D10*
%TO.P,C7,1*%
%TO.N,GND*%
X132710000Y-131340000D03*
%TO.P,C7,2*%
%TO.N,+5V*%
X135210000Y-131340000D03*
%TD*%
D11*
%TO.P,C13,1*%
%TO.N,+5V*%
X150637621Y-115200000D03*
D10*
%TO.P,C13,2*%
%TO.N,GND*%
X153137621Y-115200000D03*
%TD*%
D12*
%TO.P,C12,1*%
%TO.N,+5V*%
X160340000Y-123090000D03*
D10*
%TO.P,C12,2*%
%TO.N,GND*%
X160340000Y-119590000D03*
%TD*%
%TO.P,C11,1*%
%TO.N,+5V*%
X173590000Y-135970000D03*
%TO.P,C11,2*%
%TO.N,GND*%
X173590000Y-133470000D03*
%TD*%
D11*
%TO.P,C10,1*%
%TO.N,+3.3V*%
X170080000Y-121800000D03*
D10*
%TO.P,C10,2*%
%TO.N,GND*%
X172080000Y-121800000D03*
%TD*%
%TO.P,C9,1*%
%TO.N,+3.3V*%
X173590000Y-127740000D03*
%TO.P,C9,2*%
%TO.N,GND*%
X173590000Y-130240000D03*
%TD*%
D13*
%TO.P,C8,1*%
%TO.N,+5V*%
X134300000Y-138520000D03*
D10*
%TO.P,C8,2*%
%TO.N,GND*%
X131800000Y-138520000D03*
%TD*%
%TO.P,C6,1*%
%TO.N,+3.3V*%
X103150000Y-96920000D03*
%TO.P,C6,2*%
%TO.N,GND*%
X105650000Y-96920000D03*
%TD*%
%TO.P,C5,1*%
%TO.N,+3.3V*%
X93840000Y-95870000D03*
%TO.P,C5,2*%
%TO.N,GND*%
X96340000Y-95870000D03*
%TD*%
D14*
%TO.P,C4,1*%
%TO.N,+3.3V*%
X165960000Y-100460000D03*
D10*
%TO.P,C4,2*%
%TO.N,GND*%
X165960000Y-102460000D03*
%TD*%
%TO.P,C3,1*%
%TO.N,+3.3V*%
X172590000Y-96810000D03*
%TO.P,C3,2*%
%TO.N,GND*%
X172590000Y-99310000D03*
%TD*%
D11*
%TO.P,C2,1*%
%TO.N,+3.3V*%
X134230000Y-80230000D03*
D10*
%TO.P,C2,2*%
%TO.N,GND*%
X136730000Y-80230000D03*
%TD*%
%TO.P,C1,1*%
%TO.N,+3.3V*%
X124190000Y-80650000D03*
%TO.P,C1,2*%
%TO.N,GND*%
X126690000Y-80650000D03*
%TD*%
D15*
%TO.P,U8,1,GND*%
%TO.N,GND*%
X178750000Y-120130000D03*
%TO.P,U8,2,~{OE}*%
X178750000Y-122670000D03*
%TO.P,U8,3,SCL*%
%TO.N,/SCL_PCA*%
X178750000Y-125210000D03*
%TO.P,U8,4,SDA*%
%TO.N,/SDA_PCA*%
X178750000Y-127750000D03*
%TO.P,U8,5,VCC*%
%TO.N,+3.3V*%
X178750000Y-130290000D03*
%TO.P,U8,6,V+*%
%TO.N,+5V*%
X178750000Y-132830000D03*
%TD*%
%TO.P,MP1548EN2,1,IN-*%
%TO.N,GND*%
X153846000Y-147441000D03*
%TO.P,MP1548EN2,2,IN-*%
X156386000Y-147441000D03*
%TO.P,MP1548EN2,3,IN+*%
%TO.N,+5V*%
X164514000Y-147441000D03*
%TO.P,MP1548EN2,4,IN+*%
X167054000Y-147441000D03*
%TO.P,MP1548EN2,5,OUT-*%
%TO.N,unconnected-(MP1548EN2-OUT--Pad5)*%
X153846000Y-128899000D03*
%TO.P,MP1548EN2,6,OUT-*%
%TO.N,GND*%
X156386000Y-128899000D03*
%TO.P,MP1548EN2,7,OUT+*%
%TO.N,unconnected-(MP1548EN2-OUT+-Pad7)*%
X164514000Y-128899000D03*
%TO.P,MP1548EN2,8,OUT+*%
%TO.N,+3.3V*%
X167054000Y-128899000D03*
%TD*%
D16*
%TO.P,J4,1,Pin_1*%
%TO.N,+8V*%
X130975000Y-148600000D03*
D17*
%TO.P,J4,2,Pin_2*%
%TO.N,GND2*%
X128975000Y-148600000D03*
%TD*%
D15*
%TO.P,U6,1,3V3*%
%TO.N,unconnected-(U6-3V3-Pad1)*%
X93310000Y-127520000D03*
%TO.P,U6,2,GND3*%
%TO.N,unconnected-(U6-GND3-Pad2)*%
X93310000Y-102120000D03*
%TO.P,U6,3,EN*%
%TO.N,unconnected-(U6-EN-Pad3)*%
X95850000Y-127520000D03*
%TO.P,U6,4,IO23*%
%TO.N,/MOSI*%
X95850000Y-102120000D03*
%TO.P,U6,5,SENSOR_VP*%
%TO.N,unconnected-(U6-SENSOR_VP-Pad5)*%
X98390000Y-127520000D03*
%TO.P,U6,6,IO22*%
%TO.N,/SCL_MPU*%
X98390000Y-102120000D03*
%TO.P,U6,7,SENSOR_VN*%
%TO.N,unconnected-(U6-SENSOR_VN-Pad7)*%
X100930000Y-127520000D03*
%TO.P,U6,8,TXD0*%
%TO.N,unconnected-(U6-TXD0-Pad8)*%
X100930000Y-102120000D03*
%TO.P,U6,9,IO34*%
%TO.N,unconnected-(U6-IO34-Pad9)*%
X103470000Y-127520000D03*
%TO.P,U6,10,RXD0*%
%TO.N,unconnected-(U6-RXD0-Pad10)*%
X103470000Y-102120000D03*
%TO.P,U6,11,IO35*%
%TO.N,unconnected-(U6-IO35-Pad11)*%
X106010000Y-127520000D03*
%TO.P,U6,12,IO21*%
%TO.N,/SDA_MPU*%
X106010000Y-102120000D03*
%TO.P,U6,13,IO32*%
%TO.N,/SDA_PCA*%
X108550000Y-127520000D03*
%TO.P,U6,14,GND2*%
%TO.N,unconnected-(U6-GND2-Pad14)*%
X108550000Y-102120000D03*
%TO.P,U6,15,IO33*%
%TO.N,unconnected-(U6-IO33-Pad15)*%
X111090000Y-127520000D03*
%TO.P,U6,16,IO19*%
%TO.N,/MISO*%
X111090000Y-102120000D03*
%TO.P,U6,17,IO25*%
%TO.N,unconnected-(U6-IO25-Pad17)*%
X113630000Y-127520000D03*
%TO.P,U6,18,IO18*%
%TO.N,/SCK*%
X113630000Y-102120000D03*
%TO.P,U6,19,IO26*%
%TO.N,/IRQ*%
X116170000Y-127520000D03*
%TO.P,U6,20,IO5*%
%TO.N,/CE*%
X116170000Y-102120000D03*
%TO.P,U6,21,IO27*%
%TO.N,/SCL_PCA*%
X118710000Y-127520000D03*
%TO.P,U6,22,IO17*%
%TO.N,/RX*%
X118710000Y-102120000D03*
%TO.P,U6,23,IO14*%
%TO.N,/MOTOR_SIGNAL*%
X121250000Y-127520000D03*
%TO.P,U6,24,IO16*%
%TO.N,/TX*%
X121250000Y-102120000D03*
%TO.P,U6,25,IO12*%
%TO.N,unconnected-(U6-IO12-Pad25)*%
X123790000Y-127520000D03*
%TO.P,U6,26,IO4*%
%TO.N,/CSN*%
X123790000Y-102120000D03*
%TO.P,U6,27,GND1*%
%TO.N,GND*%
X126330000Y-127520000D03*
%TO.P,U6,28,IO0*%
%TO.N,unconnected-(U6-IO0-Pad28)*%
X126330000Y-102120000D03*
%TO.P,U6,29,IO13*%
%TO.N,unconnected-(U6-IO13-Pad29)*%
X128870000Y-127520000D03*
%TO.P,U6,30,IO2*%
%TO.N,unconnected-(U6-IO2-Pad30)*%
X128870000Y-102120000D03*
%TO.P,U6,31,SD2*%
%TO.N,unconnected-(U6-SD2-Pad31)*%
X131410000Y-127520000D03*
%TO.P,U6,32,IO15*%
%TO.N,unconnected-(U6-IO15-Pad32)*%
X131410000Y-102120000D03*
%TO.P,U6,33,SD3*%
%TO.N,unconnected-(U6-SD3-Pad33)*%
X133950000Y-127520000D03*
%TO.P,U6,34,SD1*%
%TO.N,unconnected-(U6-SD1-Pad34)*%
X133950000Y-102120000D03*
%TO.P,U6,35,CMD*%
%TO.N,unconnected-(U6-CMD-Pad35)*%
X136490000Y-127520000D03*
%TO.P,U6,36,SD0*%
%TO.N,unconnected-(U6-SD0-Pad36)*%
X136490000Y-102120000D03*
%TO.P,U6,37,EXT_5V*%
%TO.N,+5V*%
X139030000Y-127520000D03*
%TO.P,U6,38,CLK*%
%TO.N,unconnected-(U6-CLK-Pad38)*%
X139030000Y-102120000D03*
%TD*%
%TO.P,U10,1,VDD*%
%TO.N,+3.3V*%
X95405000Y-90650000D03*
%TO.P,U10,2,GND*%
%TO.N,GND*%
X97945000Y-90650000D03*
%TO.P,U10,3,SCL/SCLK*%
%TO.N,/SCL_MPU*%
X100485000Y-90650000D03*
%TO.P,U10,4,SDA/SDI*%
%TO.N,/SDA_MPU*%
X103025000Y-90650000D03*
%TO.P,U10,5,AUX_CL*%
%TO.N,unconnected-(U10-AUX_CL-Pad5)*%
X105565000Y-90650000D03*
%TO.P,U10,6,AUX_DA*%
%TO.N,unconnected-(U10-AUX_DA-Pad6)*%
X108105000Y-90650000D03*
%TO.P,U10,7,AD0/SDO*%
%TO.N,unconnected-(U10-AD0{slash}SDO-Pad7)*%
X110645000Y-90650000D03*
%TO.P,U10,8,INT*%
%TO.N,unconnected-(U10-INT-Pad8)*%
X113185000Y-90650000D03*
%TO.P,U10,9,NC*%
%TO.N,unconnected-(U10-NC-Pad9)*%
X115725000Y-90650000D03*
%TO.P,U10,10,FSYNC*%
%TO.N,unconnected-(U10-FSYNC-Pad10)*%
X118265000Y-90650000D03*
%TD*%
D18*
%TO.P,J1,1,Pin_1*%
%TO.N,+8V*%
X144130000Y-144730000D03*
D19*
%TO.P,J1,2,Pin_2*%
%TO.N,GND2*%
X144130000Y-137530000D03*
%TD*%
D15*
%TO.P,U7,1,VCC*%
%TO.N,+3.3V*%
X125240000Y-87680000D03*
%TO.P,U7,2,GND*%
%TO.N,GND*%
X127780000Y-87680000D03*
%TO.P,U7,3,CSN*%
%TO.N,/CSN*%
X125240000Y-90220000D03*
%TO.P,U7,4,CE*%
%TO.N,/CE*%
X127780000Y-90220000D03*
%TO.P,U7,5,MOSI*%
%TO.N,/MOSI*%
X125240000Y-92760000D03*
%TO.P,U7,6,SCK*%
%TO.N,/SCK*%
X127780000Y-92760000D03*
%TO.P,U7,7,~{IRQ}*%
%TO.N,/IRQ*%
X125240000Y-95300000D03*
%TO.P,U7,8,MISO*%
%TO.N,/MISO*%
X127780000Y-95300000D03*
%TD*%
D20*
%TO.P,J2,1,Pin_1*%
%TO.N,+5V*%
X86120000Y-100380000D03*
D21*
%TO.P,J2,2,Pin_2*%
%TO.N,/MOTOR_SIGNAL*%
X86120000Y-102920000D03*
%TO.P,J2,3,Pin_3*%
%TO.N,GND*%
X86120000Y-105460000D03*
%TD*%
D15*
%TO.P,U9,1,VCC*%
%TO.N,+3.3V*%
X179080000Y-95400000D03*
%TO.P,U9,2,RXD1*%
%TO.N,/RX*%
X179080000Y-97940000D03*
%TO.P,U9,3,TXD1*%
%TO.N,/TX*%
X179080000Y-100480000D03*
%TO.P,U9,4,GND*%
%TO.N,GND*%
X179080000Y-103020000D03*
%TD*%
D18*
%TO.P,J3,1,Pin_1*%
%TO.N,+8V*%
X97610000Y-145090000D03*
D19*
%TO.P,J3,2,Pin_2*%
%TO.N,GND2*%
X97610000Y-137890000D03*
%TD*%
D22*
%TO.N,+5V*%
X158527621Y-123090000D02*
X160340000Y-123090000D01*
X150637621Y-115200000D02*
X158527621Y-123090000D01*
%TO.N,+3.3V*%
X131930000Y-82530000D02*
X134230000Y-80230000D01*
X130390000Y-82530000D02*
X131930000Y-82530000D01*
D23*
%TO.N,/IRQ*%
X118928306Y-95300000D02*
X125240000Y-95300000D01*
X112554000Y-101674306D02*
X118928306Y-95300000D01*
%TO.N,/MOSI*%
X118928306Y-92760000D02*
X125240000Y-92760000D01*
X110644306Y-101044000D02*
X118928306Y-92760000D01*
X96926000Y-101044000D02*
X110644306Y-101044000D01*
X95850000Y-102120000D02*
X96926000Y-101044000D01*
%TO.N,/MISO*%
X126704000Y-94224000D02*
X127780000Y-95300000D01*
X118986000Y-94224000D02*
X126704000Y-94224000D01*
X111090000Y-102120000D02*
X118986000Y-94224000D01*
%TO.N,/CSN*%
X126316000Y-89144000D02*
X125240000Y-90220000D01*
X128225694Y-89144000D02*
X126316000Y-89144000D01*
X129758000Y-96152000D02*
X129758000Y-90676306D01*
X129758000Y-90676306D02*
X128225694Y-89144000D01*
X123790000Y-102120000D02*
X129758000Y-96152000D01*
%TO.N,/CE*%
X129307000Y-95932504D02*
X129307000Y-91747000D01*
X128338504Y-96901000D02*
X129307000Y-95932504D01*
X121389000Y-96901000D02*
X128338504Y-96901000D01*
X129307000Y-91747000D02*
X127780000Y-90220000D01*
X116170000Y-102120000D02*
X121389000Y-96901000D01*
%TO.N,/SCK*%
X128856000Y-93836000D02*
X127780000Y-92760000D01*
X128151694Y-96450000D02*
X128856000Y-95745694D01*
X119300000Y-96450000D02*
X128151694Y-96450000D01*
X113630000Y-102120000D02*
X119300000Y-96450000D01*
X128856000Y-95745694D02*
X128856000Y-93836000D01*
D22*
%TO.N,+3.3V*%
X98375000Y-87680000D02*
X95405000Y-90650000D01*
X125240000Y-87680000D02*
X98375000Y-87680000D01*
X130390000Y-82530000D02*
X131320000Y-82530000D01*
X125240000Y-87680000D02*
X130390000Y-82530000D01*
X126040000Y-82500000D02*
X124190000Y-80650000D01*
X126040000Y-82530000D02*
X126040000Y-82500000D01*
X131320000Y-82530000D02*
X129235000Y-82530000D01*
X169050000Y-100350000D02*
X172590000Y-96810000D01*
X93720000Y-95770000D02*
X93720000Y-92335000D01*
X165860000Y-100350000D02*
X169050000Y-100350000D01*
X98351000Y-92101000D02*
X103060000Y-96810000D01*
X169900000Y-123690000D02*
X169900000Y-118480000D01*
X179080000Y-95400000D02*
X180531000Y-96851000D01*
X167054000Y-128899000D02*
X167054000Y-126536000D01*
X95405000Y-90650000D02*
X96856000Y-92101000D01*
X180531000Y-107849000D02*
X169900000Y-118480000D01*
X177670000Y-96810000D02*
X179080000Y-95400000D01*
X93720000Y-92335000D02*
X95405000Y-90650000D01*
X173890000Y-127680000D02*
X169900000Y-123690000D01*
X126040000Y-82530000D02*
X129235000Y-82530000D01*
X172590000Y-96810000D02*
X177670000Y-96810000D01*
X179080000Y-95400000D02*
X179080000Y-92390000D01*
X178750000Y-130290000D02*
X176500000Y-130290000D01*
X176500000Y-130290000D02*
X173890000Y-127680000D01*
X169220000Y-82530000D02*
X131320000Y-82530000D01*
X96856000Y-92101000D02*
X98351000Y-92101000D01*
X179080000Y-92390000D02*
X169220000Y-82530000D01*
X167054000Y-126536000D02*
X169900000Y-123690000D01*
X180531000Y-96851000D02*
X180531000Y-107849000D01*
%TO.N,+5V*%
X174465000Y-137115000D02*
X178750000Y-132830000D01*
X134320000Y-138920000D02*
X139411000Y-133829000D01*
X133000000Y-133550000D02*
X139030000Y-127520000D01*
X134320000Y-138920000D02*
X134320000Y-134870000D01*
X173670000Y-136320000D02*
X174465000Y-137115000D01*
X160616500Y-143543500D02*
X164514000Y-147441000D01*
X168036500Y-143543500D02*
X171510000Y-140070000D01*
X160340000Y-128900000D02*
X171510000Y-140070000D01*
X150902000Y-133829000D02*
X160616500Y-143543500D01*
X86120000Y-100380000D02*
X84401000Y-102099000D01*
X84401000Y-102099000D02*
X84401000Y-125380000D01*
X160340000Y-123262651D02*
X160340000Y-128900000D01*
X173670000Y-135770000D02*
X173670000Y-136320000D01*
X126140000Y-133550000D02*
X133000000Y-133550000D01*
X160616500Y-143543500D02*
X168036500Y-143543500D01*
X134320000Y-134870000D02*
X133000000Y-133550000D01*
X171510000Y-140070000D02*
X174465000Y-137115000D01*
X92571000Y-133550000D02*
X126140000Y-133550000D01*
X139411000Y-133829000D02*
X150902000Y-133829000D01*
X84401000Y-125380000D02*
X92571000Y-133550000D01*
X164514000Y-147441000D02*
X167054000Y-147441000D01*
%TO.N,+8V*%
X130975000Y-148485108D02*
X130975000Y-148600000D01*
X97610000Y-145090000D02*
X127579892Y-145090000D01*
X127950000Y-145090000D02*
X128310000Y-144730000D01*
X127579892Y-145090000D02*
X127950000Y-145090000D01*
X128310000Y-144730000D02*
X144130000Y-144730000D01*
X127579892Y-145090000D02*
X130975000Y-148485108D01*
D23*
%TO.N,/IRQ*%
X112554000Y-123904000D02*
X116170000Y-127520000D01*
X112554000Y-101674306D02*
X112554000Y-123904000D01*
%TD*%
M02*
