%TF.GenerationSoftware,KiCad,Pcbnew,9.0.4*%
%TF.CreationDate,2026-02-07T12:31:06-05:00*%
%TF.ProjectId,XDF-001,5844462d-3030-4312-9e6b-696361645f70,rev?*%
%TF.SameCoordinates,Original*%
%TF.FileFunction,Legend,Top*%
%TF.FilePolarity,Positive*%
%FSLAX46Y46*%
G04 Gerber Fmt 4.6, Leading zero omitted, Abs format (unit mm)*
G04 Created by KiCad (PCBNEW 9.0.4) date 2026-02-07 12:31:06*
%MOMM*%
%LPD*%
G01*
G04 APERTURE LIST*
%ADD10C,0.100000*%
%ADD11C,0.150000*%
%ADD12C,0.050000*%
%ADD13C,0.300000*%
%ADD14C,0.200000*%
%ADD15C,0.120000*%
G04 APERTURE END LIST*
D10*
X166752419Y-145236115D02*
X165752419Y-145236115D01*
X166752419Y-144759925D02*
X165752419Y-144759925D01*
X165752419Y-144759925D02*
X166752419Y-144188497D01*
X166752419Y-144188497D02*
X165752419Y-144188497D01*
X166371466Y-143712306D02*
X166371466Y-142950402D01*
X166752419Y-143331354D02*
X165990514Y-143331354D01*
X165647019Y-133662439D02*
X165647019Y-133471963D01*
X165647019Y-133471963D02*
X165694638Y-133376725D01*
X165694638Y-133376725D02*
X165789876Y-133281487D01*
X165789876Y-133281487D02*
X165980352Y-133233868D01*
X165980352Y-133233868D02*
X166313685Y-133233868D01*
X166313685Y-133233868D02*
X166504161Y-133281487D01*
X166504161Y-133281487D02*
X166599400Y-133376725D01*
X166599400Y-133376725D02*
X166647019Y-133471963D01*
X166647019Y-133471963D02*
X166647019Y-133662439D01*
X166647019Y-133662439D02*
X166599400Y-133757677D01*
X166599400Y-133757677D02*
X166504161Y-133852915D01*
X166504161Y-133852915D02*
X166313685Y-133900534D01*
X166313685Y-133900534D02*
X165980352Y-133900534D01*
X165980352Y-133900534D02*
X165789876Y-133852915D01*
X165789876Y-133852915D02*
X165694638Y-133757677D01*
X165694638Y-133757677D02*
X165647019Y-133662439D01*
X165647019Y-132805296D02*
X166456542Y-132805296D01*
X166456542Y-132805296D02*
X166551780Y-132757677D01*
X166551780Y-132757677D02*
X166599400Y-132710058D01*
X166599400Y-132710058D02*
X166647019Y-132614820D01*
X166647019Y-132614820D02*
X166647019Y-132424344D01*
X166647019Y-132424344D02*
X166599400Y-132329106D01*
X166599400Y-132329106D02*
X166551780Y-132281487D01*
X166551780Y-132281487D02*
X166456542Y-132233868D01*
X166456542Y-132233868D02*
X165647019Y-132233868D01*
X165647019Y-131900534D02*
X165647019Y-131329106D01*
X166647019Y-131614820D02*
X165647019Y-131614820D01*
X166266066Y-130995772D02*
X166266066Y-130233868D01*
X166647019Y-130614820D02*
X165885114Y-130614820D01*
X160447419Y-142006115D02*
X159447419Y-142006115D01*
X159447419Y-142006115D02*
X160161704Y-141672782D01*
X160161704Y-141672782D02*
X159447419Y-141339449D01*
X159447419Y-141339449D02*
X160447419Y-141339449D01*
X160447419Y-140863258D02*
X159447419Y-140863258D01*
X159447419Y-140863258D02*
X159447419Y-140482306D01*
X159447419Y-140482306D02*
X159495038Y-140387068D01*
X159495038Y-140387068D02*
X159542657Y-140339449D01*
X159542657Y-140339449D02*
X159637895Y-140291830D01*
X159637895Y-140291830D02*
X159780752Y-140291830D01*
X159780752Y-140291830D02*
X159875990Y-140339449D01*
X159875990Y-140339449D02*
X159923609Y-140387068D01*
X159923609Y-140387068D02*
X159971228Y-140482306D01*
X159971228Y-140482306D02*
X159971228Y-140863258D01*
X160447419Y-139339449D02*
X160447419Y-139910877D01*
X160447419Y-139625163D02*
X159447419Y-139625163D01*
X159447419Y-139625163D02*
X159590276Y-139720401D01*
X159590276Y-139720401D02*
X159685514Y-139815639D01*
X159685514Y-139815639D02*
X159733133Y-139910877D01*
X159447419Y-138434687D02*
X159447419Y-138910877D01*
X159447419Y-138910877D02*
X159923609Y-138958496D01*
X159923609Y-138958496D02*
X159875990Y-138910877D01*
X159875990Y-138910877D02*
X159828371Y-138815639D01*
X159828371Y-138815639D02*
X159828371Y-138577544D01*
X159828371Y-138577544D02*
X159875990Y-138482306D01*
X159875990Y-138482306D02*
X159923609Y-138434687D01*
X159923609Y-138434687D02*
X160018847Y-138387068D01*
X160018847Y-138387068D02*
X160256942Y-138387068D01*
X160256942Y-138387068D02*
X160352180Y-138434687D01*
X160352180Y-138434687D02*
X160399800Y-138482306D01*
X160399800Y-138482306D02*
X160447419Y-138577544D01*
X160447419Y-138577544D02*
X160447419Y-138815639D01*
X160447419Y-138815639D02*
X160399800Y-138910877D01*
X160399800Y-138910877D02*
X160352180Y-138958496D01*
X159875990Y-137815639D02*
X159828371Y-137910877D01*
X159828371Y-137910877D02*
X159780752Y-137958496D01*
X159780752Y-137958496D02*
X159685514Y-138006115D01*
X159685514Y-138006115D02*
X159637895Y-138006115D01*
X159637895Y-138006115D02*
X159542657Y-137958496D01*
X159542657Y-137958496D02*
X159495038Y-137910877D01*
X159495038Y-137910877D02*
X159447419Y-137815639D01*
X159447419Y-137815639D02*
X159447419Y-137625163D01*
X159447419Y-137625163D02*
X159495038Y-137529925D01*
X159495038Y-137529925D02*
X159542657Y-137482306D01*
X159542657Y-137482306D02*
X159637895Y-137434687D01*
X159637895Y-137434687D02*
X159685514Y-137434687D01*
X159685514Y-137434687D02*
X159780752Y-137482306D01*
X159780752Y-137482306D02*
X159828371Y-137529925D01*
X159828371Y-137529925D02*
X159875990Y-137625163D01*
X159875990Y-137625163D02*
X159875990Y-137815639D01*
X159875990Y-137815639D02*
X159923609Y-137910877D01*
X159923609Y-137910877D02*
X159971228Y-137958496D01*
X159971228Y-137958496D02*
X160066466Y-138006115D01*
X160066466Y-138006115D02*
X160256942Y-138006115D01*
X160256942Y-138006115D02*
X160352180Y-137958496D01*
X160352180Y-137958496D02*
X160399800Y-137910877D01*
X160399800Y-137910877D02*
X160447419Y-137815639D01*
X160447419Y-137815639D02*
X160447419Y-137625163D01*
X160447419Y-137625163D02*
X160399800Y-137529925D01*
X160399800Y-137529925D02*
X160352180Y-137482306D01*
X160352180Y-137482306D02*
X160256942Y-137434687D01*
X160256942Y-137434687D02*
X160066466Y-137434687D01*
X160066466Y-137434687D02*
X159971228Y-137482306D01*
X159971228Y-137482306D02*
X159923609Y-137529925D01*
X159923609Y-137529925D02*
X159875990Y-137625163D01*
X159780752Y-136577544D02*
X160447419Y-136577544D01*
X159399800Y-136815639D02*
X160114085Y-137053734D01*
X160114085Y-137053734D02*
X160114085Y-136434687D01*
X159923609Y-136053734D02*
X159923609Y-135720401D01*
X160447419Y-135577544D02*
X160447419Y-136053734D01*
X160447419Y-136053734D02*
X159447419Y-136053734D01*
X159447419Y-136053734D02*
X159447419Y-135577544D01*
X160447419Y-135148972D02*
X159447419Y-135148972D01*
X159447419Y-135148972D02*
X160447419Y-134577544D01*
X160447419Y-134577544D02*
X159447419Y-134577544D01*
X154750419Y-133433839D02*
X154750419Y-133243363D01*
X154750419Y-133243363D02*
X154798038Y-133148125D01*
X154798038Y-133148125D02*
X154893276Y-133052887D01*
X154893276Y-133052887D02*
X155083752Y-133005268D01*
X155083752Y-133005268D02*
X155417085Y-133005268D01*
X155417085Y-133005268D02*
X155607561Y-133052887D01*
X155607561Y-133052887D02*
X155702800Y-133148125D01*
X155702800Y-133148125D02*
X155750419Y-133243363D01*
X155750419Y-133243363D02*
X155750419Y-133433839D01*
X155750419Y-133433839D02*
X155702800Y-133529077D01*
X155702800Y-133529077D02*
X155607561Y-133624315D01*
X155607561Y-133624315D02*
X155417085Y-133671934D01*
X155417085Y-133671934D02*
X155083752Y-133671934D01*
X155083752Y-133671934D02*
X154893276Y-133624315D01*
X154893276Y-133624315D02*
X154798038Y-133529077D01*
X154798038Y-133529077D02*
X154750419Y-133433839D01*
X154750419Y-132576696D02*
X155559942Y-132576696D01*
X155559942Y-132576696D02*
X155655180Y-132529077D01*
X155655180Y-132529077D02*
X155702800Y-132481458D01*
X155702800Y-132481458D02*
X155750419Y-132386220D01*
X155750419Y-132386220D02*
X155750419Y-132195744D01*
X155750419Y-132195744D02*
X155702800Y-132100506D01*
X155702800Y-132100506D02*
X155655180Y-132052887D01*
X155655180Y-132052887D02*
X155559942Y-132005268D01*
X155559942Y-132005268D02*
X154750419Y-132005268D01*
X154750419Y-131671934D02*
X154750419Y-131100506D01*
X155750419Y-131386220D02*
X154750419Y-131386220D01*
X155369466Y-130767172D02*
X155369466Y-130005268D01*
X155725019Y-145638515D02*
X154725019Y-145638515D01*
X155725019Y-145162325D02*
X154725019Y-145162325D01*
X154725019Y-145162325D02*
X155725019Y-144590897D01*
X155725019Y-144590897D02*
X154725019Y-144590897D01*
X155344066Y-144114706D02*
X155344066Y-143352802D01*
X116057419Y-115451904D02*
X116866942Y-115451904D01*
X116866942Y-115451904D02*
X116962180Y-115404285D01*
X116962180Y-115404285D02*
X117009800Y-115356666D01*
X117009800Y-115356666D02*
X117057419Y-115261428D01*
X117057419Y-115261428D02*
X117057419Y-115070952D01*
X117057419Y-115070952D02*
X117009800Y-114975714D01*
X117009800Y-114975714D02*
X116962180Y-114928095D01*
X116962180Y-114928095D02*
X116866942Y-114880476D01*
X116866942Y-114880476D02*
X116057419Y-114880476D01*
X116057419Y-113975714D02*
X116057419Y-114166190D01*
X116057419Y-114166190D02*
X116105038Y-114261428D01*
X116105038Y-114261428D02*
X116152657Y-114309047D01*
X116152657Y-114309047D02*
X116295514Y-114404285D01*
X116295514Y-114404285D02*
X116485990Y-114451904D01*
X116485990Y-114451904D02*
X116866942Y-114451904D01*
X116866942Y-114451904D02*
X116962180Y-114404285D01*
X116962180Y-114404285D02*
X117009800Y-114356666D01*
X117009800Y-114356666D02*
X117057419Y-114261428D01*
X117057419Y-114261428D02*
X117057419Y-114070952D01*
X117057419Y-114070952D02*
X117009800Y-113975714D01*
X117009800Y-113975714D02*
X116962180Y-113928095D01*
X116962180Y-113928095D02*
X116866942Y-113880476D01*
X116866942Y-113880476D02*
X116628847Y-113880476D01*
X116628847Y-113880476D02*
X116533609Y-113928095D01*
X116533609Y-113928095D02*
X116485990Y-113975714D01*
X116485990Y-113975714D02*
X116438371Y-114070952D01*
X116438371Y-114070952D02*
X116438371Y-114261428D01*
X116438371Y-114261428D02*
X116485990Y-114356666D01*
X116485990Y-114356666D02*
X116533609Y-114404285D01*
X116533609Y-114404285D02*
X116628847Y-114451904D01*
X113210038Y-125442306D02*
X113162419Y-125537544D01*
X113162419Y-125537544D02*
X113162419Y-125680401D01*
X113162419Y-125680401D02*
X113210038Y-125823258D01*
X113210038Y-125823258D02*
X113305276Y-125918496D01*
X113305276Y-125918496D02*
X113400514Y-125966115D01*
X113400514Y-125966115D02*
X113590990Y-126013734D01*
X113590990Y-126013734D02*
X113733847Y-126013734D01*
X113733847Y-126013734D02*
X113924323Y-125966115D01*
X113924323Y-125966115D02*
X114019561Y-125918496D01*
X114019561Y-125918496D02*
X114114800Y-125823258D01*
X114114800Y-125823258D02*
X114162419Y-125680401D01*
X114162419Y-125680401D02*
X114162419Y-125585163D01*
X114162419Y-125585163D02*
X114114800Y-125442306D01*
X114114800Y-125442306D02*
X114067180Y-125394687D01*
X114067180Y-125394687D02*
X113733847Y-125394687D01*
X113733847Y-125394687D02*
X113733847Y-125585163D01*
X113257657Y-125013734D02*
X113210038Y-124966115D01*
X113210038Y-124966115D02*
X113162419Y-124870877D01*
X113162419Y-124870877D02*
X113162419Y-124632782D01*
X113162419Y-124632782D02*
X113210038Y-124537544D01*
X113210038Y-124537544D02*
X113257657Y-124489925D01*
X113257657Y-124489925D02*
X113352895Y-124442306D01*
X113352895Y-124442306D02*
X113448133Y-124442306D01*
X113448133Y-124442306D02*
X113590990Y-124489925D01*
X113590990Y-124489925D02*
X114162419Y-125061353D01*
X114162419Y-125061353D02*
X114162419Y-124442306D01*
X113162419Y-123537544D02*
X113162419Y-124013734D01*
X113162419Y-124013734D02*
X113638609Y-124061353D01*
X113638609Y-124061353D02*
X113590990Y-124013734D01*
X113590990Y-124013734D02*
X113543371Y-123918496D01*
X113543371Y-123918496D02*
X113543371Y-123680401D01*
X113543371Y-123680401D02*
X113590990Y-123585163D01*
X113590990Y-123585163D02*
X113638609Y-123537544D01*
X113638609Y-123537544D02*
X113733847Y-123489925D01*
X113733847Y-123489925D02*
X113971942Y-123489925D01*
X113971942Y-123489925D02*
X114067180Y-123537544D01*
X114067180Y-123537544D02*
X114114800Y-123585163D01*
X114114800Y-123585163D02*
X114162419Y-123680401D01*
X114162419Y-123680401D02*
X114162419Y-123918496D01*
X114162419Y-123918496D02*
X114114800Y-124013734D01*
X114114800Y-124013734D02*
X114067180Y-124061353D01*
X123210038Y-125242306D02*
X123162419Y-125337544D01*
X123162419Y-125337544D02*
X123162419Y-125480401D01*
X123162419Y-125480401D02*
X123210038Y-125623258D01*
X123210038Y-125623258D02*
X123305276Y-125718496D01*
X123305276Y-125718496D02*
X123400514Y-125766115D01*
X123400514Y-125766115D02*
X123590990Y-125813734D01*
X123590990Y-125813734D02*
X123733847Y-125813734D01*
X123733847Y-125813734D02*
X123924323Y-125766115D01*
X123924323Y-125766115D02*
X124019561Y-125718496D01*
X124019561Y-125718496D02*
X124114800Y-125623258D01*
X124114800Y-125623258D02*
X124162419Y-125480401D01*
X124162419Y-125480401D02*
X124162419Y-125385163D01*
X124162419Y-125385163D02*
X124114800Y-125242306D01*
X124114800Y-125242306D02*
X124067180Y-125194687D01*
X124067180Y-125194687D02*
X123733847Y-125194687D01*
X123733847Y-125194687D02*
X123733847Y-125385163D01*
X124162419Y-124242306D02*
X124162419Y-124813734D01*
X124162419Y-124528020D02*
X123162419Y-124528020D01*
X123162419Y-124528020D02*
X123305276Y-124623258D01*
X123305276Y-124623258D02*
X123400514Y-124718496D01*
X123400514Y-124718496D02*
X123448133Y-124813734D01*
X123257657Y-123861353D02*
X123210038Y-123813734D01*
X123210038Y-123813734D02*
X123162419Y-123718496D01*
X123162419Y-123718496D02*
X123162419Y-123480401D01*
X123162419Y-123480401D02*
X123210038Y-123385163D01*
X123210038Y-123385163D02*
X123257657Y-123337544D01*
X123257657Y-123337544D02*
X123352895Y-123289925D01*
X123352895Y-123289925D02*
X123448133Y-123289925D01*
X123448133Y-123289925D02*
X123590990Y-123337544D01*
X123590990Y-123337544D02*
X124162419Y-123908972D01*
X124162419Y-123908972D02*
X124162419Y-123289925D01*
X136984800Y-106323734D02*
X137032419Y-106180877D01*
X137032419Y-106180877D02*
X137032419Y-105942782D01*
X137032419Y-105942782D02*
X136984800Y-105847544D01*
X136984800Y-105847544D02*
X136937180Y-105799925D01*
X136937180Y-105799925D02*
X136841942Y-105752306D01*
X136841942Y-105752306D02*
X136746704Y-105752306D01*
X136746704Y-105752306D02*
X136651466Y-105799925D01*
X136651466Y-105799925D02*
X136603847Y-105847544D01*
X136603847Y-105847544D02*
X136556228Y-105942782D01*
X136556228Y-105942782D02*
X136508609Y-106133258D01*
X136508609Y-106133258D02*
X136460990Y-106228496D01*
X136460990Y-106228496D02*
X136413371Y-106276115D01*
X136413371Y-106276115D02*
X136318133Y-106323734D01*
X136318133Y-106323734D02*
X136222895Y-106323734D01*
X136222895Y-106323734D02*
X136127657Y-106276115D01*
X136127657Y-106276115D02*
X136080038Y-106228496D01*
X136080038Y-106228496D02*
X136032419Y-106133258D01*
X136032419Y-106133258D02*
X136032419Y-105895163D01*
X136032419Y-105895163D02*
X136080038Y-105752306D01*
X137032419Y-105323734D02*
X136032419Y-105323734D01*
X136032419Y-105323734D02*
X136032419Y-105085639D01*
X136032419Y-105085639D02*
X136080038Y-104942782D01*
X136080038Y-104942782D02*
X136175276Y-104847544D01*
X136175276Y-104847544D02*
X136270514Y-104799925D01*
X136270514Y-104799925D02*
X136460990Y-104752306D01*
X136460990Y-104752306D02*
X136603847Y-104752306D01*
X136603847Y-104752306D02*
X136794323Y-104799925D01*
X136794323Y-104799925D02*
X136889561Y-104847544D01*
X136889561Y-104847544D02*
X136984800Y-104942782D01*
X136984800Y-104942782D02*
X137032419Y-105085639D01*
X137032419Y-105085639D02*
X137032419Y-105323734D01*
X136032419Y-104133258D02*
X136032419Y-104038020D01*
X136032419Y-104038020D02*
X136080038Y-103942782D01*
X136080038Y-103942782D02*
X136127657Y-103895163D01*
X136127657Y-103895163D02*
X136222895Y-103847544D01*
X136222895Y-103847544D02*
X136413371Y-103799925D01*
X136413371Y-103799925D02*
X136651466Y-103799925D01*
X136651466Y-103799925D02*
X136841942Y-103847544D01*
X136841942Y-103847544D02*
X136937180Y-103895163D01*
X136937180Y-103895163D02*
X136984800Y-103942782D01*
X136984800Y-103942782D02*
X137032419Y-104038020D01*
X137032419Y-104038020D02*
X137032419Y-104133258D01*
X137032419Y-104133258D02*
X136984800Y-104228496D01*
X136984800Y-104228496D02*
X136937180Y-104276115D01*
X136937180Y-104276115D02*
X136841942Y-104323734D01*
X136841942Y-104323734D02*
X136651466Y-104371353D01*
X136651466Y-104371353D02*
X136413371Y-104371353D01*
X136413371Y-104371353D02*
X136222895Y-104323734D01*
X136222895Y-104323734D02*
X136127657Y-104276115D01*
X136127657Y-104276115D02*
X136080038Y-104228496D01*
X136080038Y-104228496D02*
X136032419Y-104133258D01*
X108130038Y-105902306D02*
X108082419Y-105997544D01*
X108082419Y-105997544D02*
X108082419Y-106140401D01*
X108082419Y-106140401D02*
X108130038Y-106283258D01*
X108130038Y-106283258D02*
X108225276Y-106378496D01*
X108225276Y-106378496D02*
X108320514Y-106426115D01*
X108320514Y-106426115D02*
X108510990Y-106473734D01*
X108510990Y-106473734D02*
X108653847Y-106473734D01*
X108653847Y-106473734D02*
X108844323Y-106426115D01*
X108844323Y-106426115D02*
X108939561Y-106378496D01*
X108939561Y-106378496D02*
X109034800Y-106283258D01*
X109034800Y-106283258D02*
X109082419Y-106140401D01*
X109082419Y-106140401D02*
X109082419Y-106045163D01*
X109082419Y-106045163D02*
X109034800Y-105902306D01*
X109034800Y-105902306D02*
X108987180Y-105854687D01*
X108987180Y-105854687D02*
X108653847Y-105854687D01*
X108653847Y-105854687D02*
X108653847Y-106045163D01*
X109082419Y-105426115D02*
X108082419Y-105426115D01*
X108082419Y-105426115D02*
X109082419Y-104854687D01*
X109082419Y-104854687D02*
X108082419Y-104854687D01*
X109082419Y-104378496D02*
X108082419Y-104378496D01*
X108082419Y-104378496D02*
X108082419Y-104140401D01*
X108082419Y-104140401D02*
X108130038Y-103997544D01*
X108130038Y-103997544D02*
X108225276Y-103902306D01*
X108225276Y-103902306D02*
X108320514Y-103854687D01*
X108320514Y-103854687D02*
X108510990Y-103807068D01*
X108510990Y-103807068D02*
X108653847Y-103807068D01*
X108653847Y-103807068D02*
X108844323Y-103854687D01*
X108844323Y-103854687D02*
X108939561Y-103902306D01*
X108939561Y-103902306D02*
X109034800Y-103997544D01*
X109034800Y-103997544D02*
X109082419Y-104140401D01*
X109082419Y-104140401D02*
X109082419Y-104378496D01*
X98814800Y-125713734D02*
X98862419Y-125570877D01*
X98862419Y-125570877D02*
X98862419Y-125332782D01*
X98862419Y-125332782D02*
X98814800Y-125237544D01*
X98814800Y-125237544D02*
X98767180Y-125189925D01*
X98767180Y-125189925D02*
X98671942Y-125142306D01*
X98671942Y-125142306D02*
X98576704Y-125142306D01*
X98576704Y-125142306D02*
X98481466Y-125189925D01*
X98481466Y-125189925D02*
X98433847Y-125237544D01*
X98433847Y-125237544D02*
X98386228Y-125332782D01*
X98386228Y-125332782D02*
X98338609Y-125523258D01*
X98338609Y-125523258D02*
X98290990Y-125618496D01*
X98290990Y-125618496D02*
X98243371Y-125666115D01*
X98243371Y-125666115D02*
X98148133Y-125713734D01*
X98148133Y-125713734D02*
X98052895Y-125713734D01*
X98052895Y-125713734D02*
X97957657Y-125666115D01*
X97957657Y-125666115D02*
X97910038Y-125618496D01*
X97910038Y-125618496D02*
X97862419Y-125523258D01*
X97862419Y-125523258D02*
X97862419Y-125285163D01*
X97862419Y-125285163D02*
X97910038Y-125142306D01*
X98862419Y-124713734D02*
X97862419Y-124713734D01*
X97862419Y-124713734D02*
X97862419Y-124332782D01*
X97862419Y-124332782D02*
X97910038Y-124237544D01*
X97910038Y-124237544D02*
X97957657Y-124189925D01*
X97957657Y-124189925D02*
X98052895Y-124142306D01*
X98052895Y-124142306D02*
X98195752Y-124142306D01*
X98195752Y-124142306D02*
X98290990Y-124189925D01*
X98290990Y-124189925D02*
X98338609Y-124237544D01*
X98338609Y-124237544D02*
X98386228Y-124332782D01*
X98386228Y-124332782D02*
X98386228Y-124713734D01*
X118260038Y-125292306D02*
X118212419Y-125387544D01*
X118212419Y-125387544D02*
X118212419Y-125530401D01*
X118212419Y-125530401D02*
X118260038Y-125673258D01*
X118260038Y-125673258D02*
X118355276Y-125768496D01*
X118355276Y-125768496D02*
X118450514Y-125816115D01*
X118450514Y-125816115D02*
X118640990Y-125863734D01*
X118640990Y-125863734D02*
X118783847Y-125863734D01*
X118783847Y-125863734D02*
X118974323Y-125816115D01*
X118974323Y-125816115D02*
X119069561Y-125768496D01*
X119069561Y-125768496D02*
X119164800Y-125673258D01*
X119164800Y-125673258D02*
X119212419Y-125530401D01*
X119212419Y-125530401D02*
X119212419Y-125435163D01*
X119212419Y-125435163D02*
X119164800Y-125292306D01*
X119164800Y-125292306D02*
X119117180Y-125244687D01*
X119117180Y-125244687D02*
X118783847Y-125244687D01*
X118783847Y-125244687D02*
X118783847Y-125435163D01*
X118307657Y-124863734D02*
X118260038Y-124816115D01*
X118260038Y-124816115D02*
X118212419Y-124720877D01*
X118212419Y-124720877D02*
X118212419Y-124482782D01*
X118212419Y-124482782D02*
X118260038Y-124387544D01*
X118260038Y-124387544D02*
X118307657Y-124339925D01*
X118307657Y-124339925D02*
X118402895Y-124292306D01*
X118402895Y-124292306D02*
X118498133Y-124292306D01*
X118498133Y-124292306D02*
X118640990Y-124339925D01*
X118640990Y-124339925D02*
X119212419Y-124911353D01*
X119212419Y-124911353D02*
X119212419Y-124292306D01*
X118212419Y-123958972D02*
X118212419Y-123292306D01*
X118212419Y-123292306D02*
X119212419Y-123720877D01*
X108010038Y-125342306D02*
X107962419Y-125437544D01*
X107962419Y-125437544D02*
X107962419Y-125580401D01*
X107962419Y-125580401D02*
X108010038Y-125723258D01*
X108010038Y-125723258D02*
X108105276Y-125818496D01*
X108105276Y-125818496D02*
X108200514Y-125866115D01*
X108200514Y-125866115D02*
X108390990Y-125913734D01*
X108390990Y-125913734D02*
X108533847Y-125913734D01*
X108533847Y-125913734D02*
X108724323Y-125866115D01*
X108724323Y-125866115D02*
X108819561Y-125818496D01*
X108819561Y-125818496D02*
X108914800Y-125723258D01*
X108914800Y-125723258D02*
X108962419Y-125580401D01*
X108962419Y-125580401D02*
X108962419Y-125485163D01*
X108962419Y-125485163D02*
X108914800Y-125342306D01*
X108914800Y-125342306D02*
X108867180Y-125294687D01*
X108867180Y-125294687D02*
X108533847Y-125294687D01*
X108533847Y-125294687D02*
X108533847Y-125485163D01*
X107962419Y-124961353D02*
X107962419Y-124342306D01*
X107962419Y-124342306D02*
X108343371Y-124675639D01*
X108343371Y-124675639D02*
X108343371Y-124532782D01*
X108343371Y-124532782D02*
X108390990Y-124437544D01*
X108390990Y-124437544D02*
X108438609Y-124389925D01*
X108438609Y-124389925D02*
X108533847Y-124342306D01*
X108533847Y-124342306D02*
X108771942Y-124342306D01*
X108771942Y-124342306D02*
X108867180Y-124389925D01*
X108867180Y-124389925D02*
X108914800Y-124437544D01*
X108914800Y-124437544D02*
X108962419Y-124532782D01*
X108962419Y-124532782D02*
X108962419Y-124818496D01*
X108962419Y-124818496D02*
X108914800Y-124913734D01*
X108914800Y-124913734D02*
X108867180Y-124961353D01*
X108057657Y-123961353D02*
X108010038Y-123913734D01*
X108010038Y-123913734D02*
X107962419Y-123818496D01*
X107962419Y-123818496D02*
X107962419Y-123580401D01*
X107962419Y-123580401D02*
X108010038Y-123485163D01*
X108010038Y-123485163D02*
X108057657Y-123437544D01*
X108057657Y-123437544D02*
X108152895Y-123389925D01*
X108152895Y-123389925D02*
X108248133Y-123389925D01*
X108248133Y-123389925D02*
X108390990Y-123437544D01*
X108390990Y-123437544D02*
X108962419Y-124008972D01*
X108962419Y-124008972D02*
X108962419Y-123389925D01*
X105660038Y-125342306D02*
X105612419Y-125437544D01*
X105612419Y-125437544D02*
X105612419Y-125580401D01*
X105612419Y-125580401D02*
X105660038Y-125723258D01*
X105660038Y-125723258D02*
X105755276Y-125818496D01*
X105755276Y-125818496D02*
X105850514Y-125866115D01*
X105850514Y-125866115D02*
X106040990Y-125913734D01*
X106040990Y-125913734D02*
X106183847Y-125913734D01*
X106183847Y-125913734D02*
X106374323Y-125866115D01*
X106374323Y-125866115D02*
X106469561Y-125818496D01*
X106469561Y-125818496D02*
X106564800Y-125723258D01*
X106564800Y-125723258D02*
X106612419Y-125580401D01*
X106612419Y-125580401D02*
X106612419Y-125485163D01*
X106612419Y-125485163D02*
X106564800Y-125342306D01*
X106564800Y-125342306D02*
X106517180Y-125294687D01*
X106517180Y-125294687D02*
X106183847Y-125294687D01*
X106183847Y-125294687D02*
X106183847Y-125485163D01*
X105612419Y-124961353D02*
X105612419Y-124342306D01*
X105612419Y-124342306D02*
X105993371Y-124675639D01*
X105993371Y-124675639D02*
X105993371Y-124532782D01*
X105993371Y-124532782D02*
X106040990Y-124437544D01*
X106040990Y-124437544D02*
X106088609Y-124389925D01*
X106088609Y-124389925D02*
X106183847Y-124342306D01*
X106183847Y-124342306D02*
X106421942Y-124342306D01*
X106421942Y-124342306D02*
X106517180Y-124389925D01*
X106517180Y-124389925D02*
X106564800Y-124437544D01*
X106564800Y-124437544D02*
X106612419Y-124532782D01*
X106612419Y-124532782D02*
X106612419Y-124818496D01*
X106612419Y-124818496D02*
X106564800Y-124913734D01*
X106564800Y-124913734D02*
X106517180Y-124961353D01*
X105612419Y-123437544D02*
X105612419Y-123913734D01*
X105612419Y-123913734D02*
X106088609Y-123961353D01*
X106088609Y-123961353D02*
X106040990Y-123913734D01*
X106040990Y-123913734D02*
X105993371Y-123818496D01*
X105993371Y-123818496D02*
X105993371Y-123580401D01*
X105993371Y-123580401D02*
X106040990Y-123485163D01*
X106040990Y-123485163D02*
X106088609Y-123437544D01*
X106088609Y-123437544D02*
X106183847Y-123389925D01*
X106183847Y-123389925D02*
X106421942Y-123389925D01*
X106421942Y-123389925D02*
X106517180Y-123437544D01*
X106517180Y-123437544D02*
X106564800Y-123485163D01*
X106564800Y-123485163D02*
X106612419Y-123580401D01*
X106612419Y-123580401D02*
X106612419Y-123818496D01*
X106612419Y-123818496D02*
X106564800Y-123913734D01*
X106564800Y-123913734D02*
X106517180Y-123961353D01*
X136160038Y-125242306D02*
X136112419Y-125337544D01*
X136112419Y-125337544D02*
X136112419Y-125480401D01*
X136112419Y-125480401D02*
X136160038Y-125623258D01*
X136160038Y-125623258D02*
X136255276Y-125718496D01*
X136255276Y-125718496D02*
X136350514Y-125766115D01*
X136350514Y-125766115D02*
X136540990Y-125813734D01*
X136540990Y-125813734D02*
X136683847Y-125813734D01*
X136683847Y-125813734D02*
X136874323Y-125766115D01*
X136874323Y-125766115D02*
X136969561Y-125718496D01*
X136969561Y-125718496D02*
X137064800Y-125623258D01*
X137064800Y-125623258D02*
X137112419Y-125480401D01*
X137112419Y-125480401D02*
X137112419Y-125385163D01*
X137112419Y-125385163D02*
X137064800Y-125242306D01*
X137064800Y-125242306D02*
X137017180Y-125194687D01*
X137017180Y-125194687D02*
X136683847Y-125194687D01*
X136683847Y-125194687D02*
X136683847Y-125385163D01*
X137112419Y-124766115D02*
X136112419Y-124766115D01*
X136112419Y-124766115D02*
X137112419Y-124194687D01*
X137112419Y-124194687D02*
X136112419Y-124194687D01*
X137112419Y-123718496D02*
X136112419Y-123718496D01*
X136112419Y-123718496D02*
X136112419Y-123480401D01*
X136112419Y-123480401D02*
X136160038Y-123337544D01*
X136160038Y-123337544D02*
X136255276Y-123242306D01*
X136255276Y-123242306D02*
X136350514Y-123194687D01*
X136350514Y-123194687D02*
X136540990Y-123147068D01*
X136540990Y-123147068D02*
X136683847Y-123147068D01*
X136683847Y-123147068D02*
X136874323Y-123194687D01*
X136874323Y-123194687D02*
X136969561Y-123242306D01*
X136969561Y-123242306D02*
X137064800Y-123337544D01*
X137064800Y-123337544D02*
X137112419Y-123480401D01*
X137112419Y-123480401D02*
X137112419Y-123718496D01*
X125860038Y-125242306D02*
X125812419Y-125337544D01*
X125812419Y-125337544D02*
X125812419Y-125480401D01*
X125812419Y-125480401D02*
X125860038Y-125623258D01*
X125860038Y-125623258D02*
X125955276Y-125718496D01*
X125955276Y-125718496D02*
X126050514Y-125766115D01*
X126050514Y-125766115D02*
X126240990Y-125813734D01*
X126240990Y-125813734D02*
X126383847Y-125813734D01*
X126383847Y-125813734D02*
X126574323Y-125766115D01*
X126574323Y-125766115D02*
X126669561Y-125718496D01*
X126669561Y-125718496D02*
X126764800Y-125623258D01*
X126764800Y-125623258D02*
X126812419Y-125480401D01*
X126812419Y-125480401D02*
X126812419Y-125385163D01*
X126812419Y-125385163D02*
X126764800Y-125242306D01*
X126764800Y-125242306D02*
X126717180Y-125194687D01*
X126717180Y-125194687D02*
X126383847Y-125194687D01*
X126383847Y-125194687D02*
X126383847Y-125385163D01*
X126812419Y-124766115D02*
X125812419Y-124766115D01*
X125812419Y-124766115D02*
X126812419Y-124194687D01*
X126812419Y-124194687D02*
X125812419Y-124194687D01*
X126812419Y-123718496D02*
X125812419Y-123718496D01*
X125812419Y-123718496D02*
X125812419Y-123480401D01*
X125812419Y-123480401D02*
X125860038Y-123337544D01*
X125860038Y-123337544D02*
X125955276Y-123242306D01*
X125955276Y-123242306D02*
X126050514Y-123194687D01*
X126050514Y-123194687D02*
X126240990Y-123147068D01*
X126240990Y-123147068D02*
X126383847Y-123147068D01*
X126383847Y-123147068D02*
X126574323Y-123194687D01*
X126574323Y-123194687D02*
X126669561Y-123242306D01*
X126669561Y-123242306D02*
X126764800Y-123337544D01*
X126764800Y-123337544D02*
X126812419Y-123480401D01*
X126812419Y-123480401D02*
X126812419Y-123718496D01*
X105580038Y-105702306D02*
X105532419Y-105797544D01*
X105532419Y-105797544D02*
X105532419Y-105940401D01*
X105532419Y-105940401D02*
X105580038Y-106083258D01*
X105580038Y-106083258D02*
X105675276Y-106178496D01*
X105675276Y-106178496D02*
X105770514Y-106226115D01*
X105770514Y-106226115D02*
X105960990Y-106273734D01*
X105960990Y-106273734D02*
X106103847Y-106273734D01*
X106103847Y-106273734D02*
X106294323Y-106226115D01*
X106294323Y-106226115D02*
X106389561Y-106178496D01*
X106389561Y-106178496D02*
X106484800Y-106083258D01*
X106484800Y-106083258D02*
X106532419Y-105940401D01*
X106532419Y-105940401D02*
X106532419Y-105845163D01*
X106532419Y-105845163D02*
X106484800Y-105702306D01*
X106484800Y-105702306D02*
X106437180Y-105654687D01*
X106437180Y-105654687D02*
X106103847Y-105654687D01*
X106103847Y-105654687D02*
X106103847Y-105845163D01*
X105627657Y-105273734D02*
X105580038Y-105226115D01*
X105580038Y-105226115D02*
X105532419Y-105130877D01*
X105532419Y-105130877D02*
X105532419Y-104892782D01*
X105532419Y-104892782D02*
X105580038Y-104797544D01*
X105580038Y-104797544D02*
X105627657Y-104749925D01*
X105627657Y-104749925D02*
X105722895Y-104702306D01*
X105722895Y-104702306D02*
X105818133Y-104702306D01*
X105818133Y-104702306D02*
X105960990Y-104749925D01*
X105960990Y-104749925D02*
X106532419Y-105321353D01*
X106532419Y-105321353D02*
X106532419Y-104702306D01*
X106532419Y-103749925D02*
X106532419Y-104321353D01*
X106532419Y-104035639D02*
X105532419Y-104035639D01*
X105532419Y-104035639D02*
X105675276Y-104130877D01*
X105675276Y-104130877D02*
X105770514Y-104226115D01*
X105770514Y-104226115D02*
X105818133Y-104321353D01*
X92980038Y-106252306D02*
X92932419Y-106347544D01*
X92932419Y-106347544D02*
X92932419Y-106490401D01*
X92932419Y-106490401D02*
X92980038Y-106633258D01*
X92980038Y-106633258D02*
X93075276Y-106728496D01*
X93075276Y-106728496D02*
X93170514Y-106776115D01*
X93170514Y-106776115D02*
X93360990Y-106823734D01*
X93360990Y-106823734D02*
X93503847Y-106823734D01*
X93503847Y-106823734D02*
X93694323Y-106776115D01*
X93694323Y-106776115D02*
X93789561Y-106728496D01*
X93789561Y-106728496D02*
X93884800Y-106633258D01*
X93884800Y-106633258D02*
X93932419Y-106490401D01*
X93932419Y-106490401D02*
X93932419Y-106395163D01*
X93932419Y-106395163D02*
X93884800Y-106252306D01*
X93884800Y-106252306D02*
X93837180Y-106204687D01*
X93837180Y-106204687D02*
X93503847Y-106204687D01*
X93503847Y-106204687D02*
X93503847Y-106395163D01*
X93932419Y-105776115D02*
X92932419Y-105776115D01*
X92932419Y-105776115D02*
X93932419Y-105204687D01*
X93932419Y-105204687D02*
X92932419Y-105204687D01*
X93932419Y-104728496D02*
X92932419Y-104728496D01*
X92932419Y-104728496D02*
X92932419Y-104490401D01*
X92932419Y-104490401D02*
X92980038Y-104347544D01*
X92980038Y-104347544D02*
X93075276Y-104252306D01*
X93075276Y-104252306D02*
X93170514Y-104204687D01*
X93170514Y-104204687D02*
X93360990Y-104157068D01*
X93360990Y-104157068D02*
X93503847Y-104157068D01*
X93503847Y-104157068D02*
X93694323Y-104204687D01*
X93694323Y-104204687D02*
X93789561Y-104252306D01*
X93789561Y-104252306D02*
X93884800Y-104347544D01*
X93884800Y-104347544D02*
X93932419Y-104490401D01*
X93932419Y-104490401D02*
X93932419Y-104728496D01*
X128410038Y-125092306D02*
X128362419Y-125187544D01*
X128362419Y-125187544D02*
X128362419Y-125330401D01*
X128362419Y-125330401D02*
X128410038Y-125473258D01*
X128410038Y-125473258D02*
X128505276Y-125568496D01*
X128505276Y-125568496D02*
X128600514Y-125616115D01*
X128600514Y-125616115D02*
X128790990Y-125663734D01*
X128790990Y-125663734D02*
X128933847Y-125663734D01*
X128933847Y-125663734D02*
X129124323Y-125616115D01*
X129124323Y-125616115D02*
X129219561Y-125568496D01*
X129219561Y-125568496D02*
X129314800Y-125473258D01*
X129314800Y-125473258D02*
X129362419Y-125330401D01*
X129362419Y-125330401D02*
X129362419Y-125235163D01*
X129362419Y-125235163D02*
X129314800Y-125092306D01*
X129314800Y-125092306D02*
X129267180Y-125044687D01*
X129267180Y-125044687D02*
X128933847Y-125044687D01*
X128933847Y-125044687D02*
X128933847Y-125235163D01*
X129362419Y-124092306D02*
X129362419Y-124663734D01*
X129362419Y-124378020D02*
X128362419Y-124378020D01*
X128362419Y-124378020D02*
X128505276Y-124473258D01*
X128505276Y-124473258D02*
X128600514Y-124568496D01*
X128600514Y-124568496D02*
X128648133Y-124663734D01*
X128362419Y-123758972D02*
X128362419Y-123139925D01*
X128362419Y-123139925D02*
X128743371Y-123473258D01*
X128743371Y-123473258D02*
X128743371Y-123330401D01*
X128743371Y-123330401D02*
X128790990Y-123235163D01*
X128790990Y-123235163D02*
X128838609Y-123187544D01*
X128838609Y-123187544D02*
X128933847Y-123139925D01*
X128933847Y-123139925D02*
X129171942Y-123139925D01*
X129171942Y-123139925D02*
X129267180Y-123187544D01*
X129267180Y-123187544D02*
X129314800Y-123235163D01*
X129314800Y-123235163D02*
X129362419Y-123330401D01*
X129362419Y-123330401D02*
X129362419Y-123616115D01*
X129362419Y-123616115D02*
X129314800Y-123711353D01*
X129314800Y-123711353D02*
X129267180Y-123758972D01*
X115730038Y-105302306D02*
X115682419Y-105397544D01*
X115682419Y-105397544D02*
X115682419Y-105540401D01*
X115682419Y-105540401D02*
X115730038Y-105683258D01*
X115730038Y-105683258D02*
X115825276Y-105778496D01*
X115825276Y-105778496D02*
X115920514Y-105826115D01*
X115920514Y-105826115D02*
X116110990Y-105873734D01*
X116110990Y-105873734D02*
X116253847Y-105873734D01*
X116253847Y-105873734D02*
X116444323Y-105826115D01*
X116444323Y-105826115D02*
X116539561Y-105778496D01*
X116539561Y-105778496D02*
X116634800Y-105683258D01*
X116634800Y-105683258D02*
X116682419Y-105540401D01*
X116682419Y-105540401D02*
X116682419Y-105445163D01*
X116682419Y-105445163D02*
X116634800Y-105302306D01*
X116634800Y-105302306D02*
X116587180Y-105254687D01*
X116587180Y-105254687D02*
X116253847Y-105254687D01*
X116253847Y-105254687D02*
X116253847Y-105445163D01*
X115682419Y-104349925D02*
X115682419Y-104826115D01*
X115682419Y-104826115D02*
X116158609Y-104873734D01*
X116158609Y-104873734D02*
X116110990Y-104826115D01*
X116110990Y-104826115D02*
X116063371Y-104730877D01*
X116063371Y-104730877D02*
X116063371Y-104492782D01*
X116063371Y-104492782D02*
X116110990Y-104397544D01*
X116110990Y-104397544D02*
X116158609Y-104349925D01*
X116158609Y-104349925D02*
X116253847Y-104302306D01*
X116253847Y-104302306D02*
X116491942Y-104302306D01*
X116491942Y-104302306D02*
X116587180Y-104349925D01*
X116587180Y-104349925D02*
X116634800Y-104397544D01*
X116634800Y-104397544D02*
X116682419Y-104492782D01*
X116682419Y-104492782D02*
X116682419Y-104730877D01*
X116682419Y-104730877D02*
X116634800Y-104826115D01*
X116634800Y-104826115D02*
X116587180Y-104873734D01*
X134364800Y-125663734D02*
X134412419Y-125520877D01*
X134412419Y-125520877D02*
X134412419Y-125282782D01*
X134412419Y-125282782D02*
X134364800Y-125187544D01*
X134364800Y-125187544D02*
X134317180Y-125139925D01*
X134317180Y-125139925D02*
X134221942Y-125092306D01*
X134221942Y-125092306D02*
X134126704Y-125092306D01*
X134126704Y-125092306D02*
X134031466Y-125139925D01*
X134031466Y-125139925D02*
X133983847Y-125187544D01*
X133983847Y-125187544D02*
X133936228Y-125282782D01*
X133936228Y-125282782D02*
X133888609Y-125473258D01*
X133888609Y-125473258D02*
X133840990Y-125568496D01*
X133840990Y-125568496D02*
X133793371Y-125616115D01*
X133793371Y-125616115D02*
X133698133Y-125663734D01*
X133698133Y-125663734D02*
X133602895Y-125663734D01*
X133602895Y-125663734D02*
X133507657Y-125616115D01*
X133507657Y-125616115D02*
X133460038Y-125568496D01*
X133460038Y-125568496D02*
X133412419Y-125473258D01*
X133412419Y-125473258D02*
X133412419Y-125235163D01*
X133412419Y-125235163D02*
X133460038Y-125092306D01*
X134412419Y-124663734D02*
X133412419Y-124663734D01*
X133412419Y-124663734D02*
X133412419Y-124425639D01*
X133412419Y-124425639D02*
X133460038Y-124282782D01*
X133460038Y-124282782D02*
X133555276Y-124187544D01*
X133555276Y-124187544D02*
X133650514Y-124139925D01*
X133650514Y-124139925D02*
X133840990Y-124092306D01*
X133840990Y-124092306D02*
X133983847Y-124092306D01*
X133983847Y-124092306D02*
X134174323Y-124139925D01*
X134174323Y-124139925D02*
X134269561Y-124187544D01*
X134269561Y-124187544D02*
X134364800Y-124282782D01*
X134364800Y-124282782D02*
X134412419Y-124425639D01*
X134412419Y-124425639D02*
X134412419Y-124663734D01*
X133412419Y-123758972D02*
X133412419Y-123139925D01*
X133412419Y-123139925D02*
X133793371Y-123473258D01*
X133793371Y-123473258D02*
X133793371Y-123330401D01*
X133793371Y-123330401D02*
X133840990Y-123235163D01*
X133840990Y-123235163D02*
X133888609Y-123187544D01*
X133888609Y-123187544D02*
X133983847Y-123139925D01*
X133983847Y-123139925D02*
X134221942Y-123139925D01*
X134221942Y-123139925D02*
X134317180Y-123187544D01*
X134317180Y-123187544D02*
X134364800Y-123235163D01*
X134364800Y-123235163D02*
X134412419Y-123330401D01*
X134412419Y-123330401D02*
X134412419Y-123616115D01*
X134412419Y-123616115D02*
X134364800Y-123711353D01*
X134364800Y-123711353D02*
X134317180Y-123758972D01*
X134534800Y-106373734D02*
X134582419Y-106230877D01*
X134582419Y-106230877D02*
X134582419Y-105992782D01*
X134582419Y-105992782D02*
X134534800Y-105897544D01*
X134534800Y-105897544D02*
X134487180Y-105849925D01*
X134487180Y-105849925D02*
X134391942Y-105802306D01*
X134391942Y-105802306D02*
X134296704Y-105802306D01*
X134296704Y-105802306D02*
X134201466Y-105849925D01*
X134201466Y-105849925D02*
X134153847Y-105897544D01*
X134153847Y-105897544D02*
X134106228Y-105992782D01*
X134106228Y-105992782D02*
X134058609Y-106183258D01*
X134058609Y-106183258D02*
X134010990Y-106278496D01*
X134010990Y-106278496D02*
X133963371Y-106326115D01*
X133963371Y-106326115D02*
X133868133Y-106373734D01*
X133868133Y-106373734D02*
X133772895Y-106373734D01*
X133772895Y-106373734D02*
X133677657Y-106326115D01*
X133677657Y-106326115D02*
X133630038Y-106278496D01*
X133630038Y-106278496D02*
X133582419Y-106183258D01*
X133582419Y-106183258D02*
X133582419Y-105945163D01*
X133582419Y-105945163D02*
X133630038Y-105802306D01*
X134582419Y-105373734D02*
X133582419Y-105373734D01*
X133582419Y-105373734D02*
X133582419Y-105135639D01*
X133582419Y-105135639D02*
X133630038Y-104992782D01*
X133630038Y-104992782D02*
X133725276Y-104897544D01*
X133725276Y-104897544D02*
X133820514Y-104849925D01*
X133820514Y-104849925D02*
X134010990Y-104802306D01*
X134010990Y-104802306D02*
X134153847Y-104802306D01*
X134153847Y-104802306D02*
X134344323Y-104849925D01*
X134344323Y-104849925D02*
X134439561Y-104897544D01*
X134439561Y-104897544D02*
X134534800Y-104992782D01*
X134534800Y-104992782D02*
X134582419Y-105135639D01*
X134582419Y-105135639D02*
X134582419Y-105373734D01*
X134582419Y-103849925D02*
X134582419Y-104421353D01*
X134582419Y-104135639D02*
X133582419Y-104135639D01*
X133582419Y-104135639D02*
X133725276Y-104230877D01*
X133725276Y-104230877D02*
X133820514Y-104326115D01*
X133820514Y-104326115D02*
X133868133Y-104421353D01*
X113280038Y-105802306D02*
X113232419Y-105897544D01*
X113232419Y-105897544D02*
X113232419Y-106040401D01*
X113232419Y-106040401D02*
X113280038Y-106183258D01*
X113280038Y-106183258D02*
X113375276Y-106278496D01*
X113375276Y-106278496D02*
X113470514Y-106326115D01*
X113470514Y-106326115D02*
X113660990Y-106373734D01*
X113660990Y-106373734D02*
X113803847Y-106373734D01*
X113803847Y-106373734D02*
X113994323Y-106326115D01*
X113994323Y-106326115D02*
X114089561Y-106278496D01*
X114089561Y-106278496D02*
X114184800Y-106183258D01*
X114184800Y-106183258D02*
X114232419Y-106040401D01*
X114232419Y-106040401D02*
X114232419Y-105945163D01*
X114232419Y-105945163D02*
X114184800Y-105802306D01*
X114184800Y-105802306D02*
X114137180Y-105754687D01*
X114137180Y-105754687D02*
X113803847Y-105754687D01*
X113803847Y-105754687D02*
X113803847Y-105945163D01*
X114232419Y-104802306D02*
X114232419Y-105373734D01*
X114232419Y-105088020D02*
X113232419Y-105088020D01*
X113232419Y-105088020D02*
X113375276Y-105183258D01*
X113375276Y-105183258D02*
X113470514Y-105278496D01*
X113470514Y-105278496D02*
X113518133Y-105373734D01*
X113660990Y-104230877D02*
X113613371Y-104326115D01*
X113613371Y-104326115D02*
X113565752Y-104373734D01*
X113565752Y-104373734D02*
X113470514Y-104421353D01*
X113470514Y-104421353D02*
X113422895Y-104421353D01*
X113422895Y-104421353D02*
X113327657Y-104373734D01*
X113327657Y-104373734D02*
X113280038Y-104326115D01*
X113280038Y-104326115D02*
X113232419Y-104230877D01*
X113232419Y-104230877D02*
X113232419Y-104040401D01*
X113232419Y-104040401D02*
X113280038Y-103945163D01*
X113280038Y-103945163D02*
X113327657Y-103897544D01*
X113327657Y-103897544D02*
X113422895Y-103849925D01*
X113422895Y-103849925D02*
X113470514Y-103849925D01*
X113470514Y-103849925D02*
X113565752Y-103897544D01*
X113565752Y-103897544D02*
X113613371Y-103945163D01*
X113613371Y-103945163D02*
X113660990Y-104040401D01*
X113660990Y-104040401D02*
X113660990Y-104230877D01*
X113660990Y-104230877D02*
X113708609Y-104326115D01*
X113708609Y-104326115D02*
X113756228Y-104373734D01*
X113756228Y-104373734D02*
X113851466Y-104421353D01*
X113851466Y-104421353D02*
X114041942Y-104421353D01*
X114041942Y-104421353D02*
X114137180Y-104373734D01*
X114137180Y-104373734D02*
X114184800Y-104326115D01*
X114184800Y-104326115D02*
X114232419Y-104230877D01*
X114232419Y-104230877D02*
X114232419Y-104040401D01*
X114232419Y-104040401D02*
X114184800Y-103945163D01*
X114184800Y-103945163D02*
X114137180Y-103897544D01*
X114137180Y-103897544D02*
X114041942Y-103849925D01*
X114041942Y-103849925D02*
X113851466Y-103849925D01*
X113851466Y-103849925D02*
X113756228Y-103897544D01*
X113756228Y-103897544D02*
X113708609Y-103945163D01*
X113708609Y-103945163D02*
X113660990Y-104040401D01*
X115760038Y-125242306D02*
X115712419Y-125337544D01*
X115712419Y-125337544D02*
X115712419Y-125480401D01*
X115712419Y-125480401D02*
X115760038Y-125623258D01*
X115760038Y-125623258D02*
X115855276Y-125718496D01*
X115855276Y-125718496D02*
X115950514Y-125766115D01*
X115950514Y-125766115D02*
X116140990Y-125813734D01*
X116140990Y-125813734D02*
X116283847Y-125813734D01*
X116283847Y-125813734D02*
X116474323Y-125766115D01*
X116474323Y-125766115D02*
X116569561Y-125718496D01*
X116569561Y-125718496D02*
X116664800Y-125623258D01*
X116664800Y-125623258D02*
X116712419Y-125480401D01*
X116712419Y-125480401D02*
X116712419Y-125385163D01*
X116712419Y-125385163D02*
X116664800Y-125242306D01*
X116664800Y-125242306D02*
X116617180Y-125194687D01*
X116617180Y-125194687D02*
X116283847Y-125194687D01*
X116283847Y-125194687D02*
X116283847Y-125385163D01*
X115807657Y-124813734D02*
X115760038Y-124766115D01*
X115760038Y-124766115D02*
X115712419Y-124670877D01*
X115712419Y-124670877D02*
X115712419Y-124432782D01*
X115712419Y-124432782D02*
X115760038Y-124337544D01*
X115760038Y-124337544D02*
X115807657Y-124289925D01*
X115807657Y-124289925D02*
X115902895Y-124242306D01*
X115902895Y-124242306D02*
X115998133Y-124242306D01*
X115998133Y-124242306D02*
X116140990Y-124289925D01*
X116140990Y-124289925D02*
X116712419Y-124861353D01*
X116712419Y-124861353D02*
X116712419Y-124242306D01*
X115712419Y-123385163D02*
X115712419Y-123575639D01*
X115712419Y-123575639D02*
X115760038Y-123670877D01*
X115760038Y-123670877D02*
X115807657Y-123718496D01*
X115807657Y-123718496D02*
X115950514Y-123813734D01*
X115950514Y-123813734D02*
X116140990Y-123861353D01*
X116140990Y-123861353D02*
X116521942Y-123861353D01*
X116521942Y-123861353D02*
X116617180Y-123813734D01*
X116617180Y-123813734D02*
X116664800Y-123766115D01*
X116664800Y-123766115D02*
X116712419Y-123670877D01*
X116712419Y-123670877D02*
X116712419Y-123480401D01*
X116712419Y-123480401D02*
X116664800Y-123385163D01*
X116664800Y-123385163D02*
X116617180Y-123337544D01*
X116617180Y-123337544D02*
X116521942Y-123289925D01*
X116521942Y-123289925D02*
X116283847Y-123289925D01*
X116283847Y-123289925D02*
X116188609Y-123337544D01*
X116188609Y-123337544D02*
X116140990Y-123385163D01*
X116140990Y-123385163D02*
X116093371Y-123480401D01*
X116093371Y-123480401D02*
X116093371Y-123670877D01*
X116093371Y-123670877D02*
X116140990Y-123766115D01*
X116140990Y-123766115D02*
X116188609Y-123813734D01*
X116188609Y-123813734D02*
X116283847Y-123861353D01*
X110660038Y-125342306D02*
X110612419Y-125437544D01*
X110612419Y-125437544D02*
X110612419Y-125580401D01*
X110612419Y-125580401D02*
X110660038Y-125723258D01*
X110660038Y-125723258D02*
X110755276Y-125818496D01*
X110755276Y-125818496D02*
X110850514Y-125866115D01*
X110850514Y-125866115D02*
X111040990Y-125913734D01*
X111040990Y-125913734D02*
X111183847Y-125913734D01*
X111183847Y-125913734D02*
X111374323Y-125866115D01*
X111374323Y-125866115D02*
X111469561Y-125818496D01*
X111469561Y-125818496D02*
X111564800Y-125723258D01*
X111564800Y-125723258D02*
X111612419Y-125580401D01*
X111612419Y-125580401D02*
X111612419Y-125485163D01*
X111612419Y-125485163D02*
X111564800Y-125342306D01*
X111564800Y-125342306D02*
X111517180Y-125294687D01*
X111517180Y-125294687D02*
X111183847Y-125294687D01*
X111183847Y-125294687D02*
X111183847Y-125485163D01*
X110612419Y-124961353D02*
X110612419Y-124342306D01*
X110612419Y-124342306D02*
X110993371Y-124675639D01*
X110993371Y-124675639D02*
X110993371Y-124532782D01*
X110993371Y-124532782D02*
X111040990Y-124437544D01*
X111040990Y-124437544D02*
X111088609Y-124389925D01*
X111088609Y-124389925D02*
X111183847Y-124342306D01*
X111183847Y-124342306D02*
X111421942Y-124342306D01*
X111421942Y-124342306D02*
X111517180Y-124389925D01*
X111517180Y-124389925D02*
X111564800Y-124437544D01*
X111564800Y-124437544D02*
X111612419Y-124532782D01*
X111612419Y-124532782D02*
X111612419Y-124818496D01*
X111612419Y-124818496D02*
X111564800Y-124913734D01*
X111564800Y-124913734D02*
X111517180Y-124961353D01*
X110612419Y-124008972D02*
X110612419Y-123389925D01*
X110612419Y-123389925D02*
X110993371Y-123723258D01*
X110993371Y-123723258D02*
X110993371Y-123580401D01*
X110993371Y-123580401D02*
X111040990Y-123485163D01*
X111040990Y-123485163D02*
X111088609Y-123437544D01*
X111088609Y-123437544D02*
X111183847Y-123389925D01*
X111183847Y-123389925D02*
X111421942Y-123389925D01*
X111421942Y-123389925D02*
X111517180Y-123437544D01*
X111517180Y-123437544D02*
X111564800Y-123485163D01*
X111564800Y-123485163D02*
X111612419Y-123580401D01*
X111612419Y-123580401D02*
X111612419Y-123866115D01*
X111612419Y-123866115D02*
X111564800Y-123961353D01*
X111564800Y-123961353D02*
X111517180Y-124008972D01*
X103110038Y-125292306D02*
X103062419Y-125387544D01*
X103062419Y-125387544D02*
X103062419Y-125530401D01*
X103062419Y-125530401D02*
X103110038Y-125673258D01*
X103110038Y-125673258D02*
X103205276Y-125768496D01*
X103205276Y-125768496D02*
X103300514Y-125816115D01*
X103300514Y-125816115D02*
X103490990Y-125863734D01*
X103490990Y-125863734D02*
X103633847Y-125863734D01*
X103633847Y-125863734D02*
X103824323Y-125816115D01*
X103824323Y-125816115D02*
X103919561Y-125768496D01*
X103919561Y-125768496D02*
X104014800Y-125673258D01*
X104014800Y-125673258D02*
X104062419Y-125530401D01*
X104062419Y-125530401D02*
X104062419Y-125435163D01*
X104062419Y-125435163D02*
X104014800Y-125292306D01*
X104014800Y-125292306D02*
X103967180Y-125244687D01*
X103967180Y-125244687D02*
X103633847Y-125244687D01*
X103633847Y-125244687D02*
X103633847Y-125435163D01*
X103062419Y-124911353D02*
X103062419Y-124292306D01*
X103062419Y-124292306D02*
X103443371Y-124625639D01*
X103443371Y-124625639D02*
X103443371Y-124482782D01*
X103443371Y-124482782D02*
X103490990Y-124387544D01*
X103490990Y-124387544D02*
X103538609Y-124339925D01*
X103538609Y-124339925D02*
X103633847Y-124292306D01*
X103633847Y-124292306D02*
X103871942Y-124292306D01*
X103871942Y-124292306D02*
X103967180Y-124339925D01*
X103967180Y-124339925D02*
X104014800Y-124387544D01*
X104014800Y-124387544D02*
X104062419Y-124482782D01*
X104062419Y-124482782D02*
X104062419Y-124768496D01*
X104062419Y-124768496D02*
X104014800Y-124863734D01*
X104014800Y-124863734D02*
X103967180Y-124911353D01*
X103395752Y-123435163D02*
X104062419Y-123435163D01*
X103014800Y-123673258D02*
X103729085Y-123911353D01*
X103729085Y-123911353D02*
X103729085Y-123292306D01*
X139487180Y-105704687D02*
X139534800Y-105752306D01*
X139534800Y-105752306D02*
X139582419Y-105895163D01*
X139582419Y-105895163D02*
X139582419Y-105990401D01*
X139582419Y-105990401D02*
X139534800Y-106133258D01*
X139534800Y-106133258D02*
X139439561Y-106228496D01*
X139439561Y-106228496D02*
X139344323Y-106276115D01*
X139344323Y-106276115D02*
X139153847Y-106323734D01*
X139153847Y-106323734D02*
X139010990Y-106323734D01*
X139010990Y-106323734D02*
X138820514Y-106276115D01*
X138820514Y-106276115D02*
X138725276Y-106228496D01*
X138725276Y-106228496D02*
X138630038Y-106133258D01*
X138630038Y-106133258D02*
X138582419Y-105990401D01*
X138582419Y-105990401D02*
X138582419Y-105895163D01*
X138582419Y-105895163D02*
X138630038Y-105752306D01*
X138630038Y-105752306D02*
X138677657Y-105704687D01*
X139582419Y-104799925D02*
X139582419Y-105276115D01*
X139582419Y-105276115D02*
X138582419Y-105276115D01*
X139582419Y-104466591D02*
X138582419Y-104466591D01*
X139582419Y-103895163D02*
X139010990Y-104323734D01*
X138582419Y-103895163D02*
X139153847Y-104466591D01*
X123330038Y-105002306D02*
X123282419Y-105097544D01*
X123282419Y-105097544D02*
X123282419Y-105240401D01*
X123282419Y-105240401D02*
X123330038Y-105383258D01*
X123330038Y-105383258D02*
X123425276Y-105478496D01*
X123425276Y-105478496D02*
X123520514Y-105526115D01*
X123520514Y-105526115D02*
X123710990Y-105573734D01*
X123710990Y-105573734D02*
X123853847Y-105573734D01*
X123853847Y-105573734D02*
X124044323Y-105526115D01*
X124044323Y-105526115D02*
X124139561Y-105478496D01*
X124139561Y-105478496D02*
X124234800Y-105383258D01*
X124234800Y-105383258D02*
X124282419Y-105240401D01*
X124282419Y-105240401D02*
X124282419Y-105145163D01*
X124282419Y-105145163D02*
X124234800Y-105002306D01*
X124234800Y-105002306D02*
X124187180Y-104954687D01*
X124187180Y-104954687D02*
X123853847Y-104954687D01*
X123853847Y-104954687D02*
X123853847Y-105145163D01*
X123615752Y-104097544D02*
X124282419Y-104097544D01*
X123234800Y-104335639D02*
X123949085Y-104573734D01*
X123949085Y-104573734D02*
X123949085Y-103954687D01*
X101364800Y-125763734D02*
X101412419Y-125620877D01*
X101412419Y-125620877D02*
X101412419Y-125382782D01*
X101412419Y-125382782D02*
X101364800Y-125287544D01*
X101364800Y-125287544D02*
X101317180Y-125239925D01*
X101317180Y-125239925D02*
X101221942Y-125192306D01*
X101221942Y-125192306D02*
X101126704Y-125192306D01*
X101126704Y-125192306D02*
X101031466Y-125239925D01*
X101031466Y-125239925D02*
X100983847Y-125287544D01*
X100983847Y-125287544D02*
X100936228Y-125382782D01*
X100936228Y-125382782D02*
X100888609Y-125573258D01*
X100888609Y-125573258D02*
X100840990Y-125668496D01*
X100840990Y-125668496D02*
X100793371Y-125716115D01*
X100793371Y-125716115D02*
X100698133Y-125763734D01*
X100698133Y-125763734D02*
X100602895Y-125763734D01*
X100602895Y-125763734D02*
X100507657Y-125716115D01*
X100507657Y-125716115D02*
X100460038Y-125668496D01*
X100460038Y-125668496D02*
X100412419Y-125573258D01*
X100412419Y-125573258D02*
X100412419Y-125335163D01*
X100412419Y-125335163D02*
X100460038Y-125192306D01*
X101412419Y-124763734D02*
X100412419Y-124763734D01*
X100412419Y-124763734D02*
X101412419Y-124192306D01*
X101412419Y-124192306D02*
X100412419Y-124192306D01*
X125830038Y-104902306D02*
X125782419Y-104997544D01*
X125782419Y-104997544D02*
X125782419Y-105140401D01*
X125782419Y-105140401D02*
X125830038Y-105283258D01*
X125830038Y-105283258D02*
X125925276Y-105378496D01*
X125925276Y-105378496D02*
X126020514Y-105426115D01*
X126020514Y-105426115D02*
X126210990Y-105473734D01*
X126210990Y-105473734D02*
X126353847Y-105473734D01*
X126353847Y-105473734D02*
X126544323Y-105426115D01*
X126544323Y-105426115D02*
X126639561Y-105378496D01*
X126639561Y-105378496D02*
X126734800Y-105283258D01*
X126734800Y-105283258D02*
X126782419Y-105140401D01*
X126782419Y-105140401D02*
X126782419Y-105045163D01*
X126782419Y-105045163D02*
X126734800Y-104902306D01*
X126734800Y-104902306D02*
X126687180Y-104854687D01*
X126687180Y-104854687D02*
X126353847Y-104854687D01*
X126353847Y-104854687D02*
X126353847Y-105045163D01*
X125782419Y-104235639D02*
X125782419Y-104140401D01*
X125782419Y-104140401D02*
X125830038Y-104045163D01*
X125830038Y-104045163D02*
X125877657Y-103997544D01*
X125877657Y-103997544D02*
X125972895Y-103949925D01*
X125972895Y-103949925D02*
X126163371Y-103902306D01*
X126163371Y-103902306D02*
X126401466Y-103902306D01*
X126401466Y-103902306D02*
X126591942Y-103949925D01*
X126591942Y-103949925D02*
X126687180Y-103997544D01*
X126687180Y-103997544D02*
X126734800Y-104045163D01*
X126734800Y-104045163D02*
X126782419Y-104140401D01*
X126782419Y-104140401D02*
X126782419Y-104235639D01*
X126782419Y-104235639D02*
X126734800Y-104330877D01*
X126734800Y-104330877D02*
X126687180Y-104378496D01*
X126687180Y-104378496D02*
X126591942Y-104426115D01*
X126591942Y-104426115D02*
X126401466Y-104473734D01*
X126401466Y-104473734D02*
X126163371Y-104473734D01*
X126163371Y-104473734D02*
X125972895Y-104426115D01*
X125972895Y-104426115D02*
X125877657Y-104378496D01*
X125877657Y-104378496D02*
X125830038Y-104330877D01*
X125830038Y-104330877D02*
X125782419Y-104235639D01*
X125830038Y-104902306D02*
X125782419Y-104997544D01*
X125782419Y-104997544D02*
X125782419Y-105140401D01*
X125782419Y-105140401D02*
X125830038Y-105283258D01*
X125830038Y-105283258D02*
X125925276Y-105378496D01*
X125925276Y-105378496D02*
X126020514Y-105426115D01*
X126020514Y-105426115D02*
X126210990Y-105473734D01*
X126210990Y-105473734D02*
X126353847Y-105473734D01*
X126353847Y-105473734D02*
X126544323Y-105426115D01*
X126544323Y-105426115D02*
X126639561Y-105378496D01*
X126639561Y-105378496D02*
X126734800Y-105283258D01*
X126734800Y-105283258D02*
X126782419Y-105140401D01*
X126782419Y-105140401D02*
X126782419Y-105045163D01*
X126782419Y-105045163D02*
X126734800Y-104902306D01*
X126734800Y-104902306D02*
X126687180Y-104854687D01*
X126687180Y-104854687D02*
X126353847Y-104854687D01*
X126353847Y-104854687D02*
X126353847Y-105045163D01*
X125782419Y-104235639D02*
X125782419Y-104140401D01*
X125782419Y-104140401D02*
X125830038Y-104045163D01*
X125830038Y-104045163D02*
X125877657Y-103997544D01*
X125877657Y-103997544D02*
X125972895Y-103949925D01*
X125972895Y-103949925D02*
X126163371Y-103902306D01*
X126163371Y-103902306D02*
X126401466Y-103902306D01*
X126401466Y-103902306D02*
X126591942Y-103949925D01*
X126591942Y-103949925D02*
X126687180Y-103997544D01*
X126687180Y-103997544D02*
X126734800Y-104045163D01*
X126734800Y-104045163D02*
X126782419Y-104140401D01*
X126782419Y-104140401D02*
X126782419Y-104235639D01*
X126782419Y-104235639D02*
X126734800Y-104330877D01*
X126734800Y-104330877D02*
X126687180Y-104378496D01*
X126687180Y-104378496D02*
X126591942Y-104426115D01*
X126591942Y-104426115D02*
X126401466Y-104473734D01*
X126401466Y-104473734D02*
X126163371Y-104473734D01*
X126163371Y-104473734D02*
X125972895Y-104426115D01*
X125972895Y-104426115D02*
X125877657Y-104378496D01*
X125877657Y-104378496D02*
X125830038Y-104330877D01*
X125830038Y-104330877D02*
X125782419Y-104235639D01*
X92862419Y-125661353D02*
X92862419Y-125042306D01*
X92862419Y-125042306D02*
X93243371Y-125375639D01*
X93243371Y-125375639D02*
X93243371Y-125232782D01*
X93243371Y-125232782D02*
X93290990Y-125137544D01*
X93290990Y-125137544D02*
X93338609Y-125089925D01*
X93338609Y-125089925D02*
X93433847Y-125042306D01*
X93433847Y-125042306D02*
X93671942Y-125042306D01*
X93671942Y-125042306D02*
X93767180Y-125089925D01*
X93767180Y-125089925D02*
X93814800Y-125137544D01*
X93814800Y-125137544D02*
X93862419Y-125232782D01*
X93862419Y-125232782D02*
X93862419Y-125518496D01*
X93862419Y-125518496D02*
X93814800Y-125613734D01*
X93814800Y-125613734D02*
X93767180Y-125661353D01*
X92862419Y-124756591D02*
X93862419Y-124423258D01*
X93862419Y-124423258D02*
X92862419Y-124089925D01*
X92862419Y-123851829D02*
X92862419Y-123232782D01*
X92862419Y-123232782D02*
X93243371Y-123566115D01*
X93243371Y-123566115D02*
X93243371Y-123423258D01*
X93243371Y-123423258D02*
X93290990Y-123328020D01*
X93290990Y-123328020D02*
X93338609Y-123280401D01*
X93338609Y-123280401D02*
X93433847Y-123232782D01*
X93433847Y-123232782D02*
X93671942Y-123232782D01*
X93671942Y-123232782D02*
X93767180Y-123280401D01*
X93767180Y-123280401D02*
X93814800Y-123328020D01*
X93814800Y-123328020D02*
X93862419Y-123423258D01*
X93862419Y-123423258D02*
X93862419Y-123708972D01*
X93862419Y-123708972D02*
X93814800Y-123804210D01*
X93814800Y-123804210D02*
X93767180Y-123851829D01*
X98180038Y-106152306D02*
X98132419Y-106247544D01*
X98132419Y-106247544D02*
X98132419Y-106390401D01*
X98132419Y-106390401D02*
X98180038Y-106533258D01*
X98180038Y-106533258D02*
X98275276Y-106628496D01*
X98275276Y-106628496D02*
X98370514Y-106676115D01*
X98370514Y-106676115D02*
X98560990Y-106723734D01*
X98560990Y-106723734D02*
X98703847Y-106723734D01*
X98703847Y-106723734D02*
X98894323Y-106676115D01*
X98894323Y-106676115D02*
X98989561Y-106628496D01*
X98989561Y-106628496D02*
X99084800Y-106533258D01*
X99084800Y-106533258D02*
X99132419Y-106390401D01*
X99132419Y-106390401D02*
X99132419Y-106295163D01*
X99132419Y-106295163D02*
X99084800Y-106152306D01*
X99084800Y-106152306D02*
X99037180Y-106104687D01*
X99037180Y-106104687D02*
X98703847Y-106104687D01*
X98703847Y-106104687D02*
X98703847Y-106295163D01*
X98227657Y-105723734D02*
X98180038Y-105676115D01*
X98180038Y-105676115D02*
X98132419Y-105580877D01*
X98132419Y-105580877D02*
X98132419Y-105342782D01*
X98132419Y-105342782D02*
X98180038Y-105247544D01*
X98180038Y-105247544D02*
X98227657Y-105199925D01*
X98227657Y-105199925D02*
X98322895Y-105152306D01*
X98322895Y-105152306D02*
X98418133Y-105152306D01*
X98418133Y-105152306D02*
X98560990Y-105199925D01*
X98560990Y-105199925D02*
X99132419Y-105771353D01*
X99132419Y-105771353D02*
X99132419Y-105152306D01*
X98227657Y-104771353D02*
X98180038Y-104723734D01*
X98180038Y-104723734D02*
X98132419Y-104628496D01*
X98132419Y-104628496D02*
X98132419Y-104390401D01*
X98132419Y-104390401D02*
X98180038Y-104295163D01*
X98180038Y-104295163D02*
X98227657Y-104247544D01*
X98227657Y-104247544D02*
X98322895Y-104199925D01*
X98322895Y-104199925D02*
X98418133Y-104199925D01*
X98418133Y-104199925D02*
X98560990Y-104247544D01*
X98560990Y-104247544D02*
X99132419Y-104818972D01*
X99132419Y-104818972D02*
X99132419Y-104199925D01*
X138612419Y-125508972D02*
X139612419Y-125175639D01*
X139612419Y-125175639D02*
X138612419Y-124842306D01*
X138612419Y-124032782D02*
X138612419Y-124508972D01*
X138612419Y-124508972D02*
X139088609Y-124556591D01*
X139088609Y-124556591D02*
X139040990Y-124508972D01*
X139040990Y-124508972D02*
X138993371Y-124413734D01*
X138993371Y-124413734D02*
X138993371Y-124175639D01*
X138993371Y-124175639D02*
X139040990Y-124080401D01*
X139040990Y-124080401D02*
X139088609Y-124032782D01*
X139088609Y-124032782D02*
X139183847Y-123985163D01*
X139183847Y-123985163D02*
X139421942Y-123985163D01*
X139421942Y-123985163D02*
X139517180Y-124032782D01*
X139517180Y-124032782D02*
X139564800Y-124080401D01*
X139564800Y-124080401D02*
X139612419Y-124175639D01*
X139612419Y-124175639D02*
X139612419Y-124413734D01*
X139612419Y-124413734D02*
X139564800Y-124508972D01*
X139564800Y-124508972D02*
X139517180Y-124556591D01*
X120930038Y-105902306D02*
X120882419Y-105997544D01*
X120882419Y-105997544D02*
X120882419Y-106140401D01*
X120882419Y-106140401D02*
X120930038Y-106283258D01*
X120930038Y-106283258D02*
X121025276Y-106378496D01*
X121025276Y-106378496D02*
X121120514Y-106426115D01*
X121120514Y-106426115D02*
X121310990Y-106473734D01*
X121310990Y-106473734D02*
X121453847Y-106473734D01*
X121453847Y-106473734D02*
X121644323Y-106426115D01*
X121644323Y-106426115D02*
X121739561Y-106378496D01*
X121739561Y-106378496D02*
X121834800Y-106283258D01*
X121834800Y-106283258D02*
X121882419Y-106140401D01*
X121882419Y-106140401D02*
X121882419Y-106045163D01*
X121882419Y-106045163D02*
X121834800Y-105902306D01*
X121834800Y-105902306D02*
X121787180Y-105854687D01*
X121787180Y-105854687D02*
X121453847Y-105854687D01*
X121453847Y-105854687D02*
X121453847Y-106045163D01*
X121882419Y-104902306D02*
X121882419Y-105473734D01*
X121882419Y-105188020D02*
X120882419Y-105188020D01*
X120882419Y-105188020D02*
X121025276Y-105283258D01*
X121025276Y-105283258D02*
X121120514Y-105378496D01*
X121120514Y-105378496D02*
X121168133Y-105473734D01*
X120882419Y-104045163D02*
X120882419Y-104235639D01*
X120882419Y-104235639D02*
X120930038Y-104330877D01*
X120930038Y-104330877D02*
X120977657Y-104378496D01*
X120977657Y-104378496D02*
X121120514Y-104473734D01*
X121120514Y-104473734D02*
X121310990Y-104521353D01*
X121310990Y-104521353D02*
X121691942Y-104521353D01*
X121691942Y-104521353D02*
X121787180Y-104473734D01*
X121787180Y-104473734D02*
X121834800Y-104426115D01*
X121834800Y-104426115D02*
X121882419Y-104330877D01*
X121882419Y-104330877D02*
X121882419Y-104140401D01*
X121882419Y-104140401D02*
X121834800Y-104045163D01*
X121834800Y-104045163D02*
X121787180Y-103997544D01*
X121787180Y-103997544D02*
X121691942Y-103949925D01*
X121691942Y-103949925D02*
X121453847Y-103949925D01*
X121453847Y-103949925D02*
X121358609Y-103997544D01*
X121358609Y-103997544D02*
X121310990Y-104045163D01*
X121310990Y-104045163D02*
X121263371Y-104140401D01*
X121263371Y-104140401D02*
X121263371Y-104330877D01*
X121263371Y-104330877D02*
X121310990Y-104426115D01*
X121310990Y-104426115D02*
X121358609Y-104473734D01*
X121358609Y-104473734D02*
X121453847Y-104521353D01*
X128580038Y-105052306D02*
X128532419Y-105147544D01*
X128532419Y-105147544D02*
X128532419Y-105290401D01*
X128532419Y-105290401D02*
X128580038Y-105433258D01*
X128580038Y-105433258D02*
X128675276Y-105528496D01*
X128675276Y-105528496D02*
X128770514Y-105576115D01*
X128770514Y-105576115D02*
X128960990Y-105623734D01*
X128960990Y-105623734D02*
X129103847Y-105623734D01*
X129103847Y-105623734D02*
X129294323Y-105576115D01*
X129294323Y-105576115D02*
X129389561Y-105528496D01*
X129389561Y-105528496D02*
X129484800Y-105433258D01*
X129484800Y-105433258D02*
X129532419Y-105290401D01*
X129532419Y-105290401D02*
X129532419Y-105195163D01*
X129532419Y-105195163D02*
X129484800Y-105052306D01*
X129484800Y-105052306D02*
X129437180Y-105004687D01*
X129437180Y-105004687D02*
X129103847Y-105004687D01*
X129103847Y-105004687D02*
X129103847Y-105195163D01*
X128627657Y-104623734D02*
X128580038Y-104576115D01*
X128580038Y-104576115D02*
X128532419Y-104480877D01*
X128532419Y-104480877D02*
X128532419Y-104242782D01*
X128532419Y-104242782D02*
X128580038Y-104147544D01*
X128580038Y-104147544D02*
X128627657Y-104099925D01*
X128627657Y-104099925D02*
X128722895Y-104052306D01*
X128722895Y-104052306D02*
X128818133Y-104052306D01*
X128818133Y-104052306D02*
X128960990Y-104099925D01*
X128960990Y-104099925D02*
X129532419Y-104671353D01*
X129532419Y-104671353D02*
X129532419Y-104052306D01*
X118280038Y-105902306D02*
X118232419Y-105997544D01*
X118232419Y-105997544D02*
X118232419Y-106140401D01*
X118232419Y-106140401D02*
X118280038Y-106283258D01*
X118280038Y-106283258D02*
X118375276Y-106378496D01*
X118375276Y-106378496D02*
X118470514Y-106426115D01*
X118470514Y-106426115D02*
X118660990Y-106473734D01*
X118660990Y-106473734D02*
X118803847Y-106473734D01*
X118803847Y-106473734D02*
X118994323Y-106426115D01*
X118994323Y-106426115D02*
X119089561Y-106378496D01*
X119089561Y-106378496D02*
X119184800Y-106283258D01*
X119184800Y-106283258D02*
X119232419Y-106140401D01*
X119232419Y-106140401D02*
X119232419Y-106045163D01*
X119232419Y-106045163D02*
X119184800Y-105902306D01*
X119184800Y-105902306D02*
X119137180Y-105854687D01*
X119137180Y-105854687D02*
X118803847Y-105854687D01*
X118803847Y-105854687D02*
X118803847Y-106045163D01*
X119232419Y-104902306D02*
X119232419Y-105473734D01*
X119232419Y-105188020D02*
X118232419Y-105188020D01*
X118232419Y-105188020D02*
X118375276Y-105283258D01*
X118375276Y-105283258D02*
X118470514Y-105378496D01*
X118470514Y-105378496D02*
X118518133Y-105473734D01*
X118232419Y-104568972D02*
X118232419Y-103902306D01*
X118232419Y-103902306D02*
X119232419Y-104330877D01*
X131864800Y-125813734D02*
X131912419Y-125670877D01*
X131912419Y-125670877D02*
X131912419Y-125432782D01*
X131912419Y-125432782D02*
X131864800Y-125337544D01*
X131864800Y-125337544D02*
X131817180Y-125289925D01*
X131817180Y-125289925D02*
X131721942Y-125242306D01*
X131721942Y-125242306D02*
X131626704Y-125242306D01*
X131626704Y-125242306D02*
X131531466Y-125289925D01*
X131531466Y-125289925D02*
X131483847Y-125337544D01*
X131483847Y-125337544D02*
X131436228Y-125432782D01*
X131436228Y-125432782D02*
X131388609Y-125623258D01*
X131388609Y-125623258D02*
X131340990Y-125718496D01*
X131340990Y-125718496D02*
X131293371Y-125766115D01*
X131293371Y-125766115D02*
X131198133Y-125813734D01*
X131198133Y-125813734D02*
X131102895Y-125813734D01*
X131102895Y-125813734D02*
X131007657Y-125766115D01*
X131007657Y-125766115D02*
X130960038Y-125718496D01*
X130960038Y-125718496D02*
X130912419Y-125623258D01*
X130912419Y-125623258D02*
X130912419Y-125385163D01*
X130912419Y-125385163D02*
X130960038Y-125242306D01*
X131912419Y-124813734D02*
X130912419Y-124813734D01*
X130912419Y-124813734D02*
X130912419Y-124575639D01*
X130912419Y-124575639D02*
X130960038Y-124432782D01*
X130960038Y-124432782D02*
X131055276Y-124337544D01*
X131055276Y-124337544D02*
X131150514Y-124289925D01*
X131150514Y-124289925D02*
X131340990Y-124242306D01*
X131340990Y-124242306D02*
X131483847Y-124242306D01*
X131483847Y-124242306D02*
X131674323Y-124289925D01*
X131674323Y-124289925D02*
X131769561Y-124337544D01*
X131769561Y-124337544D02*
X131864800Y-124432782D01*
X131864800Y-124432782D02*
X131912419Y-124575639D01*
X131912419Y-124575639D02*
X131912419Y-124813734D01*
X131007657Y-123861353D02*
X130960038Y-123813734D01*
X130960038Y-123813734D02*
X130912419Y-123718496D01*
X130912419Y-123718496D02*
X130912419Y-123480401D01*
X130912419Y-123480401D02*
X130960038Y-123385163D01*
X130960038Y-123385163D02*
X131007657Y-123337544D01*
X131007657Y-123337544D02*
X131102895Y-123289925D01*
X131102895Y-123289925D02*
X131198133Y-123289925D01*
X131198133Y-123289925D02*
X131340990Y-123337544D01*
X131340990Y-123337544D02*
X131912419Y-123908972D01*
X131912419Y-123908972D02*
X131912419Y-123289925D01*
X104032419Y-105804687D02*
X103556228Y-106138020D01*
X104032419Y-106376115D02*
X103032419Y-106376115D01*
X103032419Y-106376115D02*
X103032419Y-105995163D01*
X103032419Y-105995163D02*
X103080038Y-105899925D01*
X103080038Y-105899925D02*
X103127657Y-105852306D01*
X103127657Y-105852306D02*
X103222895Y-105804687D01*
X103222895Y-105804687D02*
X103365752Y-105804687D01*
X103365752Y-105804687D02*
X103460990Y-105852306D01*
X103460990Y-105852306D02*
X103508609Y-105899925D01*
X103508609Y-105899925D02*
X103556228Y-105995163D01*
X103556228Y-105995163D02*
X103556228Y-106376115D01*
X103032419Y-105471353D02*
X104032419Y-104804687D01*
X103032419Y-104804687D02*
X104032419Y-105471353D01*
X103032419Y-104233258D02*
X103032419Y-104138020D01*
X103032419Y-104138020D02*
X103080038Y-104042782D01*
X103080038Y-104042782D02*
X103127657Y-103995163D01*
X103127657Y-103995163D02*
X103222895Y-103947544D01*
X103222895Y-103947544D02*
X103413371Y-103899925D01*
X103413371Y-103899925D02*
X103651466Y-103899925D01*
X103651466Y-103899925D02*
X103841942Y-103947544D01*
X103841942Y-103947544D02*
X103937180Y-103995163D01*
X103937180Y-103995163D02*
X103984800Y-104042782D01*
X103984800Y-104042782D02*
X104032419Y-104138020D01*
X104032419Y-104138020D02*
X104032419Y-104233258D01*
X104032419Y-104233258D02*
X103984800Y-104328496D01*
X103984800Y-104328496D02*
X103937180Y-104376115D01*
X103937180Y-104376115D02*
X103841942Y-104423734D01*
X103841942Y-104423734D02*
X103651466Y-104471353D01*
X103651466Y-104471353D02*
X103413371Y-104471353D01*
X103413371Y-104471353D02*
X103222895Y-104423734D01*
X103222895Y-104423734D02*
X103127657Y-104376115D01*
X103127657Y-104376115D02*
X103080038Y-104328496D01*
X103080038Y-104328496D02*
X103032419Y-104233258D01*
X120660038Y-125142306D02*
X120612419Y-125237544D01*
X120612419Y-125237544D02*
X120612419Y-125380401D01*
X120612419Y-125380401D02*
X120660038Y-125523258D01*
X120660038Y-125523258D02*
X120755276Y-125618496D01*
X120755276Y-125618496D02*
X120850514Y-125666115D01*
X120850514Y-125666115D02*
X121040990Y-125713734D01*
X121040990Y-125713734D02*
X121183847Y-125713734D01*
X121183847Y-125713734D02*
X121374323Y-125666115D01*
X121374323Y-125666115D02*
X121469561Y-125618496D01*
X121469561Y-125618496D02*
X121564800Y-125523258D01*
X121564800Y-125523258D02*
X121612419Y-125380401D01*
X121612419Y-125380401D02*
X121612419Y-125285163D01*
X121612419Y-125285163D02*
X121564800Y-125142306D01*
X121564800Y-125142306D02*
X121517180Y-125094687D01*
X121517180Y-125094687D02*
X121183847Y-125094687D01*
X121183847Y-125094687D02*
X121183847Y-125285163D01*
X121612419Y-124142306D02*
X121612419Y-124713734D01*
X121612419Y-124428020D02*
X120612419Y-124428020D01*
X120612419Y-124428020D02*
X120755276Y-124523258D01*
X120755276Y-124523258D02*
X120850514Y-124618496D01*
X120850514Y-124618496D02*
X120898133Y-124713734D01*
X120945752Y-123285163D02*
X121612419Y-123285163D01*
X120564800Y-123523258D02*
X121279085Y-123761353D01*
X121279085Y-123761353D02*
X121279085Y-123142306D01*
X100582419Y-106318972D02*
X100582419Y-105747544D01*
X101582419Y-106033258D02*
X100582419Y-106033258D01*
X100582419Y-105509448D02*
X101582419Y-104842782D01*
X100582419Y-104842782D02*
X101582419Y-105509448D01*
X100582419Y-104271353D02*
X100582419Y-104176115D01*
X100582419Y-104176115D02*
X100630038Y-104080877D01*
X100630038Y-104080877D02*
X100677657Y-104033258D01*
X100677657Y-104033258D02*
X100772895Y-103985639D01*
X100772895Y-103985639D02*
X100963371Y-103938020D01*
X100963371Y-103938020D02*
X101201466Y-103938020D01*
X101201466Y-103938020D02*
X101391942Y-103985639D01*
X101391942Y-103985639D02*
X101487180Y-104033258D01*
X101487180Y-104033258D02*
X101534800Y-104080877D01*
X101534800Y-104080877D02*
X101582419Y-104176115D01*
X101582419Y-104176115D02*
X101582419Y-104271353D01*
X101582419Y-104271353D02*
X101534800Y-104366591D01*
X101534800Y-104366591D02*
X101487180Y-104414210D01*
X101487180Y-104414210D02*
X101391942Y-104461829D01*
X101391942Y-104461829D02*
X101201466Y-104509448D01*
X101201466Y-104509448D02*
X100963371Y-104509448D01*
X100963371Y-104509448D02*
X100772895Y-104461829D01*
X100772895Y-104461829D02*
X100677657Y-104414210D01*
X100677657Y-104414210D02*
X100630038Y-104366591D01*
X100630038Y-104366591D02*
X100582419Y-104271353D01*
X95430038Y-106102306D02*
X95382419Y-106197544D01*
X95382419Y-106197544D02*
X95382419Y-106340401D01*
X95382419Y-106340401D02*
X95430038Y-106483258D01*
X95430038Y-106483258D02*
X95525276Y-106578496D01*
X95525276Y-106578496D02*
X95620514Y-106626115D01*
X95620514Y-106626115D02*
X95810990Y-106673734D01*
X95810990Y-106673734D02*
X95953847Y-106673734D01*
X95953847Y-106673734D02*
X96144323Y-106626115D01*
X96144323Y-106626115D02*
X96239561Y-106578496D01*
X96239561Y-106578496D02*
X96334800Y-106483258D01*
X96334800Y-106483258D02*
X96382419Y-106340401D01*
X96382419Y-106340401D02*
X96382419Y-106245163D01*
X96382419Y-106245163D02*
X96334800Y-106102306D01*
X96334800Y-106102306D02*
X96287180Y-106054687D01*
X96287180Y-106054687D02*
X95953847Y-106054687D01*
X95953847Y-106054687D02*
X95953847Y-106245163D01*
X95477657Y-105673734D02*
X95430038Y-105626115D01*
X95430038Y-105626115D02*
X95382419Y-105530877D01*
X95382419Y-105530877D02*
X95382419Y-105292782D01*
X95382419Y-105292782D02*
X95430038Y-105197544D01*
X95430038Y-105197544D02*
X95477657Y-105149925D01*
X95477657Y-105149925D02*
X95572895Y-105102306D01*
X95572895Y-105102306D02*
X95668133Y-105102306D01*
X95668133Y-105102306D02*
X95810990Y-105149925D01*
X95810990Y-105149925D02*
X96382419Y-105721353D01*
X96382419Y-105721353D02*
X96382419Y-105102306D01*
X95382419Y-104768972D02*
X95382419Y-104149925D01*
X95382419Y-104149925D02*
X95763371Y-104483258D01*
X95763371Y-104483258D02*
X95763371Y-104340401D01*
X95763371Y-104340401D02*
X95810990Y-104245163D01*
X95810990Y-104245163D02*
X95858609Y-104197544D01*
X95858609Y-104197544D02*
X95953847Y-104149925D01*
X95953847Y-104149925D02*
X96191942Y-104149925D01*
X96191942Y-104149925D02*
X96287180Y-104197544D01*
X96287180Y-104197544D02*
X96334800Y-104245163D01*
X96334800Y-104245163D02*
X96382419Y-104340401D01*
X96382419Y-104340401D02*
X96382419Y-104626115D01*
X96382419Y-104626115D02*
X96334800Y-104721353D01*
X96334800Y-104721353D02*
X96287180Y-104768972D01*
X95838609Y-125616115D02*
X95838609Y-125282782D01*
X96362419Y-125139925D02*
X96362419Y-125616115D01*
X96362419Y-125616115D02*
X95362419Y-125616115D01*
X95362419Y-125616115D02*
X95362419Y-125139925D01*
X96362419Y-124711353D02*
X95362419Y-124711353D01*
X95362419Y-124711353D02*
X96362419Y-124139925D01*
X96362419Y-124139925D02*
X95362419Y-124139925D01*
X130980038Y-105902306D02*
X130932419Y-105997544D01*
X130932419Y-105997544D02*
X130932419Y-106140401D01*
X130932419Y-106140401D02*
X130980038Y-106283258D01*
X130980038Y-106283258D02*
X131075276Y-106378496D01*
X131075276Y-106378496D02*
X131170514Y-106426115D01*
X131170514Y-106426115D02*
X131360990Y-106473734D01*
X131360990Y-106473734D02*
X131503847Y-106473734D01*
X131503847Y-106473734D02*
X131694323Y-106426115D01*
X131694323Y-106426115D02*
X131789561Y-106378496D01*
X131789561Y-106378496D02*
X131884800Y-106283258D01*
X131884800Y-106283258D02*
X131932419Y-106140401D01*
X131932419Y-106140401D02*
X131932419Y-106045163D01*
X131932419Y-106045163D02*
X131884800Y-105902306D01*
X131884800Y-105902306D02*
X131837180Y-105854687D01*
X131837180Y-105854687D02*
X131503847Y-105854687D01*
X131503847Y-105854687D02*
X131503847Y-106045163D01*
X131932419Y-104902306D02*
X131932419Y-105473734D01*
X131932419Y-105188020D02*
X130932419Y-105188020D01*
X130932419Y-105188020D02*
X131075276Y-105283258D01*
X131075276Y-105283258D02*
X131170514Y-105378496D01*
X131170514Y-105378496D02*
X131218133Y-105473734D01*
X130932419Y-103997544D02*
X130932419Y-104473734D01*
X130932419Y-104473734D02*
X131408609Y-104521353D01*
X131408609Y-104521353D02*
X131360990Y-104473734D01*
X131360990Y-104473734D02*
X131313371Y-104378496D01*
X131313371Y-104378496D02*
X131313371Y-104140401D01*
X131313371Y-104140401D02*
X131360990Y-104045163D01*
X131360990Y-104045163D02*
X131408609Y-103997544D01*
X131408609Y-103997544D02*
X131503847Y-103949925D01*
X131503847Y-103949925D02*
X131741942Y-103949925D01*
X131741942Y-103949925D02*
X131837180Y-103997544D01*
X131837180Y-103997544D02*
X131884800Y-104045163D01*
X131884800Y-104045163D02*
X131932419Y-104140401D01*
X131932419Y-104140401D02*
X131932419Y-104378496D01*
X131932419Y-104378496D02*
X131884800Y-104473734D01*
X131884800Y-104473734D02*
X131837180Y-104521353D01*
X110830038Y-105902306D02*
X110782419Y-105997544D01*
X110782419Y-105997544D02*
X110782419Y-106140401D01*
X110782419Y-106140401D02*
X110830038Y-106283258D01*
X110830038Y-106283258D02*
X110925276Y-106378496D01*
X110925276Y-106378496D02*
X111020514Y-106426115D01*
X111020514Y-106426115D02*
X111210990Y-106473734D01*
X111210990Y-106473734D02*
X111353847Y-106473734D01*
X111353847Y-106473734D02*
X111544323Y-106426115D01*
X111544323Y-106426115D02*
X111639561Y-106378496D01*
X111639561Y-106378496D02*
X111734800Y-106283258D01*
X111734800Y-106283258D02*
X111782419Y-106140401D01*
X111782419Y-106140401D02*
X111782419Y-106045163D01*
X111782419Y-106045163D02*
X111734800Y-105902306D01*
X111734800Y-105902306D02*
X111687180Y-105854687D01*
X111687180Y-105854687D02*
X111353847Y-105854687D01*
X111353847Y-105854687D02*
X111353847Y-106045163D01*
X111782419Y-104902306D02*
X111782419Y-105473734D01*
X111782419Y-105188020D02*
X110782419Y-105188020D01*
X110782419Y-105188020D02*
X110925276Y-105283258D01*
X110925276Y-105283258D02*
X111020514Y-105378496D01*
X111020514Y-105378496D02*
X111068133Y-105473734D01*
X111782419Y-104426115D02*
X111782419Y-104235639D01*
X111782419Y-104235639D02*
X111734800Y-104140401D01*
X111734800Y-104140401D02*
X111687180Y-104092782D01*
X111687180Y-104092782D02*
X111544323Y-103997544D01*
X111544323Y-103997544D02*
X111353847Y-103949925D01*
X111353847Y-103949925D02*
X110972895Y-103949925D01*
X110972895Y-103949925D02*
X110877657Y-103997544D01*
X110877657Y-103997544D02*
X110830038Y-104045163D01*
X110830038Y-104045163D02*
X110782419Y-104140401D01*
X110782419Y-104140401D02*
X110782419Y-104330877D01*
X110782419Y-104330877D02*
X110830038Y-104426115D01*
X110830038Y-104426115D02*
X110877657Y-104473734D01*
X110877657Y-104473734D02*
X110972895Y-104521353D01*
X110972895Y-104521353D02*
X111210990Y-104521353D01*
X111210990Y-104521353D02*
X111306228Y-104473734D01*
X111306228Y-104473734D02*
X111353847Y-104426115D01*
X111353847Y-104426115D02*
X111401466Y-104330877D01*
X111401466Y-104330877D02*
X111401466Y-104140401D01*
X111401466Y-104140401D02*
X111353847Y-104045163D01*
X111353847Y-104045163D02*
X111306228Y-103997544D01*
X111306228Y-103997544D02*
X111210990Y-103949925D01*
X178053095Y-100637419D02*
X178053095Y-101446942D01*
X178053095Y-101446942D02*
X178100714Y-101542180D01*
X178100714Y-101542180D02*
X178148333Y-101589800D01*
X178148333Y-101589800D02*
X178243571Y-101637419D01*
X178243571Y-101637419D02*
X178434047Y-101637419D01*
X178434047Y-101637419D02*
X178529285Y-101589800D01*
X178529285Y-101589800D02*
X178576904Y-101542180D01*
X178576904Y-101542180D02*
X178624523Y-101446942D01*
X178624523Y-101446942D02*
X178624523Y-100637419D01*
X179148333Y-101637419D02*
X179338809Y-101637419D01*
X179338809Y-101637419D02*
X179434047Y-101589800D01*
X179434047Y-101589800D02*
X179481666Y-101542180D01*
X179481666Y-101542180D02*
X179576904Y-101399323D01*
X179576904Y-101399323D02*
X179624523Y-101208847D01*
X179624523Y-101208847D02*
X179624523Y-100827895D01*
X179624523Y-100827895D02*
X179576904Y-100732657D01*
X179576904Y-100732657D02*
X179529285Y-100685038D01*
X179529285Y-100685038D02*
X179434047Y-100637419D01*
X179434047Y-100637419D02*
X179243571Y-100637419D01*
X179243571Y-100637419D02*
X179148333Y-100685038D01*
X179148333Y-100685038D02*
X179100714Y-100732657D01*
X179100714Y-100732657D02*
X179053095Y-100827895D01*
X179053095Y-100827895D02*
X179053095Y-101065990D01*
X179053095Y-101065990D02*
X179100714Y-101161228D01*
X179100714Y-101161228D02*
X179148333Y-101208847D01*
X179148333Y-101208847D02*
X179243571Y-101256466D01*
X179243571Y-101256466D02*
X179434047Y-101256466D01*
X179434047Y-101256466D02*
X179529285Y-101208847D01*
X179529285Y-101208847D02*
X179576904Y-101161228D01*
X179576904Y-101161228D02*
X179624523Y-101065990D01*
D11*
X86590475Y-142104819D02*
X86257142Y-141628628D01*
X86019047Y-142104819D02*
X86019047Y-141104819D01*
X86019047Y-141104819D02*
X86399999Y-141104819D01*
X86399999Y-141104819D02*
X86495237Y-141152438D01*
X86495237Y-141152438D02*
X86542856Y-141200057D01*
X86542856Y-141200057D02*
X86590475Y-141295295D01*
X86590475Y-141295295D02*
X86590475Y-141438152D01*
X86590475Y-141438152D02*
X86542856Y-141533390D01*
X86542856Y-141533390D02*
X86495237Y-141581009D01*
X86495237Y-141581009D02*
X86399999Y-141628628D01*
X86399999Y-141628628D02*
X86019047Y-141628628D01*
X87019047Y-141581009D02*
X87352380Y-141581009D01*
X87495237Y-142104819D02*
X87019047Y-142104819D01*
X87019047Y-142104819D02*
X87019047Y-141104819D01*
X87019047Y-141104819D02*
X87495237Y-141104819D01*
X88257142Y-141581009D02*
X87923809Y-141581009D01*
X87923809Y-142104819D02*
X87923809Y-141104819D01*
X87923809Y-141104819D02*
X88399999Y-141104819D01*
X88923809Y-141104819D02*
X88923809Y-141342914D01*
X88685714Y-141247676D02*
X88923809Y-141342914D01*
X88923809Y-141342914D02*
X89161904Y-141247676D01*
X88780952Y-141533390D02*
X88923809Y-141342914D01*
X88923809Y-141342914D02*
X89066666Y-141533390D01*
X89685714Y-141104819D02*
X89685714Y-141342914D01*
X89447619Y-141247676D02*
X89685714Y-141342914D01*
X89685714Y-141342914D02*
X89923809Y-141247676D01*
X89542857Y-141533390D02*
X89685714Y-141342914D01*
X89685714Y-141342914D02*
X89828571Y-141533390D01*
X90209524Y-141104819D02*
X90828571Y-141104819D01*
X90828571Y-141104819D02*
X90495238Y-141485771D01*
X90495238Y-141485771D02*
X90638095Y-141485771D01*
X90638095Y-141485771D02*
X90733333Y-141533390D01*
X90733333Y-141533390D02*
X90780952Y-141581009D01*
X90780952Y-141581009D02*
X90828571Y-141676247D01*
X90828571Y-141676247D02*
X90828571Y-141914342D01*
X90828571Y-141914342D02*
X90780952Y-142009580D01*
X90780952Y-142009580D02*
X90733333Y-142057200D01*
X90733333Y-142057200D02*
X90638095Y-142104819D01*
X90638095Y-142104819D02*
X90352381Y-142104819D01*
X90352381Y-142104819D02*
X90257143Y-142057200D01*
X90257143Y-142057200D02*
X90209524Y-142009580D01*
X176590475Y-77104819D02*
X176257142Y-76628628D01*
X176019047Y-77104819D02*
X176019047Y-76104819D01*
X176019047Y-76104819D02*
X176399999Y-76104819D01*
X176399999Y-76104819D02*
X176495237Y-76152438D01*
X176495237Y-76152438D02*
X176542856Y-76200057D01*
X176542856Y-76200057D02*
X176590475Y-76295295D01*
X176590475Y-76295295D02*
X176590475Y-76438152D01*
X176590475Y-76438152D02*
X176542856Y-76533390D01*
X176542856Y-76533390D02*
X176495237Y-76581009D01*
X176495237Y-76581009D02*
X176399999Y-76628628D01*
X176399999Y-76628628D02*
X176019047Y-76628628D01*
X177019047Y-76581009D02*
X177352380Y-76581009D01*
X177495237Y-77104819D02*
X177019047Y-77104819D01*
X177019047Y-77104819D02*
X177019047Y-76104819D01*
X177019047Y-76104819D02*
X177495237Y-76104819D01*
X178257142Y-76581009D02*
X177923809Y-76581009D01*
X177923809Y-77104819D02*
X177923809Y-76104819D01*
X177923809Y-76104819D02*
X178399999Y-76104819D01*
X178923809Y-76104819D02*
X178923809Y-76342914D01*
X178685714Y-76247676D02*
X178923809Y-76342914D01*
X178923809Y-76342914D02*
X179161904Y-76247676D01*
X178780952Y-76533390D02*
X178923809Y-76342914D01*
X178923809Y-76342914D02*
X179066666Y-76533390D01*
X179685714Y-76104819D02*
X179685714Y-76342914D01*
X179447619Y-76247676D02*
X179685714Y-76342914D01*
X179685714Y-76342914D02*
X179923809Y-76247676D01*
X179542857Y-76533390D02*
X179685714Y-76342914D01*
X179685714Y-76342914D02*
X179828571Y-76533390D01*
X180257143Y-76200057D02*
X180304762Y-76152438D01*
X180304762Y-76152438D02*
X180400000Y-76104819D01*
X180400000Y-76104819D02*
X180638095Y-76104819D01*
X180638095Y-76104819D02*
X180733333Y-76152438D01*
X180733333Y-76152438D02*
X180780952Y-76200057D01*
X180780952Y-76200057D02*
X180828571Y-76295295D01*
X180828571Y-76295295D02*
X180828571Y-76390533D01*
X180828571Y-76390533D02*
X180780952Y-76533390D01*
X180780952Y-76533390D02*
X180209524Y-77104819D01*
X180209524Y-77104819D02*
X180828571Y-77104819D01*
X86590475Y-77104819D02*
X86257142Y-76628628D01*
X86019047Y-77104819D02*
X86019047Y-76104819D01*
X86019047Y-76104819D02*
X86399999Y-76104819D01*
X86399999Y-76104819D02*
X86495237Y-76152438D01*
X86495237Y-76152438D02*
X86542856Y-76200057D01*
X86542856Y-76200057D02*
X86590475Y-76295295D01*
X86590475Y-76295295D02*
X86590475Y-76438152D01*
X86590475Y-76438152D02*
X86542856Y-76533390D01*
X86542856Y-76533390D02*
X86495237Y-76581009D01*
X86495237Y-76581009D02*
X86399999Y-76628628D01*
X86399999Y-76628628D02*
X86019047Y-76628628D01*
X87019047Y-76581009D02*
X87352380Y-76581009D01*
X87495237Y-77104819D02*
X87019047Y-77104819D01*
X87019047Y-77104819D02*
X87019047Y-76104819D01*
X87019047Y-76104819D02*
X87495237Y-76104819D01*
X88257142Y-76581009D02*
X87923809Y-76581009D01*
X87923809Y-77104819D02*
X87923809Y-76104819D01*
X87923809Y-76104819D02*
X88399999Y-76104819D01*
X88923809Y-76104819D02*
X88923809Y-76342914D01*
X88685714Y-76247676D02*
X88923809Y-76342914D01*
X88923809Y-76342914D02*
X89161904Y-76247676D01*
X88780952Y-76533390D02*
X88923809Y-76342914D01*
X88923809Y-76342914D02*
X89066666Y-76533390D01*
X89685714Y-76104819D02*
X89685714Y-76342914D01*
X89447619Y-76247676D02*
X89685714Y-76342914D01*
X89685714Y-76342914D02*
X89923809Y-76247676D01*
X89542857Y-76533390D02*
X89685714Y-76342914D01*
X89685714Y-76342914D02*
X89828571Y-76533390D01*
X90828571Y-77104819D02*
X90257143Y-77104819D01*
X90542857Y-77104819D02*
X90542857Y-76104819D01*
X90542857Y-76104819D02*
X90447619Y-76247676D01*
X90447619Y-76247676D02*
X90352381Y-76342914D01*
X90352381Y-76342914D02*
X90257143Y-76390533D01*
X177066666Y-142104819D02*
X176733333Y-141628628D01*
X176495238Y-142104819D02*
X176495238Y-141104819D01*
X176495238Y-141104819D02*
X176876190Y-141104819D01*
X176876190Y-141104819D02*
X176971428Y-141152438D01*
X176971428Y-141152438D02*
X177019047Y-141200057D01*
X177019047Y-141200057D02*
X177066666Y-141295295D01*
X177066666Y-141295295D02*
X177066666Y-141438152D01*
X177066666Y-141438152D02*
X177019047Y-141533390D01*
X177019047Y-141533390D02*
X176971428Y-141581009D01*
X176971428Y-141581009D02*
X176876190Y-141628628D01*
X176876190Y-141628628D02*
X176495238Y-141628628D01*
X177495238Y-141581009D02*
X177828571Y-141581009D01*
X177971428Y-142104819D02*
X177495238Y-142104819D01*
X177495238Y-142104819D02*
X177495238Y-141104819D01*
X177495238Y-141104819D02*
X177971428Y-141104819D01*
X178733333Y-141581009D02*
X178400000Y-141581009D01*
X178400000Y-142104819D02*
X178400000Y-141104819D01*
X178400000Y-141104819D02*
X178876190Y-141104819D01*
X179400000Y-141104819D02*
X179400000Y-141342914D01*
X179161905Y-141247676D02*
X179400000Y-141342914D01*
X179400000Y-141342914D02*
X179638095Y-141247676D01*
X179257143Y-141533390D02*
X179400000Y-141342914D01*
X179400000Y-141342914D02*
X179542857Y-141533390D01*
X180161905Y-141104819D02*
X180161905Y-141342914D01*
X179923810Y-141247676D02*
X180161905Y-141342914D01*
X180161905Y-141342914D02*
X180400000Y-141247676D01*
X180019048Y-141533390D02*
X180161905Y-141342914D01*
X180161905Y-141342914D02*
X180304762Y-141533390D01*
D10*
X105646905Y-78547419D02*
X105646905Y-79356942D01*
X105646905Y-79356942D02*
X105694524Y-79452180D01*
X105694524Y-79452180D02*
X105742143Y-79499800D01*
X105742143Y-79499800D02*
X105837381Y-79547419D01*
X105837381Y-79547419D02*
X106027857Y-79547419D01*
X106027857Y-79547419D02*
X106123095Y-79499800D01*
X106123095Y-79499800D02*
X106170714Y-79452180D01*
X106170714Y-79452180D02*
X106218333Y-79356942D01*
X106218333Y-79356942D02*
X106218333Y-78547419D01*
X107218333Y-79547419D02*
X106646905Y-79547419D01*
X106932619Y-79547419D02*
X106932619Y-78547419D01*
X106932619Y-78547419D02*
X106837381Y-78690276D01*
X106837381Y-78690276D02*
X106742143Y-78785514D01*
X106742143Y-78785514D02*
X106646905Y-78833133D01*
X107837381Y-78547419D02*
X107932619Y-78547419D01*
X107932619Y-78547419D02*
X108027857Y-78595038D01*
X108027857Y-78595038D02*
X108075476Y-78642657D01*
X108075476Y-78642657D02*
X108123095Y-78737895D01*
X108123095Y-78737895D02*
X108170714Y-78928371D01*
X108170714Y-78928371D02*
X108170714Y-79166466D01*
X108170714Y-79166466D02*
X108123095Y-79356942D01*
X108123095Y-79356942D02*
X108075476Y-79452180D01*
X108075476Y-79452180D02*
X108027857Y-79499800D01*
X108027857Y-79499800D02*
X107932619Y-79547419D01*
X107932619Y-79547419D02*
X107837381Y-79547419D01*
X107837381Y-79547419D02*
X107742143Y-79499800D01*
X107742143Y-79499800D02*
X107694524Y-79452180D01*
X107694524Y-79452180D02*
X107646905Y-79356942D01*
X107646905Y-79356942D02*
X107599286Y-79166466D01*
X107599286Y-79166466D02*
X107599286Y-78928371D01*
X107599286Y-78928371D02*
X107646905Y-78737895D01*
X107646905Y-78737895D02*
X107694524Y-78642657D01*
X107694524Y-78642657D02*
X107742143Y-78595038D01*
X107742143Y-78595038D02*
X107837381Y-78547419D01*
X101059800Y-89043734D02*
X101107419Y-88900877D01*
X101107419Y-88900877D02*
X101107419Y-88662782D01*
X101107419Y-88662782D02*
X101059800Y-88567544D01*
X101059800Y-88567544D02*
X101012180Y-88519925D01*
X101012180Y-88519925D02*
X100916942Y-88472306D01*
X100916942Y-88472306D02*
X100821704Y-88472306D01*
X100821704Y-88472306D02*
X100726466Y-88519925D01*
X100726466Y-88519925D02*
X100678847Y-88567544D01*
X100678847Y-88567544D02*
X100631228Y-88662782D01*
X100631228Y-88662782D02*
X100583609Y-88853258D01*
X100583609Y-88853258D02*
X100535990Y-88948496D01*
X100535990Y-88948496D02*
X100488371Y-88996115D01*
X100488371Y-88996115D02*
X100393133Y-89043734D01*
X100393133Y-89043734D02*
X100297895Y-89043734D01*
X100297895Y-89043734D02*
X100202657Y-88996115D01*
X100202657Y-88996115D02*
X100155038Y-88948496D01*
X100155038Y-88948496D02*
X100107419Y-88853258D01*
X100107419Y-88853258D02*
X100107419Y-88615163D01*
X100107419Y-88615163D02*
X100155038Y-88472306D01*
X101012180Y-87472306D02*
X101059800Y-87519925D01*
X101059800Y-87519925D02*
X101107419Y-87662782D01*
X101107419Y-87662782D02*
X101107419Y-87758020D01*
X101107419Y-87758020D02*
X101059800Y-87900877D01*
X101059800Y-87900877D02*
X100964561Y-87996115D01*
X100964561Y-87996115D02*
X100869323Y-88043734D01*
X100869323Y-88043734D02*
X100678847Y-88091353D01*
X100678847Y-88091353D02*
X100535990Y-88091353D01*
X100535990Y-88091353D02*
X100345514Y-88043734D01*
X100345514Y-88043734D02*
X100250276Y-87996115D01*
X100250276Y-87996115D02*
X100155038Y-87900877D01*
X100155038Y-87900877D02*
X100107419Y-87758020D01*
X100107419Y-87758020D02*
X100107419Y-87662782D01*
X100107419Y-87662782D02*
X100155038Y-87519925D01*
X100155038Y-87519925D02*
X100202657Y-87472306D01*
X101107419Y-86567544D02*
X101107419Y-87043734D01*
X101107419Y-87043734D02*
X100107419Y-87043734D01*
X105623609Y-89196115D02*
X105623609Y-88862782D01*
X106147419Y-88719925D02*
X106147419Y-89196115D01*
X106147419Y-89196115D02*
X105147419Y-89196115D01*
X105147419Y-89196115D02*
X105147419Y-88719925D01*
X106147419Y-88291353D02*
X105147419Y-88291353D01*
X105147419Y-88291353D02*
X105147419Y-88053258D01*
X105147419Y-88053258D02*
X105195038Y-87910401D01*
X105195038Y-87910401D02*
X105290276Y-87815163D01*
X105290276Y-87815163D02*
X105385514Y-87767544D01*
X105385514Y-87767544D02*
X105575990Y-87719925D01*
X105575990Y-87719925D02*
X105718847Y-87719925D01*
X105718847Y-87719925D02*
X105909323Y-87767544D01*
X105909323Y-87767544D02*
X106004561Y-87815163D01*
X106004561Y-87815163D02*
X106099800Y-87910401D01*
X106099800Y-87910401D02*
X106147419Y-88053258D01*
X106147419Y-88053258D02*
X106147419Y-88291353D01*
X105861704Y-87338972D02*
X105861704Y-86862782D01*
X106147419Y-87434210D02*
X105147419Y-87100877D01*
X105147419Y-87100877D02*
X106147419Y-86767544D01*
D12*
X116353114Y-84872820D02*
X116591209Y-84872820D01*
X116091209Y-85039486D02*
X116353114Y-84872820D01*
X116353114Y-84872820D02*
X116091209Y-84706153D01*
D10*
X103569800Y-89393734D02*
X103617419Y-89250877D01*
X103617419Y-89250877D02*
X103617419Y-89012782D01*
X103617419Y-89012782D02*
X103569800Y-88917544D01*
X103569800Y-88917544D02*
X103522180Y-88869925D01*
X103522180Y-88869925D02*
X103426942Y-88822306D01*
X103426942Y-88822306D02*
X103331704Y-88822306D01*
X103331704Y-88822306D02*
X103236466Y-88869925D01*
X103236466Y-88869925D02*
X103188847Y-88917544D01*
X103188847Y-88917544D02*
X103141228Y-89012782D01*
X103141228Y-89012782D02*
X103093609Y-89203258D01*
X103093609Y-89203258D02*
X103045990Y-89298496D01*
X103045990Y-89298496D02*
X102998371Y-89346115D01*
X102998371Y-89346115D02*
X102903133Y-89393734D01*
X102903133Y-89393734D02*
X102807895Y-89393734D01*
X102807895Y-89393734D02*
X102712657Y-89346115D01*
X102712657Y-89346115D02*
X102665038Y-89298496D01*
X102665038Y-89298496D02*
X102617419Y-89203258D01*
X102617419Y-89203258D02*
X102617419Y-88965163D01*
X102617419Y-88965163D02*
X102665038Y-88822306D01*
X103617419Y-88393734D02*
X102617419Y-88393734D01*
X102617419Y-88393734D02*
X102617419Y-88155639D01*
X102617419Y-88155639D02*
X102665038Y-88012782D01*
X102665038Y-88012782D02*
X102760276Y-87917544D01*
X102760276Y-87917544D02*
X102855514Y-87869925D01*
X102855514Y-87869925D02*
X103045990Y-87822306D01*
X103045990Y-87822306D02*
X103188847Y-87822306D01*
X103188847Y-87822306D02*
X103379323Y-87869925D01*
X103379323Y-87869925D02*
X103474561Y-87917544D01*
X103474561Y-87917544D02*
X103569800Y-88012782D01*
X103569800Y-88012782D02*
X103617419Y-88155639D01*
X103617419Y-88155639D02*
X103617419Y-88393734D01*
X103331704Y-87441353D02*
X103331704Y-86965163D01*
X103617419Y-87536591D02*
X102617419Y-87203258D01*
X102617419Y-87203258D02*
X103617419Y-86869925D01*
D13*
X101339510Y-82560828D02*
X101339510Y-81060828D01*
X101339510Y-81060828D02*
X101839510Y-82132257D01*
X101839510Y-82132257D02*
X102339510Y-81060828D01*
X102339510Y-81060828D02*
X102339510Y-82560828D01*
X103053796Y-82560828D02*
X103053796Y-81060828D01*
X103053796Y-81060828D02*
X103625225Y-81060828D01*
X103625225Y-81060828D02*
X103768082Y-81132257D01*
X103768082Y-81132257D02*
X103839511Y-81203685D01*
X103839511Y-81203685D02*
X103910939Y-81346542D01*
X103910939Y-81346542D02*
X103910939Y-81560828D01*
X103910939Y-81560828D02*
X103839511Y-81703685D01*
X103839511Y-81703685D02*
X103768082Y-81775114D01*
X103768082Y-81775114D02*
X103625225Y-81846542D01*
X103625225Y-81846542D02*
X103053796Y-81846542D01*
X104553796Y-81060828D02*
X104553796Y-82275114D01*
X104553796Y-82275114D02*
X104625225Y-82417971D01*
X104625225Y-82417971D02*
X104696654Y-82489400D01*
X104696654Y-82489400D02*
X104839511Y-82560828D01*
X104839511Y-82560828D02*
X105125225Y-82560828D01*
X105125225Y-82560828D02*
X105268082Y-82489400D01*
X105268082Y-82489400D02*
X105339511Y-82417971D01*
X105339511Y-82417971D02*
X105410939Y-82275114D01*
X105410939Y-82275114D02*
X105410939Y-81060828D01*
X106125225Y-81989400D02*
X107268083Y-81989400D01*
X108053797Y-82560828D02*
X108339511Y-82560828D01*
X108339511Y-82560828D02*
X108482368Y-82489400D01*
X108482368Y-82489400D02*
X108553797Y-82417971D01*
X108553797Y-82417971D02*
X108696654Y-82203685D01*
X108696654Y-82203685D02*
X108768083Y-81917971D01*
X108768083Y-81917971D02*
X108768083Y-81346542D01*
X108768083Y-81346542D02*
X108696654Y-81203685D01*
X108696654Y-81203685D02*
X108625226Y-81132257D01*
X108625226Y-81132257D02*
X108482368Y-81060828D01*
X108482368Y-81060828D02*
X108196654Y-81060828D01*
X108196654Y-81060828D02*
X108053797Y-81132257D01*
X108053797Y-81132257D02*
X107982368Y-81203685D01*
X107982368Y-81203685D02*
X107910940Y-81346542D01*
X107910940Y-81346542D02*
X107910940Y-81703685D01*
X107910940Y-81703685D02*
X107982368Y-81846542D01*
X107982368Y-81846542D02*
X108053797Y-81917971D01*
X108053797Y-81917971D02*
X108196654Y-81989400D01*
X108196654Y-81989400D02*
X108482368Y-81989400D01*
X108482368Y-81989400D02*
X108625226Y-81917971D01*
X108625226Y-81917971D02*
X108696654Y-81846542D01*
X108696654Y-81846542D02*
X108768083Y-81703685D01*
X109339511Y-81203685D02*
X109410939Y-81132257D01*
X109410939Y-81132257D02*
X109553797Y-81060828D01*
X109553797Y-81060828D02*
X109910939Y-81060828D01*
X109910939Y-81060828D02*
X110053797Y-81132257D01*
X110053797Y-81132257D02*
X110125225Y-81203685D01*
X110125225Y-81203685D02*
X110196654Y-81346542D01*
X110196654Y-81346542D02*
X110196654Y-81489400D01*
X110196654Y-81489400D02*
X110125225Y-81703685D01*
X110125225Y-81703685D02*
X109268082Y-82560828D01*
X109268082Y-82560828D02*
X110196654Y-82560828D01*
X111553796Y-81060828D02*
X110839510Y-81060828D01*
X110839510Y-81060828D02*
X110768082Y-81775114D01*
X110768082Y-81775114D02*
X110839510Y-81703685D01*
X110839510Y-81703685D02*
X110982368Y-81632257D01*
X110982368Y-81632257D02*
X111339510Y-81632257D01*
X111339510Y-81632257D02*
X111482368Y-81703685D01*
X111482368Y-81703685D02*
X111553796Y-81775114D01*
X111553796Y-81775114D02*
X111625225Y-81917971D01*
X111625225Y-81917971D02*
X111625225Y-82275114D01*
X111625225Y-82275114D02*
X111553796Y-82417971D01*
X111553796Y-82417971D02*
X111482368Y-82489400D01*
X111482368Y-82489400D02*
X111339510Y-82560828D01*
X111339510Y-82560828D02*
X110982368Y-82560828D01*
X110982368Y-82560828D02*
X110839510Y-82489400D01*
X110839510Y-82489400D02*
X110768082Y-82417971D01*
X112553796Y-81060828D02*
X112696653Y-81060828D01*
X112696653Y-81060828D02*
X112839510Y-81132257D01*
X112839510Y-81132257D02*
X112910939Y-81203685D01*
X112910939Y-81203685D02*
X112982367Y-81346542D01*
X112982367Y-81346542D02*
X113053796Y-81632257D01*
X113053796Y-81632257D02*
X113053796Y-81989400D01*
X113053796Y-81989400D02*
X112982367Y-82275114D01*
X112982367Y-82275114D02*
X112910939Y-82417971D01*
X112910939Y-82417971D02*
X112839510Y-82489400D01*
X112839510Y-82489400D02*
X112696653Y-82560828D01*
X112696653Y-82560828D02*
X112553796Y-82560828D01*
X112553796Y-82560828D02*
X112410939Y-82489400D01*
X112410939Y-82489400D02*
X112339510Y-82417971D01*
X112339510Y-82417971D02*
X112268081Y-82275114D01*
X112268081Y-82275114D02*
X112196653Y-81989400D01*
X112196653Y-81989400D02*
X112196653Y-81632257D01*
X112196653Y-81632257D02*
X112268081Y-81346542D01*
X112268081Y-81346542D02*
X112339510Y-81203685D01*
X112339510Y-81203685D02*
X112410939Y-81132257D01*
X112410939Y-81132257D02*
X112553796Y-81060828D01*
D12*
X117209322Y-84176209D02*
X117542655Y-84676209D01*
X117542655Y-84176209D02*
X117209322Y-84676209D01*
D10*
X95027419Y-89268972D02*
X96027419Y-88935639D01*
X96027419Y-88935639D02*
X95027419Y-88602306D01*
X95932180Y-87697544D02*
X95979800Y-87745163D01*
X95979800Y-87745163D02*
X96027419Y-87888020D01*
X96027419Y-87888020D02*
X96027419Y-87983258D01*
X96027419Y-87983258D02*
X95979800Y-88126115D01*
X95979800Y-88126115D02*
X95884561Y-88221353D01*
X95884561Y-88221353D02*
X95789323Y-88268972D01*
X95789323Y-88268972D02*
X95598847Y-88316591D01*
X95598847Y-88316591D02*
X95455990Y-88316591D01*
X95455990Y-88316591D02*
X95265514Y-88268972D01*
X95265514Y-88268972D02*
X95170276Y-88221353D01*
X95170276Y-88221353D02*
X95075038Y-88126115D01*
X95075038Y-88126115D02*
X95027419Y-87983258D01*
X95027419Y-87983258D02*
X95027419Y-87888020D01*
X95027419Y-87888020D02*
X95075038Y-87745163D01*
X95075038Y-87745163D02*
X95122657Y-87697544D01*
X95932180Y-86697544D02*
X95979800Y-86745163D01*
X95979800Y-86745163D02*
X96027419Y-86888020D01*
X96027419Y-86888020D02*
X96027419Y-86983258D01*
X96027419Y-86983258D02*
X95979800Y-87126115D01*
X95979800Y-87126115D02*
X95884561Y-87221353D01*
X95884561Y-87221353D02*
X95789323Y-87268972D01*
X95789323Y-87268972D02*
X95598847Y-87316591D01*
X95598847Y-87316591D02*
X95455990Y-87316591D01*
X95455990Y-87316591D02*
X95265514Y-87268972D01*
X95265514Y-87268972D02*
X95170276Y-87221353D01*
X95170276Y-87221353D02*
X95075038Y-87126115D01*
X95075038Y-87126115D02*
X95027419Y-86983258D01*
X95027419Y-86983258D02*
X95027419Y-86888020D01*
X95027419Y-86888020D02*
X95075038Y-86745163D01*
X95075038Y-86745163D02*
X95122657Y-86697544D01*
X97565038Y-88712306D02*
X97517419Y-88807544D01*
X97517419Y-88807544D02*
X97517419Y-88950401D01*
X97517419Y-88950401D02*
X97565038Y-89093258D01*
X97565038Y-89093258D02*
X97660276Y-89188496D01*
X97660276Y-89188496D02*
X97755514Y-89236115D01*
X97755514Y-89236115D02*
X97945990Y-89283734D01*
X97945990Y-89283734D02*
X98088847Y-89283734D01*
X98088847Y-89283734D02*
X98279323Y-89236115D01*
X98279323Y-89236115D02*
X98374561Y-89188496D01*
X98374561Y-89188496D02*
X98469800Y-89093258D01*
X98469800Y-89093258D02*
X98517419Y-88950401D01*
X98517419Y-88950401D02*
X98517419Y-88855163D01*
X98517419Y-88855163D02*
X98469800Y-88712306D01*
X98469800Y-88712306D02*
X98422180Y-88664687D01*
X98422180Y-88664687D02*
X98088847Y-88664687D01*
X98088847Y-88664687D02*
X98088847Y-88855163D01*
X98517419Y-88236115D02*
X97517419Y-88236115D01*
X97517419Y-88236115D02*
X98517419Y-87664687D01*
X98517419Y-87664687D02*
X97517419Y-87664687D01*
X98517419Y-87188496D02*
X97517419Y-87188496D01*
X97517419Y-87188496D02*
X97517419Y-86950401D01*
X97517419Y-86950401D02*
X97565038Y-86807544D01*
X97565038Y-86807544D02*
X97660276Y-86712306D01*
X97660276Y-86712306D02*
X97755514Y-86664687D01*
X97755514Y-86664687D02*
X97945990Y-86617068D01*
X97945990Y-86617068D02*
X98088847Y-86617068D01*
X98088847Y-86617068D02*
X98279323Y-86664687D01*
X98279323Y-86664687D02*
X98374561Y-86712306D01*
X98374561Y-86712306D02*
X98469800Y-86807544D01*
X98469800Y-86807544D02*
X98517419Y-86950401D01*
X98517419Y-86950401D02*
X98517419Y-87188496D01*
X113737419Y-88996115D02*
X112737419Y-88996115D01*
X113737419Y-88519925D02*
X112737419Y-88519925D01*
X112737419Y-88519925D02*
X113737419Y-87948497D01*
X113737419Y-87948497D02*
X112737419Y-87948497D01*
X112737419Y-87615163D02*
X112737419Y-87043735D01*
X113737419Y-87329449D02*
X112737419Y-87329449D01*
X110961704Y-89143734D02*
X110961704Y-88667544D01*
X111247419Y-89238972D02*
X110247419Y-88905639D01*
X110247419Y-88905639D02*
X111247419Y-88572306D01*
X111247419Y-88238972D02*
X110247419Y-88238972D01*
X110247419Y-88238972D02*
X110247419Y-88000877D01*
X110247419Y-88000877D02*
X110295038Y-87858020D01*
X110295038Y-87858020D02*
X110390276Y-87762782D01*
X110390276Y-87762782D02*
X110485514Y-87715163D01*
X110485514Y-87715163D02*
X110675990Y-87667544D01*
X110675990Y-87667544D02*
X110818847Y-87667544D01*
X110818847Y-87667544D02*
X111009323Y-87715163D01*
X111009323Y-87715163D02*
X111104561Y-87762782D01*
X111104561Y-87762782D02*
X111199800Y-87858020D01*
X111199800Y-87858020D02*
X111247419Y-88000877D01*
X111247419Y-88000877D02*
X111247419Y-88238972D01*
X110247419Y-87048496D02*
X110247419Y-86953258D01*
X110247419Y-86953258D02*
X110295038Y-86858020D01*
X110295038Y-86858020D02*
X110342657Y-86810401D01*
X110342657Y-86810401D02*
X110437895Y-86762782D01*
X110437895Y-86762782D02*
X110628371Y-86715163D01*
X110628371Y-86715163D02*
X110866466Y-86715163D01*
X110866466Y-86715163D02*
X111056942Y-86762782D01*
X111056942Y-86762782D02*
X111152180Y-86810401D01*
X111152180Y-86810401D02*
X111199800Y-86858020D01*
X111199800Y-86858020D02*
X111247419Y-86953258D01*
X111247419Y-86953258D02*
X111247419Y-87048496D01*
X111247419Y-87048496D02*
X111199800Y-87143734D01*
X111199800Y-87143734D02*
X111152180Y-87191353D01*
X111152180Y-87191353D02*
X111056942Y-87238972D01*
X111056942Y-87238972D02*
X110866466Y-87286591D01*
X110866466Y-87286591D02*
X110628371Y-87286591D01*
X110628371Y-87286591D02*
X110437895Y-87238972D01*
X110437895Y-87238972D02*
X110342657Y-87191353D01*
X110342657Y-87191353D02*
X110295038Y-87143734D01*
X110295038Y-87143734D02*
X110247419Y-87048496D01*
X108183609Y-89066115D02*
X108183609Y-88732782D01*
X108707419Y-88589925D02*
X108707419Y-89066115D01*
X108707419Y-89066115D02*
X107707419Y-89066115D01*
X107707419Y-89066115D02*
X107707419Y-88589925D01*
X108612180Y-87589925D02*
X108659800Y-87637544D01*
X108659800Y-87637544D02*
X108707419Y-87780401D01*
X108707419Y-87780401D02*
X108707419Y-87875639D01*
X108707419Y-87875639D02*
X108659800Y-88018496D01*
X108659800Y-88018496D02*
X108564561Y-88113734D01*
X108564561Y-88113734D02*
X108469323Y-88161353D01*
X108469323Y-88161353D02*
X108278847Y-88208972D01*
X108278847Y-88208972D02*
X108135990Y-88208972D01*
X108135990Y-88208972D02*
X107945514Y-88161353D01*
X107945514Y-88161353D02*
X107850276Y-88113734D01*
X107850276Y-88113734D02*
X107755038Y-88018496D01*
X107755038Y-88018496D02*
X107707419Y-87875639D01*
X107707419Y-87875639D02*
X107707419Y-87780401D01*
X107707419Y-87780401D02*
X107755038Y-87637544D01*
X107755038Y-87637544D02*
X107802657Y-87589925D01*
X108707419Y-86685163D02*
X108707419Y-87161353D01*
X108707419Y-87161353D02*
X107707419Y-87161353D01*
X118353609Y-88912782D02*
X118353609Y-89246115D01*
X118877419Y-89246115D02*
X117877419Y-89246115D01*
X117877419Y-89246115D02*
X117877419Y-88769925D01*
X118829800Y-88436591D02*
X118877419Y-88293734D01*
X118877419Y-88293734D02*
X118877419Y-88055639D01*
X118877419Y-88055639D02*
X118829800Y-87960401D01*
X118829800Y-87960401D02*
X118782180Y-87912782D01*
X118782180Y-87912782D02*
X118686942Y-87865163D01*
X118686942Y-87865163D02*
X118591704Y-87865163D01*
X118591704Y-87865163D02*
X118496466Y-87912782D01*
X118496466Y-87912782D02*
X118448847Y-87960401D01*
X118448847Y-87960401D02*
X118401228Y-88055639D01*
X118401228Y-88055639D02*
X118353609Y-88246115D01*
X118353609Y-88246115D02*
X118305990Y-88341353D01*
X118305990Y-88341353D02*
X118258371Y-88388972D01*
X118258371Y-88388972D02*
X118163133Y-88436591D01*
X118163133Y-88436591D02*
X118067895Y-88436591D01*
X118067895Y-88436591D02*
X117972657Y-88388972D01*
X117972657Y-88388972D02*
X117925038Y-88341353D01*
X117925038Y-88341353D02*
X117877419Y-88246115D01*
X117877419Y-88246115D02*
X117877419Y-88008020D01*
X117877419Y-88008020D02*
X117925038Y-87865163D01*
X118401228Y-87246115D02*
X118877419Y-87246115D01*
X117877419Y-87579448D02*
X118401228Y-87246115D01*
X118401228Y-87246115D02*
X117877419Y-86912782D01*
X118877419Y-86579448D02*
X117877419Y-86579448D01*
X117877419Y-86579448D02*
X118877419Y-86008020D01*
X118877419Y-86008020D02*
X117877419Y-86008020D01*
X118782180Y-84960401D02*
X118829800Y-85008020D01*
X118829800Y-85008020D02*
X118877419Y-85150877D01*
X118877419Y-85150877D02*
X118877419Y-85246115D01*
X118877419Y-85246115D02*
X118829800Y-85388972D01*
X118829800Y-85388972D02*
X118734561Y-85484210D01*
X118734561Y-85484210D02*
X118639323Y-85531829D01*
X118639323Y-85531829D02*
X118448847Y-85579448D01*
X118448847Y-85579448D02*
X118305990Y-85579448D01*
X118305990Y-85579448D02*
X118115514Y-85531829D01*
X118115514Y-85531829D02*
X118020276Y-85484210D01*
X118020276Y-85484210D02*
X117925038Y-85388972D01*
X117925038Y-85388972D02*
X117877419Y-85246115D01*
X117877419Y-85246115D02*
X117877419Y-85150877D01*
X117877419Y-85150877D02*
X117925038Y-85008020D01*
X117925038Y-85008020D02*
X117972657Y-84960401D01*
X116297419Y-89246115D02*
X115297419Y-89246115D01*
X115297419Y-89246115D02*
X116297419Y-88674687D01*
X116297419Y-88674687D02*
X115297419Y-88674687D01*
X116202180Y-87627068D02*
X116249800Y-87674687D01*
X116249800Y-87674687D02*
X116297419Y-87817544D01*
X116297419Y-87817544D02*
X116297419Y-87912782D01*
X116297419Y-87912782D02*
X116249800Y-88055639D01*
X116249800Y-88055639D02*
X116154561Y-88150877D01*
X116154561Y-88150877D02*
X116059323Y-88198496D01*
X116059323Y-88198496D02*
X115868847Y-88246115D01*
X115868847Y-88246115D02*
X115725990Y-88246115D01*
X115725990Y-88246115D02*
X115535514Y-88198496D01*
X115535514Y-88198496D02*
X115440276Y-88150877D01*
X115440276Y-88150877D02*
X115345038Y-88055639D01*
X115345038Y-88055639D02*
X115297419Y-87912782D01*
X115297419Y-87912782D02*
X115297419Y-87817544D01*
X115297419Y-87817544D02*
X115345038Y-87674687D01*
X115345038Y-87674687D02*
X115392657Y-87627068D01*
X116249800Y-87246115D02*
X116297419Y-87103258D01*
X116297419Y-87103258D02*
X116297419Y-86865163D01*
X116297419Y-86865163D02*
X116249800Y-86769925D01*
X116249800Y-86769925D02*
X116202180Y-86722306D01*
X116202180Y-86722306D02*
X116106942Y-86674687D01*
X116106942Y-86674687D02*
X116011704Y-86674687D01*
X116011704Y-86674687D02*
X115916466Y-86722306D01*
X115916466Y-86722306D02*
X115868847Y-86769925D01*
X115868847Y-86769925D02*
X115821228Y-86865163D01*
X115821228Y-86865163D02*
X115773609Y-87055639D01*
X115773609Y-87055639D02*
X115725990Y-87150877D01*
X115725990Y-87150877D02*
X115678371Y-87198496D01*
X115678371Y-87198496D02*
X115583133Y-87246115D01*
X115583133Y-87246115D02*
X115487895Y-87246115D01*
X115487895Y-87246115D02*
X115392657Y-87198496D01*
X115392657Y-87198496D02*
X115345038Y-87150877D01*
X115345038Y-87150877D02*
X115297419Y-87055639D01*
X115297419Y-87055639D02*
X115297419Y-86817544D01*
X115297419Y-86817544D02*
X115345038Y-86674687D01*
X144143095Y-88317419D02*
X144143095Y-89126942D01*
X144143095Y-89126942D02*
X144190714Y-89222180D01*
X144190714Y-89222180D02*
X144238333Y-89269800D01*
X144238333Y-89269800D02*
X144333571Y-89317419D01*
X144333571Y-89317419D02*
X144524047Y-89317419D01*
X144524047Y-89317419D02*
X144619285Y-89269800D01*
X144619285Y-89269800D02*
X144666904Y-89222180D01*
X144666904Y-89222180D02*
X144714523Y-89126942D01*
X144714523Y-89126942D02*
X144714523Y-88317419D01*
X145095476Y-88317419D02*
X145762142Y-88317419D01*
X145762142Y-88317419D02*
X145333571Y-89317419D01*
D13*
X138789510Y-86400828D02*
X138789510Y-87400828D01*
X138789510Y-86543685D02*
X138860939Y-86472257D01*
X138860939Y-86472257D02*
X139003796Y-86400828D01*
X139003796Y-86400828D02*
X139218082Y-86400828D01*
X139218082Y-86400828D02*
X139360939Y-86472257D01*
X139360939Y-86472257D02*
X139432368Y-86615114D01*
X139432368Y-86615114D02*
X139432368Y-87400828D01*
X141003796Y-87400828D02*
X140503796Y-86686542D01*
X140146653Y-87400828D02*
X140146653Y-85900828D01*
X140146653Y-85900828D02*
X140718082Y-85900828D01*
X140718082Y-85900828D02*
X140860939Y-85972257D01*
X140860939Y-85972257D02*
X140932368Y-86043685D01*
X140932368Y-86043685D02*
X141003796Y-86186542D01*
X141003796Y-86186542D02*
X141003796Y-86400828D01*
X141003796Y-86400828D02*
X140932368Y-86543685D01*
X140932368Y-86543685D02*
X140860939Y-86615114D01*
X140860939Y-86615114D02*
X140718082Y-86686542D01*
X140718082Y-86686542D02*
X140146653Y-86686542D01*
X142146653Y-86615114D02*
X141646653Y-86615114D01*
X141646653Y-87400828D02*
X141646653Y-85900828D01*
X141646653Y-85900828D02*
X142360939Y-85900828D01*
X142860939Y-86043685D02*
X142932367Y-85972257D01*
X142932367Y-85972257D02*
X143075225Y-85900828D01*
X143075225Y-85900828D02*
X143432367Y-85900828D01*
X143432367Y-85900828D02*
X143575225Y-85972257D01*
X143575225Y-85972257D02*
X143646653Y-86043685D01*
X143646653Y-86043685D02*
X143718082Y-86186542D01*
X143718082Y-86186542D02*
X143718082Y-86329400D01*
X143718082Y-86329400D02*
X143646653Y-86543685D01*
X143646653Y-86543685D02*
X142789510Y-87400828D01*
X142789510Y-87400828D02*
X143718082Y-87400828D01*
X145003796Y-86400828D02*
X145003796Y-87400828D01*
X144646653Y-85829400D02*
X144289510Y-86900828D01*
X144289510Y-86900828D02*
X145218081Y-86900828D01*
X146503795Y-87400828D02*
X145789509Y-87400828D01*
X145789509Y-87400828D02*
X145789509Y-85900828D01*
X147289510Y-85900828D02*
X147432367Y-85900828D01*
X147432367Y-85900828D02*
X147575224Y-85972257D01*
X147575224Y-85972257D02*
X147646653Y-86043685D01*
X147646653Y-86043685D02*
X147718081Y-86186542D01*
X147718081Y-86186542D02*
X147789510Y-86472257D01*
X147789510Y-86472257D02*
X147789510Y-86829400D01*
X147789510Y-86829400D02*
X147718081Y-87115114D01*
X147718081Y-87115114D02*
X147646653Y-87257971D01*
X147646653Y-87257971D02*
X147575224Y-87329400D01*
X147575224Y-87329400D02*
X147432367Y-87400828D01*
X147432367Y-87400828D02*
X147289510Y-87400828D01*
X147289510Y-87400828D02*
X147146653Y-87329400D01*
X147146653Y-87329400D02*
X147075224Y-87257971D01*
X147075224Y-87257971D02*
X147003795Y-87115114D01*
X147003795Y-87115114D02*
X146932367Y-86829400D01*
X146932367Y-86829400D02*
X146932367Y-86472257D01*
X146932367Y-86472257D02*
X147003795Y-86186542D01*
X147003795Y-86186542D02*
X147075224Y-86043685D01*
X147075224Y-86043685D02*
X147146653Y-85972257D01*
X147146653Y-85972257D02*
X147289510Y-85900828D01*
X149218081Y-87400828D02*
X148360938Y-87400828D01*
X148789509Y-87400828D02*
X148789509Y-85900828D01*
X148789509Y-85900828D02*
X148646652Y-86115114D01*
X148646652Y-86115114D02*
X148503795Y-86257971D01*
X148503795Y-86257971D02*
X148360938Y-86329400D01*
D11*
X129641666Y-150954819D02*
X129641666Y-151669104D01*
X129641666Y-151669104D02*
X129594047Y-151811961D01*
X129594047Y-151811961D02*
X129498809Y-151907200D01*
X129498809Y-151907200D02*
X129355952Y-151954819D01*
X129355952Y-151954819D02*
X129260714Y-151954819D01*
X130546428Y-151288152D02*
X130546428Y-151954819D01*
X130308333Y-150907200D02*
X130070238Y-151621485D01*
X130070238Y-151621485D02*
X130689285Y-151621485D01*
X91764819Y-141823333D02*
X92479104Y-141823333D01*
X92479104Y-141823333D02*
X92621961Y-141870952D01*
X92621961Y-141870952D02*
X92717200Y-141966190D01*
X92717200Y-141966190D02*
X92764819Y-142109047D01*
X92764819Y-142109047D02*
X92764819Y-142204285D01*
X91764819Y-141442380D02*
X91764819Y-140823333D01*
X91764819Y-140823333D02*
X92145771Y-141156666D01*
X92145771Y-141156666D02*
X92145771Y-141013809D01*
X92145771Y-141013809D02*
X92193390Y-140918571D01*
X92193390Y-140918571D02*
X92241009Y-140870952D01*
X92241009Y-140870952D02*
X92336247Y-140823333D01*
X92336247Y-140823333D02*
X92574342Y-140823333D01*
X92574342Y-140823333D02*
X92669580Y-140870952D01*
X92669580Y-140870952D02*
X92717200Y-140918571D01*
X92717200Y-140918571D02*
X92764819Y-141013809D01*
X92764819Y-141013809D02*
X92764819Y-141299523D01*
X92764819Y-141299523D02*
X92717200Y-141394761D01*
X92717200Y-141394761D02*
X92669580Y-141442380D01*
X85786666Y-97454819D02*
X85786666Y-98169104D01*
X85786666Y-98169104D02*
X85739047Y-98311961D01*
X85739047Y-98311961D02*
X85643809Y-98407200D01*
X85643809Y-98407200D02*
X85500952Y-98454819D01*
X85500952Y-98454819D02*
X85405714Y-98454819D01*
X86215238Y-97550057D02*
X86262857Y-97502438D01*
X86262857Y-97502438D02*
X86358095Y-97454819D01*
X86358095Y-97454819D02*
X86596190Y-97454819D01*
X86596190Y-97454819D02*
X86691428Y-97502438D01*
X86691428Y-97502438D02*
X86739047Y-97550057D01*
X86739047Y-97550057D02*
X86786666Y-97645295D01*
X86786666Y-97645295D02*
X86786666Y-97740533D01*
X86786666Y-97740533D02*
X86739047Y-97883390D01*
X86739047Y-97883390D02*
X86167619Y-98454819D01*
X86167619Y-98454819D02*
X86786666Y-98454819D01*
X138284819Y-141463333D02*
X138999104Y-141463333D01*
X138999104Y-141463333D02*
X139141961Y-141510952D01*
X139141961Y-141510952D02*
X139237200Y-141606190D01*
X139237200Y-141606190D02*
X139284819Y-141749047D01*
X139284819Y-141749047D02*
X139284819Y-141844285D01*
X139284819Y-140463333D02*
X139284819Y-141034761D01*
X139284819Y-140749047D02*
X138284819Y-140749047D01*
X138284819Y-140749047D02*
X138427676Y-140844285D01*
X138427676Y-140844285D02*
X138522914Y-140939523D01*
X138522914Y-140939523D02*
X138570533Y-141034761D01*
X132427142Y-143679580D02*
X132379523Y-143727200D01*
X132379523Y-143727200D02*
X132236666Y-143774819D01*
X132236666Y-143774819D02*
X132141428Y-143774819D01*
X132141428Y-143774819D02*
X131998571Y-143727200D01*
X131998571Y-143727200D02*
X131903333Y-143631961D01*
X131903333Y-143631961D02*
X131855714Y-143536723D01*
X131855714Y-143536723D02*
X131808095Y-143346247D01*
X131808095Y-143346247D02*
X131808095Y-143203390D01*
X131808095Y-143203390D02*
X131855714Y-143012914D01*
X131855714Y-143012914D02*
X131903333Y-142917676D01*
X131903333Y-142917676D02*
X131998571Y-142822438D01*
X131998571Y-142822438D02*
X132141428Y-142774819D01*
X132141428Y-142774819D02*
X132236666Y-142774819D01*
X132236666Y-142774819D02*
X132379523Y-142822438D01*
X132379523Y-142822438D02*
X132427142Y-142870057D01*
X133379523Y-143774819D02*
X132808095Y-143774819D01*
X133093809Y-143774819D02*
X133093809Y-142774819D01*
X133093809Y-142774819D02*
X132998571Y-142917676D01*
X132998571Y-142917676D02*
X132903333Y-143012914D01*
X132903333Y-143012914D02*
X132808095Y-143060533D01*
X133712857Y-142774819D02*
X134331904Y-142774819D01*
X134331904Y-142774819D02*
X133998571Y-143155771D01*
X133998571Y-143155771D02*
X134141428Y-143155771D01*
X134141428Y-143155771D02*
X134236666Y-143203390D01*
X134236666Y-143203390D02*
X134284285Y-143251009D01*
X134284285Y-143251009D02*
X134331904Y-143346247D01*
X134331904Y-143346247D02*
X134331904Y-143584342D01*
X134331904Y-143584342D02*
X134284285Y-143679580D01*
X134284285Y-143679580D02*
X134236666Y-143727200D01*
X134236666Y-143727200D02*
X134141428Y-143774819D01*
X134141428Y-143774819D02*
X133855714Y-143774819D01*
X133855714Y-143774819D02*
X133760476Y-143727200D01*
X133760476Y-143727200D02*
X133712857Y-143679580D01*
X155449580Y-122155508D02*
X155497200Y-122203127D01*
X155497200Y-122203127D02*
X155544819Y-122345984D01*
X155544819Y-122345984D02*
X155544819Y-122441222D01*
X155544819Y-122441222D02*
X155497200Y-122584079D01*
X155497200Y-122584079D02*
X155401961Y-122679317D01*
X155401961Y-122679317D02*
X155306723Y-122726936D01*
X155306723Y-122726936D02*
X155116247Y-122774555D01*
X155116247Y-122774555D02*
X154973390Y-122774555D01*
X154973390Y-122774555D02*
X154782914Y-122726936D01*
X154782914Y-122726936D02*
X154687676Y-122679317D01*
X154687676Y-122679317D02*
X154592438Y-122584079D01*
X154592438Y-122584079D02*
X154544819Y-122441222D01*
X154544819Y-122441222D02*
X154544819Y-122345984D01*
X154544819Y-122345984D02*
X154592438Y-122203127D01*
X154592438Y-122203127D02*
X154640057Y-122155508D01*
X155544819Y-121203127D02*
X155544819Y-121774555D01*
X155544819Y-121488841D02*
X154544819Y-121488841D01*
X154544819Y-121488841D02*
X154687676Y-121584079D01*
X154687676Y-121584079D02*
X154782914Y-121679317D01*
X154782914Y-121679317D02*
X154830533Y-121774555D01*
X154640057Y-120822174D02*
X154592438Y-120774555D01*
X154592438Y-120774555D02*
X154544819Y-120679317D01*
X154544819Y-120679317D02*
X154544819Y-120441222D01*
X154544819Y-120441222D02*
X154592438Y-120345984D01*
X154592438Y-120345984D02*
X154640057Y-120298365D01*
X154640057Y-120298365D02*
X154735295Y-120250746D01*
X154735295Y-120250746D02*
X154830533Y-120250746D01*
X154830533Y-120250746D02*
X154973390Y-120298365D01*
X154973390Y-120298365D02*
X155544819Y-120869793D01*
X155544819Y-120869793D02*
X155544819Y-120250746D01*
X171529580Y-133912857D02*
X171577200Y-133960476D01*
X171577200Y-133960476D02*
X171624819Y-134103333D01*
X171624819Y-134103333D02*
X171624819Y-134198571D01*
X171624819Y-134198571D02*
X171577200Y-134341428D01*
X171577200Y-134341428D02*
X171481961Y-134436666D01*
X171481961Y-134436666D02*
X171386723Y-134484285D01*
X171386723Y-134484285D02*
X171196247Y-134531904D01*
X171196247Y-134531904D02*
X171053390Y-134531904D01*
X171053390Y-134531904D02*
X170862914Y-134484285D01*
X170862914Y-134484285D02*
X170767676Y-134436666D01*
X170767676Y-134436666D02*
X170672438Y-134341428D01*
X170672438Y-134341428D02*
X170624819Y-134198571D01*
X170624819Y-134198571D02*
X170624819Y-134103333D01*
X170624819Y-134103333D02*
X170672438Y-133960476D01*
X170672438Y-133960476D02*
X170720057Y-133912857D01*
X171624819Y-132960476D02*
X171624819Y-133531904D01*
X171624819Y-133246190D02*
X170624819Y-133246190D01*
X170624819Y-133246190D02*
X170767676Y-133341428D01*
X170767676Y-133341428D02*
X170862914Y-133436666D01*
X170862914Y-133436666D02*
X170910533Y-133531904D01*
X171624819Y-132008095D02*
X171624819Y-132579523D01*
X171624819Y-132293809D02*
X170624819Y-132293809D01*
X170624819Y-132293809D02*
X170767676Y-132389047D01*
X170767676Y-132389047D02*
X170862914Y-132484285D01*
X170862914Y-132484285D02*
X170910533Y-132579523D01*
X166509580Y-117872857D02*
X166557200Y-117920476D01*
X166557200Y-117920476D02*
X166604819Y-118063333D01*
X166604819Y-118063333D02*
X166604819Y-118158571D01*
X166604819Y-118158571D02*
X166557200Y-118301428D01*
X166557200Y-118301428D02*
X166461961Y-118396666D01*
X166461961Y-118396666D02*
X166366723Y-118444285D01*
X166366723Y-118444285D02*
X166176247Y-118491904D01*
X166176247Y-118491904D02*
X166033390Y-118491904D01*
X166033390Y-118491904D02*
X165842914Y-118444285D01*
X165842914Y-118444285D02*
X165747676Y-118396666D01*
X165747676Y-118396666D02*
X165652438Y-118301428D01*
X165652438Y-118301428D02*
X165604819Y-118158571D01*
X165604819Y-118158571D02*
X165604819Y-118063333D01*
X165604819Y-118063333D02*
X165652438Y-117920476D01*
X165652438Y-117920476D02*
X165700057Y-117872857D01*
X166604819Y-116920476D02*
X166604819Y-117491904D01*
X166604819Y-117206190D02*
X165604819Y-117206190D01*
X165604819Y-117206190D02*
X165747676Y-117301428D01*
X165747676Y-117301428D02*
X165842914Y-117396666D01*
X165842914Y-117396666D02*
X165890533Y-117491904D01*
X165604819Y-116301428D02*
X165604819Y-116206190D01*
X165604819Y-116206190D02*
X165652438Y-116110952D01*
X165652438Y-116110952D02*
X165700057Y-116063333D01*
X165700057Y-116063333D02*
X165795295Y-116015714D01*
X165795295Y-116015714D02*
X165985771Y-115968095D01*
X165985771Y-115968095D02*
X166223866Y-115968095D01*
X166223866Y-115968095D02*
X166414342Y-116015714D01*
X166414342Y-116015714D02*
X166509580Y-116063333D01*
X166509580Y-116063333D02*
X166557200Y-116110952D01*
X166557200Y-116110952D02*
X166604819Y-116206190D01*
X166604819Y-116206190D02*
X166604819Y-116301428D01*
X166604819Y-116301428D02*
X166557200Y-116396666D01*
X166557200Y-116396666D02*
X166509580Y-116444285D01*
X166509580Y-116444285D02*
X166414342Y-116491904D01*
X166414342Y-116491904D02*
X166223866Y-116539523D01*
X166223866Y-116539523D02*
X165985771Y-116539523D01*
X165985771Y-116539523D02*
X165795295Y-116491904D01*
X165795295Y-116491904D02*
X165700057Y-116444285D01*
X165700057Y-116444285D02*
X165652438Y-116396666D01*
X165652438Y-116396666D02*
X165604819Y-116301428D01*
X171749580Y-125346666D02*
X171797200Y-125394285D01*
X171797200Y-125394285D02*
X171844819Y-125537142D01*
X171844819Y-125537142D02*
X171844819Y-125632380D01*
X171844819Y-125632380D02*
X171797200Y-125775237D01*
X171797200Y-125775237D02*
X171701961Y-125870475D01*
X171701961Y-125870475D02*
X171606723Y-125918094D01*
X171606723Y-125918094D02*
X171416247Y-125965713D01*
X171416247Y-125965713D02*
X171273390Y-125965713D01*
X171273390Y-125965713D02*
X171082914Y-125918094D01*
X171082914Y-125918094D02*
X170987676Y-125870475D01*
X170987676Y-125870475D02*
X170892438Y-125775237D01*
X170892438Y-125775237D02*
X170844819Y-125632380D01*
X170844819Y-125632380D02*
X170844819Y-125537142D01*
X170844819Y-125537142D02*
X170892438Y-125394285D01*
X170892438Y-125394285D02*
X170940057Y-125346666D01*
X171844819Y-124870475D02*
X171844819Y-124679999D01*
X171844819Y-124679999D02*
X171797200Y-124584761D01*
X171797200Y-124584761D02*
X171749580Y-124537142D01*
X171749580Y-124537142D02*
X171606723Y-124441904D01*
X171606723Y-124441904D02*
X171416247Y-124394285D01*
X171416247Y-124394285D02*
X171035295Y-124394285D01*
X171035295Y-124394285D02*
X170940057Y-124441904D01*
X170940057Y-124441904D02*
X170892438Y-124489523D01*
X170892438Y-124489523D02*
X170844819Y-124584761D01*
X170844819Y-124584761D02*
X170844819Y-124775237D01*
X170844819Y-124775237D02*
X170892438Y-124870475D01*
X170892438Y-124870475D02*
X170940057Y-124918094D01*
X170940057Y-124918094D02*
X171035295Y-124965713D01*
X171035295Y-124965713D02*
X171273390Y-124965713D01*
X171273390Y-124965713D02*
X171368628Y-124918094D01*
X171368628Y-124918094D02*
X171416247Y-124870475D01*
X171416247Y-124870475D02*
X171463866Y-124775237D01*
X171463866Y-124775237D02*
X171463866Y-124584761D01*
X171463866Y-124584761D02*
X171416247Y-124489523D01*
X171416247Y-124489523D02*
X171368628Y-124441904D01*
X171368628Y-124441904D02*
X171273390Y-124394285D01*
X123648221Y-134939580D02*
X123600602Y-134987200D01*
X123600602Y-134987200D02*
X123457745Y-135034819D01*
X123457745Y-135034819D02*
X123362507Y-135034819D01*
X123362507Y-135034819D02*
X123219650Y-134987200D01*
X123219650Y-134987200D02*
X123124412Y-134891961D01*
X123124412Y-134891961D02*
X123076793Y-134796723D01*
X123076793Y-134796723D02*
X123029174Y-134606247D01*
X123029174Y-134606247D02*
X123029174Y-134463390D01*
X123029174Y-134463390D02*
X123076793Y-134272914D01*
X123076793Y-134272914D02*
X123124412Y-134177676D01*
X123124412Y-134177676D02*
X123219650Y-134082438D01*
X123219650Y-134082438D02*
X123362507Y-134034819D01*
X123362507Y-134034819D02*
X123457745Y-134034819D01*
X123457745Y-134034819D02*
X123600602Y-134082438D01*
X123600602Y-134082438D02*
X123648221Y-134130057D01*
X124219650Y-134463390D02*
X124124412Y-134415771D01*
X124124412Y-134415771D02*
X124076793Y-134368152D01*
X124076793Y-134368152D02*
X124029174Y-134272914D01*
X124029174Y-134272914D02*
X124029174Y-134225295D01*
X124029174Y-134225295D02*
X124076793Y-134130057D01*
X124076793Y-134130057D02*
X124124412Y-134082438D01*
X124124412Y-134082438D02*
X124219650Y-134034819D01*
X124219650Y-134034819D02*
X124410126Y-134034819D01*
X124410126Y-134034819D02*
X124505364Y-134082438D01*
X124505364Y-134082438D02*
X124552983Y-134130057D01*
X124552983Y-134130057D02*
X124600602Y-134225295D01*
X124600602Y-134225295D02*
X124600602Y-134272914D01*
X124600602Y-134272914D02*
X124552983Y-134368152D01*
X124552983Y-134368152D02*
X124505364Y-134415771D01*
X124505364Y-134415771D02*
X124410126Y-134463390D01*
X124410126Y-134463390D02*
X124219650Y-134463390D01*
X124219650Y-134463390D02*
X124124412Y-134511009D01*
X124124412Y-134511009D02*
X124076793Y-134558628D01*
X124076793Y-134558628D02*
X124029174Y-134653866D01*
X124029174Y-134653866D02*
X124029174Y-134844342D01*
X124029174Y-134844342D02*
X124076793Y-134939580D01*
X124076793Y-134939580D02*
X124124412Y-134987200D01*
X124124412Y-134987200D02*
X124219650Y-135034819D01*
X124219650Y-135034819D02*
X124410126Y-135034819D01*
X124410126Y-135034819D02*
X124505364Y-134987200D01*
X124505364Y-134987200D02*
X124552983Y-134939580D01*
X124552983Y-134939580D02*
X124600602Y-134844342D01*
X124600602Y-134844342D02*
X124600602Y-134653866D01*
X124600602Y-134653866D02*
X124552983Y-134558628D01*
X124552983Y-134558628D02*
X124505364Y-134511009D01*
X124505364Y-134511009D02*
X124410126Y-134463390D01*
X132393333Y-129289580D02*
X132345714Y-129337200D01*
X132345714Y-129337200D02*
X132202857Y-129384819D01*
X132202857Y-129384819D02*
X132107619Y-129384819D01*
X132107619Y-129384819D02*
X131964762Y-129337200D01*
X131964762Y-129337200D02*
X131869524Y-129241961D01*
X131869524Y-129241961D02*
X131821905Y-129146723D01*
X131821905Y-129146723D02*
X131774286Y-128956247D01*
X131774286Y-128956247D02*
X131774286Y-128813390D01*
X131774286Y-128813390D02*
X131821905Y-128622914D01*
X131821905Y-128622914D02*
X131869524Y-128527676D01*
X131869524Y-128527676D02*
X131964762Y-128432438D01*
X131964762Y-128432438D02*
X132107619Y-128384819D01*
X132107619Y-128384819D02*
X132202857Y-128384819D01*
X132202857Y-128384819D02*
X132345714Y-128432438D01*
X132345714Y-128432438D02*
X132393333Y-128480057D01*
X132726667Y-128384819D02*
X133393333Y-128384819D01*
X133393333Y-128384819D02*
X132964762Y-129384819D01*
X103433333Y-100269580D02*
X103385714Y-100317200D01*
X103385714Y-100317200D02*
X103242857Y-100364819D01*
X103242857Y-100364819D02*
X103147619Y-100364819D01*
X103147619Y-100364819D02*
X103004762Y-100317200D01*
X103004762Y-100317200D02*
X102909524Y-100221961D01*
X102909524Y-100221961D02*
X102861905Y-100126723D01*
X102861905Y-100126723D02*
X102814286Y-99936247D01*
X102814286Y-99936247D02*
X102814286Y-99793390D01*
X102814286Y-99793390D02*
X102861905Y-99602914D01*
X102861905Y-99602914D02*
X102909524Y-99507676D01*
X102909524Y-99507676D02*
X103004762Y-99412438D01*
X103004762Y-99412438D02*
X103147619Y-99364819D01*
X103147619Y-99364819D02*
X103242857Y-99364819D01*
X103242857Y-99364819D02*
X103385714Y-99412438D01*
X103385714Y-99412438D02*
X103433333Y-99460057D01*
X104290476Y-99364819D02*
X104100000Y-99364819D01*
X104100000Y-99364819D02*
X104004762Y-99412438D01*
X104004762Y-99412438D02*
X103957143Y-99460057D01*
X103957143Y-99460057D02*
X103861905Y-99602914D01*
X103861905Y-99602914D02*
X103814286Y-99793390D01*
X103814286Y-99793390D02*
X103814286Y-100174342D01*
X103814286Y-100174342D02*
X103861905Y-100269580D01*
X103861905Y-100269580D02*
X103909524Y-100317200D01*
X103909524Y-100317200D02*
X104004762Y-100364819D01*
X104004762Y-100364819D02*
X104195238Y-100364819D01*
X104195238Y-100364819D02*
X104290476Y-100317200D01*
X104290476Y-100317200D02*
X104338095Y-100269580D01*
X104338095Y-100269580D02*
X104385714Y-100174342D01*
X104385714Y-100174342D02*
X104385714Y-99936247D01*
X104385714Y-99936247D02*
X104338095Y-99841009D01*
X104338095Y-99841009D02*
X104290476Y-99793390D01*
X104290476Y-99793390D02*
X104195238Y-99745771D01*
X104195238Y-99745771D02*
X104004762Y-99745771D01*
X104004762Y-99745771D02*
X103909524Y-99793390D01*
X103909524Y-99793390D02*
X103861905Y-99841009D01*
X103861905Y-99841009D02*
X103814286Y-99936247D01*
X96053333Y-98539580D02*
X96005714Y-98587200D01*
X96005714Y-98587200D02*
X95862857Y-98634819D01*
X95862857Y-98634819D02*
X95767619Y-98634819D01*
X95767619Y-98634819D02*
X95624762Y-98587200D01*
X95624762Y-98587200D02*
X95529524Y-98491961D01*
X95529524Y-98491961D02*
X95481905Y-98396723D01*
X95481905Y-98396723D02*
X95434286Y-98206247D01*
X95434286Y-98206247D02*
X95434286Y-98063390D01*
X95434286Y-98063390D02*
X95481905Y-97872914D01*
X95481905Y-97872914D02*
X95529524Y-97777676D01*
X95529524Y-97777676D02*
X95624762Y-97682438D01*
X95624762Y-97682438D02*
X95767619Y-97634819D01*
X95767619Y-97634819D02*
X95862857Y-97634819D01*
X95862857Y-97634819D02*
X96005714Y-97682438D01*
X96005714Y-97682438D02*
X96053333Y-97730057D01*
X96958095Y-97634819D02*
X96481905Y-97634819D01*
X96481905Y-97634819D02*
X96434286Y-98111009D01*
X96434286Y-98111009D02*
X96481905Y-98063390D01*
X96481905Y-98063390D02*
X96577143Y-98015771D01*
X96577143Y-98015771D02*
X96815238Y-98015771D01*
X96815238Y-98015771D02*
X96910476Y-98063390D01*
X96910476Y-98063390D02*
X96958095Y-98111009D01*
X96958095Y-98111009D02*
X97005714Y-98206247D01*
X97005714Y-98206247D02*
X97005714Y-98444342D01*
X97005714Y-98444342D02*
X96958095Y-98539580D01*
X96958095Y-98539580D02*
X96910476Y-98587200D01*
X96910476Y-98587200D02*
X96815238Y-98634819D01*
X96815238Y-98634819D02*
X96577143Y-98634819D01*
X96577143Y-98634819D02*
X96481905Y-98587200D01*
X96481905Y-98587200D02*
X96434286Y-98539580D01*
X169969580Y-101766666D02*
X170017200Y-101814285D01*
X170017200Y-101814285D02*
X170064819Y-101957142D01*
X170064819Y-101957142D02*
X170064819Y-102052380D01*
X170064819Y-102052380D02*
X170017200Y-102195237D01*
X170017200Y-102195237D02*
X169921961Y-102290475D01*
X169921961Y-102290475D02*
X169826723Y-102338094D01*
X169826723Y-102338094D02*
X169636247Y-102385713D01*
X169636247Y-102385713D02*
X169493390Y-102385713D01*
X169493390Y-102385713D02*
X169302914Y-102338094D01*
X169302914Y-102338094D02*
X169207676Y-102290475D01*
X169207676Y-102290475D02*
X169112438Y-102195237D01*
X169112438Y-102195237D02*
X169064819Y-102052380D01*
X169064819Y-102052380D02*
X169064819Y-101957142D01*
X169064819Y-101957142D02*
X169112438Y-101814285D01*
X169112438Y-101814285D02*
X169160057Y-101766666D01*
X169398152Y-100909523D02*
X170064819Y-100909523D01*
X169017200Y-101147618D02*
X169731485Y-101385713D01*
X169731485Y-101385713D02*
X169731485Y-100766666D01*
X175449580Y-99476666D02*
X175497200Y-99524285D01*
X175497200Y-99524285D02*
X175544819Y-99667142D01*
X175544819Y-99667142D02*
X175544819Y-99762380D01*
X175544819Y-99762380D02*
X175497200Y-99905237D01*
X175497200Y-99905237D02*
X175401961Y-100000475D01*
X175401961Y-100000475D02*
X175306723Y-100048094D01*
X175306723Y-100048094D02*
X175116247Y-100095713D01*
X175116247Y-100095713D02*
X174973390Y-100095713D01*
X174973390Y-100095713D02*
X174782914Y-100048094D01*
X174782914Y-100048094D02*
X174687676Y-100000475D01*
X174687676Y-100000475D02*
X174592438Y-99905237D01*
X174592438Y-99905237D02*
X174544819Y-99762380D01*
X174544819Y-99762380D02*
X174544819Y-99667142D01*
X174544819Y-99667142D02*
X174592438Y-99524285D01*
X174592438Y-99524285D02*
X174640057Y-99476666D01*
X174544819Y-99143332D02*
X174544819Y-98524285D01*
X174544819Y-98524285D02*
X174925771Y-98857618D01*
X174925771Y-98857618D02*
X174925771Y-98714761D01*
X174925771Y-98714761D02*
X174973390Y-98619523D01*
X174973390Y-98619523D02*
X175021009Y-98571904D01*
X175021009Y-98571904D02*
X175116247Y-98524285D01*
X175116247Y-98524285D02*
X175354342Y-98524285D01*
X175354342Y-98524285D02*
X175449580Y-98571904D01*
X175449580Y-98571904D02*
X175497200Y-98619523D01*
X175497200Y-98619523D02*
X175544819Y-98714761D01*
X175544819Y-98714761D02*
X175544819Y-99000475D01*
X175544819Y-99000475D02*
X175497200Y-99095713D01*
X175497200Y-99095713D02*
X175449580Y-99143332D01*
X131843333Y-82239580D02*
X131795714Y-82287200D01*
X131795714Y-82287200D02*
X131652857Y-82334819D01*
X131652857Y-82334819D02*
X131557619Y-82334819D01*
X131557619Y-82334819D02*
X131414762Y-82287200D01*
X131414762Y-82287200D02*
X131319524Y-82191961D01*
X131319524Y-82191961D02*
X131271905Y-82096723D01*
X131271905Y-82096723D02*
X131224286Y-81906247D01*
X131224286Y-81906247D02*
X131224286Y-81763390D01*
X131224286Y-81763390D02*
X131271905Y-81572914D01*
X131271905Y-81572914D02*
X131319524Y-81477676D01*
X131319524Y-81477676D02*
X131414762Y-81382438D01*
X131414762Y-81382438D02*
X131557619Y-81334819D01*
X131557619Y-81334819D02*
X131652857Y-81334819D01*
X131652857Y-81334819D02*
X131795714Y-81382438D01*
X131795714Y-81382438D02*
X131843333Y-81430057D01*
X132224286Y-81430057D02*
X132271905Y-81382438D01*
X132271905Y-81382438D02*
X132367143Y-81334819D01*
X132367143Y-81334819D02*
X132605238Y-81334819D01*
X132605238Y-81334819D02*
X132700476Y-81382438D01*
X132700476Y-81382438D02*
X132748095Y-81430057D01*
X132748095Y-81430057D02*
X132795714Y-81525295D01*
X132795714Y-81525295D02*
X132795714Y-81620533D01*
X132795714Y-81620533D02*
X132748095Y-81763390D01*
X132748095Y-81763390D02*
X132176667Y-82334819D01*
X132176667Y-82334819D02*
X132795714Y-82334819D01*
X126453333Y-78469580D02*
X126405714Y-78517200D01*
X126405714Y-78517200D02*
X126262857Y-78564819D01*
X126262857Y-78564819D02*
X126167619Y-78564819D01*
X126167619Y-78564819D02*
X126024762Y-78517200D01*
X126024762Y-78517200D02*
X125929524Y-78421961D01*
X125929524Y-78421961D02*
X125881905Y-78326723D01*
X125881905Y-78326723D02*
X125834286Y-78136247D01*
X125834286Y-78136247D02*
X125834286Y-77993390D01*
X125834286Y-77993390D02*
X125881905Y-77802914D01*
X125881905Y-77802914D02*
X125929524Y-77707676D01*
X125929524Y-77707676D02*
X126024762Y-77612438D01*
X126024762Y-77612438D02*
X126167619Y-77564819D01*
X126167619Y-77564819D02*
X126262857Y-77564819D01*
X126262857Y-77564819D02*
X126405714Y-77612438D01*
X126405714Y-77612438D02*
X126453333Y-77660057D01*
X127405714Y-78564819D02*
X126834286Y-78564819D01*
X127120000Y-78564819D02*
X127120000Y-77564819D01*
X127120000Y-77564819D02*
X127024762Y-77707676D01*
X127024762Y-77707676D02*
X126929524Y-77802914D01*
X126929524Y-77802914D02*
X126834286Y-77850533D01*
D10*
%TO.C,MP1548EN2*%
X152068000Y-149219000D02*
X152068000Y-146679000D01*
X152068000Y-149219000D02*
X168832000Y-149219000D01*
X168832000Y-127121000D01*
X152068000Y-127121000D01*
X152068000Y-149219000D01*
%TO.C,U6*%
D14*
X90100000Y-128820000D02*
X145100000Y-128820000D01*
X145100000Y-100820000D01*
X90100000Y-100820000D01*
X90100000Y-128820000D01*
%TO.C,U9*%
D10*
X176540000Y-86710000D02*
X181620000Y-86710000D01*
X181620000Y-111710000D01*
X176540000Y-111710000D01*
X176540000Y-86710000D01*
%TO.C,U8*%
X176210000Y-113730000D02*
X181290000Y-113730000D01*
X181290000Y-139230000D01*
X176210000Y-139230000D01*
X176210000Y-113730000D01*
%TO.C,U10*%
X115065000Y-85190000D02*
X115485000Y-85610000D01*
X115065000Y-85190000D02*
X115505000Y-84750000D01*
X117065000Y-83300000D02*
X116735000Y-83710000D01*
X117065000Y-83300000D02*
X117405000Y-83660000D01*
X117065000Y-85190000D02*
X115065000Y-85190000D01*
X117065000Y-85190000D02*
X117065000Y-83300000D01*
X93835000Y-77190000D02*
X119835000Y-77190000D01*
X119835000Y-93190000D01*
X93835000Y-93190000D01*
X93835000Y-77190000D01*
%TO.C,U7*%
X122815000Y-82720000D02*
X162815000Y-82720000D01*
X162815000Y-97720000D01*
X122815000Y-97720000D01*
X122815000Y-82720000D01*
D15*
%TO.C,J4*%
X133335000Y-150710000D02*
X133335000Y-149460000D01*
X133035000Y-150410000D02*
X133035000Y-145690000D01*
X133035000Y-149100000D02*
X132425000Y-149100000D01*
X133035000Y-147800000D02*
X132425000Y-147800000D01*
X133035000Y-145690000D02*
X126915000Y-145690000D01*
X132425000Y-149800000D02*
X132425000Y-146300000D01*
X132425000Y-146300000D02*
X127525000Y-146300000D01*
X132085000Y-150710000D02*
X133335000Y-150710000D01*
X131575000Y-150610000D02*
X131575000Y-150410000D01*
X131275000Y-150610000D02*
X131575000Y-150610000D01*
X131275000Y-150510000D02*
X131575000Y-150510000D01*
X131275000Y-150410000D02*
X131275000Y-150610000D01*
X130475000Y-150410000D02*
X130475000Y-149800000D01*
X130475000Y-149800000D02*
X132425000Y-149800000D01*
X130075000Y-146800000D02*
X129875000Y-146800000D01*
X130075000Y-146300000D02*
X130075000Y-146800000D01*
X129975000Y-146300000D02*
X129975000Y-146800000D01*
X129875000Y-146800000D02*
X129875000Y-146300000D01*
X129475000Y-149800000D02*
X129475000Y-150410000D01*
X127525000Y-149800000D02*
X129475000Y-149800000D01*
X127525000Y-146300000D02*
X127525000Y-149800000D01*
X126915000Y-150410000D02*
X133035000Y-150410000D01*
X126915000Y-149100000D02*
X127525000Y-149100000D01*
X126915000Y-147800000D02*
X127525000Y-147800000D01*
X126915000Y-145690000D02*
X126915000Y-150410000D01*
%TO.C,J3*%
X96010000Y-149340000D02*
X99160000Y-149340000D01*
X99160000Y-149340000D02*
X101760000Y-146490000D01*
X93460000Y-146490000D02*
X96010000Y-149340000D01*
X101760000Y-146490000D02*
X101760000Y-133640000D01*
X93460000Y-133640000D02*
X93460000Y-146490000D01*
X101760000Y-133640000D02*
X93460000Y-133640000D01*
%TO.C,J2*%
X84740000Y-99000000D02*
X86120000Y-99000000D01*
X84740000Y-100380000D02*
X84740000Y-99000000D01*
X84740000Y-101650000D02*
X84740000Y-106840000D01*
X84740000Y-101650000D02*
X87500000Y-101650000D01*
X84740000Y-106840000D02*
X87500000Y-106840000D01*
X87500000Y-101650000D02*
X87500000Y-106840000D01*
%TO.C,J1*%
X142530000Y-148980000D02*
X145680000Y-148980000D01*
X145680000Y-148980000D02*
X148280000Y-146130000D01*
X139980000Y-146130000D02*
X142530000Y-148980000D01*
X148280000Y-146130000D02*
X148280000Y-133280000D01*
X139980000Y-133280000D02*
X139980000Y-146130000D01*
X148280000Y-133280000D02*
X139980000Y-133280000D01*
%TO.C,C13*%
X136570241Y-140759000D02*
X135940241Y-140759000D01*
X136255241Y-141074000D02*
X136255241Y-140444000D01*
X133070000Y-142150000D02*
X133070000Y-135690000D01*
X133030000Y-142150000D02*
X133030000Y-135690000D01*
X132990000Y-142149000D02*
X132990000Y-135691000D01*
X132950000Y-142148000D02*
X132950000Y-135692000D01*
X132910000Y-142146000D02*
X132910000Y-135694000D01*
X132870000Y-142144000D02*
X132870000Y-135696000D01*
X132830000Y-142141000D02*
X132830000Y-139960000D01*
X132830000Y-137880000D02*
X132830000Y-135699000D01*
X132790000Y-142138000D02*
X132790000Y-139960000D01*
X132790000Y-137880000D02*
X132790000Y-135702000D01*
X132750000Y-142134000D02*
X132750000Y-139960000D01*
X132750000Y-137880000D02*
X132750000Y-135706000D01*
X132710000Y-142130000D02*
X132710000Y-139960000D01*
X132710000Y-137880000D02*
X132710000Y-135710000D01*
X132670000Y-142125000D02*
X132670000Y-139960000D01*
X132670000Y-137880000D02*
X132670000Y-135715000D01*
X132630000Y-142120000D02*
X132630000Y-139960000D01*
X132630000Y-137880000D02*
X132630000Y-135720000D01*
X132590000Y-142115000D02*
X132590000Y-139960000D01*
X132590000Y-137880000D02*
X132590000Y-135725000D01*
X132550000Y-142108000D02*
X132550000Y-139960000D01*
X132550000Y-137880000D02*
X132550000Y-135732000D01*
X132510000Y-142102000D02*
X132510000Y-139960000D01*
X132510000Y-137880000D02*
X132510000Y-135738000D01*
X132470000Y-142094000D02*
X132470000Y-139960000D01*
X132470000Y-137880000D02*
X132470000Y-135746000D01*
X132430000Y-142087000D02*
X132430000Y-139960000D01*
X132430000Y-137880000D02*
X132430000Y-135753000D01*
X132390000Y-142079000D02*
X132390000Y-139960000D01*
X132390000Y-137880000D02*
X132390000Y-135761000D01*
X132350000Y-142070000D02*
X132350000Y-139960000D01*
X132350000Y-137880000D02*
X132350000Y-135770000D01*
X132310000Y-142060000D02*
X132310000Y-139960000D01*
X132310000Y-137880000D02*
X132310000Y-135780000D01*
X132270000Y-142051000D02*
X132270000Y-139960000D01*
X132270000Y-137880000D02*
X132270000Y-135789000D01*
X132230000Y-142040000D02*
X132230000Y-139960000D01*
X132230000Y-137880000D02*
X132230000Y-135800000D01*
X132190000Y-142029000D02*
X132190000Y-139960000D01*
X132190000Y-137880000D02*
X132190000Y-135811000D01*
X132150000Y-142018000D02*
X132150000Y-139960000D01*
X132150000Y-137880000D02*
X132150000Y-135822000D01*
X132110000Y-142006000D02*
X132110000Y-139960000D01*
X132110000Y-137880000D02*
X132110000Y-135834000D01*
X132070000Y-141993000D02*
X132070000Y-139960000D01*
X132070000Y-137880000D02*
X132070000Y-135847000D01*
X132030000Y-141980000D02*
X132030000Y-139960000D01*
X132030000Y-137880000D02*
X132030000Y-135860000D01*
X131990000Y-141967000D02*
X131990000Y-139960000D01*
X131990000Y-137880000D02*
X131990000Y-135873000D01*
X131950000Y-141952000D02*
X131950000Y-139960000D01*
X131950000Y-137880000D02*
X131950000Y-135888000D01*
X131910000Y-141937000D02*
X131910000Y-139960000D01*
X131910000Y-137880000D02*
X131910000Y-135903000D01*
X131870000Y-141922000D02*
X131870000Y-139960000D01*
X131870000Y-137880000D02*
X131870000Y-135918000D01*
X131830000Y-141906000D02*
X131830000Y-139960000D01*
X131830000Y-137880000D02*
X131830000Y-135934000D01*
X131790000Y-141889000D02*
X131790000Y-139960000D01*
X131790000Y-137880000D02*
X131790000Y-135951000D01*
X131750000Y-141872000D02*
X131750000Y-139960000D01*
X131750000Y-137880000D02*
X131750000Y-135968000D01*
X131710000Y-141854000D02*
X131710000Y-139960000D01*
X131710000Y-137880000D02*
X131710000Y-135986000D01*
X131670000Y-141835000D02*
X131670000Y-139960000D01*
X131670000Y-137880000D02*
X131670000Y-136005000D01*
X131630000Y-141816000D02*
X131630000Y-139960000D01*
X131630000Y-137880000D02*
X131630000Y-136024000D01*
X131590000Y-141796000D02*
X131590000Y-139960000D01*
X131590000Y-137880000D02*
X131590000Y-136044000D01*
X131550000Y-141775000D02*
X131550000Y-139960000D01*
X131550000Y-137880000D02*
X131550000Y-136065000D01*
X131510000Y-141754000D02*
X131510000Y-139960000D01*
X131510000Y-137880000D02*
X131510000Y-136086000D01*
X131470000Y-141732000D02*
X131470000Y-139960000D01*
X131470000Y-137880000D02*
X131470000Y-136108000D01*
X131430000Y-141709000D02*
X131430000Y-139960000D01*
X131430000Y-137880000D02*
X131430000Y-136131000D01*
X131390000Y-141685000D02*
X131390000Y-139960000D01*
X131390000Y-137880000D02*
X131390000Y-136155000D01*
X131350000Y-141661000D02*
X131350000Y-139960000D01*
X131350000Y-137880000D02*
X131350000Y-136179000D01*
X131310000Y-141636000D02*
X131310000Y-139960000D01*
X131310000Y-137880000D02*
X131310000Y-136204000D01*
X131270000Y-141610000D02*
X131270000Y-139960000D01*
X131270000Y-137880000D02*
X131270000Y-136230000D01*
X131230000Y-141583000D02*
X131230000Y-139960000D01*
X131230000Y-137880000D02*
X131230000Y-136257000D01*
X131190000Y-141556000D02*
X131190000Y-139960000D01*
X131190000Y-137880000D02*
X131190000Y-136284000D01*
X131150000Y-141527000D02*
X131150000Y-139960000D01*
X131150000Y-137880000D02*
X131150000Y-136313000D01*
X131110000Y-141497000D02*
X131110000Y-139960000D01*
X131110000Y-137880000D02*
X131110000Y-136343000D01*
X131070000Y-141467000D02*
X131070000Y-139960000D01*
X131070000Y-137880000D02*
X131070000Y-136373000D01*
X131030000Y-141436000D02*
X131030000Y-139960000D01*
X131030000Y-137880000D02*
X131030000Y-136404000D01*
X130990000Y-141403000D02*
X130990000Y-139960000D01*
X130990000Y-137880000D02*
X130990000Y-136437000D01*
X130950000Y-141370000D02*
X130950000Y-139960000D01*
X130950000Y-137880000D02*
X130950000Y-136470000D01*
X130910000Y-141335000D02*
X130910000Y-139960000D01*
X130910000Y-137880000D02*
X130910000Y-136505000D01*
X130870000Y-141299000D02*
X130870000Y-139960000D01*
X130870000Y-137880000D02*
X130870000Y-136541000D01*
X130830000Y-141262000D02*
X130830000Y-139960000D01*
X130830000Y-137880000D02*
X130830000Y-136578000D01*
X130790000Y-141224000D02*
X130790000Y-139960000D01*
X130790000Y-137880000D02*
X130790000Y-136616000D01*
X130750000Y-141184000D02*
X130750000Y-136656000D01*
X130710000Y-141143000D02*
X130710000Y-136697000D01*
X130670000Y-141101000D02*
X130670000Y-136739000D01*
X130630000Y-141057000D02*
X130630000Y-136783000D01*
X130590000Y-141011000D02*
X130590000Y-136829000D01*
X130550000Y-140964000D02*
X130550000Y-136876000D01*
X130510000Y-140915000D02*
X130510000Y-136925000D01*
X130470000Y-140863000D02*
X130470000Y-136977000D01*
X130430000Y-140810000D02*
X130430000Y-137030000D01*
X130390000Y-140754000D02*
X130390000Y-137086000D01*
X130350000Y-140695000D02*
X130350000Y-137145000D01*
X130310000Y-140634000D02*
X130310000Y-137206000D01*
X130270000Y-140569000D02*
X130270000Y-137271000D01*
X130230000Y-140501000D02*
X130230000Y-137339000D01*
X130190000Y-140429000D02*
X130190000Y-137411000D01*
X130150000Y-140352000D02*
X130150000Y-137488000D01*
X130110000Y-140270000D02*
X130110000Y-137570000D01*
X130070000Y-140181000D02*
X130070000Y-137659000D01*
X130030000Y-140085000D02*
X130030000Y-137755000D01*
X129990000Y-139978000D02*
X129990000Y-137862000D01*
X129950000Y-139859000D02*
X129950000Y-137981000D01*
X129910000Y-139721000D02*
X129910000Y-138119000D01*
X129870000Y-139553000D02*
X129870000Y-138287000D01*
X129830000Y-139322000D02*
X129830000Y-138518000D01*
X136340000Y-138920000D02*
G75*
G02*
X129800000Y-138920000I-3270000J0D01*
G01*
X129800000Y-138920000D02*
G75*
G02*
X136340000Y-138920000I3270000J0D01*
G01*
%TO.C,C12*%
X158025000Y-125922349D02*
X158025000Y-125122349D01*
X157625000Y-125522349D02*
X158425000Y-125522349D01*
X156260000Y-121512651D02*
X164420000Y-121512651D01*
X156260000Y-121472651D02*
X164420000Y-121472651D01*
X156261000Y-121432651D02*
X164419000Y-121432651D01*
X156262000Y-121392651D02*
X164418000Y-121392651D01*
X156263000Y-121352651D02*
X164417000Y-121352651D01*
X156265000Y-121312651D02*
X164415000Y-121312651D01*
X156267000Y-121272651D02*
X164413000Y-121272651D01*
X156270000Y-121232651D02*
X164410000Y-121232651D01*
X156272000Y-121192651D02*
X164408000Y-121192651D01*
X156276000Y-121152651D02*
X164404000Y-121152651D01*
X156279000Y-121112651D02*
X164401000Y-121112651D01*
X156284000Y-121072651D02*
X164396000Y-121072651D01*
X156288000Y-121032651D02*
X164392000Y-121032651D01*
X156293000Y-120992651D02*
X164387000Y-120992651D01*
X156298000Y-120952651D02*
X164382000Y-120952651D01*
X156304000Y-120912651D02*
X164376000Y-120912651D01*
X156310000Y-120872651D02*
X164370000Y-120872651D01*
X156317000Y-120832651D02*
X164363000Y-120832651D01*
X156323000Y-120792651D02*
X159300000Y-120792651D01*
X161380000Y-120792651D02*
X164357000Y-120792651D01*
X156331000Y-120752651D02*
X159300000Y-120752651D01*
X161380000Y-120752651D02*
X164349000Y-120752651D01*
X156338000Y-120712651D02*
X159300000Y-120712651D01*
X161380000Y-120712651D02*
X164342000Y-120712651D01*
X156347000Y-120672651D02*
X159300000Y-120672651D01*
X161380000Y-120672651D02*
X164333000Y-120672651D01*
X156355000Y-120632651D02*
X159300000Y-120632651D01*
X161380000Y-120632651D02*
X164325000Y-120632651D01*
X156364000Y-120592651D02*
X159300000Y-120592651D01*
X161380000Y-120592651D02*
X164316000Y-120592651D01*
X156373000Y-120552651D02*
X159300000Y-120552651D01*
X161380000Y-120552651D02*
X164307000Y-120552651D01*
X156383000Y-120512651D02*
X159300000Y-120512651D01*
X161380000Y-120512651D02*
X164297000Y-120512651D01*
X156393000Y-120472651D02*
X159300000Y-120472651D01*
X161380000Y-120472651D02*
X164287000Y-120472651D01*
X156404000Y-120432651D02*
X159300000Y-120432651D01*
X161380000Y-120432651D02*
X164276000Y-120432651D01*
X156415000Y-120392651D02*
X159300000Y-120392651D01*
X161380000Y-120392651D02*
X164265000Y-120392651D01*
X156427000Y-120352651D02*
X159300000Y-120352651D01*
X161380000Y-120352651D02*
X164253000Y-120352651D01*
X156439000Y-120312651D02*
X159300000Y-120312651D01*
X161380000Y-120312651D02*
X164241000Y-120312651D01*
X156451000Y-120272651D02*
X159300000Y-120272651D01*
X161380000Y-120272651D02*
X164229000Y-120272651D01*
X156464000Y-120232651D02*
X159300000Y-120232651D01*
X161380000Y-120232651D02*
X164216000Y-120232651D01*
X156477000Y-120192651D02*
X159300000Y-120192651D01*
X161380000Y-120192651D02*
X164203000Y-120192651D01*
X156491000Y-120152651D02*
X159300000Y-120152651D01*
X161380000Y-120152651D02*
X164189000Y-120152651D01*
X156505000Y-120112651D02*
X159300000Y-120112651D01*
X161380000Y-120112651D02*
X164175000Y-120112651D01*
X156520000Y-120072651D02*
X159300000Y-120072651D01*
X161380000Y-120072651D02*
X164160000Y-120072651D01*
X156535000Y-120032651D02*
X159300000Y-120032651D01*
X161380000Y-120032651D02*
X164145000Y-120032651D01*
X156551000Y-119992651D02*
X159300000Y-119992651D01*
X161380000Y-119992651D02*
X164129000Y-119992651D01*
X156567000Y-119952651D02*
X159300000Y-119952651D01*
X161380000Y-119952651D02*
X164113000Y-119952651D01*
X156583000Y-119912651D02*
X159300000Y-119912651D01*
X161380000Y-119912651D02*
X164097000Y-119912651D01*
X156600000Y-119872651D02*
X159300000Y-119872651D01*
X161380000Y-119872651D02*
X164080000Y-119872651D01*
X156618000Y-119832651D02*
X159300000Y-119832651D01*
X161380000Y-119832651D02*
X164062000Y-119832651D01*
X156636000Y-119792651D02*
X159300000Y-119792651D01*
X161380000Y-119792651D02*
X164044000Y-119792651D01*
X156655000Y-119752651D02*
X159300000Y-119752651D01*
X161380000Y-119752651D02*
X164025000Y-119752651D01*
X156674000Y-119712651D02*
X159300000Y-119712651D01*
X161380000Y-119712651D02*
X164006000Y-119712651D01*
X156694000Y-119672651D02*
X159300000Y-119672651D01*
X161380000Y-119672651D02*
X163986000Y-119672651D01*
X156714000Y-119632651D02*
X159300000Y-119632651D01*
X161380000Y-119632651D02*
X163966000Y-119632651D01*
X156735000Y-119592651D02*
X159300000Y-119592651D01*
X161380000Y-119592651D02*
X163945000Y-119592651D01*
X156756000Y-119552651D02*
X159300000Y-119552651D01*
X161380000Y-119552651D02*
X163924000Y-119552651D01*
X156778000Y-119512651D02*
X159300000Y-119512651D01*
X161380000Y-119512651D02*
X163902000Y-119512651D01*
X156801000Y-119472651D02*
X159300000Y-119472651D01*
X161380000Y-119472651D02*
X163879000Y-119472651D01*
X156824000Y-119432651D02*
X159300000Y-119432651D01*
X161380000Y-119432651D02*
X163856000Y-119432651D01*
X156847000Y-119392651D02*
X159300000Y-119392651D01*
X161380000Y-119392651D02*
X163833000Y-119392651D01*
X156872000Y-119352651D02*
X159300000Y-119352651D01*
X161380000Y-119352651D02*
X163808000Y-119352651D01*
X156897000Y-119312651D02*
X159300000Y-119312651D01*
X161380000Y-119312651D02*
X163783000Y-119312651D01*
X156922000Y-119272651D02*
X159300000Y-119272651D01*
X161380000Y-119272651D02*
X163758000Y-119272651D01*
X156948000Y-119232651D02*
X159300000Y-119232651D01*
X161380000Y-119232651D02*
X163732000Y-119232651D01*
X156975000Y-119192651D02*
X159300000Y-119192651D01*
X161380000Y-119192651D02*
X163705000Y-119192651D01*
X157003000Y-119152651D02*
X159300000Y-119152651D01*
X161380000Y-119152651D02*
X163677000Y-119152651D01*
X157031000Y-119112651D02*
X159300000Y-119112651D01*
X161380000Y-119112651D02*
X163649000Y-119112651D01*
X157060000Y-119072651D02*
X159300000Y-119072651D01*
X161380000Y-119072651D02*
X163620000Y-119072651D01*
X157090000Y-119032651D02*
X159300000Y-119032651D01*
X161380000Y-119032651D02*
X163590000Y-119032651D01*
X157121000Y-118992651D02*
X159300000Y-118992651D01*
X161380000Y-118992651D02*
X163559000Y-118992651D01*
X157152000Y-118952651D02*
X159300000Y-118952651D01*
X161380000Y-118952651D02*
X163528000Y-118952651D01*
X157184000Y-118912651D02*
X159300000Y-118912651D01*
X161380000Y-118912651D02*
X163496000Y-118912651D01*
X157217000Y-118872651D02*
X159300000Y-118872651D01*
X161380000Y-118872651D02*
X163463000Y-118872651D01*
X157251000Y-118832651D02*
X159300000Y-118832651D01*
X161380000Y-118832651D02*
X163429000Y-118832651D01*
X157285000Y-118792651D02*
X159300000Y-118792651D01*
X161380000Y-118792651D02*
X163395000Y-118792651D01*
X157321000Y-118752651D02*
X159300000Y-118752651D01*
X161380000Y-118752651D02*
X163359000Y-118752651D01*
X157358000Y-118712651D02*
X163322000Y-118712651D01*
X157395000Y-118672651D02*
X163285000Y-118672651D01*
X157434000Y-118632651D02*
X163246000Y-118632651D01*
X157473000Y-118592651D02*
X163207000Y-118592651D01*
X157514000Y-118552651D02*
X163166000Y-118552651D01*
X157556000Y-118512651D02*
X163124000Y-118512651D01*
X157599000Y-118472651D02*
X163081000Y-118472651D01*
X157644000Y-118432651D02*
X163036000Y-118432651D01*
X157689000Y-118392651D02*
X162991000Y-118392651D01*
X157736000Y-118352651D02*
X162944000Y-118352651D01*
X157785000Y-118312651D02*
X162895000Y-118312651D01*
X157835000Y-118272651D02*
X162845000Y-118272651D01*
X157887000Y-118232651D02*
X162793000Y-118232651D01*
X157940000Y-118192651D02*
X162740000Y-118192651D01*
X157996000Y-118152651D02*
X162684000Y-118152651D01*
X158053000Y-118112651D02*
X162627000Y-118112651D01*
X158113000Y-118072651D02*
X162567000Y-118072651D01*
X158175000Y-118032651D02*
X162505000Y-118032651D01*
X158239000Y-117992651D02*
X162441000Y-117992651D01*
X158306000Y-117952651D02*
X162374000Y-117952651D01*
X158376000Y-117912651D02*
X162304000Y-117912651D01*
X158450000Y-117872651D02*
X162230000Y-117872651D01*
X158527000Y-117832651D02*
X162153000Y-117832651D01*
X158609000Y-117792651D02*
X162071000Y-117792651D01*
X158696000Y-117752651D02*
X161984000Y-117752651D01*
X158788000Y-117712651D02*
X161892000Y-117712651D01*
X158887000Y-117672651D02*
X161793000Y-117672651D01*
X158994000Y-117632651D02*
X161686000Y-117632651D01*
X159112000Y-117592651D02*
X161568000Y-117592651D01*
X159243000Y-117552651D02*
X161437000Y-117552651D01*
X159393000Y-117512651D02*
X161287000Y-117512651D01*
X159572000Y-117472651D02*
X161108000Y-117472651D01*
X159807000Y-117432651D02*
X160873000Y-117432651D01*
X164460000Y-121512651D02*
G75*
G02*
X156220000Y-121512651I-4120000J0D01*
G01*
X156220000Y-121512651D02*
G75*
G02*
X164460000Y-121512651I4120000J0D01*
G01*
%TO.C,C11*%
X172300000Y-135890000D02*
X172300000Y-130650000D01*
X172637000Y-135890000D02*
X172300000Y-135890000D01*
X175040000Y-135890000D02*
X174703000Y-135890000D01*
X172300000Y-130650000D02*
X172637000Y-130650000D01*
X174703000Y-130650000D02*
X175040000Y-130650000D01*
X175040000Y-130650000D02*
X175040000Y-135890000D01*
%TO.C,C10*%
X168425000Y-120034775D02*
X168425000Y-119534775D01*
X168175000Y-119784775D02*
X168675000Y-119784775D01*
X167320000Y-117230000D02*
X172480000Y-117230000D01*
X167320000Y-117190000D02*
X172480000Y-117190000D01*
X167321000Y-117150000D02*
X172479000Y-117150000D01*
X167323000Y-117110000D02*
X172477000Y-117110000D01*
X167325000Y-117070000D02*
X172475000Y-117070000D01*
X167328000Y-117030000D02*
X172472000Y-117030000D01*
X167331000Y-116990000D02*
X168860000Y-116990000D01*
X170940000Y-116990000D02*
X172469000Y-116990000D01*
X167335000Y-116950000D02*
X168860000Y-116950000D01*
X170940000Y-116950000D02*
X172465000Y-116950000D01*
X167340000Y-116910000D02*
X168860000Y-116910000D01*
X170940000Y-116910000D02*
X172460000Y-116910000D01*
X167345000Y-116870000D02*
X168860000Y-116870000D01*
X170940000Y-116870000D02*
X172455000Y-116870000D01*
X167351000Y-116830000D02*
X168860000Y-116830000D01*
X170940000Y-116830000D02*
X172449000Y-116830000D01*
X167357000Y-116790000D02*
X168860000Y-116790000D01*
X170940000Y-116790000D02*
X172443000Y-116790000D01*
X167364000Y-116750000D02*
X168860000Y-116750000D01*
X170940000Y-116750000D02*
X172436000Y-116750000D01*
X167372000Y-116710000D02*
X168860000Y-116710000D01*
X170940000Y-116710000D02*
X172428000Y-116710000D01*
X167381000Y-116670000D02*
X168860000Y-116670000D01*
X170940000Y-116670000D02*
X172419000Y-116670000D01*
X167390000Y-116630000D02*
X168860000Y-116630000D01*
X170940000Y-116630000D02*
X172410000Y-116630000D01*
X167399000Y-116590000D02*
X168860000Y-116590000D01*
X170940000Y-116590000D02*
X172401000Y-116590000D01*
X167410000Y-116550000D02*
X168860000Y-116550000D01*
X170940000Y-116550000D02*
X172390000Y-116550000D01*
X167421000Y-116510000D02*
X168860000Y-116510000D01*
X170940000Y-116510000D02*
X172379000Y-116510000D01*
X167433000Y-116470000D02*
X168860000Y-116470000D01*
X170940000Y-116470000D02*
X172367000Y-116470000D01*
X167445000Y-116430000D02*
X168860000Y-116430000D01*
X170940000Y-116430000D02*
X172355000Y-116430000D01*
X167458000Y-116390000D02*
X168860000Y-116390000D01*
X170940000Y-116390000D02*
X172342000Y-116390000D01*
X167472000Y-116350000D02*
X168860000Y-116350000D01*
X170940000Y-116350000D02*
X172328000Y-116350000D01*
X167487000Y-116310000D02*
X168860000Y-116310000D01*
X170940000Y-116310000D02*
X172313000Y-116310000D01*
X167502000Y-116270000D02*
X168860000Y-116270000D01*
X170940000Y-116270000D02*
X172298000Y-116270000D01*
X167518000Y-116230000D02*
X168860000Y-116230000D01*
X170940000Y-116230000D02*
X172282000Y-116230000D01*
X167535000Y-116190000D02*
X168860000Y-116190000D01*
X170940000Y-116190000D02*
X172265000Y-116190000D01*
X167553000Y-116150000D02*
X168860000Y-116150000D01*
X170940000Y-116150000D02*
X172247000Y-116150000D01*
X167571000Y-116110000D02*
X168860000Y-116110000D01*
X170940000Y-116110000D02*
X172229000Y-116110000D01*
X167591000Y-116070000D02*
X168860000Y-116070000D01*
X170940000Y-116070000D02*
X172209000Y-116070000D01*
X167611000Y-116030000D02*
X168860000Y-116030000D01*
X170940000Y-116030000D02*
X172189000Y-116030000D01*
X167632000Y-115990000D02*
X168860000Y-115990000D01*
X170940000Y-115990000D02*
X172168000Y-115990000D01*
X167654000Y-115950000D02*
X168860000Y-115950000D01*
X170940000Y-115950000D02*
X172146000Y-115950000D01*
X167677000Y-115910000D02*
X168860000Y-115910000D01*
X170940000Y-115910000D02*
X172123000Y-115910000D01*
X167701000Y-115870000D02*
X168860000Y-115870000D01*
X170940000Y-115870000D02*
X172099000Y-115870000D01*
X167725000Y-115830000D02*
X168860000Y-115830000D01*
X170940000Y-115830000D02*
X172075000Y-115830000D01*
X167751000Y-115790000D02*
X168860000Y-115790000D01*
X170940000Y-115790000D02*
X172049000Y-115790000D01*
X167778000Y-115750000D02*
X168860000Y-115750000D01*
X170940000Y-115750000D02*
X172022000Y-115750000D01*
X167806000Y-115710000D02*
X168860000Y-115710000D01*
X170940000Y-115710000D02*
X171994000Y-115710000D01*
X167835000Y-115670000D02*
X168860000Y-115670000D01*
X170940000Y-115670000D02*
X171965000Y-115670000D01*
X167865000Y-115630000D02*
X168860000Y-115630000D01*
X170940000Y-115630000D02*
X171935000Y-115630000D01*
X167897000Y-115590000D02*
X168860000Y-115590000D01*
X170940000Y-115590000D02*
X171903000Y-115590000D01*
X167930000Y-115550000D02*
X168860000Y-115550000D01*
X170940000Y-115550000D02*
X171870000Y-115550000D01*
X167964000Y-115510000D02*
X168860000Y-115510000D01*
X170940000Y-115510000D02*
X171836000Y-115510000D01*
X167999000Y-115470000D02*
X168860000Y-115470000D01*
X170940000Y-115470000D02*
X171801000Y-115470000D01*
X168036000Y-115430000D02*
X168860000Y-115430000D01*
X170940000Y-115430000D02*
X171764000Y-115430000D01*
X168075000Y-115390000D02*
X168860000Y-115390000D01*
X170940000Y-115390000D02*
X171725000Y-115390000D01*
X168115000Y-115350000D02*
X168860000Y-115350000D01*
X170940000Y-115350000D02*
X171685000Y-115350000D01*
X168157000Y-115310000D02*
X168860000Y-115310000D01*
X170940000Y-115310000D02*
X171643000Y-115310000D01*
X168201000Y-115270000D02*
X168860000Y-115270000D01*
X170940000Y-115270000D02*
X171599000Y-115270000D01*
X168248000Y-115230000D02*
X168860000Y-115230000D01*
X170940000Y-115230000D02*
X171552000Y-115230000D01*
X168296000Y-115190000D02*
X168860000Y-115190000D01*
X170940000Y-115190000D02*
X171504000Y-115190000D01*
X168347000Y-115150000D02*
X168860000Y-115150000D01*
X170940000Y-115150000D02*
X171453000Y-115150000D01*
X168401000Y-115110000D02*
X168860000Y-115110000D01*
X170940000Y-115110000D02*
X171399000Y-115110000D01*
X168457000Y-115070000D02*
X168860000Y-115070000D01*
X170940000Y-115070000D02*
X171343000Y-115070000D01*
X168517000Y-115030000D02*
X168860000Y-115030000D01*
X170940000Y-115030000D02*
X171283000Y-115030000D01*
X168581000Y-114990000D02*
X168860000Y-114990000D01*
X170940000Y-114990000D02*
X171219000Y-114990000D01*
X168649000Y-114950000D02*
X168860000Y-114950000D01*
X170940000Y-114950000D02*
X171151000Y-114950000D01*
X168723000Y-114910000D02*
X171077000Y-114910000D01*
X168802000Y-114870000D02*
X170998000Y-114870000D01*
X168889000Y-114830000D02*
X170911000Y-114830000D01*
X168986000Y-114790000D02*
X170814000Y-114790000D01*
X169095000Y-114750000D02*
X170705000Y-114750000D01*
X169223000Y-114710000D02*
X170577000Y-114710000D01*
X169383000Y-114670000D02*
X170417000Y-114670000D01*
X169617000Y-114630000D02*
X170183000Y-114630000D01*
X172520000Y-117230000D02*
G75*
G02*
X167280000Y-117230000I-2620000J0D01*
G01*
X167280000Y-117230000D02*
G75*
G02*
X172520000Y-117230000I2620000J0D01*
G01*
%TO.C,C9*%
X172520000Y-127800000D02*
X172520000Y-122560000D01*
X172857000Y-127800000D02*
X172520000Y-127800000D01*
X175260000Y-127800000D02*
X174923000Y-127800000D01*
X172520000Y-122560000D02*
X172857000Y-122560000D01*
X174923000Y-122560000D02*
X175260000Y-122560000D01*
X175260000Y-122560000D02*
X175260000Y-127800000D01*
%TO.C,C8*%
X121010113Y-136855000D02*
X121510113Y-136855000D01*
X121260113Y-136605000D02*
X121260113Y-137105000D01*
X123814888Y-135750000D02*
X123814888Y-140910000D01*
X123854888Y-135750000D02*
X123854888Y-140910000D01*
X123894888Y-135751000D02*
X123894888Y-140909000D01*
X123934888Y-135753000D02*
X123934888Y-140907000D01*
X123974888Y-135755000D02*
X123974888Y-140905000D01*
X124014888Y-135758000D02*
X124014888Y-140902000D01*
X124054888Y-135761000D02*
X124054888Y-137290000D01*
X124054888Y-139370000D02*
X124054888Y-140899000D01*
X124094888Y-135765000D02*
X124094888Y-137290000D01*
X124094888Y-139370000D02*
X124094888Y-140895000D01*
X124134888Y-135770000D02*
X124134888Y-137290000D01*
X124134888Y-139370000D02*
X124134888Y-140890000D01*
X124174888Y-135775000D02*
X124174888Y-137290000D01*
X124174888Y-139370000D02*
X124174888Y-140885000D01*
X124214888Y-135781000D02*
X124214888Y-137290000D01*
X124214888Y-139370000D02*
X124214888Y-140879000D01*
X124254888Y-135787000D02*
X124254888Y-137290000D01*
X124254888Y-139370000D02*
X124254888Y-140873000D01*
X124294888Y-135794000D02*
X124294888Y-137290000D01*
X124294888Y-139370000D02*
X124294888Y-140866000D01*
X124334888Y-135802000D02*
X124334888Y-137290000D01*
X124334888Y-139370000D02*
X124334888Y-140858000D01*
X124374888Y-135811000D02*
X124374888Y-137290000D01*
X124374888Y-139370000D02*
X124374888Y-140849000D01*
X124414888Y-135820000D02*
X124414888Y-137290000D01*
X124414888Y-139370000D02*
X124414888Y-140840000D01*
X124454888Y-135829000D02*
X124454888Y-137290000D01*
X124454888Y-139370000D02*
X124454888Y-140831000D01*
X124494888Y-135840000D02*
X124494888Y-137290000D01*
X124494888Y-139370000D02*
X124494888Y-140820000D01*
X124534888Y-135851000D02*
X124534888Y-137290000D01*
X124534888Y-139370000D02*
X124534888Y-140809000D01*
X124574888Y-135863000D02*
X124574888Y-137290000D01*
X124574888Y-139370000D02*
X124574888Y-140797000D01*
X124614888Y-135875000D02*
X124614888Y-137290000D01*
X124614888Y-139370000D02*
X124614888Y-140785000D01*
X124654888Y-135888000D02*
X124654888Y-137290000D01*
X124654888Y-139370000D02*
X124654888Y-140772000D01*
X124694888Y-135902000D02*
X124694888Y-137290000D01*
X124694888Y-139370000D02*
X124694888Y-140758000D01*
X124734888Y-135917000D02*
X124734888Y-137290000D01*
X124734888Y-139370000D02*
X124734888Y-140743000D01*
X124774888Y-135932000D02*
X124774888Y-137290000D01*
X124774888Y-139370000D02*
X124774888Y-140728000D01*
X124814888Y-135948000D02*
X124814888Y-137290000D01*
X124814888Y-139370000D02*
X124814888Y-140712000D01*
X124854888Y-135965000D02*
X124854888Y-137290000D01*
X124854888Y-139370000D02*
X124854888Y-140695000D01*
X124894888Y-135983000D02*
X124894888Y-137290000D01*
X124894888Y-139370000D02*
X124894888Y-140677000D01*
X124934888Y-136001000D02*
X124934888Y-137290000D01*
X124934888Y-139370000D02*
X124934888Y-140659000D01*
X124974888Y-136021000D02*
X124974888Y-137290000D01*
X124974888Y-139370000D02*
X124974888Y-140639000D01*
X125014888Y-136041000D02*
X125014888Y-137290000D01*
X125014888Y-139370000D02*
X125014888Y-140619000D01*
X125054888Y-136062000D02*
X125054888Y-137290000D01*
X125054888Y-139370000D02*
X125054888Y-140598000D01*
X125094888Y-136084000D02*
X125094888Y-137290000D01*
X125094888Y-139370000D02*
X125094888Y-140576000D01*
X125134888Y-136107000D02*
X125134888Y-137290000D01*
X125134888Y-139370000D02*
X125134888Y-140553000D01*
X125174888Y-136131000D02*
X125174888Y-137290000D01*
X125174888Y-139370000D02*
X125174888Y-140529000D01*
X125214888Y-136155000D02*
X125214888Y-137290000D01*
X125214888Y-139370000D02*
X125214888Y-140505000D01*
X125254888Y-136181000D02*
X125254888Y-137290000D01*
X125254888Y-139370000D02*
X125254888Y-140479000D01*
X125294888Y-136208000D02*
X125294888Y-137290000D01*
X125294888Y-139370000D02*
X125294888Y-140452000D01*
X125334888Y-136236000D02*
X125334888Y-137290000D01*
X125334888Y-139370000D02*
X125334888Y-140424000D01*
X125374888Y-136265000D02*
X125374888Y-137290000D01*
X125374888Y-139370000D02*
X125374888Y-140395000D01*
X125414888Y-136295000D02*
X125414888Y-137290000D01*
X125414888Y-139370000D02*
X125414888Y-140365000D01*
X125454888Y-136327000D02*
X125454888Y-137290000D01*
X125454888Y-139370000D02*
X125454888Y-140333000D01*
X125494888Y-136360000D02*
X125494888Y-137290000D01*
X125494888Y-139370000D02*
X125494888Y-140300000D01*
X125534888Y-136394000D02*
X125534888Y-137290000D01*
X125534888Y-139370000D02*
X125534888Y-140266000D01*
X125574888Y-136429000D02*
X125574888Y-137290000D01*
X125574888Y-139370000D02*
X125574888Y-140231000D01*
X125614888Y-136466000D02*
X125614888Y-137290000D01*
X125614888Y-139370000D02*
X125614888Y-140194000D01*
X125654888Y-136505000D02*
X125654888Y-137290000D01*
X125654888Y-139370000D02*
X125654888Y-140155000D01*
X125694888Y-136545000D02*
X125694888Y-137290000D01*
X125694888Y-139370000D02*
X125694888Y-140115000D01*
X125734888Y-136587000D02*
X125734888Y-137290000D01*
X125734888Y-139370000D02*
X125734888Y-140073000D01*
X125774888Y-136631000D02*
X125774888Y-137290000D01*
X125774888Y-139370000D02*
X125774888Y-140029000D01*
X125814888Y-136678000D02*
X125814888Y-137290000D01*
X125814888Y-139370000D02*
X125814888Y-139982000D01*
X125854888Y-136726000D02*
X125854888Y-137290000D01*
X125854888Y-139370000D02*
X125854888Y-139934000D01*
X125894888Y-136777000D02*
X125894888Y-137290000D01*
X125894888Y-139370000D02*
X125894888Y-139883000D01*
X125934888Y-136831000D02*
X125934888Y-137290000D01*
X125934888Y-139370000D02*
X125934888Y-139829000D01*
X125974888Y-136887000D02*
X125974888Y-137290000D01*
X125974888Y-139370000D02*
X125974888Y-139773000D01*
X126014888Y-136947000D02*
X126014888Y-137290000D01*
X126014888Y-139370000D02*
X126014888Y-139713000D01*
X126054888Y-137011000D02*
X126054888Y-137290000D01*
X126054888Y-139370000D02*
X126054888Y-139649000D01*
X126094888Y-137079000D02*
X126094888Y-137290000D01*
X126094888Y-139370000D02*
X126094888Y-139581000D01*
X126134888Y-137153000D02*
X126134888Y-139507000D01*
X126174888Y-137232000D02*
X126174888Y-139428000D01*
X126214888Y-137319000D02*
X126214888Y-139341000D01*
X126254888Y-137416000D02*
X126254888Y-139244000D01*
X126294888Y-137525000D02*
X126294888Y-139135000D01*
X126334888Y-137653000D02*
X126334888Y-139007000D01*
X126374888Y-137813000D02*
X126374888Y-138847000D01*
X126414888Y-138047000D02*
X126414888Y-138613000D01*
X126434888Y-138330000D02*
G75*
G02*
X121194888Y-138330000I-2620000J0D01*
G01*
X121194888Y-138330000D02*
G75*
G02*
X126434888Y-138330000I2620000J0D01*
G01*
%TO.C,C7*%
X129940000Y-130060000D02*
X135180000Y-130060000D01*
X129940000Y-130397000D02*
X129940000Y-130060000D01*
X129940000Y-132800000D02*
X129940000Y-132463000D01*
X135180000Y-130060000D02*
X135180000Y-130397000D01*
X135180000Y-132463000D02*
X135180000Y-132800000D01*
X135180000Y-132800000D02*
X129940000Y-132800000D01*
%TO.C,C6*%
X101790199Y-95615000D02*
X102190199Y-95615000D01*
X101990199Y-95415000D02*
X101990199Y-95815000D01*
X104060000Y-94730000D02*
X104060000Y-98890000D01*
X104100000Y-94730000D02*
X104100000Y-98890000D01*
X104140000Y-94732000D02*
X104140000Y-98888000D01*
X104180000Y-94733000D02*
X104180000Y-98887000D01*
X104220000Y-94736000D02*
X104220000Y-98884000D01*
X104260000Y-94739000D02*
X104260000Y-95970000D01*
X104260000Y-97650000D02*
X104260000Y-98881000D01*
X104300000Y-94744000D02*
X104300000Y-95970000D01*
X104300000Y-97650000D02*
X104300000Y-98876000D01*
X104340000Y-94749000D02*
X104340000Y-95970000D01*
X104340000Y-97650000D02*
X104340000Y-98871000D01*
X104380000Y-94754000D02*
X104380000Y-95970000D01*
X104380000Y-97650000D02*
X104380000Y-98866000D01*
X104420000Y-94761000D02*
X104420000Y-95970000D01*
X104420000Y-97650000D02*
X104420000Y-98859000D01*
X104460000Y-94768000D02*
X104460000Y-95970000D01*
X104460000Y-97650000D02*
X104460000Y-98852000D01*
X104500000Y-94776000D02*
X104500000Y-95970000D01*
X104500000Y-97650000D02*
X104500000Y-98844000D01*
X104540000Y-94785000D02*
X104540000Y-95970000D01*
X104540000Y-97650000D02*
X104540000Y-98835000D01*
X104580000Y-94795000D02*
X104580000Y-95970000D01*
X104580000Y-97650000D02*
X104580000Y-98825000D01*
X104620000Y-94805000D02*
X104620000Y-95970000D01*
X104620000Y-97650000D02*
X104620000Y-98815000D01*
X104660000Y-94817000D02*
X104660000Y-95970000D01*
X104660000Y-97650000D02*
X104660000Y-98803000D01*
X104700000Y-94829000D02*
X104700000Y-95970000D01*
X104700000Y-97650000D02*
X104700000Y-98791000D01*
X104740000Y-94842000D02*
X104740000Y-95970000D01*
X104740000Y-97650000D02*
X104740000Y-98778000D01*
X104780000Y-94856000D02*
X104780000Y-95970000D01*
X104780000Y-97650000D02*
X104780000Y-98764000D01*
X104820000Y-94871000D02*
X104820000Y-95970000D01*
X104820000Y-97650000D02*
X104820000Y-98749000D01*
X104860000Y-94887000D02*
X104860000Y-95970000D01*
X104860000Y-97650000D02*
X104860000Y-98733000D01*
X104900000Y-94904000D02*
X104900000Y-95970000D01*
X104900000Y-97650000D02*
X104900000Y-98716000D01*
X104940000Y-94921000D02*
X104940000Y-95970000D01*
X104940000Y-97650000D02*
X104940000Y-98699000D01*
X104980000Y-94940000D02*
X104980000Y-95970000D01*
X104980000Y-97650000D02*
X104980000Y-98680000D01*
X105020000Y-94960000D02*
X105020000Y-95970000D01*
X105020000Y-97650000D02*
X105020000Y-98660000D01*
X105060000Y-94981000D02*
X105060000Y-95970000D01*
X105060000Y-97650000D02*
X105060000Y-98639000D01*
X105100000Y-95003000D02*
X105100000Y-95970000D01*
X105100000Y-97650000D02*
X105100000Y-98617000D01*
X105140000Y-95026000D02*
X105140000Y-95970000D01*
X105140000Y-97650000D02*
X105140000Y-98594000D01*
X105180000Y-95050000D02*
X105180000Y-95970000D01*
X105180000Y-97650000D02*
X105180000Y-98570000D01*
X105220000Y-95076000D02*
X105220000Y-95970000D01*
X105220000Y-97650000D02*
X105220000Y-98544000D01*
X105260000Y-95102000D02*
X105260000Y-95970000D01*
X105260000Y-97650000D02*
X105260000Y-98518000D01*
X105300000Y-95130000D02*
X105300000Y-95970000D01*
X105300000Y-97650000D02*
X105300000Y-98490000D01*
X105340000Y-95160000D02*
X105340000Y-95970000D01*
X105340000Y-97650000D02*
X105340000Y-98460000D01*
X105380000Y-95191000D02*
X105380000Y-95970000D01*
X105380000Y-97650000D02*
X105380000Y-98429000D01*
X105420000Y-95224000D02*
X105420000Y-95970000D01*
X105420000Y-97650000D02*
X105420000Y-98396000D01*
X105460000Y-95258000D02*
X105460000Y-95970000D01*
X105460000Y-97650000D02*
X105460000Y-98362000D01*
X105500000Y-95294000D02*
X105500000Y-95970000D01*
X105500000Y-97650000D02*
X105500000Y-98326000D01*
X105540000Y-95332000D02*
X105540000Y-95970000D01*
X105540000Y-97650000D02*
X105540000Y-98288000D01*
X105580000Y-95372000D02*
X105580000Y-95970000D01*
X105580000Y-97650000D02*
X105580000Y-98248000D01*
X105620000Y-95414000D02*
X105620000Y-95970000D01*
X105620000Y-97650000D02*
X105620000Y-98206000D01*
X105660000Y-95459000D02*
X105660000Y-95970000D01*
X105660000Y-97650000D02*
X105660000Y-98161000D01*
X105700000Y-95507000D02*
X105700000Y-95970000D01*
X105700000Y-97650000D02*
X105700000Y-98113000D01*
X105740000Y-95557000D02*
X105740000Y-95970000D01*
X105740000Y-97650000D02*
X105740000Y-98063000D01*
X105780000Y-95611000D02*
X105780000Y-95970000D01*
X105780000Y-97650000D02*
X105780000Y-98009000D01*
X105820000Y-95668000D02*
X105820000Y-95970000D01*
X105820000Y-97650000D02*
X105820000Y-97952000D01*
X105860000Y-95730000D02*
X105860000Y-95970000D01*
X105860000Y-97650000D02*
X105860000Y-97890000D01*
X105900000Y-95797000D02*
X105900000Y-97823000D01*
X105940000Y-95870000D02*
X105940000Y-97750000D01*
X105980000Y-95951000D02*
X105980000Y-97669000D01*
X106020000Y-96042000D02*
X106020000Y-97578000D01*
X106060000Y-96147000D02*
X106060000Y-97473000D01*
X106100000Y-96273000D02*
X106100000Y-97347000D01*
X106140000Y-96440000D02*
X106140000Y-97180000D01*
X106180000Y-96810000D02*
G75*
G02*
X101940000Y-96810000I-2120000J0D01*
G01*
X101940000Y-96810000D02*
G75*
G02*
X106180000Y-96810000I2120000J0D01*
G01*
%TO.C,C5*%
X93600000Y-94400000D02*
X98840000Y-94400000D01*
X93600000Y-94737000D02*
X93600000Y-94400000D01*
X93600000Y-97140000D02*
X93600000Y-96803000D01*
X98840000Y-94400000D02*
X98840000Y-94737000D01*
X98840000Y-96803000D02*
X98840000Y-97140000D01*
X98840000Y-97140000D02*
X93600000Y-97140000D01*
%TO.C,C4*%
X167335000Y-98795225D02*
X167335000Y-99295225D01*
X167585000Y-99045225D02*
X167085000Y-99045225D01*
X168440000Y-101600000D02*
X163280000Y-101600000D01*
X168440000Y-101640000D02*
X163280000Y-101640000D01*
X168439000Y-101680000D02*
X163281000Y-101680000D01*
X168437000Y-101720000D02*
X163283000Y-101720000D01*
X168435000Y-101760000D02*
X163285000Y-101760000D01*
X168432000Y-101800000D02*
X163288000Y-101800000D01*
X168429000Y-101840000D02*
X166900000Y-101840000D01*
X164820000Y-101840000D02*
X163291000Y-101840000D01*
X168425000Y-101880000D02*
X166900000Y-101880000D01*
X164820000Y-101880000D02*
X163295000Y-101880000D01*
X168420000Y-101920000D02*
X166900000Y-101920000D01*
X164820000Y-101920000D02*
X163300000Y-101920000D01*
X168415000Y-101960000D02*
X166900000Y-101960000D01*
X164820000Y-101960000D02*
X163305000Y-101960000D01*
X168409000Y-102000000D02*
X166900000Y-102000000D01*
X164820000Y-102000000D02*
X163311000Y-102000000D01*
X168403000Y-102040000D02*
X166900000Y-102040000D01*
X164820000Y-102040000D02*
X163317000Y-102040000D01*
X168396000Y-102080000D02*
X166900000Y-102080000D01*
X164820000Y-102080000D02*
X163324000Y-102080000D01*
X168388000Y-102120000D02*
X166900000Y-102120000D01*
X164820000Y-102120000D02*
X163332000Y-102120000D01*
X168379000Y-102160000D02*
X166900000Y-102160000D01*
X164820000Y-102160000D02*
X163341000Y-102160000D01*
X168370000Y-102200000D02*
X166900000Y-102200000D01*
X164820000Y-102200000D02*
X163350000Y-102200000D01*
X168361000Y-102240000D02*
X166900000Y-102240000D01*
X164820000Y-102240000D02*
X163359000Y-102240000D01*
X168350000Y-102280000D02*
X166900000Y-102280000D01*
X164820000Y-102280000D02*
X163370000Y-102280000D01*
X168339000Y-102320000D02*
X166900000Y-102320000D01*
X164820000Y-102320000D02*
X163381000Y-102320000D01*
X168327000Y-102360000D02*
X166900000Y-102360000D01*
X164820000Y-102360000D02*
X163393000Y-102360000D01*
X168315000Y-102400000D02*
X166900000Y-102400000D01*
X164820000Y-102400000D02*
X163405000Y-102400000D01*
X168302000Y-102440000D02*
X166900000Y-102440000D01*
X164820000Y-102440000D02*
X163418000Y-102440000D01*
X168288000Y-102480000D02*
X166900000Y-102480000D01*
X164820000Y-102480000D02*
X163432000Y-102480000D01*
X168273000Y-102520000D02*
X166900000Y-102520000D01*
X164820000Y-102520000D02*
X163447000Y-102520000D01*
X168258000Y-102560000D02*
X166900000Y-102560000D01*
X164820000Y-102560000D02*
X163462000Y-102560000D01*
X168242000Y-102600000D02*
X166900000Y-102600000D01*
X164820000Y-102600000D02*
X163478000Y-102600000D01*
X168225000Y-102640000D02*
X166900000Y-102640000D01*
X164820000Y-102640000D02*
X163495000Y-102640000D01*
X168207000Y-102680000D02*
X166900000Y-102680000D01*
X164820000Y-102680000D02*
X163513000Y-102680000D01*
X168189000Y-102720000D02*
X166900000Y-102720000D01*
X164820000Y-102720000D02*
X163531000Y-102720000D01*
X168169000Y-102760000D02*
X166900000Y-102760000D01*
X164820000Y-102760000D02*
X163551000Y-102760000D01*
X168149000Y-102800000D02*
X166900000Y-102800000D01*
X164820000Y-102800000D02*
X163571000Y-102800000D01*
X168128000Y-102840000D02*
X166900000Y-102840000D01*
X164820000Y-102840000D02*
X163592000Y-102840000D01*
X168106000Y-102880000D02*
X166900000Y-102880000D01*
X164820000Y-102880000D02*
X163614000Y-102880000D01*
X168083000Y-102920000D02*
X166900000Y-102920000D01*
X164820000Y-102920000D02*
X163637000Y-102920000D01*
X168059000Y-102960000D02*
X166900000Y-102960000D01*
X164820000Y-102960000D02*
X163661000Y-102960000D01*
X168035000Y-103000000D02*
X166900000Y-103000000D01*
X164820000Y-103000000D02*
X163685000Y-103000000D01*
X168009000Y-103040000D02*
X166900000Y-103040000D01*
X164820000Y-103040000D02*
X163711000Y-103040000D01*
X167982000Y-103080000D02*
X166900000Y-103080000D01*
X164820000Y-103080000D02*
X163738000Y-103080000D01*
X167954000Y-103120000D02*
X166900000Y-103120000D01*
X164820000Y-103120000D02*
X163766000Y-103120000D01*
X167925000Y-103160000D02*
X166900000Y-103160000D01*
X164820000Y-103160000D02*
X163795000Y-103160000D01*
X167895000Y-103200000D02*
X166900000Y-103200000D01*
X164820000Y-103200000D02*
X163825000Y-103200000D01*
X167863000Y-103240000D02*
X166900000Y-103240000D01*
X164820000Y-103240000D02*
X163857000Y-103240000D01*
X167830000Y-103280000D02*
X166900000Y-103280000D01*
X164820000Y-103280000D02*
X163890000Y-103280000D01*
X167796000Y-103320000D02*
X166900000Y-103320000D01*
X164820000Y-103320000D02*
X163924000Y-103320000D01*
X167761000Y-103360000D02*
X166900000Y-103360000D01*
X164820000Y-103360000D02*
X163959000Y-103360000D01*
X167724000Y-103400000D02*
X166900000Y-103400000D01*
X164820000Y-103400000D02*
X163996000Y-103400000D01*
X167685000Y-103440000D02*
X166900000Y-103440000D01*
X164820000Y-103440000D02*
X164035000Y-103440000D01*
X167645000Y-103480000D02*
X166900000Y-103480000D01*
X164820000Y-103480000D02*
X164075000Y-103480000D01*
X167603000Y-103520000D02*
X166900000Y-103520000D01*
X164820000Y-103520000D02*
X164117000Y-103520000D01*
X167559000Y-103560000D02*
X166900000Y-103560000D01*
X164820000Y-103560000D02*
X164161000Y-103560000D01*
X167512000Y-103600000D02*
X166900000Y-103600000D01*
X164820000Y-103600000D02*
X164208000Y-103600000D01*
X167464000Y-103640000D02*
X166900000Y-103640000D01*
X164820000Y-103640000D02*
X164256000Y-103640000D01*
X167413000Y-103680000D02*
X166900000Y-103680000D01*
X164820000Y-103680000D02*
X164307000Y-103680000D01*
X167359000Y-103720000D02*
X166900000Y-103720000D01*
X164820000Y-103720000D02*
X164361000Y-103720000D01*
X167303000Y-103760000D02*
X166900000Y-103760000D01*
X164820000Y-103760000D02*
X164417000Y-103760000D01*
X167243000Y-103800000D02*
X166900000Y-103800000D01*
X164820000Y-103800000D02*
X164477000Y-103800000D01*
X167179000Y-103840000D02*
X166900000Y-103840000D01*
X164820000Y-103840000D02*
X164541000Y-103840000D01*
X167111000Y-103880000D02*
X166900000Y-103880000D01*
X164820000Y-103880000D02*
X164609000Y-103880000D01*
X167037000Y-103920000D02*
X164683000Y-103920000D01*
X166958000Y-103960000D02*
X164762000Y-103960000D01*
X166871000Y-104000000D02*
X164849000Y-104000000D01*
X166774000Y-104040000D02*
X164946000Y-104040000D01*
X166665000Y-104080000D02*
X165055000Y-104080000D01*
X166537000Y-104120000D02*
X165183000Y-104120000D01*
X166377000Y-104160000D02*
X165343000Y-104160000D01*
X166143000Y-104200000D02*
X165577000Y-104200000D01*
X168480000Y-101600000D02*
G75*
G02*
X163240000Y-101600000I-2620000J0D01*
G01*
X163240000Y-101600000D02*
G75*
G02*
X168480000Y-101600000I2620000J0D01*
G01*
%TO.C,C3*%
X173960000Y-96690000D02*
X173960000Y-101930000D01*
X173623000Y-96690000D02*
X173960000Y-96690000D01*
X171220000Y-96690000D02*
X171557000Y-96690000D01*
X173960000Y-101930000D02*
X173623000Y-101930000D01*
X171557000Y-101930000D02*
X171220000Y-101930000D01*
X171220000Y-101930000D02*
X171220000Y-96690000D01*
%TO.C,C2*%
X132425225Y-78055000D02*
X132925225Y-78055000D01*
X132675225Y-77805000D02*
X132675225Y-78305000D01*
X135230000Y-76950000D02*
X135230000Y-82110000D01*
X135270000Y-76950000D02*
X135270000Y-82110000D01*
X135310000Y-76951000D02*
X135310000Y-82109000D01*
X135350000Y-76953000D02*
X135350000Y-82107000D01*
X135390000Y-76955000D02*
X135390000Y-82105000D01*
X135430000Y-76958000D02*
X135430000Y-82102000D01*
X135470000Y-76961000D02*
X135470000Y-78490000D01*
X135470000Y-80570000D02*
X135470000Y-82099000D01*
X135510000Y-76965000D02*
X135510000Y-78490000D01*
X135510000Y-80570000D02*
X135510000Y-82095000D01*
X135550000Y-76970000D02*
X135550000Y-78490000D01*
X135550000Y-80570000D02*
X135550000Y-82090000D01*
X135590000Y-76975000D02*
X135590000Y-78490000D01*
X135590000Y-80570000D02*
X135590000Y-82085000D01*
X135630000Y-76981000D02*
X135630000Y-78490000D01*
X135630000Y-80570000D02*
X135630000Y-82079000D01*
X135670000Y-76987000D02*
X135670000Y-78490000D01*
X135670000Y-80570000D02*
X135670000Y-82073000D01*
X135710000Y-76994000D02*
X135710000Y-78490000D01*
X135710000Y-80570000D02*
X135710000Y-82066000D01*
X135750000Y-77002000D02*
X135750000Y-78490000D01*
X135750000Y-80570000D02*
X135750000Y-82058000D01*
X135790000Y-77011000D02*
X135790000Y-78490000D01*
X135790000Y-80570000D02*
X135790000Y-82049000D01*
X135830000Y-77020000D02*
X135830000Y-78490000D01*
X135830000Y-80570000D02*
X135830000Y-82040000D01*
X135870000Y-77029000D02*
X135870000Y-78490000D01*
X135870000Y-80570000D02*
X135870000Y-82031000D01*
X135910000Y-77040000D02*
X135910000Y-78490000D01*
X135910000Y-80570000D02*
X135910000Y-82020000D01*
X135950000Y-77051000D02*
X135950000Y-78490000D01*
X135950000Y-80570000D02*
X135950000Y-82009000D01*
X135990000Y-77063000D02*
X135990000Y-78490000D01*
X135990000Y-80570000D02*
X135990000Y-81997000D01*
X136030000Y-77075000D02*
X136030000Y-78490000D01*
X136030000Y-80570000D02*
X136030000Y-81985000D01*
X136070000Y-77088000D02*
X136070000Y-78490000D01*
X136070000Y-80570000D02*
X136070000Y-81972000D01*
X136110000Y-77102000D02*
X136110000Y-78490000D01*
X136110000Y-80570000D02*
X136110000Y-81958000D01*
X136150000Y-77117000D02*
X136150000Y-78490000D01*
X136150000Y-80570000D02*
X136150000Y-81943000D01*
X136190000Y-77132000D02*
X136190000Y-78490000D01*
X136190000Y-80570000D02*
X136190000Y-81928000D01*
X136230000Y-77148000D02*
X136230000Y-78490000D01*
X136230000Y-80570000D02*
X136230000Y-81912000D01*
X136270000Y-77165000D02*
X136270000Y-78490000D01*
X136270000Y-80570000D02*
X136270000Y-81895000D01*
X136310000Y-77183000D02*
X136310000Y-78490000D01*
X136310000Y-80570000D02*
X136310000Y-81877000D01*
X136350000Y-77201000D02*
X136350000Y-78490000D01*
X136350000Y-80570000D02*
X136350000Y-81859000D01*
X136390000Y-77221000D02*
X136390000Y-78490000D01*
X136390000Y-80570000D02*
X136390000Y-81839000D01*
X136430000Y-77241000D02*
X136430000Y-78490000D01*
X136430000Y-80570000D02*
X136430000Y-81819000D01*
X136470000Y-77262000D02*
X136470000Y-78490000D01*
X136470000Y-80570000D02*
X136470000Y-81798000D01*
X136510000Y-77284000D02*
X136510000Y-78490000D01*
X136510000Y-80570000D02*
X136510000Y-81776000D01*
X136550000Y-77307000D02*
X136550000Y-78490000D01*
X136550000Y-80570000D02*
X136550000Y-81753000D01*
X136590000Y-77331000D02*
X136590000Y-78490000D01*
X136590000Y-80570000D02*
X136590000Y-81729000D01*
X136630000Y-77355000D02*
X136630000Y-78490000D01*
X136630000Y-80570000D02*
X136630000Y-81705000D01*
X136670000Y-77381000D02*
X136670000Y-78490000D01*
X136670000Y-80570000D02*
X136670000Y-81679000D01*
X136710000Y-77408000D02*
X136710000Y-78490000D01*
X136710000Y-80570000D02*
X136710000Y-81652000D01*
X136750000Y-77436000D02*
X136750000Y-78490000D01*
X136750000Y-80570000D02*
X136750000Y-81624000D01*
X136790000Y-77465000D02*
X136790000Y-78490000D01*
X136790000Y-80570000D02*
X136790000Y-81595000D01*
X136830000Y-77495000D02*
X136830000Y-78490000D01*
X136830000Y-80570000D02*
X136830000Y-81565000D01*
X136870000Y-77527000D02*
X136870000Y-78490000D01*
X136870000Y-80570000D02*
X136870000Y-81533000D01*
X136910000Y-77560000D02*
X136910000Y-78490000D01*
X136910000Y-80570000D02*
X136910000Y-81500000D01*
X136950000Y-77594000D02*
X136950000Y-78490000D01*
X136950000Y-80570000D02*
X136950000Y-81466000D01*
X136990000Y-77629000D02*
X136990000Y-78490000D01*
X136990000Y-80570000D02*
X136990000Y-81431000D01*
X137030000Y-77666000D02*
X137030000Y-78490000D01*
X137030000Y-80570000D02*
X137030000Y-81394000D01*
X137070000Y-77705000D02*
X137070000Y-78490000D01*
X137070000Y-80570000D02*
X137070000Y-81355000D01*
X137110000Y-77745000D02*
X137110000Y-78490000D01*
X137110000Y-80570000D02*
X137110000Y-81315000D01*
X137150000Y-77787000D02*
X137150000Y-78490000D01*
X137150000Y-80570000D02*
X137150000Y-81273000D01*
X137190000Y-77831000D02*
X137190000Y-78490000D01*
X137190000Y-80570000D02*
X137190000Y-81229000D01*
X137230000Y-77878000D02*
X137230000Y-78490000D01*
X137230000Y-80570000D02*
X137230000Y-81182000D01*
X137270000Y-77926000D02*
X137270000Y-78490000D01*
X137270000Y-80570000D02*
X137270000Y-81134000D01*
X137310000Y-77977000D02*
X137310000Y-78490000D01*
X137310000Y-80570000D02*
X137310000Y-81083000D01*
X137350000Y-78031000D02*
X137350000Y-78490000D01*
X137350000Y-80570000D02*
X137350000Y-81029000D01*
X137390000Y-78087000D02*
X137390000Y-78490000D01*
X137390000Y-80570000D02*
X137390000Y-80973000D01*
X137430000Y-78147000D02*
X137430000Y-78490000D01*
X137430000Y-80570000D02*
X137430000Y-80913000D01*
X137470000Y-78211000D02*
X137470000Y-78490000D01*
X137470000Y-80570000D02*
X137470000Y-80849000D01*
X137510000Y-78279000D02*
X137510000Y-78490000D01*
X137510000Y-80570000D02*
X137510000Y-80781000D01*
X137550000Y-78353000D02*
X137550000Y-80707000D01*
X137590000Y-78432000D02*
X137590000Y-80628000D01*
X137630000Y-78519000D02*
X137630000Y-80541000D01*
X137670000Y-78616000D02*
X137670000Y-80444000D01*
X137710000Y-78725000D02*
X137710000Y-80335000D01*
X137750000Y-78853000D02*
X137750000Y-80207000D01*
X137790000Y-79013000D02*
X137790000Y-80047000D01*
X137830000Y-79247000D02*
X137830000Y-79813000D01*
X137850000Y-79530000D02*
G75*
G02*
X132610000Y-79530000I-2620000J0D01*
G01*
X132610000Y-79530000D02*
G75*
G02*
X137850000Y-79530000I2620000J0D01*
G01*
%TO.C,C1*%
X124000000Y-79240000D02*
X129240000Y-79240000D01*
X124000000Y-79577000D02*
X124000000Y-79240000D01*
X124000000Y-81980000D02*
X124000000Y-81643000D01*
X129240000Y-79240000D02*
X129240000Y-79577000D01*
X129240000Y-81643000D02*
X129240000Y-81980000D01*
X129240000Y-81980000D02*
X124000000Y-81980000D01*
%TD*%
M02*
